<?xml version="1.0" encoding="utf-8"?>
<!-- Generator: Adobe Illustrator 18.1.1, SVG Export Plug-In . SVG Version: 6.00 Build 0)  -->
<svg version="1.1" id="Calque_1" xmlns="http://www.w3.org/2000/svg" xmlns:xlink="http://www.w3.org/1999/xlink" x="0px" y="0px"
	 viewBox="0 0 90 90" enable-background="new 0 0 90 90" xml:space="preserve">
<g>
	<circle fill="#CE6BA7" cx="45" cy="45" r="45"/>
	<g>
		<g>
			<g>
				<path fill="#FFD134" d="M49.6,55.5c-0.3-0.3-0.6-0.5-0.9-0.7c-0.7-0.4-1.5-0.6-2.3-0.8v6c1.3-0.1,2.7-0.6,3.4-1.8l0,0
					c0.3-0.6,0.4-1.3,0.3-1.9C50,56.1,49.8,55.8,49.6,55.5z"/>
			</g>
			<g>
				<path fill="#FFD134" d="M49.8,58.3C49.8,58.3,49.8,58.3,49.8,58.3L49.8,58.3C49.8,58.3,49.8,58.3,49.8,58.3z"/>
			</g>
			<g>
				<path fill="#FFD134" d="M40.5,45.9c-0.2,0.3-0.4,0.7-0.4,1.1c0,0.4,0,0.8,0.1,1.2c0.1,0.3,0.4,0.6,0.7,0.8
					c0.3,0.2,0.7,0.4,1.1,0.6c0.3,0.1,0.7,0.3,1.1,0.4v-5.5C42.1,44.6,41.1,45,40.5,45.9z"/>
			</g>
			<g>
				<path fill="#FFD134" d="M49.8,58.3C49.8,58.3,49.8,58.3,49.8,58.3L49.8,58.3C49.8,58.3,49.8,58.3,49.8,58.3z"/>
			</g>
			<g>
				<path fill="#FFD134" d="M49.8,58.2C49.8,58.2,49.9,58.2,49.8,58.2L49.8,58.2z"/>
			</g>
			<g>
				<path fill="#FFD134" d="M48.5,25.4c5.1-4.3,8.6-14,6.5-14.5c-2.8-0.6-8.9,1.9-11.8,2.3c-4.2,0.5-8.7-4.5-11.3-1.7
					c-2.1,2.3,1.5,10.6,7.1,14.2c-16.6,8.2-40,49.2,0.8,52.2C96.2,82.1,67.9,33.3,48.5,25.4z M53.4,57.7c-0.2,1.6-1,3-2.3,4
					c-1.3,1-3,1.5-4.7,1.7v1.8c0,0.5-0.2,0.9-0.6,1.2c-0.5,0.4-1.2,0.5-1.8,0.3c-0.6-0.3-1-0.9-1-1.5v-1.9c-0.3-0.1-0.6-0.1-0.9-0.2
					c-1.6-0.4-3-1.3-4.1-2.5c-0.5-0.6-1-1.3-1.3-2.1c-0.1-0.2-0.1-0.4-0.2-0.6c-0.1-0.2-0.1-0.4-0.1-0.6c0-0.3,0-0.6,0.2-0.9
					c0.3-0.6,1-0.9,1.6-0.9c0.7,0.1,1.2,0.5,1.4,1.1c0.1,0.2,0.1,0.4,0.2,0.6c0.1,0.2,0.2,0.4,0.3,0.5c0.2,0.3,0.4,0.7,0.7,0.9
					c0.6,0.6,1.3,0.9,2.1,1.2v-6.6c-1.5-0.4-3.1-0.9-4.4-1.9c-0.6-0.5-1.1-1.1-1.5-1.8c-0.4-0.7-0.5-1.6-0.5-2.4
					c0-0.8,0.2-1.7,0.5-2.4c0.3-0.7,0.8-1.3,1.4-1.9c1.2-1.1,2.8-1.8,4.5-2v-0.1v-1.7c0-0.5,0.2-0.9,0.6-1.2
					c0.5-0.4,1.2-0.5,1.8-0.3c0.6,0.3,1,0.9,1,1.5v1.7V41c0.2,0,0.4,0.1,0.6,0.1c1.6,0.3,3.2,1,4.3,2.1c0.6,0.5,1,1.2,1.3,1.9
					c0.1,0.2,0.2,0.4,0.2,0.6c0.1,0.2,0.1,0.4,0.2,0.6c0,0.3,0,0.7-0.1,0.9c-0.3,0.6-0.9,1-1.6,1c-0.7,0-1.2-0.5-1.5-1.1
					c-0.1-0.2-0.1-0.4-0.2-0.6c-0.1-0.2-0.2-0.4-0.3-0.5c-0.2-0.3-0.5-0.6-0.8-0.8c-0.7-0.5-1.5-0.7-2.3-0.9v6.3
					c1,0.2,1.9,0.5,2.8,0.8c1.4,0.5,2.7,1.4,3.5,2.7c-0.1-0.2-0.2-0.4,0,0c0.2,0.4,0.1,0.2,0,0C53.3,55.3,53.5,56.5,53.4,57.7z"/>
			</g>
			<g>
				<path fill="#FFD134" d="M49.8,58.4C49.8,58.4,49.7,58.4,49.8,58.4C49.7,58.4,49.8,58.4,49.8,58.4z"/>
			</g>
		</g>
	</g>
</g>
</svg>
