<?xml version="1.0" encoding="utf-8"?>
<!-- Generator: Adobe Illustrator 16.0.0, SVG Export Plug-In . SVG Version: 6.00 Build 0)  -->
<!DOCTYPE svg PUBLIC "-//W3C//DTD SVG 1.1//EN" "http://www.w3.org/Graphics/SVG/1.1/DTD/svg11.dtd">
<svg version="1.1" id="Calque_1" xmlns="http://www.w3.org/2000/svg" xmlns:xlink="http://www.w3.org/1999/xlink" x="0px" y="0px"
	 width="166.048px" height="271.297px" viewBox="0 0 166.048 271.297" enable-background="new 0 0 166.048 271.297"
	 xml:space="preserve">
<path fill="#EA5B23" d="M165.672,172.984c-0.963-8.69-3.896-15.898-6.775-21.496c-2.949-5.601-5.979-9.651-8.184-12.32
	c-0.369-0.438-0.703-0.827-1.021-1.193c0.154-5.564-0.27-11.716-1.898-18.333c-0.354-1.279-0.666-2.569-1.172-3.896
	c-0.236-0.651-0.465-1.349-0.723-1.974l-0.803-1.831c-1.029-2.484-2.316-4.905-3.641-7.37c-2.791-4.852-6.207-9.636-10.338-14.012
	c-8.211-8.856-18.66-14.658-28.51-17.667c-4.979-1.417-9.785-2.322-14.301-2.629c-2.252-0.216-4.352-0.148-6.402-0.216
	c-2.146,0.03-4.168-0.016-6.141,0.307c-3.918,0.442-7.248,1.503-10.057,2.528c-2.719,1.032-4.951,2.089-6.768,3.006
	c0.121-0.947,0.227-1.917,0.293-2.939c0.244-3.268,0.109-6.897-0.482-10.746c-0.559-3.858-1.633-7.932-3.291-12.022
	c-3.271-8.178-8.881-16.567-16.996-23.09c-8.078-6.534-17.869-10.349-26.971-10.877C7.427,15.941,3.547,16.268,0,16.96v242.486
	c0.219,0.145,0.431,0.291,0.654,0.433c8.074,4.68,18.105,8.025,29.93,9.896c11.738,1.786,25.297,1.637,38.885-2.66
	c6.75-2.174,13.141-5.345,18.619-9.531c5.4-4.201,9.717-8.927,13.332-13.813c1.711-2.289,3.209-4.638,4.543-7.002
	c0.707-0.137,1.531-0.303,2.486-0.506c3.371-0.714,8.23-1.884,14.111-3.935c5.854-2.1,12.797-5.052,19.857-9.894
	c3.547-2.381,7.037-5.362,10.303-8.88c3.229-3.517,6.291-7.728,8.414-12.419C165.646,191.789,166.734,181.594,165.672,172.984z"/>
<path fill="#000100" d="M165.672,172.984c-0.963-8.69-3.896-15.898-6.775-21.496c-2.949-5.601-5.979-9.651-8.184-12.32
	c-0.369-0.438-0.703-0.827-1.021-1.193c0.154-5.564-0.27-11.716-1.898-18.333c-0.354-1.279-0.666-2.569-1.172-3.896
	c-0.236-0.651-0.465-1.349-0.723-1.974l-0.803-1.831c-1.029-2.484-2.316-4.905-3.641-7.37c-2.791-4.852-6.207-9.636-10.338-14.012
	c-8.211-8.856-18.66-14.658-28.51-17.667c-4.979-1.417-9.785-2.322-14.301-2.629c-2.252-0.216-4.352-0.148-6.402-0.216
	c-2.146,0.03-4.168-0.016-6.141,0.307c-3.918,0.442-7.248,1.503-10.057,2.528c-2.719,1.032-4.951,2.089-6.768,3.006
	c0.121-0.947,0.227-1.917,0.293-2.939c0.244-3.268,0.109-6.897-0.482-10.746c-0.559-3.858-1.633-7.932-3.291-12.022
	c-3.271-8.178-8.881-16.567-16.996-23.09c-8.078-6.534-17.869-10.349-26.971-10.877C7.427,15.941,3.547,16.268,0,16.96v8.493
	c3.255-0.054,6.671,0.203,10.146,0.938c7.016,1.438,14.201,4.962,20.691,10.183c6.502,5.224,11.65,11.604,15.352,18.026
	c1.871,3.209,3.365,6.45,4.484,9.603c1.154,3.144,1.984,6.198,2.482,9.057c0.779,4.476,1.127,9.25,0.689,13.994
	c-0.098,1.713-0.359,3.02-0.484,3.926c-0.131,0.912-0.199,1.391-0.199,1.391s0.238-0.419,0.693-1.216
	c0.441-0.806,1.164-1.985,1.83-3.621c1.053-2.347,2.227-5.655,2.951-9.809c0.248-0.052,0.486-0.099,0.752-0.155
	c3.971-0.699,9.809-1.945,16.537-1.335c1.666,0.063,3.428,0.48,5.234,0.792c1.879,0.422,3.906,0.722,5.861,1.252
	c3.938,0.939,7.984,2.358,12.084,4.062c8.111,3.627,16.275,8.948,23.18,16.391c3.475,3.682,6.521,7.634,9.207,11.677
	c1.281,2.063,2.576,4.08,3.668,6.158l0.857,1.529c0.27,0.501,0.467,0.968,0.703,1.449c0.486,0.926,0.859,1.97,1.273,2.966
	c3.123,8.198,4.393,16.602,4.949,23.548c0.447,6.993,0.006,12.761-0.812,16.679c-0.459,1.935-0.822,3.482-1.221,4.472
	c-0.346,1.023-0.531,1.562-0.531,1.562s0.344-0.455,0.994-1.319c0.701-0.855,1.518-2.234,2.549-4.076
	c1.959-3.715,4.004-9.559,5.102-17.079c0.209-1.634,0.375-3.356,0.502-5.135c1.119,3.097,2.486,7.269,3.68,12.275
	c1.303,5.707,2.475,12.531,2.209,19.859c-0.176,7.325-1.74,15.071-5.268,22.401c-3.402,7.343-8.605,13.385-14.104,18.485
	c-5.508,5.081-11.25,9.158-16.188,12.49c-4.971,3.303-9.184,5.856-12.105,7.62c-0.299,0.182-0.576,0.35-0.85,0.515
	c1.092-2.075,2.08-4.154,2.91-6.216c1.078-2.466,1.768-5.012,2.467-7.405c0.318-1.21,0.498-2.445,0.74-3.62
	c0.238-1.176,0.438-2.33,0.486-3.493c0.082-1.145,0.164-2.261,0.244-3.351c0.02-1.095-0.074-2.17-0.113-3.198
	c0-2.062-0.451-3.984-0.787-5.756c-0.086-0.439-0.17-0.872-0.256-1.299c-0.109-0.42-0.273-0.823-0.404-1.221
	c-0.275-0.786-0.543-1.543-0.799-2.27c-0.426-1.466-1.207-2.658-1.779-3.758c-1.076-2.239-2.408-3.66-3.174-4.681
	c-0.793-0.992-1.211-1.516-1.211-1.516s0.266,0.618,0.766,1.793c0.477,1.176,1.367,2.799,1.859,5.123
	c1.33,4.477,1.891,11.302-0.334,19.035c-0.203,0.973-0.559,1.943-0.945,2.927c-0.383,0.981-0.695,1.998-1.143,2.999
	c-0.961,1.986-1.854,4.062-3.113,6.079c-2.361,4.079-5.291,8.229-8.883,12.134c-3.543,3.905-7.67,7.711-12.205,10.853
	c-4.508,3.073-9.781,5.521-15.482,7.357c-11.434,3.629-23.354,4.584-34.127,4.031c-5.398-0.277-10.537-0.885-15.32-1.735
	c-4.75-0.944-9.23-1.933-12.865-3.359c-1.209-0.495-2.338-1.039-3.432-1.6v6.582c0.219,0.145,0.431,0.291,0.654,0.433
	c8.074,4.68,18.105,8.025,29.93,9.896c11.738,1.786,25.297,1.637,38.885-2.66c6.75-2.174,13.141-5.345,18.619-9.531
	c5.4-4.201,9.717-8.927,13.332-13.813c1.711-2.289,3.209-4.638,4.543-7.002c0.707-0.137,1.531-0.303,2.486-0.506
	c3.371-0.714,8.23-1.884,14.111-3.935c5.854-2.1,12.797-5.052,19.857-9.894c3.547-2.381,7.037-5.362,10.303-8.88
	c3.229-3.517,6.291-7.728,8.414-12.419C165.646,191.789,166.734,181.594,165.672,172.984z"/>
</svg>
