<?xml version="1.0" encoding="utf-8"?>
<!-- Generator: Adobe Illustrator 16.0.0, SVG Export Plug-In . SVG Version: 6.00 Build 0)  -->
<!DOCTYPE svg PUBLIC "-//W3C//DTD SVG 1.1//EN" "http://www.w3.org/Graphics/SVG/1.1/DTD/svg11.dtd">
<svg version="1.1" xmlns="http://www.w3.org/2000/svg" xmlns:xlink="http://www.w3.org/1999/xlink" x="0px" y="0px"
	 width="130.859px" height="152.029px" viewBox="0 0 130.859 152.029" enable-background="new 0 0 130.859 152.029"
	 xml:space="preserve">
<g id="Calque_1">
</g>
<g id="Calque_2">
	<path fill="#8CCCC6" d="M130.859,25.677c-0.197-0.141-0.389-0.287-0.59-0.425c-3.643-2.467-7.609-4.126-11.381-4.824
		c-0.908-0.184-1.801-0.307-2.674-0.388c-0.283-0.421-0.641-0.941-1.066-1.566c-1.266-1.718-3.047-4.262-5.711-7.075
		c-2.648-2.786-6.146-6.038-11.09-8.188c-4.916-2.032-10.564-3.094-16.584-3.206c-6.002-0.074-11.803,0.948-16.652,3.15
		c-4.877,2.144-8.497,5.516-10.74,8.769c-2.292,3.275-3.063,6.435-3.543,8.512c-0.059,0.518-0.104,0.976-0.145,1.376
		c-3.154-0.075-6.525,0.321-9.877,1.329c-2.296,0.732-4.448,1.709-6.379,2.904c-0.99,0.554-1.875,1.249-2.763,1.877
		c-0.836,0.712-1.684,1.362-2.402,2.135c-0.457,0.438-0.877,0.901-1.276,1.371c-0.592-0.014-1.241,0.042-1.964,0.068
		c-0.743,0.114-1.568,0.24-2.43,0.459c-1.717,0.461-3.609,1.228-5.562,2.328c-3.861,2.252-8.001,5.722-11.57,10.481
		c-1.767,2.378-3.415,5.153-4.535,8.284c-1.122,3.118-1.705,6.509-1.886,9.956c-0.148,3.451,0.129,6.799,0.635,9.963
		c0.512,3.17,1.285,6.14,2.223,8.965c1.916,5.593,4.551,10.173,6.958,13.826c1.166,1.855,2.415,3.401,3.436,4.798
		c0.83,1.023,1.581,1.925,2.243,2.705c-0.001,1.72,0.131,3.483,0.442,5.272c0.549,3.095,1.622,5.987,3.028,8.508
		c0.095,1.576,0.35,3.435,0.891,5.498c0.87,3.396,2.529,7.315,5.2,11.172c1.334,1.924,2.906,3.848,4.793,5.611
		c1.872,1.78,4.101,3.347,6.478,4.696c4.828,2.603,9.868,3.945,14.439,4.565c4.583,0.641,8.729,0.634,12.172,0.398
		c3.445-0.24,6.191-0.69,8.072-1.055c1.373-0.277,2.283-0.49,2.678-0.584c1.863,1.178,3.988,2.258,6.398,3.053
		c4.477,1.591,9.863,2.062,15.27,1.224c5.416-0.864,10.262-2.918,14.234-5.326c4.01-2.385,7.146-5.172,9.574-7.646
		c2.416-2.494,5.736-7.221,6.836-8.795l2.523-1.602c0.508-0.023,1.326-0.085,2.297-0.196V25.677z"/>
	<g>
		<path fill="#010202" d="M108.844,20.426c-2.799,0.566-4.9,1.469-6.293,2.155c-1.385,0.724-2.104,1.175-2.104,1.176
			c0,0,0.824-0.216,2.307-0.604c1.49-0.333,3.658-0.733,6.309-0.792c2.645-0.051,5.773,0.246,9.047,1.26
			c3.285,0.96,6.686,2.636,9.965,4.851c0.975,0.665,1.893,1.365,2.785,2.081v-4.874c-0.197-0.142-0.389-0.288-0.592-0.426
			c-3.641-2.467-7.609-4.126-11.379-4.824c-0.908-0.184-1.803-0.307-2.674-0.388c-0.285-0.421-0.641-0.941-1.068-1.566
			c-1.264-1.718-3.047-4.262-5.711-7.075c-2.648-2.787-6.146-6.038-11.09-8.188c-4.914-2.033-10.562-3.095-16.584-3.206
			C75.76-0.07,69.961,0.952,65.109,3.153c-4.876,2.145-8.496,5.517-10.739,8.77c-2.292,3.275-3.063,6.434-3.543,8.512
			c-0.06,0.518-0.104,0.976-0.145,1.376c-3.154-0.075-6.525,0.322-9.877,1.329c-2.296,0.732-4.448,1.71-6.379,2.904
			c-0.99,0.553-1.874,1.248-2.763,1.877c-0.837,0.712-1.684,1.362-2.402,2.135c-0.457,0.438-0.877,0.901-1.276,1.371
			c-0.592-0.014-1.241,0.042-1.964,0.068c-0.743,0.114-1.568,0.24-2.431,0.459c-1.715,0.462-3.607,1.228-5.562,2.328
			c-3.862,2.253-8.002,5.722-11.57,10.481c-1.767,2.378-3.415,5.153-4.535,8.284c-1.122,3.118-1.704,6.509-1.886,9.956
			c-0.148,3.451,0.129,6.799,0.639,9.966c0.512,3.17,1.284,6.14,2.222,8.965c1.915,5.593,4.55,10.173,6.958,13.826
			c1.166,1.856,2.415,3.402,3.436,4.798c0.83,1.023,1.581,1.925,2.243,2.705c-0.001,1.719,0.131,3.483,0.442,5.272
			c0.549,3.095,1.621,5.987,3.028,8.508c0.095,1.576,0.349,3.435,0.891,5.498c0.87,3.396,2.53,7.316,5.2,11.172
			c1.334,1.923,2.906,3.847,4.793,5.611c1.872,1.78,4.102,3.346,6.478,4.696c4.828,2.602,9.867,3.945,14.439,4.565
			c4.583,0.64,8.73,0.633,12.172,0.398c3.445-0.241,6.191-0.691,8.072-1.055c1.373-0.277,2.283-0.49,2.678-0.584
			c1.863,1.178,3.988,2.258,6.398,3.053c4.477,1.591,9.863,2.062,15.27,1.224c5.416-0.864,10.26-2.918,14.234-5.326
			c4.01-2.385,7.146-5.172,9.574-7.646c2.416-2.494,4.107-4.727,5.207-6.301c1.084-1.588,1.629-2.492,1.629-2.494
			c0,0-0.746,0.75-2.094,2.102c-1.367,1.325-3.387,3.189-6.039,5.243c-2.664,2.032-5.945,4.303-9.861,6.217
			c-3.889,1.946-8.395,3.584-13.258,4.358c-4.857,0.744-9.6,0.572-13.727-0.526c-4.158-1.002-7.66-2.853-10.432-4.663
			c-2.771-1.837-4.785-3.704-6.173-4.999c-1.339-1.36-2.078-2.113-2.078-2.113s0.544,0.904,1.615,2.508
			c1.128,1.551,2.824,3.805,5.445,6.146c1.201,1.059,2.609,2.146,4.209,3.166c-0.438,0.004-1.338,0.015-2.658,0.033
			c-1.904-0.002-4.65-0.042-8.007-0.289c-3.354-0.251-7.324-0.73-11.593-1.686c-4.27-0.935-8.833-2.417-13.152-4.749
			c-2.127-1.215-4.105-2.523-5.849-4.045c-1.759-1.504-3.303-3.158-4.668-4.822c-2.735-3.334-4.715-6.767-5.98-9.817
			c-0.256-0.604-0.477-1.187-0.68-1.755c2.375,3.101,5.221,5.222,7.715,6.622c2.527,1.407,4.741,2.094,6.252,2.534
			c1.539,0.375,2.386,0.537,2.386,0.537s-0.771-0.395-2.161-1.104c-1.351-0.769-3.295-1.877-5.39-3.582
			c-2.079-1.711-4.332-3.986-6.141-6.928c-1.839-2.92-3.214-6.482-3.915-10.394c-1.377-7.87,0.146-15.364,1.988-20.451
			c0.918-2.564,1.873-4.594,2.599-5.969c0.746-1.37,1.161-2.129,1.161-2.129c0-0.002-0.623,0.601-1.665,1.787
			c-1.037,1.188-2.444,3.012-3.863,5.498c-1.415,2.481-2.81,5.654-3.664,9.408c-0.429,1.838-0.716,3.819-0.805,5.887
			c-0.385-0.621-0.803-1.295-1.251-2.021c-0.818-1.504-1.844-3.153-2.772-5.086c-1.937-3.805-4.045-8.459-5.499-13.809
			c-1.418-5.321-2.351-11.508-2.106-17.783c0.166-3.136,0.63-6.165,1.524-8.939c0.885-2.768,2.201-5.282,3.695-7.595
			c3.014-4.61,6.586-8.234,9.937-10.732c3.07-2.229,6.037-3.431,8.329-3.791c-0.675,0.866-1.271,1.757-1.793,2.633
			c-0.415,0.847-0.884,1.616-1.143,2.458c-0.146,0.407-0.29,0.806-0.429,1.198c-0.116,0.397-0.189,0.803-0.278,1.188
			c-0.665,3.122-0.215,5.669,0.231,7.292c0.233,0.817,0.527,1.414,0.676,1.828c0.165,0.408,0.252,0.622,0.252,0.622
			s-0.032-0.231-0.092-0.669c-0.046-0.439-0.189-1.069-0.237-1.886c-0.084-1.635,0.005-4.025,1.036-6.633
			c1.897-5.301,8.233-10.722,16.356-13.311c4.063-1.206,8.125-1.664,11.877-1.485c0.933,0.067,1.837,0.204,2.728,0.289
			c0.442,0.052,0.884,0.085,1.313,0.146c0.424,0.092,0.841,0.185,1.251,0.275c0.828,0.175,1.628,0.344,2.398,0.505
			c0.75,0.241,1.471,0.473,2.158,0.694c0.682,0.239,1.375,0.387,1.967,0.667c0.602,0.263,1.172,0.511,1.703,0.742
			c0.541,0.231,1.041,0.446,1.504,0.644c0.436,0.245,0.836,0.469,1.193,0.67c1.465,0.805,2.275,1.25,2.275,1.25
			s-0.688-0.625-1.93-1.752c-0.32-0.279-0.672-0.592-1.061-0.933c-0.424-0.293-0.885-0.608-1.377-0.951
			c-0.502-0.341-1.039-0.704-1.605-1.088c-0.564-0.402-1.238-0.674-1.911-1.042c-0.688-0.344-1.408-0.706-2.158-1.082
			c-0.791-0.288-1.613-0.586-2.464-0.895c-0.43-0.152-0.869-0.308-1.312-0.463c-0.452-0.124-0.922-0.218-1.396-0.327
			c-0.949-0.203-1.927-0.45-2.945-0.618c-1.012-0.145-2.062-0.239-3.137-0.278c0.103-0.362,0.217-0.768,0.348-1.227
			c0.812-1.934,2.006-4.744,4.485-7.461c2.437-2.708,5.988-5.354,10.472-6.94c4.443-1.64,9.77-2.358,15.342-2.289
			c5.553,0.092,10.959,0.884,15.441,2.373c4.439,1.545,8.064,4.191,10.945,6.545c2.9,2.366,5.049,4.579,6.58,6.052
			c0.441,0.441,0.816,0.82,1.135,1.144C113.234,19.814,110.852,20.023,108.844,20.426z"/>
		<path fill="#010202" d="M130.859,127.709c-0.691,0.231-1.266,0.298-1.654,0.4c-0.422,0.096-0.645,0.144-0.645,0.144
			s0.227,0.007,0.656,0.024c0.381-0.006,0.947,0.061,1.643,0.001V127.709z"/>
	</g>
</g>
</svg>
