<?xml version="1.0" encoding="utf-8"?>
<!-- Generator: Adobe Illustrator 16.0.0, SVG Export Plug-In . SVG Version: 6.00 Build 0)  -->
<!DOCTYPE svg PUBLIC "-//W3C//DTD SVG 1.1//EN" "http://www.w3.org/Graphics/SVG/1.1/DTD/svg11.dtd">
<svg version="1.1" id="Calque_1" xmlns="http://www.w3.org/2000/svg" xmlns:xlink="http://www.w3.org/1999/xlink" x="0px" y="0px"
	 width="251.438px" height="271.297px" viewBox="0 0 251.438 271.297" enable-background="new 0 0 251.438 271.297"
	 xml:space="preserve">
<path fill="#EA5B23" d="M251.438,16.96c-0.417,0.082-0.831,0.165-1.238,0.256c-3.862,0.945-7.28,2.349-10.108,3.69
	c-5.808,2.791-10.073,5.928-12.562,8.516c-0.637,0.684-1.174,1.287-1.619,1.826c-0.394-2.2-1.144-4.583-2.463-7.024
	c-3.101-5.798-8.919-11.375-16.45-15.261c-3.765-1.96-7.964-3.542-12.554-4.55c-2.301-0.487-4.704-0.828-7.222-0.936
	c-2.578-0.146-5.043,0.162-7.545,0.392c-4.97,0.747-9.617,2.225-13.831,4.087c-4.173,1.939-7.917,4.23-11.225,6.68
	c-1.577,1.176-3.048,2.383-4.436,3.601c-0.43-0.364-0.851-0.728-1.293-1.1c-1.599-1.302-3.14-2.726-4.998-4.06
	c-3.591-2.797-7.837-5.327-12.568-7.545c-9.419-4.425-21.505-6.867-33.81-4.771C85.201,2.767,74.565,8.86,66.991,16.026
	c-7.624,7.217-12.576,15.248-15.559,22.282c-1.027,2.375-1.84,4.619-2.51,6.728c-0.188-0.018-0.361-0.044-0.561-0.056
	c-3.535-0.408-8.901-0.308-15.265,1.767c-6.361,2.015-13.386,6.492-19.327,13.187C7.903,66.676,3.078,75.526,1.042,85.784
	c-2.008,10.333-0.915,20.198,1.598,28.605c2.46,8.442,6.617,15.424,11.095,20.305c4.076,4.444,8.246,7.165,11.489,8.586
	c-1.557,1.654-3.103,3.392-4.585,5.314c-0.477,0.592-0.958,1.189-1.441,1.793c-0.471,0.626-0.895,1.344-1.349,2.025
	c-0.868,1.397-1.858,2.773-2.649,4.282c-0.717,1.56-1.445,3.139-2.184,4.741c-0.7,1.625-1.105,3.377-1.666,5.111
	c-1.896,7.018-2.265,14.814-0.977,22.546c1.272,7.741,4.124,15.41,8.297,22.469c8.354,14.113,21.275,24.431,34.752,29.132
	c5.697,2.003,11.42,2.976,16.804,3.201c0.377,0.78,0.854,1.801,1.552,2.97c1.796,3.035,4.791,7.363,9.774,11.659
	c4.952,4.244,11.958,8.452,20.52,10.646c8.516,2.343,18.405,2.805,28.321,1.107c15.942-2.708,28.871-11.084,36.661-20.339
	c0.249,0.501,0.517,1.035,0.825,1.64c1.923,3.046,5.054,7.763,11.108,11.425c1.521,0.816,3.105,1.868,4.897,2.458
	c0.892,0.341,1.803,0.689,2.729,1.044c0.937,0.369,1.896,0.53,2.88,0.807c0.988,0.244,1.992,0.492,3.015,0.742
	c1.019,0.158,2.053,0.313,3.103,0.475c2.092,0.365,4.317,0.514,6.621,0.63c4.606,0.104,9.61-0.373,14.658-1.957
	c5.041-1.548,10.088-4.311,14.254-8.252c3.602-3.338,6.352-7.287,8.34-11.366c0.075,0.13,0.148,0.241,0.226,0.374
	c0.831,1.273,1.876,2.57,3.004,3.975c2.255,2.521,5.138,5.148,8.727,7.514V16.96z"/>
<path fill="#000100" d="M251.438,252.864c-2.265-1.163-4.305-2.433-6.086-3.731c-1.245-1.029-2.454-1.989-3.466-2.972
	c-0.403-0.434-0.806-0.834-1.197-1.231c1.875-4.595,2.904-9.219,3.336-13.596c0.865-9.174-0.582-17.232-2.58-23.571
	c-1.98-6.374-4.594-11.062-6.516-14.144c-0.969-1.543-1.79-2.686-2.375-3.442c-0.572-0.756-0.873-1.155-0.873-1.155
	s0.14,0.481,0.408,1.391c0.284,0.9,0.668,2.234,1.092,3.96c0.84,3.44,1.91,8.426,2.29,14.542c0.41,6.089,0.175,13.347-1.584,20.78
	c-1.778,7.386-5.169,14.985-11.033,20.348c-5.735,5.505-13.448,7.992-20.977,8.854c-1.894,0.154-3.761,0.33-5.631,0.304
	c-0.933,0.022-1.853,0.044-2.76,0.065c-0.882-0.054-1.751-0.104-2.605-0.156c-0.848-0.071-1.733-0.032-2.527-0.182
	c-0.808-0.127-1.601-0.251-2.378-0.373c-1.615-0.148-2.98-0.71-4.406-1.06c-5.56-1.713-9.506-4.872-12.212-7.11
	c-0.545-0.537-1.024-1.013-1.462-1.443c1.763-2.217,3.229-4.469,4.371-6.698c3.028-6.029,3.724-11.534,3.374-15.11
	c-0.015-0.445-0.03-0.865-0.042-1.259c-0.073-0.392-0.138-0.76-0.201-1.101c-0.128-0.669-0.238-1.236-0.329-1.694
	c-0.186-0.898-0.284-1.37-0.284-1.37s-0.083,0.479-0.238,1.392c-0.074,0.445-0.165,1-0.271,1.651
	c-0.052,0.321-0.106,0.667-0.167,1.037c-0.114,0.36-0.233,0.744-0.358,1.15c-0.766,3.264-2.849,7.657-6.554,11.94
	c-3.802,4.237-9.2,8.412-15.912,11.812c-3.31,1.764-7,3.23-10.827,4.564c-1.916,0.677-3.897,1.218-5.895,1.759
	c-1.001,0.229-2.01,0.458-3.026,0.693c-1.058,0.189-2.121,0.381-3.194,0.574c-8.564,1.456-16.838,1.768-24.244,0.822
	c-7.445-0.814-13.928-3.053-19.145-5.627c-5.211-2.604-9.112-5.596-11.709-7.822c-0.75-0.636-1.359-1.219-1.881-1.725
	c0.591,0.015,1.181,0.026,1.762,0.023c6.216-0.044,11.871-1.015,16.838-2.305c9.938-2.693,17.189-6.512,22.039-9.269
	c2.42-1.4,4.256-2.539,5.474-3.36c1.223-0.804,1.866-1.226,1.866-1.226s-0.725,0.263-2.102,0.756
	c-1.363,0.521-3.396,1.229-6.012,2.093c-5.227,1.689-12.895,3.978-22.383,5.024c-9.433,0.989-20.813,0.442-31.656-4.526
	c-10.786-4.882-21.02-13.934-28.055-25.792c-7.038-11.819-9.859-25.102-7.778-36.496c0.336-1.4,0.497-2.849,0.938-4.189
	c0.459-1.345,0.911-2.67,1.356-3.978c0.506-1.288,1.203-2.475,1.771-3.708c0.311-0.608,0.565-1.223,0.911-1.822
	c0.372-0.596,0.743-1.19,1.109-1.777c2.824-4.796,6.088-8.886,9.1-12.62c6.216-7.309,12.308-12.401,16.826-15.462
	c2.186-1.687,4.104-2.621,5.336-3.41c1.256-0.755,1.916-1.153,1.916-1.153s-0.731,0.231-2.124,0.673
	c-1.375,0.49-3.524,1.005-6.05,2.227c-5.196,2.135-12.468,6.146-20.213,12.833c-1.782,1.613-3.634,3.341-5.486,5.211
	c-2.518-2.195-5.49-5.749-8.069-10.533c-2.736-5.072-4.961-11.601-6.031-19.06c-1.133-7.398-1.267-15.796,0.33-23.922
	c1.612-8.191,4.93-15.794,8.919-21.95c4.066-6.119,8.911-10.94,13.78-13.955c4.783-3.021,9.372-4.63,12.68-5.353
	c-0.96,3.347-1.538,6.266-1.892,8.58c-0.364,2.056-0.469,3.679-0.576,4.768c-0.092,1.085-0.14,1.658-0.14,1.658
	s0.223-0.529,0.648-1.538c0.427-1.002,0.992-2.494,1.888-4.341c1.226-2.685,2.974-6.183,5.386-10.098
	c0.056-0.008,0.088-0.014,0.088-0.014s-0.033-0.008-0.07-0.014c0.922-1.494,1.932-3.042,3.059-4.637
	c4.031-5.802,9.662-12.033,16.839-17.372c7.18-5.32,16.076-9.52,25.911-11.128c9.832-1.666,19.56-0.486,28.057,2.315
	c4.243,1.411,8.266,3.053,11.867,5.01c1.833,0.894,3.597,2.021,5.314,2.95c0.106,0.059,0.208,0.117,0.313,0.176
	c-2.114,2.25-3.969,4.472-5.575,6.564c-3.645,4.807-6.093,8.984-7.634,11.937c-1.538,2.955-2.255,4.641-2.255,4.641
	s1.346-1.245,3.763-3.48c2.411-2.214,5.961-5.323,10.461-8.827c7.931-6.173,16.925-12.021,26.461-15.323
	c3.565-1.234,7.273-2.22,11.09-2.807c1.918-0.151,3.814-0.457,5.565-0.414c1.806,0,3.647,0.138,5.47,0.373
	c3.647,0.499,7.202,1.36,10.48,2.487c6.583,2.236,12.021,5.562,15.575,9.332c3.579,3.758,5.123,8.04,5.492,11.168
	c0.136,0.782,0.179,1.489,0.202,2.11c0.053,0.624,0.05,1.155,0.027,1.583c-0.021,0.869-0.029,1.329-0.029,1.329
	s0.186-0.422,0.542-1.22c0.187-0.404,0.391-0.913,0.573-1.537c0.209-0.619,0.433-1.345,0.585-2.193
	c0.399-1.676,0.584-3.943,0.258-6.535c0.678-0.428,1.539-0.905,2.555-1.452c3-1.542,7.592-3.1,13.396-4.284
	c2.986-0.595,6.038-1.07,9.313-1.217c0.024,0,0.049,0.001,0.073,0V16.96c-0.417,0.082-0.831,0.165-1.238,0.256
	c-3.862,0.945-7.28,2.349-10.108,3.69c-5.808,2.791-10.073,5.928-12.562,8.516c-0.637,0.684-1.174,1.287-1.619,1.826
	c-0.394-2.2-1.144-4.583-2.463-7.024c-3.101-5.798-8.919-11.375-16.45-15.261c-3.765-1.96-7.964-3.542-12.554-4.55
	c-2.301-0.487-4.704-0.828-7.222-0.936c-2.578-0.146-5.043,0.162-7.545,0.392c-4.97,0.747-9.617,2.225-13.831,4.087
	c-4.173,1.939-7.917,4.23-11.225,6.68c-1.577,1.176-3.048,2.383-4.436,3.601c-0.43-0.364-0.851-0.728-1.293-1.1
	c-1.599-1.302-3.14-2.726-4.998-4.06c-3.591-2.797-7.837-5.327-12.568-7.545c-9.419-4.425-21.505-6.867-33.81-4.771
	C85.201,2.767,74.565,8.86,66.991,16.026c-7.624,7.217-12.576,15.248-15.559,22.282c-1.027,2.375-1.84,4.619-2.51,6.728
	c-0.188-0.018-0.361-0.044-0.561-0.056c-3.535-0.408-8.901-0.308-15.265,1.767c-6.361,2.015-13.386,6.492-19.327,13.187
	C7.903,66.676,3.078,75.526,1.042,85.784c-2.008,10.333-0.915,20.198,1.598,28.605c2.46,8.442,6.617,15.424,11.095,20.305
	c4.076,4.444,8.246,7.165,11.489,8.586c-1.557,1.654-3.103,3.392-4.585,5.314c-0.477,0.592-0.958,1.189-1.441,1.793
	c-0.471,0.626-0.895,1.344-1.349,2.025c-0.868,1.397-1.858,2.773-2.649,4.282c-0.717,1.56-1.445,3.139-2.184,4.741
	c-0.7,1.625-1.105,3.377-1.666,5.111c-1.896,7.018-2.265,14.814-0.977,22.546c1.272,7.741,4.124,15.41,8.297,22.469
	c8.354,14.113,21.275,24.431,34.752,29.132c5.697,2.003,11.42,2.976,16.804,3.201c0.377,0.78,0.854,1.801,1.552,2.97
	c1.796,3.035,4.791,7.363,9.774,11.659c4.952,4.244,11.958,8.452,20.52,10.646c8.516,2.343,18.405,2.805,28.321,1.107
	c15.942-2.708,28.871-11.084,36.661-20.339c0.249,0.501,0.517,1.035,0.825,1.64c1.923,3.046,5.054,7.763,11.108,11.425
	c1.521,0.816,3.105,1.868,4.897,2.458c0.892,0.341,1.803,0.689,2.729,1.044c0.937,0.369,1.896,0.53,2.88,0.807
	c0.988,0.244,1.992,0.492,3.015,0.742c1.019,0.158,2.053,0.313,3.103,0.475c2.092,0.365,4.317,0.514,6.621,0.63
	c4.606,0.104,9.61-0.373,14.658-1.957c5.041-1.548,10.088-4.311,14.254-8.252c3.602-3.338,6.352-7.287,8.34-11.366
	c0.075,0.13,0.148,0.241,0.226,0.374c0.831,1.273,1.876,2.57,3.004,3.975c2.255,2.521,5.138,5.148,8.727,7.514V252.864z"/>
</svg>
