<?xml version="1.0" encoding="utf-8"?>
<!-- Generator: Adobe Illustrator 16.0.0, SVG Export Plug-In . SVG Version: 6.00 Build 0)  -->
<!DOCTYPE svg PUBLIC "-//W3C//DTD SVG 1.1//EN" "http://www.w3.org/Graphics/SVG/1.1/DTD/svg11.dtd">
<svg version="1.1" xmlns="http://www.w3.org/2000/svg" xmlns:xlink="http://www.w3.org/1999/xlink" x="0px" y="0px" width="31.86px"
	 height="102.379px" viewBox="0 0 31.86 102.379" enable-background="new 0 0 31.86 102.379" xml:space="preserve">
<g id="Calque_1">
</g>
<g id="Calque_1_-_copie_3">
	<g>
		<path fill="#8CCCC6" d="M15.563,94.207c1.336-1.537,2.549-3.331,3.57-5.338c0.236-0.512,0.502-1.016,0.715-1.552
			c0.201-0.543,0.405-1.088,0.609-1.641c0.155-0.571,0.311-1.148,0.468-1.729c0.136-0.581,0.212-1.161,0.316-1.748
			c0.624-3.698,0.266-7.408-0.696-10.642c0.98-1.184,2.127-2.683,3.429-4.475c1.706-2.592,3.745-5.744,5.266-9.669
			c1.557-3.87,2.797-8.505,2.6-13.521c-0.17-5.01-1.826-9.639-3.997-13.268c-0.997-1.893-2.335-3.405-3.465-4.882
			c-1.235-1.39-2.485-2.584-3.597-3.683c-1.209-0.98-2.306-1.87-3.269-2.652c-0.967-0.763-1.895-1.297-2.604-1.786
			c-1.146-0.735-1.879-1.207-2.142-1.376c-1.011-2.495-2.496-5.29-4.563-8.127C6.097,5.262,3.356,2.404,0,0v102.379
			c2.206-0.252,5.197-0.76,7.117-1.654C9.859,99.428,12.888,97.285,15.563,94.207z"/>
	</g>
	<g>
		<path fill="none" d="M6.147,99.037c2.293-1.6,4.726-3.913,6.836-6.86c2.056-2.981,3.895-6.538,4.412-10.572
			c0.316-2.031,0.429-4.035,0.238-5.954c-0.152-1.919-0.516-3.769-1.078-5.491c-1.049-3.471-2.719-6.449-4.151-8.93
			c-1.468-2.474-2.771-4.447-3.653-5.82c-0.884-1.377-1.373-2.142-1.373-2.142s0.657,0.625,1.845,1.755
			c1.17,1.147,2.854,2.816,4.771,5.08c1.877,2.274,4.086,5.141,5.648,8.928c0.18,0.41,0.341,0.839,0.497,1.271
			c0.635-1.205,1.347-2.604,2.156-4.198c1.242-2.76,2.773-6.017,3.848-9.776c1.117-3.729,1.984-7.922,1.808-12.287
			c-0.153-4.366-1.351-8.411-3.01-11.875c-0.733-1.788-1.812-3.302-2.685-4.812c-0.983-1.438-1.995-2.731-2.885-3.948
			c-0.994-1.142-1.894-2.174-2.685-3.08c-0.793-0.915-1.576-1.606-2.166-2.231c-0.883-0.904-1.469-1.509-1.721-1.769
			c0.062,0.156,0.142,0.318,0.199,0.471c1.016,2.626,1.561,4.827,1.815,6.362c0.158,0.759,0.199,1.365,0.262,1.767
			c0.048,0.403,0.072,0.614,0.072,0.614s-0.081-0.197-0.235-0.573c-0.163-0.374-0.352-0.938-0.683-1.63
			c-0.596-1.406-1.582-3.384-2.978-5.677C8.88,13.772,5.115,8.979,0,4.873v97.157c0.053-0.018,0.101-0.029,0.154-0.049
			C1.701,101.554,3.843,100.624,6.147,99.037z"/>
		<path fill="#010202" d="M7.116,100.724c2.741-1.297,5.77-3.44,8.446-6.518c1.336-1.537,2.549-3.331,3.57-5.338
			c0.236-0.512,0.502-1.016,0.715-1.552c0.201-0.543,0.405-1.088,0.609-1.641c0.156-0.571,0.311-1.148,0.468-1.729
			c0.135-0.581,0.212-1.161,0.316-1.748c0.624-3.699,0.266-7.409-0.696-10.642c0.98-1.184,2.127-2.683,3.429-4.475
			c1.706-2.592,3.745-5.744,5.266-9.669c1.557-3.872,2.797-8.506,2.6-13.522c-0.17-5.01-1.826-9.639-3.997-13.268
			c-0.997-1.893-2.335-3.405-3.465-4.882c-1.236-1.391-2.486-2.584-3.597-3.684c-1.209-0.98-2.306-1.869-3.269-2.651
			c-0.966-0.764-1.894-1.297-2.604-1.786c-1.146-0.735-1.879-1.207-2.142-1.376c-1.01-2.495-2.496-5.29-4.563-8.127
			C6.095,5.261,3.355,2.403,0-0.001v4.875c5.115,4.105,8.88,8.899,11.253,12.785c1.396,2.293,2.382,4.271,2.978,5.677
			c0.331,0.692,0.52,1.256,0.683,1.63c0.154,0.376,0.235,0.573,0.235,0.573s-0.024-0.211-0.072-0.614
			c-0.062-0.401-0.104-1.008-0.262-1.767c-0.255-1.535-0.8-3.736-1.815-6.362c-0.058-0.152-0.137-0.314-0.199-0.471
			c0.252,0.26,0.838,0.864,1.721,1.769c0.59,0.625,1.373,1.316,2.166,2.231c0.791,0.906,1.69,1.938,2.685,3.08
			c0.89,1.217,1.901,2.51,2.885,3.948c0.872,1.51,1.951,3.023,2.685,4.812c1.659,3.464,2.856,7.509,3.01,11.875
			c0.177,4.365-0.69,8.558-1.808,12.287c-1.074,3.76-2.605,7.017-3.848,9.776c-0.81,1.594-1.521,2.993-2.156,4.198
			c-0.156-0.432-0.317-0.86-0.497-1.271c-1.562-3.787-3.771-6.653-5.648-8.928c-1.916-2.264-3.601-3.933-4.771-5.08
			c-1.188-1.13-1.845-1.755-1.845-1.755s0.489,0.765,1.373,2.142c0.883,1.373,2.186,3.347,3.653,5.82
			c1.433,2.48,3.103,5.459,4.151,8.93c0.562,1.723,0.926,3.572,1.078,5.491c0.19,1.919,0.078,3.923-0.238,5.954
			c-0.518,4.034-2.356,7.591-4.412,10.572c-2.11,2.947-4.543,5.261-6.836,6.86c-2.305,1.587-4.446,2.517-5.993,2.944
			c-0.054,0.02-0.102,0.031-0.154,0.049v0.569c0.088-0.007,0.17-0.009,0.263-0.021C1.926,102.501,4.353,102.012,7.116,100.724z"/>
	</g>
</g>
</svg>
