<?xml version="1.0" encoding="utf-8"?>
<!-- Generator: Adobe Illustrator 18.1.1, SVG Export Plug-In . SVG Version: 6.00 Build 0)  -->
<svg version="1.1" id="Calque_1" xmlns="http://www.w3.org/2000/svg" xmlns:xlink="http://www.w3.org/1999/xlink" x="0px" y="0px"
	 viewBox="0 0 600 600" enable-background="new 0 0 600 600" xml:space="preserve">
<path fill="#1D1D1B"  fill-opacity="0.6" d="M162.3,435.5l0.7,1.4l175.3-44.7l93.5-93.5c0,0,11-31.6,0.7-66.7L350,314.5l-30.3,59.1l-69.4,13.1
	c-13.1-13.1-22-22-38.5-38.5l13.1-70.1l59.1-30.3l81.1-80.4c-33.7-8.9-65.3,0-65.3,0l-92.8,92.8L162.3,435.5z M281.9,315.9l0.7,0.7
	l46.1-23.4l89.4-89.4c-3.4-5.5-4.8-7.6-10.3-13.1s-7.6-6.9-13.1-10.3l-89.4,89.4L281.9,315.9z"/>
</svg>
