<?xml version="1.0" encoding="utf-8"?>
<!-- Generator: Adobe Illustrator 16.0.0, SVG Export Plug-In . SVG Version: 6.00 Build 0)  -->
<!DOCTYPE svg PUBLIC "-//W3C//DTD SVG 1.1//EN" "http://www.w3.org/Graphics/SVG/1.1/DTD/svg11.dtd">
<svg version="1.1" id="Calque_1" xmlns="http://www.w3.org/2000/svg" xmlns:xlink="http://www.w3.org/1999/xlink" x="0px" y="0px"
	 width="417.311px" height="100.87px" viewBox="0 0 417.311 100.87" enable-background="new 0 0 417.311 100.87"
	 xml:space="preserve">
<rect x="-67.969" y="-55.189" transform="matrix(-0.7072 0.707 -0.707 -0.7072 -44.8848 193.5324)" width="10.904" height="285.322"/>
<rect x="-36.711" y="-55.189" transform="matrix(-0.7072 0.707 -0.707 -0.7072 8.4793 171.4323)" width="10.904" height="285.322"/>
<rect x="-5.452" y="-55.189" transform="matrix(-0.7072 0.7071 -0.7071 -0.7072 61.8472 149.3282)" width="10.903" height="285.322"/>
<rect x="25.806" y="-55.189" transform="matrix(-0.7072 0.707 -0.707 -0.7072 115.2065 127.2323)" width="10.904" height="285.322"/>
<rect x="57.064" y="-55.189" transform="matrix(-0.7072 0.707 -0.707 -0.7072 168.5706 105.1321)" width="10.904" height="285.322"/>
<rect x="88.322" y="-55.189" transform="matrix(-0.7072 0.7071 -0.7071 -0.7072 221.934 83.024)" width="10.903" height="285.322"/>
<rect x="119.58" y="-55.189" transform="matrix(-0.7072 0.707 -0.707 -0.7072 275.2971 60.9274)" width="10.903" height="285.322"/>
<rect x="150.839" y="-55.189" transform="matrix(-0.7072 0.7071 -0.7071 -0.7072 328.6589 38.8211)" width="10.903" height="285.321"/>
<rect x="182.096" y="-55.189" transform="matrix(-0.7072 0.707 -0.707 -0.7072 382.0229 16.726)" width="10.903" height="285.322"/>
<rect x="213.355" y="-55.189" transform="matrix(-0.7072 0.707 -0.707 -0.7072 435.3863 -5.3748)" width="10.903" height="285.322"/>
<rect x="244.613" y="-55.189" transform="matrix(-0.7072 0.7071 -0.7071 -0.7072 488.746 -27.4832)" width="10.903" height="285.321"/>
<rect x="275.871" y="-55.189" transform="matrix(-0.7072 0.7071 -0.7071 -0.7072 542.1078 -49.5844)" width="10.903" height="285.321"/>
<rect x="307.129" y="-55.189" transform="matrix(-0.7071 0.7071 -0.7071 -0.7071 595.4655 -71.6949)" width="10.902" height="285.321"/>
<rect x="338.388" y="-55.189" transform="matrix(-0.7071 0.7071 -0.7071 -0.7071 648.8274 -93.7972)" width="10.902" height="285.321"/>
<rect x="369.645" y="-55.189" transform="matrix(-0.7072 0.7071 -0.7071 -0.7072 702.195 -115.8887)" width="10.903" height="285.321"/>
<rect x="400.904" y="-55.189" transform="matrix(-0.7072 0.7071 -0.7071 -0.7072 755.5576 -137.9903)" width="10.903" height="285.321"/>
<rect x="432.162" y="-55.189" transform="matrix(-0.7072 0.7071 -0.7071 -0.7072 808.9199 -160.0917)" width="10.903" height="285.321"/>
<rect x="463.42" y="-55.189" transform="matrix(-0.7071 0.7071 -0.7071 -0.7071 862.2654 -182.2182)" width="10.902" height="285.321"/>
<rect x="494.678" y="-55.189" transform="matrix(-0.7072 0.7071 -0.7071 -0.7072 915.6448 -204.2946)" width="10.903" height="285.321"/>
</svg>
