<?xml version="1.0" encoding="utf-8"?>
<!-- Generator: Adobe Illustrator 16.0.0, SVG Export Plug-In . SVG Version: 6.00 Build 0)  -->
<!DOCTYPE svg PUBLIC "-//W3C//DTD SVG 1.1//EN" "http://www.w3.org/Graphics/SVG/1.1/DTD/svg11.dtd">
<svg version="1.1" id="Calque_2_-_copie_2" xmlns="http://www.w3.org/2000/svg" xmlns:xlink="http://www.w3.org/1999/xlink" x="0px"
	 y="0px" width="130.859px" height="152.029px" viewBox="0 0 130.859 152.029" enable-background="new 0 0 130.859 152.029"
	 xml:space="preserve">
<g>
	<path fill="none" d="M112.5,16.764c0.354,0.34,0.693,0.666,1.01,0.976c-0.059,0.432-0.416,0.771-0.865,0.771
		c-0.49,0-0.887-0.397-0.887-0.888C111.758,17.183,112.082,16.835,112.5,16.764z M107.65,12.504
		c0.221,0.176,0.447,0.354,0.658,0.527c0.232,0.188,0.449,0.374,0.672,0.56c-0.15,0.281-0.436,0.479-0.775,0.479
		c-0.49,0-0.889-0.398-0.889-0.89C107.316,12.904,107.453,12.667,107.65,12.504z M108.9,22.589c-0.16,0.214-0.406,0.361-0.695,0.361
		c-0.256,0-0.484-0.112-0.646-0.287C107.99,22.63,108.438,22.605,108.9,22.589z M103.648,9.606
		c-0.256-0.035-0.469-0.174-0.605-0.377C103.246,9.354,103.451,9.479,103.648,9.606z M91.049,4.947
		c-0.16,0.147-0.369,0.243-0.604,0.243c-0.334,0-0.613-0.192-0.766-0.463C90.141,4.794,90.596,4.869,91.049,4.947z M73.486,4.675
		c-0.143,0.303-0.445,0.516-0.801,0.516c-0.252,0-0.475-0.106-0.637-0.273C72.521,4.827,73.002,4.749,73.486,4.675z M64.496,3.767
		c-0.524,0.253-1.033,0.517-1.526,0.796C63.463,4.283,63.972,4.02,64.496,3.767z M54.925,21.173c0.49,0,0.888,0.399,0.887,0.889
		c0,0.186-0.069,0.348-0.167,0.49c-0.405-0.088-0.813-0.175-1.232-0.244c-0.109-0.016-0.224-0.023-0.333-0.038
		c-0.018-0.068-0.042-0.135-0.042-0.208C54.037,21.571,54.434,21.173,54.925,21.173z M42.2,27.062
		c0.031-0.01,0.063-0.018,0.096-0.026c-0.162,0.211-0.405,0.354-0.692,0.354c-0.079,0-0.15-0.024-0.224-0.045
		C41.653,27.249,41.923,27.149,42.2,27.062z M28.189,31.642c0.201-0.234,0.428-0.455,0.64-0.685
		C28.617,31.187,28.391,31.407,28.189,31.642c-0.015,0-0.031,0.002-0.047,0.002C28.158,31.644,28.175,31.642,28.189,31.642z
		 M1.145,74.628c0.101,0.527,0.205,1.049,0.318,1.565C1.35,75.677,1.245,75.155,1.145,74.628z M6.113,80.664
		C5.97,80.113,5.83,79.557,5.7,78.989c0.116-0.058,0.245-0.096,0.385-0.096c0.49,0,0.888,0.398,0.888,0.889
		C6.973,80.262,6.589,80.649,6.113,80.664z M6.085,71.79c-0.49,0-0.888-0.397-0.888-0.888s0.397-0.889,0.888-0.889
		s0.888,0.398,0.888,0.889S6.575,71.79,6.085,71.79z M6.085,62.91c-0.49,0-0.888-0.397-0.888-0.888c0-0.491,0.397-0.889,0.888-0.889
		s0.888,0.397,0.888,0.889C6.973,62.513,6.575,62.91,6.085,62.91z M6.085,54.029c-0.089,0-0.17-0.027-0.251-0.051
		c0.19-0.557,0.387-1.109,0.61-1.646c0.311,0.139,0.528,0.448,0.528,0.809C6.973,53.632,6.575,54.03,6.085,54.029z M11.121,93.75
		c-0.242-0.491-0.485-0.995-0.729-1.511c0.044-0.006,0.084-0.026,0.131-0.026c0.491,0,0.889,0.399,0.889,0.888
		C11.412,93.361,11.298,93.589,11.121,93.75z M10.524,85.11c-0.49,0-0.888-0.397-0.888-0.889c0-0.49,0.397-0.888,0.888-0.888
		c0.491,0,0.889,0.397,0.889,0.888C11.413,84.713,11.016,85.11,10.524,85.11z M10.524,76.23c-0.49,0-0.888-0.398-0.888-0.889
		s0.397-0.888,0.888-0.888c0.491,0,0.889,0.397,0.889,0.888S11.016,76.23,10.524,76.23z M10.524,67.35
		c-0.49,0-0.888-0.397-0.888-0.888s0.397-0.888,0.888-0.888c0.491,0,0.889,0.397,0.889,0.888S11.016,67.35,10.524,67.35z
		 M10.524,58.469c-0.49,0-0.888-0.397-0.888-0.888s0.397-0.888,0.888-0.888c0.491,0,0.889,0.397,0.889,0.888
		S11.016,58.469,10.524,58.469z M10.524,49.589c-0.49,0-0.888-0.397-0.888-0.888s0.397-0.888,0.888-0.888
		c0.491,0,0.889,0.397,0.889,0.888S11.016,49.589,10.524,49.589z M14.965,98.43c-0.49,0-0.888-0.397-0.888-0.888
		s0.397-0.888,0.888-0.888s0.888,0.397,0.888,0.888S15.455,98.43,14.965,98.43z M14.965,89.549c-0.49,0-0.888-0.397-0.888-0.888
		s0.397-0.888,0.888-0.888s0.888,0.397,0.888,0.888S15.455,89.549,14.965,89.549z M14.965,80.669c-0.49,0-0.888-0.397-0.888-0.888
		s0.397-0.888,0.888-0.888s0.888,0.397,0.888,0.888S15.455,80.669,14.965,80.669z M14.965,71.79c-0.49,0-0.888-0.397-0.888-0.888
		s0.397-0.889,0.888-0.889s0.888,0.398,0.888,0.889S15.455,71.79,14.965,71.79z M14.965,62.91c-0.49,0-0.888-0.397-0.888-0.888
		c0-0.491,0.397-0.889,0.888-0.889s0.888,0.397,0.888,0.889C15.853,62.513,15.455,62.91,14.965,62.91z M14.965,54.03
		c-0.49,0-0.888-0.397-0.888-0.889c0-0.49,0.397-0.888,0.888-0.888s0.888,0.397,0.888,0.888
		C15.853,53.633,15.455,54.03,14.965,54.03z M14.965,45.15c-0.49,0-0.888-0.397-0.888-0.889c0-0.49,0.397-0.888,0.888-0.888
		s0.888,0.397,0.888,0.888C15.853,44.753,15.455,45.15,14.965,45.15z M19.501,102.85c-0.016-0.585-0.021-1.164-0.01-1.738
		c0.447,0.045,0.802,0.412,0.802,0.871C20.293,102.438,19.944,102.8,19.501,102.85z M19.405,85.11c-0.491,0-0.889-0.397-0.889-0.889
		c0-0.49,0.397-0.888,0.889-0.888c0.49,0,0.888,0.397,0.888,0.888C20.293,84.713,19.896,85.11,19.405,85.11z M19.405,76.23
		c-0.491,0-0.889-0.398-0.889-0.889s0.397-0.888,0.889-0.888c0.49,0,0.888,0.397,0.888,0.888S19.896,76.23,19.405,76.23z
		 M19.405,67.35c-0.491,0-0.889-0.397-0.889-0.888s0.397-0.888,0.889-0.888c0.49,0,0.888,0.397,0.888,0.888
		S19.896,67.35,19.405,67.35z M19.405,58.469c-0.491,0-0.889-0.397-0.889-0.888s0.397-0.888,0.889-0.888
		c0.49,0,0.888,0.397,0.888,0.888S19.896,58.469,19.405,58.469z M19.405,49.589c-0.491,0-0.889-0.397-0.889-0.888
		s0.397-0.888,0.889-0.888c0.49,0,0.888,0.397,0.888,0.888S19.896,49.589,19.405,49.589z M19.405,40.709
		c-0.491,0-0.889-0.397-0.889-0.888s0.397-0.889,0.889-0.889c0.49,0,0.888,0.398,0.888,0.889S19.896,40.709,19.405,40.709z
		 M24.215,132.26c0.166,0.27,0.342,0.537,0.517,0.806C24.557,132.797,24.381,132.529,24.215,132.26z M23.845,125.07
		c-0.293,0-0.54-0.151-0.702-0.37c-0.043-0.085-0.091-0.171-0.133-0.255c-0.027-0.085-0.053-0.17-0.053-0.265
		c0-0.489,0.396-0.888,0.888-0.888c0.031,0,0.058,0.015,0.088,0.019c0.252,0.235,0.506,0.46,0.762,0.68
		c0.015,0.062,0.038,0.123,0.038,0.189C24.732,124.673,24.335,125.07,23.845,125.07z M23.845,116.19
		c-0.49,0-0.888-0.397-0.888-0.889c0-0.49,0.397-0.888,0.888-0.888s0.888,0.397,0.888,0.888
		C24.732,115.793,24.335,116.19,23.845,116.19z M23.845,107.311c-0.49,0-0.888-0.398-0.888-0.889s0.397-0.888,0.888-0.888
		s0.888,0.397,0.888,0.888S24.335,107.311,23.845,107.311z M23.845,98.43c-0.49,0-0.888-0.397-0.888-0.888s0.397-0.888,0.888-0.888
		s0.888,0.397,0.888,0.888S24.335,98.43,23.845,98.43z M23.845,89.549c-0.49,0-0.888-0.397-0.888-0.888s0.397-0.888,0.888-0.888
		s0.888,0.397,0.888,0.888S24.335,89.549,23.845,89.549z M23.845,80.669c-0.49,0-0.888-0.397-0.888-0.888s0.397-0.888,0.888-0.888
		s0.888,0.397,0.888,0.888S24.335,80.669,23.845,80.669z M23.845,71.79c-0.49,0-0.888-0.397-0.888-0.888s0.397-0.889,0.888-0.889
		s0.888,0.398,0.888,0.889S24.335,71.79,23.845,71.79z M23.845,62.91c-0.49,0-0.888-0.397-0.888-0.888
		c0-0.491,0.397-0.889,0.888-0.889s0.888,0.397,0.888,0.889C24.732,62.513,24.335,62.91,23.845,62.91z M23.845,54.03
		c-0.49,0-0.888-0.397-0.888-0.889c0-0.49,0.397-0.888,0.888-0.888s0.888,0.397,0.888,0.888
		C24.732,53.633,24.335,54.03,23.845,54.03z M22.957,44.261c0-0.421,0.301-0.758,0.696-0.849c0.017,0.619,0.068,1.197,0.146,1.728
		C23.331,45.115,22.957,44.736,22.957,44.261z M23.845,36.271c-0.49,0-0.888-0.398-0.888-0.889s0.397-0.888,0.888-0.888
		s0.888,0.397,0.888,0.888S24.335,36.271,23.845,36.271z M27.616,136.934c0.109,0.129,0.229,0.255,0.342,0.383
		C27.845,137.188,27.726,137.062,27.616,136.934z M28.285,129.509c-0.49,0-0.889-0.397-0.889-0.888s0.398-0.888,0.889-0.888
		s0.888,0.397,0.888,0.888S28.775,129.509,28.285,129.509z M28.285,120.629c-0.49,0-0.889-0.397-0.889-0.888
		s0.398-0.888,0.889-0.888s0.888,0.397,0.888,0.888S28.775,120.629,28.285,120.629z M28.285,111.749
		c-0.49,0-0.889-0.397-0.889-0.888s0.398-0.889,0.889-0.889s0.888,0.398,0.888,0.889S28.775,111.749,28.285,111.749z M28.285,102.87
		c-0.49,0-0.889-0.397-0.889-0.888c0-0.491,0.398-0.889,0.889-0.889s0.888,0.397,0.888,0.889
		C29.173,102.473,28.775,102.87,28.285,102.87z M28.285,93.99c-0.49,0-0.889-0.397-0.889-0.888c0-0.491,0.398-0.889,0.889-0.889
		s0.888,0.397,0.888,0.889C29.173,93.593,28.775,93.99,28.285,93.99z M28.285,85.11c-0.49,0-0.889-0.397-0.889-0.889
		c0-0.49,0.398-0.888,0.889-0.888s0.888,0.397,0.888,0.888C29.173,84.713,28.775,85.11,28.285,85.11z M28.285,76.23
		c-0.49,0-0.889-0.398-0.889-0.889s0.398-0.888,0.889-0.888s0.888,0.397,0.888,0.888S28.775,76.23,28.285,76.23z M28.285,67.35
		c-0.49,0-0.889-0.397-0.889-0.888s0.398-0.888,0.889-0.888s0.888,0.397,0.888,0.888S28.775,67.35,28.285,67.35z M28.285,58.469
		c-0.49,0-0.889-0.397-0.889-0.888s0.398-0.888,0.889-0.888s0.888,0.397,0.888,0.888S28.775,58.469,28.285,58.469z M28.285,49.589
		c-0.49,0-0.889-0.397-0.889-0.888s0.398-0.888,0.889-0.888s0.888,0.397,0.888,0.888S28.775,49.589,28.285,49.589z M28.285,40.709
		c-0.49,0-0.889-0.397-0.889-0.888s0.398-0.889,0.889-0.889s0.888,0.398,0.888,0.889S28.775,40.709,28.285,40.709z M32.877,141.844
		c0.136,0.1,0.269,0.201,0.407,0.299C33.146,142.045,33.013,141.943,32.877,141.844z M32.725,133.95
		c-0.49,0-0.888-0.397-0.888-0.888c0-0.491,0.397-0.889,0.888-0.889s0.889,0.397,0.889,0.889
		C33.613,133.553,33.215,133.95,32.725,133.95z M32.725,125.07c-0.49,0-0.888-0.397-0.888-0.889c0-0.49,0.397-0.888,0.888-0.888
		s0.889,0.397,0.889,0.888C33.613,124.673,33.215,125.07,32.725,125.07z M32.725,116.19c-0.49,0-0.888-0.397-0.888-0.889
		c0-0.49,0.397-0.888,0.888-0.888s0.889,0.397,0.889,0.888C33.613,115.793,33.215,116.19,32.725,116.19z M32.725,107.311
		c-0.49,0-0.888-0.398-0.888-0.889s0.397-0.888,0.888-0.888s0.889,0.397,0.889,0.888S33.215,107.311,32.725,107.311z M32.725,98.43
		c-0.49,0-0.888-0.397-0.888-0.888s0.397-0.888,0.888-0.888s0.889,0.397,0.889,0.888S33.215,98.43,32.725,98.43z M32.725,89.549
		c-0.49,0-0.888-0.397-0.888-0.888s0.397-0.888,0.888-0.888s0.889,0.397,0.889,0.888S33.215,89.549,32.725,89.549z M32.725,80.669
		c-0.49,0-0.888-0.397-0.888-0.888s0.397-0.888,0.888-0.888s0.889,0.397,0.889,0.888S33.215,80.669,32.725,80.669z M32.725,71.79
		c-0.49,0-0.888-0.397-0.888-0.888s0.397-0.889,0.888-0.889s0.889,0.398,0.889,0.889S33.215,71.79,32.725,71.79z M32.725,62.91
		c-0.49,0-0.888-0.397-0.888-0.888c0-0.491,0.397-0.889,0.888-0.889s0.889,0.397,0.889,0.889
		C33.613,62.513,33.215,62.91,32.725,62.91z M32.725,54.03c-0.49,0-0.888-0.397-0.888-0.889c0-0.49,0.397-0.888,0.888-0.888
		s0.889,0.397,0.889,0.888C33.613,53.633,33.215,54.03,32.725,54.03z M32.725,45.15c-0.49,0-0.888-0.397-0.888-0.889
		c0-0.49,0.397-0.888,0.888-0.888s0.889,0.397,0.889,0.888C33.613,44.753,33.215,45.15,32.725,45.15z M32.725,36.271
		c-0.49,0-0.888-0.398-0.888-0.889s0.397-0.888,0.888-0.888s0.889,0.397,0.889,0.888S33.215,36.271,32.725,36.271z M37.165,138.39
		c-0.49,0-0.888-0.397-0.888-0.888s0.397-0.888,0.888-0.888s0.888,0.397,0.888,0.888S37.655,138.39,37.165,138.39z M37.165,129.509
		c-0.49,0-0.888-0.397-0.888-0.888s0.397-0.888,0.888-0.888s0.888,0.397,0.888,0.888S37.655,129.509,37.165,129.509z
		 M37.165,120.629c-0.49,0-0.888-0.397-0.888-0.888s0.397-0.888,0.888-0.888s0.888,0.397,0.888,0.888S37.655,120.629,37.165,120.629
		z M37.165,111.749c-0.49,0-0.888-0.397-0.888-0.888s0.397-0.889,0.888-0.889s0.888,0.398,0.888,0.889
		S37.655,111.749,37.165,111.749z M37.165,102.87c-0.49,0-0.888-0.397-0.888-0.888c0-0.491,0.397-0.889,0.888-0.889
		s0.888,0.397,0.888,0.889C38.053,102.473,37.655,102.87,37.165,102.87z M37.165,93.99c-0.49,0-0.888-0.397-0.888-0.888
		c0-0.491,0.397-0.889,0.888-0.889s0.888,0.397,0.888,0.889C38.053,93.593,37.655,93.99,37.165,93.99z M37.165,85.11
		c-0.49,0-0.888-0.397-0.888-0.889c0-0.49,0.397-0.888,0.888-0.888s0.888,0.397,0.888,0.888
		C38.053,84.713,37.655,85.11,37.165,85.11z M37.165,76.23c-0.49,0-0.888-0.398-0.888-0.889s0.397-0.888,0.888-0.888
		s0.888,0.397,0.888,0.888S37.655,76.23,37.165,76.23z M37.165,67.35c-0.49,0-0.888-0.397-0.888-0.888s0.397-0.888,0.888-0.888
		s0.888,0.397,0.888,0.888S37.655,67.35,37.165,67.35z M37.165,58.469c-0.49,0-0.888-0.397-0.888-0.888s0.397-0.888,0.888-0.888
		s0.888,0.397,0.888,0.888S37.655,58.469,37.165,58.469z M37.165,49.589c-0.49,0-0.888-0.397-0.888-0.888s0.397-0.888,0.888-0.888
		s0.888,0.397,0.888,0.888S37.655,49.589,37.165,49.589z M37.165,40.709c-0.49,0-0.888-0.397-0.888-0.888s0.397-0.889,0.888-0.889
		s0.888,0.398,0.888,0.889S37.655,40.709,37.165,40.709z M37.165,31.83c-0.49,0-0.888-0.397-0.888-0.888
		c0-0.491,0.397-0.889,0.888-0.889s0.888,0.397,0.888,0.889C38.053,31.433,37.655,31.83,37.165,31.83z M42.181,142.604
		c-0.489-0.207-0.976-0.426-1.462-0.652c0-0.004-0.002-0.007-0.002-0.01c0-0.49,0.397-0.889,0.888-0.889
		c0.491,0,0.889,0.398,0.889,0.889C42.493,142.209,42.369,142.442,42.181,142.604z M41.604,133.95c-0.49,0-0.888-0.397-0.888-0.888
		c0-0.491,0.397-0.889,0.888-0.889c0.491,0,0.889,0.397,0.889,0.889C42.493,133.553,42.096,133.95,41.604,133.95z M41.604,125.07
		c-0.49,0-0.888-0.397-0.888-0.889c0-0.49,0.397-0.888,0.888-0.888c0.491,0,0.889,0.397,0.889,0.888
		C42.493,124.673,42.096,125.07,41.604,125.07z M41.604,116.19c-0.49,0-0.888-0.397-0.888-0.889c0-0.49,0.397-0.888,0.888-0.888
		c0.491,0,0.889,0.397,0.889,0.888C42.493,115.793,42.096,116.19,41.604,116.19z M41.604,107.311c-0.49,0-0.888-0.398-0.888-0.889
		s0.397-0.888,0.888-0.888c0.491,0,0.889,0.397,0.889,0.888S42.096,107.311,41.604,107.311z M41.604,98.43
		c-0.49,0-0.888-0.397-0.888-0.888s0.397-0.888,0.888-0.888c0.491,0,0.889,0.397,0.889,0.888S42.096,98.43,41.604,98.43z
		 M41.604,89.549c-0.49,0-0.888-0.397-0.888-0.888s0.397-0.888,0.888-0.888c0.491,0,0.889,0.397,0.889,0.888
		S42.096,89.549,41.604,89.549z M41.604,80.669c-0.49,0-0.888-0.397-0.888-0.888s0.397-0.888,0.888-0.888
		c0.491,0,0.889,0.397,0.889,0.888S42.096,80.669,41.604,80.669z M41.604,71.79c-0.49,0-0.888-0.397-0.888-0.888
		s0.397-0.889,0.888-0.889c0.491,0,0.889,0.398,0.889,0.889S42.096,71.79,41.604,71.79z M41.604,62.91
		c-0.49,0-0.888-0.397-0.888-0.888c0-0.491,0.397-0.889,0.888-0.889c0.491,0,0.889,0.397,0.889,0.889
		C42.493,62.513,42.096,62.91,41.604,62.91z M41.604,54.03c-0.49,0-0.888-0.397-0.888-0.889c0-0.49,0.397-0.888,0.888-0.888
		c0.491,0,0.889,0.397,0.889,0.888C42.493,53.633,42.096,54.03,41.604,54.03z M41.604,45.15c-0.49,0-0.888-0.397-0.888-0.889
		c0-0.49,0.397-0.888,0.888-0.888c0.491,0,0.889,0.397,0.889,0.888C42.493,44.753,42.096,45.15,41.604,45.15z M41.604,36.271
		c-0.49,0-0.888-0.398-0.888-0.889s0.397-0.888,0.888-0.888c0.491,0,0.889,0.397,0.889,0.888S42.096,36.271,41.604,36.271z
		 M46.045,138.39c-0.49,0-0.888-0.397-0.888-0.888s0.397-0.888,0.888-0.888s0.888,0.397,0.888,0.888S46.535,138.39,46.045,138.39z
		 M46.045,129.509c-0.49,0-0.888-0.397-0.888-0.888s0.397-0.888,0.888-0.888s0.888,0.397,0.888,0.888S46.535,129.509,46.045,129.509
		z M46.045,120.629c-0.49,0-0.888-0.397-0.888-0.888s0.397-0.888,0.888-0.888s0.888,0.397,0.888,0.888
		S46.535,120.629,46.045,120.629z M46.045,111.749c-0.49,0-0.888-0.397-0.888-0.888s0.397-0.889,0.888-0.889
		s0.888,0.398,0.888,0.889S46.535,111.749,46.045,111.749z M46.045,102.87c-0.49,0-0.888-0.397-0.888-0.888
		c0-0.491,0.397-0.889,0.888-0.889s0.888,0.397,0.888,0.889C46.933,102.473,46.535,102.87,46.045,102.87z M46.045,93.99
		c-0.49,0-0.888-0.397-0.888-0.888c0-0.491,0.397-0.889,0.888-0.889s0.888,0.397,0.888,0.889
		C46.933,93.593,46.535,93.99,46.045,93.99z M46.045,85.11c-0.49,0-0.888-0.397-0.888-0.889c0-0.49,0.397-0.888,0.888-0.888
		s0.888,0.397,0.888,0.888C46.933,84.713,46.535,85.11,46.045,85.11z M46.045,76.23c-0.49,0-0.888-0.398-0.888-0.889
		s0.397-0.888,0.888-0.888s0.888,0.397,0.888,0.888S46.535,76.23,46.045,76.23z M46.045,67.35c-0.49,0-0.888-0.397-0.888-0.888
		s0.397-0.888,0.888-0.888s0.888,0.397,0.888,0.888S46.535,67.35,46.045,67.35z M46.045,58.469c-0.49,0-0.888-0.397-0.888-0.888
		s0.397-0.888,0.888-0.888s0.888,0.397,0.888,0.888S46.535,58.469,46.045,58.469z M46.045,49.589c-0.49,0-0.888-0.397-0.888-0.888
		s0.397-0.888,0.888-0.888s0.888,0.397,0.888,0.888S46.535,49.589,46.045,49.589z M46.045,40.709c-0.49,0-0.888-0.397-0.888-0.888
		s0.397-0.889,0.888-0.889s0.888,0.398,0.888,0.889S46.535,40.709,46.045,40.709z M46.045,31.83c-0.49,0-0.888-0.397-0.888-0.888
		c0-0.491,0.397-0.889,0.888-0.889s0.888,0.397,0.888,0.889C46.933,31.433,46.535,31.83,46.045,31.83z M50.485,142.83
		c-0.491,0-0.889-0.397-0.889-0.888c0-0.491,0.397-0.889,0.889-0.889c0.49,0,0.888,0.397,0.888,0.889
		C51.373,142.433,50.976,142.83,50.485,142.83z M50.485,133.95c-0.491,0-0.889-0.397-0.889-0.888c0-0.491,0.397-0.889,0.889-0.889
		c0.49,0,0.888,0.397,0.888,0.889C51.373,133.553,50.976,133.95,50.485,133.95z M50.485,125.07c-0.491,0-0.889-0.397-0.889-0.889
		c0-0.49,0.397-0.888,0.889-0.888c0.49,0,0.888,0.397,0.888,0.888C51.373,124.673,50.976,125.07,50.485,125.07z M50.485,116.19
		c-0.491,0-0.889-0.397-0.889-0.889c0-0.49,0.397-0.888,0.889-0.888c0.49,0,0.888,0.397,0.888,0.888
		C51.373,115.793,50.976,116.19,50.485,116.19z M50.485,107.311c-0.491,0-0.889-0.398-0.889-0.889s0.397-0.888,0.889-0.888
		c0.49,0,0.888,0.397,0.888,0.888S50.976,107.311,50.485,107.311z M50.485,98.43c-0.491,0-0.889-0.397-0.889-0.888
		s0.397-0.888,0.889-0.888c0.49,0,0.888,0.397,0.888,0.888S50.976,98.43,50.485,98.43z M50.485,89.549
		c-0.491,0-0.889-0.397-0.889-0.888s0.397-0.888,0.889-0.888c0.49,0,0.888,0.397,0.888,0.888S50.976,89.549,50.485,89.549z
		 M50.485,80.669c-0.491,0-0.889-0.397-0.889-0.888s0.397-0.888,0.889-0.888c0.49,0,0.888,0.397,0.888,0.888
		S50.976,80.669,50.485,80.669z M50.485,71.79c-0.491,0-0.889-0.397-0.889-0.888s0.397-0.889,0.889-0.889
		c0.49,0,0.888,0.398,0.888,0.889S50.976,71.79,50.485,71.79z M50.485,62.91c-0.491,0-0.889-0.397-0.889-0.888
		c0-0.491,0.397-0.889,0.889-0.889c0.49,0,0.888,0.397,0.888,0.889C51.373,62.513,50.976,62.91,50.485,62.91z M50.485,54.03
		c-0.491,0-0.889-0.397-0.889-0.889c0-0.49,0.397-0.888,0.889-0.888c0.49,0,0.888,0.397,0.888,0.888
		C51.373,53.633,50.976,54.03,50.485,54.03z M50.485,45.15c-0.491,0-0.889-0.397-0.889-0.889c0-0.49,0.397-0.888,0.889-0.888
		c0.49,0,0.888,0.397,0.888,0.888C51.373,44.753,50.976,45.15,50.485,45.15z M50.485,36.271c-0.491,0-0.889-0.398-0.889-0.889
		s0.397-0.888,0.889-0.888c0.49,0,0.888,0.397,0.888,0.888S50.976,36.271,50.485,36.271z M50.485,27.39
		c-0.491,0-0.889-0.397-0.889-0.888s0.397-0.888,0.889-0.888c0.49,0,0.888,0.397,0.888,0.888S50.976,27.39,50.485,27.39z
		 M54.098,146.077c0.125-0.339,0.444-0.584,0.827-0.584c0.489,0,0.886,0.396,0.887,0.886
		C55.248,146.286,54.677,146.186,54.098,146.077z M54.925,138.39c-0.49,0-0.888-0.397-0.888-0.888s0.397-0.888,0.888-0.888
		s0.888,0.397,0.888,0.888S55.415,138.39,54.925,138.39z M54.925,129.509c-0.49,0-0.888-0.397-0.888-0.888s0.397-0.888,0.888-0.888
		s0.888,0.397,0.888,0.888S55.415,129.509,54.925,129.509z M54.925,120.629c-0.49,0-0.888-0.397-0.888-0.888
		s0.397-0.888,0.888-0.888s0.888,0.397,0.888,0.888S55.415,120.629,54.925,120.629z M54.925,111.749
		c-0.49,0-0.888-0.397-0.888-0.888s0.397-0.889,0.888-0.889s0.888,0.398,0.888,0.889S55.415,111.749,54.925,111.749z M54.925,102.87
		c-0.49,0-0.888-0.397-0.888-0.888c0-0.491,0.397-0.889,0.888-0.889s0.888,0.397,0.888,0.889
		C55.812,102.473,55.415,102.87,54.925,102.87z M54.925,93.99c-0.49,0-0.888-0.397-0.888-0.888c0-0.491,0.397-0.889,0.888-0.889
		s0.888,0.397,0.888,0.889C55.812,93.593,55.415,93.99,54.925,93.99z M54.925,85.11c-0.49,0-0.888-0.397-0.888-0.889
		c0-0.49,0.397-0.888,0.888-0.888s0.888,0.397,0.888,0.888C55.812,84.713,55.415,85.11,54.925,85.11z M54.925,76.23
		c-0.49,0-0.888-0.398-0.888-0.889s0.397-0.888,0.888-0.888s0.888,0.397,0.888,0.888S55.415,76.23,54.925,76.23z M54.925,67.35
		c-0.49,0-0.888-0.397-0.888-0.888s0.397-0.888,0.888-0.888s0.888,0.397,0.888,0.888S55.415,67.35,54.925,67.35z M54.925,58.469
		c-0.49,0-0.888-0.397-0.888-0.888s0.397-0.888,0.888-0.888s0.888,0.397,0.888,0.888S55.415,58.469,54.925,58.469z M54.925,49.589
		c-0.49,0-0.888-0.397-0.888-0.888s0.397-0.888,0.888-0.888s0.888,0.397,0.888,0.888S55.415,49.589,54.925,49.589z M54.925,40.709
		c-0.49,0-0.888-0.397-0.888-0.888s0.397-0.889,0.888-0.889s0.888,0.398,0.888,0.889S55.415,40.709,54.925,40.709z M54.925,31.83
		c-0.49,0-0.888-0.397-0.888-0.888c0-0.491,0.397-0.889,0.888-0.889s0.888,0.397,0.888,0.889
		C55.812,31.433,55.415,31.83,54.925,31.83z M59.365,142.83c-0.491,0-0.889-0.397-0.889-0.888c0-0.491,0.397-0.889,0.889-0.889
		c0.49,0,0.888,0.397,0.888,0.889C60.253,142.433,59.855,142.83,59.365,142.83z M59.365,133.95c-0.491,0-0.889-0.397-0.889-0.888
		c0-0.491,0.397-0.889,0.889-0.889c0.49,0,0.888,0.397,0.888,0.889C60.253,133.553,59.855,133.95,59.365,133.95z M59.365,125.07
		c-0.491,0-0.889-0.397-0.889-0.889c0-0.49,0.397-0.888,0.889-0.888c0.49,0,0.888,0.397,0.888,0.888
		C60.253,124.673,59.855,125.07,59.365,125.07z M59.365,116.19c-0.491,0-0.889-0.397-0.889-0.889c0-0.49,0.397-0.888,0.889-0.888
		c0.49,0,0.888,0.397,0.888,0.888C60.253,115.793,59.855,116.19,59.365,116.19z M59.365,107.311c-0.491,0-0.889-0.398-0.889-0.889
		s0.397-0.888,0.889-0.888c0.49,0,0.888,0.397,0.888,0.888S59.855,107.311,59.365,107.311z M59.365,98.43
		c-0.491,0-0.889-0.397-0.889-0.888s0.397-0.888,0.889-0.888c0.49,0,0.888,0.397,0.888,0.888S59.855,98.43,59.365,98.43z
		 M59.365,89.549c-0.491,0-0.889-0.397-0.889-0.888s0.397-0.888,0.889-0.888c0.49,0,0.888,0.397,0.888,0.888
		S59.855,89.549,59.365,89.549z M59.365,80.669c-0.491,0-0.889-0.397-0.889-0.888s0.397-0.888,0.889-0.888
		c0.49,0,0.888,0.397,0.888,0.888S59.855,80.669,59.365,80.669z M59.365,71.79c-0.491,0-0.889-0.397-0.889-0.888
		s0.397-0.889,0.889-0.889c0.49,0,0.888,0.398,0.888,0.889S59.855,71.79,59.365,71.79z M59.365,62.91
		c-0.491,0-0.889-0.397-0.889-0.888c0-0.491,0.397-0.889,0.889-0.889c0.49,0,0.888,0.397,0.888,0.889
		C60.253,62.513,59.855,62.91,59.365,62.91z M59.365,54.03c-0.491,0-0.889-0.397-0.889-0.889c0-0.49,0.397-0.888,0.889-0.888
		c0.49,0,0.888,0.397,0.888,0.888C60.253,53.633,59.855,54.03,59.365,54.03z M59.365,45.15c-0.491,0-0.889-0.397-0.889-0.889
		c0-0.49,0.397-0.888,0.889-0.888c0.49,0,0.888,0.397,0.888,0.888C60.253,44.753,59.855,45.15,59.365,45.15z M59.365,36.271
		c-0.491,0-0.889-0.398-0.889-0.889s0.397-0.888,0.889-0.888c0.49,0,0.888,0.397,0.888,0.888S59.855,36.271,59.365,36.271z
		 M59.365,27.39c-0.491,0-0.889-0.397-0.888-0.888c0-0.142,0.041-0.271,0.101-0.39c0.265,0.059,0.533,0.117,0.793,0.175
		c0.302,0.063,0.581,0.123,0.876,0.185c0,0.011,0.006,0.02,0.006,0.03C60.253,26.993,59.854,27.39,59.365,27.39z M59.365,18.509
		c-0.491,0-0.889-0.397-0.889-0.888s0.397-0.888,0.889-0.888c0.49,0,0.888,0.397,0.888,0.888S59.855,18.509,59.365,18.509z
		 M63.805,147.271c-0.49,0-0.888-0.398-0.888-0.889s0.397-0.888,0.888-0.888s0.888,0.397,0.888,0.888S64.295,147.271,63.805,147.271
		z M62.917,137.502c0-0.292,0.149-0.539,0.368-0.701c0.243,0.378,0.545,0.841,0.914,1.395c0.014,0.02,0.03,0.042,0.045,0.062
		c-0.131,0.077-0.276,0.133-0.439,0.133C63.313,138.39,62.917,137.993,62.917,137.502z M64.637,137.776
		c-0.43-0.438-0.792-0.806-1.092-1.11c0.084-0.026,0.168-0.052,0.26-0.052c0.491,0,0.888,0.397,0.888,0.888
		C64.692,137.599,64.666,137.688,64.637,137.776z M63.805,129.509c-0.49,0-0.888-0.397-0.888-0.888s0.397-0.888,0.888-0.888
		s0.888,0.397,0.888,0.888S64.295,129.509,63.805,129.509z M63.805,120.629c-0.49,0-0.888-0.397-0.888-0.888
		s0.397-0.888,0.888-0.888s0.888,0.397,0.888,0.888S64.295,120.629,63.805,120.629z M63.805,111.749
		c-0.49,0-0.888-0.397-0.888-0.888s0.397-0.889,0.888-0.889s0.888,0.398,0.888,0.889S64.295,111.749,63.805,111.749z M63.805,102.87
		c-0.49,0-0.888-0.397-0.888-0.888c0-0.491,0.397-0.889,0.888-0.889s0.888,0.397,0.888,0.889
		C64.692,102.473,64.295,102.87,63.805,102.87z M63.805,93.99c-0.49,0-0.888-0.397-0.888-0.888c0-0.491,0.397-0.889,0.888-0.889
		s0.888,0.397,0.888,0.889C64.692,93.593,64.295,93.99,63.805,93.99z M63.805,85.11c-0.49,0-0.888-0.397-0.888-0.889
		c0-0.49,0.397-0.888,0.888-0.888s0.888,0.397,0.888,0.888C64.692,84.713,64.295,85.11,63.805,85.11z M63.805,76.23
		c-0.49,0-0.888-0.398-0.888-0.889s0.397-0.888,0.888-0.888s0.888,0.397,0.888,0.888S64.295,76.23,63.805,76.23z M63.805,67.35
		c-0.49,0-0.888-0.397-0.888-0.888s0.397-0.888,0.888-0.888s0.888,0.397,0.888,0.888S64.295,67.35,63.805,67.35z M63.805,58.469
		c-0.49,0-0.888-0.397-0.888-0.888s0.397-0.888,0.888-0.888s0.888,0.397,0.888,0.888S64.295,58.469,63.805,58.469z M63.805,49.589
		c-0.49,0-0.888-0.397-0.888-0.888s0.397-0.888,0.888-0.888s0.888,0.397,0.888,0.888S64.295,49.589,63.805,49.589z M63.805,40.709
		c-0.49,0-0.888-0.397-0.888-0.888s0.397-0.889,0.888-0.889s0.888,0.398,0.888,0.889S64.295,40.709,63.805,40.709z M63.805,31.83
		c-0.49,0-0.888-0.397-0.888-0.888c0-0.491,0.397-0.889,0.888-0.889s0.888,0.397,0.888,0.889
		C64.692,31.433,64.295,31.83,63.805,31.83z M63.805,22.95c-0.49,0-0.888-0.397-0.888-0.888c0-0.491,0.397-0.889,0.888-0.889
		s0.888,0.397,0.888,0.889C64.692,22.553,64.295,22.95,63.805,22.95z M63.805,14.07c-0.49,0-0.888-0.397-0.888-0.889
		c0-0.49,0.397-0.888,0.888-0.888s0.888,0.397,0.888,0.888C64.692,13.673,64.295,14.07,63.805,14.07z M67.395,142.127
		c0.201,0.217,0.408,0.436,0.625,0.657C67.701,142.699,67.465,142.45,67.395,142.127z M68.479,141.1
		c0.225,0.063,0.406,0.205,0.521,0.401C68.82,141.366,68.648,141.233,68.479,141.1z M68.246,133.95c-0.49,0-0.889-0.397-0.889-0.888
		c0-0.491,0.398-0.889,0.889-0.889s0.887,0.397,0.887,0.889C69.133,133.553,68.736,133.95,68.246,133.95z M68.246,125.07
		c-0.49,0-0.889-0.397-0.889-0.889c0-0.49,0.398-0.888,0.889-0.888s0.887,0.397,0.887,0.888
		C69.133,124.673,68.736,125.07,68.246,125.07z M68.246,116.19c-0.49,0-0.889-0.397-0.889-0.889c0-0.49,0.398-0.888,0.889-0.888
		s0.887,0.397,0.887,0.888C69.133,115.793,68.736,116.19,68.246,116.19z M68.246,107.311c-0.49,0-0.889-0.398-0.889-0.889
		s0.398-0.888,0.889-0.888s0.887,0.397,0.887,0.888S68.736,107.311,68.246,107.311z M68.246,98.43c-0.49,0-0.889-0.397-0.889-0.888
		s0.398-0.888,0.889-0.888s0.887,0.397,0.887,0.888S68.736,98.43,68.246,98.43z M68.246,89.549c-0.49,0-0.889-0.397-0.889-0.888
		s0.398-0.888,0.889-0.888s0.887,0.397,0.887,0.888S68.736,89.549,68.246,89.549z M68.246,80.669c-0.49,0-0.889-0.397-0.889-0.888
		s0.398-0.888,0.889-0.888s0.887,0.397,0.887,0.888S68.736,80.669,68.246,80.669z M68.246,71.79c-0.49,0-0.889-0.397-0.889-0.888
		s0.398-0.889,0.889-0.889s0.887,0.398,0.887,0.889S68.736,71.79,68.246,71.79z M68.246,62.91c-0.49,0-0.889-0.397-0.889-0.888
		c0-0.491,0.398-0.889,0.889-0.889s0.887,0.397,0.887,0.889C69.133,62.513,68.736,62.91,68.246,62.91z M68.246,54.03
		c-0.49,0-0.889-0.397-0.889-0.889c0-0.49,0.398-0.888,0.889-0.888s0.887,0.397,0.887,0.888
		C69.133,53.633,68.736,54.03,68.246,54.03z M68.246,45.15c-0.49,0-0.889-0.397-0.889-0.889c0-0.49,0.398-0.888,0.889-0.888
		s0.887,0.397,0.887,0.888C69.133,44.753,68.736,45.15,68.246,45.15z M68.246,36.271c-0.49,0-0.889-0.398-0.889-0.889
		s0.398-0.888,0.889-0.888s0.887,0.397,0.887,0.888S68.736,36.271,68.246,36.271z M68.246,27.39c-0.49,0-0.889-0.397-0.889-0.888
		s0.398-0.888,0.889-0.888s0.887,0.397,0.887,0.888S68.736,27.39,68.246,27.39z M68.246,18.509c-0.49,0-0.889-0.397-0.889-0.888
		s0.398-0.888,0.889-0.888s0.887,0.397,0.887,0.888S68.736,18.509,68.246,18.509z M68.246,9.629c-0.49,0-0.889-0.397-0.889-0.888
		s0.398-0.888,0.889-0.888s0.887,0.397,0.887,0.888S68.736,9.629,68.246,9.629z M72.686,147.271c-0.49,0-0.889-0.398-0.889-0.889
		c0-0.092,0.027-0.177,0.053-0.26c0.436,0.324,0.891,0.643,1.359,0.958C73.061,147.191,72.885,147.271,72.686,147.271z
		 M72.686,138.39c-0.49,0-0.889-0.397-0.889-0.888s0.398-0.888,0.889-0.888s0.889,0.397,0.889,0.888S73.176,138.39,72.686,138.39z
		 M72.686,129.509c-0.49,0-0.889-0.397-0.889-0.888s0.398-0.888,0.889-0.888s0.889,0.397,0.889,0.888S73.176,129.509,72.686,129.509
		z M72.686,120.629c-0.49,0-0.889-0.397-0.889-0.888s0.398-0.888,0.889-0.888s0.889,0.397,0.889,0.888
		S73.176,120.629,72.686,120.629z M72.686,111.749c-0.49,0-0.889-0.397-0.889-0.888s0.398-0.889,0.889-0.889
		s0.889,0.398,0.889,0.889S73.176,111.749,72.686,111.749z M72.686,102.87c-0.49,0-0.889-0.397-0.889-0.888
		c0-0.491,0.398-0.889,0.889-0.889s0.889,0.397,0.889,0.889C73.574,102.473,73.176,102.87,72.686,102.87z M72.686,93.99
		c-0.49,0-0.889-0.397-0.889-0.888c0-0.491,0.398-0.889,0.889-0.889s0.889,0.397,0.889,0.889
		C73.574,93.593,73.176,93.99,72.686,93.99z M72.686,85.11c-0.49,0-0.889-0.397-0.889-0.889c0-0.49,0.398-0.888,0.889-0.888
		s0.889,0.397,0.889,0.888C73.574,84.713,73.176,85.11,72.686,85.11z M72.686,76.23c-0.49,0-0.889-0.398-0.889-0.889
		s0.398-0.888,0.889-0.888s0.889,0.397,0.889,0.888S73.176,76.23,72.686,76.23z M72.686,67.35c-0.49,0-0.889-0.397-0.889-0.888
		s0.398-0.888,0.889-0.888s0.889,0.397,0.889,0.888S73.176,67.35,72.686,67.35z M72.686,58.469c-0.49,0-0.889-0.397-0.889-0.888
		s0.398-0.888,0.889-0.888s0.889,0.397,0.889,0.888S73.176,58.469,72.686,58.469z M72.686,49.589c-0.49,0-0.889-0.397-0.889-0.888
		s0.398-0.888,0.889-0.888s0.889,0.397,0.889,0.888S73.176,49.589,72.686,49.589z M72.686,40.709c-0.49,0-0.889-0.397-0.889-0.888
		s0.398-0.889,0.889-0.889s0.889,0.398,0.889,0.889S73.176,40.709,72.686,40.709z M72.686,31.83c-0.455,0-0.812-0.345-0.867-0.784
		c0.486,0.268,0.752,0.413,0.752,0.413s-0.26-0.235-0.74-0.673c0.076-0.413,0.42-0.732,0.855-0.732c0.49,0,0.889,0.398,0.889,0.889
		S73.176,31.83,72.686,31.83z M72.686,22.95c-0.49,0-0.889-0.397-0.889-0.888c0-0.491,0.398-0.889,0.889-0.889
		s0.889,0.397,0.889,0.889C73.574,22.553,73.176,22.95,72.686,22.95z M72.686,14.07c-0.49,0-0.889-0.397-0.889-0.889
		c0-0.49,0.398-0.888,0.889-0.888s0.889,0.397,0.889,0.888C73.574,13.673,73.176,14.07,72.686,14.07z M77.125,142.83
		c-0.49,0-0.887-0.397-0.887-0.888c0-0.491,0.396-0.889,0.887-0.889s0.889,0.397,0.889,0.889
		C78.014,142.433,77.615,142.83,77.125,142.83z M77.125,133.95c-0.49,0-0.887-0.397-0.887-0.888c0-0.491,0.396-0.889,0.887-0.889
		s0.889,0.397,0.889,0.889C78.014,133.553,77.615,133.95,77.125,133.95z M77.125,125.07c-0.49,0-0.887-0.397-0.887-0.889
		c0-0.49,0.396-0.888,0.887-0.888s0.889,0.397,0.889,0.888C78.014,124.673,77.615,125.07,77.125,125.07z M77.125,116.19
		c-0.49,0-0.887-0.397-0.887-0.889c0-0.49,0.396-0.888,0.887-0.888s0.889,0.397,0.889,0.888
		C78.014,115.793,77.615,116.19,77.125,116.19z M77.125,107.311c-0.49,0-0.887-0.398-0.887-0.889s0.396-0.888,0.887-0.888
		s0.889,0.397,0.889,0.888S77.615,107.311,77.125,107.311z M77.125,98.43c-0.49,0-0.887-0.397-0.887-0.888s0.396-0.888,0.887-0.888
		s0.889,0.397,0.889,0.888S77.615,98.43,77.125,98.43z M77.125,89.549c-0.49,0-0.887-0.397-0.887-0.888s0.396-0.888,0.887-0.888
		s0.889,0.397,0.889,0.888S77.615,89.549,77.125,89.549z M77.125,80.669c-0.49,0-0.887-0.397-0.887-0.888s0.396-0.888,0.887-0.888
		s0.889,0.397,0.889,0.888S77.615,80.669,77.125,80.669z M77.125,71.79c-0.49,0-0.887-0.397-0.887-0.888s0.396-0.889,0.887-0.889
		s0.889,0.398,0.889,0.889S77.615,71.79,77.125,71.79z M77.125,62.91c-0.49,0-0.887-0.397-0.887-0.888
		c0-0.491,0.396-0.889,0.887-0.889s0.889,0.397,0.889,0.889C78.014,62.513,77.615,62.91,77.125,62.91z M77.125,54.03
		c-0.49,0-0.887-0.397-0.887-0.889c0-0.49,0.396-0.888,0.887-0.888s0.889,0.397,0.889,0.888
		C78.014,53.633,77.615,54.03,77.125,54.03z M77.125,45.15c-0.49,0-0.887-0.397-0.887-0.889c0-0.49,0.396-0.888,0.887-0.888
		s0.889,0.397,0.889,0.888C78.014,44.753,77.615,45.15,77.125,45.15z M77.125,36.271c-0.49,0-0.887-0.398-0.887-0.889
		s0.396-0.888,0.887-0.888s0.889,0.397,0.889,0.888S77.615,36.271,77.125,36.271z M77.125,27.39c-0.49,0-0.887-0.397-0.887-0.888
		s0.396-0.888,0.887-0.888s0.889,0.397,0.889,0.888S77.615,27.39,77.125,27.39z M77.125,18.509c-0.49,0-0.887-0.397-0.887-0.888
		s0.396-0.888,0.887-0.888s0.889,0.397,0.889,0.888S77.615,18.509,77.125,18.509z M77.125,9.629c-0.49,0-0.887-0.397-0.887-0.888
		s0.396-0.888,0.887-0.888s0.889,0.397,0.889,0.888S77.615,9.629,77.125,9.629z M81.564,147.271c-0.49,0-0.887-0.398-0.887-0.889
		s0.396-0.888,0.887-0.888c0.492,0,0.889,0.397,0.889,0.888S82.057,147.271,81.564,147.271z M81.564,138.39
		c-0.49,0-0.887-0.397-0.887-0.888s0.396-0.888,0.887-0.888c0.492,0,0.889,0.397,0.889,0.888S82.057,138.39,81.564,138.39z
		 M81.564,129.509c-0.49,0-0.887-0.397-0.887-0.888s0.396-0.888,0.887-0.888c0.492,0,0.889,0.397,0.889,0.888
		S82.057,129.509,81.564,129.509z M81.564,120.629c-0.49,0-0.887-0.397-0.887-0.888s0.396-0.888,0.887-0.888
		c0.492,0,0.889,0.397,0.889,0.888S82.057,120.629,81.564,120.629z M81.564,111.749c-0.49,0-0.887-0.397-0.887-0.888
		s0.396-0.889,0.887-0.889c0.492,0,0.889,0.398,0.889,0.889S82.057,111.749,81.564,111.749z M81.564,102.87
		c-0.49,0-0.887-0.397-0.887-0.888c0-0.491,0.396-0.889,0.887-0.889c0.492,0,0.889,0.397,0.889,0.889
		C82.453,102.473,82.057,102.87,81.564,102.87z M81.564,93.99c-0.49,0-0.887-0.397-0.887-0.888c0-0.491,0.396-0.889,0.887-0.889
		c0.492,0,0.889,0.397,0.889,0.889C82.453,93.593,82.057,93.99,81.564,93.99z M81.564,85.11c-0.49,0-0.887-0.397-0.887-0.889
		c0-0.49,0.396-0.888,0.887-0.888c0.492,0,0.889,0.397,0.889,0.888C82.453,84.713,82.057,85.11,81.564,85.11z M81.564,76.23
		c-0.49,0-0.887-0.398-0.887-0.889s0.396-0.888,0.887-0.888c0.492,0,0.889,0.397,0.889,0.888S82.057,76.23,81.564,76.23z
		 M81.564,67.35c-0.49,0-0.887-0.397-0.887-0.888s0.396-0.888,0.887-0.888c0.492,0,0.889,0.397,0.889,0.888
		S82.057,67.35,81.564,67.35z M81.564,58.469c-0.49,0-0.887-0.397-0.887-0.888s0.396-0.888,0.887-0.888
		c0.492,0,0.889,0.397,0.889,0.888S82.057,58.469,81.564,58.469z M81.564,49.589c-0.49,0-0.887-0.397-0.887-0.888
		s0.396-0.888,0.887-0.888c0.492,0,0.889,0.397,0.889,0.888S82.057,49.589,81.564,49.589z M81.564,40.709
		c-0.49,0-0.887-0.397-0.887-0.888s0.396-0.889,0.887-0.889c0.492,0,0.889,0.398,0.889,0.889S82.057,40.709,81.564,40.709z
		 M81.564,31.83c-0.49,0-0.887-0.397-0.887-0.888c0-0.491,0.396-0.889,0.887-0.889c0.492,0,0.889,0.397,0.889,0.889
		C82.453,31.433,82.057,31.83,81.564,31.83z M81.564,22.95c-0.49,0-0.887-0.397-0.887-0.888c0-0.491,0.396-0.889,0.887-0.889
		c0.492,0,0.889,0.397,0.889,0.889C82.453,22.553,82.057,22.95,81.564,22.95z M81.564,14.07c-0.49,0-0.887-0.397-0.887-0.889
		c0-0.49,0.396-0.888,0.887-0.888c0.492,0,0.889,0.397,0.889,0.888C82.453,13.673,82.057,14.07,81.564,14.07z M81.564,5.19
		c-0.488,0-0.887-0.398-0.887-0.889c0-0.063,0.023-0.121,0.037-0.182c0.402-0.003,0.803-0.011,1.207-0.006
		c0.166,0.003,0.33,0.012,0.496,0.016c0.012,0.058,0.035,0.111,0.035,0.172C82.453,4.793,82.055,5.19,81.564,5.19z M86.006,142.83
		c-0.49,0-0.889-0.397-0.889-0.888c0-0.491,0.398-0.889,0.889-0.889s0.887,0.397,0.887,0.889
		C86.893,142.433,86.496,142.83,86.006,142.83z M86.006,133.95c-0.49,0-0.889-0.397-0.889-0.888c0-0.491,0.398-0.889,0.889-0.889
		s0.887,0.397,0.887,0.889C86.893,133.553,86.496,133.95,86.006,133.95z M86.006,125.07c-0.49,0-0.889-0.397-0.889-0.889
		c0-0.49,0.398-0.888,0.889-0.888s0.887,0.397,0.887,0.888C86.893,124.673,86.496,125.07,86.006,125.07z M86.006,116.19
		c-0.49,0-0.889-0.397-0.889-0.889c0-0.49,0.398-0.888,0.889-0.888s0.887,0.397,0.887,0.888
		C86.893,115.793,86.496,116.19,86.006,116.19z M86.006,107.311c-0.49,0-0.889-0.398-0.889-0.889s0.398-0.888,0.889-0.888
		s0.887,0.397,0.887,0.888S86.496,107.311,86.006,107.311z M86.006,98.43c-0.49,0-0.889-0.397-0.889-0.888s0.398-0.888,0.889-0.888
		s0.887,0.397,0.887,0.888S86.496,98.43,86.006,98.43z M86.006,89.549c-0.49,0-0.889-0.397-0.889-0.888s0.398-0.888,0.889-0.888
		s0.887,0.397,0.887,0.888S86.496,89.549,86.006,89.549z M86.006,80.669c-0.49,0-0.889-0.397-0.889-0.888s0.398-0.888,0.889-0.888
		s0.887,0.397,0.887,0.888S86.496,80.669,86.006,80.669z M86.006,71.79c-0.49,0-0.889-0.397-0.889-0.888s0.398-0.889,0.889-0.889
		s0.887,0.398,0.887,0.889S86.496,71.79,86.006,71.79z M86.006,62.91c-0.49,0-0.889-0.397-0.889-0.888
		c0-0.491,0.398-0.889,0.889-0.889s0.887,0.397,0.887,0.889C86.893,62.513,86.496,62.91,86.006,62.91z M86.006,54.03
		c-0.49,0-0.889-0.397-0.889-0.889c0-0.49,0.398-0.888,0.889-0.888s0.887,0.397,0.887,0.888
		C86.893,53.633,86.496,54.03,86.006,54.03z M86.006,45.15c-0.49,0-0.889-0.397-0.889-0.889c0-0.49,0.398-0.888,0.889-0.888
		s0.887,0.397,0.887,0.888C86.893,44.753,86.496,45.15,86.006,45.15z M86.006,36.271c-0.49,0-0.889-0.398-0.889-0.889
		s0.398-0.888,0.889-0.888s0.887,0.397,0.887,0.888S86.496,36.271,86.006,36.271z M86.006,27.39c-0.49,0-0.889-0.397-0.889-0.888
		s0.398-0.888,0.889-0.888s0.887,0.397,0.887,0.888S86.496,27.39,86.006,27.39z M86.006,18.509c-0.49,0-0.889-0.397-0.889-0.888
		s0.398-0.888,0.889-0.888s0.887,0.397,0.887,0.888S86.496,18.509,86.006,18.509z M86.006,9.629c-0.49,0-0.889-0.397-0.889-0.888
		s0.398-0.888,0.889-0.888s0.887,0.397,0.887,0.888S86.496,9.629,86.006,9.629z M90.445,147.271c-0.49,0-0.889-0.398-0.889-0.889
		s0.398-0.888,0.889-0.888s0.889,0.397,0.889,0.888S90.936,147.271,90.445,147.271z M90.445,138.39c-0.49,0-0.889-0.397-0.889-0.888
		s0.398-0.888,0.889-0.888s0.889,0.397,0.889,0.888S90.936,138.39,90.445,138.39z M90.445,129.509c-0.49,0-0.889-0.397-0.889-0.888
		s0.398-0.888,0.889-0.888s0.889,0.397,0.889,0.888S90.936,129.509,90.445,129.509z M90.445,120.629
		c-0.49,0-0.889-0.397-0.889-0.888s0.398-0.888,0.889-0.888s0.889,0.397,0.889,0.888S90.936,120.629,90.445,120.629z
		 M90.445,111.749c-0.49,0-0.889-0.397-0.889-0.888s0.398-0.889,0.889-0.889s0.889,0.398,0.889,0.889S90.936,111.749,90.445,111.749
		z M90.445,102.87c-0.49,0-0.889-0.397-0.889-0.888c0-0.491,0.398-0.889,0.889-0.889s0.889,0.397,0.889,0.889
		C91.334,102.473,90.936,102.87,90.445,102.87z M90.445,93.99c-0.49,0-0.889-0.397-0.889-0.888c0-0.491,0.398-0.889,0.889-0.889
		s0.889,0.397,0.889,0.889C91.334,93.593,90.936,93.99,90.445,93.99z M90.445,85.11c-0.49,0-0.889-0.397-0.889-0.889
		c0-0.49,0.398-0.888,0.889-0.888s0.889,0.397,0.889,0.888C91.334,84.713,90.936,85.11,90.445,85.11z M90.445,76.23
		c-0.49,0-0.889-0.398-0.889-0.889s0.398-0.888,0.889-0.888s0.889,0.397,0.889,0.888S90.936,76.23,90.445,76.23z M90.445,67.35
		c-0.49,0-0.889-0.397-0.889-0.888s0.398-0.888,0.889-0.888s0.889,0.397,0.889,0.888S90.936,67.35,90.445,67.35z M90.445,58.469
		c-0.49,0-0.889-0.397-0.889-0.888s0.398-0.888,0.889-0.888s0.889,0.397,0.889,0.888S90.936,58.469,90.445,58.469z M90.445,49.589
		c-0.49,0-0.889-0.397-0.889-0.888s0.398-0.888,0.889-0.888s0.889,0.397,0.889,0.888S90.936,49.589,90.445,49.589z M90.445,40.709
		c-0.49,0-0.889-0.397-0.889-0.888s0.398-0.889,0.889-0.889s0.889,0.398,0.889,0.889S90.936,40.709,90.445,40.709z M90.445,31.83
		c-0.49,0-0.889-0.397-0.889-0.888c0-0.491,0.398-0.889,0.889-0.889s0.889,0.397,0.889,0.889
		C91.334,31.433,90.936,31.83,90.445,31.83z M90.445,22.95c-0.49,0-0.889-0.397-0.889-0.888c0-0.491,0.398-0.889,0.889-0.889
		s0.889,0.397,0.889,0.889C91.334,22.553,90.936,22.95,90.445,22.95z M90.445,14.07c-0.49,0-0.889-0.397-0.889-0.889
		c0-0.49,0.398-0.888,0.889-0.888s0.889,0.397,0.889,0.888C91.334,13.673,90.936,14.07,90.445,14.07z M94.885,142.83
		c-0.49,0-0.887-0.397-0.887-0.888c0-0.491,0.396-0.889,0.887-0.889s0.889,0.397,0.889,0.889
		C95.773,142.433,95.375,142.83,94.885,142.83z M94.885,133.95c-0.49,0-0.887-0.397-0.887-0.888c0-0.491,0.396-0.889,0.887-0.889
		s0.889,0.397,0.889,0.889C95.773,133.553,95.375,133.95,94.885,133.95z M94.885,125.07c-0.49,0-0.887-0.397-0.887-0.889
		c0-0.49,0.396-0.888,0.887-0.888s0.889,0.397,0.889,0.888C95.773,124.673,95.375,125.07,94.885,125.07z M94.885,116.19
		c-0.49,0-0.887-0.397-0.887-0.889c0-0.49,0.396-0.888,0.887-0.888s0.889,0.397,0.889,0.888
		C95.773,115.793,95.375,116.19,94.885,116.19z M94.885,107.311c-0.49,0-0.887-0.398-0.887-0.889s0.396-0.888,0.887-0.888
		s0.889,0.397,0.889,0.888S95.375,107.311,94.885,107.311z M94.885,98.43c-0.49,0-0.887-0.397-0.887-0.888s0.396-0.888,0.887-0.888
		s0.889,0.397,0.889,0.888S95.375,98.43,94.885,98.43z M94.885,89.549c-0.49,0-0.887-0.397-0.887-0.888s0.396-0.888,0.887-0.888
		s0.889,0.397,0.889,0.888S95.375,89.549,94.885,89.549z M94.885,80.669c-0.49,0-0.887-0.397-0.887-0.888s0.396-0.888,0.887-0.888
		s0.889,0.397,0.889,0.888S95.375,80.669,94.885,80.669z M94.885,71.79c-0.49,0-0.887-0.397-0.887-0.888s0.396-0.889,0.887-0.889
		s0.889,0.398,0.889,0.889S95.375,71.79,94.885,71.79z M94.885,62.91c-0.49,0-0.887-0.397-0.887-0.888
		c0-0.491,0.396-0.889,0.887-0.889s0.889,0.397,0.889,0.889C95.773,62.513,95.375,62.91,94.885,62.91z M94.885,54.03
		c-0.49,0-0.887-0.397-0.887-0.889c0-0.49,0.396-0.888,0.887-0.888s0.889,0.397,0.889,0.888
		C95.773,53.633,95.375,54.03,94.885,54.03z M94.885,45.15c-0.49,0-0.887-0.397-0.887-0.889c0-0.49,0.396-0.888,0.887-0.888
		s0.889,0.397,0.889,0.888C95.773,44.753,95.375,45.15,94.885,45.15z M94.885,36.271c-0.49,0-0.887-0.398-0.887-0.889
		s0.396-0.888,0.887-0.888s0.889,0.397,0.889,0.888S95.375,36.271,94.885,36.271z M94.885,27.39c-0.49,0-0.887-0.397-0.887-0.888
		s0.396-0.888,0.887-0.888s0.889,0.397,0.889,0.888S95.375,27.39,94.885,27.39z M94.885,18.509c-0.49,0-0.887-0.397-0.887-0.888
		s0.396-0.888,0.887-0.888s0.889,0.397,0.889,0.888S95.375,18.509,94.885,18.509z M94.885,9.629c-0.49,0-0.887-0.397-0.887-0.888
		s0.396-0.888,0.887-0.888s0.889,0.397,0.889,0.888S95.375,9.629,94.885,9.629z M100.061,146.847
		c-0.377,0.11-0.758,0.212-1.141,0.312c-0.283-0.148-0.482-0.437-0.482-0.778c0-0.49,0.396-0.888,0.889-0.888
		c0.488,0,0.887,0.397,0.887,0.887C100.213,146.555,100.148,146.709,100.061,146.847z M99.326,138.39
		c-0.492,0-0.889-0.397-0.889-0.888s0.396-0.888,0.889-0.888c0.49,0,0.887,0.397,0.887,0.888S99.816,138.39,99.326,138.39z
		 M99.326,129.509c-0.492,0-0.889-0.397-0.889-0.888s0.396-0.888,0.889-0.888c0.49,0,0.887,0.397,0.887,0.888
		S99.816,129.509,99.326,129.509z M99.326,120.629c-0.492,0-0.889-0.397-0.889-0.888s0.396-0.888,0.889-0.888
		c0.49,0,0.887,0.397,0.887,0.888S99.816,120.629,99.326,120.629z M99.326,111.749c-0.492,0-0.889-0.397-0.889-0.888
		s0.396-0.889,0.889-0.889c0.49,0,0.887,0.398,0.887,0.889S99.816,111.749,99.326,111.749z M99.326,102.87
		c-0.492,0-0.889-0.397-0.889-0.888c0-0.491,0.396-0.889,0.889-0.889c0.49,0,0.887,0.397,0.887,0.889
		C100.213,102.473,99.816,102.87,99.326,102.87z M99.326,93.99c-0.492,0-0.889-0.397-0.889-0.888c0-0.491,0.396-0.889,0.889-0.889
		c0.49,0,0.887,0.397,0.887,0.889C100.213,93.593,99.816,93.99,99.326,93.99z M99.326,85.11c-0.492,0-0.889-0.397-0.889-0.889
		c0-0.49,0.396-0.888,0.889-0.888c0.49,0,0.887,0.397,0.887,0.888C100.213,84.713,99.816,85.11,99.326,85.11z M99.326,76.23
		c-0.492,0-0.889-0.398-0.889-0.889s0.396-0.888,0.889-0.888c0.49,0,0.887,0.397,0.887,0.888S99.816,76.23,99.326,76.23z
		 M99.326,67.35c-0.492,0-0.889-0.397-0.889-0.888s0.396-0.888,0.889-0.888c0.49,0,0.887,0.397,0.887,0.888
		S99.816,67.35,99.326,67.35z M99.326,58.469c-0.492,0-0.889-0.397-0.889-0.888s0.396-0.888,0.889-0.888
		c0.49,0,0.887,0.397,0.887,0.888S99.816,58.469,99.326,58.469z M99.326,49.589c-0.492,0-0.889-0.397-0.889-0.888
		s0.396-0.888,0.889-0.888c0.49,0,0.887,0.397,0.887,0.888S99.816,49.589,99.326,49.589z M99.326,40.709
		c-0.492,0-0.889-0.397-0.889-0.888s0.396-0.889,0.889-0.889c0.49,0,0.887,0.398,0.887,0.889S99.816,40.709,99.326,40.709z
		 M99.326,31.83c-0.492,0-0.889-0.397-0.889-0.888c0-0.491,0.396-0.889,0.889-0.889c0.49,0,0.887,0.397,0.887,0.889
		C100.213,31.433,99.816,31.83,99.326,31.83z M99.326,22.95c-0.492,0-0.889-0.397-0.889-0.888c0-0.491,0.396-0.889,0.889-0.889
		c0.49,0,0.887,0.397,0.887,0.889C100.213,22.553,99.816,22.95,99.326,22.95z M99.326,14.07c-0.492,0-0.889-0.397-0.889-0.889
		c0-0.49,0.396-0.888,0.889-0.888c0.49,0,0.887,0.397,0.887,0.888C100.213,13.673,99.816,14.07,99.326,14.07z M103.766,142.83
		c-0.49,0-0.889-0.397-0.889-0.888c0-0.491,0.398-0.889,0.889-0.889s0.889,0.397,0.889,0.889
		C104.654,142.433,104.256,142.83,103.766,142.83z M103.766,133.95c-0.49,0-0.889-0.397-0.889-0.888
		c0-0.491,0.398-0.889,0.889-0.889s0.889,0.397,0.889,0.889C104.654,133.553,104.256,133.95,103.766,133.95z M103.766,125.07
		c-0.49,0-0.889-0.397-0.889-0.889c0-0.49,0.398-0.888,0.889-0.888s0.889,0.397,0.889,0.888
		C104.654,124.673,104.256,125.07,103.766,125.07z M103.766,116.19c-0.49,0-0.889-0.397-0.889-0.889c0-0.49,0.398-0.888,0.889-0.888
		s0.889,0.397,0.889,0.888C104.654,115.793,104.256,116.19,103.766,116.19z M103.766,107.311c-0.49,0-0.889-0.398-0.889-0.889
		s0.398-0.888,0.889-0.888s0.889,0.397,0.889,0.888S104.256,107.311,103.766,107.311z M103.766,98.43
		c-0.49,0-0.889-0.397-0.889-0.888s0.398-0.888,0.889-0.888s0.889,0.397,0.889,0.888S104.256,98.43,103.766,98.43z M103.766,89.549
		c-0.49,0-0.889-0.397-0.889-0.888s0.398-0.888,0.889-0.888s0.889,0.397,0.889,0.888S104.256,89.549,103.766,89.549z
		 M103.766,80.669c-0.49,0-0.889-0.397-0.889-0.888s0.398-0.888,0.889-0.888s0.889,0.397,0.889,0.888S104.256,80.669,103.766,80.669
		z M103.766,71.79c-0.49,0-0.889-0.397-0.889-0.888s0.398-0.889,0.889-0.889s0.889,0.398,0.889,0.889S104.256,71.79,103.766,71.79z
		 M103.766,62.91c-0.49,0-0.889-0.397-0.889-0.888c0-0.491,0.398-0.889,0.889-0.889s0.889,0.397,0.889,0.889
		C104.654,62.513,104.256,62.91,103.766,62.91z M103.766,54.03c-0.49,0-0.889-0.397-0.889-0.889c0-0.49,0.398-0.888,0.889-0.888
		s0.889,0.397,0.889,0.888C104.654,53.633,104.256,54.03,103.766,54.03z M103.766,45.15c-0.49,0-0.889-0.397-0.889-0.889
		c0-0.49,0.398-0.888,0.889-0.888s0.889,0.397,0.889,0.888C104.654,44.753,104.256,45.15,103.766,45.15z M103.766,36.271
		c-0.49,0-0.889-0.398-0.889-0.889s0.398-0.888,0.889-0.888s0.889,0.397,0.889,0.888S104.256,36.271,103.766,36.271z M103.766,27.39
		c-0.49,0-0.889-0.397-0.889-0.888s0.398-0.888,0.889-0.888s0.889,0.397,0.889,0.888S104.256,27.39,103.766,27.39z M103.766,18.509
		c-0.49,0-0.889-0.397-0.889-0.888s0.398-0.888,0.889-0.888s0.889,0.397,0.889,0.888S104.256,18.509,103.766,18.509z
		 M108.205,138.39c-0.49,0-0.889-0.397-0.889-0.888s0.398-0.888,0.889-0.888s0.889,0.397,0.889,0.888S108.695,138.39,108.205,138.39
		z M108.205,129.509c-0.49,0-0.889-0.397-0.889-0.888s0.398-0.888,0.889-0.888s0.889,0.397,0.889,0.888
		S108.695,129.509,108.205,129.509z M108.205,120.629c-0.49,0-0.889-0.397-0.889-0.888s0.398-0.888,0.889-0.888
		s0.889,0.397,0.889,0.888S108.695,120.629,108.205,120.629z M108.205,111.749c-0.49,0-0.889-0.397-0.889-0.888
		s0.398-0.889,0.889-0.889s0.889,0.398,0.889,0.889S108.695,111.749,108.205,111.749z M108.205,102.87
		c-0.49,0-0.889-0.397-0.889-0.888c0-0.491,0.398-0.889,0.889-0.889s0.889,0.397,0.889,0.889
		C109.094,102.473,108.695,102.87,108.205,102.87z M108.205,93.99c-0.49,0-0.889-0.397-0.889-0.888c0-0.491,0.398-0.889,0.889-0.889
		s0.889,0.397,0.889,0.889C109.094,93.593,108.695,93.99,108.205,93.99z M108.205,85.11c-0.49,0-0.889-0.397-0.889-0.889
		c0-0.49,0.398-0.888,0.889-0.888s0.889,0.397,0.889,0.888C109.094,84.713,108.695,85.11,108.205,85.11z M108.205,76.23
		c-0.49,0-0.889-0.398-0.889-0.889s0.398-0.888,0.889-0.888s0.889,0.397,0.889,0.888S108.695,76.23,108.205,76.23z M108.205,67.35
		c-0.49,0-0.889-0.397-0.889-0.888s0.398-0.888,0.889-0.888s0.889,0.397,0.889,0.888S108.695,67.35,108.205,67.35z M108.205,58.469
		c-0.49,0-0.889-0.397-0.889-0.888s0.398-0.888,0.889-0.888s0.889,0.397,0.889,0.888S108.695,58.469,108.205,58.469z
		 M108.205,49.589c-0.49,0-0.889-0.397-0.889-0.888s0.398-0.888,0.889-0.888s0.889,0.397,0.889,0.888S108.695,49.589,108.205,49.589
		z M108.205,40.709c-0.49,0-0.889-0.397-0.889-0.888s0.398-0.889,0.889-0.889s0.889,0.398,0.889,0.889
		S108.695,40.709,108.205,40.709z M108.205,31.83c-0.49,0-0.889-0.397-0.889-0.888c0-0.491,0.398-0.889,0.889-0.889
		s0.889,0.397,0.889,0.889C109.094,31.433,108.695,31.83,108.205,31.83z M111.807,141.703c0.105-0.371,0.434-0.65,0.84-0.65
		c0.062,0,0.115,0.023,0.174,0.035C112.488,141.295,112.15,141.499,111.807,141.703z M112.645,133.95
		c-0.49,0-0.887-0.397-0.887-0.888c0-0.491,0.396-0.889,0.887-0.889c0.492,0,0.889,0.397,0.889,0.889
		C113.533,133.553,113.137,133.95,112.645,133.95z M112.645,125.07c-0.49,0-0.887-0.397-0.887-0.889c0-0.49,0.396-0.888,0.887-0.888
		c0.492,0,0.889,0.397,0.889,0.888C113.533,124.673,113.137,125.07,112.645,125.07z M112.645,116.19
		c-0.49,0-0.887-0.397-0.887-0.889c0-0.49,0.396-0.888,0.887-0.888c0.492,0,0.889,0.397,0.889,0.888
		C113.533,115.793,113.137,116.19,112.645,116.19z M112.645,107.311c-0.49,0-0.887-0.398-0.887-0.889s0.396-0.888,0.887-0.888
		c0.492,0,0.889,0.397,0.889,0.888S113.137,107.311,112.645,107.311z M112.645,98.43c-0.49,0-0.887-0.397-0.887-0.888
		s0.396-0.888,0.887-0.888c0.492,0,0.889,0.397,0.889,0.888S113.137,98.43,112.645,98.43z M112.645,89.549
		c-0.49,0-0.887-0.397-0.887-0.888s0.396-0.888,0.887-0.888c0.492,0,0.889,0.397,0.889,0.888S113.137,89.549,112.645,89.549z
		 M112.645,80.669c-0.49,0-0.887-0.397-0.887-0.888s0.396-0.888,0.887-0.888c0.492,0,0.889,0.397,0.889,0.888
		S113.137,80.669,112.645,80.669z M112.645,71.79c-0.49,0-0.887-0.397-0.887-0.888s0.396-0.889,0.887-0.889
		c0.492,0,0.889,0.398,0.889,0.889S113.137,71.79,112.645,71.79z M112.645,62.91c-0.49,0-0.887-0.397-0.887-0.888
		c0-0.491,0.396-0.889,0.887-0.889c0.492,0,0.889,0.397,0.889,0.889C113.533,62.513,113.137,62.91,112.645,62.91z M112.645,54.03
		c-0.49,0-0.887-0.397-0.887-0.889c0-0.49,0.396-0.888,0.887-0.888c0.492,0,0.889,0.397,0.889,0.888
		C113.533,53.633,113.137,54.03,112.645,54.03z M112.645,45.15c-0.49,0-0.887-0.397-0.887-0.889c0-0.49,0.396-0.888,0.887-0.888
		c0.492,0,0.889,0.397,0.889,0.888C113.533,44.753,113.137,45.15,112.645,45.15z M112.645,36.271c-0.49,0-0.887-0.398-0.887-0.889
		s0.396-0.888,0.887-0.888c0.492,0,0.889,0.397,0.889,0.888S113.137,36.271,112.645,36.271z M112.645,27.39
		c-0.49,0-0.887-0.397-0.887-0.888s0.396-0.888,0.887-0.888c0.492,0,0.889,0.397,0.889,0.888S113.137,27.39,112.645,27.39z
		 M117.969,137.521c-0.357,0.271-0.725,0.546-1.104,0.823c-0.383-0.1-0.668-0.431-0.668-0.844c0-0.49,0.396-0.888,0.889-0.888
		c0.49,0,0.887,0.397,0.887,0.888C117.973,137.508,117.969,137.514,117.969,137.521z M117.086,129.509
		c-0.49,0-0.889-0.397-0.889-0.888s0.398-0.888,0.889-0.888s0.887,0.397,0.887,0.888S117.576,129.509,117.086,129.509z
		 M117.086,120.629c-0.49,0-0.889-0.397-0.889-0.888s0.398-0.888,0.889-0.888s0.887,0.397,0.887,0.888
		S117.576,120.629,117.086,120.629z M117.086,111.749c-0.49,0-0.889-0.397-0.889-0.888s0.398-0.889,0.889-0.889
		s0.887,0.398,0.887,0.889S117.576,111.749,117.086,111.749z M117.086,102.87c-0.49,0-0.889-0.397-0.889-0.888
		c0-0.491,0.398-0.889,0.889-0.889s0.887,0.397,0.887,0.889C117.973,102.473,117.576,102.87,117.086,102.87z M117.086,93.99
		c-0.49,0-0.889-0.397-0.889-0.888c0-0.491,0.398-0.889,0.889-0.889s0.887,0.397,0.887,0.889
		C117.973,93.593,117.576,93.99,117.086,93.99z M117.086,85.11c-0.49,0-0.889-0.397-0.889-0.889c0-0.49,0.398-0.888,0.889-0.888
		s0.887,0.397,0.887,0.888C117.973,84.713,117.576,85.11,117.086,85.11z M117.086,76.23c-0.49,0-0.889-0.398-0.889-0.889
		s0.398-0.888,0.889-0.888s0.887,0.397,0.887,0.888S117.576,76.23,117.086,76.23z M117.086,67.35c-0.49,0-0.889-0.397-0.889-0.888
		s0.398-0.888,0.889-0.888s0.887,0.397,0.887,0.888S117.576,67.35,117.086,67.35z M117.086,58.469c-0.49,0-0.889-0.397-0.889-0.888
		s0.398-0.888,0.889-0.888s0.887,0.397,0.887,0.888S117.576,58.469,117.086,58.469z M117.086,49.589
		c-0.49,0-0.889-0.397-0.889-0.888s0.398-0.888,0.889-0.888s0.887,0.397,0.887,0.888S117.576,49.589,117.086,49.589z
		 M117.086,40.709c-0.49,0-0.889-0.397-0.889-0.888s0.398-0.889,0.889-0.889s0.887,0.398,0.887,0.889S117.576,40.709,117.086,40.709
		z M117.086,31.83c-0.49,0-0.889-0.397-0.889-0.888c0-0.491,0.398-0.889,0.889-0.889s0.887,0.397,0.887,0.889
		C117.973,31.433,117.576,31.83,117.086,31.83z M121.525,133.95c-0.49,0-0.889-0.397-0.889-0.888c0-0.491,0.398-0.889,0.889-0.889
		s0.889,0.397,0.889,0.889C122.414,133.553,122.016,133.95,121.525,133.95z M121.525,125.07c-0.49,0-0.889-0.397-0.889-0.889
		c0-0.49,0.398-0.888,0.889-0.888s0.889,0.397,0.889,0.888C122.414,124.673,122.016,125.07,121.525,125.07z M121.525,116.19
		c-0.49,0-0.889-0.397-0.889-0.889c0-0.49,0.398-0.888,0.889-0.888s0.889,0.397,0.889,0.888
		C122.414,115.793,122.016,116.19,121.525,116.19z M121.525,107.311c-0.49,0-0.889-0.398-0.889-0.889s0.398-0.888,0.889-0.888
		s0.889,0.397,0.889,0.888S122.016,107.311,121.525,107.311z M121.525,98.43c-0.49,0-0.889-0.397-0.889-0.888
		s0.398-0.888,0.889-0.888s0.889,0.397,0.889,0.888S122.016,98.43,121.525,98.43z M121.525,89.549c-0.49,0-0.889-0.397-0.889-0.888
		s0.398-0.888,0.889-0.888s0.889,0.397,0.889,0.888S122.016,89.549,121.525,89.549z M121.525,80.669
		c-0.49,0-0.889-0.397-0.889-0.888s0.398-0.888,0.889-0.888s0.889,0.397,0.889,0.888S122.016,80.669,121.525,80.669z M121.525,71.79
		c-0.49,0-0.889-0.397-0.889-0.888s0.398-0.889,0.889-0.889s0.889,0.398,0.889,0.889S122.016,71.79,121.525,71.79z M121.525,62.91
		c-0.49,0-0.889-0.397-0.889-0.888c0-0.491,0.398-0.889,0.889-0.889s0.889,0.397,0.889,0.889
		C122.414,62.513,122.016,62.91,121.525,62.91z M121.525,54.03c-0.49,0-0.889-0.397-0.889-0.889c0-0.49,0.398-0.888,0.889-0.888
		s0.889,0.397,0.889,0.888C122.414,53.633,122.016,54.03,121.525,54.03z M121.525,45.15c-0.49,0-0.889-0.397-0.889-0.889
		c0-0.49,0.398-0.888,0.889-0.888s0.889,0.397,0.889,0.888C122.414,44.753,122.016,45.15,121.525,45.15z M121.525,36.271
		c-0.49,0-0.889-0.398-0.889-0.889s0.398-0.888,0.889-0.888s0.889,0.397,0.889,0.888S122.016,36.271,121.525,36.271z M121.525,27.39
		c-0.49,0-0.889-0.397-0.889-0.888s0.398-0.888,0.889-0.888s0.889,0.397,0.889,0.888S122.016,27.39,121.525,27.39z M125.965,129.509
		c-0.49,0-0.887-0.397-0.887-0.888s0.396-0.888,0.887-0.888s0.889,0.397,0.889,0.888S126.455,129.509,125.965,129.509z
		 M125.965,120.629c-0.49,0-0.887-0.397-0.887-0.888s0.396-0.888,0.887-0.888s0.889,0.397,0.889,0.888
		S126.455,120.629,125.965,120.629z M125.965,111.749c-0.49,0-0.887-0.397-0.887-0.888s0.396-0.889,0.887-0.889
		s0.889,0.398,0.889,0.889S126.455,111.749,125.965,111.749z M125.965,102.87c-0.49,0-0.887-0.397-0.887-0.888
		c0-0.491,0.396-0.889,0.887-0.889s0.889,0.397,0.889,0.889C126.854,102.473,126.455,102.87,125.965,102.87z M125.965,93.99
		c-0.49,0-0.887-0.397-0.887-0.888c0-0.491,0.396-0.889,0.887-0.889s0.889,0.397,0.889,0.889
		C126.854,93.593,126.455,93.99,125.965,93.99z M125.965,85.11c-0.49,0-0.887-0.397-0.887-0.889c0-0.49,0.396-0.888,0.887-0.888
		s0.889,0.397,0.889,0.888C126.854,84.713,126.455,85.11,125.965,85.11z M125.965,76.23c-0.49,0-0.887-0.398-0.887-0.889
		s0.396-0.888,0.887-0.888s0.889,0.397,0.889,0.888S126.455,76.23,125.965,76.23z M125.965,67.35c-0.49,0-0.887-0.397-0.887-0.888
		s0.396-0.888,0.887-0.888s0.889,0.397,0.889,0.888S126.455,67.35,125.965,67.35z M125.965,58.469c-0.49,0-0.887-0.397-0.887-0.888
		s0.396-0.888,0.887-0.888s0.889,0.397,0.889,0.888S126.455,58.469,125.965,58.469z M125.965,49.589
		c-0.49,0-0.887-0.397-0.887-0.888s0.396-0.888,0.887-0.888s0.889,0.397,0.889,0.888S126.455,49.589,125.965,49.589z
		 M125.965,40.709c-0.49,0-0.887-0.397-0.887-0.888s0.396-0.889,0.887-0.889s0.889,0.398,0.889,0.889S126.455,40.709,125.965,40.709
		z M125.965,31.83c-0.49,0-0.887-0.397-0.887-0.888c0-0.491,0.396-0.889,0.887-0.889s0.889,0.397,0.889,0.889
		C126.854,31.433,126.455,31.83,125.965,31.83z"/>
	<path fill="#8ACBC5" d="M129.518,106.422c0,0.49,0.396,0.889,0.889,0.889c0.168,0,0.318-0.061,0.453-0.143v-1.491
		c-0.135-0.083-0.285-0.143-0.453-0.143C129.914,105.534,129.518,105.932,129.518,106.422z"/>
	<path fill="#8ACBC5" d="M129.518,124.182c0,0.491,0.396,0.889,0.889,0.889c0.168,0,0.318-0.061,0.453-0.143v-1.491
		c-0.135-0.083-0.285-0.143-0.453-0.143C129.914,123.294,129.518,123.691,129.518,124.182z"/>
	<path fill="#8ACBC5" d="M129.518,115.302c0,0.491,0.396,0.889,0.889,0.889c0.168,0,0.318-0.06,0.453-0.143v-1.491
		c-0.135-0.082-0.285-0.143-0.453-0.143C129.914,114.414,129.518,114.812,129.518,115.302z"/>
	<circle fill="#8ACBC5" cx="121.525" cy="26.502" r="0.888"/>
	<circle fill="#8ACBC5" cx="125.965" cy="30.942" r="0.888"/>
	<circle fill="#8ACBC5" cx="117.086" cy="30.942" r="0.888"/>
	<circle fill="#8ACBC5" cx="121.525" cy="44.262" r="0.888"/>
	<path fill="#8ACBC5" d="M129.518,44.262c0,0.491,0.396,0.889,0.889,0.889c0.168,0,0.318-0.06,0.453-0.143v-1.491
		c-0.135-0.083-0.285-0.143-0.453-0.143C129.914,43.374,129.518,43.771,129.518,44.262z"/>
	<circle fill="#8ACBC5" cx="125.965" cy="48.701" r="0.888"/>
	<circle fill="#8ACBC5" cx="117.086" cy="48.701" r="0.888"/>
	<circle fill="#8ACBC5" cx="125.965" cy="39.821" r="0.888"/>
	<circle fill="#8ACBC5" cx="117.086" cy="39.821" r="0.888"/>
	<circle fill="#8ACBC5" cx="121.525" cy="35.382" r="0.888"/>
	<path fill="#8ACBC5" d="M129.518,35.382c0,0.49,0.396,0.889,0.889,0.889c0.168,0,0.318-0.06,0.453-0.143v-1.491
		c-0.135-0.083-0.285-0.143-0.453-0.143C129.914,34.494,129.518,34.892,129.518,35.382z"/>
	<circle fill="#8ACBC5" cx="121.525" cy="62.022" r="0.888"/>
	<path fill="#8ACBC5" d="M129.518,62.022c0,0.49,0.396,0.888,0.889,0.888c0.168,0,0.318-0.06,0.453-0.143v-1.491
		c-0.135-0.083-0.285-0.143-0.453-0.143C129.914,61.134,129.518,61.531,129.518,62.022z"/>
	<circle fill="#8ACBC5" cx="125.965" cy="66.462" r="0.888"/>
	<circle fill="#8ACBC5" cx="117.086" cy="66.462" r="0.888"/>
	<circle fill="#8ACBC5" cx="125.965" cy="57.581" r="0.888"/>
	<circle fill="#8ACBC5" cx="117.086" cy="57.581" r="0.888"/>
	<circle fill="#8ACBC5" cx="121.525" cy="53.142" r="0.888"/>
	<path fill="#8ACBC5" d="M129.518,53.142c0,0.491,0.396,0.889,0.889,0.889c0.168,0,0.318-0.06,0.453-0.143v-1.491
		c-0.135-0.083-0.285-0.143-0.453-0.143C129.914,52.254,129.518,52.651,129.518,53.142z"/>
	<circle fill="#8ACBC5" cx="121.525" cy="79.781" r="0.888"/>
	<path fill="#8ACBC5" d="M129.518,79.781c0,0.49,0.396,0.888,0.889,0.888c0.168,0,0.318-0.06,0.453-0.143v-1.49
		c-0.135-0.083-0.285-0.143-0.453-0.143C129.914,78.894,129.518,79.291,129.518,79.781z"/>
	<circle fill="#8ACBC5" cx="125.965" cy="84.222" r="0.888"/>
	<circle fill="#8ACBC5" cx="117.086" cy="84.222" r="0.888"/>
	<circle fill="#8ACBC5" cx="125.965" cy="75.342" r="0.888"/>
	<circle fill="#8ACBC5" cx="117.086" cy="75.342" r="0.888"/>
	<circle fill="#8ACBC5" cx="121.525" cy="70.902" r="0.888"/>
	<path fill="#8ACBC5" d="M129.518,70.902c0,0.49,0.396,0.888,0.889,0.888c0.168,0,0.318-0.06,0.453-0.143v-1.491
		c-0.135-0.083-0.285-0.143-0.453-0.143C129.914,70.014,129.518,70.412,129.518,70.902z"/>
	<circle fill="#8ACBC5" cx="121.525" cy="106.422" r="0.888"/>
	<circle fill="#8ACBC5" cx="121.525" cy="97.542" r="0.888"/>
	<path fill="#8ACBC5" d="M129.518,97.542c0,0.49,0.396,0.888,0.889,0.888c0.168,0,0.318-0.061,0.453-0.143v-1.49
		c-0.135-0.082-0.285-0.143-0.453-0.143C129.914,96.654,129.518,97.052,129.518,97.542z"/>
	<circle fill="#8ACBC5" cx="125.965" cy="101.982" r="0.888"/>
	<circle fill="#8ACBC5" cx="117.086" cy="101.982" r="0.888"/>
	<circle fill="#8ACBC5" cx="125.965" cy="93.102" r="0.888"/>
	<circle fill="#8ACBC5" cx="117.086" cy="93.102" r="0.888"/>
	<circle fill="#8ACBC5" cx="112.645" cy="106.422" r="0.888"/>
	<circle fill="#8ACBC5" cx="121.525" cy="88.661" r="0.888"/>
	<path fill="#8ACBC5" d="M129.518,88.661c0,0.49,0.396,0.888,0.889,0.888c0.168,0,0.318-0.061,0.453-0.143v-1.49
		c-0.135-0.082-0.285-0.143-0.453-0.143C129.914,87.773,129.518,88.171,129.518,88.661z"/>
	<circle fill="#8ACBC5" cx="121.525" cy="124.182" r="0.888"/>
	<circle fill="#8ACBC5" cx="121.525" cy="115.302" r="0.888"/>
	<circle fill="#8ACBC5" cx="125.965" cy="119.741" r="0.888"/>
	<circle fill="#8ACBC5" cx="117.086" cy="119.741" r="0.888"/>
	<circle fill="#8ACBC5" cx="125.965" cy="110.861" r="0.888"/>
	<circle fill="#8ACBC5" cx="117.086" cy="110.861" r="0.888"/>
	<circle fill="#8ACBC5" cx="112.645" cy="124.182" r="0.888"/>
	<circle fill="#8ACBC5" cx="112.645" cy="115.302" r="0.888"/>
	<circle fill="#8ACBC5" cx="125.965" cy="128.621" r="0.888"/>
	<circle fill="#8ACBC5" cx="117.086" cy="128.621" r="0.888"/>
	<circle fill="#8ACBC5" cx="112.645" cy="133.062" r="0.888"/>
	<path fill="#8ACBC5" d="M103.043,9.229c0.137,0.203,0.35,0.342,0.605,0.377C103.451,9.479,103.246,9.354,103.043,9.229z"/>
	<path fill="#8ACBC5" d="M108.205,14.07c0.34,0,0.625-0.198,0.775-0.479c-0.223-0.186-0.439-0.372-0.672-0.56
		c-0.211-0.173-0.438-0.352-0.658-0.527c-0.197,0.163-0.334,0.4-0.334,0.677C107.316,13.672,107.715,14.07,108.205,14.07z"/>
	<circle fill="#8ACBC5" cx="99.326" cy="13.182" r="0.888"/>
	<circle fill="#8ACBC5" cx="103.766" cy="26.502" r="0.888"/>
	<circle fill="#8ACBC5" cx="112.645" cy="26.502" r="0.888"/>
	<circle fill="#8ACBC5" cx="108.205" cy="30.942" r="0.888"/>
	<circle fill="#8ACBC5" cx="99.326" cy="30.942" r="0.888"/>
	<path fill="#8ACBC5" d="M108.205,22.95c0.289,0,0.535-0.147,0.695-0.361c-0.463,0.017-0.91,0.041-1.342,0.074
		C107.721,22.838,107.949,22.95,108.205,22.95z"/>
	<circle fill="#8ACBC5" cx="99.326" cy="22.062" r="0.888"/>
	<circle fill="#8ACBC5" cx="103.766" cy="17.621" r="0.888"/>
	<path fill="#8ACBC5" d="M112.645,18.51c0.449,0,0.807-0.339,0.865-0.771c-0.316-0.31-0.656-0.636-1.01-0.976
		c-0.418,0.071-0.742,0.419-0.742,0.858C111.758,18.112,112.154,18.51,112.645,18.51z"/>
	<circle fill="#8ACBC5" cx="103.766" cy="44.262" r="0.888"/>
	<circle fill="#8ACBC5" cx="112.645" cy="44.262" r="0.888"/>
	<circle fill="#8ACBC5" cx="108.205" cy="48.701" r="0.888"/>
	<circle fill="#8ACBC5" cx="99.326" cy="48.701" r="0.888"/>
	<circle fill="#8ACBC5" cx="108.205" cy="39.821" r="0.888"/>
	<circle fill="#8ACBC5" cx="99.326" cy="39.821" r="0.888"/>
	<circle fill="#8ACBC5" cx="103.766" cy="35.382" r="0.888"/>
	<circle fill="#8ACBC5" cx="112.645" cy="35.382" r="0.888"/>
	<circle fill="#8ACBC5" cx="103.766" cy="62.022" r="0.888"/>
	<circle fill="#8ACBC5" cx="112.645" cy="62.022" r="0.888"/>
	<circle fill="#8ACBC5" cx="108.205" cy="66.462" r="0.888"/>
	<circle fill="#8ACBC5" cx="99.326" cy="66.462" r="0.888"/>
	<circle fill="#8ACBC5" cx="108.205" cy="57.581" r="0.888"/>
	<circle fill="#8ACBC5" cx="99.326" cy="57.581" r="0.888"/>
	<circle fill="#8ACBC5" cx="103.766" cy="53.142" r="0.888"/>
	<circle fill="#8ACBC5" cx="112.645" cy="53.142" r="0.888"/>
	<circle fill="#8ACBC5" cx="103.766" cy="79.781" r="0.888"/>
	<circle fill="#8ACBC5" cx="112.645" cy="79.781" r="0.888"/>
	<circle fill="#8ACBC5" cx="108.205" cy="84.222" r="0.888"/>
	<circle fill="#8ACBC5" cx="99.326" cy="84.222" r="0.888"/>
	<circle fill="#8ACBC5" cx="108.205" cy="75.342" r="0.888"/>
	<circle fill="#8ACBC5" cx="99.326" cy="75.342" r="0.888"/>
	<circle fill="#8ACBC5" cx="103.766" cy="70.902" r="0.888"/>
	<circle fill="#8ACBC5" cx="112.645" cy="70.902" r="0.888"/>
	<circle fill="#8ACBC5" cx="103.766" cy="106.422" r="0.888"/>
	<circle fill="#8ACBC5" cx="103.766" cy="97.542" r="0.888"/>
	<circle fill="#8ACBC5" cx="112.645" cy="97.542" r="0.888"/>
	<circle fill="#8ACBC5" cx="108.205" cy="101.982" r="0.888"/>
	<circle fill="#8ACBC5" cx="99.326" cy="101.982" r="0.888"/>
	<circle fill="#8ACBC5" cx="108.205" cy="93.102" r="0.888"/>
	<circle fill="#8ACBC5" cx="99.326" cy="93.102" r="0.888"/>
	<circle fill="#8ACBC5" cx="94.885" cy="106.422" r="0.888"/>
	<circle fill="#8ACBC5" cx="103.766" cy="88.661" r="0.888"/>
	<circle fill="#8ACBC5" cx="112.645" cy="88.661" r="0.888"/>
	<circle fill="#8ACBC5" cx="103.766" cy="124.182" r="0.888"/>
	<circle fill="#8ACBC5" cx="103.766" cy="115.302" r="0.888"/>
	<circle fill="#8ACBC5" cx="108.205" cy="119.741" r="0.888"/>
	<circle fill="#8ACBC5" cx="99.326" cy="119.741" r="0.888"/>
	<circle fill="#8ACBC5" cx="108.205" cy="110.861" r="0.888"/>
	<circle fill="#8ACBC5" cx="99.326" cy="110.861" r="0.888"/>
	<circle fill="#8ACBC5" cx="94.885" cy="124.182" r="0.888"/>
	<circle fill="#8ACBC5" cx="94.885" cy="115.302" r="0.888"/>
	<circle fill="#8ACBC5" cx="103.766" cy="141.942" r="0.888"/>
	<circle fill="#8ACBC5" cx="103.766" cy="133.062" r="0.888"/>
	<circle fill="#8ACBC5" cx="108.205" cy="137.502" r="0.888"/>
	<circle fill="#8ACBC5" cx="99.326" cy="137.502" r="0.888"/>
	<circle fill="#8ACBC5" cx="108.205" cy="128.621" r="0.888"/>
	<circle fill="#8ACBC5" cx="99.326" cy="128.621" r="0.888"/>
	<circle fill="#8ACBC5" cx="94.885" cy="141.942" r="0.888"/>
	<circle fill="#8ACBC5" cx="94.885" cy="133.062" r="0.888"/>
	<circle fill="#8ACBC5" cx="86.006" cy="8.741" r="0.888"/>
	<circle fill="#8ACBC5" cx="94.885" cy="8.741" r="0.888"/>
	<circle fill="#8ACBC5" cx="90.445" cy="13.182" r="0.888"/>
	<circle fill="#8ACBC5" cx="81.564" cy="13.182" r="0.888"/>
	<path fill="#8ACBC5" d="M90.445,5.19c0.234,0,0.443-0.096,0.604-0.243c-0.453-0.078-0.908-0.153-1.369-0.22
		C89.832,4.998,90.111,5.19,90.445,5.19z"/>
	<path fill="#8ACBC5" d="M81.922,4.114c-0.404-0.005-0.805,0.003-1.207,0.006c-0.014,0.061-0.037,0.118-0.037,0.182
		c0,0.49,0.398,0.889,0.887,0.889c0.49,0,0.889-0.397,0.889-0.889c0-0.061-0.023-0.114-0.035-0.172
		C82.252,4.126,82.088,4.117,81.922,4.114z"/>
	<circle fill="#8ACBC5" cx="86.006" cy="26.502" r="0.888"/>
	<circle fill="#8ACBC5" cx="94.885" cy="26.502" r="0.888"/>
	<circle fill="#8ACBC5" cx="90.445" cy="30.942" r="0.888"/>
	<circle fill="#8ACBC5" cx="81.564" cy="30.942" r="0.888"/>
	<circle fill="#8ACBC5" cx="90.445" cy="22.062" r="0.888"/>
	<circle fill="#8ACBC5" cx="81.564" cy="22.062" r="0.888"/>
	<circle fill="#8ACBC5" cx="86.006" cy="17.621" r="0.888"/>
	<circle fill="#8ACBC5" cx="94.885" cy="17.621" r="0.888"/>
	<circle fill="#8ACBC5" cx="86.006" cy="44.262" r="0.888"/>
	<circle fill="#8ACBC5" cx="94.885" cy="44.262" r="0.888"/>
	<circle fill="#8ACBC5" cx="90.445" cy="48.701" r="0.888"/>
	<circle fill="#8ACBC5" cx="81.564" cy="48.701" r="0.888"/>
	<circle fill="#8ACBC5" cx="90.445" cy="39.821" r="0.888"/>
	<circle fill="#8ACBC5" cx="81.564" cy="39.821" r="0.888"/>
	<circle fill="#8ACBC5" cx="86.006" cy="35.382" r="0.888"/>
	<circle fill="#8ACBC5" cx="94.885" cy="35.382" r="0.888"/>
	<circle fill="#8ACBC5" cx="86.006" cy="62.022" r="0.888"/>
	<circle fill="#8ACBC5" cx="94.885" cy="62.022" r="0.888"/>
	<circle fill="#8ACBC5" cx="90.445" cy="66.462" r="0.888"/>
	<circle fill="#8ACBC5" cx="81.564" cy="66.462" r="0.888"/>
	<circle fill="#8ACBC5" cx="90.445" cy="57.581" r="0.888"/>
	<circle fill="#8ACBC5" cx="81.564" cy="57.581" r="0.888"/>
	<circle fill="#8ACBC5" cx="86.006" cy="53.142" r="0.888"/>
	<circle fill="#8ACBC5" cx="94.885" cy="53.142" r="0.888"/>
	<circle fill="#8ACBC5" cx="86.006" cy="79.781" r="0.888"/>
	<circle fill="#8ACBC5" cx="94.885" cy="79.781" r="0.888"/>
	<circle fill="#8ACBC5" cx="90.445" cy="84.222" r="0.888"/>
	<circle fill="#8ACBC5" cx="81.564" cy="84.222" r="0.888"/>
	<circle fill="#8ACBC5" cx="90.445" cy="75.342" r="0.888"/>
	<circle fill="#8ACBC5" cx="81.564" cy="75.342" r="0.888"/>
	<circle fill="#8ACBC5" cx="86.006" cy="70.902" r="0.888"/>
	<circle fill="#8ACBC5" cx="94.885" cy="70.902" r="0.888"/>
	<circle fill="#8ACBC5" cx="86.006" cy="106.422" r="0.888"/>
	<circle fill="#8ACBC5" cx="86.006" cy="97.542" r="0.888"/>
	<circle fill="#8ACBC5" cx="94.885" cy="97.542" r="0.888"/>
	<circle fill="#8ACBC5" cx="90.445" cy="101.982" r="0.888"/>
	<circle fill="#8ACBC5" cx="81.564" cy="101.982" r="0.888"/>
	<circle fill="#8ACBC5" cx="90.445" cy="93.102" r="0.888"/>
	<circle fill="#8ACBC5" cx="81.564" cy="93.102" r="0.888"/>
	<circle fill="#8ACBC5" cx="77.125" cy="106.422" r="0.888"/>
	<circle fill="#8ACBC5" cx="86.006" cy="88.661" r="0.888"/>
	<circle fill="#8ACBC5" cx="94.885" cy="88.661" r="0.888"/>
	<circle fill="#8ACBC5" cx="86.006" cy="124.182" r="0.888"/>
	<circle fill="#8ACBC5" cx="86.006" cy="115.302" r="0.888"/>
	<circle fill="#8ACBC5" cx="90.445" cy="119.741" r="0.888"/>
	<circle fill="#8ACBC5" cx="81.564" cy="119.741" r="0.888"/>
	<circle fill="#8ACBC5" cx="90.445" cy="110.861" r="0.888"/>
	<circle fill="#8ACBC5" cx="81.564" cy="110.861" r="0.888"/>
	<circle fill="#8ACBC5" cx="77.125" cy="124.182" r="0.888"/>
	<circle fill="#8ACBC5" cx="77.125" cy="115.302" r="0.888"/>
	<circle fill="#8ACBC5" cx="86.006" cy="141.942" r="0.888"/>
	<circle fill="#8ACBC5" cx="86.006" cy="133.062" r="0.888"/>
	<circle fill="#8ACBC5" cx="90.445" cy="137.502" r="0.888"/>
	<circle fill="#8ACBC5" cx="81.564" cy="137.502" r="0.888"/>
	<circle fill="#8ACBC5" cx="90.445" cy="128.621" r="0.888"/>
	<circle fill="#8ACBC5" cx="81.564" cy="128.621" r="0.888"/>
	<circle fill="#8ACBC5" cx="77.125" cy="141.942" r="0.888"/>
	<circle fill="#8ACBC5" cx="77.125" cy="133.062" r="0.888"/>
	<circle fill="#8ACBC5" cx="90.445" cy="146.382" r="0.888"/>
	<circle fill="#8ACBC5" cx="81.564" cy="146.382" r="0.888"/>
	<circle fill="#8ACBC5" cx="68.246" cy="8.741" r="0.888"/>
	<circle fill="#8ACBC5" cx="77.125" cy="8.741" r="0.888"/>
	<circle fill="#8ACBC5" cx="72.686" cy="13.182" r="0.888"/>
	<circle fill="#8ACBC5" cx="63.805" cy="13.182" r="0.888"/>
	<path fill="#8ACBC5" d="M73.486,4.675c-0.484,0.074-0.965,0.152-1.438,0.242c0.162,0.167,0.385,0.273,0.637,0.273
		C73.041,5.19,73.344,4.978,73.486,4.675z"/>
	<path fill="none" stroke="#8ACBC5" stroke-width="0" stroke-linecap="round" stroke-linejoin="round" d="M62.97,4.562
		c0.493-0.279,1.002-0.543,1.526-0.796"/>
	<circle fill="#8ACBC5" cx="68.246" cy="26.502" r="0.888"/>
	<circle fill="#8ACBC5" cx="77.125" cy="26.502" r="0.888"/>
	<path fill="#8ACBC5" d="M72.686,30.054c-0.436,0-0.779,0.319-0.855,0.732c0.48,0.438,0.74,0.673,0.74,0.673
		s-0.266-0.146-0.752-0.413c0.055,0.439,0.412,0.784,0.867,0.784c0.49,0,0.889-0.397,0.889-0.888S73.176,30.054,72.686,30.054z"/>
	<circle fill="#8ACBC5" cx="63.805" cy="30.942" r="0.888"/>
	<circle fill="#8ACBC5" cx="72.686" cy="22.062" r="0.888"/>
	<circle fill="#8ACBC5" cx="63.805" cy="22.062" r="0.888"/>
	<circle fill="#8ACBC5" cx="68.246" cy="17.621" r="0.888"/>
	<circle fill="#8ACBC5" cx="77.125" cy="17.621" r="0.888"/>
	<circle fill="#8ACBC5" cx="68.246" cy="44.262" r="0.888"/>
	<circle fill="#8ACBC5" cx="77.125" cy="44.262" r="0.888"/>
	<circle fill="#8ACBC5" cx="72.686" cy="48.701" r="0.888"/>
	<circle fill="#8ACBC5" cx="63.805" cy="48.701" r="0.888"/>
	<circle fill="#8ACBC5" cx="72.686" cy="39.821" r="0.888"/>
	<circle fill="#8ACBC5" cx="63.805" cy="39.821" r="0.888"/>
	<circle fill="#8ACBC5" cx="68.246" cy="35.382" r="0.888"/>
	<circle fill="#8ACBC5" cx="77.125" cy="35.382" r="0.888"/>
	<circle fill="#8ACBC5" cx="68.246" cy="62.022" r="0.888"/>
	<circle fill="#8ACBC5" cx="77.125" cy="62.022" r="0.888"/>
	<circle fill="#8ACBC5" cx="72.686" cy="66.462" r="0.888"/>
	<circle fill="#8ACBC5" cx="63.805" cy="66.462" r="0.888"/>
	<circle fill="#8ACBC5" cx="72.686" cy="57.581" r="0.888"/>
	<circle fill="#8ACBC5" cx="63.805" cy="57.581" r="0.888"/>
	<circle fill="#8ACBC5" cx="68.246" cy="53.142" r="0.888"/>
	<circle fill="#8ACBC5" cx="77.125" cy="53.142" r="0.888"/>
	<circle fill="#8ACBC5" cx="68.246" cy="79.781" r="0.888"/>
	<circle fill="#8ACBC5" cx="77.125" cy="79.781" r="0.888"/>
	<circle fill="#8ACBC5" cx="72.686" cy="84.222" r="0.888"/>
	<circle fill="#8ACBC5" cx="63.805" cy="84.222" r="0.888"/>
	<circle fill="#8ACBC5" cx="72.686" cy="75.342" r="0.888"/>
	<circle fill="#8ACBC5" cx="63.805" cy="75.342" r="0.888"/>
	<circle fill="#8ACBC5" cx="68.246" cy="70.902" r="0.888"/>
	<circle fill="#8ACBC5" cx="77.125" cy="70.902" r="0.888"/>
	<circle fill="#8ACBC5" cx="68.246" cy="106.422" r="0.888"/>
	<circle fill="#8ACBC5" cx="68.246" cy="97.542" r="0.888"/>
	<circle fill="#8ACBC5" cx="77.125" cy="97.542" r="0.888"/>
	<circle fill="#8ACBC5" cx="72.686" cy="101.982" r="0.888"/>
	<circle fill="#8ACBC5" cx="63.805" cy="101.982" r="0.888"/>
	<circle fill="#8ACBC5" cx="72.686" cy="93.102" r="0.888"/>
	<circle fill="#8ACBC5" cx="63.805" cy="93.102" r="0.888"/>
	<circle fill="#8ACBC5" cx="59.365" cy="106.422" r="0.888"/>
	<circle fill="#8ACBC5" cx="68.246" cy="88.661" r="0.888"/>
	<circle fill="#8ACBC5" cx="77.125" cy="88.661" r="0.888"/>
	<circle fill="#8ACBC5" cx="68.246" cy="124.182" r="0.888"/>
	<circle fill="#8ACBC5" cx="68.246" cy="115.302" r="0.888"/>
	<circle fill="#8ACBC5" cx="72.686" cy="119.741" r="0.888"/>
	<circle fill="#8ACBC5" cx="63.805" cy="119.741" r="0.888"/>
	<circle fill="#8ACBC5" cx="72.686" cy="110.861" r="0.888"/>
	<circle fill="#8ACBC5" cx="63.805" cy="110.861" r="0.888"/>
	<circle fill="#8ACBC5" cx="59.365" cy="124.182" r="0.888"/>
	<circle fill="#8ACBC5" cx="59.365" cy="115.302" r="0.888"/>
	<path fill="#8ACBC5" d="M68.479,141.1c0.17,0.134,0.342,0.267,0.521,0.401C68.885,141.305,68.703,141.163,68.479,141.1z"/>
	<path fill="#8ACBC5" d="M68.02,142.784c-0.217-0.222-0.424-0.44-0.625-0.657C67.465,142.45,67.701,142.699,68.02,142.784z"/>
	<circle fill="#8ACBC5" cx="68.246" cy="133.062" r="0.888"/>
	<circle fill="#8ACBC5" cx="72.686" cy="137.502" r="0.888"/>
	<path fill="#8ACBC5" d="M63.805,136.614c-0.092,0-0.176,0.025-0.26,0.052c0.3,0.305,0.662,0.673,1.092,1.11
		c0.029-0.088,0.056-0.178,0.056-0.274C64.692,137.012,64.296,136.614,63.805,136.614z"/>
	<circle fill="#8ACBC5" cx="72.686" cy="128.621" r="0.888"/>
	<circle fill="#8ACBC5" cx="63.805" cy="128.621" r="0.888"/>
	<circle fill="#8ACBC5" cx="59.365" cy="141.942" r="0.888"/>
	<circle fill="#8ACBC5" cx="59.365" cy="133.062" r="0.888"/>
	<path fill="#8ACBC5" d="M71.797,146.382c0,0.49,0.398,0.889,0.889,0.889c0.199,0,0.375-0.079,0.523-0.19
		c-0.469-0.315-0.924-0.634-1.359-0.958C71.824,146.205,71.797,146.29,71.797,146.382z"/>
	<circle fill="#8ACBC5" cx="50.485" cy="26.502" r="0.888"/>
	<path fill="#8ACBC5" d="M59.371,26.287c-0.26-0.058-0.528-0.116-0.793-0.175c-0.06,0.119-0.101,0.248-0.101,0.39
		c-0.001,0.49,0.396,0.888,0.888,0.888c0.489,0,0.888-0.396,0.888-0.888c0-0.011-0.006-0.02-0.006-0.03
		C59.952,26.41,59.673,26.351,59.371,26.287z"/>
	<circle fill="#8ACBC5" cx="54.925" cy="30.942" r="0.888"/>
	<circle fill="#8ACBC5" cx="46.045" cy="30.942" r="0.888"/>
	<circle fill="#8ACBC5" cx="59.365" cy="17.621" r="0.888"/>
	<circle fill="#8ACBC5" cx="50.485" cy="44.262" r="0.888"/>
	<circle fill="#8ACBC5" cx="59.365" cy="44.262" r="0.888"/>
	<circle fill="#8ACBC5" cx="54.925" cy="48.701" r="0.888"/>
	<circle fill="#8ACBC5" cx="46.045" cy="48.701" r="0.888"/>
	<circle fill="#8ACBC5" cx="54.925" cy="39.821" r="0.888"/>
	<circle fill="#8ACBC5" cx="46.045" cy="39.821" r="0.888"/>
	<circle fill="#8ACBC5" cx="50.485" cy="35.382" r="0.888"/>
	<circle fill="#8ACBC5" cx="59.365" cy="35.382" r="0.888"/>
	<circle fill="#8ACBC5" cx="50.485" cy="62.022" r="0.888"/>
	<circle fill="#8ACBC5" cx="59.365" cy="62.022" r="0.888"/>
	<circle fill="#8ACBC5" cx="54.925" cy="66.462" r="0.888"/>
	<circle fill="#8ACBC5" cx="46.045" cy="66.462" r="0.888"/>
	<circle fill="#8ACBC5" cx="54.925" cy="57.581" r="0.888"/>
	<circle fill="#8ACBC5" cx="46.045" cy="57.581" r="0.888"/>
	<circle fill="#8ACBC5" cx="50.485" cy="53.142" r="0.888"/>
	<circle fill="#8ACBC5" cx="59.365" cy="53.142" r="0.888"/>
	<circle fill="#8ACBC5" cx="50.485" cy="79.781" r="0.888"/>
	<circle fill="#8ACBC5" cx="59.365" cy="79.781" r="0.888"/>
	<circle fill="#8ACBC5" cx="54.925" cy="84.222" r="0.888"/>
	<circle fill="#8ACBC5" cx="46.045" cy="84.222" r="0.888"/>
	<circle fill="#8ACBC5" cx="54.925" cy="75.342" r="0.888"/>
	<circle fill="#8ACBC5" cx="46.045" cy="75.342" r="0.888"/>
	<circle fill="#8ACBC5" cx="50.485" cy="70.902" r="0.888"/>
	<circle fill="#8ACBC5" cx="59.365" cy="70.902" r="0.888"/>
	<circle fill="#8ACBC5" cx="50.485" cy="106.422" r="0.888"/>
	<circle fill="#8ACBC5" cx="50.485" cy="97.542" r="0.888"/>
	<circle fill="#8ACBC5" cx="59.365" cy="97.542" r="0.888"/>
	<circle fill="#8ACBC5" cx="54.925" cy="101.982" r="0.888"/>
	<circle fill="#8ACBC5" cx="46.045" cy="101.982" r="0.888"/>
	<circle fill="#8ACBC5" cx="54.925" cy="93.102" r="0.888"/>
	<circle fill="#8ACBC5" cx="46.045" cy="93.102" r="0.888"/>
	<circle fill="#8ACBC5" cx="41.604" cy="106.422" r="0.888"/>
	<circle fill="#8ACBC5" cx="50.485" cy="88.661" r="0.888"/>
	<circle fill="#8ACBC5" cx="59.365" cy="88.661" r="0.888"/>
	<circle fill="#8ACBC5" cx="50.485" cy="124.182" r="0.888"/>
	<circle fill="#8ACBC5" cx="50.485" cy="115.302" r="0.888"/>
	<circle fill="#8ACBC5" cx="54.925" cy="119.741" r="0.888"/>
	<circle fill="#8ACBC5" cx="46.045" cy="119.741" r="0.888"/>
	<circle fill="#8ACBC5" cx="54.925" cy="110.861" r="0.888"/>
	<circle fill="#8ACBC5" cx="46.045" cy="110.861" r="0.888"/>
	<circle fill="#8ACBC5" cx="41.604" cy="124.182" r="0.888"/>
	<circle fill="#8ACBC5" cx="41.604" cy="115.302" r="0.888"/>
	<circle fill="#8ACBC5" cx="50.485" cy="141.942" r="0.888"/>
	<circle fill="#8ACBC5" cx="50.485" cy="133.062" r="0.888"/>
	<circle fill="#8ACBC5" cx="54.925" cy="137.502" r="0.888"/>
	<circle fill="#8ACBC5" cx="46.045" cy="137.502" r="0.888"/>
	<circle fill="#8ACBC5" cx="54.925" cy="128.621" r="0.888"/>
	<circle fill="#8ACBC5" cx="46.045" cy="128.621" r="0.888"/>
	<circle fill="#8ACBC5" cx="41.604" cy="133.062" r="0.888"/>
	<path fill="#8ACBC5" d="M42.296,27.035c-0.032,0.009-0.064,0.017-0.096,0.026c-0.277,0.088-0.547,0.188-0.82,0.282
		c0.073,0.021,0.145,0.045,0.224,0.045C41.891,27.39,42.134,27.246,42.296,27.035z"/>
	<circle fill="#8ACBC5" cx="37.165" cy="30.942" r="0.888"/>
	<path fill="none" stroke="#8ACBC5" stroke-width="0" stroke-linecap="round" stroke-linejoin="round" d="M28.143,31.644
		c0.016,0,0.032-0.002,0.047-0.002c0.201-0.234,0.428-0.455,0.64-0.685"/>
	<circle fill="#8ACBC5" cx="32.725" cy="44.262" r="0.888"/>
	<circle fill="#8ACBC5" cx="41.604" cy="44.262" r="0.888"/>
	<circle fill="#8ACBC5" cx="37.165" cy="48.701" r="0.888"/>
	<circle fill="#8ACBC5" cx="28.285" cy="48.701" r="0.888"/>
	<circle fill="#8ACBC5" cx="37.165" cy="39.821" r="0.888"/>
	<circle fill="#8ACBC5" cx="28.285" cy="39.821" r="0.888"/>
	<circle fill="#8ACBC5" cx="32.725" cy="35.382" r="0.888"/>
	<circle fill="#8ACBC5" cx="41.604" cy="35.382" r="0.888"/>
	<circle fill="#8ACBC5" cx="32.725" cy="62.022" r="0.888"/>
	<circle fill="#8ACBC5" cx="41.604" cy="62.022" r="0.888"/>
	<circle fill="#8ACBC5" cx="37.165" cy="66.462" r="0.888"/>
	<circle fill="#8ACBC5" cx="28.285" cy="66.462" r="0.888"/>
	<circle fill="#8ACBC5" cx="37.165" cy="57.581" r="0.888"/>
	<circle fill="#8ACBC5" cx="28.285" cy="57.581" r="0.888"/>
	<circle fill="#8ACBC5" cx="32.725" cy="53.142" r="0.888"/>
	<circle fill="#8ACBC5" cx="41.604" cy="53.142" r="0.888"/>
	<circle fill="#8ACBC5" cx="32.725" cy="79.781" r="0.888"/>
	<circle fill="#8ACBC5" cx="41.604" cy="79.781" r="0.888"/>
	<circle fill="#8ACBC5" cx="37.165" cy="84.222" r="0.888"/>
	<circle fill="#8ACBC5" cx="28.285" cy="84.222" r="0.888"/>
	<circle fill="#8ACBC5" cx="37.165" cy="75.342" r="0.888"/>
	<circle fill="#8ACBC5" cx="28.285" cy="75.342" r="0.888"/>
	<circle fill="#8ACBC5" cx="32.725" cy="70.902" r="0.888"/>
	<circle fill="#8ACBC5" cx="41.604" cy="70.902" r="0.888"/>
	<circle fill="#8ACBC5" cx="32.725" cy="106.422" r="0.888"/>
	<circle fill="#8ACBC5" cx="32.725" cy="97.542" r="0.888"/>
	<circle fill="#8ACBC5" cx="41.604" cy="97.542" r="0.888"/>
	<circle fill="#8ACBC5" cx="37.165" cy="101.982" r="0.888"/>
	<circle fill="#8ACBC5" cx="28.285" cy="101.982" r="0.888"/>
	<circle fill="#8ACBC5" cx="37.165" cy="93.102" r="0.888"/>
	<circle fill="#8ACBC5" cx="28.285" cy="93.102" r="0.888"/>
	<circle fill="#8ACBC5" cx="23.845" cy="106.422" r="0.888"/>
	<circle fill="#8ACBC5" cx="32.725" cy="88.661" r="0.888"/>
	<circle fill="#8ACBC5" cx="41.604" cy="88.661" r="0.888"/>
	<circle fill="#8ACBC5" cx="32.725" cy="124.182" r="0.888"/>
	<circle fill="#8ACBC5" cx="32.725" cy="115.302" r="0.888"/>
	<circle fill="#8ACBC5" cx="37.165" cy="119.741" r="0.888"/>
	<circle fill="#8ACBC5" cx="28.285" cy="119.741" r="0.888"/>
	<circle fill="#8ACBC5" cx="37.165" cy="110.861" r="0.888"/>
	<circle fill="#8ACBC5" cx="28.285" cy="110.861" r="0.888"/>
	<path fill="#8ACBC5" d="M23.933,123.312c-0.03-0.004-0.057-0.019-0.088-0.019c-0.491,0-0.888,0.398-0.888,0.888
		c0,0.095,0.025,0.18,0.053,0.265c0.042,0.084,0.09,0.17,0.133,0.255c0.162,0.219,0.409,0.37,0.702,0.37
		c0.49,0,0.888-0.397,0.888-0.89c0-0.066-0.023-0.127-0.038-0.189C24.438,123.771,24.185,123.547,23.933,123.312z"/>
	<circle fill="#8ACBC5" cx="23.845" cy="115.302" r="0.888"/>
	<path fill="none" stroke="#8ACBC5" stroke-width="0" stroke-linecap="round" stroke-linejoin="round" d="M33.284,142.143
		c-0.139-0.098-0.271-0.199-0.407-0.299"/>
	<circle fill="#8ACBC5" cx="32.725" cy="133.062" r="0.888"/>
	<circle fill="#8ACBC5" cx="37.165" cy="137.502" r="0.888"/>
	<path fill="none" stroke="#8ACBC5" stroke-width="0" stroke-linecap="round" stroke-linejoin="round" d="M27.958,137.316
		c-0.113-0.128-0.232-0.254-0.342-0.383"/>
	<circle fill="#8ACBC5" cx="37.165" cy="128.621" r="0.888"/>
	<circle fill="#8ACBC5" cx="28.285" cy="128.621" r="0.888"/>
	<path fill="none" stroke="#8ACBC5" stroke-width="0" stroke-linecap="round" stroke-linejoin="round" d="M24.731,133.065
		c-0.175-0.269-0.351-0.536-0.517-0.806"/>
	<circle fill="#8ACBC5" cx="14.965" cy="44.262" r="0.888"/>
	<circle fill="#8ACBC5" cx="19.405" cy="48.701" r="0.888"/>
	<circle fill="#8ACBC5" cx="10.524" cy="48.701" r="0.888"/>
	<circle fill="#8ACBC5" cx="19.405" cy="39.821" r="0.888"/>
	<circle fill="#8ACBC5" cx="23.845" cy="35.382" r="0.888"/>
	<circle fill="#8ACBC5" cx="14.965" cy="62.022" r="0.888"/>
	<circle fill="#8ACBC5" cx="23.845" cy="62.022" r="0.888"/>
	<circle fill="#8ACBC5" cx="19.405" cy="66.462" r="0.888"/>
	<circle fill="#8ACBC5" cx="10.524" cy="66.462" r="0.888"/>
	<circle fill="#8ACBC5" cx="19.405" cy="57.581" r="0.888"/>
	<circle fill="#8ACBC5" cx="10.524" cy="57.581" r="0.888"/>
	<circle fill="#8ACBC5" cx="14.965" cy="53.142" r="0.888"/>
	<circle fill="#8ACBC5" cx="23.845" cy="53.142" r="0.888"/>
	<circle fill="#8ACBC5" cx="14.965" cy="79.781" r="0.888"/>
	<circle fill="#8ACBC5" cx="23.845" cy="79.781" r="0.888"/>
	<circle fill="#8ACBC5" cx="19.405" cy="84.222" r="0.888"/>
	<circle fill="#8ACBC5" cx="10.524" cy="84.222" r="0.888"/>
	<circle fill="#8ACBC5" cx="19.405" cy="75.342" r="0.888"/>
	<circle fill="#8ACBC5" cx="10.524" cy="75.342" r="0.888"/>
	<circle fill="#8ACBC5" cx="14.965" cy="70.902" r="0.888"/>
	<circle fill="#8ACBC5" cx="23.845" cy="70.902" r="0.888"/>
	<circle fill="#8ACBC5" cx="14.965" cy="97.542" r="0.888"/>
	<circle fill="#8ACBC5" cx="23.845" cy="97.542" r="0.888"/>
	<path fill="#8ACBC5" d="M19.491,101.111c-0.012,0.574-0.006,1.153,0.01,1.738c0.443-0.05,0.792-0.411,0.792-0.867
		C20.293,101.523,19.938,101.156,19.491,101.111z"/>
	<path fill="#8ACBC5" d="M10.523,92.213c-0.047,0-0.087,0.021-0.131,0.026c0.243,0.516,0.486,1.02,0.729,1.511
		c0.177-0.161,0.291-0.389,0.291-0.649C11.412,92.612,11.015,92.213,10.523,92.213z"/>
	<circle fill="#8ACBC5" cx="14.965" cy="88.661" r="0.888"/>
	<circle fill="#8ACBC5" cx="23.845" cy="88.661" r="0.888"/>
	<circle fill="#8ACBC5" cx="6.085" cy="62.022" r="0.888"/>
	<path fill="#8ACBC5" d="M6.444,52.332c-0.224,0.537-0.42,1.09-0.61,1.646c0.081,0.023,0.162,0.051,0.251,0.051
		c0.49,0.001,0.888-0.397,0.888-0.889C6.973,52.78,6.755,52.471,6.444,52.332z"/>
	<path fill="#8ACBC5" d="M6.085,78.894c-0.14,0-0.269,0.038-0.385,0.096c0.13,0.567,0.27,1.124,0.413,1.675
		c0.476-0.015,0.859-0.402,0.859-0.882C6.973,79.292,6.575,78.894,6.085,78.894z"/>
	<path fill="none" stroke="#8ACBC5" stroke-width="0" stroke-linecap="round" stroke-linejoin="round" d="M1.145,74.628
		c0.101,0.527,0.205,1.049,0.318,1.565"/>
	<circle fill="#8ACBC5" cx="6.085" cy="70.902" r="0.888"/>
</g>
</svg>
