<?xml version="1.0" encoding="utf-8"?>
<!-- Generator: Adobe Illustrator 18.1.1, SVG Export Plug-In . SVG Version: 6.00 Build 0)  -->
<svg version="1.1" id="Calque_1" xmlns="http://www.w3.org/2000/svg" xmlns:xlink="http://www.w3.org/1999/xlink" x="0px" y="0px"
	 viewBox="0 0 630 900" enable-background="new 0 0 630 900" xml:space="preserve">
<g>
	<g>
		<g>
			<circle fill="#CE6BA7" cx="135" cy="405" r="45"/>
			<path fill="#3D5080" d="M135,371.2c-18.6,0-33.7,15.1-33.7,33.8s15.1,33.8,33.7,33.8c18.6,0,33.8-15.1,33.8-33.8
				S153.6,371.2,135,371.2z M121.9,379.2c-0.6,0.8-1.2,1.7-1.7,2.7c-0.8,1.5-1.6,3.1-2.2,4.7c-1.4-0.4-2.8-0.8-4.2-1.3
				C116.1,382.8,118.9,380.7,121.9,379.2z M110.3,389.9c2,0.7,4,1.4,6,2c-0.8,3.3-1.3,6.8-1.5,10.4h-8.6
				C106.6,397.7,108.1,393.6,110.3,389.9z M110.3,420.1c-2.2-3.7-3.7-7.9-4.1-12.4h8.6c0.2,3.6,0.7,7.1,1.5,10.4
				C114.3,418.7,112.3,419.4,110.3,420.1z M113.8,424.7c1.4-0.5,2.8-0.9,4.2-1.3c0.7,1.7,1.4,3.3,2.2,4.7c0.5,1,1.1,1.9,1.7,2.7
				C118.9,429.3,116.1,427.2,113.8,424.7z M132.2,432.5c-3.5-1.3-6.7-5.1-8.8-10.4c2.9-0.5,5.9-0.9,8.8-1V432.5z M132.2,415.6
				c-3.5,0.1-7.1,0.6-10.6,1.2c-0.7-2.8-1.2-5.9-1.4-9.1h11.9V415.6z M132.2,402.2h-11.9c0.2-3.2,0.6-6.3,1.4-9.1
				c3.5,0.7,7,1.1,10.6,1.2V402.2z M132.2,388.8c-3-0.1-5.9-0.5-8.8-1c2.2-5.2,5.3-9,8.8-10.4V388.8z M159.7,389.9
				c2.2,3.7,3.7,7.9,4.1,12.4h-8.6c-0.2-3.6-0.7-7.1-1.5-10.4C155.7,391.3,157.7,390.6,159.7,389.9z M156.2,385.3
				c-1.4,0.5-2.8,0.9-4.2,1.3c-0.7-1.7-1.4-3.3-2.2-4.7c-0.5-1-1.1-1.9-1.7-2.7C151.1,380.7,153.9,382.8,156.2,385.3z M137.8,377.5
				c3.5,1.3,6.7,5.1,8.8,10.4c-2.9,0.5-5.9,0.9-8.8,1V377.5z M137.8,394.4c3.5-0.1,7.1-0.6,10.6-1.2c0.7,2.8,1.2,5.9,1.4,9.1h-11.9
				V394.4z M137.8,407.8h11.9c-0.2,3.2-0.7,6.3-1.4,9.1c-3.5-0.7-7-1.1-10.6-1.2V407.8z M137.8,432.5v-11.4c3,0.1,5.9,0.5,8.8,1
				C144.4,427.4,141.3,431.2,137.8,432.5z M148.1,430.8c0.6-0.8,1.2-1.7,1.7-2.7c0.8-1.5,1.6-3.1,2.2-4.7c1.4,0.4,2.8,0.8,4.2,1.3
				C153.9,427.2,151.1,429.3,148.1,430.8z M159.7,420.1c-2-0.7-4-1.4-6-2c0.8-3.3,1.3-6.8,1.5-10.4h8.6
				C163.4,412.3,161.9,416.4,159.7,420.1z"/>
		</g>
		<g>
			<circle fill="#335899" cx="135" cy="135" r="45"/>
			<g>
				<path fill="#8CCCC6" d="M134,112.2c0-5.2,4.2-9.3,9.2-9.3h0.1c5.1,0,9.2,4.2,9.2,9.3c0,0.9,0.8,1.7,1.7,1.7
					c0.9,0,1.7-0.7,1.7-1.7c0-7.1-5.7-12.8-12.6-12.8h-0.1c-6.9,0-12.6,5.6-12.6,12.7v1.9h3.4V112.2L134,112.2z"/>
				<path fill="#8CCCC6" d="M154.1,117.6c-0.9,0-1.7,0.8-1.7,1.7v3.9c0,0.9,0.8,1.7,1.7,1.7c0.9,0,1.7-0.8,1.7-1.7v-3.9
					C155.9,118.3,155.1,117.6,154.1,117.6z"/>
				<path fill="#8CCCC6" d="M163.5,118.2l-2.7-2.7c-0.7-0.7-1.7-0.7-2.4,0c-0.7,0.7-0.7,1.7,0,2.4l2.7,2.7c0.3,0.3,0.8,0.5,1.2,0.5
					s0.9-0.2,1.2-0.5C164.1,119.9,164.1,118.8,163.5,118.2z"/>
				<path fill="#8CCCC6" d="M147.7,115.4l-2.7,2.7c-0.7,0.7-0.7,1.7,0,2.4c0.3,0.3,0.8,0.5,1.2,0.5c0.4,0,0.9-0.2,1.2-0.5l2.7-2.7
					c0.7-0.7,0.7-1.7,0-2.4C149.4,114.8,148.4,114.8,147.7,115.4z"/>
				<path fill="#8CCCC6" d="M141.3,125.9c-1.1-0.5-2.1-0.9-3.5-1.3v-4.8c0-1.3-0.9-2.3-2.1-2.3h-0.1h-7.1c-1.3,0-2.3,1-2.3,2.3v4.8
					c-1.1,0.3-2.3,0.8-3.4,1.3c-7.3,3.5-12.3,10.9-12.3,19.5c0,11.9,9.7,21.6,21.6,21.6c11.9,0,21.6-9.7,21.6-21.6
					C153.7,136.8,148.6,129.3,141.3,125.9z M132.2,159.6c-7.8,0-14.2-6.4-14.2-14.2c0-0.9,0.8-1.7,1.7-1.7s1.7,0.8,1.7,1.7
					c0,6,4.8,10.8,10.8,10.8c0.9,0,1.7,0.8,1.7,1.7C133.9,158.9,133.1,159.6,132.2,159.6z"/>
			</g>
		</g>
		<g>
			<circle fill="#EB5B23" cx="135" cy="585" r="45"/>
			<g>
				<path fill="#F6F6F6" d="M153.8,558.5c-0.9,0-1.7,0.2-2.5,0.5c-1.5-3-4.6-5.1-8.3-5.1c-2.4,0-4.5,0.9-6.1,2.3
					c-2.7-2.3-6.4-3.8-10.4-3.8c-8.4,0-15.3,6.4-15.5,14.3c-3.2,1.5-5.4,4.7-5.4,8.4c0,4.3,2.9,7.9,6.9,8.9l42.7,0.3
					c4.9-0.2,8.9-4.2,8.9-9.2c0-3.6-2-6.7-5-8.2c0.3-0.7,0.5-1.6,0.5-2.4C159.8,561.2,157.1,558.5,153.8,558.5z"/>
				<path fill="#F6F6F6" d="M120.4,599.5c1.1-2.1,1.2-11.5,1.2-11.5s-7.6,5.6-8.7,7.6c-1.1,2.1-0.3,4.6,1.8,5.7
					C116.8,602.4,119.3,601.6,120.4,599.5z"/>
				<path fill="#F6F6F6" d="M136.1,599.5c1.1-2.1,1.2-11.5,1.2-11.5s-7.6,5.6-8.7,7.6c-1.1,2.1-0.3,4.6,1.8,5.7
					C132.5,602.4,135,601.6,136.1,599.5z"/>
				<path fill="#F6F6F6" d="M147.3,601.3c2.1,1.1,4.6,0.3,5.7-1.8c1.1-2.1,1.2-11.5,1.2-11.5s-7.6,5.6-8.7,7.6
					C144.4,597.7,145.2,600.3,147.3,601.3z"/>
				<path fill="#F6F6F6" d="M118.3,617c2.1,1.1,4.6,0.3,5.7-1.8c1.1-2.1,1.2-11.5,1.2-11.5s-7.6,5.6-8.7,7.6
					C115.4,613.4,116.3,616,118.3,617z"/>
				<path fill="#F6F6F6" d="M134,617c2.1,1.1,4.6,0.3,5.7-1.8c1.1-2.1,1.2-11.5,1.2-11.5s-7.6,5.6-8.7,7.6
					C131.1,613.4,131.9,616,134,617z"/>
			</g>
		</g>
		<g>
			<circle fill="#DC2787" cx="135" cy="495" r="45"/>
			<g>
				<path fill="#95C569" d="M153.5,474.5l-8.1,12.3l-8.4-12.3H153.5z M144.1,489.6H126l9,34.4L144.1,489.6z M126.6,487.6h16.9
					l-8.4-12.3L126.6,487.6z M124.7,486.8l8.4-12.3h-16.6L124.7,486.8z M133.1,524.6l-9.2-35h-19.8L133.1,524.6z M104.1,487.6h18.7
					l-8.1-12.3L104.1,487.6z M155.4,475.3l-8.1,12.3h18.7L155.4,475.3z M146.1,489.6l-9.2,35l29-35H146.1z"/>
			</g>
		</g>
		<g>
			<g>
				<circle fill="#D6202A" cx="135" cy="765" r="45"/>
			</g>
			<g>
				<polygon fill="#FFFFFF" points="165.9,755.4 144.6,755.4 144.6,734.1 125.4,734.1 125.4,755.4 104.1,755.4 104.1,774.6 
					125.4,774.6 125.4,795.9 144.6,795.9 144.6,774.6 165.9,774.6 				"/>
			</g>
		</g>
		<g>
			<circle fill="#8A6AAC" cx="135" cy="315" r="45"/>
			<g>
				<g>
					<g>
						<path fill="#D7E1F2" d="M139.6,323.9c-0.3-0.3-0.6-0.5-0.9-0.7c-0.7-0.4-1.5-0.6-2.3-0.8v6c1.3-0.1,2.7-0.6,3.4-1.8l0,0
							c0.3-0.6,0.4-1.3,0.3-1.9C140,324.4,139.8,324.1,139.6,323.9z"/>
					</g>
					<g>
						<path fill="#D7E1F2" d="M139.8,326.7C139.8,326.7,139.8,326.7,139.8,326.7L139.8,326.7C139.8,326.7,139.8,326.7,139.8,326.7z"
							/>
					</g>
					<g>
						<path fill="#D7E1F2" d="M130.5,314.2c-0.2,0.3-0.4,0.7-0.4,1.1c0,0.4,0,0.8,0.1,1.2c0.1,0.3,0.4,0.6,0.7,0.8
							c0.3,0.2,0.7,0.4,1.1,0.6c0.3,0.1,0.7,0.2,1.1,0.4v-5.5C132.1,312.9,131.1,313.4,130.5,314.2z"/>
					</g>
					<g>
						<path fill="#D7E1F2" d="M139.8,326.6C139.8,326.6,139.8,326.7,139.8,326.6L139.8,326.6C139.8,326.7,139.8,326.6,139.8,326.6z"
							/>
					</g>
					<g>
						<path fill="#D7E1F2" d="M139.8,326.6C139.8,326.6,139.9,326.6,139.8,326.6L139.8,326.6z"/>
					</g>
					<g>
						<path fill="#D7E1F2" d="M138.5,293.7c5.1-4.3,8.6-14,6.5-14.5c-2.8-0.6-8.9,1.9-11.8,2.3c-4.2,0.5-8.7-4.5-11.3-1.7
							c-2.1,2.3,1.5,10.6,7.1,14.2c-16.6,8.2-40,49.2,0.8,52.2C186.2,350.4,157.9,301.7,138.5,293.7z M143.4,326.1
							c-0.2,1.6-1,3-2.3,4c-1.3,1-3,1.5-4.7,1.7v1.8c0,0.5-0.2,0.9-0.6,1.2c-0.5,0.4-1.2,0.5-1.8,0.3c-0.6-0.3-1-0.9-1-1.5v-1.9
							c-0.3-0.1-0.6-0.1-0.9-0.2c-1.6-0.4-3-1.3-4.1-2.5c-0.5-0.6-1-1.3-1.3-2.1c-0.1-0.2-0.1-0.4-0.2-0.6c-0.1-0.2-0.1-0.4-0.1-0.6
							c0-0.3,0-0.6,0.2-0.9c0.3-0.6,1-0.9,1.6-0.9c0.7,0.1,1.2,0.5,1.4,1.1c0.1,0.2,0.1,0.4,0.2,0.6c0.1,0.2,0.2,0.4,0.3,0.5
							c0.2,0.3,0.4,0.7,0.7,0.9c0.6,0.6,1.3,0.9,2.1,1.2v-6.6c-1.5-0.4-3.1-0.9-4.4-1.9c-0.6-0.5-1.1-1.1-1.5-1.8
							c-0.4-0.7-0.5-1.6-0.5-2.4c0-0.8,0.2-1.7,0.5-2.4c0.3-0.7,0.8-1.3,1.4-1.9c1.2-1.1,2.8-1.8,4.5-2v-0.1v-1.7
							c0-0.5,0.2-0.9,0.6-1.2c0.5-0.4,1.2-0.5,1.8-0.3c0.6,0.3,1,0.9,1,1.5v1.7v0.1c0.2,0,0.4,0.1,0.6,0.1c1.6,0.3,3.2,1,4.3,2.1
							c0.6,0.5,1,1.2,1.3,1.9c0.1,0.2,0.2,0.4,0.2,0.6c0.1,0.2,0.1,0.4,0.2,0.6c0,0.3,0,0.7-0.1,0.9c-0.3,0.6-0.9,1-1.6,1
							c-0.7,0-1.2-0.5-1.5-1.1c-0.1-0.2-0.1-0.4-0.2-0.6c-0.1-0.2-0.2-0.4-0.3-0.5c-0.2-0.3-0.5-0.6-0.8-0.8
							c-0.7-0.5-1.5-0.7-2.3-0.9v6.3c1,0.2,1.9,0.5,2.8,0.8c1.4,0.5,2.7,1.4,3.5,2.7c-0.1-0.2-0.2-0.4,0,0c0.2,0.4,0.1,0.2,0,0
							C143.3,323.6,143.5,324.9,143.4,326.1z"/>
					</g>
					<g>
						<path fill="#D7E1F2" d="M139.8,326.7C139.8,326.7,139.7,326.7,139.8,326.7C139.7,326.7,139.8,326.7,139.8,326.7z"/>
					</g>
				</g>
			</g>
		</g>
		<g>
			<circle fill="#B12A2F" cx="135" cy="855" r="45"/>
			<g>
				<polygon fill="#F2B8C1" points="157.5,851.6 138.1,851.6 151.9,823.5 127.8,823.5 112.5,862.9 126.2,862.9 118.1,891 				"/>
			</g>
		</g>
		<g>
			<circle fill="#3D5080" cx="135" cy="45" r="45"/>
			<g>
				<g>
					<path fill="#FFD134" d="M150.7,46c-1.8-1.4-4.6-2.6-8.3-3.5l-2.9-0.6V29.7c0.1,0.1,0.2,0.1,0.3,0.1c0.1,0,0.1,0,0.1,0.1
						c2.4,1.2,3.7,3.2,3.9,6h9.7c-0.2-5-2.1-8.9-5.7-11.6c-2.3-1.8-5.1-2.9-8.3-3.5v-6.8h-8.9v6.5c-4.2,0.5-7.5,1.8-9.9,4
						c-3.2,2.9-4.8,6.5-4.8,10.8c0,4.7,1.6,8.2,4.9,10.4c1.8,1.3,5,2.4,9.8,3.5v13.1c-1.8-0.5-3.1-1.3-4-2.4c-1-1.2-1.6-2.8-1.9-4.8
						h-9.6c0,4.9,1.8,8.8,5.4,11.7c2.6,2,6,3.3,10.1,3.9v5h8.9V71c4.4-0.6,7.8-2,10.4-4.1c3.4-2.9,5-6.6,5-11.1
						C154.9,51.5,153.5,48.3,150.7,46z M130.5,39.7c-1.4-0.4-2.4-0.8-3-1.1c-1.6-0.8-2.4-2.1-2.4-3.9c0-1.9,0.8-3.4,2.4-4.4
						c0.8-0.5,1.8-0.9,3-1.3V39.7z M141,62.2c-0.4,0.2-0.9,0.3-1.5,0.4V51.4c1.6,0.5,2.8,1,3.6,1.5c1.4,0.9,2.1,2.2,2.1,3.8
						C145.2,59.4,143.8,61.2,141,62.2z"/>
				</g>
			</g>
		</g>
		<g>
			<circle fill="#098CCC" cx="135" cy="225" r="45"/>
			<g>
				<g>
					<g>
						<path fill="#DC2787" d="M163.9,203.3c-2.7,0-4.9,2.4-4.9,5.3c0,1.9,0.9,3.6,2.3,4.5c-2.9,4.4-7.1,9.5-11.3,11
							c-5.6,1.9-10.8-10-13.4-17.2c1.9-0.7,3.3-2.7,3.3-5c0-2.9-2.2-5.3-4.9-5.3c-2.7,0-4.9,2.4-4.9,5.3c0,2.3,1.4,4.3,3.3,5
							c-2.6,7.1-7.8,19.1-13.4,17.2c-4.3-1.5-8.4-6.6-11.3-11c1.4-0.9,2.3-2.6,2.3-4.5c0-2.9-2.2-5.3-4.9-5.3
							c-2.7,0-4.9,2.4-4.9,5.3c0,2.9,2.2,5.3,4.9,5.3c0.1,0,0.1,0,0.1,0l6.6,30.5h44.3l6.6-30.5c0,0,0.1,0,0.1,0
							c2.7,0,4.9-2.4,4.9-5.3C168.7,205.7,166.6,203.3,163.9,203.3z"/>
						<rect x="113.1" y="247.4" fill="#DC2787" width="43.9" height="6"/>
					</g>
				</g>
			</g>
		</g>
		<g>
			<circle fill="#E62832" cx="135" cy="675" r="45"/>
			<g>
				<path fill="#3D5080" d="M135,641.2c-18.6,0-33.8,15.1-33.8,33.8s15.1,33.8,33.8,33.8c18.6,0,33.8-15.1,33.8-33.8
					S153.6,641.2,135,641.2z M135,696.3c-11.8,0-21.3-9.5-21.3-21.3c0-11.8,9.5-21.3,21.3-21.3s21.3,9.5,21.3,21.3
					C156.3,686.8,146.8,696.3,135,696.3z"/>
				<circle fill="#3D5080" cx="135" cy="675" r="10.5"/>
			</g>
		</g>
	</g>
	<g>
		<g>
			<circle fill="#E62832" cx="315" cy="675" r="45"/>
			<g>
				<path fill="#FCE52F" d="M311.8,654c0-5.2,4.2-9.3,9.2-9.3h0.1c5.1,0,9.2,4.2,9.2,9.3c0,0.9,0.8,1.7,1.7,1.7
					c0.9,0,1.7-0.7,1.7-1.7c0-7.1-5.7-12.8-12.6-12.8h-0.1c-6.9,0-12.6,5.6-12.6,12.7v1.9h3.4V654L311.8,654z"/>
				<path fill="#FCE52F" d="M331.9,659.3c-0.9,0-1.7,0.8-1.7,1.7v3.9c0,0.9,0.8,1.7,1.7,1.7c0.9,0,1.7-0.8,1.7-1.7V661
					C333.6,660.1,332.8,659.3,331.9,659.3z"/>
				<path fill="#FCE52F" d="M341.2,659.9l-2.7-2.7c-0.7-0.7-1.7-0.7-2.4,0c-0.7,0.7-0.7,1.7,0,2.4l2.7,2.7c0.3,0.3,0.8,0.5,1.2,0.5
					c0.4,0,0.9-0.2,1.2-0.5C341.9,661.6,341.9,660.5,341.2,659.9z"/>
				<path fill="#FCE52F" d="M325.4,657.1l-2.7,2.7c-0.7,0.7-0.7,1.7,0,2.4c0.3,0.3,0.8,0.5,1.2,0.5c0.4,0,0.9-0.2,1.2-0.5l2.7-2.7
					c0.7-0.7,0.7-1.7,0-2.4C327.2,656.5,326.1,656.5,325.4,657.1z"/>
				<path fill="#FCE52F" d="M319.1,667.6c-1.1-0.5-2.1-0.9-3.5-1.3v-4.8c0-1.3-0.9-2.3-2.1-2.3h-0.1h-7.1c-1.3,0-2.3,1-2.3,2.3v4.8
					c-1.1,0.3-2.3,0.8-3.4,1.3c-7.3,3.5-12.3,10.9-12.3,19.5c0,11.9,9.7,21.6,21.6,21.6c11.9,0,21.6-9.7,21.6-21.6
					C331.5,678.5,326.4,671.1,319.1,667.6z M309.9,701.3c-7.8,0-14.2-6.4-14.2-14.2c0-0.9,0.8-1.7,1.7-1.7c0.9,0,1.7,0.8,1.7,1.7
					c0,6,4.8,10.8,10.8,10.8c0.9,0,1.7,0.8,1.7,1.7S310.8,701.3,309.9,701.3z"/>
			</g>
		</g>
		<g>
			<circle fill="#B12A2F" cx="315" cy="855" r="45"/>
			<g>
				<path fill="#DC2787" d="M333.8,830.7c-0.9,0-1.7,0.2-2.5,0.5c-1.5-3-4.6-5.1-8.3-5.1c-2.4,0-4.5,0.9-6.1,2.3
					c-2.7-2.3-6.4-3.8-10.4-3.8c-8.4,0-15.3,6.4-15.5,14.3c-3.2,1.5-5.4,4.7-5.4,8.4c0,4.3,2.9,7.9,6.9,8.9l42.7,0.3
					c4.9-0.2,8.9-4.2,8.9-9.2c0-3.6-2-6.7-5-8.2c0.3-0.7,0.5-1.6,0.5-2.4C339.8,833.5,337.1,830.7,333.8,830.7z"/>
				<path fill="#DC2787" d="M300.4,871.7c1.1-2.1,1.2-11.5,1.2-11.5s-7.6,5.6-8.7,7.6c-1.1,2.1-0.3,4.6,1.8,5.7
					C296.8,874.6,299.3,873.8,300.4,871.7z"/>
				<path fill="#DC2787" d="M316.1,871.7c1.1-2.1,1.2-11.5,1.2-11.5s-7.6,5.6-8.7,7.6c-1.1,2.1-0.3,4.6,1.8,5.7
					C312.5,874.6,315,873.8,316.1,871.7z"/>
				<path fill="#DC2787" d="M327.3,873.6c2.1,1.1,4.6,0.3,5.7-1.8c1.1-2.1,1.2-11.5,1.2-11.5s-7.6,5.6-8.7,7.6
					C324.4,869.9,325.2,872.5,327.3,873.6z"/>
				<path fill="#DC2787" d="M298.3,889.3c2.1,1.1,4.6,0.3,5.7-1.8c1.1-2.1,1.2-11.5,1.2-11.5s-7.6,5.6-8.7,7.6
					C295.4,885.6,296.3,888.2,298.3,889.3z"/>
				<path fill="#DC2787" d="M314,889.3c2.1,1.1,4.6,0.3,5.7-1.8c1.1-2.1,1.2-11.5,1.2-11.5s-7.6,5.6-8.7,7.6
					C311.1,885.6,311.9,888.2,314,889.3z"/>
			</g>
		</g>
		<g>
			<circle fill="#CE6BA7" cx="315" cy="405" r="45"/>
			<g>
				<polygon fill="#E62832" points="346.6,395.4 325.2,395.4 325.2,374.1 306.1,374.1 306.1,395.4 284.7,395.4 284.7,414.6 
					306.1,414.6 306.1,435.9 325.2,435.9 325.2,414.6 346.6,414.6 				"/>
			</g>
		</g>
		<g>
			<circle fill="#335899" cx="315" cy="135" r="45"/>
			<g>
				<path fill="#F2B8C1" d="M338.9,111.1c-6.4-6.4-14.9-9.9-23.9-9.9c-9,0-17.5,3.5-23.9,9.9c-6.4,6.4-9.9,14.8-9.9,23.9
					c0,9,3.5,17.5,9.9,23.9s14.8,9.9,23.9,9.9c9,0,17.5-3.5,23.9-9.9c6.4-6.4,9.9-14.8,9.9-23.9C348.8,126,345.2,117.5,338.9,111.1z
					 M341.9,135c0,6-1.9,11.5-5.2,15.9l-18.1-18.1v-24.5C331.7,110.1,341.9,121.4,341.9,135z M311.4,161.7
					c-4.9-0.7-9.5-2.7-13.2-5.6l13.2-13.2V161.7z M318.6,142.9l13.2,13.2c-3.7,3-8.2,5-13.2,5.6V142.9z M311.4,108.3v24.5
					l-18.1,18.1c-3.3-4.5-5.2-10-5.2-15.9C288.1,121.4,298.3,110.1,311.4,108.3z"/>
			</g>
		</g>
		<g>
			<circle fill="#EB5B23" cx="315" cy="585" r="45"/>
			<g>
				<g>
					<polygon fill="#DC2787" points="315.7,541.1 326.4,571.2 355.1,571.2 331.6,588.9 340,619.9 315.7,601.3 291.4,619.9 
						299.7,588.9 276.3,571.2 305,571.2 					"/>
				</g>
			</g>
		</g>
		<g>
			<circle fill="#098CCC" cx="315" cy="225" r="45"/>
			<g>
				<g>
					<g id="Icons_3_">
						<g>
							<path fill="#5DB350" d="M323.3,241.7h-16.7c-1.2,0-2.2,1-2.2,2.2c0,1.2,1,2.2,2.2,2.2h16.7c1.2,0,2.2-1,2.2-2.2
								C325.6,242.7,324.6,241.7,323.3,241.7z"/>
							<path fill="#5DB350" d="M310.6,255v1.2c0,1.4,1.1,2.5,2.5,2.5h3.7c1.4,0,2.5-1.1,2.5-2.5V255c2.8-0.2,5.1-2.5,5.1-5.4h-18.9
								C305.5,252.5,307.8,254.8,310.6,255z"/>
							<path fill="#5DB350" d="M315,191.2c-12.5,0-22.6,10.1-22.6,22.5c0,5.3,1.8,10.1,4.8,13.9c2.7,3.4,5.2,7.1,7.4,10.8h20.7
								c2.2-3.8,4.7-7.4,7.4-10.8c3-3.8,4.8-8.7,4.8-13.9C337.5,201.3,327.5,191.2,315,191.2z M315,199.1c-8,0-14.5,6.5-14.5,14.5
								c0,1.2-1,2.2-2.2,2.2c-1.2,0-2.3-1-2.3-2.2c0-10.5,8.5-19,19-19c1.2,0,2.2,1,2.2,2.2C317.3,198.1,316.3,199.1,315,199.1z"/>
						</g>
					</g>
				</g>
			</g>
		</g>
		<g>
			<circle fill="#8A6AAC" cx="315" cy="315" r="45"/>
			<path fill="#F2DE7A" d="M339.4,332.3c0,5.8-14.9,8.5-23.7,8.5c-8.8,0-23.6-2.7-23.6-8.5c0-0.9,0.3-1.7,1-2.5
				c8.1-16.6,6-24.3,10.4-30.5c2-2.7,4.3-4.5,8.1-5.3c0.2-2.2,1.9-3.8,4.2-3.8c2.2,0,4,1.7,4.2,3.8c3.7,0.8,6.1,2.6,8.1,5.3
				c4.4,6.2,2.3,13.9,10.4,30.5C339,330.5,339.4,331.4,339.4,332.3z M334.5,330.6c-3.4-4.1-12.2-4.9-18.8-4.9
				c-6.5,0-15.4,0.8-18.8,4.9c3.4,4.1,12.3,5.1,18.8,5C322.2,335.6,331,334.8,334.5,330.6z M311.9,328.6c0-0.5,2.6-0.6,3.7-0.6
				c2.9,0,3.7,0.3,3.7,0.6c0,2.3-1.7,4.2-3.7,4.2C313.6,332.8,311.9,330.9,311.9,328.6z"/>
		</g>
		<g>
			<circle fill="#DC2787" cx="315" cy="495" r="45"/>
			<path fill="#098CCC" d="M343.9,495c0,15.6-12.6,28.1-28.2,28.1c-15.5,0-28.1-12.5-28.1-28.1c0-15.5,12.6-28.1,28.1-28.1
				C331.2,466.9,343.9,479.5,343.9,495z M297.4,513.3c1.7,1.7,3.6,3,5.6,4.2l6.4-12c1.8,1.1,4,1.7,6.4,1.7c6.9,0,12.2-5.4,12.2-12.2
				c0-3.3-1.3-6.4-3.4-8.5l11.5-7.3c-0.6-0.9-1.3-1.7-2.1-2.4c-1.7-1.7-3.6-3.1-5.7-4.4l-6.4,12c-1.7-1-3.9-1.7-6.2-1.7
				c-6.8,0-12.2,5.4-12.2,12.2c0,3.2,1.2,6.2,3.2,8.4l-11.6,7.3C295.9,511.6,296.7,512.4,297.4,513.3z M310.5,495
				c0-3,2.4-5.3,5.2-5.3c3,0,5.3,2.4,5.3,5.3c0,2.8-2.4,5.2-5.3,5.2C312.9,500.2,310.5,497.8,310.5,495z M313.1,495
				c0,1.6,1,2.6,2.6,2.6s2.7-1,2.7-2.6c0-1.6-1.1-2.7-2.7-2.7S313.1,493.4,313.1,495z"/>
		</g>
		<g>
			<circle fill="#D6202A" cx="315" cy="765" r="45"/>
			<path fill="#B5D16C" d="M343.2,765c0,15.6-12.6,28.1-28.2,28.1c-15.5,0-28.1-12.5-28.1-28.1c0-15.5,12.6-28.1,28.1-28.1
				C330.5,736.9,343.2,749.5,343.2,765z M296.8,783.3c1.7,1.7,3.6,3,5.6,4.2l6.4-12c1.8,1.1,4,1.7,6.4,1.7c6.9,0,12.2-5.4,12.2-12.2
				c0-3.3-1.3-6.4-3.4-8.5l11.5-7.3c-0.6-0.9-1.3-1.7-2.1-2.4c-1.7-1.7-3.6-3.1-5.7-4.4l-6.4,12c-1.7-1-3.9-1.7-6.2-1.7
				c-6.8,0-12.2,5.4-12.2,12.2c0,3.2,1.2,6.2,3.2,8.4l-11.6,7.3C295.2,781.6,296,782.4,296.8,783.3z M309.8,765c0-3,2.4-5.3,5.2-5.3
				c3,0,5.3,2.4,5.3,5.3c0,2.8-2.4,5.2-5.3,5.2C312.3,770.2,309.8,767.8,309.8,765z M312.4,765c0,1.6,1,2.6,2.6,2.6
				c1.6,0,2.7-1,2.7-2.6c0-1.6-1.1-2.7-2.7-2.7C313.5,762.3,312.4,763.4,312.4,765z"/>
		</g>
		<g>
			<circle fill="#3D5080" cx="315" cy="45" r="45"/>
			<path fill="#FFFFFF" d="M322.1,76.5c-6.7,0-14.2-4.1-19.5-4.1c-2.8,0-4.2,2.9-5.8,2.9c-1.5,0-2.2-1.2-2.2-2.7
				c0-3.5,1.9-7.4,4.5-9.7c3.1-2.7,7-3.6,10.9-3.6c3.9,0,7.7,0.8,11.4,1.4c2.7,0.4,5.4,1,8.2,1c5.8,0,2.7-6,6.3-6
				c1.9,0,2.3,1.9,2.3,3.5c0,3.6-2.3,8.6-4.5,11.4C331.2,74,326.4,76.5,322.1,76.5z M310.5,18.5c-1,0.1-2.7,0.6-2.7,1.8
				c0,1.4,4.9,1.9,4.9,8.3c0,4.5-4.1,8.3-8.7,8.3c-5.3,0-8.8-4.1-8.8-9.3c0-8.2,8.1-13,15.3-13.9V18.5z M314.2,13.5
				c11-0.2,22.5,5.4,22.2,17.7c-0.2,9.5-6.6,15.1-15,18.3l-11.8,5.6l-0.8,0.6c-2.9,0-5.7,1.3-8.1,2.3l-0.2-0.2
				c8.1-11.4,17.5-9.1,17.7-26.6c0-1.1,0.2-11.1-4.1-13V13.5z"/>
		</g>
	</g>
	<g>
		<g>
			<circle fill="#B12A2F" cx="585" cy="855" r="45"/>
			<g>
				<path fill="#FFFFFF" d="M584,834c0-5.2,4.2-9.3,9.2-9.3h0.1c5.1,0,9.2,4.2,9.2,9.3c0,0.9,0.8,1.7,1.7,1.7s1.7-0.7,1.7-1.7
					c0-7.1-5.7-12.8-12.6-12.8h-0.1c-6.9,0-12.6,5.6-12.6,12.7v1.9h3.4V834L584,834z"/>
				<path fill="#FFFFFF" d="M604.1,839.3c-0.9,0-1.7,0.8-1.7,1.7v3.9c0,0.9,0.8,1.7,1.7,1.7c0.9,0,1.7-0.8,1.7-1.7V841
					C605.9,840.1,605.1,839.3,604.1,839.3z"/>
				<path fill="#FFFFFF" d="M613.5,839.9l-2.7-2.7c-0.7-0.7-1.7-0.7-2.4,0c-0.7,0.7-0.7,1.7,0,2.4l2.7,2.7c0.3,0.3,0.8,0.5,1.2,0.5
					c0.4,0,0.9-0.2,1.2-0.5C614.1,841.6,614.1,840.5,613.5,839.9z"/>
				<path fill="#FFFFFF" d="M597.7,837.1l-2.7,2.7c-0.7,0.7-0.7,1.7,0,2.4c0.3,0.3,0.8,0.5,1.2,0.5c0.4,0,0.9-0.2,1.2-0.5l2.7-2.7
					c0.7-0.7,0.7-1.7,0-2.4C599.4,836.5,598.4,836.5,597.7,837.1z"/>
				<path fill="#FFFFFF" d="M591.3,847.6c-1.1-0.5-2.1-0.9-3.4-1.3v-4.8c0-1.3-0.9-2.3-2.1-2.3h-0.1h-7.1c-1.3,0-2.3,1-2.3,2.3v4.8
					c-1.1,0.3-2.3,0.8-3.4,1.3c-7.3,3.5-12.3,10.9-12.3,19.5c0,11.9,9.7,21.6,21.6,21.6c11.9,0,21.6-9.7,21.6-21.6
					C603.7,858.5,598.6,851.1,591.3,847.6z M582.2,881.3c-7.8,0-14.2-6.4-14.2-14.2c0-0.9,0.8-1.7,1.7-1.7s1.7,0.8,1.7,1.7
					c0,6,4.8,10.8,10.8,10.8c0.9,0,1.7,0.8,1.7,1.7S583.1,881.3,582.2,881.3z"/>
			</g>
		</g>
		<g>
			<circle fill="#D6202A" cx="585" cy="765" r="45"/>
			<g>
				<path fill="#662483" d="M585,741.4c-25.8,0-39.4,19-39.4,22c0,3,13.5,22,39.4,22c25.8,0,39.4-19,39.4-22
					C624.4,760.4,610.8,741.4,585,741.4z M585,780.4c-9.7,0-17.5-7.6-17.5-17c0-9.4,7.8-17,17.5-17s17.5,7.6,17.5,17
					C602.5,772.8,594.7,780.4,585,780.4z M593.8,763.5c0,4.7-3.9,8.5-8.7,8.5c-4.8,0-8.7-3.8-8.7-8.5c0-4.7,3.9-8.5,8.7-8.5
					c2.6,0-1.6,6.7,0,8.5C586.4,765,593.8,761.3,593.8,763.5z"/>
			</g>
		</g>
		<g>
			<circle fill="#EB5B23" cx="585" cy="585" r="45"/>
			<g>
				<path fill="#F2B8C1" d="M585,556.2l-28.1,48.6h56.2L585,556.2L585,556.2z"/>
			</g>
		</g>
		<g>
			<circle fill="#3D5080" cx="585" cy="45" r="45"/>
			<g>
				<polygon fill="#098CCC" points="615.9,35.4 594.6,35.4 594.6,14.1 575.4,14.1 575.4,35.4 554.1,35.4 554.1,54.6 575.4,54.6 
					575.4,75.9 594.6,75.9 594.6,54.6 615.9,54.6 				"/>
			</g>
		</g>
		<g>
			<circle fill="#098CCC" cx="585" cy="225" r="45"/>
			<g>
				<path fill="#DC2787" d="M608.9,201.1c-6.4-6.4-14.9-9.9-23.9-9.9c-9,0-17.5,3.5-23.9,9.9c-6.4,6.4-9.9,14.8-9.9,23.9
					c0,9,3.5,17.5,9.9,23.9s14.8,9.9,23.9,9.9c9,0,17.5-3.5,23.9-9.9c6.4-6.4,9.9-14.8,9.9-23.9C618.8,216,615.2,207.5,608.9,201.1z
					 M611.9,225c0,6-1.9,11.5-5.2,15.9l-18.1-18.1v-24.5C601.7,200.1,611.9,211.4,611.9,225z M581.4,251.7
					c-4.9-0.7-9.5-2.7-13.2-5.6l13.2-13.2V251.7z M588.6,232.9l13.2,13.2c-3.7,3-8.2,5-13.2,5.6V232.9z M581.4,198.3v24.5
					l-18.1,18.1c-3.3-4.5-5.2-10-5.2-15.9C558.1,211.4,568.3,200.1,581.4,198.3z"/>
			</g>
		</g>
		<g>
			<circle fill="#E62832" cx="585" cy="675" r="45"/>
			<g>
				<path fill="#5DB350" d="M608.9,651.1c-6.4-6.4-14.9-9.9-23.9-9.9c-9,0-17.5,3.5-23.9,9.9c-6.4,6.4-9.9,14.8-9.9,23.9
					c0,9,3.5,17.5,9.9,23.9s14.8,9.9,23.9,9.9c9,0,17.5-3.5,23.9-9.9c6.4-6.4,9.9-14.8,9.9-23.9C618.8,666,615.2,657.5,608.9,651.1z
					 M611.9,675c0,6-1.9,11.5-5.2,15.9l-18.1-18.1v-24.5C601.7,650.1,611.9,661.4,611.9,675z M581.4,701.7
					c-4.9-0.7-9.5-2.7-13.2-5.6l13.2-13.2V701.7z M588.6,682.9l13.2,13.2c-3.7,3-8.2,5-13.2,5.6V682.9z M581.4,648.3v24.5
					l-18.1,18.1c-3.3-4.5-5.2-10-5.2-15.9C558.1,661.4,568.3,650.1,581.4,648.3z"/>
			</g>
		</g>
		<g>
			<circle fill="#335899" cx="585" cy="135" r="45"/>
			<g>
				<g>
					<polygon fill="#B5D16C" points="585,92.8 595.7,122.9 624.4,122.9 601,140.5 609.3,171.5 585,152.9 560.7,171.5 569,140.5 
						545.6,122.9 574.3,122.9 					"/>
				</g>
			</g>
		</g>
		<g>
			<g>
				<circle fill="#8A6AAC" cx="585" cy="315" r="45"/>
			</g>
			<g>
				<g>
					<g id="Icons_2_">
						<g>
							<path fill="#098CCC" d="M593.3,332.2h-16.7c-1.2,0-2.2,1-2.2,2.2c0,1.2,1,2.2,2.2,2.2h16.7c1.2,0,2.2-1,2.2-2.2
								C595.6,333.2,594.6,332.2,593.3,332.2z"/>
							<path fill="#098CCC" d="M580.6,345.5v1.2c0,1.4,1.1,2.5,2.5,2.5h3.7c1.4,0,2.5-1.1,2.5-2.5v-1.2c2.8-0.2,5.1-2.5,5.1-5.4
								h-18.9C575.5,342.9,577.8,345.3,580.6,345.5z"/>
							<path fill="#098CCC" d="M585,281.7c-12.5,0-22.6,10.1-22.6,22.6c0,5.3,1.8,10.1,4.8,13.9c2.7,3.4,5.2,7.1,7.4,10.8h20.7
								c2.2-3.8,4.7-7.4,7.4-10.8c3-3.8,4.8-8.7,4.8-13.9C607.5,291.8,597.5,281.7,585,281.7z M585,289.5c-8,0-14.5,6.5-14.5,14.5
								c0,1.2-1,2.2-2.2,2.2c-1.2,0-2.2-1-2.2-2.2c0-10.5,8.5-19,19-19c1.2,0,2.2,1,2.2,2.2S586.3,289.5,585,289.5z"/>
						</g>
					</g>
				</g>
			</g>
		</g>
		<g>
			<circle fill="#CE6BA7" cx="585" cy="405" r="45"/>
			<g>
				<path fill="#8CCCC6" d="M585,371.2c-18.6,0-33.8,15.1-33.8,33.8s15.1,33.8,33.8,33.8c18.6,0,33.8-15.1,33.8-33.8
					S603.6,371.2,585,371.2z M585,426.3c-11.8,0-21.3-9.5-21.3-21.3c0-11.8,9.5-21.3,21.3-21.3c11.8,0,21.3,9.5,21.3,21.3
					C606.3,416.8,596.8,426.3,585,426.3z"/>
				<circle fill="#8CCCC6" cx="585" cy="405" r="10.5"/>
			</g>
		</g>
		<g>
			<circle fill="#DC2787" cx="585" cy="495" r="45"/>
			<path fill="#FFD134" d="M580.1,526.5c-7.6-0.6-17.1-4.8-17.1-13.7c0-4.9,3.6-8.8,8.7-8.8c4,0,8.2,3.7,8.2,7.9
				c0,5.6-4.5,6.8-4.5,8.2c0,1.3,3.6,1.6,4.8,1.7V526.5z M580.1,468.5c-1.3,0.2-3.4,0.9-3.4,2.3c0,1.8,4.1,1.9,4.1,7.3
				c0,4.1-3.6,7.9-7.8,7.9c-4.7,0-8-3.5-8-8.1c0-8.3,7.7-13.1,15.1-14.3V468.5z M593.3,494.5c8.8,2.4,13.7,6.4,13.7,14.8
				c0,7.4-4.6,17.6-23.2,17.2v-4.8c3.8-0.9,5-3.5,5-7.3v-10.9c0-3.7-0.6-7-5.3-7.2c-1.5-0.1-3.3-0.2-3.3-2.3c0-2.1,1.6-2.3,3.3-2.4
				c5.2-0.5,5.3-5.8,5.3-6.6v-9.4c0-3.6-1.1-6.6-5-7.5v-4.8c16.1-0.7,22.2,9.2,22.2,16c0,8-5.3,13-12.7,14.8V494.5z"/>
		</g>
	</g>
	<g>
		<g>
			<circle fill="#DC2787" cx="495" cy="495" r="45"/>
			<g>
				<g>
					<polygon fill="#EB5B23" points="495,450 505.7,480.1 534.4,480.1 511,497.7 519.3,528.8 495,510.2 470.7,528.8 479,497.7 
						455.6,480.1 484.3,480.1 					"/>
				</g>
			</g>
		</g>
		<g>
			<circle fill="#335899" cx="495" cy="135" r="45"/>
			<g>
				<path fill="#D7E1F2" d="M515.2,109.6c-0.9,0-1.7,0.2-2.5,0.5c-1.5-3-4.6-5.1-8.3-5.1c-2.4,0-4.5,0.9-6.1,2.3
					c-2.7-2.3-6.4-3.8-10.4-3.8c-8.4,0-15.3,6.4-15.5,14.3c-3.2,1.5-5.4,4.7-5.4,8.4c0,4.3,2.9,7.9,6.9,8.9l42.8,0.3
					c4.9-0.2,8.9-4.2,8.9-9.2c0-3.6-2-6.6-5-8.2c0.3-0.7,0.5-1.6,0.5-2.4C521.2,112.3,518.5,109.6,515.2,109.6z"/>
				<path fill="#D7E1F2" d="M481.8,150.6c1.1-2.1,1.2-11.5,1.2-11.5s-7.6,5.6-8.7,7.6c-1.1,2.1-0.3,4.6,1.8,5.7
					C478.2,153.5,480.7,152.7,481.8,150.6z"/>
				<path fill="#D7E1F2" d="M497.5,150.6c1.1-2.1,1.2-11.5,1.2-11.5s-7.6,5.6-8.7,7.6c-1.1,2.1-0.3,4.6,1.8,5.7
					C493.9,153.5,496.4,152.7,497.5,150.6z"/>
				<path fill="#D7E1F2" d="M508.7,152.4c2.1,1.1,4.6,0.3,5.7-1.8c1.1-2.1,1.2-11.5,1.2-11.5s-7.6,5.6-8.7,7.6
					C505.8,148.8,506.6,151.4,508.7,152.4z"/>
				<path fill="#D7E1F2" d="M479.7,168.1c2.1,1.1,4.6,0.3,5.7-1.8c1.1-2.1,1.2-11.5,1.2-11.5s-7.6,5.6-8.7,7.6
					C476.9,164.5,477.7,167.1,479.7,168.1z"/>
				<path fill="#D7E1F2" d="M495.4,168.1c2.1,1.1,4.6,0.3,5.7-1.8c1.1-2.1,1.2-11.5,1.2-11.5s-7.6,5.6-8.7,7.6
					C492.5,164.5,493.4,167.1,495.4,168.1z"/>
			</g>
		</g>
		<g>
			<circle fill="#CE6BA7" cx="495" cy="405" r="45"/>
			<g>
				<path fill="#D7E1F2" d="M513.8,378.5c-0.9,0-1.7,0.2-2.5,0.5c-1.5-3-4.6-5.1-8.3-5.1c-2.4,0-4.5,0.9-6.1,2.3
					c-2.7-2.3-6.4-3.8-10.4-3.8c-8.4,0-15.3,6.4-15.5,14.3c-3.2,1.5-5.4,4.7-5.4,8.4c0,4.3,2.9,7.9,6.9,8.9l42.8,0.3
					c4.9-0.2,8.9-4.2,8.9-9.2c0-3.6-2-6.6-5-8.2c0.3-0.7,0.5-1.6,0.5-2.4C519.8,381.2,517.1,378.5,513.8,378.5z"/>
				<path fill="#D7E1F2" d="M480.4,419.5c1.1-2.1,1.2-11.5,1.2-11.5s-7.6,5.6-8.7,7.6c-1.1,2.1-0.3,4.6,1.8,5.7
					C476.8,422.4,479.3,421.6,480.4,419.5z"/>
				<path fill="#D7E1F2" d="M496.1,419.5c1.1-2.1,1.2-11.5,1.2-11.5s-7.6,5.6-8.7,7.6c-1.1,2.1-0.3,4.6,1.8,5.7
					C492.5,422.4,495,421.6,496.1,419.5z"/>
				<path fill="#D7E1F2" d="M507.3,421.3c2.1,1.1,4.6,0.3,5.7-1.8c1.1-2.1,1.2-11.5,1.2-11.5s-7.6,5.6-8.7,7.6
					C504.4,417.7,505.2,420.3,507.3,421.3z"/>
				<path fill="#D7E1F2" d="M478.3,437c2.1,1.1,4.6,0.3,5.7-1.8c1.1-2.1,1.2-11.5,1.2-11.5s-7.6,5.6-8.7,7.6
					C475.4,433.4,476.3,436,478.3,437z"/>
				<path fill="#D7E1F2" d="M494,437c2.1,1.1,4.6,0.3,5.7-1.8c1.1-2.1,1.2-11.5,1.2-11.5s-7.6,5.6-8.7,7.6
					C491.1,433.4,491.9,436,494,437z"/>
			</g>
		</g>
		<g>
			<circle fill="#D6202A" cx="495" cy="765" r="45"/>
			<g>
				<g>
					<g>
						<path fill="#F2B8C1" d="M499.6,771.9c-0.3-0.3-0.6-0.5-0.9-0.7c-0.7-0.4-1.5-0.6-2.3-0.8v6c1.3-0.1,2.7-0.6,3.4-1.8l0,0
							c0.3-0.6,0.4-1.3,0.3-1.9C500,772.5,499.8,772.1,499.6,771.9z"/>
					</g>
					<g>
						<path fill="#F2B8C1" d="M499.8,774.7C499.8,774.7,499.8,774.7,499.8,774.7L499.8,774.7C499.8,774.7,499.8,774.7,499.8,774.7z"
							/>
					</g>
					<g>
						<path fill="#F2B8C1" d="M490.5,762.2c-0.2,0.3-0.4,0.7-0.4,1.1c0,0.4,0,0.8,0.1,1.2c0.1,0.3,0.4,0.6,0.7,0.8
							c0.3,0.2,0.7,0.4,1.1,0.6c0.3,0.1,0.7,0.3,1.1,0.4v-5.5C492.1,760.9,491.1,761.4,490.5,762.2z"/>
					</g>
					<g>
						<path fill="#F2B8C1" d="M499.8,774.6C499.8,774.6,499.8,774.7,499.8,774.6L499.8,774.6C499.8,774.7,499.8,774.6,499.8,774.6z"
							/>
					</g>
					<g>
						<path fill="#F2B8C1" d="M499.8,774.6C499.9,774.6,499.9,774.6,499.8,774.6L499.8,774.6z"/>
					</g>
					<g>
						<path fill="#F2B8C1" d="M498.5,741.7c5.1-4.3,8.6-14,6.5-14.5c-2.8-0.6-8.9,1.9-11.8,2.3c-4.2,0.5-8.7-4.5-11.3-1.7
							c-2.1,2.3,1.5,10.6,7.1,14.2c-16.6,8.2-40,49.2,0.8,52.2C546.2,798.4,517.9,749.7,498.5,741.7z M503.4,774.1
							c-0.2,1.6-1,3-2.3,4c-1.3,1-3,1.5-4.7,1.7v1.8c0,0.5-0.2,0.9-0.6,1.2c-0.5,0.4-1.2,0.5-1.8,0.3c-0.6-0.3-1-0.9-1-1.5v-1.9
							c-0.3-0.1-0.6-0.1-0.9-0.2c-1.6-0.4-3-1.3-4.1-2.5c-0.5-0.6-1-1.3-1.3-2.1c-0.1-0.2-0.1-0.4-0.2-0.6c-0.1-0.2-0.1-0.4-0.1-0.6
							c0-0.3,0-0.6,0.2-0.9c0.3-0.6,1-0.9,1.6-0.9c0.7,0.1,1.2,0.5,1.4,1.1c0.1,0.2,0.1,0.4,0.2,0.6c0.1,0.2,0.2,0.4,0.3,0.5
							c0.2,0.3,0.4,0.7,0.7,0.9c0.6,0.6,1.3,0.9,2.1,1.2v-6.6c-1.5-0.4-3.1-0.9-4.4-1.9c-0.6-0.5-1.1-1.1-1.5-1.8
							c-0.4-0.7-0.5-1.6-0.5-2.4c0-0.8,0.2-1.7,0.5-2.4c0.3-0.7,0.8-1.3,1.4-1.9c1.2-1.1,2.8-1.8,4.5-2v-0.1v-1.7
							c0-0.5,0.2-0.9,0.6-1.2c0.5-0.4,1.2-0.5,1.8-0.3c0.6,0.3,1,0.9,1,1.5v1.7v0.1c0.2,0,0.4,0.1,0.6,0.1c1.6,0.3,3.2,1,4.3,2.1
							c0.6,0.5,1,1.2,1.3,1.9c0.1,0.2,0.2,0.4,0.2,0.6c0.1,0.2,0.1,0.4,0.2,0.6c0,0.3,0,0.7-0.1,0.9c-0.3,0.6-0.9,1-1.6,1
							c-0.7,0-1.2-0.5-1.5-1.1c-0.1-0.2-0.1-0.4-0.2-0.6c-0.1-0.2-0.2-0.4-0.3-0.5c-0.2-0.3-0.5-0.6-0.8-0.8
							c-0.7-0.5-1.5-0.7-2.3-0.9v6.3c1,0.2,1.9,0.5,2.8,0.8c1.4,0.5,2.7,1.4,3.5,2.7c-0.1-0.2-0.2-0.4,0,0c0.2,0.4,0.1,0.2,0,0
							C503.3,771.6,503.5,772.9,503.4,774.1z"/>
					</g>
					<g>
						<path fill="#F2B8C1" d="M499.8,774.7C499.8,774.7,499.7,774.8,499.8,774.7C499.7,774.8,499.8,774.7,499.8,774.7z"/>
					</g>
				</g>
			</g>
		</g>
		<g>
			<circle fill="#8A6AAC" cx="495" cy="315" r="45"/>
			<g>
				<g>
					<path fill="#662483" d="M510.7,316c-1.8-1.4-4.6-2.6-8.3-3.5l-2.9-0.6v-12.2c0.1,0.1,0.2,0.1,0.3,0.1c0.1,0,0.1,0,0.1,0.1
						c2.4,1.2,3.7,3.2,3.9,6h9.7c-0.2-5-2.1-8.9-5.7-11.6c-2.3-1.8-5.1-2.9-8.3-3.5v-6.8h-8.9v6.5c-4.2,0.5-7.5,1.8-9.9,4
						c-3.2,2.9-4.8,6.5-4.8,10.8c0,4.7,1.6,8.2,4.9,10.4c1.8,1.3,5,2.4,9.8,3.5v13.1c-1.8-0.5-3.1-1.3-4-2.4c-1-1.2-1.6-2.8-1.9-4.8
						h-9.6c0,4.9,1.8,8.8,5.4,11.7c2.6,2,6,3.3,10.1,3.9v5h8.9V341c4.4-0.6,7.8-2,10.4-4.1c3.4-2.9,5-6.6,5-11.1
						C514.9,321.5,513.5,318.3,510.7,316z M490.5,309.7c-1.4-0.4-2.4-0.8-3-1.1c-1.6-0.8-2.4-2.1-2.4-3.9c0-1.9,0.8-3.4,2.4-4.4
						c0.8-0.5,1.8-0.9,3-1.3V309.7z M501,332.2c-0.4,0.2-0.9,0.3-1.5,0.4v-11.2c1.6,0.5,2.8,1,3.6,1.5c1.4,0.9,2.1,2.2,2.1,3.8
						C505.2,329.4,503.8,331.2,501,332.2z"/>
				</g>
			</g>
		</g>
		<g>
			<circle fill="#3D5080" cx="495" cy="45" r="45"/>
			<g>
				<g>
					<g>
						<path fill="#8CCCC6" d="M523.9,23.3c-2.7,0-4.9,2.4-4.9,5.3c0,1.9,0.9,3.6,2.3,4.5c-2.9,4.4-7.1,9.5-11.3,11
							c-5.6,1.9-10.8-10-13.4-17.2c1.9-0.7,3.3-2.7,3.3-5c0-2.9-2.2-5.3-4.9-5.3c-2.7,0-4.9,2.4-4.9,5.3c0,2.3,1.4,4.3,3.3,5
							c-2.6,7.1-7.8,19.1-13.4,17.2c-4.3-1.5-8.4-6.6-11.3-11c1.4-0.9,2.3-2.6,2.3-4.5c0-2.9-2.2-5.3-4.9-5.3
							c-2.7,0-4.9,2.4-4.9,5.3c0,2.9,2.2,5.3,4.9,5.3c0.1,0,0.1,0,0.1,0l6.6,30.5h44.3l6.6-30.5c0,0,0.1,0,0.1,0
							c2.7,0,4.9-2.4,4.9-5.3C528.7,25.7,526.6,23.3,523.9,23.3z"/>
						<rect x="473.1" y="67.4" fill="#8CCCC6" width="43.9" height="6"/>
					</g>
				</g>
			</g>
		</g>
		<g>
			<circle fill="#E62832" cx="495" cy="675" r="45"/>
			<g>
				<g>
					<g>
						<path fill="#F6F6F6" d="M523.9,653.3c-2.7,0-4.9,2.4-4.9,5.3c0,1.9,0.9,3.6,2.3,4.5c-2.9,4.4-7.1,9.5-11.3,11
							c-5.6,1.9-10.8-10-13.4-17.2c1.9-0.7,3.3-2.7,3.3-5c0-2.9-2.2-5.3-4.9-5.3c-2.7,0-4.9,2.4-4.9,5.3c0,2.3,1.4,4.3,3.3,5
							c-2.6,7.1-7.8,19.1-13.4,17.2c-4.3-1.5-8.4-6.6-11.3-11c1.4-0.9,2.3-2.6,2.3-4.5c0-2.9-2.2-5.3-4.9-5.3
							c-2.7,0-4.9,2.4-4.9,5.3c0,2.9,2.2,5.3,4.9,5.3c0.1,0,0.1,0,0.1,0l6.6,30.5h44.3l6.6-30.5c0,0,0.1,0,0.1,0
							c2.7,0,4.9-2.4,4.9-5.3C528.7,655.7,526.6,653.3,523.9,653.3z"/>
						<rect x="473.1" y="697.4" fill="#F6F6F6" width="43.9" height="6"/>
					</g>
				</g>
			</g>
		</g>
		<g>
			<circle fill="#EB5B23" cx="495" cy="585" r="45"/>
			<path fill="#098CCC" d="M520.1,601.3c0,5.8-14.9,8.5-23.7,8.5s-23.6-2.7-23.6-8.5c0-0.9,0.3-1.7,1-2.5c8.1-16.6,6-24.3,10.4-30.5
				c2-2.7,4.3-4.5,8.1-5.3c0.2-2.2,1.9-3.8,4.2-3.8c2.2,0,4,1.7,4.2,3.8c3.7,0.8,6.1,2.6,8.1,5.3c4.4,6.2,2.3,13.9,10.4,30.5
				C519.7,599.5,520.1,600.3,520.1,601.3z M515.2,599.6c-3.4-4.1-12.2-4.9-18.8-4.9c-6.5,0-15.4,0.8-18.8,4.9
				c3.4,4.1,12.3,5.1,18.8,5C502.9,604.6,511.8,603.7,515.2,599.6z M492.6,597.6c0-0.5,2.6-0.6,3.7-0.6c2.9,0,3.7,0.3,3.7,0.6
				c0,2.3-1.7,4.2-3.7,4.2C494.3,601.7,492.6,599.9,492.6,597.6z"/>
		</g>
		<g>
			<circle fill="#098CCC" cx="495" cy="225" r="45"/>
			<path fill="#B12A2F" d="M485.8,241.5h-16.1c-0.8,0-2.6,0-2.6-3.1c0-1.9,0.7-2.9,1.8-4.4l16.8-23.2h0.2v6.8l-13.6,19.1h13.6V241.5
				z M489.5,206.1l6.4-8.7c1.4-1.5,1.9-2.6,3.6-2.6h4.5c2.2,0,2.5-0.5,2.5,3.4v38.7h5.7c0.6,0,2.1,0,2.1,2.3c0,2.3-1.5,2.3-2.1,2.3
				h-5.7v5.5c0,2.3,0.2,2.7,3.3,3.6c1.3,0.2,2.1,0.9,2.1,2.3c0,2.5-3.2,2.4-3.9,2.4h-20.2c-0.7,0-3.9,0.1-3.9-2.4
				c0-1.4,0.8-2.1,2.1-2.3c3.2-0.9,3.3-1.2,3.3-3.6V206.1z"/>
		</g>
		<g>
			<circle fill="#B12A2F" cx="495" cy="855" r="45"/>
			<path fill="#8CCCC6" d="M490.1,888.7c-7.4-0.3-16.7-5.3-16.7-13.6c0-5,3.7-9,8.7-9c4.5,0,8.1,3.6,8,7.9c-0.1,5.1-4.2,6.7-4.2,7.7
				c0,1.3,3.1,1.9,4.1,2.2V888.7z M482,844.5l-0.8,9.5c2.3-2.2,5.4-4.3,8.9-5v6.3c-2.8,0.6-5.5,1.5-8.1,3.2c-0.9,0.6-2,1.3-3.1,1.3
				c-1.5,0-2.7-0.8-2.7-2.3l1.2-13.4L482,844.5z M495.9,827.1c5.8,0.5,14.4,0.2,18.6-1.4c-1.2,4.9-4,8.7-7.9,11.7
				c-5.2,3.7-10.4,4.3-16.6,4.3l-12.5-0.9l1.6-15.1L495.9,827.1z M493.8,884c4.3-1.2,4.6-5.7,4.6-8.6v-11.6c0-2.8-0.3-7.4-4.6-8.6
				v-6.6c12.5-0.2,22.8,6.4,22.8,20c0,13.6-10.3,20.3-22.8,20V884z"/>
		</g>
	</g>
	<g>
		<g>
			<circle fill="#E62832" cx="225" cy="675" r="45"/>
			<g>
				<path fill="#F2B8C1" d="M225,653c-25.8,0-39.4,19-39.4,22c0,3,13.5,22,39.4,22c25.8,0,39.4-19,39.4-22
					C264.4,672,250.8,653,225,653z M225,692c-9.7,0-17.5-7.6-17.5-17c0-9.4,7.8-17,17.5-17c9.7,0,17.5,7.6,17.5,17
					C242.5,684.4,234.7,692,225,692z M233.7,675c0,4.7-3.9,8.5-8.7,8.5c-4.8,0-8.7-3.8-8.7-8.5c0-4.7,3.9-8.5,8.7-8.5
					c2.6,0-1.6,6.7,0,8.5C226.4,676.5,233.7,672.8,233.7,675z"/>
			</g>
		</g>
		<g>
			<circle fill="#8A6AAC" cx="225" cy="315" r="45"/>
			<g>
				<path fill="#EB5B23" d="M243.8,291.7c-0.9,0-1.7,0.2-2.5,0.5c-1.5-3-4.6-5.1-8.3-5.1c-2.4,0-4.5,0.9-6.1,2.3
					c-2.7-2.3-6.4-3.8-10.4-3.8c-8.4,0-15.3,6.4-15.5,14.3c-3.2,1.5-5.4,4.7-5.4,8.4c0,4.3,2.9,7.9,6.9,8.9l42.8,0.3
					c4.9-0.2,8.9-4.2,8.9-9.2c0-3.6-2-6.7-5-8.2c0.3-0.7,0.5-1.6,0.5-2.4C249.8,294.4,247.1,291.7,243.8,291.7z"/>
				<path fill="#EB5B23" d="M210.4,332.7c1.1-2.1,1.2-11.5,1.2-11.5s-7.6,5.6-8.7,7.6c-1.1,2.1-0.3,4.6,1.8,5.7
					C206.8,335.6,209.3,334.8,210.4,332.7z"/>
				<path fill="#EB5B23" d="M226.1,332.7c1.1-2.1,1.2-11.5,1.2-11.5s-7.6,5.6-8.7,7.6c-1.1,2.1-0.3,4.6,1.8,5.7
					C222.5,335.6,225,334.8,226.1,332.7z"/>
				<path fill="#EB5B23" d="M237.3,334.5c2.1,1.1,4.6,0.3,5.7-1.8c1.1-2.1,1.2-11.5,1.2-11.5s-7.6,5.6-8.7,7.6
					C234.4,330.9,235.2,333.4,237.3,334.5z"/>
				<path fill="#EB5B23" d="M208.3,350.2c2.1,1.1,4.6,0.3,5.7-1.8c1.1-2.1,1.2-11.5,1.2-11.5s-7.6,5.6-8.7,7.6
					C205.4,346.6,206.3,349.1,208.3,350.2z"/>
				<path fill="#EB5B23" d="M224,350.2c2.1,1.1,4.6,0.3,5.7-1.8c1.1-2.1,1.2-11.5,1.2-11.5s-7.6,5.6-8.7,7.6
					C221.1,346.6,221.9,349.1,224,350.2z"/>
			</g>
		</g>
		<g>
			<circle fill="#098CCC" cx="225" cy="225" r="45"/>
			<g>
				<path fill="#335899" d="M244.9,205.2l-8.1,12.3l-8.4-12.3H244.9z M235.5,220.3h-18.1l9,34.4L235.5,220.3z M218,218.3h16.9
					l-8.4-12.3L218,218.3z M216.1,217.5l8.4-12.3H208L216.1,217.5z M224.5,255.3l-9.2-35h-19.8L224.5,255.3z M195.5,218.3h18.7
					l-8.1-12.3L195.5,218.3z M246.8,206l-8.1,12.3h18.7L246.8,206z M237.5,220.3l-9.2,35l29-35H237.5z"/>
			</g>
		</g>
		<g>
			<circle fill="#B12A2F" cx="225" cy="855" r="45"/>
			<g>
				<path fill="#5DB350" d="M248.9,831.1c-6.4-6.4-14.9-9.9-23.9-9.9c-9,0-17.5,3.5-23.9,9.9c-6.4,6.4-9.9,14.8-9.9,23.9
					c0,9,3.5,17.5,9.9,23.9s14.8,9.9,23.9,9.9c9,0,17.5-3.5,23.9-9.9c6.4-6.4,9.9-14.8,9.9-23.9C258.8,846,255.2,837.5,248.9,831.1z
					 M251.9,855c0,6-1.9,11.5-5.2,15.9l-18.1-18.1v-24.5C241.7,830.1,251.9,841.4,251.9,855z M221.4,881.7
					c-4.9-0.7-9.5-2.7-13.2-5.6l13.2-13.2V881.7z M228.6,862.9l13.2,13.2c-3.7,3-8.2,5-13.2,5.6V862.9z M221.4,828.3v24.5
					l-18.1,18.1c-3.3-4.5-5.2-10-5.2-15.9C198.1,841.4,208.3,830.1,221.4,828.3z"/>
			</g>
		</g>
		<g>
			<circle fill="#CE6BA7" cx="225" cy="405" r="45"/>
			<g>
				<g>
					<g>
						<path fill="#FFD134" d="M229.6,415.5c-0.3-0.3-0.6-0.5-0.9-0.7c-0.7-0.4-1.5-0.6-2.3-0.8v6c1.3-0.1,2.7-0.6,3.4-1.8l0,0
							c0.3-0.6,0.4-1.3,0.3-1.9C230,416.1,229.8,415.8,229.6,415.5z"/>
					</g>
					<g>
						<path fill="#FFD134" d="M229.8,418.3C229.8,418.3,229.8,418.3,229.8,418.3L229.8,418.3C229.8,418.3,229.8,418.3,229.8,418.3z"
							/>
					</g>
					<g>
						<path fill="#FFD134" d="M220.5,405.9c-0.2,0.3-0.4,0.7-0.4,1.1c0,0.4,0,0.8,0.1,1.2c0.1,0.3,0.4,0.6,0.7,0.8
							c0.3,0.2,0.7,0.4,1.1,0.6c0.3,0.1,0.7,0.3,1.1,0.4v-5.5C222.1,404.6,221.1,405,220.5,405.9z"/>
					</g>
					<g>
						<path fill="#FFD134" d="M229.8,418.3C229.8,418.3,229.8,418.3,229.8,418.3L229.8,418.3C229.8,418.3,229.8,418.3,229.8,418.3z"
							/>
					</g>
					<g>
						<path fill="#FFD134" d="M229.8,418.2C229.8,418.2,229.9,418.2,229.8,418.2L229.8,418.2z"/>
					</g>
					<g>
						<path fill="#FFD134" d="M228.5,385.4c5.1-4.3,8.6-14,6.5-14.5c-2.8-0.6-8.9,1.9-11.8,2.3c-4.2,0.5-8.7-4.5-11.3-1.7
							c-2.1,2.3,1.5,10.6,7.1,14.2c-16.6,8.2-40,49.2,0.8,52.2C276.2,442.1,247.9,393.3,228.5,385.4z M233.4,417.7
							c-0.2,1.6-1,3-2.3,4c-1.3,1-3,1.5-4.7,1.7v1.8c0,0.5-0.2,0.9-0.6,1.2c-0.5,0.4-1.2,0.5-1.8,0.3c-0.6-0.3-1-0.9-1-1.5v-1.9
							c-0.3-0.1-0.6-0.1-0.9-0.2c-1.6-0.4-3-1.3-4.1-2.5c-0.5-0.6-1-1.3-1.3-2.1c-0.1-0.2-0.1-0.4-0.2-0.6c-0.1-0.2-0.1-0.4-0.1-0.6
							c0-0.3,0-0.6,0.2-0.9c0.3-0.6,1-0.9,1.6-0.9c0.7,0.1,1.2,0.5,1.4,1.1c0.1,0.2,0.1,0.4,0.2,0.6c0.1,0.2,0.2,0.4,0.3,0.5
							c0.2,0.3,0.4,0.7,0.7,0.9c0.6,0.6,1.3,0.9,2.1,1.2v-6.6c-1.5-0.4-3.1-0.9-4.4-1.9c-0.6-0.5-1.1-1.1-1.5-1.8
							c-0.4-0.7-0.5-1.6-0.5-2.4c0-0.8,0.2-1.7,0.5-2.4c0.3-0.7,0.8-1.3,1.4-1.9c1.2-1.1,2.8-1.8,4.5-2v-0.1v-1.7
							c0-0.5,0.2-0.9,0.6-1.2c0.5-0.4,1.2-0.5,1.8-0.3c0.6,0.3,1,0.9,1,1.5v1.7v0.1c0.2,0,0.4,0.1,0.6,0.1c1.6,0.3,3.2,1,4.3,2.1
							c0.6,0.5,1,1.2,1.3,1.9c0.1,0.2,0.2,0.4,0.2,0.6c0.1,0.2,0.1,0.4,0.2,0.6c0,0.3,0,0.7-0.1,0.9c-0.3,0.6-0.9,1-1.6,1
							c-0.7,0-1.2-0.5-1.5-1.1c-0.1-0.2-0.1-0.4-0.2-0.6c-0.1-0.2-0.2-0.4-0.3-0.5c-0.2-0.3-0.5-0.6-0.8-0.8
							c-0.7-0.5-1.5-0.7-2.3-0.9v6.3c1,0.2,1.9,0.5,2.8,0.8c1.4,0.5,2.7,1.4,3.5,2.7c-0.1-0.2-0.2-0.4,0,0c0.2,0.4,0.1,0.2,0,0
							C233.3,415.3,233.5,416.5,233.4,417.7z"/>
					</g>
					<g>
						<path fill="#FFD134" d="M229.8,418.4C229.8,418.4,229.7,418.4,229.8,418.4C229.7,418.4,229.8,418.4,229.8,418.4z"/>
					</g>
				</g>
			</g>
		</g>
		<g>
			<circle fill="#3D5080" cx="225" cy="45" r="45"/>
			<g>
				<g>
					<g id="Icons_4_">
						<g>
							<path fill="#E62832" d="M234.5,61.7h-16.7c-1.2,0-2.2,1-2.2,2.2c0,1.2,1,2.2,2.2,2.2h16.7c1.2,0,2.2-1,2.2-2.2
								C236.7,62.7,235.7,61.7,234.5,61.7z"/>
							<path fill="#E62832" d="M221.8,75v1.2c0,1.4,1.1,2.5,2.5,2.5h3.7c1.4,0,2.5-1.1,2.5-2.5V75c2.8-0.2,5.1-2.5,5.1-5.4h-18.9
								C216.7,72.5,218.9,74.8,221.8,75z"/>
							<path fill="#E62832" d="M226.1,11.2c-12.5,0-22.6,10.1-22.6,22.5c0,5.3,1.8,10.1,4.8,13.9c2.7,3.4,5.2,7.1,7.4,10.8h20.7
								c2.2-3.8,4.7-7.4,7.4-10.8c3-3.8,4.8-8.7,4.8-13.9C248.7,21.3,238.6,11.2,226.1,11.2z M226.2,19.1c-8,0-14.5,6.5-14.5,14.5
								c0,1.2-1,2.2-2.2,2.2c-1.2,0-2.2-1-2.2-2.2c0-10.5,8.5-19,19-19c1.2,0,2.2,1,2.2,2.2S227.4,19.1,226.2,19.1z"/>
						</g>
					</g>
				</g>
			</g>
		</g>
		<g>
			<circle fill="#DC2787" cx="225" cy="495" r="45"/>
			<g>
				<g>
					<path fill="#F2B8C1" d="M240.7,496c-1.8-1.4-4.6-2.6-8.3-3.5l-2.9-0.6v-12.2c0.1,0.1,0.2,0.1,0.3,0.1s0.1,0,0.1,0.1
						c2.4,1.2,3.7,3.2,3.9,6h9.7c-0.2-5-2.1-8.9-5.7-11.6c-2.3-1.8-5.1-2.9-8.3-3.5v-6.8h-8.9v6.5c-4.2,0.5-7.5,1.8-9.9,4
						c-3.2,2.9-4.8,6.5-4.8,10.8c0,4.7,1.6,8.2,4.9,10.4c1.8,1.3,5,2.4,9.8,3.5v13.1c-1.8-0.5-3.1-1.3-4-2.4c-1-1.2-1.6-2.8-1.9-4.8
						h-9.6c0,4.9,1.8,8.8,5.4,11.7c2.6,2,6,3.3,10.1,3.9v5h8.9V521c4.4-0.6,7.8-2,10.4-4.1c3.4-2.9,5-6.6,5-11.1
						C244.9,501.5,243.5,498.3,240.7,496z M220.5,489.7c-1.4-0.4-2.4-0.8-3-1.1c-1.6-0.8-2.4-2.1-2.4-3.9c0-1.9,0.8-3.4,2.4-4.4
						c0.8-0.5,1.8-0.9,3-1.3V489.7z M231,512.2c-0.4,0.2-0.9,0.3-1.5,0.4v-11.2c1.6,0.5,2.8,1,3.6,1.5c1.4,0.9,2.1,2.2,2.1,3.8
						C235.2,509.4,233.8,511.2,231,512.2z"/>
				</g>
			</g>
		</g>
		<g>
			<circle fill="#EB5B23" cx="225" cy="585" r="45"/>
			<path fill="#8CCCC6" d="M220.1,616c-7.6-0.6-17.1-4.8-17.1-13.7c0-4.9,3.6-8.8,8.7-8.8c4,0,8.2,3.7,8.2,7.9
				c0,5.6-4.5,6.8-4.5,8.2c0,1.3,3.6,1.6,4.8,1.7V616z M220.1,558c-1.3,0.2-3.4,0.9-3.4,2.3c0,1.8,4.1,1.9,4.1,7.3
				c0,4.1-3.6,7.9-7.8,7.9c-4.7,0-8-3.5-8-8.1c0-8.3,7.7-13.1,15.1-14.3V558z M233.3,584c8.8,2.4,13.7,6.4,13.7,14.8
				c0,7.4-4.6,17.6-23.2,17.2v-4.8c3.8-0.9,5-3.5,5-7.3V593c0-3.7-0.6-7-5.3-7.2c-1.5-0.1-3.3-0.2-3.3-2.3c0-2.1,1.6-2.3,3.3-2.4
				c5.2-0.5,5.3-5.8,5.3-6.6v-9.4c0-3.6-1.1-6.6-5-7.5v-4.8c16.1-0.7,22.2,9.2,22.2,16c0,8-5.3,13-12.7,14.8V584z"/>
		</g>
		<g>
			<circle fill="#335899" cx="225" cy="135" r="45"/>
			<path fill="#8A6AAC" d="M221.2,167.6c-7.4-0.3-16.7-5.3-16.7-13.6c0-5,3.7-9,8.7-9c4.5,0,8.1,3.6,8,7.9c-0.1,5.1-4.2,6.7-4.2,7.7
				c0,1.3,3.1,1.9,4.1,2.2V167.6z M213.1,123.4l-0.8,9.5c2.3-2.2,5.4-4.3,8.9-5v6.3c-2.8,0.6-5.5,1.5-8.1,3.2
				c-0.9,0.6-2,1.3-3.1,1.3c-1.5,0-2.7-0.8-2.7-2.3l1.2-13.4L213.1,123.4z M227,106c5.8,0.5,14.4,0.2,18.6-1.4
				c-1.2,4.9-4,8.7-7.9,11.7c-5.2,3.7-10.4,4.3-16.6,4.3l-12.5-0.9l1.6-15.1L227,106z M225,162.9c4.3-1.2,4.6-5.7,4.6-8.6v-11.6
				c0-2.8-0.3-7.4-4.6-8.6v-6.6c12.5-0.2,22.8,6.4,22.8,20c0,13.6-10.3,20.3-22.8,20V162.9z"/>
		</g>
		<g>
			<circle fill="#D6202A" cx="225" cy="765" r="45"/>
			<path fill="#098CCC" d="M222.4,797.7c-7.4-0.3-16.7-5.3-16.7-13.6c0-5,3.7-9,8.7-9c4.5,0,8.1,3.6,8,7.9c-0.1,5.1-4.2,6.7-4.2,7.7
				c0,1.3,3.1,1.9,4.1,2.2V797.7z M214.3,753.5l-0.8,9.5c2.3-2.2,5.4-4.3,8.9-5v6.3c-2.8,0.6-5.5,1.5-8.1,3.2
				c-0.9,0.6-2,1.3-3.1,1.3c-1.5,0-2.7-0.8-2.7-2.3l1.2-13.4L214.3,753.5z M228.2,736.1c5.8,0.5,14.4,0.2,18.6-1.4
				c-1.2,4.9-4,8.7-7.9,11.7c-5.2,3.7-10.4,4.3-16.6,4.3l-12.5-0.9l1.6-15.1L228.2,736.1z M226.1,793c4.3-1.2,4.6-5.7,4.6-8.6v-11.6
				c0-2.8-0.3-7.4-4.6-8.6v-6.6c12.5-0.2,22.8,6.4,22.8,20c0,13.6-10.3,20.3-22.8,20V793z"/>
		</g>
	</g>
	<g>
		<g>
			<circle fill="#D6202A" cx="405" cy="765" r="45"/>
			<g>
				<path fill="#F4D937" d="M423.5,743.9l-8.1,12.3l-8.4-12.3H423.5z M414.1,759.1H396l9,34.4L414.1,759.1z M396.6,757h16.9
					l-8.4-12.3L396.6,757z M394.7,756.2l8.4-12.3h-16.6L394.7,756.2z M403.1,794.1l-9.2-35h-19.8L403.1,794.1z M374.1,757h18.7
					l-8.1-12.3L374.1,757z M425.4,744.8l-8.1,12.3h18.7L425.4,744.8z M416.1,759.1l-9.2,35l29-35H416.1z"/>
			</g>
		</g>
		<g>
			<circle fill="#098CCC" cx="405" cy="225" r="45"/>
			<g>
				<polygon fill="#F2DE7A" points="435.9,215.4 414.6,215.4 414.6,194.1 395.4,194.1 395.4,215.4 374.1,215.4 374.1,234.6 
					395.4,234.6 395.4,255.9 414.6,255.9 414.6,234.6 435.9,234.6 				"/>
			</g>
		</g>
		<g>
			<circle fill="#B12A2F" cx="405" cy="855" r="45"/>
			<g>
				<polygon fill="#5DB350" points="435.9,847.7 414.6,847.7 414.6,826.3 395.4,826.3 395.4,847.7 374.1,847.7 374.1,866.8 
					395.4,866.8 395.4,888.2 414.6,888.2 414.6,866.8 435.9,866.8 				"/>
			</g>
		</g>
		<g>
			<circle fill="#DC2787" cx="405" cy="495" r="45"/>
			<g>
				<path fill="#5DB350" d="M429.9,471.1c-6.4-6.4-14.9-9.9-23.9-9.9s-17.5,3.5-23.9,9.9c-6.4,6.4-9.9,14.8-9.9,23.9
					c0,9,3.5,17.5,9.9,23.9c6.4,6.4,14.8,9.9,23.9,9.9s17.5-3.5,23.9-9.9c6.4-6.4,9.9-14.8,9.9-23.9
					C439.8,486,436.3,477.5,429.9,471.1z M432.9,495c0,6-1.9,11.5-5.2,15.9l-18.1-18.1v-24.5C422.7,470.1,432.9,481.4,432.9,495z
					 M402.4,521.7c-4.9-0.7-9.5-2.7-13.2-5.6l13.2-13.2V521.7z M409.6,502.9l13.2,13.2c-3.7,3-8.2,5-13.2,5.6V502.9z M402.4,468.3
					v24.5l-18.1,18.1c-3.3-4.5-5.2-10-5.2-15.9C379.1,481.4,389.3,470.1,402.4,468.3z"/>
			</g>
		</g>
		<g>
			<circle fill="#EB5B23" cx="405" cy="585" r="45"/>
			<g>
				<g>
					<g>
						<path fill="#B5D16C" d="M410.6,596.1c-0.3-0.3-0.6-0.5-0.9-0.7c-0.7-0.4-1.5-0.6-2.3-0.8v6c1.3-0.1,2.7-0.6,3.4-1.8l0,0
							c0.3-0.6,0.4-1.3,0.3-1.9C411,596.7,410.8,596.3,410.6,596.1z"/>
					</g>
					<g>
						<path fill="#B5D16C" d="M410.8,598.9C410.8,598.9,410.8,598.9,410.8,598.9L410.8,598.9C410.8,598.9,410.8,598.9,410.8,598.9z"
							/>
					</g>
					<g>
						<path fill="#B5D16C" d="M401.5,586.4c-0.2,0.3-0.4,0.7-0.4,1.1c0,0.4,0,0.8,0.1,1.2c0.1,0.3,0.4,0.6,0.7,0.8
							c0.3,0.2,0.7,0.4,1.1,0.6c0.3,0.1,0.7,0.3,1.1,0.4v-5.5C403.1,585.1,402.1,585.6,401.5,586.4z"/>
					</g>
					<g>
						<path fill="#B5D16C" d="M410.8,598.8C410.8,598.9,410.8,598.9,410.8,598.8L410.8,598.8C410.8,598.9,410.8,598.9,410.8,598.8z"
							/>
					</g>
					<g>
						<path fill="#B5D16C" d="M410.9,598.8C410.9,598.8,410.9,598.8,410.9,598.8L410.9,598.8z"/>
					</g>
					<g>
						<path fill="#B5D16C" d="M409.5,565.9c5.1-4.3,8.6-14,6.5-14.5c-2.8-0.6-8.9,1.9-11.8,2.3c-4.2,0.5-8.7-4.5-11.3-1.7
							c-2.1,2.3,1.5,10.6,7.1,14.2c-16.6,8.2-40,49.2,0.8,52.2C457.2,622.6,428.9,573.9,409.5,565.9z M414.4,598.3
							c-0.2,1.6-1,3-2.3,4c-1.3,1-3,1.5-4.7,1.7v1.8c0,0.5-0.2,0.9-0.6,1.2c-0.5,0.4-1.2,0.5-1.8,0.3c-0.6-0.3-1-0.9-1-1.5v-1.9
							c-0.3-0.1-0.6-0.1-0.9-0.2c-1.6-0.4-3-1.3-4.1-2.5c-0.5-0.6-1-1.3-1.3-2.1c-0.1-0.2-0.1-0.4-0.2-0.6c-0.1-0.2-0.1-0.4-0.1-0.6
							c0-0.3,0-0.6,0.2-0.9c0.3-0.6,1-0.9,1.6-0.9c0.7,0.1,1.2,0.5,1.4,1.1c0.1,0.2,0.1,0.4,0.2,0.6c0.1,0.2,0.2,0.4,0.3,0.5
							c0.2,0.3,0.4,0.7,0.7,0.9c0.6,0.6,1.3,0.9,2.1,1.2v-6.6c-1.5-0.4-3.1-0.9-4.4-1.9c-0.6-0.5-1.1-1.1-1.5-1.8
							c-0.4-0.7-0.5-1.6-0.5-2.4c0-0.8,0.2-1.7,0.5-2.4c0.3-0.7,0.8-1.3,1.4-1.9c1.2-1.1,2.8-1.8,4.5-2v-0.1v-1.7
							c0-0.5,0.2-0.9,0.6-1.2c0.5-0.4,1.2-0.5,1.8-0.3c0.6,0.3,1,0.9,1,1.5v1.7v0.1c0.2,0,0.4,0.1,0.6,0.1c1.6,0.3,3.2,1,4.3,2.1
							c0.6,0.5,1,1.2,1.3,1.9c0.1,0.2,0.2,0.4,0.2,0.6c0.1,0.2,0.1,0.4,0.2,0.6c0,0.3,0,0.7-0.1,0.9c-0.3,0.6-0.9,1-1.6,1
							c-0.7,0-1.2-0.5-1.5-1.1c-0.1-0.2-0.1-0.4-0.2-0.6c-0.1-0.2-0.2-0.4-0.3-0.5c-0.2-0.3-0.5-0.6-0.8-0.8
							c-0.7-0.5-1.5-0.7-2.3-0.9v6.3c1,0.2,1.9,0.5,2.8,0.8c1.4,0.5,2.7,1.4,3.5,2.7c-0.1-0.2-0.2-0.4,0,0c0.2,0.4,0.1,0.2,0,0
							C414.3,595.8,414.5,597.1,414.4,598.3z"/>
					</g>
					<g>
						<path fill="#B5D16C" d="M410.8,598.9C410.8,598.9,410.8,599,410.8,598.9C410.8,599,410.8,598.9,410.8,598.9z"/>
					</g>
				</g>
			</g>
		</g>
		<g>
			<circle fill="#3D5080" cx="405" cy="45" r="45"/>
			<g>
				<path fill="#FFD134" d="M405,11.2c-18.6,0-33.8,15.1-33.8,33.8s15.1,33.8,33.8,33.8c18.6,0,33.8-15.1,33.8-33.8
					S423.6,11.2,405,11.2z M405,66.3c-11.8,0-21.3-9.5-21.3-21.3c0-11.8,9.5-21.3,21.3-21.3c11.8,0,21.3,9.5,21.3,21.3
					C426.3,56.8,416.8,66.3,405,66.3z"/>
				<circle fill="#FFD134" cx="405" cy="45" r="10.5"/>
			</g>
		</g>
		<g>
			<circle fill="#8A6AAC" cx="405" cy="315" r="45"/>
			<path fill="#95C569" d="M387.1,332.6l-0.2-0.2c1.7-2.5,3.2-5.6,3.2-8.8c0-2.7-0.7-7.1-1.7-9.1h-8.1v-4.7h6.9
				c-2.3-10.8,0.4-17.6,5.7-22c4.5-3.9,10.9-5,16.7-5c15.6,0,20.7,8.2,20.7,14.1c0,4.1-3.4,7-7.4,7c-3.5,0-6.2-2.7-6.2-6.2
				c0-2.8,1.8-4.5,3.8-6c-1.5-3-5-4-8.2-4.2c-5-0.2-7.7,4.5-7.7,8.9c0,3.6,0.6,6.7,2,13.4h13.9v4.7h-13.9c-0.2,2.6-0.6,5.3-1.7,7.9
				c-1.9,4.8-4.9,5.8-9.5,7.3L387.1,332.6z M390,334c4-1.5,12.1-3.7,16.4-3.7c8.3,0,10.5,5.2,15.2,5.2c1.7,0,2.3-0.8,3.2-2
				c0.6-0.9,1.1-1.9,2.3-1.9c1.1,0,1.4,0.8,1.4,1.9c0,4.2-5.5,13.8-16.7,13.8c-10,0-16.6-7.5-23.6-7.5c-2.5,0-4.5,1.4-6.1,1.4
				c-0.9,0-1.9-0.8-1.9-1.8c0-2,3.4-3,4.9-3.5L390,334z"/>
		</g>
		<g>
			<circle fill="#335899" cx="405" cy="135" r="45"/>
			<path fill="#CE6BA7" d="M386,152.6l-0.2-0.2c1.7-2.5,3.2-5.6,3.2-8.8c0-2.7-0.7-7.1-1.7-9.1h-8.1v-4.7h6.9
				c-2.3-10.8,0.4-17.6,5.7-22c4.5-3.9,10.9-5,16.7-5c15.6,0,20.7,8.2,20.7,14.1c0,4.1-3.4,7-7.4,7c-3.5,0-6.2-2.7-6.2-6.2
				c0-2.8,1.8-4.5,3.8-6c-1.5-3-5-4-8.2-4.2c-5-0.2-7.7,4.5-7.7,8.9c0,3.6,0.6,6.7,2,13.4h13.9v4.7h-13.9c-0.2,2.6-0.6,5.3-1.7,7.9
				c-1.9,4.8-4.9,5.8-9.5,7.3L386,152.6z M388.9,154c4-1.5,12.1-3.7,16.4-3.7c8.3,0,10.5,5.2,15.2,5.2c1.7,0,2.3-0.8,3.2-2
				c0.6-0.9,1.1-1.9,2.3-1.9c1.1,0,1.4,0.8,1.4,1.9c0,4.2-5.5,13.8-16.7,13.8c-10,0-16.6-7.5-23.6-7.5c-2.5,0-4.5,1.4-6.1,1.4
				c-0.9,0-1.9-0.8-1.9-1.8c0-2,3.4-3,4.9-3.5L388.9,154z"/>
		</g>
		<g>
			<circle fill="#E62832" cx="405" cy="675" r="45"/>
			<path fill="#098CCC" d="M411.8,705.9c-6.7,0-14.2-4.1-19.5-4.1c-2.8,0-4.2,2.9-5.8,2.9c-1.5,0-2.2-1.2-2.2-2.7
				c0-3.5,1.9-7.4,4.5-9.7c3.1-2.7,7-3.6,10.9-3.6c3.9,0,7.7,0.8,11.4,1.4c2.7,0.4,5.4,1,8.2,1c5.8,0,2.7-6,6.3-6
				c1.9,0,2.3,1.9,2.3,3.5c0,3.6-2.3,8.6-4.5,11.4C420.8,703.4,416.1,705.9,411.8,705.9z M400.2,647.9c-1,0.1-2.7,0.6-2.7,1.8
				c0,1.4,4.9,1.9,4.9,8.3c0,4.5-4.1,8.3-8.7,8.3c-5.3,0-8.8-4.1-8.8-9.3c0-8.2,8.1-13,15.3-13.9V647.9z M403.9,642.9
				c11-0.2,22.5,5.4,22.2,17.7c-0.2,9.5-6.6,15.1-15,18.3l-11.8,5.6l-0.8,0.6c-2.9,0-5.7,1.3-8.1,2.3l-0.2-0.2
				c8.1-11.4,17.5-9.1,17.7-26.6c0-1.1,0.2-11.1-4-13V642.9z"/>
		</g>
		<g>
			<circle fill="#CE6BA7" cx="405" cy="405" r="45"/>
			<path fill="#3D5080" d="M403.2,406.3c-2.8,1-2.8,3.3-2.8,3.7v17.3c0,0.4,0.1,3.5,2.8,4.5v4.7c-18.2,1.1-21-11.4-21-16.1
				c0-9.3,6-14.4,14.5-16.4v-0.2c-7.5-1.9-13.9-6.1-13.5-14.3c0.6-10.9,10.5-15.7,20-16.1v4.7c-3.2,1.3-2.8,4.2-2.8,4.6v14.7
				c0,0.4,0.2,3.2,2.8,4V406.3z M406.8,373.5c9.6,0.4,20.7,5.3,20,16.1c-0.6,8.3-6.1,12.4-13.5,14.3v0.2c8.5,1.9,14.5,7,14.5,16.4
				c0,4.7-2.8,17.3-21,16.1v-4.7c2.8-1.1,2.8-4.1,2.8-4.5V410c0-0.4,0-2.8-2.8-3.7v-4.7c2.7-0.9,2.8-3.6,2.8-4v-14.7
				c0-0.4,0.3-3.3-2.8-4.6V373.5z"/>
		</g>
	</g>
	<g>
		<g>
			<circle fill="#DC2787" cx="45" cy="495" r="45"/>
			<g>
				<path fill="#D7E1F2" d="M45,473c-25.8,0-39.4,19-39.4,22c0,3,13.5,22,39.4,22c25.8,0,39.4-19,39.4-22C84.4,492,70.8,473,45,473z
					 M45,512c-9.7,0-17.5-7.6-17.5-17c0-9.4,7.8-17,17.5-17c9.7,0,17.5,7.6,17.5,17C62.5,504.4,54.7,512,45,512z M53.7,495
					c0,4.7-3.9,8.5-8.7,8.5c-4.8,0-8.7-3.8-8.7-8.5c0-4.7,3.9-8.5,8.7-8.5c2.6,0-1.6,6.7,0,8.5C46.4,496.5,53.7,492.8,53.7,495z"/>
			</g>
		</g>
		<g>
			<circle fill="#098CCC" cx="45" cy="225" r="45"/>
			<g>
				<path fill="#FFD134" d="M45,195.1l-28.1,48.6h56.2L45,195.1L45,195.1z"/>
			</g>
		</g>
		<g>
			<circle fill="#8A6AAC" cx="45" cy="315" r="45"/>
			<g>
				<g>
					<polygon fill="#CE6BA7" points="45,271.1 55.7,301.2 84.4,301.2 61,318.9 69.3,349.9 45,331.3 20.7,349.9 29,318.9 5.6,301.2 
						34.3,301.2 					"/>
				</g>
			</g>
		</g>
		<g>
			<circle fill="#EB5B23" cx="45" cy="585" r="45"/>
			<g>
				<path fill="#662483" d="M68.9,561.1c-6.4-6.4-14.9-9.9-23.9-9.9c-9,0-17.5,3.5-23.9,9.9c-6.4,6.4-9.9,14.8-9.9,23.9
					c0,9,3.5,17.5,9.9,23.9s14.8,9.9,23.9,9.9c9,0,17.5-3.5,23.9-9.9c6.4-6.4,9.9-14.8,9.9-23.9C78.8,576,75.2,567.5,68.9,561.1z
					 M71.9,585c0,6-1.9,11.5-5.2,15.9l-18.1-18.1v-24.5C61.7,560.1,71.9,571.4,71.9,585z M41.4,611.7c-4.9-0.7-9.5-2.7-13.2-5.6
					l13.2-13.2V611.7z M48.6,592.9l13.2,13.2c-3.7,3-8.2,5-13.2,5.6V592.9z M41.4,558.3v24.5l-18.1,18.1c-3.3-4.5-5.2-10-5.2-15.9
					C18.1,571.4,28.3,560.1,41.4,558.3z"/>
			</g>
		</g>
		<g>
			<circle fill="#CE6BA7" cx="45" cy="405" r="45"/>
			<g>
				<g>
					<g id="Icons_1_">
						<g>
							<path fill="#B12A2F" d="M53.3,421.7H36.7c-1.2,0-2.2,1-2.2,2.2c0,1.2,1,2.2,2.2,2.2h16.7c1.2,0,2.2-1,2.2-2.2
								C55.6,422.7,54.6,421.7,53.3,421.7z"/>
							<path fill="#B12A2F" d="M40.6,435v1.2c0,1.4,1.1,2.5,2.5,2.5h3.7c1.4,0,2.5-1.1,2.5-2.5V435c2.8-0.2,5.1-2.5,5.1-5.4H35.5
								C35.5,432.5,37.8,434.8,40.6,435z"/>
							<path fill="#B12A2F" d="M45,371.2c-12.5,0-22.6,10.1-22.6,22.5c0,5.3,1.8,10.1,4.8,13.9c2.7,3.4,5.2,7.1,7.4,10.8h20.7
								c2.2-3.8,4.7-7.4,7.4-10.8c3-3.8,4.8-8.7,4.8-13.9C67.5,381.3,57.5,371.2,45,371.2z M45,379.1c-8,0-14.5,6.5-14.5,14.5
								c0,1.2-1,2.2-2.2,2.2c-1.2,0-2.3-1-2.3-2.2c0-10.5,8.5-19,19-19c1.2,0,2.2,1,2.2,2.2S46.3,379.1,45,379.1z"/>
						</g>
					</g>
				</g>
			</g>
		</g>
		<g>
			<circle fill="#E62832" cx="45" cy="675" r="45"/>
			<g>
				<path fill="#D7E1F2" d="M59.2,644.2c-5.6,0-10.6,2.5-14.2,6.5c-3.5-4-8.6-6.5-14.2-6.5c-10.7,0-19.3,9.1-19.3,20.2
					c0,3,0.5,5.9,1.4,8.6c0,0,0.8,2.5,1.5,3.9c8.1,17.5,30.6,28.9,30.6,28.9s22.4-11.4,30.6-28.9c0,0,1.1-2.3,1.5-3.9
					c0.8-2.8,1.4-5.6,1.4-8.6C78.5,653.3,69.8,644.2,59.2,644.2z"/>
			</g>
		</g>
		<g>
			<circle fill="#335899" cx="45" cy="135" r="45"/>
			<path fill="#B12A2F" d="M68.7,150.1c0,5.8-14.9,8.5-23.7,8.5c-8.8,0-23.6-2.7-23.6-8.5c0-0.9,0.3-1.7,1-2.5
				c8.1-16.6,6-24.3,10.4-30.5c2-2.7,4.3-4.5,8.1-5.3c0.2-2.2,1.9-3.8,4.2-3.8c2.2,0,4,1.7,4.2,3.8c3.7,0.8,6.1,2.6,8.1,5.3
				c4.4,6.2,2.3,13.9,10.4,30.5C68.3,148.4,68.7,149.2,68.7,150.1z M63.8,148.4c-3.4-4.1-12.2-4.9-18.8-4.9
				c-6.5,0-15.4,0.8-18.8,4.9c3.4,4.1,12.3,5.1,18.8,5C51.5,153.4,60.4,152.6,63.8,148.4z M41.2,146.4c0-0.5,2.6-0.6,3.7-0.6
				c2.9,0,3.7,0.3,3.7,0.6c0,2.3-1.7,4.2-3.7,4.2C42.9,150.6,41.2,148.8,41.2,146.4z"/>
		</g>
		<g>
			<circle fill="#3D5080" cx="45" cy="45" r="45"/>
			<path fill="#EB5B23" d="M73.2,45c0,15.6-12.6,28.1-28.2,28.1c-15.5,0-28.1-12.5-28.1-28.1c0-15.5,12.6-28.1,28.1-28.1
				C60.5,16.9,73.2,29.5,73.2,45z M26.8,63.3c1.7,1.7,3.6,3,5.6,4.2l6.4-12c1.8,1.1,4,1.7,6.4,1.7c6.9,0,12.2-5.4,12.2-12.2
				c0-3.3-1.3-6.4-3.4-8.5l11.5-7.3c-0.6-0.9-1.3-1.7-2.1-2.4c-1.7-1.7-3.6-3.1-5.7-4.4l-6.4,12c-1.7-1-3.9-1.7-6.2-1.7
				c-6.8,0-12.2,5.4-12.2,12.2c0,3.2,1.2,6.2,3.2,8.4l-11.6,7.3C25.2,61.6,26,62.4,26.8,63.3z M39.8,45c0-3,2.4-5.3,5.2-5.3
				c3,0,5.3,2.4,5.3,5.3c0,2.8-2.4,5.2-5.3,5.2C42.3,50.2,39.8,47.8,39.8,45z M42.4,45c0,1.6,1,2.6,2.6,2.6c1.6,0,2.7-1,2.7-2.6
				c0-1.6-1.1-2.7-2.7-2.7C43.5,42.3,42.4,43.4,42.4,45z"/>
		</g>
		<g>
			<circle fill="#D6202A" cx="45" cy="765" r="45"/>
			<path fill="#CE6BA7" d="M26.9,782.6l-0.2-0.2c1.7-2.5,3.2-5.6,3.2-8.8c0-2.7-0.7-7.1-1.7-9.1h-8.1v-4.7h6.9
				c-2.3-10.8,0.4-17.6,5.7-22c4.5-3.9,10.9-5,16.7-5c15.6,0,20.7,8.2,20.7,14.1c0,4.1-3.4,7-7.4,7c-3.5,0-6.2-2.7-6.2-6.2
				c0-2.8,1.8-4.5,3.8-6c-1.5-3-5-4-8.2-4.2c-5-0.2-7.7,4.5-7.7,8.9c0,3.6,0.6,6.7,2,13.4h13.9v4.7H46.3c-0.2,2.6-0.6,5.3-1.7,7.9
				c-1.9,4.8-4.9,5.8-9.5,7.3L26.9,782.6z M29.8,784c4-1.5,12.1-3.7,16.4-3.7c8.3,0,10.5,5.2,15.2,5.2c1.7,0,2.3-0.8,3.2-2
				c0.6-0.9,1.1-1.9,2.3-1.9c1.1,0,1.4,0.8,1.4,1.9c0,4.2-5.5,13.8-16.7,13.8c-10,0-16.6-7.5-23.6-7.5c-2.5,0-4.5,1.4-6.1,1.4
				c-0.9,0-1.9-0.8-1.9-1.8c0-2,3.4-3,4.9-3.5L29.8,784z"/>
		</g>
		<g>
			<circle fill="#B12A2F" cx="45" cy="855" r="45"/>
			<g>
				<path fill="#FFD134" d="M45.9,857c-2.9,1.6-6,2.7-9.3,2.7c-8.7,0-15.3-7-15.3-15.6c0-11.6,8.5-21.1,21.1-20.6v4.8
					c-2.8,0.6-3,2.4-3,2.8v18.6c0,0.4,0.1,3.5,3,3.8c1.1,0,2.5-0.7,3.5-1.3V857z M42.4,886.5c-7.3-0.1-17.1-4.9-17.1-13.1
					c0-5.2,3.9-8.7,8.9-8.7c3.9,0,7.6,3.2,7.7,7.1c0.1,4.4-3.2,5.2-3.2,7.5c0,1.6,2.2,2.4,3.6,2.4V886.5z M46.1,823.5
					c10.8,0.2,22.3,11.2,22.7,31.5c-0.4,20.3-11.9,31.4-22.7,31.5v-4.8c3.7-0.6,4.5-3.6,4.5-7.1v-39.3c0-3.5-0.8-6.5-4.5-7.1V823.5z
					"/>
			</g>
		</g>
	</g>
</g>
</svg>
