<?xml version="1.0" encoding="utf-8"?>
<!-- Generator: Adobe Illustrator 16.0.0, SVG Export Plug-In . SVG Version: 6.00 Build 0)  -->
<!DOCTYPE svg PUBLIC "-//W3C//DTD SVG 1.1//EN" "http://www.w3.org/Graphics/SVG/1.1/DTD/svg11.dtd">
<svg version="1.1" id="Calque_1" xmlns="http://www.w3.org/2000/svg" xmlns:xlink="http://www.w3.org/1999/xlink" x="0px" y="0px"
	 width="352.912px" height="280.623px" viewBox="0 0 352.912 280.623" enable-background="new 0 0 352.912 280.623"
	 xml:space="preserve">
<g>
	<path d="M3.507,233.642l0.117,2.971c41.112,1.105,67.085,12.404,77.334,33.894c1.526,3.212,2.662,6.599,3.463,10.117H352.91V63.715
		c-19.043,29.292-39.076,55.556-53.228,62.194c-0.697,0.291-1.339,0.406-1.921,0.406c-14.034,0-26.263-67.785-31.039-113.381
		L265.21-1.623l-1.339,14.558c-4.077,42.627-11.704,121.941-42.628,132.598c-1.223,0.409-2.737,0.698-4.191,0.698
		c-30.748,0-91.078-89.447-91.604-90.378l-6.638-9.957l4.076,11.297c20.148,56.08,24.924,92.301,14.151,107.558
		c-3.785,5.3-9.667,8.035-17.412,8.035c-26.788,0-67.784-31.854-68.192-32.262l-1.922,2.33
		c22.478,19.217,31.737,36.223,27.486,50.605C68.264,223.567,4.206,233.467,3.507,233.642z"/>
	<path fill="#F39200" d="M15.096,237.427c51.582,1.268,73.014,19.372,78.464,43.195h259.352V68.724
		c-18.637,29.292-40.183,58.64-55.147,65.746c-20.964,9.958-33.484-108.781-33.484-108.781
		c-4.894,51.479-12.812,117.576-41.521,127.533c-28.711,9.959-92.942-86.011-92.942-86.011
		C198.01,257.11,59.588,148.39,59.588,148.39C141.638,218.618,15.096,237.427,15.096,237.427z"/>
	<path d="M118.009,280.623H352.91v-94.44c-2.854-2.154-5.299-5.299-7.222-9.783c-8.035-19.217-0.116-48.567,6.405-67.261
		c-4.892,14.034-16.479,30.515-26.671,41.404c-6.521,6.931-16.072,15.492-26.146,15.492c-2.736,0-5.416-0.524-8.035-2.04
		c-18.229-9.377-19.857-41.229-23.526-58.643c1.224,6-4.077,21.373-5.883,27.487c-1.747,6.522-3.26,13.628-5.297,20.267
		c-4.368,14.149-12.64,25.973-27.778,29.406c-1.341,0.293-2.562,0.408-3.962,0.408c-11.704,0-22.594-11.182-30.922-17.995
		c-8.735-7.221-22.304-21.37-26.38-32.261c7.104,18.633,11.182,40.298-0.815,57.593c-3.146,4.601-6.405,7.338-11.704,8.968
		c-4.367,1.34-8.852,1.922-13.453,1.922c-6.406,0-12.811-1.106-18.635-2.97c-4.484-1.516-24.924-9.669-26.38-14.27
		c1.747,5.417,6.289,10.075,8.152,16.073c3.378,10.481,11.182,30.224,0.699,39.076c-2.97,2.562-6.93,3.377-11.182,3.377
		c-6.813,0-14.558-2.039-20.557-2.039c-0.524,0-1.223,0-1.747,0C90.003,246.899,108.67,262.146,118.009,280.623z"/>
	<path fill="#FFDE00" d="M122.795,280.623h230.116v-88.679c-4.602-2.443-8.968-6.694-11.997-13.857
		c-3.959-9.377-4.774-21.488-2.562-36.223c-3.378,4.484-6.93,8.562-9.958,11.822c-6.93,7.338-17.586,17.002-29.698,17.002
		c-3.553,0-7.104-0.813-10.191-2.562c-12.928-6.696-18.401-22.303-21.662-37.444c-0.409,1.34-0.699,2.445-0.933,3.379
		c-0.698,2.562-1.339,5.299-2.038,8.035c-0.934,4.077-2.039,8.327-3.261,12.404c-5.416,17.995-16.307,29.291-31.33,32.669
		c-1.631,0.408-3.262,0.524-4.893,0.524c-11.822,0-22.07-8.853-30.223-15.898c-1.223-1.107-2.444-2.154-3.669-3.146
		c-3.146-2.562-7.745-6.812-12.404-11.82c1.63,14.15-1.104,26.146-7.92,36.223c-3.959,5.705-8.153,8.852-14.269,10.772
		c-4.601,1.34-9.666,2.153-14.849,2.153c-6.522,0-13.452-1.105-20.148-3.26c-2.155-0.699-7.221-2.736-12.404-5.009
		c0.117,0.293,0.117,0.409,0.292,0.698c0.292,0.816,0.524,1.631,0.815,2.445c3.96,11.705,10.598,31.446-1.515,41.812
		c-3.377,2.97-8.036,4.366-13.859,4.482C106.239,255.769,116.711,267.502,122.795,280.623z"/>
</g>
</svg>
