<?xml version="1.0" encoding="utf-8"?>
<!-- Generator: Adobe Illustrator 16.0.0, SVG Export Plug-In . SVG Version: 6.00 Build 0)  -->
<!DOCTYPE svg PUBLIC "-//W3C//DTD SVG 1.1//EN" "http://www.w3.org/Graphics/SVG/1.1/DTD/svg11.dtd">
<svg version="1.1" id="Calque_1" xmlns="http://www.w3.org/2000/svg" xmlns:xlink="http://www.w3.org/1999/xlink" x="0px" y="0px"
	 width="171.266px" height="278.523px" viewBox="0 35 171.266 278.523" enable-background="new 0 35 171.266 278.523"
	 xml:space="preserve">
<path d="M150.278,313.524c-27.589-5.619-62.211-15.118-71.007-35.686c-9.062-20.965,10.646-46.951,25.115-65.896
	c2.13-2.84,4.095-5.406,5.788-7.808c8.243-11.356,17.415-22.275,26.368-32.758c11.356-13.321,23.094-27.243,32.759-41.983
	l1.966-3.112l-3.714,0.709c-0.981,0.163-1.856,0.874-2.838,1.693c-20.691,17.58-99.091,46.951-137.47,51.483
	c-3.714,0.435-6.662-0.711-8.955-3.714C0.873,153.907,28.663,47.066,28.934,45.919L31.774,35l-5.678,9.772
	C18.015,58.53,9.063,73.271,0,87.466v226.058H150.278z"/>
<path fill="#F39200" d="M130.494,313.524c-25.173-5.617-53.452-14.839-61.484-33.337c-10.375-23.804,16.869-54.051,29.645-71.574
	c17.578-24.404,39.854-46.079,56.231-71.138c-0.545,0.165-1.42,0.709-1.965,1.256c-20.583,17.416-96.797,45.368-131.847,49.462
	c-35.05,4.095,0-129.717,0-129.717C14.959,68.904,7.754,80.805,0.108,92.871v220.653H130.494z"/>
<path d="M56.877,313.524c-6.683-5.125-12.272-11.987-16.259-21.162c-12.884-29.755,2.128-58.8,17.033-80.366
	c-3.822,5.516-29.917,7.098-36.142,7.371c-1.584,0.163-3.003,0.163-4.422,0.163c-6.827,0-12.502-1.146-17.033-4.53v98.524H56.877z"
	/>
<path fill="#FFDE00" d="M48.664,313.524c-6.6-6.259-10.404-13.123-12.958-19.144c-11.629-26.969-2.294-52.63,9.335-72.393
	c-5.678,0.981-13.321,1.964-23.694,2.403c-1.692,0.163-3.112,0.163-4.533,0.163c-5.24,0-11.19-0.546-16.595-3.386v92.355H48.664z"/>
</svg>
