<?xml version="1.0" encoding="utf-8"?>
<!-- Generator: Adobe Illustrator 16.0.0, SVG Export Plug-In . SVG Version: 6.00 Build 0)  -->
<!DOCTYPE svg PUBLIC "-//W3C//DTD SVG 1.1//EN" "http://www.w3.org/Graphics/SVG/1.1/DTD/svg11.dtd">
<svg version="1.1" id="Calque_1" xmlns="http://www.w3.org/2000/svg" xmlns:xlink="http://www.w3.org/1999/xlink" x="0px" y="0px"
	 width="413.495px" height="400.329px" viewBox="-58.008 -56.161 413.495 400.329"
	 enable-background="new -58.008 -56.161 413.495 400.329" xml:space="preserve">
<g>
	<g>
		<g>
			<g>
				<path d="M-23.554,49.182c0,0,106.699,83.834,54.112-62.496c0,0,49.535,73.925,71.641,66.306
					c22.1-7.622,28.196-58.687,32.007-98.315c0,0,9.684,91.455,25.801,83.834c16.115-7.62,42.029-48.778,58.035-76.214
					c0,0-25.913,99.078,0,96.028c25.91-3.048,82.307-23.626,97.55-36.582c0.471-0.4,1.049-0.88,1.509-0.972
					c-12.188,18.545-28.637,34.649-41.692,52.683c-9.422,13.016-29.507,35.382-21.897,53.01c8.759,20.26,50.518,25.488,68.922,29.24
					c9.837,2.01,21.178,2.01,30.231,5.51c-30.534,13.798-71.175,7.703-97.061,31.643c-9.663,8.935-13.317,21.062-11.638,33.987
					c1.204,9.264,4.828,18.148,9.06,26.405c4.786,9.346,12.613,26.269,21.411,32.191c-0.013-0.01-128.034-86.111-122.701,54.113
					c0,0-67.832-124.991-127.275-25.152c-59.448,99.837,76.973-131.849-57.16-68.594c0,0,96.791-124.989-25.15-128.035
					C-57.849,117.775,39.701,103.294-23.554,49.182z"/>
			</g>
		</g>
		<g>
			<g>
				<path d="M153.005,344.168l-2.226-4.096c-0.343-0.632-34.813-63.255-75.144-63.255c-18.267,0-35.168,12.831-50.238,38.142
					C9.993,340.827,9.841,340.83,8.664,340.835l-0.574,0.003l-0.387-0.504c-0.542-0.775-0.349-1.434,2.908-10.068
					c7.637-20.238,25.52-67.638,12.411-86.593c-7.921-11.458-26.696-10.347-55.252,3.123l-4.105,1.936l2.778-3.59
					c0.5-0.644,49.788-64.982,32.519-101.332c-7.503-15.799-26.627-24.194-56.835-24.948l-0.134-2.167
					c0.474-0.07,47.624-7.322,53.99-29.453c3.05-10.606-3.761-23.132-20.243-37.233l1.381-1.684
					c0.303,0.236,30.365,23.671,50.102,23.671c5.695,0,9.985-1.996,12.753-5.932c7.884-11.209,4.37-37.792-10.442-79.009
					l-2.987-8.315l4.92,7.341c0.442,0.665,44.736,66.372,67.295,66.372c1.101,0,2.141-0.166,3.085-0.49
					c22.664-7.816,28.265-66.085,31.278-97.39l1.031-10.735l1.135,10.724c3.545,33.491,12.551,83.312,22.815,83.312
					c0.473,0,0.944-0.114,1.436-0.346c15.24-7.208,39.714-45.188,57.561-75.778l4.006-6.867l-2.011,7.692
					c-0.2,0.759-19.729,76.175-7.469,92.05c1.604,2.079,3.646,2.933,6.284,2.62c27.061-3.184,82.342-23.895,96.975-36.33
					c0.659-0.559,1.307-1.071,2.001-1.209l2.554-0.512l-1.431,2.179c-6.825,10.388-15.1,20.148-23.099,29.587
					c-6.324,7.467-12.864,15.184-18.622,23.136c-1.22,1.685-2.615,3.524-4.104,5.488c-10.152,13.37-24.052,31.681-17.673,46.452
					c7.485,17.314,40.763,23.487,60.648,27.176c2.765,0.513,5.294,0.983,7.491,1.429c3.565,0.729,7.433,1.202,11.17,1.658
					c6.577,0.805,13.381,1.638,19.238,3.902l2.426,0.939l-2.372,1.07c-12.313,5.564-26.421,7.956-40.068,10.268
					c-20.344,3.45-41.384,7.014-56.704,21.18c-9.104,8.42-13.009,19.847-11.296,33.049c1.021,7.845,3.865,16.122,8.951,26.047
					c0.506,0.993,1.051,2.072,1.627,3.216c4.695,9.332,11.793,23.436,19.421,28.571l-1.216,1.807
					c-0.385-0.26-39.05-25.981-72.319-25.981c-13.403,0-24.213,4.167-32.123,12.382c-12.193,12.668-17.766,35.132-16.56,66.767
					L153.005,344.168z M75.635,274.639c36.189,0,66.619,46.684,74.888,60.608c-0.56-29.978,5.249-51.499,17.294-64.011
					c8.338-8.658,19.673-13.051,33.693-13.051c24.983,0,52.179,13.706,65.421,21.36c-5.265-6.72-9.869-15.874-13.254-22.599
					c-0.575-1.137-1.116-2.213-1.623-3.2c-5.202-10.155-8.117-18.659-9.168-26.763c-1.786-13.73,2.469-26.134,11.976-34.928
					c15.791-14.606,37.155-18.227,57.814-21.728c12.562-2.129,25.515-4.325,36.961-8.999c-5.001-1.513-10.621-2.202-16.085-2.869
					c-3.777-0.462-7.684-0.94-11.341-1.688c-2.184-0.445-4.7-0.911-7.452-1.424c-20.31-3.765-54.304-10.072-62.25-28.453
					c-6.882-15.942,7.463-34.835,17.936-48.634c1.479-1.949,2.87-3.776,4.078-5.447c5.805-8.019,12.374-15.771,18.729-23.266
					c6.617-7.809,13.424-15.843,19.413-24.237c-19.67,13.436-71.023,31.334-94.497,34.095c-3.46,0.403-6.196-0.771-8.266-3.452
					c-10.687-13.84,0.618-67.011,5.289-86.672c-17.562,29.531-40.055,63.277-54.719,70.214c-0.782,0.369-1.577,0.556-2.37,0.556
					c-12.807,0-20.869-52.215-23.81-75.306c-4.282,40.977-11.268,82.217-31.74,89.276c-1.174,0.406-2.451,0.61-3.795,0.61
					c-19.5,0-52.42-43.685-64.524-60.731c12.792,37.64,15.327,62.323,7.522,73.417c-3.199,4.551-8.092,6.858-14.535,6.858
					c-12.751,0-29.074-8.967-39.883-15.977c9.68,10.832,13.288,20.772,10.735,29.646c-5.046,17.544-32.592,26.018-47.013,29.304
					c26.007,2.128,42.759,10.765,49.868,25.729c15.697,33.049-20,86.085-30.208,100.163c27.717-12.361,45.869-12.495,54.09-0.606
					c13.759,19.895-4.405,68.043-12.165,88.603c-0.311,0.822-0.617,1.637-0.91,2.417c2.817-4.546,7.001-11.573,11.789-19.609
					C39.016,287.829,56.546,274.639,75.635,274.639z"/>
			</g>
		</g>
	</g>
	<g>
		<g>
			<path fill="#F39200" d="M-16.823,54.078c0,0,101.698,79.907,51.576-59.566c0,0,47.215,70.46,68.284,63.198
				c21.066-7.264,26.876-55.934,30.509-93.708c0,0,9.23,87.171,24.591,79.909c15.361-7.267,40.061-46.492,55.315-72.643
				c0,0-24.697,94.436,0,91.528c24.696-2.906,78.453-22.519,92.981-34.867c0.45-0.383,1.002-0.841,1.438-0.927
				c-11.615,17.675-27.294,33.026-39.739,50.215c-8.98,12.405-28.128,33.725-20.873,50.524
				c8.351,19.313,48.151,24.297,65.694,27.873c9.378,1.917,20.185,1.916,28.815,5.252c-29.104,13.152-67.842,7.343-92.516,30.158
				c-9.21,8.518-12.692,20.075-11.091,32.396c1.147,8.832,4.603,17.299,8.636,25.169c4.562,8.908,12.02,25.038,20.409,30.682
				c-0.011-0.008-122.039-82.077-116.954,51.576c0,0-64.652-119.13-121.313-23.969c-56.66,95.158,73.368-125.672-54.48-65.379
				c0,0,92.254-119.131-23.971-122.04C-49.512,119.457,43.468,105.655-16.823,54.078z"/>
		</g>
	</g>
	<g>
		<g>
			<g>
				<path fill="#FFDE00" d="M141.309,295.827c-3.119-5.309-6.654-11.326-10.575-17.285c-9.464-14.377-24.239-33.489-43.201-33.489
					c-6.231,0-12.557,2.091-18.803,6.213c-8.898,5.878-16.881,14.804-23.924,23.661c0.507-1.799,1.031-3.578,1.548-5.334
					c3.792-12.884,7.376-25.054,3.361-39.269c-2.999-10.618-9.611-16.587-19.652-17.742c-0.834-0.097-1.686-0.145-2.531-0.145
					c-6.955,0-13.216,3.238-19.272,6.368c-3.331,1.722-6.543,3.384-9.821,4.534c0.229-0.291,0.456-0.582,0.682-0.874
					c0.665-0.854,1.292-1.665,1.887-2.323c2.588-2.868,5.284-5.617,7.889-8.278c10.922-11.146,21.238-21.675,23.1-39.514
					c2.025-19.412-12.771-38.315-29.994-48.113c2.169,0.304,4.368,0.559,6.507,0.559c3.999,0,7.051-0.938,9.33-2.869
					c8.025-6.8,3.392-20.559,0.624-28.781c-0.217-0.641-0.422-1.251-0.61-1.825c-0.576-1.757-1.421-3.343-2.319-4.855
					c5.901,3.187,13.324,5.814,13.441,5.853c4.69,1.527,9.607,2.334,14.22,2.334c3.689,0,7.19-0.505,10.4-1.5
					c4.124-1.277,6.895-3.379,9.565-7.255c5.749-8.352,7.26-18.68,4.54-31.343c4.443,5.463,9.697,10.4,12.919,13.071
					c0.865,0.718,1.771,1.501,2.715,2.316c5.822,5.031,13.068,11.292,21.083,11.292c1.091,0,2.18-0.119,3.234-0.354
					c10.539-2.345,17.849-10.006,21.729-22.771c0.9-2.958,1.669-6.032,2.414-9.003c0.502-2.01,1.001-4.005,1.537-5.946
					c0.231-0.845,0.559-1.928,0.93-3.161c0.66-2.186,1.293-4.333,1.837-6.366c2.135,12.507,5.499,27.909,16.35,33.498
					c2.138,1.102,4.404,1.66,6.737,1.66c8.23,0,15.639-6.833,20.494-11.973c3.59-3.797,7.896-9.082,11.74-14.918
					c-3.141,14.053-3.027,25.234,0.355,33.366c4.202,10.102,11.9,11.464,18.879,11.464c0.98,0,2.013-0.029,3.159-0.09
					c6.9-0.366,14.887-1.114,20.438-2.64c-8.863,14.029-17.196,33.167-8.604,53.065c7.677,17.785,23.834,23.399,38.206,25.242
					c-17.948,5.809-41.253,17.547-47.678,40.162c-4.382,15.435,1.727,29.607,10.253,42.289c-4.637-3.736-9.485-7.155-14.793-9.286
					c-6.53-2.629-13.576-4.015-20.373-4.015c-3.457,0-6.838,0.358-10.041,1.067c-11.591,2.565-27.122,8.526-35.29,22.354
					c-5.789,9.794-4.542,22.951-3.34,35.677c0.285,3.006,0.56,5.921,0.73,8.697C142.669,298.143,141.996,296.997,141.309,295.827z"
					/>
				<path d="M135.74,41.145c2.364,11.097,6.417,22.651,15.911,27.541c2.386,1.229,4.922,1.853,7.536,1.853
					c8.903,0,16.686-7.145,21.763-12.519c2.253-2.384,4.785-5.348,7.314-8.665c-1.585,10.823-0.955,19.718,1.901,26.583
					c4.623,11.114,13.378,12.541,20.491,12.541c1.012,0,2.075-0.03,3.249-0.094c7.35-0.388,12.735-1.018,16.703-1.749
					c-8.179,13.981-14.756,32.147-6.562,51.123c3.865,8.952,11.434,20.429,32.911,25.083c-30.146,11.427-39.542,28.89-42.458,39.15
					c-3.697,13.017-0.294,25.066,5.775,36.085c-2.551-1.653-5.2-3.103-7.987-4.224c-6.735-2.708-14.006-4.14-21.022-4.14
					c-3.586,0-7.092,0.372-10.42,1.108c-17.105,3.787-29.696,11.8-36.415,23.17c-6.075,10.283-4.747,24.333-3.574,36.729
					c0.034,0.359,0.067,0.715,0.102,1.073c-2.656-4.501-5.583-9.371-8.769-14.212c-9.686-14.713-24.853-34.273-44.658-34.273
					c-6.58,0-13.229,2.187-19.765,6.502c-6.871,4.538-13.174,10.816-18.921,17.48c3.399-11.692,6.393-23.829,2.549-37.441
					c-3.167-11.204-10.474-17.774-21.132-19.001c-0.9-0.104-1.817-0.155-2.731-0.155c-7.378,0-13.833,3.336-20.074,6.564
					c-0.901,0.463-1.791,0.924-2.677,1.372c1.785-1.894,3.593-3.739,5.361-5.544c11.142-11.369,21.665-22.109,23.59-40.554
					c1.86-17.833-9.885-35.224-24.925-45.99c4.287-0.047,7.612-1.122,10.161-3.28c8.929-7.565,4.059-22.027,1.15-30.667
					c-0.216-0.638-0.419-1.243-0.606-1.812c-0.056-0.169-0.113-0.336-0.172-0.502c3.774,1.731,7.508,3.184,9.097,3.702
					c4.863,1.583,9.965,2.421,14.76,2.421c3.865,0,7.539-0.532,10.917-1.579c4.533-1.405,7.572-3.702,10.487-7.933
					c5.073-7.371,7.013-16.156,5.824-26.579c3.385,3.635,6.754,6.729,9.083,8.661c0.856,0.709,1.752,1.485,2.688,2.292
					c6.042,5.219,13.56,11.716,22.224,11.716c1.219,0,2.434-0.133,3.614-0.396c11.041-2.457,19-10.744,23.02-23.965
					c0.913-3.001,1.688-6.096,2.437-9.088c0.513-2.054,0.999-3.993,1.526-5.91C135.198,42.953,135.449,42.112,135.74,41.145
					 M135.919,22.475c0.912,4.365-3.028,15.704-4.27,20.224c-1.333,4.839-2.448,10.012-3.936,14.905
					c-3.158,10.389-9.314,19.098-20.438,21.573c-0.958,0.213-1.911,0.312-2.856,0.312c-8.611,0-16.646-8.201-22.685-13.206
					c-6.386-5.295-16.435-15.708-19.448-23.665c5.194,13.718,8.163,29.614-0.56,42.291c-2.342,3.396-4.694,5.354-8.646,6.578
					c-3.17,0.983-6.517,1.423-9.884,1.423c-4.658,0-9.357-0.841-13.679-2.249c-3.343-1.09-18.266-7.137-19.367-10.548
					c1.287,3.983,4.628,7.432,6.046,11.754c2.545,7.749,8.211,22.209,0.515,28.729c-2.213,1.876-5.09,2.455-8.201,2.455
					c-5.042,0-10.697-1.524-15.12-1.524c-0.441,0-0.872,0.016-1.286,0.049c19.798,7.07,40.467,28.435,38.156,50.592
					c-2.24,21.473-17.324,32.147-30.547,46.803c-2.117,2.342-4.425,6.204-7.043,7.519c12.292-1.374,22.555-12.31,34.861-12.31
					c0.769,0,1.546,0.043,2.331,0.132c9.774,1.126,15.516,7.082,18.174,16.484c5.251,18.592-3.132,34.166-6.983,51.811
					c7.878-10.346,17.65-22.63,28.638-29.888c6.274-4.142,12.221-5.924,17.841-5.924c16.907,0,30.838,16.138,41.743,32.702
					c6.345,9.64,11.663,19.422,15.946,26.26c0.393-15.158-5.735-36.545,2.213-49.992c7.23-12.238,20.762-18.571,34.165-21.538
					c3.153-0.699,6.4-1.027,9.664-1.027c6.742,0,13.552,1.406,19.725,3.888c9.416,3.785,17.58,11.973,25.545,18.385
					c-11.869-15.015-24.268-32.837-18.676-52.529c6.803-23.946,33.634-36.104,55.721-41.599c-19.282-0.8-37.948-5.559-46.326-24.971
					c-9.071-21.006,1.458-41.521,11.974-56.71c-2.678,3.87-21.144,5.004-25.505,5.234c-1.054,0.056-2.076,0.088-3.065,0.088
					c-8,0-13.818-2.096-17.269-10.389c-5.874-14.122-0.074-35.668,4.668-49.373c-3.571,10.313-12.116,22.435-19.643,30.398
					c-4.818,5.1-11.81,11.427-19.226,11.427c-1.961,0-3.951-0.442-5.937-1.465C139.852,58.682,138.599,35.324,135.919,22.475
					L135.919,22.475z"/>
			</g>
		</g>
	</g>
</g>
</svg>
