<?xml version="1.0" encoding="utf-8"?>
<!-- Generator: Adobe Illustrator 18.1.1, SVG Export Plug-In . SVG Version: 6.00 Build 0)  -->
<svg version="1.1" xmlns="http://www.w3.org/2000/svg" xmlns:xlink="http://www.w3.org/1999/xlink" x="0px" y="0px"
	 viewBox="0 0 1000 1000" enable-background="new 0 0 1000 1000" xml:space="preserve">
<g id="Calque_2">
</g>
<g id="Calque_3">
	<path opacity="0.85" fill="#FFFFFF" d="M139.8,122.5l27,37.3c0.8,1.1,2.1,1.6,3.4,1.4l45.3-8.2c3-0.5,5.2,2.9,3.4,5.4l-27.2,37.2
		c-0.8,1.1-0.9,2.5-0.3,3.6l21.8,40.6c1.5,2.7-1.1,5.8-4.1,4.9l-43.8-14.4c-1.2-0.4-2.6-0.1-3.5,0.9L130,264.4
		c-2.1,2.2-5.9,0.7-5.9-2.4l0.1-46.1c0-1.3-0.7-2.5-1.9-3.1l-41.5-20c-2.8-1.3-2.5-5.4,0.4-6.3l43.9-14.1c1.3-0.4,2.2-1.5,2.3-2.8
		l6.2-45.6C134,120.9,138,120,139.8,122.5z"/>
	<path opacity="0.85" fill="#FFFFFF" d="M874.9,728.7l5.8,45.7c0.2,1.3,1.1,2.4,2.3,2.8l43.7,14.5c2.9,1,3.2,5,0.4,6.3l-41.7,19.6
		c-1.2,0.6-2,1.8-2,3.1l-0.3,46.1c0,3.1-3.8,4.6-5.9,2.3l-31.6-33.6c-0.9-1-2.3-1.3-3.5-0.9l-43.9,14c-2.9,0.9-5.5-2.2-4-4.9
		l22.2-40.4c0.6-1.2,0.5-2.6-0.2-3.6l-26.8-37.4c-1.8-2.5,0.4-5.9,3.4-5.3l45.3,8.6c1.3,0.2,2.6-0.3,3.4-1.3l27.3-37.1
		C870.6,724.6,874.5,725.6,874.9,728.7z"/>
	<path opacity="0.85" fill="#FFFFFF" d="M452.9,874.2l14.4,36.9c0.4,1.1,1.4,1.8,2.5,1.9l39.5,2.9c2.6,0.2,3.7,3.5,1.6,5.2
		l-30.6,25.1c-0.9,0.7-1.3,1.9-1,3l9.4,38.5c0.6,2.6-2.2,4.6-4.4,3.2L451,969.5c-1-0.6-2.2-0.6-3.1,0l-33.7,20.9
		c-2.3,1.4-5.1-0.7-4.4-3.2l10-38.4c0.3-1.1-0.1-2.3-0.9-3l-30.3-25.6c-2-1.7-0.9-5,1.7-5.2l39.6-2.3c1.1-0.1,2.1-0.8,2.5-1.8
		l15-36.7C448.5,871.7,451.9,871.7,452.9,874.2z"/>
	<path opacity="0.85" fill="#FFFFFF" d="M590.3,67.4l-0.5,25.7c0,0.7,0.4,1.4,1,1.7l23,11.6c1.5,0.8,1.3,3-0.3,3.5l-24.6,7.5
		c-0.7,0.2-1.2,0.8-1.3,1.5l-3.9,25.4c-0.3,1.7-2.5,2.2-3.4,0.8L565.5,124c-0.4-0.6-1.1-0.9-1.9-0.8l-25.4,4.1
		c-1.7,0.3-2.9-1.7-1.8-3l15.5-20.5c0.4-0.6,0.5-1.4,0.2-2L540.3,79c-0.8-1.5,0.7-3.2,2.3-2.7l24.3,8.4c0.7,0.2,1.5,0.1,2-0.5
		L587,66C588.2,64.8,590.3,65.7,590.3,67.4z"/>
	<path opacity="0.85" fill="#FFFFFF" d="M110.2,799.9l-0.5,25.7c0,0.7,0.4,1.4,1,1.7l23,11.6c1.5,0.8,1.3,3-0.3,3.5l-24.6,7.5
		c-0.7,0.2-1.2,0.8-1.3,1.5l-3.9,25.4c-0.3,1.7-2.5,2.2-3.4,0.8l-14.7-21.1c-0.4-0.6-1.1-0.9-1.9-0.8l-25.4,4.1
		c-1.7,0.3-2.9-1.7-1.8-3l15.5-20.5c0.4-0.6,0.5-1.4,0.2-2l-11.8-22.9c-0.8-1.5,0.7-3.2,2.3-2.7l24.3,8.4c0.7,0.2,1.5,0.1,2-0.5
		l18.1-18.3C108.2,797.3,110.2,798.2,110.2,799.9z"/>
	<path opacity="0.85" fill="#FFFFFF" d="M906.1,65.4L905.3,93c0,0.8,0.4,1.5,1.1,1.9l24.6,12.7c1.6,0.8,1.4,3.3-0.4,3.8l-26.5,7.8
		c-0.8,0.2-1.3,0.9-1.4,1.6l-4.5,27.3c-0.3,1.8-2.7,2.4-3.7,0.8L878.8,126c-0.4-0.7-1.2-1-2-0.9l-27.3,4.2c-1.8,0.3-3.1-1.8-1.9-3.3
		l16.9-21.9c0.5-0.6,0.6-1.5,0.2-2.2l-12.4-24.7c-0.8-1.7,0.8-3.5,2.5-2.8l26,9.3c0.7,0.3,1.6,0.1,2.1-0.5l19.6-19.4
		C903.9,62.5,906.1,63.5,906.1,65.4z"/>
</g>
</svg>
