<?xml version="1.0" encoding="utf-8"?>
<!-- Generator: Adobe Illustrator 18.1.1, SVG Export Plug-In . SVG Version: 6.00 Build 0)  -->
<svg version="1.1" xmlns="http://www.w3.org/2000/svg" xmlns:xlink="http://www.w3.org/1999/xlink" x="0px" y="0px"
	 viewBox="0 0 1000 1000" enable-background="new 0 0 1000 1000" xml:space="preserve">
<g id="Calque_3" display="none">
	<g display="inline">
		<circle opacity="0.34" fill="#231F20" cx="443.5" cy="177.6" r="10.8"/>
		<circle opacity="0.4225" fill="#231F20" cx="448.9" cy="208" r="9.9"/>
		<circle opacity="0.505" fill="#231F20" cx="454.2" cy="238.4" r="9"/>
		<circle opacity="0.5875" fill="#231F20" cx="459.6" cy="268.9" r="8.1"/>
		<circle opacity="0.67" fill="#231F20" cx="465" cy="299.3" r="7.2"/>
		<circle opacity="0.7525" fill="#231F20" cx="470.3" cy="329.7" r="6.4"/>
		<circle opacity="0.835" fill="#231F20" cx="475.7" cy="360.1" r="5.5"/>
		<circle opacity="0.9175" fill="#231F20" cx="481.1" cy="390.5" r="4.6"/>
		<circle fill="#231F20" cx="486.4" cy="421" r="3.7"/>
	</g>
	<g display="inline">
		<circle opacity="0.34" fill="#231F20" cx="388.7" cy="192.2" r="10.8"/>
		<circle opacity="0.4225" fill="#231F20" cx="399.3" cy="221.2" r="9.9"/>
		<circle opacity="0.505" fill="#231F20" cx="409.9" cy="250.2" r="9"/>
		<circle opacity="0.5875" fill="#231F20" cx="420.4" cy="279.3" r="8.1"/>
		<circle opacity="0.67" fill="#231F20" cx="431" cy="308.3" r="7.2"/>
		<circle opacity="0.7525" fill="#231F20" cx="441.6" cy="337.3" r="6.4"/>
		<circle opacity="0.835" fill="#231F20" cx="452.1" cy="366.4" r="5.5"/>
		<circle opacity="0.9175" fill="#231F20" cx="462.7" cy="395.4" r="4.6"/>
		<circle fill="#231F20" cx="473.2" cy="424.4" r="3.7"/>
	</g>
	<g display="inline">
		<circle opacity="0.34" fill="#231F20" cx="337.3" cy="216.1" r="10.8"/>
		<circle opacity="0.4225" fill="#231F20" cx="352.8" cy="242.8" r="9.9"/>
		<circle opacity="0.505" fill="#231F20" cx="368.2" cy="269.6" r="9"/>
		<circle opacity="0.5875" fill="#231F20" cx="383.6" cy="296.3" r="8.1"/>
		<circle opacity="0.67" fill="#231F20" cx="399.1" cy="323.1" r="7.2"/>
		<circle opacity="0.7525" fill="#231F20" cx="414.5" cy="349.8" r="6.4"/>
		<circle opacity="0.835" fill="#231F20" cx="430" cy="376.6" r="5.5"/>
		<circle opacity="0.9175" fill="#231F20" cx="445.4" cy="403.3" r="4.6"/>
		<circle fill="#231F20" cx="460.9" cy="430.1" r="3.7"/>
	</g>
	<g display="inline">
		<circle opacity="0.34" fill="#231F20" cx="290.8" cy="248.5" r="10.8"/>
		<circle opacity="0.4225" fill="#231F20" cx="310.7" cy="272.2" r="9.9"/>
		<circle opacity="0.505" fill="#231F20" cx="330.5" cy="295.8" r="9"/>
		<circle opacity="0.5875" fill="#231F20" cx="350.4" cy="319.5" r="8.1"/>
		<circle opacity="0.67" fill="#231F20" cx="370.2" cy="343.2" r="7.2"/>
		<circle opacity="0.7525" fill="#231F20" cx="390.1" cy="366.8" r="6.4"/>
		<circle opacity="0.835" fill="#231F20" cx="409.9" cy="390.5" r="5.5"/>
		<circle opacity="0.9175" fill="#231F20" cx="429.8" cy="414.2" r="4.6"/>
		<circle fill="#231F20" cx="449.7" cy="437.8" r="3.7"/>
	</g>
	<g display="inline">
		<circle opacity="0.34" fill="#231F20" cx="250.7" cy="288.6" r="10.8"/>
		<circle opacity="0.4225" fill="#231F20" cx="274.3" cy="308.4" r="9.9"/>
		<circle opacity="0.505" fill="#231F20" cx="298" cy="328.3" r="9"/>
		<circle opacity="0.5875" fill="#231F20" cx="321.7" cy="348.1" r="8.1"/>
		<circle opacity="0.67" fill="#231F20" cx="345.3" cy="368" r="7.2"/>
		<circle opacity="0.7525" fill="#231F20" cx="369" cy="387.8" r="6.4"/>
		<circle opacity="0.835" fill="#231F20" cx="392.6" cy="407.7" r="5.5"/>
		<circle opacity="0.9175" fill="#231F20" cx="416.3" cy="427.5" r="4.6"/>
		<circle fill="#231F20" cx="440" cy="447.4" r="3.7"/>
	</g>
	<g display="inline">
		<circle opacity="0.34" fill="#231F20" cx="218.1" cy="334.9" r="10.8"/>
		<circle opacity="0.4225" fill="#231F20" cx="244.8" cy="350.4" r="9.9"/>
		<circle opacity="0.505" fill="#231F20" cx="271.6" cy="365.8" r="9"/>
		<circle opacity="0.5875" fill="#231F20" cx="298.3" cy="381.3" r="8.1"/>
		<circle opacity="0.67" fill="#231F20" cx="325.1" cy="396.7" r="7.2"/>
		<circle opacity="0.7525" fill="#231F20" cx="351.8" cy="412.2" r="6.4"/>
		<circle opacity="0.835" fill="#231F20" cx="378.6" cy="427.6" r="5.5"/>
		<circle opacity="0.9175" fill="#231F20" cx="405.3" cy="443.1" r="4.6"/>
		<circle fill="#231F20" cx="432.1" cy="458.5" r="3.7"/>
	</g>
	<g display="inline">
		<circle opacity="0.34" fill="#231F20" cx="194" cy="386.3" r="10.8"/>
		<circle opacity="0.4225" fill="#231F20" cx="223.1" cy="396.9" r="9.9"/>
		<circle opacity="0.505" fill="#231F20" cx="252.1" cy="407.4" r="9"/>
		<circle opacity="0.5875" fill="#231F20" cx="281.1" cy="418" r="8.1"/>
		<circle opacity="0.67" fill="#231F20" cx="310.1" cy="428.5" r="7.2"/>
		<circle opacity="0.7525" fill="#231F20" cx="339.2" cy="439.1" r="6.4"/>
		<circle opacity="0.835" fill="#231F20" cx="368.2" cy="449.7" r="5.5"/>
		<circle opacity="0.9175" fill="#231F20" cx="397.2" cy="460.2" r="4.6"/>
		<circle fill="#231F20" cx="426.2" cy="470.8" r="3.7"/>
	</g>
	<g display="inline">
		<circle opacity="0.34" fill="#231F20" cx="179.3" cy="441" r="10.8"/>
		<circle opacity="0.4225" fill="#231F20" cx="209.7" cy="446.4" r="9.9"/>
		<circle opacity="0.505" fill="#231F20" cx="240.1" cy="451.8" r="9"/>
		<circle opacity="0.5875" fill="#231F20" cx="270.5" cy="457.1" r="8.1"/>
		<circle opacity="0.67" fill="#231F20" cx="301" cy="462.5" r="7.2"/>
		<circle opacity="0.7525" fill="#231F20" cx="331.4" cy="467.8" r="6.4"/>
		<circle opacity="0.835" fill="#231F20" cx="361.8" cy="473.2" r="5.5"/>
		<circle opacity="0.9175" fill="#231F20" cx="392.2" cy="478.6" r="4.6"/>
		<circle fill="#231F20" cx="422.6" cy="483.9" r="3.7"/>
	</g>
	<g display="inline">
		<circle opacity="0.34" fill="#231F20" cx="174.3" cy="497.5" r="10.8"/>
		<circle opacity="0.4225" fill="#231F20" cx="205.1" cy="497.5" r="9.9"/>
		<circle opacity="0.505" fill="#231F20" cx="236" cy="497.5" r="9"/>
		<circle opacity="0.5875" fill="#231F20" cx="266.9" cy="497.5" r="8.1"/>
		<circle opacity="0.67" fill="#231F20" cx="297.8" cy="497.5" r="7.2"/>
		<circle opacity="0.7525" fill="#231F20" cx="328.7" cy="497.5" r="6.4"/>
		<circle opacity="0.835" fill="#231F20" cx="359.6" cy="497.5" r="5.5"/>
		<circle opacity="0.9175" fill="#231F20" cx="390.5" cy="497.5" r="4.6"/>
		<circle fill="#231F20" cx="421.4" cy="497.5" r="3.7"/>
	</g>
	<g display="inline">
		<circle opacity="0.34" fill="#231F20" cx="179.1" cy="554" r="10.8"/>
		<circle opacity="0.4225" fill="#231F20" cx="209.5" cy="548.6" r="9.9"/>
		<circle opacity="0.505" fill="#231F20" cx="239.9" cy="543.3" r="9"/>
		<circle opacity="0.5875" fill="#231F20" cx="270.4" cy="537.9" r="8.1"/>
		<circle opacity="0.67" fill="#231F20" cx="300.8" cy="532.5" r="7.2"/>
		<circle opacity="0.7525" fill="#231F20" cx="331.2" cy="527.2" r="6.4"/>
		<circle opacity="0.835" fill="#231F20" cx="361.6" cy="521.8" r="5.5"/>
		<circle opacity="0.9175" fill="#231F20" cx="392" cy="516.4" r="4.6"/>
		<circle fill="#231F20" cx="422.5" cy="511.1" r="3.7"/>
	</g>
	<g display="inline">
		<circle opacity="0.34" fill="#231F20" cx="193.7" cy="608.8" r="10.8"/>
		<circle opacity="0.4225" fill="#231F20" cx="222.7" cy="598.2" r="9.9"/>
		<circle opacity="0.505" fill="#231F20" cx="251.7" cy="587.6" r="9"/>
		<circle opacity="0.5875" fill="#231F20" cx="280.8" cy="577.1" r="8.1"/>
		<circle opacity="0.67" fill="#231F20" cx="309.8" cy="566.5" r="7.2"/>
		<circle opacity="0.7525" fill="#231F20" cx="338.8" cy="555.9" r="6.4"/>
		<circle opacity="0.835" fill="#231F20" cx="367.9" cy="545.4" r="5.5"/>
		<circle opacity="0.9175" fill="#231F20" cx="396.9" cy="534.8" r="4.6"/>
		<circle fill="#231F20" cx="425.9" cy="524.3" r="3.7"/>
	</g>
	<g display="inline">
		<circle opacity="0.34" fill="#231F20" cx="217.6" cy="660.2" r="10.8"/>
		<circle opacity="0.4225" fill="#231F20" cx="244.3" cy="644.7" r="9.9"/>
		<circle opacity="0.505" fill="#231F20" cx="271.1" cy="629.3" r="9"/>
		<circle opacity="0.5875" fill="#231F20" cx="297.8" cy="613.9" r="8.1"/>
		<circle opacity="0.67" fill="#231F20" cx="324.6" cy="598.4" r="7.2"/>
		<circle opacity="0.7525" fill="#231F20" cx="351.3" cy="583" r="6.4"/>
		<circle opacity="0.835" fill="#231F20" cx="378.1" cy="567.5" r="5.5"/>
		<circle opacity="0.9175" fill="#231F20" cx="404.8" cy="552.1" r="4.6"/>
		<circle fill="#231F20" cx="431.6" cy="536.6" r="3.7"/>
	</g>
	<g display="inline">
		<circle opacity="0.34" fill="#231F20" cx="250" cy="706.7" r="10.8"/>
		<circle opacity="0.4225" fill="#231F20" cx="273.7" cy="686.8" r="9.9"/>
		<circle opacity="0.505" fill="#231F20" cx="297.3" cy="667" r="9"/>
		<circle opacity="0.5875" fill="#231F20" cx="321" cy="647.1" r="8.1"/>
		<circle opacity="0.67" fill="#231F20" cx="344.7" cy="627.3" r="7.2"/>
		<circle opacity="0.7525" fill="#231F20" cx="368.3" cy="607.4" r="6.4"/>
		<circle opacity="0.835" fill="#231F20" cx="392" cy="587.6" r="5.5"/>
		<circle opacity="0.9175" fill="#231F20" cx="415.7" cy="567.7" r="4.6"/>
		<circle fill="#231F20" cx="439.3" cy="547.8" r="3.7"/>
	</g>
	<g display="inline">
		<circle opacity="0.34" fill="#231F20" cx="290.1" cy="746.8" r="10.8"/>
		<circle opacity="0.4225" fill="#231F20" cx="309.9" cy="723.2" r="9.9"/>
		<circle opacity="0.505" fill="#231F20" cx="329.8" cy="699.5" r="9"/>
		<circle opacity="0.5875" fill="#231F20" cx="349.6" cy="675.8" r="8.1"/>
		<circle opacity="0.67" fill="#231F20" cx="369.5" cy="652.2" r="7.2"/>
		<circle opacity="0.7525" fill="#231F20" cx="389.3" cy="628.5" r="6.4"/>
		<circle opacity="0.835" fill="#231F20" cx="409.2" cy="604.9" r="5.5"/>
		<circle opacity="0.9175" fill="#231F20" cx="429" cy="581.2" r="4.6"/>
		<circle fill="#231F20" cx="448.9" cy="557.5" r="3.7"/>
	</g>
	<g display="inline">
		<circle opacity="0.34" fill="#231F20" cx="336.4" cy="779.4" r="10.8"/>
		<circle opacity="0.4225" fill="#231F20" cx="351.9" cy="752.7" r="9.9"/>
		<circle opacity="0.505" fill="#231F20" cx="367.3" cy="725.9" r="9"/>
		<circle opacity="0.5875" fill="#231F20" cx="382.8" cy="699.2" r="8.1"/>
		<circle opacity="0.67" fill="#231F20" cx="398.2" cy="672.4" r="7.2"/>
		<circle opacity="0.7525" fill="#231F20" cx="413.7" cy="645.7" r="6.4"/>
		<circle opacity="0.835" fill="#231F20" cx="429.1" cy="618.9" r="5.5"/>
		<circle opacity="0.9175" fill="#231F20" cx="444.6" cy="592.2" r="4.6"/>
		<circle fill="#231F20" cx="460" cy="565.4" r="3.7"/>
	</g>
	<g display="inline">
		<circle opacity="0.34" fill="#231F20" cx="387.8" cy="803.5" r="10.8"/>
		<circle opacity="0.4225" fill="#231F20" cx="398.4" cy="774.4" r="9.9"/>
		<circle opacity="0.505" fill="#231F20" cx="408.9" cy="745.4" r="9"/>
		<circle opacity="0.5875" fill="#231F20" cx="419.5" cy="716.4" r="8.1"/>
		<circle opacity="0.67" fill="#231F20" cx="430" cy="687.4" r="7.2"/>
		<circle opacity="0.7525" fill="#231F20" cx="440.6" cy="658.3" r="6.4"/>
		<circle opacity="0.835" fill="#231F20" cx="451.2" cy="629.3" r="5.5"/>
		<circle opacity="0.9175" fill="#231F20" cx="461.7" cy="600.3" r="4.6"/>
		<circle fill="#231F20" cx="472.3" cy="571.3" r="3.7"/>
	</g>
	<g display="inline">
		<circle opacity="0.34" fill="#231F20" cx="442.5" cy="818.2" r="10.8"/>
		<circle opacity="0.4225" fill="#231F20" cx="447.9" cy="787.8" r="9.9"/>
		<circle opacity="0.505" fill="#231F20" cx="453.3" cy="757.4" r="9"/>
		<circle opacity="0.5875" fill="#231F20" cx="458.6" cy="727" r="8.1"/>
		<circle opacity="0.67" fill="#231F20" cx="464" cy="696.5" r="7.2"/>
		<circle opacity="0.7525" fill="#231F20" cx="469.3" cy="666.1" r="6.4"/>
		<circle opacity="0.835" fill="#231F20" cx="474.7" cy="635.7" r="5.5"/>
		<circle opacity="0.9175" fill="#231F20" cx="480.1" cy="605.3" r="4.6"/>
		<circle fill="#231F20" cx="485.4" cy="574.9" r="3.7"/>
	</g>
	<g display="inline">
		<circle opacity="0.34" fill="#231F20" cx="499" cy="823.2" r="10.8"/>
		<circle opacity="0.4225" fill="#231F20" cx="499" cy="792.4" r="9.9"/>
		<circle opacity="0.505" fill="#231F20" cx="499" cy="761.5" r="9"/>
		<circle opacity="0.5875" fill="#231F20" cx="499" cy="730.6" r="8.1"/>
		<circle opacity="0.67" fill="#231F20" cx="499" cy="699.7" r="7.2"/>
		<circle opacity="0.7525" fill="#231F20" cx="499" cy="668.8" r="6.4"/>
		<circle opacity="0.835" fill="#231F20" cx="499" cy="637.9" r="5.5"/>
		<circle opacity="0.9175" fill="#231F20" cx="499" cy="607" r="4.6"/>
		<circle fill="#231F20" cx="499" cy="576.1" r="3.7"/>
	</g>
	<g display="inline">
		<circle opacity="0.34" fill="#231F20" cx="555.5" cy="818.4" r="10.8"/>
		<circle opacity="0.4225" fill="#231F20" cx="550.1" cy="788" r="9.9"/>
		<circle opacity="0.505" fill="#231F20" cx="544.8" cy="757.6" r="9"/>
		<circle opacity="0.5875" fill="#231F20" cx="539.4" cy="727.1" r="8.1"/>
		<circle opacity="0.67" fill="#231F20" cx="534" cy="696.7" r="7.2"/>
		<circle opacity="0.7525" fill="#231F20" cx="528.7" cy="666.3" r="6.4"/>
		<circle opacity="0.835" fill="#231F20" cx="523.3" cy="635.9" r="5.5"/>
		<circle opacity="0.9175" fill="#231F20" cx="517.9" cy="605.5" r="4.6"/>
		<circle fill="#231F20" cx="512.6" cy="575" r="3.7"/>
	</g>
	<g display="inline">
		<circle opacity="0.34" fill="#231F20" cx="610.3" cy="803.8" r="10.8"/>
		<circle opacity="0.4225" fill="#231F20" cx="599.7" cy="774.8" r="9.9"/>
		<circle opacity="0.505" fill="#231F20" cx="589.1" cy="745.8" r="9"/>
		<circle opacity="0.5875" fill="#231F20" cx="578.6" cy="716.7" r="8.1"/>
		<circle opacity="0.67" fill="#231F20" cx="568" cy="687.7" r="7.2"/>
		<circle opacity="0.7525" fill="#231F20" cx="557.4" cy="658.7" r="6.4"/>
		<circle opacity="0.835" fill="#231F20" cx="546.9" cy="629.6" r="5.5"/>
		<circle opacity="0.9175" fill="#231F20" cx="536.3" cy="600.6" r="4.6"/>
		<circle fill="#231F20" cx="525.8" cy="571.6" r="3.7"/>
	</g>
	<g display="inline">
		<circle opacity="0.34" fill="#231F20" cx="661.7" cy="779.9" r="10.8"/>
		<circle opacity="0.4225" fill="#231F20" cx="646.2" cy="753.2" r="9.9"/>
		<circle opacity="0.505" fill="#231F20" cx="630.8" cy="726.4" r="9"/>
		<circle opacity="0.5875" fill="#231F20" cx="615.4" cy="699.7" r="8.1"/>
		<circle opacity="0.67" fill="#231F20" cx="599.9" cy="672.9" r="7.2"/>
		<circle opacity="0.7525" fill="#231F20" cx="584.5" cy="646.2" r="6.4"/>
		<circle opacity="0.835" fill="#231F20" cx="569" cy="619.4" r="5.5"/>
		<circle opacity="0.9175" fill="#231F20" cx="553.6" cy="592.7" r="4.6"/>
		<circle fill="#231F20" cx="538.1" cy="565.9" r="3.7"/>
	</g>
	<g display="inline">
		<circle opacity="0.34" fill="#231F20" cx="708.2" cy="747.5" r="10.8"/>
		<circle opacity="0.4225" fill="#231F20" cx="688.3" cy="723.8" r="9.9"/>
		<circle opacity="0.505" fill="#231F20" cx="668.5" cy="700.2" r="9"/>
		<circle opacity="0.5875" fill="#231F20" cx="648.6" cy="676.5" r="8.1"/>
		<circle opacity="0.67" fill="#231F20" cx="628.8" cy="652.8" r="7.2"/>
		<circle opacity="0.7525" fill="#231F20" cx="608.9" cy="629.2" r="6.4"/>
		<circle opacity="0.835" fill="#231F20" cx="589.1" cy="605.5" r="5.5"/>
		<circle opacity="0.9175" fill="#231F20" cx="569.2" cy="581.8" r="4.6"/>
		<circle fill="#231F20" cx="549.3" cy="558.2" r="3.7"/>
	</g>
	<g display="inline">
		<circle opacity="0.34" fill="#231F20" cx="748.3" cy="707.4" r="10.8"/>
		<circle opacity="0.4225" fill="#231F20" cx="724.7" cy="687.6" r="9.9"/>
		<circle opacity="0.505" fill="#231F20" cx="701" cy="667.7" r="9"/>
		<circle opacity="0.5875" fill="#231F20" cx="677.3" cy="647.9" r="8.1"/>
		<circle opacity="0.67" fill="#231F20" cx="653.7" cy="628" r="7.2"/>
		<circle opacity="0.7525" fill="#231F20" cx="630" cy="608.2" r="6.4"/>
		<circle opacity="0.835" fill="#231F20" cx="606.4" cy="588.3" r="5.5"/>
		<circle opacity="0.9175" fill="#231F20" cx="582.7" cy="568.5" r="4.6"/>
		<circle fill="#231F20" cx="559" cy="548.6" r="3.7"/>
	</g>
	<g display="inline">
		<circle opacity="0.34" fill="#231F20" cx="780.9" cy="661.1" r="10.8"/>
		<circle opacity="0.4225" fill="#231F20" cx="754.2" cy="645.6" r="9.9"/>
		<circle opacity="0.505" fill="#231F20" cx="727.4" cy="630.2" r="9"/>
		<circle opacity="0.5875" fill="#231F20" cx="700.7" cy="614.7" r="8.1"/>
		<circle opacity="0.67" fill="#231F20" cx="673.9" cy="599.3" r="7.2"/>
		<circle opacity="0.7525" fill="#231F20" cx="647.2" cy="583.8" r="6.4"/>
		<circle opacity="0.835" fill="#231F20" cx="620.4" cy="568.4" r="5.5"/>
		<circle opacity="0.9175" fill="#231F20" cx="593.7" cy="552.9" r="4.6"/>
		<circle fill="#231F20" cx="566.9" cy="537.5" r="3.7"/>
	</g>
	<g display="inline">
		<circle opacity="0.34" fill="#231F20" cx="805" cy="609.7" r="10.8"/>
		<circle opacity="0.4225" fill="#231F20" cx="775.9" cy="599.1" r="9.9"/>
		<circle opacity="0.505" fill="#231F20" cx="746.9" cy="588.6" r="9"/>
		<circle opacity="0.5875" fill="#231F20" cx="717.9" cy="578" r="8.1"/>
		<circle opacity="0.67" fill="#231F20" cx="688.9" cy="567.5" r="7.2"/>
		<circle opacity="0.7525" fill="#231F20" cx="659.8" cy="556.9" r="6.4"/>
		<circle opacity="0.835" fill="#231F20" cx="630.8" cy="546.3" r="5.5"/>
		<circle opacity="0.9175" fill="#231F20" cx="601.8" cy="535.8" r="4.6"/>
		<circle fill="#231F20" cx="572.8" cy="525.2" r="3.7"/>
	</g>
	<g display="inline">
		<circle opacity="0.34" fill="#231F20" cx="819.7" cy="555" r="10.8"/>
		<circle opacity="0.4225" fill="#231F20" cx="789.3" cy="549.6" r="9.9"/>
		<circle opacity="0.505" fill="#231F20" cx="758.9" cy="544.2" r="9"/>
		<circle opacity="0.5875" fill="#231F20" cx="728.5" cy="538.9" r="8.1"/>
		<circle opacity="0.67" fill="#231F20" cx="698" cy="533.5" r="7.2"/>
		<circle opacity="0.7525" fill="#231F20" cx="667.6" cy="528.2" r="6.4"/>
		<circle opacity="0.835" fill="#231F20" cx="637.2" cy="522.8" r="5.5"/>
		<circle opacity="0.9175" fill="#231F20" cx="606.8" cy="517.4" r="4.6"/>
		<circle fill="#231F20" cx="576.4" cy="512.1" r="3.7"/>
	</g>
	<g display="inline">
		<circle opacity="0.34" fill="#231F20" cx="824.7" cy="498.5" r="10.8"/>
		<circle opacity="0.4225" fill="#231F20" cx="793.9" cy="498.5" r="9.9"/>
		<circle opacity="0.505" fill="#231F20" cx="763" cy="498.5" r="9"/>
		<circle opacity="0.5875" fill="#231F20" cx="732.1" cy="498.5" r="8.1"/>
		<circle opacity="0.67" fill="#231F20" cx="701.2" cy="498.5" r="7.2"/>
		<circle opacity="0.7525" fill="#231F20" cx="670.3" cy="498.5" r="6.4"/>
		<circle opacity="0.835" fill="#231F20" cx="639.4" cy="498.5" r="5.5"/>
		<circle opacity="0.9175" fill="#231F20" cx="608.5" cy="498.5" r="4.6"/>
		<circle fill="#231F20" cx="577.6" cy="498.5" r="3.7"/>
	</g>
	<g display="inline">
		<circle opacity="0.34" fill="#231F20" cx="819.9" cy="442" r="10.8"/>
		<circle opacity="0.4225" fill="#231F20" cx="789.5" cy="447.4" r="9.9"/>
		<circle opacity="0.505" fill="#231F20" cx="759.1" cy="452.7" r="9"/>
		<circle opacity="0.5875" fill="#231F20" cx="728.6" cy="458.1" r="8.1"/>
		<circle opacity="0.67" fill="#231F20" cx="698.2" cy="463.5" r="7.2"/>
		<circle opacity="0.7525" fill="#231F20" cx="667.8" cy="468.8" r="6.4"/>
		<circle opacity="0.835" fill="#231F20" cx="637.4" cy="474.2" r="5.5"/>
		<circle opacity="0.9175" fill="#231F20" cx="607" cy="479.6" r="4.6"/>
		<circle fill="#231F20" cx="576.5" cy="484.9" r="3.7"/>
	</g>
	<g display="inline">
		<circle opacity="0.34" fill="#231F20" cx="805.3" cy="387.2" r="10.8"/>
		<circle opacity="0.4225" fill="#231F20" cx="776.3" cy="397.8" r="9.9"/>
		<circle opacity="0.505" fill="#231F20" cx="747.3" cy="408.4" r="9"/>
		<circle opacity="0.5875" fill="#231F20" cx="718.2" cy="418.9" r="8.1"/>
		<circle opacity="0.67" fill="#231F20" cx="689.2" cy="429.5" r="7.2"/>
		<circle opacity="0.7525" fill="#231F20" cx="660.2" cy="440.1" r="6.4"/>
		<circle opacity="0.835" fill="#231F20" cx="631.1" cy="450.6" r="5.5"/>
		<circle opacity="0.9175" fill="#231F20" cx="602.1" cy="461.2" r="4.6"/>
		<circle fill="#231F20" cx="573.1" cy="471.7" r="3.7"/>
	</g>
	<g display="inline">
		<circle opacity="0.34" fill="#231F20" cx="781.4" cy="335.8" r="10.8"/>
		<circle opacity="0.4225" fill="#231F20" cx="754.7" cy="351.3" r="9.9"/>
		<circle opacity="0.505" fill="#231F20" cx="727.9" cy="366.7" r="9"/>
		<circle opacity="0.5875" fill="#231F20" cx="701.2" cy="382.1" r="8.1"/>
		<circle opacity="0.67" fill="#231F20" cx="674.4" cy="397.6" r="7.2"/>
		<circle opacity="0.7525" fill="#231F20" cx="647.7" cy="413" r="6.4"/>
		<circle opacity="0.835" fill="#231F20" cx="620.9" cy="428.5" r="5.5"/>
		<circle opacity="0.9175" fill="#231F20" cx="594.2" cy="443.9" r="4.6"/>
		<circle fill="#231F20" cx="567.4" cy="459.4" r="3.7"/>
	</g>
	<g display="inline">
		<circle opacity="0.34" fill="#231F20" cx="749" cy="289.3" r="10.8"/>
		<circle opacity="0.4225" fill="#231F20" cx="725.3" cy="309.2" r="9.9"/>
		<circle opacity="0.505" fill="#231F20" cx="701.7" cy="329" r="9"/>
		<circle opacity="0.5875" fill="#231F20" cx="678" cy="348.9" r="8.1"/>
		<circle opacity="0.67" fill="#231F20" cx="654.3" cy="368.7" r="7.2"/>
		<circle opacity="0.7525" fill="#231F20" cx="630.7" cy="388.6" r="6.4"/>
		<circle opacity="0.835" fill="#231F20" cx="607" cy="408.4" r="5.5"/>
		<circle opacity="0.9175" fill="#231F20" cx="583.3" cy="428.3" r="4.6"/>
		<circle fill="#231F20" cx="559.7" cy="448.2" r="3.7"/>
	</g>
	<g display="inline">
		<circle opacity="0.34" fill="#231F20" cx="708.9" cy="249.2" r="10.8"/>
		<circle opacity="0.4225" fill="#231F20" cx="689.1" cy="272.8" r="9.9"/>
		<circle opacity="0.505" fill="#231F20" cx="669.2" cy="296.5" r="9"/>
		<circle opacity="0.5875" fill="#231F20" cx="649.4" cy="320.2" r="8.1"/>
		<circle opacity="0.67" fill="#231F20" cx="629.5" cy="343.8" r="7.2"/>
		<circle opacity="0.7525" fill="#231F20" cx="609.7" cy="367.5" r="6.4"/>
		<circle opacity="0.835" fill="#231F20" cx="589.8" cy="391.1" r="5.5"/>
		<circle opacity="0.9175" fill="#231F20" cx="570" cy="414.8" r="4.6"/>
		<circle fill="#231F20" cx="550.1" cy="438.5" r="3.7"/>
	</g>
	<g display="inline">
		<circle opacity="0.34" fill="#231F20" cx="662.6" cy="216.6" r="10.8"/>
		<circle opacity="0.4225" fill="#231F20" cx="647.1" cy="243.3" r="9.9"/>
		<circle opacity="0.505" fill="#231F20" cx="631.7" cy="270.1" r="9"/>
		<circle opacity="0.5875" fill="#231F20" cx="616.2" cy="296.8" r="8.1"/>
		<circle opacity="0.67" fill="#231F20" cx="600.8" cy="323.6" r="7.2"/>
		<circle opacity="0.7525" fill="#231F20" cx="585.3" cy="350.3" r="6.4"/>
		<circle opacity="0.835" fill="#231F20" cx="569.9" cy="377.1" r="5.5"/>
		<circle opacity="0.9175" fill="#231F20" cx="554.4" cy="403.8" r="4.6"/>
		<circle fill="#231F20" cx="539" cy="430.6" r="3.7"/>
	</g>
	<g display="inline">
		<circle opacity="0.34" fill="#231F20" cx="611.2" cy="192.5" r="10.8"/>
		<circle opacity="0.4225" fill="#231F20" cx="600.6" cy="221.6" r="9.9"/>
		<circle opacity="0.505" fill="#231F20" cx="590.1" cy="250.6" r="9"/>
		<circle opacity="0.5875" fill="#231F20" cx="579.5" cy="279.6" r="8.1"/>
		<circle opacity="0.67" fill="#231F20" cx="569" cy="308.6" r="7.2"/>
		<circle opacity="0.7525" fill="#231F20" cx="558.4" cy="337.7" r="6.4"/>
		<circle opacity="0.835" fill="#231F20" cx="547.8" cy="366.7" r="5.5"/>
		<circle opacity="0.9175" fill="#231F20" cx="537.3" cy="395.7" r="4.6"/>
		<circle fill="#231F20" cx="526.7" cy="424.7" r="3.7"/>
	</g>
	<g display="inline">
		<circle opacity="0.34" fill="#231F20" cx="556.5" cy="177.8" r="10.8"/>
		<circle opacity="0.4225" fill="#231F20" cx="551.1" cy="208.2" r="9.9"/>
		<circle opacity="0.505" fill="#231F20" cx="545.7" cy="238.6" r="9"/>
		<circle opacity="0.5875" fill="#231F20" cx="540.4" cy="269" r="8.1"/>
		<circle opacity="0.67" fill="#231F20" cx="535" cy="299.5" r="7.2"/>
		<circle opacity="0.7525" fill="#231F20" cx="529.7" cy="329.9" r="6.4"/>
		<circle opacity="0.835" fill="#231F20" cx="524.3" cy="360.3" r="5.5"/>
		<circle opacity="0.9175" fill="#231F20" cx="518.9" cy="390.7" r="4.6"/>
		<circle fill="#231F20" cx="513.6" cy="421.1" r="3.7"/>
	</g>
</g>
<g id="Calque_2">
	<g>
		<circle opacity="0.26" fill="#231F20" cx="500" cy="146" r="5.1"/>
		<circle opacity="0.3525" fill="#231F20" cx="500" cy="180.2" r="5.8"/>
		<circle opacity="0.445" fill="#231F20" cx="500" cy="214.5" r="6.5"/>
		<circle opacity="0.5375" fill="#231F20" cx="500" cy="248.7" r="7.3"/>
		<circle opacity="0.63" fill="#231F20" cx="500" cy="282.9" r="8"/>
		<circle opacity="0.7225" fill="#231F20" cx="500" cy="317.2" r="8.7"/>
		<circle opacity="0.815" fill="#231F20" cx="500" cy="351.4" r="9.5"/>
		<circle opacity="0.9075" fill="#231F20" cx="500" cy="385.6" r="10.2"/>
		<circle fill="#231F20" cx="500" cy="419.9" r="10.9"/>
	</g>
	<g>
		<circle opacity="0.26" fill="#231F20" cx="438.4" cy="151.4" r="5.1"/>
		<circle opacity="0.3525" fill="#231F20" cx="444.3" cy="185.1" r="5.8"/>
		<circle opacity="0.445" fill="#231F20" cx="450.2" cy="218.8" r="6.5"/>
		<circle opacity="0.5375" fill="#231F20" cx="456.2" cy="252.5" r="7.3"/>
		<circle opacity="0.63" fill="#231F20" cx="462.1" cy="286.2" r="8"/>
		<circle opacity="0.7225" fill="#231F20" cx="468.1" cy="320" r="8.7"/>
		<circle opacity="0.815" fill="#231F20" cx="474" cy="353.7" r="9.5"/>
		<circle opacity="0.9075" fill="#231F20" cx="480" cy="387.4" r="10.2"/>
		<circle fill="#231F20" cx="485.9" cy="421.1" r="10.9"/>
	</g>
	<g>
		<circle opacity="0.26" fill="#231F20" cx="378.6" cy="167.4" r="5.1"/>
		<circle opacity="0.3525" fill="#231F20" cx="390.3" cy="199.6" r="5.8"/>
		<circle opacity="0.445" fill="#231F20" cx="402" cy="231.7" r="6.5"/>
		<circle opacity="0.5375" fill="#231F20" cx="413.7" cy="263.9" r="7.3"/>
		<circle opacity="0.63" fill="#231F20" cx="425.4" cy="296.1" r="8"/>
		<circle opacity="0.7225" fill="#231F20" cx="437.1" cy="328.3" r="8.7"/>
		<circle opacity="0.815" fill="#231F20" cx="448.8" cy="360.4" r="9.5"/>
		<circle opacity="0.9075" fill="#231F20" cx="460.5" cy="392.6" r="10.2"/>
		<circle fill="#231F20" cx="472.2" cy="424.8" r="10.9"/>
	</g>
	<g>
		<circle opacity="0.26" fill="#231F20" cx="322.5" cy="193.6" r="5.1"/>
		<circle opacity="0.3525" fill="#231F20" cx="339.6" cy="223.2" r="5.8"/>
		<circle opacity="0.445" fill="#231F20" cx="356.7" cy="252.9" r="6.5"/>
		<circle opacity="0.5375" fill="#231F20" cx="373.8" cy="282.5" r="7.3"/>
		<circle opacity="0.63" fill="#231F20" cx="391" cy="312.1" r="8"/>
		<circle opacity="0.7225" fill="#231F20" cx="408.1" cy="341.8" r="8.7"/>
		<circle opacity="0.815" fill="#231F20" cx="425.2" cy="371.4" r="9.5"/>
		<circle opacity="0.9075" fill="#231F20" cx="442.3" cy="401.1" r="10.2"/>
		<circle fill="#231F20" cx="459.4" cy="430.7" r="10.9"/>
	</g>
	<g>
		<circle opacity="0.26" fill="#231F20" cx="271.8" cy="229.1" r="5.1"/>
		<circle opacity="0.3525" fill="#231F20" cx="293.8" cy="255.3" r="5.8"/>
		<circle opacity="0.445" fill="#231F20" cx="315.8" cy="281.5" r="6.5"/>
		<circle opacity="0.5375" fill="#231F20" cx="337.8" cy="307.7" r="7.3"/>
		<circle opacity="0.63" fill="#231F20" cx="359.8" cy="333.9" r="8"/>
		<circle opacity="0.7225" fill="#231F20" cx="381.8" cy="360.2" r="8.7"/>
		<circle opacity="0.815" fill="#231F20" cx="403.8" cy="386.4" r="9.5"/>
		<circle opacity="0.9075" fill="#231F20" cx="425.8" cy="412.6" r="10.2"/>
		<circle fill="#231F20" cx="447.8" cy="438.8" r="10.9"/>
	</g>
	<g>
		<circle opacity="0.26" fill="#231F20" cx="228.1" cy="272.8" r="5.1"/>
		<circle opacity="0.3525" fill="#231F20" cx="254.3" cy="294.8" r="5.8"/>
		<circle opacity="0.445" fill="#231F20" cx="280.5" cy="316.8" r="6.5"/>
		<circle opacity="0.5375" fill="#231F20" cx="306.7" cy="338.8" r="7.3"/>
		<circle opacity="0.63" fill="#231F20" cx="332.9" cy="360.8" r="8"/>
		<circle opacity="0.7225" fill="#231F20" cx="359.2" cy="382.8" r="8.7"/>
		<circle opacity="0.815" fill="#231F20" cx="385.4" cy="404.8" r="9.5"/>
		<circle opacity="0.9075" fill="#231F20" cx="411.6" cy="426.8" r="10.2"/>
		<circle fill="#231F20" cx="437.8" cy="448.8" r="10.9"/>
	</g>
	<g>
		<circle opacity="0.26" fill="#231F20" cx="192.6" cy="323.5" r="5.1"/>
		<circle opacity="0.3525" fill="#231F20" cx="222.2" cy="340.6" r="5.8"/>
		<circle opacity="0.445" fill="#231F20" cx="251.9" cy="357.7" r="6.5"/>
		<circle opacity="0.5375" fill="#231F20" cx="281.5" cy="374.8" r="7.3"/>
		<circle opacity="0.63" fill="#231F20" cx="311.1" cy="392" r="8"/>
		<circle opacity="0.7225" fill="#231F20" cx="340.8" cy="409.1" r="8.7"/>
		<circle opacity="0.815" fill="#231F20" cx="370.4" cy="426.2" r="9.5"/>
		<circle opacity="0.9075" fill="#231F20" cx="400.1" cy="443.3" r="10.2"/>
		<circle fill="#231F20" cx="429.7" cy="460.4" r="10.9"/>
	</g>
	<g>
		<circle opacity="0.26" fill="#231F20" cx="166.4" cy="379.6" r="5.1"/>
		<circle opacity="0.3525" fill="#231F20" cx="198.6" cy="391.3" r="5.8"/>
		<circle opacity="0.445" fill="#231F20" cx="230.7" cy="403" r="6.5"/>
		<circle opacity="0.5375" fill="#231F20" cx="262.9" cy="414.7" r="7.3"/>
		<circle opacity="0.63" fill="#231F20" cx="295.1" cy="426.4" r="8"/>
		<circle opacity="0.7225" fill="#231F20" cx="327.3" cy="438.1" r="8.7"/>
		<circle opacity="0.815" fill="#231F20" cx="359.4" cy="449.8" r="9.5"/>
		<circle opacity="0.9075" fill="#231F20" cx="391.6" cy="461.5" r="10.2"/>
		<circle fill="#231F20" cx="423.8" cy="473.2" r="10.9"/>
	</g>
	<g>
		<circle opacity="0.26" fill="#231F20" cx="150.4" cy="439.4" r="5.1"/>
		<circle opacity="0.3525" fill="#231F20" cx="184.1" cy="445.3" r="5.8"/>
		<circle opacity="0.445" fill="#231F20" cx="217.8" cy="451.2" r="6.5"/>
		<circle opacity="0.5375" fill="#231F20" cx="251.5" cy="457.2" r="7.3"/>
		<circle opacity="0.63" fill="#231F20" cx="285.2" cy="463.1" r="8"/>
		<circle opacity="0.7225" fill="#231F20" cx="319" cy="469.1" r="8.7"/>
		<circle opacity="0.815" fill="#231F20" cx="352.7" cy="475" r="9.5"/>
		<circle opacity="0.9075" fill="#231F20" cx="386.4" cy="481" r="10.2"/>
		<circle fill="#231F20" cx="420.1" cy="486.9" r="10.9"/>
	</g>
	<g>
		<circle opacity="0.26" fill="#231F20" cx="145" cy="501" r="5.1"/>
		<circle opacity="0.3525" fill="#231F20" cx="179.2" cy="501" r="5.8"/>
		<circle opacity="0.445" fill="#231F20" cx="213.5" cy="501" r="6.5"/>
		<circle opacity="0.5375" fill="#231F20" cx="247.7" cy="501" r="7.3"/>
		<circle opacity="0.63" fill="#231F20" cx="281.9" cy="501" r="8"/>
		<circle opacity="0.7225" fill="#231F20" cx="316.2" cy="501" r="8.7"/>
		<circle opacity="0.815" fill="#231F20" cx="350.4" cy="501" r="9.5"/>
		<circle opacity="0.9075" fill="#231F20" cx="384.6" cy="501" r="10.2"/>
		<circle fill="#231F20" cx="418.9" cy="501" r="10.9"/>
	</g>
	<g>
		<circle opacity="0.26" fill="#231F20" cx="150.4" cy="562.6" r="5.1"/>
		<circle opacity="0.3525" fill="#231F20" cx="184.1" cy="556.7" r="5.8"/>
		<circle opacity="0.445" fill="#231F20" cx="217.8" cy="550.8" r="6.5"/>
		<circle opacity="0.5375" fill="#231F20" cx="251.5" cy="544.8" r="7.3"/>
		<circle opacity="0.63" fill="#231F20" cx="285.2" cy="538.9" r="8"/>
		<circle opacity="0.7225" fill="#231F20" cx="319" cy="532.9" r="8.7"/>
		<circle opacity="0.815" fill="#231F20" cx="352.7" cy="527" r="9.5"/>
		<circle opacity="0.9075" fill="#231F20" cx="386.4" cy="521" r="10.2"/>
		<circle fill="#231F20" cx="420.1" cy="515.1" r="10.9"/>
	</g>
	<g>
		<circle opacity="0.26" fill="#231F20" cx="166.4" cy="622.4" r="5.1"/>
		<circle opacity="0.3525" fill="#231F20" cx="198.6" cy="610.7" r="5.8"/>
		<circle opacity="0.445" fill="#231F20" cx="230.7" cy="599" r="6.5"/>
		<circle opacity="0.5375" fill="#231F20" cx="262.9" cy="587.3" r="7.3"/>
		<circle opacity="0.63" fill="#231F20" cx="295.1" cy="575.6" r="8"/>
		<circle opacity="0.7225" fill="#231F20" cx="327.3" cy="563.9" r="8.7"/>
		<circle opacity="0.815" fill="#231F20" cx="359.4" cy="552.2" r="9.5"/>
		<circle opacity="0.9075" fill="#231F20" cx="391.6" cy="540.5" r="10.2"/>
		<circle fill="#231F20" cx="423.8" cy="528.8" r="10.9"/>
	</g>
	<g>
		<circle opacity="0.26" fill="#231F20" cx="192.6" cy="678.5" r="5.1"/>
		<circle opacity="0.3525" fill="#231F20" cx="222.2" cy="661.4" r="5.8"/>
		<circle opacity="0.445" fill="#231F20" cx="251.9" cy="644.3" r="6.5"/>
		<circle opacity="0.5375" fill="#231F20" cx="281.5" cy="627.2" r="7.3"/>
		<circle opacity="0.63" fill="#231F20" cx="311.1" cy="610" r="8"/>
		<circle opacity="0.7225" fill="#231F20" cx="340.8" cy="592.9" r="8.7"/>
		<circle opacity="0.815" fill="#231F20" cx="370.4" cy="575.8" r="9.5"/>
		<circle opacity="0.9075" fill="#231F20" cx="400.1" cy="558.7" r="10.2"/>
		<circle fill="#231F20" cx="429.7" cy="541.6" r="10.9"/>
	</g>
	<g>
		<circle opacity="0.26" fill="#231F20" cx="228.1" cy="729.2" r="5.1"/>
		<circle opacity="0.3525" fill="#231F20" cx="254.3" cy="707.2" r="5.8"/>
		<circle opacity="0.445" fill="#231F20" cx="280.5" cy="685.2" r="6.5"/>
		<circle opacity="0.5375" fill="#231F20" cx="306.7" cy="663.2" r="7.3"/>
		<circle opacity="0.63" fill="#231F20" cx="332.9" cy="641.2" r="8"/>
		<circle opacity="0.7225" fill="#231F20" cx="359.2" cy="619.2" r="8.7"/>
		<circle opacity="0.815" fill="#231F20" cx="385.4" cy="597.2" r="9.5"/>
		<circle opacity="0.9075" fill="#231F20" cx="411.6" cy="575.2" r="10.2"/>
		<circle fill="#231F20" cx="437.8" cy="553.2" r="10.9"/>
	</g>
	<g>
		<circle opacity="0.26" fill="#231F20" cx="271.8" cy="772.9" r="5.1"/>
		<circle opacity="0.3525" fill="#231F20" cx="293.8" cy="746.7" r="5.8"/>
		<circle opacity="0.445" fill="#231F20" cx="315.8" cy="720.5" r="6.5"/>
		<circle opacity="0.5375" fill="#231F20" cx="337.8" cy="694.3" r="7.3"/>
		<circle opacity="0.63" fill="#231F20" cx="359.8" cy="668.1" r="8"/>
		<circle opacity="0.7225" fill="#231F20" cx="381.8" cy="641.8" r="8.7"/>
		<circle opacity="0.815" fill="#231F20" cx="403.8" cy="615.6" r="9.5"/>
		<circle opacity="0.9075" fill="#231F20" cx="425.8" cy="589.4" r="10.2"/>
		<circle fill="#231F20" cx="447.8" cy="563.2" r="10.9"/>
	</g>
	<g>
		<circle opacity="0.26" fill="#231F20" cx="322.5" cy="808.4" r="5.1"/>
		<circle opacity="0.3525" fill="#231F20" cx="339.6" cy="778.8" r="5.8"/>
		<circle opacity="0.445" fill="#231F20" cx="356.7" cy="749.1" r="6.5"/>
		<circle opacity="0.5375" fill="#231F20" cx="373.8" cy="719.5" r="7.3"/>
		<circle opacity="0.63" fill="#231F20" cx="391" cy="689.9" r="8"/>
		<circle opacity="0.7225" fill="#231F20" cx="408.1" cy="660.2" r="8.7"/>
		<circle opacity="0.815" fill="#231F20" cx="425.2" cy="630.6" r="9.5"/>
		<circle opacity="0.9075" fill="#231F20" cx="442.3" cy="600.9" r="10.2"/>
		<circle fill="#231F20" cx="459.4" cy="571.3" r="10.9"/>
	</g>
	<g>
		<circle opacity="0.26" fill="#231F20" cx="378.6" cy="834.6" r="5.1"/>
		<circle opacity="0.3525" fill="#231F20" cx="390.3" cy="802.4" r="5.8"/>
		<circle opacity="0.445" fill="#231F20" cx="402" cy="770.3" r="6.5"/>
		<circle opacity="0.5375" fill="#231F20" cx="413.7" cy="738.1" r="7.3"/>
		<circle opacity="0.63" fill="#231F20" cx="425.4" cy="705.9" r="8"/>
		<circle opacity="0.7225" fill="#231F20" cx="437.1" cy="673.7" r="8.7"/>
		<circle opacity="0.815" fill="#231F20" cx="448.8" cy="641.6" r="9.5"/>
		<circle opacity="0.9075" fill="#231F20" cx="460.5" cy="609.4" r="10.2"/>
		<circle fill="#231F20" cx="472.2" cy="577.2" r="10.9"/>
	</g>
	<g>
		<circle opacity="0.26" fill="#231F20" cx="438.4" cy="850.6" r="5.1"/>
		<circle opacity="0.3525" fill="#231F20" cx="444.3" cy="816.9" r="5.8"/>
		<circle opacity="0.445" fill="#231F20" cx="450.2" cy="783.2" r="6.5"/>
		<circle opacity="0.5375" fill="#231F20" cx="456.2" cy="749.5" r="7.3"/>
		<circle opacity="0.63" fill="#231F20" cx="462.1" cy="715.8" r="8"/>
		<circle opacity="0.7225" fill="#231F20" cx="468.1" cy="682" r="8.7"/>
		<circle opacity="0.815" fill="#231F20" cx="474" cy="648.3" r="9.5"/>
		<circle opacity="0.9075" fill="#231F20" cx="480" cy="614.6" r="10.2"/>
		<circle fill="#231F20" cx="485.9" cy="580.9" r="10.9"/>
	</g>
	<g>
		<circle opacity="0.26" fill="#231F20" cx="500" cy="856" r="5.1"/>
		<circle opacity="0.3525" fill="#231F20" cx="500" cy="821.8" r="5.8"/>
		<circle opacity="0.445" fill="#231F20" cx="500" cy="787.5" r="6.5"/>
		<circle opacity="0.5375" fill="#231F20" cx="500" cy="753.3" r="7.3"/>
		<circle opacity="0.63" fill="#231F20" cx="500" cy="719.1" r="8"/>
		<circle opacity="0.7225" fill="#231F20" cx="500" cy="684.8" r="8.7"/>
		<circle opacity="0.815" fill="#231F20" cx="500" cy="650.6" r="9.5"/>
		<circle opacity="0.9075" fill="#231F20" cx="500" cy="616.4" r="10.2"/>
		<circle fill="#231F20" cx="500" cy="582.1" r="10.9"/>
	</g>
	<g>
		<circle opacity="0.26" fill="#231F20" cx="561.6" cy="850.6" r="5.1"/>
		<circle opacity="0.3525" fill="#231F20" cx="555.7" cy="816.9" r="5.8"/>
		<circle opacity="0.445" fill="#231F20" cx="549.8" cy="783.2" r="6.5"/>
		<circle opacity="0.5375" fill="#231F20" cx="543.8" cy="749.5" r="7.3"/>
		<circle opacity="0.63" fill="#231F20" cx="537.9" cy="715.8" r="8"/>
		<circle opacity="0.7225" fill="#231F20" cx="531.9" cy="682" r="8.7"/>
		<circle opacity="0.815" fill="#231F20" cx="526" cy="648.3" r="9.5"/>
		<circle opacity="0.9075" fill="#231F20" cx="520" cy="614.6" r="10.2"/>
		<circle fill="#231F20" cx="514.1" cy="580.9" r="10.9"/>
	</g>
	<g>
		<circle opacity="0.26" fill="#231F20" cx="621.4" cy="834.6" r="5.1"/>
		<circle opacity="0.3525" fill="#231F20" cx="609.7" cy="802.4" r="5.8"/>
		<circle opacity="0.445" fill="#231F20" cx="598" cy="770.3" r="6.5"/>
		<circle opacity="0.5375" fill="#231F20" cx="586.3" cy="738.1" r="7.3"/>
		<circle opacity="0.63" fill="#231F20" cx="574.6" cy="705.9" r="8"/>
		<circle opacity="0.7225" fill="#231F20" cx="562.9" cy="673.7" r="8.7"/>
		<circle opacity="0.815" fill="#231F20" cx="551.2" cy="641.6" r="9.5"/>
		<circle opacity="0.9075" fill="#231F20" cx="539.5" cy="609.4" r="10.2"/>
		<circle fill="#231F20" cx="527.8" cy="577.2" r="10.9"/>
	</g>
	<g>
		<circle opacity="0.26" fill="#231F20" cx="677.5" cy="808.4" r="5.1"/>
		<circle opacity="0.3525" fill="#231F20" cx="660.4" cy="778.8" r="5.8"/>
		<circle opacity="0.445" fill="#231F20" cx="643.3" cy="749.1" r="6.5"/>
		<circle opacity="0.5375" fill="#231F20" cx="626.2" cy="719.5" r="7.3"/>
		<circle opacity="0.63" fill="#231F20" cx="609" cy="689.9" r="8"/>
		<circle opacity="0.7225" fill="#231F20" cx="591.9" cy="660.2" r="8.7"/>
		<circle opacity="0.815" fill="#231F20" cx="574.8" cy="630.6" r="9.5"/>
		<circle opacity="0.9075" fill="#231F20" cx="557.7" cy="600.9" r="10.2"/>
		<circle fill="#231F20" cx="540.6" cy="571.3" r="10.9"/>
	</g>
	<g>
		<circle opacity="0.26" fill="#231F20" cx="728.2" cy="772.9" r="5.1"/>
		<circle opacity="0.3525" fill="#231F20" cx="706.2" cy="746.7" r="5.8"/>
		<circle opacity="0.445" fill="#231F20" cx="684.2" cy="720.5" r="6.5"/>
		<circle opacity="0.5375" fill="#231F20" cx="662.2" cy="694.3" r="7.3"/>
		<circle opacity="0.63" fill="#231F20" cx="640.2" cy="668.1" r="8"/>
		<circle opacity="0.7225" fill="#231F20" cx="618.2" cy="641.8" r="8.7"/>
		<circle opacity="0.815" fill="#231F20" cx="596.2" cy="615.6" r="9.5"/>
		<circle opacity="0.9075" fill="#231F20" cx="574.2" cy="589.4" r="10.2"/>
		<circle fill="#231F20" cx="552.2" cy="563.2" r="10.9"/>
	</g>
	<g>
		<circle opacity="0.26" fill="#231F20" cx="771.9" cy="729.2" r="5.1"/>
		<circle opacity="0.3525" fill="#231F20" cx="745.7" cy="707.2" r="5.8"/>
		<circle opacity="0.445" fill="#231F20" cx="719.5" cy="685.2" r="6.5"/>
		<circle opacity="0.5375" fill="#231F20" cx="693.3" cy="663.2" r="7.3"/>
		<circle opacity="0.63" fill="#231F20" cx="667.1" cy="641.2" r="8"/>
		<circle opacity="0.7225" fill="#231F20" cx="640.8" cy="619.2" r="8.7"/>
		<circle opacity="0.815" fill="#231F20" cx="614.6" cy="597.2" r="9.5"/>
		<circle opacity="0.9075" fill="#231F20" cx="588.4" cy="575.2" r="10.2"/>
		<circle fill="#231F20" cx="562.2" cy="553.2" r="10.9"/>
	</g>
	<g>
		<circle opacity="0.26" fill="#231F20" cx="807.4" cy="678.5" r="5.1"/>
		<circle opacity="0.3525" fill="#231F20" cx="777.8" cy="661.4" r="5.8"/>
		<circle opacity="0.445" fill="#231F20" cx="748.1" cy="644.3" r="6.5"/>
		<circle opacity="0.5375" fill="#231F20" cx="718.5" cy="627.2" r="7.3"/>
		<circle opacity="0.63" fill="#231F20" cx="688.9" cy="610" r="8"/>
		<circle opacity="0.7225" fill="#231F20" cx="659.2" cy="592.9" r="8.7"/>
		<circle opacity="0.815" fill="#231F20" cx="629.6" cy="575.8" r="9.5"/>
		<circle opacity="0.9075" fill="#231F20" cx="599.9" cy="558.7" r="10.2"/>
		<circle fill="#231F20" cx="570.3" cy="541.6" r="10.9"/>
	</g>
	<g>
		<circle opacity="0.26" fill="#231F20" cx="833.6" cy="622.4" r="5.1"/>
		<circle opacity="0.3525" fill="#231F20" cx="801.4" cy="610.7" r="5.8"/>
		<circle opacity="0.445" fill="#231F20" cx="769.3" cy="599" r="6.5"/>
		<circle opacity="0.5375" fill="#231F20" cx="737.1" cy="587.3" r="7.3"/>
		<circle opacity="0.63" fill="#231F20" cx="704.9" cy="575.6" r="8"/>
		<circle opacity="0.7225" fill="#231F20" cx="672.7" cy="563.9" r="8.7"/>
		<circle opacity="0.815" fill="#231F20" cx="640.6" cy="552.2" r="9.5"/>
		<circle opacity="0.9075" fill="#231F20" cx="608.4" cy="540.5" r="10.2"/>
		<circle fill="#231F20" cx="576.2" cy="528.8" r="10.9"/>
	</g>
	<g>
		<circle opacity="0.26" fill="#231F20" cx="849.6" cy="562.6" r="5.1"/>
		<circle opacity="0.3525" fill="#231F20" cx="815.9" cy="556.7" r="5.8"/>
		<circle opacity="0.445" fill="#231F20" cx="782.2" cy="550.8" r="6.5"/>
		<circle opacity="0.5375" fill="#231F20" cx="748.5" cy="544.8" r="7.3"/>
		<circle opacity="0.63" fill="#231F20" cx="714.8" cy="538.9" r="8"/>
		<circle opacity="0.7225" fill="#231F20" cx="681" cy="532.9" r="8.7"/>
		<circle opacity="0.815" fill="#231F20" cx="647.3" cy="527" r="9.5"/>
		<circle opacity="0.9075" fill="#231F20" cx="613.6" cy="521" r="10.2"/>
		<circle fill="#231F20" cx="579.9" cy="515.1" r="10.9"/>
	</g>
	<g>
		<circle opacity="0.26" fill="#231F20" cx="855" cy="501" r="5.1"/>
		<circle opacity="0.3525" fill="#231F20" cx="820.8" cy="501" r="5.8"/>
		<circle opacity="0.445" fill="#231F20" cx="786.5" cy="501" r="6.5"/>
		<circle opacity="0.5375" fill="#231F20" cx="752.3" cy="501" r="7.3"/>
		<circle opacity="0.63" fill="#231F20" cx="718.1" cy="501" r="8"/>
		<circle opacity="0.7225" fill="#231F20" cx="683.8" cy="501" r="8.7"/>
		<circle opacity="0.815" fill="#231F20" cx="649.6" cy="501" r="9.5"/>
		<circle opacity="0.9075" fill="#231F20" cx="615.4" cy="501" r="10.2"/>
		<circle fill="#231F20" cx="581.1" cy="501" r="10.9"/>
	</g>
	<g>
		<circle opacity="0.26" fill="#231F20" cx="849.6" cy="439.4" r="5.1"/>
		<circle opacity="0.3525" fill="#231F20" cx="815.9" cy="445.3" r="5.8"/>
		<circle opacity="0.445" fill="#231F20" cx="782.2" cy="451.2" r="6.5"/>
		<circle opacity="0.5375" fill="#231F20" cx="748.5" cy="457.2" r="7.3"/>
		<circle opacity="0.63" fill="#231F20" cx="714.8" cy="463.1" r="8"/>
		<circle opacity="0.7225" fill="#231F20" cx="681" cy="469.1" r="8.7"/>
		<circle opacity="0.815" fill="#231F20" cx="647.3" cy="475" r="9.5"/>
		<circle opacity="0.9075" fill="#231F20" cx="613.6" cy="481" r="10.2"/>
		<circle fill="#231F20" cx="579.9" cy="486.9" r="10.9"/>
	</g>
	<g>
		<circle opacity="0.26" fill="#231F20" cx="833.6" cy="379.6" r="5.1"/>
		<circle opacity="0.3525" fill="#231F20" cx="801.4" cy="391.3" r="5.8"/>
		<circle opacity="0.445" fill="#231F20" cx="769.3" cy="403" r="6.5"/>
		<circle opacity="0.5375" fill="#231F20" cx="737.1" cy="414.7" r="7.3"/>
		<circle opacity="0.63" fill="#231F20" cx="704.9" cy="426.4" r="8"/>
		<circle opacity="0.7225" fill="#231F20" cx="672.7" cy="438.1" r="8.7"/>
		<circle opacity="0.815" fill="#231F20" cx="640.6" cy="449.8" r="9.5"/>
		<circle opacity="0.9075" fill="#231F20" cx="608.4" cy="461.5" r="10.2"/>
		<circle fill="#231F20" cx="576.2" cy="473.2" r="10.9"/>
	</g>
	<g>
		<circle opacity="0.26" fill="#231F20" cx="807.4" cy="323.5" r="5.1"/>
		<circle opacity="0.3525" fill="#231F20" cx="777.8" cy="340.6" r="5.8"/>
		<circle opacity="0.445" fill="#231F20" cx="748.1" cy="357.7" r="6.5"/>
		<circle opacity="0.5375" fill="#231F20" cx="718.5" cy="374.8" r="7.3"/>
		<circle opacity="0.63" fill="#231F20" cx="688.9" cy="392" r="8"/>
		<circle opacity="0.7225" fill="#231F20" cx="659.2" cy="409.1" r="8.7"/>
		<circle opacity="0.815" fill="#231F20" cx="629.6" cy="426.2" r="9.5"/>
		<circle opacity="0.9075" fill="#231F20" cx="599.9" cy="443.3" r="10.2"/>
		<circle fill="#231F20" cx="570.3" cy="460.4" r="10.9"/>
	</g>
	<g>
		<circle opacity="0.26" fill="#231F20" cx="771.9" cy="272.8" r="5.1"/>
		<circle opacity="0.3525" fill="#231F20" cx="745.7" cy="294.8" r="5.8"/>
		<circle opacity="0.445" fill="#231F20" cx="719.5" cy="316.8" r="6.5"/>
		<circle opacity="0.5375" fill="#231F20" cx="693.3" cy="338.8" r="7.3"/>
		<circle opacity="0.63" fill="#231F20" cx="667.1" cy="360.8" r="8"/>
		<circle opacity="0.7225" fill="#231F20" cx="640.8" cy="382.8" r="8.7"/>
		<circle opacity="0.815" fill="#231F20" cx="614.6" cy="404.8" r="9.5"/>
		<circle opacity="0.9075" fill="#231F20" cx="588.4" cy="426.8" r="10.2"/>
		<circle fill="#231F20" cx="562.2" cy="448.8" r="10.9"/>
	</g>
	<g>
		<circle opacity="0.26" fill="#231F20" cx="728.2" cy="229.1" r="5.1"/>
		<circle opacity="0.3525" fill="#231F20" cx="706.2" cy="255.3" r="5.8"/>
		<circle opacity="0.445" fill="#231F20" cx="684.2" cy="281.5" r="6.5"/>
		<circle opacity="0.5375" fill="#231F20" cx="662.2" cy="307.7" r="7.3"/>
		<circle opacity="0.63" fill="#231F20" cx="640.2" cy="333.9" r="8"/>
		<circle opacity="0.7225" fill="#231F20" cx="618.2" cy="360.2" r="8.7"/>
		<circle opacity="0.815" fill="#231F20" cx="596.2" cy="386.4" r="9.5"/>
		<circle opacity="0.9075" fill="#231F20" cx="574.2" cy="412.6" r="10.2"/>
		<circle fill="#231F20" cx="552.2" cy="438.8" r="10.9"/>
	</g>
	<g>
		<circle opacity="0.26" fill="#231F20" cx="677.5" cy="193.6" r="5.1"/>
		<circle opacity="0.3525" fill="#231F20" cx="660.4" cy="223.2" r="5.8"/>
		<circle opacity="0.445" fill="#231F20" cx="643.3" cy="252.9" r="6.5"/>
		<circle opacity="0.5375" fill="#231F20" cx="626.2" cy="282.5" r="7.3"/>
		<circle opacity="0.63" fill="#231F20" cx="609" cy="312.1" r="8"/>
		<circle opacity="0.7225" fill="#231F20" cx="591.9" cy="341.8" r="8.7"/>
		<circle opacity="0.815" fill="#231F20" cx="574.8" cy="371.4" r="9.5"/>
		<circle opacity="0.9075" fill="#231F20" cx="557.7" cy="401.1" r="10.2"/>
		<circle fill="#231F20" cx="540.6" cy="430.7" r="10.9"/>
	</g>
	<g>
		<circle opacity="0.26" fill="#231F20" cx="621.4" cy="167.4" r="5.1"/>
		<circle opacity="0.3525" fill="#231F20" cx="609.7" cy="199.6" r="5.8"/>
		<circle opacity="0.445" fill="#231F20" cx="598" cy="231.7" r="6.5"/>
		<circle opacity="0.5375" fill="#231F20" cx="586.3" cy="263.9" r="7.3"/>
		<circle opacity="0.63" fill="#231F20" cx="574.6" cy="296.1" r="8"/>
		<circle opacity="0.7225" fill="#231F20" cx="562.9" cy="328.3" r="8.7"/>
		<circle opacity="0.815" fill="#231F20" cx="551.2" cy="360.4" r="9.5"/>
		<circle opacity="0.9075" fill="#231F20" cx="539.5" cy="392.6" r="10.2"/>
		<circle fill="#231F20" cx="527.8" cy="424.8" r="10.9"/>
	</g>
	<g>
		<circle opacity="0.26" fill="#231F20" cx="561.6" cy="151.4" r="5.1"/>
		<circle opacity="0.3525" fill="#231F20" cx="555.7" cy="185.1" r="5.8"/>
		<circle opacity="0.445" fill="#231F20" cx="549.8" cy="218.8" r="6.5"/>
		<circle opacity="0.5375" fill="#231F20" cx="543.8" cy="252.5" r="7.3"/>
		<circle opacity="0.63" fill="#231F20" cx="537.9" cy="286.2" r="8"/>
		<circle opacity="0.7225" fill="#231F20" cx="531.9" cy="320" r="8.7"/>
		<circle opacity="0.815" fill="#231F20" cx="526" cy="353.7" r="9.5"/>
		<circle opacity="0.9075" fill="#231F20" cx="520" cy="387.4" r="10.2"/>
		<circle fill="#231F20" cx="514.1" cy="421.1" r="10.9"/>
	</g>
</g>
</svg>
