<?xml version="1.0" encoding="utf-8"?>
<!-- Generator: Adobe Illustrator 18.1.1, SVG Export Plug-In . SVG Version: 6.00 Build 0)  -->
<svg version="1.1" id="Calque_4_1_" xmlns="http://www.w3.org/2000/svg" xmlns:xlink="http://www.w3.org/1999/xlink" x="0px"
	 y="0px" viewBox="0 0 1000 1000" enable-background="new 0 0 1000 1000" xml:space="preserve">
<polygon fill="#FFFFFF" points="454.3,153.6 392.3,280.6 324.3,249.6 285.3,330.4 93.3,290.4 125.3,344.6 80.3,349.1 133.3,437.1 
	79,473.1 148,535.6 77,647.6 154.7,656.6 155.7,723.3 225.7,703.3 233.7,732 357.7,692 362.7,846.3 448.3,701 557.3,778.6 
	633.7,631.6 748,772.6 740.3,618.3 900.7,632.6 860.7,516.3 937,495.4 860,424.1 969,333.1 816.7,299.6 818.3,157.6 660,248.6 
	632,181.6 555,249.1 "/>
<polygon fill="none" stroke="#FF9900" stroke-width="4" stroke-linejoin="round" stroke-miterlimit="10" points="454.3,153.6 
	392.3,280.6 324.3,249.6 285.3,330.4 93.3,290.4 125.3,344.6 80.3,349.1 133.3,437.1 79,473.1 148,535.6 77,647.6 154.7,656.6 
	155.7,723.3 225.7,703.3 233.7,732 357.7,692 362.7,846.3 448.3,701 557.3,778.6 633.7,631.6 748,772.6 740.3,618.3 900.7,632.6 
	860.7,516.3 937,495.4 860,424.1 969,333.1 816.7,299.6 818.3,157.6 660,248.6 632,181.6 555,249.1 "/>
<polygon fill="#FFD407" points="460.7,169.6 397,290.1 330,259.1 289.7,335.4 99.7,293.1 130.3,345.6 85.7,349.1 136.7,434.4 
	82,467.6 149.7,529 77,635 154,645 153.7,708.6 223.7,691 231,718.6 355,683 357,830.6 445,693.3 551.7,769.6 630.3,630.3 
	741.7,767.6 736.7,619.6 895.7,636.6 858,524.6 934.3,506.1 859,436.4 969.3,351.4 818.3,316.4 822.7,180.6 663.3,264.4 637,199.6 
	559,262.6 "/>
</svg>
