<?xml version="1.0" encoding="utf-8"?>
<!-- Generator: Adobe Illustrator 18.1.1, SVG Export Plug-In . SVG Version: 6.00 Build 0)  -->
<svg version="1.1" xmlns="http://www.w3.org/2000/svg" xmlns:xlink="http://www.w3.org/1999/xlink" x="0px" y="0px"
	 viewBox="0 0 1000 1000" enable-background="new 0 0 1000 1000" xml:space="preserve">
<g id="Calque_4">
	<path opacity="0.5" d="M253.9,514.3c6.1,5,10.2,10.5,12.5,16.4c2.5,7.1,2.3,13.6-0.7,19.4c-3,5.8-8.2,11.7-15.5,17.8
		c-5.2,4.8-11.5,9.4-18.9,14c-7.4,4.6-15.2,8.9-23.6,13c-8.3,4.1-16.8,7.9-25.5,11.4c-8.6,3.5-16.8,6.5-24.5,9.1
		c-4.2,1.4-7.8,2.5-10.8,3.4c-3.1,0.8-6,1.3-8.7,1.5c-2.7,0.2-5.5,0-8.3-0.4c-2.8-0.4-5.9-1.2-9.4-2.4c-3.4-0.6-6.6-1.4-9.5-2.2
		c-2.9-0.9-5.7-1.8-8.4-2.8c-2.7-1-5.4-2.1-8.2-3.3c-2.8-1.2-5.9-2.7-9.3-4.4c-2.6-1.8-4.9-3.3-6.8-4.6c-1.9-1.3-3.4-2.7-4.5-4.2
		c-1.1-1.5-1.9-3.3-2.4-5.4c-0.4-2.1-0.5-4.7-0.2-8c0.4-10.3,1.3-21.9,2.7-34.6c1.4-12.7,2.9-25.7,4.5-38.9
		c1.6-13.2,3-26.4,4.2-39.4c1.2-13,1.8-25,1.9-36.1c7.3-3.8,15.7-7.5,25.1-11.2c9.4-3.7,19.4-7.1,29.8-10.2
		c10.4-3.1,21-5.7,31.8-7.9c10.7-2.2,21-3.7,30.9-4.6c9.9-0.9,19-1,27.4-0.2c8.4,0.8,15.4,2.6,21.1,5.4c7.4,4,13.9,8.5,19.5,13.3
		c5.6,4.9,10.2,10.9,13.8,18.1c1.8,4,2.5,8.1,2.1,12.1c-0.4,4-1.6,8.1-3.7,12.1c-2.1,4-4.8,7.8-8.1,11.6c-3.3,3.7-7,7.2-11.2,10.6
		c-4.6,3.4-9.2,6.9-14,10.3c-4.7,3.4-10.4,7-16.9,10.7C240.5,505.8,247.8,509.3,253.9,514.3z M135.1,558.9
		c-1.4,6.7-2.5,13.6-3.6,20.4c11.1-3.7,21.2-7.7,30.2-12c9-4.3,16.5-8.5,22.6-12.7c6-4.2,10.4-8.2,13.2-11.9
		c2.8-3.7,3.6-6.9,2.4-9.6c-1.2-1.6-3.5-2.8-6.9-3.6c-3.4-0.8-7.7-1.1-12.8-0.9c-5.2,0.2-11.2,1.1-18.1,2.7
		c-6.9,1.6-14.5,4-22.8,7.2C137.9,545.3,136.4,552.2,135.1,558.9z M182.3,481.9c9.8-5.6,17.9-11,24.3-16.3c6.4-5.3,11-10,13.9-14.3
		c2.9-4.3,3.7-7.5,2.4-9.6c-1.1-1.6-3.4-2.7-7.1-3.2c-3.6-0.5-8.3-0.3-13.9,0.7c-5.6,1-12.1,2.7-19.3,5c-7.2,2.3-14.9,5.5-23.1,9.3
		c-2.1,6.5-4,13.4-5.6,20.7c-1.6,7.3-3.4,15.1-5.4,23.3C161.3,492.7,172.5,487.5,182.3,481.9z"/>
	<path opacity="0.5" d="M394,574.7c-14.4,4.1-28.2,8-41.3,11.8c-4.7,1.7-8.8,2.8-12.2,3.4c-3.4,0.6-6.3,0.8-8.7,0.7
		c-2.4-0.1-4.5-0.4-6.3-0.9c-1.8-0.5-3.5-1.1-5.1-1.7c-4-1.4-7.5-3-10.7-4.6c-3.1-1.6-7.4-3.7-12.7-6.2c-4-2-7-4.4-9.1-7.2
		c-2-2.8-2.7-6.4-2.1-10.8c0.4-6.6,1.2-14.3,2.2-23c1-8.7,2.3-18,3.9-27.9c1.6-9.9,3.4-20.1,5.4-30.6c2-10.5,4.1-20.9,6.2-31.2
		c2.2-10.2,4.4-20,6.8-29.2c2.3-9.3,4.7-17.7,7-25.3c1.8-4.1,4.1-6.8,7.2-8c3-1.2,7.5-1.5,13.3-1c6.2,0.3,12.8,1,20,2.1
		c7.2,1.1,13.5,2.6,19,4.4c5.5,1.8,9,3.6,10.4,5.5c1.4,1.9,1.4,4.7,0.1,8.4c-2.8,9.1-5.7,19.2-8.7,30.4c-3,11.2-6,22.9-9,35
		c-3,12.1-5.9,24.4-8.7,36.8c-2.8,12.4-5.3,24.5-7.6,36.1c9.7-2.5,18.9-4.6,27.5-6.4c8.6-1.8,17.9-3.6,27.9-5.4
		c5.7-1.1,10.2-1.4,13.6-0.8c3.3,0.6,6.5,2.2,9.6,5c3.2,2.6,5.8,5.4,7.8,8.3c2,2.9,3.7,5.8,5.1,8.7c1.1,1.8,1.8,3.3,2.3,4.4
		c0.4,1.1,0.4,2-0.1,2.8c-0.5,0.8-1.5,1.5-3.2,2.3c-1.7,0.7-4.2,1.6-7.5,2.5C422.6,566.7,408.4,570.7,394,574.7z"/>
	<path opacity="0.5" d="M575.6,506.4c-8.1,1.9-16,3.8-23.8,5.7c-7.8,1.9-15.2,3.8-22.3,5.8c-7.1,2-13.6,4-19.5,6
		c-4.2,7.3-7.8,14.1-10.7,20.4c-2.9,6.3-5.7,12.5-8.3,18.5c-1.8,3.3-4,5.3-6.4,6.1c-2.4,0.8-6.2,0.9-11.4,0.1
		c-2.8-0.5-6-1.1-9.6-1.8c-3.6-0.7-7-1.5-10.4-2.5c-2.7-1.1-5.1-2-7.1-2.7c-2.1-0.7-3.6-1.7-4.8-3c-1.1-1.3-1.7-3-1.9-5.2
		c-0.1-2.2,0.5-5.3,1.8-9.1c3.2-8.2,7-17.3,11.4-27.2c4.4-9.9,9.2-20.2,14.3-30.9c5.1-10.7,10.5-21.5,16.1-32.5
		c5.6-11,11.3-21.8,16.9-32.4c5.7-10.6,11.2-20.6,16.7-30.2c5.4-9.6,10.6-18.2,15.6-26c2.7-4.1,6.2-7.5,10.7-10.4
		c4.5-2.9,11.2-4.6,20.2-5.2c7.9-0.7,14.9-1.1,21.1-1.2c6.2-0.2,11.9-0.2,17.1-0.1c5.2,0.1,10.1,0.4,14.5,0.7
		c4.5,0.3,8.9,0.6,13.4,0.9c6.3,0.6,10.5,2.1,12.6,4.4c2.1,2.3,3.2,5.5,3.4,9.5c0.6,10,1.7,22,3.3,35.9c1.6,13.9,3.4,28.6,5.7,44.1
		c2.2,15.5,4.7,31.3,7.4,47.4c2.7,16.1,5.4,31.4,8.2,46c0.6,3.1,0.2,5.4-1.3,6.8c-1.5,1.4-5.1,2.5-10.8,3.2
		c-5.8,0.7-11.1,1.3-16,1.7c-4.9,0.4-10.1,0.2-15.6-0.5c-5.4-0.6-9.3-1.6-11.7-3.3c-2.4-1.6-4.3-4.9-5.9-9.6
		c-3.1-10.1-6.1-21.8-8.9-35.1C591.7,502.6,583.7,504.5,575.6,506.4z M591.9,462.3c-2-12.5-3.8-24.9-5.6-37.1
		c-1.8-12.2-3.2-24.1-4.3-35.7c-6.7,11.5-14.1,24.5-22.3,38.9c-8.1,14.4-16.4,29.7-24.8,45.9C553.8,469.8,572.8,465.8,591.9,462.3z"
		/>
	<path opacity="0.5" d="M738.6,441c-2.1,11.3-4.1,22.3-5.8,33c-1.7,10.7-3.3,20.9-4.6,30.5c-1.3,9.7-2.3,18.3-2.9,25.8
		c-0.8,3.3-2.1,5.5-4,6.8c-1.9,1.2-5.5,1.7-10.9,1.5c-5.1-0.2-10.3-0.7-15.6-1.3c-5.3-0.6-10.2-1.6-14.6-2.8
		c-5.5-1.4-9.2-3.3-11.2-5.5c-2-2.2-2.8-5.7-2.5-10.3c0-6.6,0.4-14.5,1.3-23.9c0.9-9.3,2-19.3,3.4-30c1.4-10.6,3-21.6,4.8-33
		c1.8-11.3,3.7-22.3,5.6-33.1c1.9-10.7,3.8-20.8,5.7-30.3c1.9-9.5,3.8-17.6,5.6-24.4c1.7-4.8,4.1-8.1,7.1-9.7
		c3.1-1.6,8-2.5,14.9-2.7c10.2-0.2,19.1-0.1,26.6,0.3c7.5,0.5,14.9,1.2,22.2,2.2c4.8,0.6,8.6,1.5,11.4,2.5c2.8,1.1,5,2.4,6.7,3.9
		c1.7,1.6,3,3.3,3.8,5.4c0.9,2,1.7,4.3,2.6,6.9c0.1,1.2,0.4,2.7,0.8,4.4c0.4,1.7,1.3,4.9,2.6,9.5c1.4,4.6,3.4,11.2,6,19.9
		c2.7,8.6,6.3,20.4,10.9,35.2c2.8-5.9,6-12.3,9.6-19.3c3.6-7,7.4-14.2,11.4-21.4c4-7.3,8-14.5,12.2-21.7c4.1-7.2,8.1-13.9,12-20
		c3.6-6.9,6.9-12.5,9.6-16.9c2.8-4.4,5.8-7.9,9-10.5c3.2-2.5,6.9-4.2,11.1-5c4.2-0.8,9.7-0.9,16.5-0.4c8.3,0.4,17.1,1,26.3,1.8
		c9.2,0.9,18.3,2.1,27.4,3.8c6.2,1.2,10.3,2.9,12.2,5.2c1.9,2.3,2.2,5.9,1,10.7c-1.8,7.2-3.7,15.5-5.7,25.1c-2,9.6-4,19.7-6.1,30.5
		c-2,10.7-4.1,21.8-6.2,33.1c-2.1,11.4-4,22.3-5.7,32.7c-1.8,10.4-3.3,20.2-4.7,29.2c-1.4,9.1-2.4,16.7-3.2,23
		c-0.9,3.3-2.3,5.8-4.2,7.5c-1.9,1.7-5.8,2.3-11.6,2c-5.4-0.2-10.8-0.6-16.2-1.1c-5.4-0.5-10.2-1.4-14.5-2.7
		c-5.5-1.3-9.2-3.1-11.1-5.5c-1.9-2.4-2.6-5.9-1.9-10.4c0.1-5.2,0.6-11.8,1.3-19.9c0.8-8.1,1.8-16.9,3-26.5
		c1.2-9.6,2.7-19.5,4.5-29.9c1.8-10.3,3.7-20.3,5.9-29.8c-5,8.6-10.4,18.2-16.2,28.8c-5.8,10.6-11.4,21.1-16.9,31.4
		c-5.4,10.4-10.5,20.3-15.2,29.6c-4.7,9.4-8.4,17.3-11.2,23.7c-1,2.1-1.9,3.7-2.5,5c-0.7,1.2-1.5,2.2-2.5,2.8
		c-1,0.7-2.4,1.1-4.1,1.5c-1.7,0.3-4.1,0.4-7.2,0.3c-8.1-0.2-15.9-0.8-23.4-1.8c-2.5-0.4-4.6-0.9-6.3-1.5c-1.7-0.6-3.3-1.4-4.7-2.5
		c-1.4-1.1-2.7-2.5-3.9-4.3c-1.2-1.8-2.4-4.1-3.8-7c-4.9-11.6-9.8-24.8-14.5-39.4c-4.8-14.7-9-29.6-12.8-44.7
		C742.9,418.6,740.7,429.7,738.6,441z"/>
</g>
<g id="Calque_5_-_copie_3">
	<g>
		<g>
			<path fill="#E30613" d="M124.4,607.7c-2.2,0-4.4-0.2-6.5-0.5c-2.9-0.5-6.2-1.3-9.7-2.4c-3.4-0.6-6.7-1.4-9.6-2.3
				c-2.9-0.9-5.8-1.8-8.6-2.9c-2.8-1-5.6-2.2-8.5-3.4c-2.8-1.2-6-2.8-9.4-4.5c-0.1-0.1-0.3-0.2-0.4-0.2c-2.6-1.8-4.9-3.3-6.7-4.6
				c-2.2-1.5-4-3.2-5.4-5c-1.4-1.9-2.4-4.2-3-6.8c-0.5-2.4-0.6-5.3-0.2-8.9c0.4-10.4,1.3-22,2.7-34.7c1.4-13.1,2.9-26.2,4.5-38.9
				c1.6-13.2,3-26.4,4.2-39.3c1.2-12.9,1.8-24.9,1.8-35.7c0-1.3,0.7-2.5,1.9-3.1c7.4-3.8,15.9-7.6,25.5-11.3
				c9.5-3.7,19.6-7.2,30.1-10.3c10.5-3.1,21.3-5.8,32.1-8c10.8-2.2,21.3-3.8,31.3-4.7c5.4-0.5,10.6-0.7,15.6-0.7
				c4.3,0,8.5,0.2,12.5,0.6c8.8,0.8,16.3,2.8,22.3,5.8c0,0,0.1,0,0.1,0.1c7.6,4.1,14.4,8.8,20.2,13.8c5.9,5.2,10.8,11.6,14.6,19.1
				c0,0.1,0.1,0.1,0.1,0.2c2,4.6,2.8,9.2,2.3,13.8c-0.4,4.5-1.8,9-4.1,13.3c-2.2,4.2-5.1,8.4-8.6,12.3c-3.4,3.8-7.3,7.5-11.6,11
				c0,0-0.1,0.1-0.1,0.1c-4.7,3.5-9.4,7-14,10.3c-3.1,2.2-6.6,4.6-10.4,6.9c5.8,2.2,10.9,5.2,15.5,8.9c6.5,5.4,11.1,11.4,13.5,17.8
				c2.9,8.1,2.6,15.6-0.8,22.2c-3.2,6.2-8.7,12.5-16.4,18.9c-5.3,4.9-11.8,9.7-19.3,14.3c-7.4,4.6-15.5,9.1-23.9,13.2
				c-8.3,4.1-17,8-25.7,11.5c-8.7,3.5-17,6.6-24.7,9.2c-4.2,1.4-7.9,2.6-11,3.4c-3.3,0.9-6.4,1.4-9.4,1.6
				C126.1,607.7,125.2,607.7,124.4,607.7z M130.9,524.8c-1.3,6.3-2.6,12.5-3.8,18.6c-1,4.8-1.8,9.7-2.6,14.5
				c8.8-3.1,17-6.5,24.4-9.9c8.8-4.1,16.2-8.3,22.1-12.4c5.7-4,9.9-7.8,12.4-11.2c1.3-1.7,2.6-4,2.1-5.7c-0.6-0.6-1.9-1.4-4.6-2
				c-2.4-0.6-5.4-0.9-8.9-0.9c-1,0-2,0-3,0.1c-4.9,0.2-10.8,1.1-17.5,2.6C145.2,519.9,138.3,522,130.9,524.8z M150.9,439.9
				c-1.9,5.9-3.6,12.3-5.1,18.9c-1.2,5.3-2.5,11-3.8,16.9c10-4.1,19.1-8.4,27.1-13c9.6-5.5,17.6-10.8,23.8-16
				c6.1-5,10.6-9.6,13.2-13.6c2.3-3.5,2.6-5.3,2.3-5.8c-0.2-0.3-1.2-1.1-4.6-1.6c-1.1-0.1-2.3-0.2-3.6-0.2c-2.6,0-5.8,0.3-9.3,0.9
				c-5.5,1-11.8,2.6-18.8,4.9C165.6,433.5,158.5,436.4,150.9,439.9z"/>
			<path d="M205.7,382.7c4.2,0,8.3,0.2,12.2,0.5c8.4,0.8,15.4,2.6,21.1,5.4c7.4,4,13.9,8.5,19.5,13.3c5.6,4.9,10.2,10.9,13.8,18.1
				c1.8,4,2.5,8.1,2.1,12.1c-0.4,4-1.6,8.1-3.7,12.1c-2.1,4-4.8,7.8-8.1,11.6c-3.3,3.7-7,7.2-11.2,10.6c-4.6,3.4-9.2,6.9-14,10.3
				c-4.7,3.4-10.4,7-16.9,10.7c8.5,2.1,15.7,5.7,21.8,10.7c6.1,5,10.2,10.5,12.5,16.4c2.5,7.1,2.3,13.6-0.7,19.4
				c-3,5.8-8.2,11.7-15.5,17.8c-5.2,4.8-11.5,9.4-18.9,14c-7.4,4.6-15.2,8.9-23.6,13c-8.3,4.1-16.8,7.9-25.5,11.4
				c-8.6,3.5-16.8,6.5-24.5,9.1c-4.2,1.4-7.8,2.5-10.8,3.4c-3.1,0.8-6,1.3-8.7,1.5c-0.8,0-1.5,0.1-2.3,0.1c-2,0-4-0.2-6-0.5
				c-2.8-0.4-5.9-1.2-9.4-2.4c-3.4-0.6-6.6-1.4-9.5-2.2c-2.9-0.9-5.7-1.8-8.4-2.8c-2.7-1-5.4-2.1-8.2-3.3c-2.8-1.2-5.9-2.7-9.3-4.4
				c-2.6-1.8-4.9-3.3-6.8-4.6c-1.9-1.3-3.4-2.7-4.5-4.2c-1.1-1.5-1.9-3.3-2.4-5.4c-0.4-2.1-0.5-4.7-0.2-8
				c0.4-10.3,1.3-21.9,2.7-34.6c1.4-12.7,2.9-25.7,4.5-38.9c1.6-13.2,3-26.4,4.2-39.4c1.2-13,1.8-25,1.9-36.1
				c7.3-3.8,15.7-7.5,25.1-11.2c9.4-3.7,19.4-7.1,29.8-10.2c10.4-3.1,21-5.7,31.8-7.9c10.7-2.2,21-3.7,30.9-4.6
				C195.8,383,200.9,382.7,205.7,382.7 M137.1,481.4c12.7-4.8,24-10,33.8-15.6c9.8-5.6,17.9-11,24.3-16.3c6.4-5.3,11-10,13.9-14.3
				c2.9-4.3,3.7-7.5,2.4-9.6c-1.1-1.6-3.4-2.7-7.1-3.2c-1.2-0.2-2.6-0.3-4.1-0.3c-2.9,0-6.1,0.3-9.9,1c-5.6,1-12.1,2.7-19.3,5
				c-7.2,2.3-14.9,5.5-23.1,9.3c-2.1,6.5-4,13.4-5.6,20.7C140.8,465.4,139.1,473.1,137.1,481.4 M120.1,563.2
				c11.1-3.7,21.2-7.7,30.2-12c9-4.3,16.5-8.5,22.6-12.7c6-4.2,10.4-8.2,13.2-11.9c2.8-3.7,3.6-6.9,2.4-9.6
				c-1.2-1.6-3.5-2.8-6.9-3.6c-2.7-0.6-5.9-1-9.7-1c-1,0-2.1,0-3.2,0.1c-5.2,0.2-11.2,1.1-18.1,2.7c-6.9,1.6-14.5,4-22.8,7.2
				c-1.5,6.9-2.9,13.8-4.3,20.5C122.3,549.5,121.1,556.3,120.1,563.2 M205.7,375.7C205.7,375.7,205.7,375.7,205.7,375.7
				c-5.1,0-10.4,0.3-15.9,0.8c-10.1,0.9-20.7,2.5-31.7,4.7c-10.9,2.2-21.8,4.9-32.4,8.1c-10.6,3.2-20.8,6.7-30.4,10.4
				c-9.6,3.8-18.3,7.6-25.8,11.5c-2.3,1.2-3.8,3.6-3.8,6.2c0,10.7-0.6,22.7-1.8,35.4c-1.2,12.9-2.6,26.1-4.2,39.2
				c-1.5,12.7-3,25.8-4.5,39c-1.4,12.7-2.3,24.5-2.7,34.9c-0.4,3.9-0.2,7.1,0.3,9.8c0.6,3.1,1.8,5.8,3.6,8.2
				c1.6,2.2,3.7,4.1,6.3,5.9c1.9,1.3,4.1,2.8,6.7,4.6c0.3,0.2,0.5,0.3,0.8,0.5c3.5,1.7,6.7,3.3,9.6,4.6c2.9,1.3,5.8,2.5,8.7,3.5
				c2.9,1,5.8,2,8.8,2.9c3,0.9,6.3,1.7,9.8,2.3c3.6,1.2,7,2,10.1,2.5c2.4,0.4,4.7,0.6,7.1,0.6c0.9,0,1.8,0,2.8-0.1
				c3.2-0.2,6.6-0.8,10.1-1.7c3.2-0.9,7-2,11.2-3.5c7.8-2.6,16.2-5.7,24.9-9.3c8.8-3.6,17.5-7.4,25.9-11.6
				c8.5-4.2,16.7-8.7,24.2-13.3c7.6-4.7,14.3-9.7,19.8-14.7c8.1-6.7,13.8-13.2,17.2-19.9c3.9-7.5,4.2-15.9,1.1-24.9
				c0-0.1,0-0.1-0.1-0.2c-2.7-7.1-7.6-13.5-14.6-19.3c-3.1-2.6-6.6-4.8-10.3-6.8c1.8-1.2,3.5-2.4,5.1-3.5c4.6-3.4,9.4-6.9,14-10.4
				c0.1-0.1,0.2-0.1,0.2-0.2c4.4-3.6,8.4-7.4,12-11.4c3.7-4.1,6.8-8.5,9.1-13c2.5-4.8,4-9.7,4.4-14.6c0.5-5.2-0.4-10.5-2.6-15.6
				c0-0.1-0.1-0.2-0.2-0.3c-4-8-9.2-14.8-15.4-20.2c-6-5.2-12.9-10-20.8-14.2c-0.1,0-0.1-0.1-0.2-0.1c-6.4-3.2-14.3-5.3-23.6-6.1
				C214.5,375.9,210.2,375.7,205.7,375.7L205.7,375.7z M153.8,442.4c6.9-3.2,13.5-5.8,19.6-7.7c6.9-2.2,13-3.8,18.3-4.8
				c3.3-0.6,6.2-0.9,8.7-0.9c1.1,0,2.2,0.1,3.1,0.2c0.4,0.1,0.7,0.1,1,0.2c-0.3,0.5-0.6,1.1-1.1,1.8c-2.5,3.7-6.7,8-12.6,12.8
				c-6.1,5-13.9,10.2-23.3,15.6c-6.1,3.5-13,6.9-20.4,10.1c0.8-3.5,1.6-6.9,2.3-10.2C150.6,453.6,152.1,447.8,153.8,442.4
				L153.8,442.4z M133.9,527.4c6.6-2.4,12.7-4.3,18.3-5.6c6.4-1.5,12.1-2.3,16.8-2.5c1,0,2-0.1,2.9-0.1c3.2,0,5.9,0.3,8,0.8
				c0.7,0.2,1.2,0.3,1.6,0.5c-0.2,0.5-0.6,1.1-1.1,1.8c-2.3,3.1-6.2,6.6-11.6,10.4c-5.7,4-12.9,8.1-21.5,12.1
				c-5.7,2.7-11.8,5.3-18.4,7.8c0.5-2.9,1-5.7,1.6-8.5C131.6,538.6,132.7,533,133.9,527.4L133.9,527.4z"/>
		</g>
		<g>
			<g>
				<path fill="#E3591B" d="M241.3,495.9c6.1,5,10.2,10.5,12.5,16.4c2.5,7.1,2.3,13.6-0.7,19.4c-3,5.8-8.2,11.7-15.5,17.8
					c-5.2,4.8-11.5,9.4-18.9,14c-7.4,4.6-15.2,8.9-23.6,13c-8.3,4.1-16.8,7.9-25.5,11.4c-8.6,3.5-16.8,6.5-24.5,9.1
					c-4.2,1.4-7.8,2.5-10.8,3.4c-3.1,0.8-6,1.3-8.7,1.5c-2.7,0.2-5.5,0-8.3-0.4c-2.8-0.4-5.9-1.2-9.4-2.4c-3.4-0.6-6.6-1.4-9.5-2.2
					c-2.9-0.9-5.7-1.8-8.4-2.8c-2.7-1-5.4-2.1-8.2-3.3c-2.8-1.2-5.9-2.7-9.3-4.4c-2.6-1.8-4.9-3.3-6.8-4.6c-1.9-1.3-3.4-2.7-4.5-4.2
					c-1.1-1.5-1.9-3.3-2.4-5.4c-0.4-2.1-0.5-4.7-0.2-8c0.4-10.3,1.3-21.9,2.7-34.6c1.4-12.7,2.9-25.7,4.5-38.9
					c1.6-13.2,3-26.4,4.2-39.4c1.2-13,1.8-25,1.9-36.1c7.3-3.8,15.7-7.5,25.1-11.2c9.4-3.7,19.4-7.1,29.8-10.2
					c10.4-3.1,21-5.7,31.8-7.9c10.7-2.2,21-3.7,30.9-4.6c9.9-0.9,19-1,27.4-0.2c8.4,0.8,15.4,2.6,21.1,5.4c7.4,4,13.9,8.5,19.5,13.3
					c5.6,4.9,10.2,10.9,13.8,18.1c1.8,4,2.5,8.1,2.1,12.1c-0.4,4-1.6,8.1-3.7,12.1c-2.1,4-4.8,7.8-8.1,11.6
					c-3.3,3.7-7,7.2-11.2,10.6c-4.6,3.4-9.2,6.9-14,10.3c-4.7,3.4-10.4,7-16.9,10.7C228,487.4,235.3,490.9,241.3,495.9z
					 M122.6,540.5c-1.4,6.7-2.5,13.6-3.6,20.4c11.1-3.7,21.2-7.7,30.2-12c9-4.3,16.5-8.5,22.6-12.7c6-4.2,10.4-8.2,13.2-11.9
					c2.8-3.7,3.6-6.9,2.4-9.6c-1.2-1.6-3.5-2.8-6.9-3.6c-3.4-0.8-7.7-1.1-12.8-0.9c-5.2,0.2-11.2,1.1-18.1,2.7
					c-6.9,1.6-14.5,4-22.8,7.2C125.3,527,123.9,533.8,122.6,540.5z M169.8,463.5c9.8-5.6,17.9-11,24.3-16.3c6.4-5.3,11-10,13.9-14.3
					c2.9-4.3,3.7-7.5,2.4-9.6c-1.1-1.6-3.4-2.7-7.1-3.2c-3.6-0.5-8.3-0.3-13.9,0.7c-5.6,1-12.1,2.7-19.3,5
					c-7.2,2.3-14.9,5.5-23.1,9.3c-2.1,6.5-4,13.4-5.6,20.7c-1.6,7.3-3.4,15.1-5.4,23.3C148.7,474.4,160,469.1,169.8,463.5z"/>
			</g>
			<g>
				<path fill="none" d="M203.3,420.1c-3.6-0.5-8.3-0.3-13.9,0.7c-5.6,1-12.1,2.7-19.3,5c-7.2,2.3-14.9,5.5-23.1,9.3
					c-2.1,6.5-4,13.4-5.6,20.7c-0.9,4.2-1.9,8.6-3,13.1c-0.5,2.1-1,4.1-1.5,6.3c-0.3,1.3-0.6,2.6-0.9,4c12.7-4.8,24-10,33.8-15.6
					c4.2-2.4,8.1-4.8,11.7-7.1c1.7-1.1,3.4-2.2,4.9-3.3c2.8-2,5.3-3.9,7.7-5.8c6.4-5.3,11-10,13.9-14.3c2.9-4.3,3.7-7.5,2.4-9.6
					C209.4,421.7,207,420.6,203.3,420.1z"/>
				<path fill="none" d="M187.4,514.7c-1.2-1.6-3.5-2.8-6.9-3.6c-2.8-0.7-6.3-1-10.3-1c-0.8,0-1.7,0-2.5,0.1c-0.8,0-1.6,0.1-2.4,0.1
					c-4.6,0.4-9.9,1.2-15.7,2.6c-6.9,1.6-14.5,4-22.8,7.2c-1.5,6.9-2.9,13.8-4.3,20.5c-1.2,6.2-2.3,12.4-3.3,18.7
					c-0.1,0.6-0.2,1.2-0.3,1.8c1.3-0.4,2.5-0.9,3.8-1.3c9.6-3.4,18.5-6.9,26.5-10.7c9-4.3,16.5-8.5,22.6-12.7
					c3.7-2.6,6.9-5.2,9.3-7.6c1.5-1.5,2.8-2.9,3.9-4.4c0.2-0.3,0.4-0.5,0.5-0.8C187.9,520.1,188.5,517.2,187.4,514.7z"/>
				<path fill="none" d="M257.5,399.9c-5.6-4.9-12.1-9.3-19.5-13.3c-5.4-2.7-12.2-4.5-20.2-5.3c-0.1,1.9-1.5,3.3-3.1,3.3
					c-1.7,0-3.1-1.6-3.1-3.6c0-0.1,0-0.1,0-0.2c-6.9-0.3-14.3-0.2-22.1,0.5c-1,0.1-2,0.2-3,0.3c-0.3,1.7-1.5,2.9-3.1,2.9
					c-1.3,0-2.4-0.9-2.9-2.3c-7.1,0.9-14.4,2.1-21.9,3.6c-10.7,2.2-21.3,4.8-31.8,7.9c-6.4,1.9-12.6,3.9-18.7,6.1
					c-0.3,1.6-1.6,2.8-3,2.8c-0.8,0-1.5-0.4-2.1-0.9c-2,0.7-4,1.5-6,2.3c-9.5,3.7-17.8,7.4-25.1,11.2c0,5.7-0.2,11.7-0.5,17.9
					c0.6-0.8,1.4-1.4,2.4-1.4c1.7,0,3.1,1.6,3.1,3.6c0,2-1.4,3.6-3.1,3.6c-1.1,0-2.1-0.7-2.7-1.8c-0.3,4.5-0.7,9.2-1.1,14
					c-1.2,13-2.6,26.2-4.2,39.4c-1.6,13.2-3.1,26.2-4.5,38.9c-1.2,10.6-2,20.4-2.4,29.3c1.3,0.4,2.3,1.8,2.3,3.5
					c0,1.8-1.2,3.3-2.7,3.6c-0.1,2.4,0,4.5,0.3,6.1c0.4,2.1,1.2,3.9,2.4,5.4c1.1,1.5,2.7,2.9,4.5,4.2c1.9,1.3,4.1,2.8,6.8,4.6
					c3.4,1.7,6.5,3.2,9.3,4.4c2.8,1.2,5.5,2.4,8.2,3.3c2.7,1,5.5,1.9,8.4,2.8c2.9,0.9,6.1,1.6,9.5,2.2c3.5,1.2,6.6,1.9,9.4,2.4
					c0.6,0.1,1.1,0.2,1.7,0.2c-0.9-0.6-1.4-1.8-1.4-3c0-2,1.4-3.6,3.1-3.6c1.7,0,3.1,1.6,3.1,3.6c0,1.4-0.7,2.7-1.8,3.3
					c1.2,0,2.4,0,3.6,0c2.7-0.2,5.6-0.7,8.7-1.5c3.1-0.8,6.7-2,10.8-3.4c7.7-2.6,15.9-5.6,24.5-9.1c8.6-3.5,17.1-7.3,25.5-11.4
					c6.8-3.3,13.3-6.8,19.5-10.5c-1.7,0-3.1-1.6-3.1-3.6c0-2,1.4-3.6,3.1-3.6c1.7,0,3.1,1.6,3.1,3.6c0,0.7-0.2,1.4-0.5,2
					c0.5-0.3,1-0.6,1.5-0.9c7.4-4.6,13.7-9.2,18.9-14c7.4-6.1,12.6-12,15.5-17.8c3-5.8,3.2-12.3,0.7-19.4
					c-2.3-5.9-6.4-11.4-12.5-16.4c-6.1-5-13.3-8.5-21.8-10.7c6.5-3.7,12.2-7.2,16.9-10.7c4.7-3.4,9.4-6.9,14-10.3
					c4.1-3.4,7.8-6.9,11.2-10.6c3.3-3.7,6-7.6,8.1-11.6c2.1-4,3.3-8,3.7-12.1c0.4-4-0.3-8.1-2.1-12.1
					C267.7,410.8,263.1,404.8,257.5,399.9z M73.7,584.2c-1.7,0-3.1-1.6-3.1-3.6c0-2,1.4-3.6,3.1-3.6c1.7,0,3.1,1.6,3.1,3.6
					C76.9,582.6,75.5,584.2,73.7,584.2z M73.7,547.9c-1.7,0-3.1-1.6-3.1-3.6c0-2,1.4-3.6,3.1-3.6c1.7,0,3.1,1.6,3.1,3.6
					C76.9,546.3,75.5,547.9,73.7,547.9z M73.7,511.6c-1.7,0-3.1-1.6-3.1-3.6c0-2,1.4-3.6,3.1-3.6c1.7,0,3.1,1.6,3.1,3.6
					C76.9,510,75.5,511.6,73.7,511.6z M73.7,475.3c-1.7,0-3.1-1.6-3.1-3.6c0-2,1.4-3.6,3.1-3.6c1.7,0,3.1,1.6,3.1,3.6
					C76.9,473.7,75.5,475.3,73.7,475.3z M89.4,566c-1.7,0-3.1-1.6-3.1-3.6c0-2,1.4-3.6,3.1-3.6c1.7,0,3.1,1.6,3.1,3.6
					C92.5,564.4,91.1,566,89.4,566z M89.4,529.7c-1.7,0-3.1-1.6-3.1-3.6c0-2,1.4-3.6,3.1-3.6c1.7,0,3.1,1.6,3.1,3.6
					C92.5,528.1,91.1,529.7,89.4,529.7z M89.4,493.4c-1.7,0-3.1-1.6-3.1-3.6c0-2,1.4-3.6,3.1-3.6c1.7,0,3.1,1.6,3.1,3.6
					C92.5,491.8,91.1,493.4,89.4,493.4z M89.4,457.1c-1.7,0-3.1-1.6-3.1-3.6c0-2,1.4-3.6,3.1-3.6c1.7,0,3.1,1.6,3.1,3.6
					C92.5,455.5,91.1,457.1,89.4,457.1z M89.4,420.8c-1.7,0-3.1-1.6-3.1-3.6c0-2,1.4-3.6,3.1-3.6c1.7,0,3.1,1.6,3.1,3.6
					C92.5,419.2,91.1,420.8,89.4,420.8z M105,584.2c-1.7,0-3.1-1.6-3.1-3.6c0-2,1.4-3.6,3.1-3.6c1.7,0,3.1,1.6,3.1,3.6
					C108.2,582.6,106.8,584.2,105,584.2z M105,547.9c-1.7,0-3.1-1.6-3.1-3.6c0-2,1.4-3.6,3.1-3.6c1.7,0,3.1,1.6,3.1,3.6
					C108.2,546.3,106.8,547.9,105,547.9z M105,511.6c-1.7,0-3.1-1.6-3.1-3.6c0-2,1.4-3.6,3.1-3.6c1.7,0,3.1,1.6,3.1,3.6
					C108.2,510,106.8,511.6,105,511.6z M105,475.3c-1.7,0-3.1-1.6-3.1-3.6c0-2,1.4-3.6,3.1-3.6c1.7,0,3.1,1.6,3.1,3.6
					C108.2,473.7,106.8,475.3,105,475.3z M105,439c-1.7,0-3.1-1.6-3.1-3.6c0-2,1.4-3.6,3.1-3.6c1.7,0,3.1,1.6,3.1,3.6
					C108.2,437.4,106.8,439,105,439z M199,395.4c1.7,0,3.1,1.6,3.1,3.6c0,2-1.4,3.6-3.1,3.6c-1.7,0-3.1-1.6-3.1-3.6
					C195.9,397,197.3,395.4,199,395.4z M183.3,413.6c1.7,0,3.1,1.6,3.1,3.6c0,2-1.4,3.6-3.1,3.6c-1.7,0-3.1-1.6-3.1-3.6
					C180.2,415.2,181.6,413.6,183.3,413.6z M167.7,395.4c1.7,0,3.1,1.6,3.1,3.6c0,2-1.4,3.6-3.1,3.6c-1.7,0-3.1-1.6-3.1-3.6
					C164.5,397,165.9,395.4,167.7,395.4z M152,413.6c1.7,0,3.1,1.6,3.1,3.6c0,2-1.4,3.6-3.1,3.6c-1.7,0-3.1-1.6-3.1-3.6
					C148.9,415.2,150.3,413.6,152,413.6z M136.4,395.4c1.7,0,3.1,1.6,3.1,3.6c0,2-1.4,3.6-3.1,3.6c-1.7,0-3.1-1.6-3.1-3.6
					C133.2,397,134.6,395.4,136.4,395.4z M136.4,431.7c1.7,0,3.1,1.6,3.1,3.6c0,2-1.4,3.6-3.1,3.6c-1.7,0-3.1-1.6-3.1-3.6
					C133.2,433.3,134.6,431.7,136.4,431.7z M120.7,413.6c1.7,0,3.1,1.6,3.1,3.6c0,2-1.4,3.6-3.1,3.6c-1.7,0-3.1-1.6-3.1-3.6
					C117.6,415.2,119,413.6,120.7,413.6z M120.7,449.9c1.7,0,3.1,1.6,3.1,3.6c0,2-1.4,3.6-3.1,3.6c-1.7,0-3.1-1.6-3.1-3.6
					C117.6,451.5,119,449.9,120.7,449.9z M120.7,486.2c1.7,0,3.1,1.6,3.1,3.6c0,2-1.4,3.6-3.1,3.6c-1.7,0-3.1-1.6-3.1-3.6
					C117.6,487.8,119,486.2,120.7,486.2z M120.7,522.5c1.7,0,3.1,1.6,3.1,3.6c0,2-1.4,3.6-3.1,3.6c-1.7,0-3.1-1.6-3.1-3.6
					C117.6,524.1,119,522.5,120.7,522.5z M136.4,584.2c-1.7,0-3.1-1.6-3.1-3.6c0-2,1.4-3.6,3.1-3.6c1.7,0,3.1,1.6,3.1,3.6
					C139.5,582.6,138.1,584.2,136.4,584.2z M152,566c-1.7,0-3.1-1.6-3.1-3.6c0-2,1.4-3.6,3.1-3.6c1.7,0,3.1,1.6,3.1,3.6
					C155.1,564.4,153.7,566,152,566z M167.7,584.2c-1.7,0-3.1-1.6-3.1-3.6c0-2,1.4-3.6,3.1-3.6c1.7,0,3.1,1.6,3.1,3.6
					C170.8,582.6,169.4,584.2,167.7,584.2z M167.7,547.9c-1.7,0-3.1-1.6-3.1-3.6c0-2,1.4-3.6,3.1-3.6c1.7,0,3.1,1.6,3.1,3.6
					C170.8,546.3,169.4,547.9,167.7,547.9z M183.3,566c-1.7,0-3.1-1.6-3.1-3.6c0-2,1.4-3.6,3.1-3.6c1.7,0,3.1,1.6,3.1,3.6
					C186.5,564.4,185.1,566,183.3,566z M186.5,526.1c0,2-1.4,3.6-3.1,3.6c-0.9,0-1.7-0.4-2.2-1.1c-2.5,2.4-5.6,5-9.3,7.6
					c-6,4.2-13.6,8.5-22.6,12.7c-8,3.8-16.8,7.3-26.5,10.7c0.7,0.7,1.1,1.6,1.1,2.7c0,2-1.4,3.6-3.1,3.6c-1.7,0-3.1-1.6-3.1-3.6
					c0-1.4,0.7-2.6,1.7-3.2c1-6.3,2.1-12.5,3.3-18.7c1.3-6.7,2.8-13.6,4.3-20.5c8.3-3.2,15.9-5.6,22.8-7.2
					c5.9-1.4,11.1-2.2,15.7-2.6c-0.5-0.6-0.8-1.4-0.8-2.3c0-2,1.4-3.6,3.1-3.6c1.7,0,3.1,1.6,3.1,3.6c0,0.8-0.2,1.5-0.6,2.1
					c4.1,0,7.5,0.3,10.3,1c3.4,0.8,5.7,2,6.9,3.6c1.1,2.5,0.5,5.5-1.9,8.8C186.1,524.2,186.5,525.1,186.5,526.1z M133.2,508
					c0-2,1.4-3.6,3.1-3.6c1.7,0,3.1,1.6,3.1,3.6c0,2-1.4,3.6-3.1,3.6C134.6,511.6,133.2,510,133.2,508z M148.9,489.8
					c0-2,1.4-3.6,3.1-3.6c1.7,0,3.1,1.6,3.1,3.6c0,2-1.4,3.6-3.1,3.6C150.3,493.4,148.9,491.8,148.9,489.8z M164.5,471.7
					c0-2,1.4-3.6,3.1-3.6c1.7,0,3.1,1.6,3.1,3.6c0,2-1.4,3.6-3.1,3.6C165.9,475.3,164.5,473.7,164.5,471.7z M180.2,489.8
					c0-2,1.4-3.6,3.1-3.6c1.7,0,3.1,1.6,3.1,3.6c0,2-1.4,3.6-3.1,3.6C181.6,493.4,180.2,491.8,180.2,489.8z M199,547.9
					c-1.7,0-3.1-1.6-3.1-3.6c0-2,1.4-3.6,3.1-3.6c1.7,0,3.1,1.6,3.1,3.6C202.1,546.3,200.7,547.9,199,547.9z M199,511.6
					c-1.7,0-3.1-1.6-3.1-3.6c0-2,1.4-3.6,3.1-3.6c1.7,0,3.1,1.6,3.1,3.6C202.1,510,200.7,511.6,199,511.6z M199,475.3
					c-1.7,0-3.1-1.6-3.1-3.6c0-2,1.4-3.6,3.1-3.6c1.7,0,3.1,1.6,3.1,3.6C202.1,473.7,200.7,475.3,199,475.3z M208,433
					c-2.9,4.3-7.5,9-13.9,14.3c-2.3,1.9-4.9,3.8-7.7,5.8c0,0.1,0,0.3,0,0.4c0,2-1.4,3.6-3.1,3.6c-0.7,0-1.3-0.3-1.9-0.7
					c-3.6,2.3-7.5,4.7-11.7,7.1c-9.8,5.6-21.1,10.8-33.8,15.6c0.3-1.3,0.6-2.6,0.9-4c-0.2,0-0.4,0.1-0.6,0.1c-1.7,0-3.1-1.6-3.1-3.6
					c0-2,1.4-3.6,3.1-3.6c0.8,0,1.5,0.4,2.1,0.9c1-4.5,2-8.9,3-13.1c1.6-7.3,3.5-14.2,5.6-20.7c8.2-3.9,15.9-7,23.1-9.3
					c7.2-2.3,13.6-4,19.3-5c5.6-1,10.3-1.2,13.9-0.7c3.6,0.5,6,1.6,7.1,3.2C211.7,425.5,210.9,428.7,208,433z M214.7,529.7
					c-1.7,0-3.1-1.6-3.1-3.6c0-2,1.4-3.6,3.1-3.6c1.7,0,3.1,1.6,3.1,3.6C217.8,528.1,216.4,529.7,214.7,529.7z M214.7,493.4
					c-1.7,0-3.1-1.6-3.1-3.6c0-2,1.4-3.6,3.1-3.6c1.7,0,3.1,1.6,3.1,3.6C217.8,491.8,216.4,493.4,214.7,493.4z M214.7,457.1
					c-1.7,0-3.1-1.6-3.1-3.6c0-2,1.4-3.6,3.1-3.6c1.7,0,3.1,1.6,3.1,3.6C217.8,455.5,216.4,457.1,214.7,457.1z M214.7,420.8
					c-1.7,0-3.1-1.6-3.1-3.6c0-2,1.4-3.6,3.1-3.6c1.7,0,3.1,1.6,3.1,3.6C217.8,419.2,216.4,420.8,214.7,420.8z M246,522.5
					c1.7,0,3.1,1.6,3.1,3.6c0,2-1.4,3.6-3.1,3.6c-1.7,0-3.1-1.6-3.1-3.6C242.8,524.1,244.2,522.5,246,522.5z M230.3,504.3
					c1.7,0,3.1,1.6,3.1,3.6c0,2-1.4,3.6-3.1,3.6c-1.7,0-3.1-1.6-3.1-3.6C227.2,505.9,228.6,504.3,230.3,504.3z M230.3,540.6
					c1.7,0,3.1,1.6,3.1,3.6c0,2-1.4,3.6-3.1,3.6c-1.7,0-3.1-1.6-3.1-3.6C227.2,542.3,228.6,540.6,230.3,540.6z M230.3,475.3
					c-1.7,0-3.1-1.6-3.1-3.6c0-2,1.4-3.6,3.1-3.6c1.7,0,3.1,1.6,3.1,3.6C233.4,473.7,232,475.3,230.3,475.3z M230.3,439
					c-1.7,0-3.1-1.6-3.1-3.6c0-2,1.4-3.6,3.1-3.6c1.7,0,3.1,1.6,3.1,3.6C233.4,437.4,232,439,230.3,439z M230.3,402.7
					c-1.7,0-3.1-1.6-3.1-3.6c0-2,1.4-3.6,3.1-3.6c1.7,0,3.1,1.6,3.1,3.6C233.4,401.1,232,402.7,230.3,402.7z M246,457.1
					c-1.7,0-3.1-1.6-3.1-3.6c0-2,1.4-3.6,3.1-3.6c1.7,0,3.1,1.6,3.1,3.6C249.1,455.5,247.7,457.1,246,457.1z M246,420.8
					c-1.7,0-3.1-1.6-3.1-3.6c0-2,1.4-3.6,3.1-3.6c1.7,0,3.1,1.6,3.1,3.6C249.1,419.2,247.7,420.8,246,420.8z M261.6,439
					c-1.7,0-3.1-1.6-3.1-3.6c0-2,1.4-3.6,3.1-3.6c1.7,0,3.1,1.6,3.1,3.6C264.8,437.4,263.4,439,261.6,439z"/>
				<ellipse fill="#8ACCC6" cx="261.6" cy="435.4" rx="3.1" ry="3.6"/>
				<ellipse fill="#8ACCC6" cx="246" cy="453.5" rx="3.1" ry="3.6"/>
				<ellipse fill="#8ACCC6" cx="246" cy="417.2" rx="3.1" ry="3.6"/>
				<ellipse fill="#8ACCC6" cx="246" cy="526.1" rx="3.1" ry="3.6"/>
				<path fill="#8ACCC6" d="M214.7,384.5c1.6,0,3-1.5,3.1-3.3c-0.3,0-0.6-0.1-0.9-0.1c-1.7-0.2-3.5-0.3-5.3-0.4c0,0.1,0,0.1,0,0.2
					C211.5,382.9,212.9,384.5,214.7,384.5z"/>
				<path fill="#8ACCC6" d="M183.3,384.5c1.5,0,2.8-1.3,3.1-2.9c-2,0.2-4,0.4-6,0.7C180.9,383.6,182,384.5,183.3,384.5z"/>
				<ellipse fill="#8ACCC6" cx="230.3" cy="435.4" rx="3.1" ry="3.6"/>
				<ellipse fill="#8ACCC6" cx="214.7" cy="453.5" rx="3.1" ry="3.6"/>
				<path fill="#8ACCC6" d="M183.3,457.1c1.7,0,3.1-1.6,3.1-3.6c0-0.2,0-0.3,0-0.4c-1.6,1.1-3.2,2.2-4.9,3.3
					C182,456.9,182.6,457.1,183.3,457.1z"/>
				<ellipse fill="#8ACCC6" cx="214.7" cy="417.2" rx="3.1" ry="3.6"/>
				<ellipse fill="#8ACCC6" cx="183.3" cy="417.2" rx="3.1" ry="3.6"/>
				<ellipse fill="#8ACCC6" cx="199" cy="399.1" rx="3.1" ry="3.6"/>
				<ellipse fill="#8ACCC6" cx="230.3" cy="399.1" rx="3.1" ry="3.6"/>
				<ellipse fill="#8ACCC6" cx="199" cy="508" rx="3.1" ry="3.6"/>
				<ellipse fill="#8ACCC6" cx="230.3" cy="508" rx="3.1" ry="3.6"/>
				<ellipse fill="#8ACCC6" cx="214.7" cy="526.1" rx="3.1" ry="3.6"/>
				<path fill="#8ACCC6" d="M181.1,528.7c0.6,0.7,1.4,1.1,2.2,1.1c1.7,0,3.1-1.6,3.1-3.6c0-1-0.4-1.9-0.9-2.6
					c-0.2,0.3-0.3,0.5-0.5,0.8C183.9,525.7,182.6,527.2,181.1,528.7z"/>
				<ellipse fill="#8ACCC6" cx="214.7" cy="489.8" rx="3.1" ry="3.6"/>
				<ellipse fill="#8ACCC6" cx="183.3" cy="489.8" rx="3.1" ry="3.6"/>
				<ellipse fill="#8ACCC6" cx="199" cy="471.7" rx="3.1" ry="3.6"/>
				<ellipse fill="#8ACCC6" cx="230.3" cy="471.7" rx="3.1" ry="3.6"/>
				<path fill="#8ACCC6" d="M214.7,558.8c-1.7,0-3.1,1.6-3.1,3.6c0,2,1.4,3.6,3.1,3.6c0.9-0.5,1.8-1.1,2.7-1.6
					c0.3-0.6,0.5-1.3,0.5-2C217.8,560.4,216.4,558.8,214.7,558.8z"/>
				<ellipse fill="#8ACCC6" cx="183.3" cy="562.4" rx="3.1" ry="3.6"/>
				<ellipse fill="#8ACCC6" cx="167.7" cy="580.6" rx="3.1" ry="3.6"/>
				<ellipse fill="#8ACCC6" cx="199" cy="544.3" rx="3.1" ry="3.6"/>
				<ellipse fill="#8ACCC6" cx="230.3" cy="544.3" rx="3.1" ry="3.6"/>
				<ellipse fill="#8ACCC6" cx="136.4" cy="435.4" rx="3.1" ry="3.6"/>
				<ellipse fill="#8ACCC6" cx="120.7" cy="453.5" rx="3.1" ry="3.6"/>
				<ellipse fill="#8ACCC6" cx="152" cy="417.2" rx="3.1" ry="3.6"/>
				<ellipse fill="#8ACCC6" cx="120.7" cy="417.2" rx="3.1" ry="3.6"/>
				<ellipse fill="#8ACCC6" cx="105" cy="435.4" rx="3.1" ry="3.6"/>
				<ellipse fill="#8ACCC6" cx="136.4" cy="399.1" rx="3.1" ry="3.6"/>
				<ellipse fill="#8ACCC6" cx="167.7" cy="399.1" rx="3.1" ry="3.6"/>
				<ellipse fill="#8ACCC6" cx="136.4" cy="508" rx="3.1" ry="3.6"/>
				<path fill="#8ACCC6" d="M170.2,510.1c0.4-0.6,0.6-1.3,0.6-2.1c0-2-1.4-3.6-3.1-3.6c-1.7,0-3.1,1.6-3.1,3.6
					c0,0.9,0.3,1.7,0.8,2.3c0.8-0.1,1.6-0.1,2.4-0.1C168.6,510.1,169.4,510.1,170.2,510.1z"/>
				<ellipse fill="#8ACCC6" cx="120.7" cy="526.1" rx="3.1" ry="3.6"/>
				<ellipse fill="#8ACCC6" cx="152" cy="489.8" rx="3.1" ry="3.6"/>
				<ellipse fill="#8ACCC6" cx="120.7" cy="489.8" rx="3.1" ry="3.6"/>
				<ellipse fill="#8ACCC6" cx="105" cy="508" rx="3.1" ry="3.6"/>
				<path fill="#8ACCC6" d="M136.4,468c-1.7,0-3.1,1.6-3.1,3.6c0,2,1.4,3.6,3.1,3.6c0.2,0,0.4,0,0.6-0.1c0.5-2.1,1-4.2,1.5-6.3
					C137.9,468.4,137.2,468,136.4,468z"/>
				<ellipse fill="#8ACCC6" cx="167.7" cy="471.7" rx="3.1" ry="3.6"/>
				<ellipse fill="#8ACCC6" cx="136.4" cy="580.6" rx="3.1" ry="3.6"/>
				<path fill="#8ACCC6" d="M123.8,598.7c0-2-1.4-3.6-3.1-3.6c-1.7,0-3.1,1.6-3.1,3.6c0,1.3,0.6,2.4,1.4,3c1,0.1,2,0.2,3,0.2
					C123.1,601.4,123.8,600.1,123.8,598.7z"/>
				<ellipse fill="#8ACCC6" cx="152" cy="562.4" rx="3.1" ry="3.6"/>
				<path fill="#8ACCC6" d="M119.3,559.2c-1,0.6-1.7,1.8-1.7,3.2c0,2,1.4,3.6,3.1,3.6c1.7,0,3.1-1.6,3.1-3.6c0-1.1-0.4-2.1-1.1-2.7
					c-1.2,0.4-2.5,0.9-3.8,1.3C119.1,560.4,119.2,559.8,119.3,559.2z"/>
				<ellipse fill="#8ACCC6" cx="105" cy="580.6" rx="3.1" ry="3.6"/>
				<ellipse fill="#8ACCC6" cx="167.7" cy="544.3" rx="3.1" ry="3.6"/>
				<path fill="#8ACCC6" d="M73.7,439c1.7,0,3.1-1.6,3.1-3.6c0-2-1.4-3.6-3.1-3.6c-1,0-1.9,0.5-2.4,1.4c-0.1,1.4-0.2,2.7-0.2,4.1
					C71.6,438.3,72.6,439,73.7,439z"/>
				<ellipse fill="#8ACCC6" cx="89.4" cy="453.5" rx="3.1" ry="3.6"/>
				<ellipse fill="#8ACCC6" cx="89.4" cy="417.2" rx="3.1" ry="3.6"/>
				<path fill="#8ACCC6" d="M108.1,399.9c-1.7,0.6-3.4,1.2-5.1,1.8c0.6,0.6,1.3,0.9,2.1,0.9C106.5,402.7,107.7,401.5,108.1,399.9z"
					/>
				<ellipse fill="#8ACCC6" cx="73.7" cy="508" rx="3.1" ry="3.6"/>
				<ellipse fill="#8ACCC6" cx="89.4" cy="526.1" rx="3.1" ry="3.6"/>
				<ellipse fill="#8ACCC6" cx="89.4" cy="489.8" rx="3.1" ry="3.6"/>
				<ellipse fill="#8ACCC6" cx="73.7" cy="471.7" rx="3.1" ry="3.6"/>
				<ellipse fill="#8ACCC6" cx="105" cy="471.7" rx="3.1" ry="3.6"/>
				<ellipse fill="#8ACCC6" cx="73.7" cy="580.6" rx="3.1" ry="3.6"/>
				<ellipse fill="#8ACCC6" cx="89.4" cy="562.4" rx="3.1" ry="3.6"/>
				<path fill="#8ACCC6" d="M61.2,562.4c0-1.7-1-3.1-2.3-3.5c-0.1,1.8-0.2,3.5-0.2,5.2c-0.1,0.6-0.1,1.2-0.1,1.8
					C60,565.7,61.2,564.2,61.2,562.4z"/>
				<ellipse fill="#8ACCC6" cx="73.7" cy="544.3" rx="3.1" ry="3.6"/>
				<ellipse fill="#8ACCC6" cx="105" cy="544.3" rx="3.1" ry="3.6"/>
			</g>
		</g>
	</g>
	<g>
		<g>
			<path fill="#E30613" d="M321.8,578c-0.5,0-1.1,0-1.6,0c-2.6-0.2-5-0.5-7-1c-1.9-0.5-3.8-1.1-5.5-1.9c-4.1-1.5-7.8-3.1-11-4.8
				c-3.1-1.6-7.3-3.7-12.5-6.2c-4.6-2.2-8.1-5-10.4-8.4c-2.5-3.6-3.4-8-2.7-13.2c0.4-6.6,1.2-14.4,2.2-23.1c1-8.7,2.3-18.2,3.9-28.1
				c1.6-9.9,3.4-20.2,5.4-30.7c2-10.5,4.1-21.1,6.2-31.2c2.2-10.2,4.4-20,6.8-29.4c2.4-9.3,4.7-17.9,7.1-25.4c0-0.1,0.1-0.2,0.1-0.3
				c2.1-5,5.2-8.3,9.1-9.9c2.6-1,5.8-1.5,9.8-1.5c1.5,0,3.2,0.1,5,0.2c6.2,0.3,13,1,20.3,2.1c7.3,1.2,13.9,2.7,19.6,4.5
				c6.4,2.1,10.2,4.2,12.1,6.7c2.1,2.8,2.4,6.7,0.6,11.6c-2.8,9-5.7,19.2-8.6,30.2c-3,11.1-6,22.8-8.9,34.9c-3,12-5.9,24.4-8.7,36.7
				c-2.3,10.4-4.5,20.7-6.5,30.6c7.8-1.9,15.3-3.7,22.3-5.1c8.7-1.8,18.1-3.7,28-5.4c4-0.8,7.5-1.1,10.5-1.1c1.6,0,3,0.1,4.3,0.3
				c4,0.7,7.8,2.6,11.3,5.9c3.4,2.8,6.2,5.8,8.4,9c2.1,3,3.9,6.1,5.3,9c1.2,1.9,2,3.5,2.4,4.8c1,2.7,0.4,4.7-0.4,5.8
				c-0.9,1.4-2.4,2.6-4.8,3.7c-1.8,0.8-4.4,1.7-7.9,2.7c-13.9,3.9-28,7.9-42.4,12c-14.6,4.1-28.4,8.1-41.1,11.8
				c-4.9,1.7-9.1,2.9-12.6,3.5C326.8,577.8,324.1,578,321.8,578z"/>
			<path d="M321.7,366.4c1.5,0,3.1,0.1,4.8,0.2c6.2,0.3,12.8,1,20,2.1c7.2,1.1,13.5,2.6,19,4.4c5.5,1.8,9,3.6,10.4,5.5
				c1.4,1.9,1.4,4.7,0.1,8.4c-2.8,9.1-5.7,19.2-8.7,30.4c-3,11.2-6,22.9-9,35c-3,12.1-5.9,24.4-8.7,36.8
				c-2.8,12.4-5.3,24.5-7.6,36.1c9.7-2.5,18.9-4.6,27.5-6.4c8.6-1.8,17.9-3.6,27.9-5.4c3.8-0.7,7.1-1.1,9.8-1.1
				c1.4,0,2.6,0.1,3.8,0.3c3.3,0.6,6.5,2.2,9.6,5c3.2,2.6,5.8,5.4,7.8,8.3c2,2.9,3.7,5.8,5.1,8.7c1.1,1.8,1.8,3.3,2.3,4.4
				c0.4,1.1,0.4,2-0.1,2.8c-0.5,0.8-1.5,1.5-3.2,2.3c-1.7,0.7-4.2,1.6-7.5,2.5c-13.9,3.9-28,7.9-42.4,11.9
				c-14.4,4.1-28.2,8-41.3,11.8c-4.7,1.7-8.8,2.8-12.2,3.4c-2.8,0.5-5.2,0.7-7.3,0.7c-0.5,0-0.9,0-1.4,0c-2.4-0.1-4.5-0.4-6.3-0.9
				c-1.8-0.5-3.5-1.1-5.1-1.7c-4-1.4-7.5-3-10.7-4.6c-3.1-1.6-7.4-3.7-12.7-6.2c-4-2-7-4.4-9.1-7.2c-2-2.8-2.7-6.4-2.1-10.8
				c0.4-6.6,1.2-14.3,2.2-23c1-8.7,2.3-18,3.9-27.9c1.6-9.9,3.4-20.1,5.4-30.6c2-10.5,4.1-20.9,6.2-31.2c2.2-10.2,4.4-20,6.8-29.2
				c2.3-9.3,4.7-17.7,7-25.3c1.8-4.1,4.1-6.8,7.2-8C315.3,366.9,318.2,366.4,321.7,366.4 M321.7,359.4c-4.5,0-8.1,0.6-11.1,1.7
				c-4.8,1.9-8.5,5.8-11.1,11.8c-0.1,0.2-0.2,0.4-0.2,0.7c-2.4,7.6-4.8,16.2-7.1,25.6c-2.4,9.4-4.7,19.3-6.8,29.5
				c-2.2,10.2-4.3,20.7-6.3,31.3c-2,10.6-3.8,20.9-5.4,30.8c-1.6,9.9-2.9,19.4-3.9,28.2c-1,8.7-1.7,16.4-2.2,23.1
				c-0.9,6.1,0.3,11.3,3.3,15.6c2.7,3.8,6.6,7,11.7,9.4c0,0,0.1,0,0.1,0c5.2,2.5,9.4,4.5,12.4,6.1c3.4,1.8,7.2,3.4,11.3,4.9
				c1.8,0.8,3.8,1.4,5.9,2c2.3,0.6,4.9,1,7.7,1.1c0.6,0,1.2,0,1.8,0c2.5,0,5.3-0.3,8.5-0.9c3.8-0.7,8-1.9,13.1-3.6
				c12.7-3.7,26.5-7.6,41-11.7c14.4-4.1,28.5-8,42.4-11.9c0,0,0,0,0.1,0c3.6-1.1,6.3-2,8.3-2.9c3.1-1.4,5.1-3,6.4-5.1
				c1.6-2.6,1.8-5.8,0.6-8.9c-0.6-1.5-1.4-3.2-2.6-5.2c-1.5-3.1-3.3-6.2-5.5-9.4c-2.4-3.4-5.4-6.6-8.9-9.6c-4-3.7-8.4-5.9-13-6.7
				c-1.5-0.2-3.1-0.4-4.9-0.4c-3.2,0-6.8,0.4-11.1,1.2c-9.9,1.8-19.3,3.6-28,5.5c-5.4,1.1-11.1,2.4-17.1,3.9
				c1.7-8.2,3.5-16.6,5.4-25.1c2.8-12.3,5.7-24.6,8.6-36.7c3-12.1,6-23.8,8.9-34.8c2.9-11,5.8-21.1,8.6-30c2.1-6,1.7-11-1.2-14.8
				c-2.4-3.2-6.7-5.6-13.8-7.9c-5.9-1.9-12.6-3.4-20.1-4.6c-7.3-1.2-14.3-1.9-20.6-2.2C325.1,359.5,323.4,359.4,321.7,359.4
				L321.7,359.4z"/>
		</g>
		<g>
			<g>
				<path fill="#E3591B" d="M381.5,557.3c-14.4,4.1-28.2,8-41.3,11.8c-4.7,1.7-8.8,2.8-12.2,3.4c-3.4,0.6-6.3,0.8-8.7,0.7
					c-2.4-0.1-4.5-0.4-6.3-0.9c-1.8-0.5-3.5-1.1-5.1-1.7c-4-1.4-7.5-3-10.7-4.6c-3.1-1.6-7.4-3.7-12.7-6.2c-4-2-7-4.4-9.1-7.2
					c-2-2.8-2.7-6.4-2.1-10.8c0.4-6.6,1.2-14.3,2.2-23c1-8.7,2.3-18,3.9-27.9c1.6-9.9,3.4-20.1,5.4-30.6c2-10.5,4.1-20.9,6.2-31.2
					c2.2-10.2,4.4-20,6.8-29.2c2.3-9.3,4.7-17.7,7-25.3c1.8-4.1,4.1-6.8,7.2-8c3-1.2,7.5-1.5,13.3-1c6.2,0.3,12.8,1,20,2.1
					c7.2,1.1,13.5,2.6,19,4.4c5.5,1.8,9,3.6,10.4,5.5c1.4,1.9,1.4,4.7,0.1,8.4c-2.8,9.1-5.7,19.2-8.7,30.4c-3,11.2-6,22.9-9,35
					c-3,12.1-5.9,24.4-8.7,36.8c-2.8,12.4-5.3,24.5-7.6,36.1c9.7-2.5,18.9-4.6,27.5-6.4c8.6-1.8,17.9-3.6,27.9-5.4
					c5.7-1.1,10.2-1.4,13.6-0.8c3.3,0.6,6.5,2.2,9.6,5c3.2,2.6,5.8,5.4,7.8,8.3c2,2.9,3.7,5.8,5.1,8.7c1.1,1.8,1.8,3.3,2.3,4.4
					c0.4,1.1,0.4,2-0.1,2.8c-0.5,0.8-1.5,1.5-3.2,2.3c-1.7,0.7-4.2,1.6-7.5,2.5C410,549.3,395.9,553.3,381.5,557.3z"/>
			</g>
			<g>
				<path fill="none" d="M432.4,533.4c-0.6-1.3-1.3-2.6-2.1-4c-0.6,0.8-1.4,1.3-2.4,1.3c-1.7,0-3.1-1.6-3.1-3.6
					c0-1.5,0.8-2.7,1.8-3.3c-1.9-2.6-4.3-5.1-7.1-7.4c-2-1.9-4.1-3.2-6.2-4.1c-0.3,0.1-0.7,0.2-1.1,0.2c-0.9,0-1.7-0.5-2.3-1.2
					c-3.3-0.5-7.9-0.3-13.5,0.8c-9.9,1.8-19.2,3.6-27.9,5.4c-8.6,1.8-17.8,4-27.5,6.4c2.3-11.6,4.8-23.7,7.6-36.1
					c0.9-4.1,1.9-8.2,2.8-12.3c-0.5,0.4-1.1,0.7-1.8,0.7c-1.7,0-3.1-1.6-3.1-3.6c0-2,1.4-3.6,3.1-3.6c1.3,0,2.3,0.9,2.8,2.1
					c1.6-6.7,3.2-13.4,4.8-20c2.5-10.1,5-19.9,7.5-29.4c-1.5-0.3-2.6-1.8-2.6-3.6c0-2,1.4-3.6,3.1-3.6c0.5,0,0.9,0.1,1.3,0.3
					c2.9-10.7,5.7-20.4,8.4-29.1c1.3-3.7,1.3-6.5-0.1-8.4c-1.4-1.9-4.9-3.7-10.4-5.5c-5.5-1.8-11.9-3.2-19-4.4
					c-7.2-1.1-13.8-1.8-20-2.1c-1.5-0.1-3-0.2-4.3-0.2c-0.5,1.3-1.6,2.1-2.8,2.1c-1.1,0-2.1-0.7-2.7-1.8c-1.3,0.2-2.5,0.5-3.5,0.9
					c-3,1.2-5.4,3.8-7.2,8c-0.4,1.3-0.8,2.7-1.2,4c1.2,0.5,2.1,1.8,2.1,3.4c0,2-1.4,3.6-3.1,3.6c-0.3,0-0.6-0.1-0.9-0.2
					c-1.3,4.5-2.5,9.3-3.8,14.4c-2.3,9.3-4.6,19-6.8,29.2c-0.4,2-0.8,4.1-1.3,6.1c0.1,0.4,0.2,0.8,0.2,1.3c0,1.1-0.4,2-1,2.7
					c-1.4,7-2.8,14-4.2,21.1c-2,10.6-3.8,20.8-5.4,30.6c-1.6,9.9-2.9,19.2-3.9,27.9c-1,8.7-1.7,16.4-2.2,23c-0.7,4.3,0,7.9,2.1,10.8
					c2,2.8,5.1,5.3,9.1,7.2c5.3,2.5,9.5,4.6,12.7,6.2c3.1,1.6,6.7,3.2,10.7,4.6c1.6,0.7,3.3,1.3,5.1,1.7c1.8,0.5,3.9,0.8,6.3,0.9
					c2.4,0.1,5.3-0.1,8.7-0.7c3.4-0.6,7.5-1.8,12.2-3.4c7.1-2.1,14.5-4.2,22-6.3c0.2-1.7,1.5-3.1,3.1-3.1c1,0,1.9,0.6,2.5,1.5
					c4.5-1.3,9.1-2.6,13.7-3.9c10.2-2.9,20.3-5.7,30.3-8.5c-1.5-0.3-2.6-1.8-2.6-3.6c0-2,1.4-3.6,3.1-3.6c1.7,0,3.1,1.6,3.1,3.6
					c0,1.2-0.5,2.3-1.3,2.9c3.3-0.9,6.5-1.8,9.8-2.8c3.3-1,5.8-1.8,7.5-2.5c1.7-0.7,2.8-1.5,3.2-2.3c0.5-0.8,0.5-1.7,0.1-2.8
					C434.3,536.6,433.5,535.2,432.4,533.4z M365.3,378.2c1.7,0,3.1,1.6,3.1,3.6c0,2-1.4,3.6-3.1,3.6c-1.7,0-3.1-1.6-3.1-3.6
					C362.2,379.9,363.6,378.2,365.3,378.2z M349.6,396.4c1.7,0,3.1,1.6,3.1,3.6c0,2-1.4,3.6-3.1,3.6c-1.7,0-3.1-1.6-3.1-3.6
					C346.5,398,347.9,396.4,349.6,396.4z M349.6,432.7c1.7,0,3.1,1.6,3.1,3.6c0,2-1.4,3.6-3.1,3.6c-1.7,0-3.1-1.6-3.1-3.6
					C346.5,434.3,347.9,432.7,349.6,432.7z M287,548.8c-1.7,0-3.1-1.6-3.1-3.6c0-2,1.4-3.6,3.1-3.6c1.7,0,3.1,1.6,3.1,3.6
					C290.1,547.2,288.7,548.8,287,548.8z M287,512.5c-1.7,0-3.1-1.6-3.1-3.6c0-2,1.4-3.6,3.1-3.6c1.7,0,3.1,1.6,3.1,3.6
					C290.1,510.9,288.7,512.5,287,512.5z M287,476.2c-1.7,0-3.1-1.6-3.1-3.6c0-2,1.4-3.6,3.1-3.6c1.7,0,3.1,1.6,3.1,3.6
					C290.1,474.6,288.7,476.2,287,476.2z M302.7,567c-1.7,0-3.1-1.6-3.1-3.6c0-2,1.4-3.6,3.1-3.6c1.7,0,3.1,1.6,3.1,3.6
					C305.8,565.4,304.4,567,302.7,567z M302.7,530.7c-1.7,0-3.1-1.6-3.1-3.6c0-2,1.4-3.6,3.1-3.6c1.7,0,3.1,1.6,3.1,3.6
					C305.8,529.1,304.4,530.7,302.7,530.7z M302.7,494.4c-1.7,0-3.1-1.6-3.1-3.6c0-2,1.4-3.6,3.1-3.6c1.7,0,3.1,1.6,3.1,3.6
					C305.8,492.8,304.4,494.4,302.7,494.4z M302.7,458.1c-1.7,0-3.1-1.6-3.1-3.6c0-2,1.4-3.6,3.1-3.6c1.7,0,3.1,1.6,3.1,3.6
					C305.8,456.5,304.4,458.1,302.7,458.1z M302.7,421.8c-1.7,0-3.1-1.6-3.1-3.6c0-2,1.4-3.6,3.1-3.6c1.7,0,3.1,1.6,3.1,3.6
					C305.8,420.2,304.4,421.8,302.7,421.8z M318.3,548.8c-1.7,0-3.1-1.6-3.1-3.6c0-2,1.4-3.6,3.1-3.6c1.7,0,3.1,1.6,3.1,3.6
					C321.4,547.2,320,548.8,318.3,548.8z M318.3,512.5c-1.7,0-3.1-1.6-3.1-3.6c0-2,1.4-3.6,3.1-3.6c1.7,0,3.1,1.6,3.1,3.6
					C321.4,510.9,320,512.5,318.3,512.5z M318.3,476.2c-1.7,0-3.1-1.6-3.1-3.6c0-2,1.4-3.6,3.1-3.6c1.7,0,3.1,1.6,3.1,3.6
					C321.4,474.6,320,476.2,318.3,476.2z M318.3,439.9c-1.7,0-3.1-1.6-3.1-3.6c0-2,1.4-3.6,3.1-3.6c1.7,0,3.1,1.6,3.1,3.6
					C321.4,438.3,320,439.9,318.3,439.9z M318.3,403.6c-1.7,0-3.1-1.6-3.1-3.6c0-2,1.4-3.6,3.1-3.6c1.7,0,3.1,1.6,3.1,3.6
					C321.4,402,320,403.6,318.3,403.6z M334,567c-1.7,0-3.1-1.6-3.1-3.6c0-2,1.4-3.6,3.1-3.6c1.7,0,3.1,1.6,3.1,3.6
					C337.1,565.4,335.7,567,334,567z M334,530.7c-1.7,0-3.1-1.6-3.1-3.6c0-2,1.4-3.6,3.1-3.6c1.7,0,3.1,1.6,3.1,3.6
					C337.1,529.1,335.7,530.7,334,530.7z M334,494.4c-1.7,0-3.1-1.6-3.1-3.6c0-2,1.4-3.6,3.1-3.6c1.7,0,3.1,1.6,3.1,3.6
					C337.1,492.8,335.7,494.4,334,494.4z M334,458.1c-1.7,0-3.1-1.6-3.1-3.6c0-2,1.4-3.6,3.1-3.6c1.7,0,3.1,1.6,3.1,3.6
					C337.1,456.5,335.7,458.1,334,458.1z M334,421.8c-1.7,0-3.1-1.6-3.1-3.6c0-2,1.4-3.6,3.1-3.6c1.7,0,3.1,1.6,3.1,3.6
					C337.1,420.2,335.7,421.8,334,421.8z M334,385.5c-1.7,0-3.1-1.6-3.1-3.6c0-2,1.4-3.6,3.1-3.6c1.7,0,3.1,1.6,3.1,3.6
					C337.1,383.9,335.7,385.5,334,385.5z M349.6,548.8c-1.7,0-3.1-1.6-3.1-3.6c0-2,1.4-3.6,3.1-3.6c1.7,0,3.1,1.6,3.1,3.6
					C352.8,547.2,351.4,548.8,349.6,548.8z M365.3,530.7c-1.7,0-3.1-1.6-3.1-3.6c0-2,1.4-3.6,3.1-3.6c1.7,0,3.1,1.6,3.1,3.6
					C368.4,529.1,367,530.7,365.3,530.7z M380.9,548.8c-1.7,0-3.1-1.6-3.1-3.6c0-2,1.4-3.6,3.1-3.6c1.7,0,3.1,1.6,3.1,3.6
					C384.1,547.2,382.7,548.8,380.9,548.8z M396.6,530.7c-1.7,0-3.1-1.6-3.1-3.6c0-2,1.4-3.6,3.1-3.6c1.7,0,3.1,1.6,3.1,3.6
					C399.7,529.1,398.3,530.7,396.6,530.7z"/>
				<path fill="#8ACCC6" d="M424.8,527.1c0,2,1.4,3.6,3.1,3.6c1,0,1.8-0.5,2.4-1.3c-0.9-1.5-1.9-3.1-3-4.7c-0.2-0.3-0.5-0.6-0.7-0.9
					C425.5,524.3,424.8,525.6,424.8,527.1z"/>
				<ellipse fill="#8ACCC6" cx="365.3" cy="381.9" rx="3.1" ry="3.6"/>
				<path fill="#8ACCC6" d="M362.2,418.2c0,1.8,1.1,3.3,2.6,3.6c0.5-1.9,1-3.8,1.5-5.6c0.1-0.4,0.2-0.8,0.3-1.3
					c-0.4-0.2-0.8-0.3-1.3-0.3C363.6,414.5,362.2,416.2,362.2,418.2z"/>
				<path fill="#8ACCC6" d="M412.3,512.5c0.4,0,0.7-0.1,1.1-0.2c-1.1-0.5-2.2-0.8-3.4-1c0,0,0,0,0,0
					C410.5,512.1,411.3,512.5,412.3,512.5z"/>
				<ellipse fill="#8ACCC6" cx="396.6" cy="527.1" rx="3.1" ry="3.6"/>
				<ellipse fill="#8ACCC6" cx="365.3" cy="527.1" rx="3.1" ry="3.6"/>
				<path fill="#8ACCC6" d="M365.3,559.7c-1.6,0-2.8,1.3-3.1,3.1c1.8-0.5,3.7-1.1,5.6-1.6C367.2,560.3,366.3,559.7,365.3,559.7z"/>
				<ellipse fill="#8ACCC6" cx="380.9" cy="545.2" rx="3.1" ry="3.6"/>
				<path fill="#8ACCC6" d="M415.4,545.2c0-2-1.4-3.6-3.1-3.6c-1.7,0-3.1,1.6-3.1,3.6c0,1.8,1.1,3.3,2.6,3.6
					c0.8-0.2,1.6-0.4,2.3-0.7C414.9,547.5,415.4,546.4,415.4,545.2z"/>
				<path fill="#8ACCC6" d="M318.3,367.3c1.3,0,2.4-0.9,2.8-2.1c-2.1,0-3.9,0.1-5.5,0.4C316.2,366.6,317.2,367.3,318.3,367.3z"/>
				<ellipse fill="#8ACCC6" cx="334" cy="381.9" rx="3.1" ry="3.6"/>
				<path fill="#8ACCC6" d="M305.8,381.9c0-1.6-0.9-2.9-2.1-3.4c-0.7,2.2-1.3,4.5-2,6.9c0.3,0.1,0.6,0.2,0.9,0.2
					C304.4,385.5,305.8,383.9,305.8,381.9z"/>
				<ellipse fill="#8ACCC6" cx="318.3" cy="436.3" rx="3.1" ry="3.6"/>
				<ellipse fill="#8ACCC6" cx="349.6" cy="436.3" rx="3.1" ry="3.6"/>
				<ellipse fill="#8ACCC6" cx="334" cy="454.5" rx="3.1" ry="3.6"/>
				<ellipse fill="#8ACCC6" cx="302.7" cy="454.5" rx="3.1" ry="3.6"/>
				<ellipse fill="#8ACCC6" cx="334" cy="418.2" rx="3.1" ry="3.6"/>
				<ellipse fill="#8ACCC6" cx="302.7" cy="418.2" rx="3.1" ry="3.6"/>
				<ellipse fill="#8ACCC6" cx="318.3" cy="400" rx="3.1" ry="3.6"/>
				<ellipse fill="#8ACCC6" cx="349.6" cy="400" rx="3.1" ry="3.6"/>
				<ellipse fill="#8ACCC6" cx="318.3" cy="508.9" rx="3.1" ry="3.6"/>
				<ellipse fill="#8ACCC6" cx="334" cy="527.1" rx="3.1" ry="3.6"/>
				<ellipse fill="#8ACCC6" cx="302.7" cy="527.1" rx="3.1" ry="3.6"/>
				<ellipse fill="#8ACCC6" cx="334" cy="490.8" rx="3.1" ry="3.6"/>
				<ellipse fill="#8ACCC6" cx="302.7" cy="490.8" rx="3.1" ry="3.6"/>
				<ellipse fill="#8ACCC6" cx="318.3" cy="472.6" rx="3.1" ry="3.6"/>
				<path fill="#8ACCC6" d="M349.6,469c-1.7,0-3.1,1.6-3.1,3.6c0,2,1.4,3.6,3.1,3.6c0.7,0,1.3-0.2,1.8-0.7c0.3-1.5,0.7-3,1-4.5
					C352,469.9,350.9,469,349.6,469z"/>
				<ellipse fill="#8ACCC6" cx="334" cy="563.4" rx="3.1" ry="3.6"/>
				<ellipse fill="#8ACCC6" cx="302.7" cy="563.4" rx="3.1" ry="3.6"/>
				<ellipse fill="#8ACCC6" cx="318.3" cy="545.2" rx="3.1" ry="3.6"/>
				<ellipse fill="#8ACCC6" cx="349.6" cy="545.2" rx="3.1" ry="3.6"/>
				<path fill="#8ACCC6" d="M290.1,436.3c0-0.4-0.1-0.9-0.2-1.3c-0.3,1.3-0.5,2.6-0.8,3.9C289.7,438.3,290.1,437.4,290.1,436.3z"/>
				<ellipse fill="#8ACCC6" cx="287" cy="508.9" rx="3.1" ry="3.6"/>
				<ellipse fill="#8ACCC6" cx="287" cy="472.6" rx="3.1" ry="3.6"/>
				<ellipse fill="#8ACCC6" cx="287" cy="545.2" rx="3.1" ry="3.6"/>
			</g>
		</g>
	</g>
	<g>
		<g>
			<path fill="#E30613" d="M468.1,556.9c-2,0-4.3-0.2-6.9-0.6c0,0-0.1,0-0.1,0c-2.8-0.5-6-1.1-9.6-1.8c-3.7-0.7-7.3-1.6-10.7-2.6
				c-0.1,0-0.2-0.1-0.3-0.1c-2.7-1.1-5-1.9-7-2.6c-2.6-0.9-4.7-2.2-6.3-4c-1.6-1.9-2.6-4.3-2.7-7.3c-0.2-2.7,0.5-6.1,2-10.5
				c0-0.1,0-0.1,0.1-0.2c3.2-8.3,7.1-17.5,11.5-27.3c4.5-10,9.3-20.4,14.3-30.9c5.1-10.6,10.5-21.6,16.1-32.6
				c5.6-11,11.3-22,16.9-32.4c5.6-10.5,11.2-20.7,16.7-30.3c5.5-9.6,10.7-18.4,15.7-26.1c3-4.5,6.9-8.4,11.8-11.5
				c5-3.2,12.2-5.1,21.8-5.8c7.9-0.7,15.1-1.1,21.3-1.2c3.5-0.1,6.9-0.1,10.1-0.1c2.5,0,4.9,0,7.2,0.1c5.2,0.1,10.1,0.4,14.7,0.7
				c4.5,0.3,8.9,0.6,13.4,0.9c7.4,0.7,12.3,2.5,15,5.5c2.6,2.9,4,6.8,4.3,11.7c0.6,9.9,1.7,21.9,3.3,35.7c1.6,13.9,3.5,28.7,5.7,44
				c2.2,15.3,4.7,31.3,7.4,47.3c2.7,16,5.4,31.4,8.1,45.9c0.8,4.3,0.1,7.7-2.3,10c-2.1,2-6.1,3.3-12.8,4.2
				c-5.8,0.7-11.2,1.3-16.2,1.7c-1.7,0.1-3.5,0.2-5.3,0.2c-3.5,0-7.2-0.3-10.9-0.7c-6-0.6-10.4-1.9-13.3-3.9
				c-3.1-2.1-5.4-5.9-7.2-11.4c-2.9-9.3-5.6-20-8.2-31.9c-6.8,1.6-13.6,3.3-20.6,4.9c-8.1,1.9-16,3.8-23.8,5.7
				c-7.7,1.9-15.2,3.8-22.2,5.8c-6.5,1.8-12.6,3.6-18.1,5.5c-3.9,6.7-7.2,13.1-9.9,19c-2.9,6.2-5.7,12.4-8.3,18.4
				c0,0.1-0.1,0.2-0.2,0.3c-2.3,4-5.1,6.6-8.3,7.7C472.5,556.7,470.5,556.9,468.1,556.9z M568.1,384.4c-5.2,9-10.9,19-16.8,29.6
				c-6.9,12.3-14,25.4-21.2,39c15.3-3.6,30.9-6.8,46.3-9.7c-1.8-11.3-3.5-22.7-5.1-33.8C570.1,401.1,569.1,392.7,568.1,384.4z"/>
			<path d="M582.7,332.3c2.5,0,4.8,0,7.1,0.1c5.2,0.1,10.1,0.4,14.5,0.7c4.5,0.3,8.9,0.6,13.4,0.9c6.3,0.6,10.5,2.1,12.6,4.4
				c2.1,2.3,3.2,5.5,3.4,9.5c0.6,10,1.7,22,3.3,35.9c1.6,13.9,3.4,28.6,5.7,44.1c2.2,15.5,4.7,31.3,7.4,47.4
				c2.7,16.1,5.4,31.4,8.2,46c0.6,3.1,0.2,5.4-1.3,6.8c-1.5,1.4-5.1,2.5-10.8,3.2c-5.8,0.7-11.1,1.3-16,1.7c-1.7,0.1-3.3,0.2-5,0.2
				c-3.4,0-6.9-0.2-10.5-0.7c-5.4-0.6-9.3-1.6-11.7-3.3c-2.4-1.6-4.3-4.9-5.9-9.6c-3.1-10.1-6.1-21.8-8.9-35.1
				c-7.9,1.9-15.9,3.8-24,5.7c-8.1,1.9-16,3.8-23.8,5.7c-7.8,1.9-15.2,3.8-22.3,5.8c-7.1,2-13.6,4-19.5,6
				c-4.2,7.3-7.8,14.1-10.7,20.4c-2.9,6.3-5.7,12.5-8.3,18.5c-1.8,3.3-4,5.3-6.4,6.1c-1.3,0.4-2.9,0.7-5,0.7c-1.8,0-4-0.2-6.4-0.5
				c-2.8-0.5-6-1.1-9.6-1.8c-3.6-0.7-7-1.5-10.4-2.5c-2.7-1.1-5.1-2-7.1-2.7c-2.1-0.7-3.6-1.7-4.8-3c-1.1-1.3-1.7-3-1.9-5.2
				c-0.1-2.2,0.5-5.3,1.8-9.1c3.2-8.2,7-17.3,11.4-27.2c4.4-9.9,9.2-20.2,14.3-30.9c5.1-10.7,10.5-21.5,16.1-32.5
				c5.6-11,11.3-21.8,16.9-32.4c5.7-10.6,11.2-20.6,16.7-30.2c5.4-9.6,10.6-18.2,15.6-26c2.7-4.1,6.2-7.5,10.7-10.4
				c4.5-2.9,11.2-4.6,20.2-5.2c7.9-0.7,14.9-1.1,21.1-1.2C576.2,332.4,579.6,332.3,582.7,332.3 M523.5,458.2
				c18.9-4.5,37.9-8.6,57-12.1c-2-12.5-3.8-24.9-5.6-37.1c-1.8-12.2-3.2-24.1-4.3-35.7c-6.7,11.5-14.1,24.5-22.3,38.9
				C540.1,426.7,531.9,442,523.5,458.2 M582.7,325.3c-3.2,0-6.6,0-10.2,0.1c-6.2,0.2-13.5,0.6-21.5,1.3c-10.2,0.7-17.9,2.8-23.4,6.3
				c-5.3,3.4-9.6,7.6-12.8,12.5c0,0,0,0.1-0.1,0.1c-5,7.8-10.3,16.6-15.8,26.3c-5.5,9.6-11.1,19.8-16.7,30.4
				c-5.6,10.5-11.3,21.4-17,32.5c-5.6,11-11.1,22-16.2,32.7c-5.1,10.6-9.9,21-14.4,31c-4.4,9.9-8.3,19.2-11.6,27.5
				c0,0.1-0.1,0.2-0.1,0.3c-1.6,4.8-2.3,8.7-2.1,11.8c0.2,3.8,1.4,6.9,3.6,9.4c1.9,2.2,4.5,3.9,7.8,5c1.9,0.7,4.2,1.5,6.9,2.6
				c0.2,0.1,0.4,0.1,0.6,0.2c3.5,1.1,7.2,2,11,2.7c3.6,0.7,6.8,1.3,9.6,1.8c0.1,0,0.2,0,0.3,0c2.8,0.4,5.2,0.6,7.4,0.6
				c2.8,0,5.2-0.3,7.2-1c4.1-1.4,7.5-4.6,10.2-9.3c0.1-0.2,0.2-0.4,0.3-0.6c2.6-6,5.4-12.2,8.3-18.4c2.5-5.4,5.6-11.3,9.1-17.5
				c5.1-1.7,10.7-3.4,16.7-5c6.9-1.9,14.4-3.9,22.1-5.7c7-1.7,14.8-3.6,23.8-5.7c5.7-1.4,11.4-2.7,17.1-4.1
				c2.4,10.6,4.9,20.3,7.5,28.7c0,0,0,0,0,0.1c2,6.3,4.8,10.7,8.5,13.3c3.4,2.3,8.2,3.8,14.9,4.5c3.9,0.5,7.7,0.8,11.3,0.8
				c1.9,0,3.7-0.1,5.6-0.2c5-0.4,10.6-0.9,16.4-1.7c7.7-1,12.1-2.5,14.8-5.2c2.2-2.2,4.6-6.2,3.3-13.2c-2.7-14.4-5.5-29.9-8.1-45.8
				c-2.7-16-5.1-31.9-7.4-47.2c-2.2-15.3-4.1-30.1-5.7-43.9c-1.5-13.8-2.6-25.8-3.3-35.6c-0.3-5.6-2.1-10.2-5.2-13.8
				c-3.4-3.8-8.8-5.9-17.1-6.7c-0.1,0-0.1,0-0.2,0c-4.5-0.3-8.9-0.6-13.4-0.9c-4.6-0.3-9.6-0.6-14.9-0.7
				C587.7,325.4,585.2,325.3,582.7,325.3L582.7,325.3z M536.8,447.9c6-11.2,11.8-22,17.6-32.2c4-7.1,7.9-13.9,11.6-20.4
				c0.6,4.9,1.3,9.8,2,14.7c1.5,10,3,20.2,4.6,30.5C560.6,442.7,548.6,445.2,536.8,447.9L536.8,447.9z"/>
		</g>
		<g>
			<g>
				<path fill="#E3591B" d="M563.1,489c-8.1,1.9-16,3.8-23.8,5.7c-7.8,1.9-15.2,3.8-22.3,5.8c-7.1,2-13.6,4-19.5,6
					c-4.2,7.3-7.8,14.1-10.7,20.4c-2.9,6.3-5.7,12.5-8.3,18.5c-1.8,3.3-4,5.3-6.4,6.1c-2.4,0.8-6.2,0.9-11.4,0.1
					c-2.8-0.5-6-1.1-9.6-1.8c-3.6-0.7-7-1.5-10.4-2.5c-2.7-1.1-5.1-2-7.1-2.7c-2.1-0.7-3.6-1.7-4.8-3c-1.1-1.3-1.7-3-1.9-5.2
					c-0.1-2.2,0.5-5.3,1.8-9.1c3.2-8.2,7-17.3,11.4-27.2c4.4-9.9,9.2-20.2,14.3-30.9c5.1-10.7,10.5-21.5,16.1-32.5
					c5.6-11,11.3-21.8,16.9-32.4c5.7-10.6,11.2-20.6,16.7-30.2c5.4-9.6,10.6-18.2,15.6-26c2.7-4.1,6.2-7.5,10.7-10.4
					c4.5-2.9,11.2-4.6,20.2-5.2c7.9-0.7,14.9-1.1,21.1-1.2c6.2-0.2,11.9-0.2,17.1-0.1c5.2,0.1,10.1,0.4,14.5,0.7
					c4.5,0.3,8.9,0.6,13.4,0.9c6.3,0.6,10.5,2.1,12.6,4.4c2.1,2.3,3.2,5.5,3.4,9.5c0.6,10,1.7,22,3.3,35.9
					c1.6,13.9,3.4,28.6,5.7,44.1c2.2,15.5,4.7,31.3,7.4,47.4c2.7,16.1,5.4,31.4,8.2,46c0.6,3.1,0.2,5.4-1.3,6.8
					c-1.5,1.4-5.1,2.5-10.8,3.2c-5.8,0.7-11.1,1.3-16,1.7c-4.9,0.4-10.1,0.2-15.6-0.5c-5.4-0.6-9.3-1.6-11.7-3.3
					c-2.4-1.6-4.3-4.9-5.9-9.6c-3.1-10.1-6.1-21.8-8.9-35.1C579.2,485.2,571.2,487.1,563.1,489z M579.4,444.9
					c-2-12.5-3.8-24.9-5.6-37.1c-1.8-12.2-3.2-24.1-4.3-35.7c-6.7,11.5-14.1,24.5-22.3,38.9c-8.1,14.4-16.4,29.7-24.8,45.9
					C541.3,452.4,560.2,448.4,579.4,444.9z"/>
			</g>
			<g>
				<path fill="none" d="M573.8,407.8c-1.8-12.2-3.2-24.1-4.3-35.7c-1.2,2.1-2.5,4.3-3.8,6.6c-1.1,2-2.3,4-3.5,6
					c-4.7,8.2-9.7,16.9-15,26.4c-8.1,14.4-16.4,29.7-24.8,45.9c2.5-0.6,4.9-1.1,7.4-1.7c2-0.5,4.1-1,6.1-1.4
					c14.4-3.3,28.9-6.3,43.5-8.9c-0.3-1.7-0.5-3.5-0.8-5.2c-0.3-2-0.6-4-0.9-6C576.3,425,575,416.3,573.8,407.8z"/>
				<path fill="none" d="M629.1,531.9c4.9-0.4,10.3-0.9,16-1.7c4.8-0.6,8-1.5,9.9-2.5c0-0.2-0.1-0.4-0.1-0.6c0-1.8,1.1-3.2,2.5-3.6
					c0.1-1,0-2.1-0.2-3.4c-2.8-14.6-5.5-29.9-8.2-46c-1.9-11.7-3.8-23.2-5.5-34.5c-0.4,0.2-0.8,0.3-1.2,0.3c-1.7,0-3.1-1.6-3.1-3.6
					c0-2,1.4-3.6,3.1-3.6c0.1,0,0.1,0,0.2,0c-0.3-2-0.6-4-0.9-5.9c-2.2-15.5-4.1-30.2-5.7-44.1c-1.6-13.9-2.7-25.9-3.3-35.9
					c-0.2-4.1-1.4-7.2-3.4-9.5c-2.1-2.3-6.3-3.8-12.6-4.4c-4.5-0.3-8.9-0.6-13.4-0.9c-4.5-0.3-9.3-0.5-14.5-0.7
					c-5.2-0.1-10.9-0.1-17.1,0.1c-6.2,0.2-13.2,0.6-21.1,1.2c-9,0.6-15.7,2.4-20.2,5.2c-4.5,2.9-8,6.4-10.7,10.4
					c-4.9,7.7-10.1,16.4-15.6,26c-0.8,1.4-1.6,2.8-2.4,4.2c1.6,0.1,2.9,1.7,2.9,3.6c0,2-1.4,3.6-3.1,3.6c-1.2,0-2.2-0.8-2.8-1.9
					c-3.7,6.7-7.5,13.6-11.3,20.8c-5.7,10.6-11.3,21.4-16.9,32.4c-5.6,10.9-10.9,21.7-16,32.3c1.7,0,3.1,1.6,3.1,3.6
					c0,2-1.4,3.6-3.1,3.6c-1.1,0-2.1-0.7-2.6-1.7c-4.2,8.8-8.1,17.3-11.8,25.5c-4.4,9.9-8.2,18.9-11.4,27.2
					c-1.3,3.9-1.9,6.9-1.8,9.1c0.1,2.2,0.8,3.9,1.9,5.2c1.1,1.3,2.7,2.3,4.8,3c2.1,0.7,4.4,1.6,7.1,2.7c3.3,1,6.8,1.8,10.4,2.5
					c3.6,0.7,6.8,1.3,9.6,1.8c5.1,0.8,8.9,0.7,11.4-0.1c2.4-0.8,4.6-2.9,6.4-6.1c2.6-6,5.4-12.2,8.3-18.5
					c2.9-6.3,6.5-13.1,10.7-20.4c5.9-2,12.4-4,19.5-6c7.1-2,14.5-3.9,22.3-5.8c7.2-1.7,14.5-3.5,21.9-5.3c0.4-1.4,1.6-2.4,2.9-2.4
					c0.9,0,1.7,0.4,2.3,1.1c7-1.7,13.9-3.3,20.8-5c2.8,13.3,5.7,25,8.9,35.1c1.5,4.8,3.5,8,5.9,9.6c2.4,1.7,6.3,2.7,11.7,3.3
					C619,532,624.2,532.2,629.1,531.9z M642.4,469c1.7,0,3.1,1.6,3.1,3.6c0,2-1.4,3.6-3.1,3.6c-1.7,0-3.1-1.6-3.1-3.6
					C639.3,470.6,640.7,469,642.4,469z M642.4,505.3c1.7,0,3.1,1.6,3.1,3.6c0,2-1.4,3.6-3.1,3.6c-1.7,0-3.1-1.6-3.1-3.6
					C639.3,506.9,640.7,505.3,642.4,505.3z M626.8,341.9c1.7,0,3.1,1.6,3.1,3.6c0,2-1.4,3.6-3.1,3.6c-1.7,0-3.1-1.6-3.1-3.6
					C623.6,343.6,625,341.9,626.8,341.9z M626.8,378.2c1.7,0,3.1,1.6,3.1,3.6c0,2-1.4,3.6-3.1,3.6c-1.7,0-3.1-1.6-3.1-3.6
					C623.6,379.9,625,378.2,626.8,378.2z M626.8,414.5c1.7,0,3.1,1.6,3.1,3.6c0,2-1.4,3.6-3.1,3.6c-1.7,0-3.1-1.6-3.1-3.6
					C623.6,416.2,625,414.5,626.8,414.5z M626.8,450.8c1.7,0,3.1,1.6,3.1,3.6c0,2-1.4,3.6-3.1,3.6c-1.7,0-3.1-1.6-3.1-3.6
					C623.6,452.5,625,450.8,626.8,450.8z M626.8,487.1c1.7,0,3.1,1.6,3.1,3.6c0,2-1.4,3.6-3.1,3.6c-1.7,0-3.1-1.6-3.1-3.6
					C623.6,488.8,625,487.1,626.8,487.1z M626.8,523.4c1.7,0,3.1,1.6,3.1,3.6c0,2-1.4,3.6-3.1,3.6c-1.7,0-3.1-1.6-3.1-3.6
					C623.6,525.1,625,523.4,626.8,523.4z M438.9,530.7c-1.7,0-3.1-1.6-3.1-3.6c0-2,1.4-3.6,3.1-3.6c1.7,0,3.1,1.6,3.1,3.6
					C442,529.1,440.6,530.7,438.9,530.7z M454.5,548.8c-1.7,0-3.1-1.6-3.1-3.6c0-2,1.4-3.6,3.1-3.6c1.7,0,3.1,1.6,3.1,3.6
					C457.6,547.2,456.2,548.8,454.5,548.8z M454.5,512.5c-1.7,0-3.1-1.6-3.1-3.6c0-2,1.4-3.6,3.1-3.6c1.7,0,3.1,1.6,3.1,3.6
					C457.6,510.9,456.2,512.5,454.5,512.5z M470.2,530.7c-1.7,0-3.1-1.6-3.1-3.6c0-2,1.4-3.6,3.1-3.6c1.7,0,3.1,1.6,3.1,3.6
					C473.3,529.1,471.9,530.7,470.2,530.7z M470.2,494.4c-1.7,0-3.1-1.6-3.1-3.6c0-2,1.4-3.6,3.1-3.6c1.7,0,3.1,1.6,3.1,3.6
					C473.3,492.8,471.9,494.4,470.2,494.4z M470.2,458.1c-1.7,0-3.1-1.6-3.1-3.6c0-2,1.4-3.6,3.1-3.6c1.7,0,3.1,1.6,3.1,3.6
					C473.3,456.5,471.9,458.1,470.2,458.1z M485.8,512.5c-1.7,0-3.1-1.6-3.1-3.6c0-2,1.4-3.6,3.1-3.6c1.7,0,3.1,1.6,3.1,3.6
					C489,510.9,487.6,512.5,485.8,512.5z M485.8,476.2c-1.7,0-3.1-1.6-3.1-3.6c0-2,1.4-3.6,3.1-3.6c1.7,0,3.1,1.6,3.1,3.6
					C489,474.6,487.6,476.2,485.8,476.2z M485.8,439.9c-1.7,0-3.1-1.6-3.1-3.6c0-2,1.4-3.6,3.1-3.6c1.7,0,3.1,1.6,3.1,3.6
					C489,438.3,487.6,439.9,485.8,439.9z M501.5,494.4c-1.7,0-3.1-1.6-3.1-3.6c0-2,1.4-3.6,3.1-3.6c1.7,0,3.1,1.6,3.1,3.6
					C504.6,492.8,503.2,494.4,501.5,494.4z M501.5,458.1c-1.7,0-3.1-1.6-3.1-3.6c0-2,1.4-3.6,3.1-3.6c1.7,0,3.1,1.6,3.1,3.6
					C504.6,456.5,503.2,458.1,501.5,458.1z M501.5,421.8c-1.7,0-3.1-1.6-3.1-3.6c0-2,1.4-3.6,3.1-3.6c1.7,0,3.1,1.6,3.1,3.6
					C504.6,420.2,503.2,421.8,501.5,421.8z M517.2,476.2c-1.7,0-3.1-1.6-3.1-3.6c0-2,1.4-3.6,3.1-3.6c1.7,0,3.1,1.6,3.1,3.6
					C520.3,474.6,518.9,476.2,517.2,476.2z M517.2,439.9c-1.7,0-3.1-1.6-3.1-3.6c0-2,1.4-3.6,3.1-3.6c1.7,0,3.1,1.6,3.1,3.6
					C520.3,438.3,518.9,439.9,517.2,439.9z M517.2,403.6c-1.7,0-3.1-1.6-3.1-3.6c0-2,1.4-3.6,3.1-3.6c1.7,0,3.1,1.6,3.1,3.6
					C520.3,402,518.9,403.6,517.2,403.6z M517.2,367.3c-1.7,0-3.1-1.6-3.1-3.6c0-2,1.4-3.6,3.1-3.6c1.7,0,3.1,1.6,3.1,3.6
					C520.3,365.7,518.9,367.3,517.2,367.3z M564.1,341.9c1.7,0,3.1,1.6,3.1,3.6c0,2-1.4,3.6-3.1,3.6c-1.7,0-3.1-1.6-3.1-3.6
					C561,343.6,562.4,341.9,564.1,341.9z M548.5,360.1c1.7,0,3.1,1.6,3.1,3.6c0,2-1.4,3.6-3.1,3.6c-1.7,0-3.1-1.6-3.1-3.6
					C545.3,361.7,546.7,360.1,548.5,360.1z M548.5,396.4c1.7,0,3.1,1.6,3.1,3.6c0,2-1.4,3.6-3.1,3.6c-1.7,0-3.1-1.6-3.1-3.6
					C545.3,398,546.7,396.4,548.5,396.4z M532.8,341.9c1.7,0,3.1,1.6,3.1,3.6c0,2-1.4,3.6-3.1,3.6c-1.7,0-3.1-1.6-3.1-3.6
					C529.7,343.6,531.1,341.9,532.8,341.9z M532.8,378.2c1.7,0,3.1,1.6,3.1,3.6c0,2-1.4,3.6-3.1,3.6c-1.7,0-3.1-1.6-3.1-3.6
					C529.7,379.9,531.1,378.2,532.8,378.2z M532.8,414.5c1.7,0,3.1,1.6,3.1,3.6c0,2-1.4,3.6-3.1,3.6c-1.7,0-3.1-1.6-3.1-3.6
					C529.7,416.2,531.1,414.5,532.8,414.5z M532.8,494.4c-1.7,0-3.1-1.6-3.1-3.6c0-2,1.4-3.6,3.1-3.6c1.7,0,3.1,1.6,3.1,3.6
					C535.9,492.8,534.5,494.4,532.8,494.4z M548.5,476.2c-1.7,0-3.1-1.6-3.1-3.6c0-2,1.4-3.6,3.1-3.6c1.7,0,3.1,1.6,3.1,3.6
					C551.6,474.6,550.2,476.2,548.5,476.2z M564.1,458.1c-1.7,0-3.1-1.6-3.1-3.6c0-2,1.4-3.6,3.1-3.6c1.7,0,3.1,1.6,3.1,3.6
					C567.3,456.5,565.9,458.1,564.1,458.1z M579.8,476.2c-1.7,0-3.1-1.6-3.1-3.6c0-2,1.4-3.6,3.1-3.6c1.7,0,3.1,1.6,3.1,3.6
					C582.9,474.6,581.5,476.2,579.8,476.2z M579.8,439.9c-0.4,0-0.9-0.1-1.2-0.3c0.3,1.7,0.5,3.5,0.8,5.2
					c-14.6,2.7-29.1,5.6-43.5,8.9c0,0.2,0.1,0.4,0.1,0.7c0,2-1.4,3.6-3.1,3.6c-1.5,0-2.8-1.2-3.1-2.9c-2.5,0.6-4.9,1.1-7.4,1.7
					c8.4-16.2,16.7-31.5,24.8-45.9c5.3-9.4,10.3-18.2,15-26.4c-0.7-0.7-1.2-1.7-1.2-2.8c0-2,1.4-3.6,3.1-3.6c0.5,0,1.1,0.2,1.5,0.5
					c1.3-2.2,2.6-4.4,3.8-6.6c1.1,11.6,2.5,23.5,4.3,35.7c1.2,8.6,2.5,17.2,3.9,25.9c0.6-0.6,1.3-1,2.2-1c1.7,0,3.1,1.6,3.1,3.6
					C582.9,438.3,581.5,439.9,579.8,439.9z M579.8,403.6c-1.7,0-3.1-1.6-3.1-3.6c0-2,1.4-3.6,3.1-3.6c1.7,0,3.1,1.6,3.1,3.6
					C582.9,402,581.5,403.6,579.8,403.6z M579.8,367.3c-1.7,0-3.1-1.6-3.1-3.6c0-2,1.4-3.6,3.1-3.6c1.7,0,3.1,1.6,3.1,3.6
					C582.9,365.7,581.5,367.3,579.8,367.3z M595.4,494.4c-1.7,0-3.1-1.6-3.1-3.6c0-2,1.4-3.6,3.1-3.6c1.7,0,3.1,1.6,3.1,3.6
					C598.6,492.8,597.2,494.4,595.4,494.4z M595.4,458.1c-1.7,0-3.1-1.6-3.1-3.6c0-2,1.4-3.6,3.1-3.6c1.7,0,3.1,1.6,3.1,3.6
					C598.6,456.5,597.2,458.1,595.4,458.1z M595.4,421.8c-1.7,0-3.1-1.6-3.1-3.6c0-2,1.4-3.6,3.1-3.6c1.7,0,3.1,1.6,3.1,3.6
					C598.6,420.2,597.2,421.8,595.4,421.8z M595.4,385.5c-1.7,0-3.1-1.6-3.1-3.6c0-2,1.4-3.6,3.1-3.6c1.7,0,3.1,1.6,3.1,3.6
					C598.6,383.9,597.2,385.5,595.4,385.5z M595.4,349.2c-1.7,0-3.1-1.6-3.1-3.6c0-2,1.4-3.6,3.1-3.6c1.7,0,3.1,1.6,3.1,3.6
					C598.6,347.6,597.2,349.2,595.4,349.2z M611.1,360.1c1.7,0,3.1,1.6,3.1,3.6c0,2-1.4,3.6-3.1,3.6c-1.7,0-3.1-1.6-3.1-3.6
					C608,361.7,609.4,360.1,611.1,360.1z M611.1,396.4c1.7,0,3.1,1.6,3.1,3.6c0,2-1.4,3.6-3.1,3.6c-1.7,0-3.1-1.6-3.1-3.6
					C608,398,609.4,396.4,611.1,396.4z M611.1,432.7c1.7,0,3.1,1.6,3.1,3.6c0,2-1.4,3.6-3.1,3.6c-1.7,0-3.1-1.6-3.1-3.6
					C608,434.3,609.4,432.7,611.1,432.7z M611.1,469c1.7,0,3.1,1.6,3.1,3.6c0,2-1.4,3.6-3.1,3.6c-1.7,0-3.1-1.6-3.1-3.6
					C608,470.6,609.4,469,611.1,469z M611.1,512.5c-1.7,0-3.1-1.6-3.1-3.6c0-2,1.4-3.6,3.1-3.6c1.7,0,3.1,1.6,3.1,3.6
					C614.2,510.9,612.8,512.5,611.1,512.5z"/>
				<path fill="#8ACCC6" d="M654.9,527.1c0,0.2,0,0.4,0.1,0.6c0.4-0.2,0.7-0.5,1-0.7c0.9-0.9,1.4-2,1.5-3.5
					C656,523.8,654.9,525.3,654.9,527.1z"/>
				<ellipse fill="#8ACCC6" cx="611.1" cy="363.7" rx="3.1" ry="3.6"/>
				<ellipse fill="#8ACCC6" cx="626.8" cy="381.9" rx="3.1" ry="3.6"/>
				<ellipse fill="#8ACCC6" cx="595.4" cy="381.9" rx="3.1" ry="3.6"/>
				<ellipse fill="#8ACCC6" cx="626.8" cy="345.6" rx="3.1" ry="3.6"/>
				<ellipse fill="#8ACCC6" cx="595.4" cy="345.6" rx="3.1" ry="3.6"/>
				<ellipse fill="#8ACCC6" cx="611.1" cy="436.3" rx="3.1" ry="3.6"/>
				<path fill="#8ACCC6" d="M639.3,436.3c0,2,1.4,3.6,3.1,3.6c0.4,0,0.8-0.1,1.2-0.3c-0.4-2.3-0.7-4.6-1-7c-0.1,0-0.1,0-0.2,0
					C640.7,432.7,639.3,434.3,639.3,436.3z"/>
				<ellipse fill="#8ACCC6" cx="626.8" cy="454.5" rx="3.1" ry="3.6"/>
				<ellipse fill="#8ACCC6" cx="595.4" cy="454.5" rx="3.1" ry="3.6"/>
				<ellipse fill="#8ACCC6" cx="626.8" cy="418.2" rx="3.1" ry="3.6"/>
				<ellipse fill="#8ACCC6" cx="595.4" cy="418.2" rx="3.1" ry="3.6"/>
				<ellipse fill="#8ACCC6" cx="611.1" cy="400" rx="3.1" ry="3.6"/>
				<ellipse fill="#8ACCC6" cx="611.1" cy="508.9" rx="3.1" ry="3.6"/>
				<ellipse fill="#8ACCC6" cx="642.4" cy="508.9" rx="3.1" ry="3.6"/>
				<ellipse fill="#8ACCC6" cx="626.8" cy="527.1" rx="3.1" ry="3.6"/>
				<ellipse fill="#8ACCC6" cx="626.8" cy="490.8" rx="3.1" ry="3.6"/>
				<ellipse fill="#8ACCC6" cx="595.4" cy="490.8" rx="3.1" ry="3.6"/>
				<ellipse fill="#8ACCC6" cx="611.1" cy="472.6" rx="3.1" ry="3.6"/>
				<ellipse fill="#8ACCC6" cx="642.4" cy="472.6" rx="3.1" ry="3.6"/>
				<ellipse fill="#8ACCC6" cx="548.5" cy="363.7" rx="3.1" ry="3.6"/>
				<ellipse fill="#8ACCC6" cx="579.8" cy="363.7" rx="3.1" ry="3.6"/>
				<path fill="#8ACCC6" d="M564.1,378.2c-1.7,0-3.1,1.6-3.1,3.6c0,1.1,0.5,2.2,1.2,2.8c1.2-2,2.3-4,3.5-6
					C565.2,378.4,564.7,378.2,564.1,378.2z"/>
				<ellipse fill="#8ACCC6" cx="532.8" cy="381.9" rx="3.1" ry="3.6"/>
				<ellipse fill="#8ACCC6" cx="564.1" cy="345.6" rx="3.1" ry="3.6"/>
				<ellipse fill="#8ACCC6" cx="532.8" cy="345.6" rx="3.1" ry="3.6"/>
				<path fill="#8ACCC6" d="M579.8,432.7c-0.8,0-1.6,0.4-2.2,1c0.3,2,0.6,4,0.9,6c0.4,0.2,0.8,0.3,1.2,0.3c1.7,0,3.1-1.6,3.1-3.6
					C582.9,434.3,581.5,432.7,579.8,432.7z"/>
				<ellipse fill="#8ACCC6" cx="564.1" cy="454.5" rx="3.1" ry="3.6"/>
				<path fill="#8ACCC6" d="M532.8,458.1c1.7,0,3.1-1.6,3.1-3.6c0-0.2,0-0.4-0.1-0.7c-2,0.5-4.1,1-6.1,1.4
					C530.1,456.9,531.3,458.1,532.8,458.1z"/>
				<ellipse fill="#8ACCC6" cx="532.8" cy="418.2" rx="3.1" ry="3.6"/>
				<ellipse fill="#8ACCC6" cx="548.5" cy="400" rx="3.1" ry="3.6"/>
				<ellipse fill="#8ACCC6" cx="579.8" cy="400" rx="3.1" ry="3.6"/>
				<path fill="#8ACCC6" d="M564.1,487.1c-1.3,0-2.5,1-2.9,2.4c0.6-0.2,1.3-0.3,1.9-0.5c1.1-0.3,2.2-0.5,3.3-0.8
					C565.8,487.6,565,487.1,564.1,487.1z"/>
				<ellipse fill="#8ACCC6" cx="532.8" cy="490.8" rx="3.1" ry="3.6"/>
				<ellipse fill="#8ACCC6" cx="548.5" cy="472.6" rx="3.1" ry="3.6"/>
				<ellipse fill="#8ACCC6" cx="579.8" cy="472.6" rx="3.1" ry="3.6"/>
				<ellipse fill="#8ACCC6" cx="517.2" cy="363.7" rx="3.1" ry="3.6"/>
				<path fill="#8ACCC6" d="M501.5,385.5c1.7,0,3.1-1.6,3.1-3.6c0-1.9-1.3-3.5-2.9-3.6c-1,1.7-2,3.5-3,5.3
					C499.3,384.7,500.3,385.5,501.5,385.5z"/>
				<ellipse fill="#8ACCC6" cx="485.8" cy="436.3" rx="3.1" ry="3.6"/>
				<ellipse fill="#8ACCC6" cx="517.2" cy="436.3" rx="3.1" ry="3.6"/>
				<ellipse fill="#8ACCC6" cx="501.5" cy="454.5" rx="3.1" ry="3.6"/>
				<ellipse fill="#8ACCC6" cx="470.2" cy="454.5" rx="3.1" ry="3.6"/>
				<ellipse fill="#8ACCC6" cx="501.5" cy="418.2" rx="3.1" ry="3.6"/>
				<ellipse fill="#8ACCC6" cx="517.2" cy="400" rx="3.1" ry="3.6"/>
				<ellipse fill="#8ACCC6" cx="485.8" cy="508.9" rx="3.1" ry="3.6"/>
				<ellipse fill="#8ACCC6" cx="470.2" cy="527.1" rx="3.1" ry="3.6"/>
				<ellipse fill="#8ACCC6" cx="501.5" cy="490.8" rx="3.1" ry="3.6"/>
				<ellipse fill="#8ACCC6" cx="470.2" cy="490.8" rx="3.1" ry="3.6"/>
				<ellipse fill="#8ACCC6" cx="485.8" cy="472.6" rx="3.1" ry="3.6"/>
				<ellipse fill="#8ACCC6" cx="517.2" cy="472.6" rx="3.1" ry="3.6"/>
				<ellipse fill="#8ACCC6" cx="454.5" cy="508.9" rx="3.1" ry="3.6"/>
				<ellipse fill="#8ACCC6" cx="438.9" cy="527.1" rx="3.1" ry="3.6"/>
				<path fill="#8ACCC6" d="M454.5,476.2c1.7,0,3.1-1.6,3.1-3.6c0-2-1.4-3.6-3.1-3.6c0,0.1-0.1,0.2-0.1,0.3
					c-0.9,1.8-1.7,3.6-2.5,5.3C452.4,475.6,453.4,476.2,454.5,476.2z"/>
				<ellipse fill="#8ACCC6" cx="454.5" cy="545.2" rx="3.1" ry="3.6"/>
			</g>
		</g>
	</g>
	<g>
		<g>
			<path fill="#E30613" d="M701.1,526c-0.7,0-1.5,0-2.3,0c-5.2-0.2-10.6-0.7-15.9-1.4c-5.5-0.7-10.6-1.6-15.1-2.9
				c-6.2-1.6-10.4-3.8-12.9-6.5c-2.6-2.9-3.7-7.2-3.4-12.8c0-6.6,0.4-14.7,1.3-24.1c0.9-9.3,2-19.5,3.4-30.1
				c1.4-10.6,3-21.7,4.8-33.1c1.8-11.2,3.7-22.4,5.6-33.1c1.9-10.7,3.8-20.9,5.8-30.4c1.9-9.5,3.8-17.8,5.7-24.6
				c0-0.1,0-0.2,0.1-0.3c2-5.7,4.9-9.6,8.8-11.6c3.6-1.9,9-2.9,16.5-3.1c3.5-0.1,6.9-0.1,10.1-0.1c6.1,0,11.8,0.2,16.7,0.5
				c7.5,0.5,15.1,1.2,22.4,2.3c5.1,0.7,9.1,1.6,12.2,2.7c3.2,1.2,5.8,2.8,7.8,4.6c2,1.9,3.6,4.1,4.7,6.5c0.9,2.1,1.8,4.5,2.7,7.1
				c0.1,0.3,0.1,0.5,0.2,0.8c0.1,1.1,0.3,2.4,0.7,4c0.4,1.6,1.2,4.8,2.6,9.3c1.4,4.7,3.4,11.4,6,19.8c2.1,6.9,4.9,15.9,8.3,26.8
				c1.8-3.7,3.8-7.5,5.8-11.5c3.6-7,7.5-14.3,11.4-21.5c4-7.2,8.1-14.5,12.2-21.7c4.1-7.1,8.1-13.9,12-20c3.6-6.8,6.9-12.5,9.7-17.1
				c3-4.8,6.3-8.6,9.8-11.4c3.6-2.9,7.9-4.8,12.6-5.7c2.7-0.5,5.9-0.8,9.5-0.8c2.4,0,5.1,0.1,7.9,0.3c8.3,0.4,17.2,1,26.4,1.8
				c9.2,0.9,18.5,2.2,27.7,3.9c7.1,1.3,11.8,3.4,14.3,6.5c2.6,3.2,3.2,7.9,1.7,13.7c-1.8,7.1-3.6,15.5-5.6,24.9
				c-2,9.5-4,19.7-6,30.4c-2.1,10.8-4.1,21.9-6.1,33.1c-2,11.2-4,22.2-5.7,32.6c-1.8,10.5-3.3,20.3-4.7,29.2
				c-1.3,8.9-2.4,16.7-3.2,23c0,0.2-0.1,0.3-0.1,0.5c-1.1,4-2.9,7.1-5.3,9.2c-2.3,2-6,3-11.3,3c-0.9,0-1.9,0-2.8-0.1
				c-5.4-0.2-10.9-0.6-16.4-1.1c-5.5-0.6-10.6-1.5-15-2.8c-6.3-1.4-10.5-3.6-13-6.7c-2.5-3.1-3.4-7.5-2.7-12.9
				c0.1-5.2,0.6-11.9,1.3-19.9c0.8-8,1.8-17,3-26.6c1.2-9.5,2.8-19.6,4.5-30c0.5-2.8,1-5.5,1.5-8.2c-1.7,3.1-3.5,6.3-5.3,9.5
				c-5.7,10.4-11.4,21-16.9,31.4c-5.4,10.4-10.6,20.3-15.2,29.6c-4.6,9.3-8.4,17.2-11.1,23.5c0,0.1,0,0.1-0.1,0.2
				c-1.1,2.2-1.9,3.8-2.6,5.1c-0.9,1.8-2.2,3.2-3.7,4.1c-1.4,0.9-3.2,1.6-5.4,2c-1.4,0.3-3.1,0.4-5.1,0.4c-0.9,0-1.8,0-2.8-0.1
				c-8.2-0.2-16.1-0.8-23.7-1.8c-2.7-0.4-5-1-7-1.6c-2.1-0.7-4-1.7-5.7-3c-1.7-1.3-3.3-3-4.7-5.2c-1.3-1.9-2.6-4.4-4-7.4
				c0,0,0-0.1-0.1-0.1c-5-11.7-9.9-25-14.7-39.7c-3.2-10-6.3-20.1-9-30.4c-1.2,6.1-2.5,12.4-3.6,18.6c-2.1,11.2-4.1,22.3-5.8,32.9
				c-1.7,10.7-3.3,20.9-4.5,30.4c-1.3,9.6-2.3,18.2-2.9,25.6c0,0.2,0,0.3-0.1,0.5c-1,4.2-2.8,7.2-5.5,8.9
				C709.5,525.3,706.1,526,701.1,526z"/>
			<path d="M880.8,290.2c2.3,0,4.9,0.1,7.7,0.3c8.3,0.4,17.1,1,26.3,1.8c9.2,0.9,18.3,2.1,27.4,3.8c6.2,1.2,10.3,2.9,12.2,5.2
				c1.9,2.3,2.2,5.9,1,10.7c-1.8,7.2-3.7,15.5-5.7,25.1c-2,9.6-4,19.7-6.1,30.5c-2,10.7-4.1,21.8-6.2,33.1
				c-2.1,11.4-4,22.3-5.7,32.7c-1.8,10.4-3.3,20.2-4.7,29.2c-1.4,9.1-2.4,16.7-3.2,23c-0.9,3.3-2.3,5.8-4.2,7.5
				c-1.6,1.4-4.6,2.1-9,2.1c-0.8,0-1.7,0-2.7-0.1c-5.4-0.2-10.8-0.6-16.2-1.1c-5.4-0.5-10.2-1.4-14.5-2.7c-5.5-1.3-9.2-3.1-11.1-5.5
				c-1.9-2.4-2.6-5.9-1.9-10.4c0.1-5.2,0.6-11.8,1.3-19.9c0.8-8.1,1.8-16.9,3-26.5c1.2-9.6,2.7-19.5,4.5-29.9
				c1.8-10.3,3.7-20.3,5.9-29.8c-5,8.6-10.4,18.2-16.2,28.8c-5.8,10.6-11.4,21.1-16.9,31.4c-5.4,10.4-10.5,20.3-15.2,29.6
				c-4.7,9.4-8.4,17.3-11.2,23.7c-1,2.1-1.9,3.7-2.5,5c-0.7,1.2-1.5,2.2-2.5,2.8c-1,0.7-2.4,1.1-4.1,1.5c-1.2,0.2-2.7,0.3-4.5,0.3
				c-0.8,0-1.7,0-2.7-0.1c-8.1-0.2-15.9-0.8-23.4-1.8c-2.5-0.4-4.6-0.9-6.3-1.5c-1.7-0.6-3.3-1.4-4.7-2.5c-1.4-1.1-2.7-2.5-3.9-4.3
				c-1.2-1.8-2.4-4.1-3.8-7c-4.9-11.6-9.8-24.8-14.5-39.4c-4.8-14.7-9-29.6-12.8-44.7c-2.3,10.9-4.6,22.1-6.7,33.3
				c-2.1,11.3-4.1,22.3-5.8,33c-1.7,10.7-3.3,20.9-4.6,30.5c-1.3,9.7-2.3,18.3-2.9,25.8c-0.8,3.3-2.1,5.5-4,6.8
				c-1.6,1-4.5,1.6-8.7,1.6c-0.7,0-1.4,0-2.2,0c-5.1-0.2-10.3-0.7-15.6-1.3c-5.3-0.6-10.2-1.6-14.6-2.8c-5.5-1.4-9.2-3.3-11.2-5.5
				c-2-2.2-2.8-5.7-2.5-10.3c0-6.6,0.4-14.5,1.3-23.9c0.9-9.3,2-19.3,3.4-30c1.4-10.6,3-21.6,4.8-33c1.8-11.3,3.7-22.3,5.6-33.1
				c1.9-10.7,3.8-20.8,5.7-30.3c1.9-9.5,3.8-17.6,5.6-24.4c1.7-4.8,4.1-8.1,7.1-9.7c3.1-1.6,8-2.5,14.9-2.7c3.5-0.1,6.9-0.1,10-0.1
				c6.1,0,11.6,0.2,16.5,0.5c7.5,0.5,14.9,1.2,22.2,2.2c4.8,0.6,8.6,1.5,11.4,2.5c2.8,1.1,5,2.4,6.7,3.9c1.7,1.6,3,3.3,3.8,5.4
				c0.9,2,1.7,4.3,2.6,6.9c0.1,1.2,0.4,2.7,0.8,4.4c0.4,1.7,1.3,4.9,2.6,9.5c1.4,4.6,3.4,11.2,6,19.9c2.7,8.6,6.3,20.4,10.9,35.2
				c2.8-5.9,6-12.3,9.6-19.3c3.6-7,7.4-14.2,11.4-21.4c4-7.3,8-14.5,12.2-21.7c4.1-7.2,8.1-13.9,12-20c3.6-6.9,6.9-12.5,9.6-16.9
				c2.8-4.4,5.8-7.9,9-10.5c3.2-2.5,6.9-4.2,11.1-5C874.5,290.4,877.4,290.2,880.8,290.2 M880.8,283.2c-3.8,0-7.2,0.3-10.2,0.8
				c-5.3,1-10.1,3.2-14.2,6.4c-3.8,3-7.4,7.1-10.6,12.2c-2.9,4.6-6.2,10.3-9.8,17.2c-3.8,6.2-7.9,12.9-12,20
				c-4.2,7.2-8.3,14.6-12.3,21.8c-4,7.3-7.9,14.5-11.5,21.6c-0.7,1.3-1.3,2.5-1.9,3.8c-2.2-7.2-4.2-13.4-5.7-18.5
				c-2.6-8.5-4.6-15.1-6-19.8c-1.3-4.5-2.2-7.5-2.5-9.1c-0.3-1.4-0.5-2.6-0.6-3.5c-0.1-0.5-0.2-1.1-0.3-1.6
				c-0.9-2.7-1.9-5.2-2.8-7.4c-1.3-2.9-3.1-5.5-5.5-7.7c-2.3-2.2-5.3-4-9-5.3c-3.3-1.3-7.6-2.2-13-2.9c-7.4-1-15-1.8-22.7-2.3
				c-5-0.3-10.8-0.5-17-0.5c-3.2,0-6.7,0-10.2,0.1c-8.1,0.2-14,1.4-18,3.5c-4.7,2.5-8.2,7.1-10.4,13.6c-0.1,0.2-0.1,0.3-0.2,0.5
				c-1.8,6.9-3.7,15.3-5.7,24.8c-1.9,9.5-3.9,19.7-5.8,30.5c-1.9,10.7-3.8,21.9-5.6,33.2c-1.8,11.4-3.5,22.5-4.8,33.2
				c-1.4,10.7-2.5,20.9-3.4,30.2c-0.9,9.4-1.3,17.6-1.3,24.3c-0.4,6.5,1,11.6,4.2,15.2c2.9,3.3,7.7,5.8,14.6,7.6
				c4.7,1.3,10,2.3,15.6,3c5.5,0.7,10.9,1.1,16.1,1.4c0,0,0,0,0.1,0c0.8,0,1.7,0,2.4,0c5.7,0,9.7-0.9,12.5-2.7c3.5-2.2,5.8-6,7-11.1
				c0.1-0.3,0.1-0.6,0.2-1c0.6-7.4,1.6-16,2.9-25.5c1.3-9.5,2.8-19.7,4.5-30.4c1.7-10.6,3.7-21.6,5.8-32.8c0.3-1.4,0.5-2.8,0.8-4.3
				c1.6,5.5,3.3,11,5.1,16.5c4.8,14.8,9.8,28.2,14.8,40c0,0.1,0.1,0.2,0.1,0.2c1.5,3.2,2.9,5.7,4.2,7.8c1.6,2.5,3.5,4.5,5.5,6.1
				c2,1.5,4.3,2.7,6.7,3.5c2.1,0.7,4.6,1.3,7.5,1.7c0,0,0.1,0,0.1,0c7.6,1,15.7,1.7,24.1,1.9c1,0,2,0.1,2.9,0.1
				c2.3,0,4.2-0.1,5.8-0.4c2.7-0.5,4.9-1.3,6.7-2.5c2-1.3,3.7-3.2,4.9-5.5c0.7-1.3,1.5-3,2.6-5.1c0.1-0.1,0.1-0.2,0.1-0.3
				c2.7-6.3,6.4-14.1,11-23.3c4.6-9.2,9.7-19.1,15.2-29.5c3.9-7.5,8-15.1,12.1-22.7c-1,6.1-1.8,12.1-2.5,17.9
				c-1.2,9.6-2.3,18.6-3,26.7c-0.8,8-1.2,14.7-1.3,20c-0.8,6.3,0.3,11.4,3.4,15.3c2.9,3.7,7.8,6.3,14.8,7.9
				c4.6,1.3,9.8,2.3,15.6,2.9c5.5,0.6,11.1,0.9,16.6,1.2c1,0.1,2,0.1,3,0.1c6.3,0,10.6-1.2,13.6-3.8c3-2.6,5.1-6.2,6.4-10.9
				c0.1-0.3,0.2-0.7,0.2-1c0.8-6.2,1.8-13.9,3.2-22.9c1.3-8.9,2.9-18.6,4.7-29.1c1.8-10.4,3.7-21.4,5.7-32.6
				c2-11.2,4.1-22.3,6.1-33.1c2-10.6,4.1-20.8,6-30.3c2-9.4,3.8-17.8,5.6-24.8c1.8-7,1-12.7-2.4-16.8c-3.1-3.7-8.3-6.2-16.4-7.7
				c-9.2-1.7-18.6-3-28-3.9c-9.2-0.9-18.1-1.5-26.5-1.9C886,283.3,883.3,283.2,880.8,283.2L880.8,283.2z"/>
		</g>
		<g>
			<g>
				<path fill="#E30613" d="M726,423.6c-2.1,11.3-4.1,22.3-5.8,33c-1.7,10.7-3.3,20.9-4.6,30.5c-1.3,9.7-2.3,18.3-2.9,25.8
					c-0.8,3.3-2.1,5.5-4,6.8c-1.9,1.2-5.5,1.7-10.9,1.5c-5.1-0.2-10.3-0.7-15.6-1.3c-5.3-0.6-10.2-1.6-14.6-2.8
					c-5.5-1.4-9.2-3.3-11.2-5.5c-2-2.2-2.8-5.7-2.5-10.3c0-6.6,0.4-14.5,1.3-23.9c0.9-9.3,2-19.3,3.4-30c1.4-10.6,3-21.6,4.8-33
					c1.8-11.3,3.7-22.3,5.6-33.1c1.9-10.7,3.8-20.8,5.7-30.3c1.9-9.5,3.8-17.6,5.6-24.4c1.7-4.8,4.1-8.1,7.1-9.7
					c3.1-1.6,8-2.5,14.9-2.7c10.2-0.2,19.1-0.1,26.6,0.3c7.5,0.5,14.9,1.2,22.2,2.2c4.8,0.6,8.6,1.5,11.4,2.5c2.8,1.1,5,2.4,6.7,3.9
					c1.7,1.6,3,3.3,3.8,5.4c0.9,2,1.7,4.3,2.6,6.9c0.1,1.2,0.4,2.7,0.8,4.4c0.4,1.7,1.3,4.9,2.6,9.5c1.4,4.6,3.4,11.2,6,19.9
					c2.7,8.6,6.3,20.4,10.9,35.2c2.8-5.9,6-12.3,9.6-19.3c3.6-7,7.4-14.2,11.4-21.4c4-7.3,8-14.5,12.2-21.7c4.1-7.2,8.1-13.9,12-20
					c3.6-6.9,6.9-12.5,9.6-16.9c2.8-4.4,5.8-7.9,9-10.5c3.2-2.5,6.9-4.2,11.1-5c4.2-0.8,9.7-0.9,16.5-0.4c8.3,0.4,17.1,1,26.3,1.8
					c9.2,0.9,18.3,2.1,27.4,3.8c6.2,1.2,10.3,2.9,12.2,5.2c1.9,2.3,2.2,5.9,1,10.7c-1.8,7.2-3.7,15.5-5.7,25.1
					c-2,9.6-4,19.7-6.1,30.5c-2,10.7-4.1,21.8-6.2,33.1c-2.1,11.4-4,22.3-5.7,32.7c-1.8,10.4-3.3,20.2-4.7,29.2
					c-1.4,9.1-2.4,16.7-3.2,23c-0.9,3.3-2.3,5.8-4.2,7.5c-1.9,1.7-5.8,2.3-11.6,2c-5.4-0.2-10.8-0.6-16.2-1.1
					c-5.4-0.5-10.2-1.4-14.5-2.7c-5.5-1.3-9.2-3.1-11.1-5.5c-1.9-2.4-2.6-5.9-1.9-10.4c0.1-5.2,0.6-11.8,1.3-19.9
					c0.8-8.1,1.8-16.9,3-26.5c1.2-9.6,2.7-19.5,4.5-29.9c1.8-10.3,3.7-20.3,5.9-29.8c-5,8.6-10.4,18.2-16.2,28.8
					c-5.8,10.6-11.4,21.1-16.9,31.4c-5.4,10.4-10.5,20.3-15.2,29.6c-4.7,9.4-8.4,17.3-11.2,23.7c-1,2.1-1.9,3.7-2.5,5
					c-0.7,1.2-1.5,2.2-2.5,2.8c-1,0.7-2.4,1.1-4.1,1.5c-1.7,0.3-4.1,0.4-7.2,0.3c-8.1-0.2-15.9-0.8-23.4-1.8
					c-2.5-0.4-4.6-0.9-6.3-1.5c-1.7-0.6-3.3-1.4-4.7-2.5c-1.4-1.1-2.7-2.5-3.9-4.3c-1.2-1.8-2.4-4.1-3.8-7
					c-4.9-11.6-9.8-24.8-14.5-39.4c-4.8-14.7-9-29.6-12.8-44.7C730.4,401.2,728.2,412.3,726,423.6z"/>
			</g>
			<g>
				<path fill="#E3591B" d="M726,423.6c-2.1,11.3-4.1,22.3-5.8,33c-1.7,10.7-3.3,20.9-4.6,30.5c-1.3,9.7-2.3,18.3-2.9,25.8
					c-0.8,3.3-2.1,5.5-4,6.8c-1.9,1.2-5.5,1.7-10.9,1.5c-5.1-0.2-10.3-0.7-15.6-1.3c-5.3-0.6-10.2-1.6-14.6-2.8
					c-5.5-1.4-9.2-3.3-11.2-5.5c-2-2.2-2.8-5.7-2.5-10.3c0-6.6,0.4-14.5,1.3-23.9c0.9-9.3,2-19.3,3.4-30c1.4-10.6,3-21.6,4.8-33
					c1.8-11.3,3.7-22.3,5.6-33.1c1.9-10.7,3.8-20.8,5.7-30.3c1.9-9.5,3.8-17.6,5.6-24.4c1.7-4.8,4.1-8.1,7.1-9.7
					c3.1-1.6,8-2.5,14.9-2.7c10.2-0.2,19.1-0.1,26.6,0.3c7.5,0.5,14.9,1.2,22.2,2.2c4.8,0.6,8.6,1.5,11.4,2.5c2.8,1.1,5,2.4,6.7,3.9
					c1.7,1.6,3,3.3,3.8,5.4c0.9,2,1.7,4.3,2.6,6.9c0.1,1.2,0.4,2.7,0.8,4.4c0.4,1.7,1.3,4.9,2.6,9.5c1.4,4.6,3.4,11.2,6,19.9
					c2.7,8.6,6.3,20.4,10.9,35.2c2.8-5.9,6-12.3,9.6-19.3c3.6-7,7.4-14.2,11.4-21.4c4-7.3,8-14.5,12.2-21.7c4.1-7.2,8.1-13.9,12-20
					c3.6-6.9,6.9-12.5,9.6-16.9c2.8-4.4,5.8-7.9,9-10.5c3.2-2.5,6.9-4.2,11.1-5c4.2-0.8,9.7-0.9,16.5-0.4c8.3,0.4,17.1,1,26.3,1.8
					c9.2,0.9,18.3,2.1,27.4,3.8c6.2,1.2,10.3,2.9,12.2,5.2c1.9,2.3,2.2,5.9,1,10.7c-1.8,7.2-3.7,15.5-5.7,25.1
					c-2,9.6-4,19.7-6.1,30.5c-2,10.7-4.1,21.8-6.2,33.1c-2.1,11.4-4,22.3-5.7,32.7c-1.8,10.4-3.3,20.2-4.7,29.2
					c-1.4,9.1-2.4,16.7-3.2,23c-0.9,3.3-2.3,5.8-4.2,7.5c-1.9,1.7-5.8,2.3-11.6,2c-5.4-0.2-10.8-0.6-16.2-1.1
					c-5.4-0.5-10.2-1.4-14.5-2.7c-5.5-1.3-9.2-3.1-11.1-5.5c-1.9-2.4-2.6-5.9-1.9-10.4c0.1-5.2,0.6-11.8,1.3-19.9
					c0.8-8.1,1.8-16.9,3-26.5c1.2-9.6,2.7-19.5,4.5-29.9c1.8-10.3,3.7-20.3,5.9-29.8c-5,8.6-10.4,18.2-16.2,28.8
					c-5.8,10.6-11.4,21.1-16.9,31.4c-5.4,10.4-10.5,20.3-15.2,29.6c-4.7,9.4-8.4,17.3-11.2,23.7c-1,2.1-1.9,3.7-2.5,5
					c-0.7,1.2-1.5,2.2-2.5,2.8c-1,0.7-2.4,1.1-4.1,1.5c-1.7,0.3-4.1,0.4-7.2,0.3c-8.1-0.2-15.9-0.8-23.4-1.8
					c-2.5-0.4-4.6-0.9-6.3-1.5c-1.7-0.6-3.3-1.4-4.7-2.5c-1.4-1.1-2.7-2.5-3.9-4.3c-1.2-1.8-2.4-4.1-3.8-7
					c-4.9-11.6-9.8-24.8-14.5-39.4c-4.8-14.7-9-29.6-12.8-44.7C730.4,401.2,728.2,412.3,726,423.6z"/>
			</g>
			<g>
				<path fill="none" d="M953.4,312.9c-1.7,0-3.1-1.6-3.1-3.6c0-2,1.4-3.6,3.1-3.6c0.6,0,1.1,0.2,1.6,0.5c0.1-2.5-0.5-4.5-1.7-6
					c-1.9-2.3-6-4.1-12.2-5.2c-0.8-0.1-1.5-0.3-2.3-0.4c-0.3,0.1-0.7,0.2-1,0.2c-0.7,0-1.3-0.3-1.9-0.7c-7.4-1.2-14.8-2.2-22.2-2.9
					c-1.4-0.1-2.8-0.2-4.1-0.4c0,0.1,0,0.3,0,0.4c0,2-1.4,3.6-3.1,3.6c-1.7,0-3.1-1.6-3.1-3.6c0-0.3,0-0.6,0.1-0.9
					c-5.5-0.4-10.8-0.7-16-1c-3.6-0.3-6.9-0.4-9.8-0.3c0.4,0.6,0.6,1.3,0.6,2.2c0,2-1.4,3.6-3.1,3.6c-1.7,0-3.1-1.6-3.1-3.6
					c0-0.6,0.1-1.2,0.4-1.7c-0.5,0.1-1,0.2-1.5,0.2c-4.2,0.8-7.9,2.5-11.1,5c-3.2,2.5-6.2,6-9,10.5c-2.8,4.4-6,10.1-9.6,16.9
					c-3.9,6.2-7.9,12.9-12,20c0,0,0,0,0,0c1.2,0.5,2.1,1.8,2.1,3.4c0,2-1.4,3.6-3.1,3.6c-0.9,0-1.8-0.5-2.3-1.2
					c-3,5.2-5.9,10.5-8.8,15.8c-4,7.3-7.8,14.4-11.4,21.4c-3.6,7-6.8,13.5-9.6,19.3c-4.6-14.9-8.3-26.6-10.9-35.2
					c-0.4-1.3-0.8-2.5-1.2-3.7c-0.5,1.1-1.5,1.8-2.7,1.8c-1.7,0-3.1-1.6-3.1-3.6c0-2,1.4-3.6,3.1-3.6c0.4,0,0.7,0.1,1.1,0.2
					c-1.3-4.4-2.4-8-3.3-10.9c-1.4-4.6-2.2-7.8-2.6-9.5c-0.4-1.7-0.6-3.2-0.8-4.4c-0.9-2.6-1.7-4.8-2.6-6.9c-0.9-2-2.2-3.8-3.8-5.4
					c-1.7-1.6-3.9-2.9-6.7-3.9c-2.8-1.1-6.6-1.9-11.4-2.5c-7.3-1-14.7-1.8-22.2-2.2c-7.5-0.5-16.3-0.6-26.6-0.3
					c-6.9,0.2-11.8,1.1-14.9,2.7c-3.1,1.6-5.4,4.9-7.1,9.7c-1.8,6.8-3.7,14.9-5.6,24.4c-1.8,8.9-3.6,18.3-5.4,28.2
					c0.6-0.7,1.4-1.1,2.2-1.1c1.7,0,3.1,1.6,3.1,3.6c0,2-1.4,3.6-3.1,3.6c-1.3,0-2.5-1-2.9-2.3c-1.8,10.1-3.5,20.5-5.3,31.2
					c-1.8,11.3-3.4,22.3-4.8,33c-1,7.5-1.8,14.7-2.5,21.6c1.6,0.1,3,1.7,3,3.6c0,2-1.4,3.6-3.1,3.6c-0.2,0-0.4,0-0.5-0.1
					c0,0.4-0.1,0.8-0.1,1.2c-0.9,9.3-1.3,17.3-1.3,23.9c-0.1,1.7-0.1,3.3,0.1,4.7c0.5-0.4,1.1-0.7,1.8-0.7c1.7,0,3.1,1.6,3.1,3.6
					c0,1.5-0.8,2.8-1.9,3.3c2.1,1.9,5.6,3.5,10.5,4.8c4.4,1.2,9.3,2.1,14.6,2.8c5.3,0.6,10.6,1.1,15.6,1.3c5.4,0.2,9-0.3,10.9-1.5
					c1.9-1.2,3.2-3.5,4-6.8c0.7-7.5,1.6-16.1,2.9-25.8c0.5-3.6,1-7.4,1.6-11.2c-1.1-0.6-1.8-1.8-1.8-3.3c0-1.9,1.3-3.4,2.9-3.6
					c0.6-4.1,1.3-8.2,2-12.5c1.7-10.7,3.7-21.7,5.8-33c2.1-11.3,4.4-22.4,6.7-33.3c3.7,15.1,8,30,12.8,44.7
					c4.8,14.7,9.6,27.8,14.5,39.4c1.3,2.8,2.6,5.2,3.8,7c1.2,1.8,2.5,3.2,3.9,4.3c1.4,1.1,3,1.9,4.7,2.5c1.7,0.6,3.9,1.1,6.3,1.5
					c4.8,0.7,9.8,1.1,15,1.4c0-0.1,0-0.1,0-0.2c0-2,1.4-3.6,3.1-3.6c1.7,0,3.1,1.6,3.1,3.6c0,0.2,0,0.3,0,0.5c0.7,0,1.5,0.1,2.2,0.1
					c3.1,0.1,5.5,0.1,7.2-0.3c1.7-0.3,3.1-0.8,4.1-1.5c1-0.7,1.8-1.6,2.5-2.8c0.6-1.2,1.5-2.9,2.5-5c2.8-6.4,6.5-14.3,11.2-23.7
					c0.1-0.3,0.3-0.5,0.4-0.8c-0.5,0.5-1.2,0.8-1.9,0.8c-1.7,0-3.1-1.6-3.1-3.6c0-2,1.4-3.6,3.1-3.6c1.7,0,3.1,1.6,3.1,3.6
					c0,0.2,0,0.3,0,0.5c3-6,6.1-12.1,9.5-18.5c0-0.1,0-0.1,0-0.2c0-1.5,0.7-2.7,1.8-3.3c0.8-1.5,1.6-3,2.4-4.5
					c5.4-10.4,11.1-20.9,16.9-31.4c5.8-10.6,11.2-20.2,16.2-28.8c-2.2,9.5-4.1,19.4-5.9,29.8c-1.8,10.3-3.3,20.3-4.5,29.9
					c-1.2,9.6-2.2,18.4-3,26.5c-0.8,8.1-1.2,14.7-1.3,19.9c-0.6,4.5,0,8,1.9,10.4c1.9,2.4,5.6,4.3,11.1,5.5c3.5,1,7.5,1.8,11.8,2.4
					c-0.2-0.5-0.4-1.1-0.4-1.8c0-2,1.4-3.6,3.1-3.6c1.7,0,3.1,1.6,3.1,3.6c0,0.9-0.3,1.7-0.7,2.3c4.6,0.4,9.1,0.7,13.7,0.9
					c5.8,0.3,9.7-0.4,11.6-2c0.2-0.1,0.3-0.3,0.5-0.5c0-0.2-0.1-0.5-0.1-0.7c0-1.9,1.3-3.4,2.9-3.6c0.4-0.8,0.7-1.7,0.9-2.7
					c0.8-6.3,1.8-14,3.2-23c1.4-9,2.9-18.8,4.7-29.2c1.6-9.4,3.3-19.2,5.1-29.4c-0.7-0.7-1.2-1.7-1.2-2.8c0-1.7,1-3.1,2.3-3.5
					c1.9-10.3,3.7-20.4,5.6-30.2c2-10.7,4.1-20.9,6.1-30.5c1.8-8.7,3.5-16.4,5.2-23C953.6,312.9,953.5,312.9,953.4,312.9z
					 M671.5,494.4c-1.7,0-3.1-1.6-3.1-3.6c0-2,1.4-3.6,3.1-3.6c1.7,0,3.1,1.6,3.1,3.6C674.7,492.8,673.3,494.4,671.5,494.4z
					 M671.5,458.1c-1.7,0-3.1-1.6-3.1-3.6c0-2,1.4-3.6,3.1-3.6c1.7,0,3.1,1.6,3.1,3.6C674.7,456.5,673.3,458.1,671.5,458.1z
					 M671.5,421.8c-1.7,0-3.1-1.6-3.1-3.6c0-2,1.4-3.6,3.1-3.6c1.7,0,3.1,1.6,3.1,3.6C674.7,420.2,673.3,421.8,671.5,421.8z
					 M687.2,512.5c-1.7,0-3.1-1.6-3.1-3.6c0-2,1.4-3.6,3.1-3.6c1.7,0,3.1,1.6,3.1,3.6C690.3,510.9,688.9,512.5,687.2,512.5z
					 M687.2,476.2c-1.7,0-3.1-1.6-3.1-3.6c0-2,1.4-3.6,3.1-3.6c1.7,0,3.1,1.6,3.1,3.6C690.3,474.6,688.9,476.2,687.2,476.2z
					 M687.2,439.9c-1.7,0-3.1-1.6-3.1-3.6c0-2,1.4-3.6,3.1-3.6c1.7,0,3.1,1.6,3.1,3.6C690.3,438.3,688.9,439.9,687.2,439.9z
					 M687.2,403.6c-1.7,0-3.1-1.6-3.1-3.6c0-2,1.4-3.6,3.1-3.6c1.7,0,3.1,1.6,3.1,3.6C690.3,402,688.9,403.6,687.2,403.6z
					 M687.2,367.3c-1.7,0-3.1-1.6-3.1-3.6c0-2,1.4-3.6,3.1-3.6c1.7,0,3.1,1.6,3.1,3.6C690.3,365.7,688.9,367.3,687.2,367.3z
					 M687.2,331c-1.7,0-3.1-1.6-3.1-3.6c0-2,1.4-3.6,3.1-3.6c1.7,0,3.1,1.6,3.1,3.6C690.3,329.4,688.9,331,687.2,331z M702.9,494.4
					c-1.7,0-3.1-1.6-3.1-3.6c0-2,1.4-3.6,3.1-3.6c1.7,0,3.1,1.6,3.1,3.6C706,492.8,704.6,494.4,702.9,494.4z M702.9,458.1
					c-1.7,0-3.1-1.6-3.1-3.6c0-2,1.4-3.6,3.1-3.6c1.7,0,3.1,1.6,3.1,3.6C706,456.5,704.6,458.1,702.9,458.1z M702.9,421.8
					c-1.7,0-3.1-1.6-3.1-3.6c0-2,1.4-3.6,3.1-3.6c1.7,0,3.1,1.6,3.1,3.6C706,420.2,704.6,421.8,702.9,421.8z M702.9,385.5
					c-1.7,0-3.1-1.6-3.1-3.6c0-2,1.4-3.6,3.1-3.6c1.7,0,3.1,1.6,3.1,3.6C706,383.9,704.6,385.5,702.9,385.5z M702.9,349.2
					c-1.7,0-3.1-1.6-3.1-3.6c0-2,1.4-3.6,3.1-3.6c1.7,0,3.1,1.6,3.1,3.6C706,347.6,704.6,349.2,702.9,349.2z M718.5,439.9
					c-1.7,0-3.1-1.6-3.1-3.6c0-2,1.4-3.6,3.1-3.6c1.7,0,3.1,1.6,3.1,3.6C721.6,438.3,720.2,439.9,718.5,439.9z M718.5,403.6
					c-1.7,0-3.1-1.6-3.1-3.6c0-2,1.4-3.6,3.1-3.6c1.7,0,3.1,1.6,3.1,3.6C721.6,402,720.2,403.6,718.5,403.6z M718.5,367.3
					c-1.7,0-3.1-1.6-3.1-3.6c0-2,1.4-3.6,3.1-3.6c1.7,0,3.1,1.6,3.1,3.6C721.6,365.7,720.2,367.3,718.5,367.3z M718.5,331
					c-1.7,0-3.1-1.6-3.1-3.6c0-2,1.4-3.6,3.1-3.6c1.7,0,3.1,1.6,3.1,3.6C721.6,329.4,720.2,331,718.5,331z M734.2,385.5
					c-1.7,0-3.1-1.6-3.1-3.6c0-2,1.4-3.6,3.1-3.6c1.7,0,3.1,1.6,3.1,3.6C737.3,383.9,735.9,385.5,734.2,385.5z M734.2,349.2
					c-1.7,0-3.1-1.6-3.1-3.6c0-2,1.4-3.6,3.1-3.6c1.7,0,3.1,1.6,3.1,3.6C737.3,347.6,735.9,349.2,734.2,349.2z M749.8,439.9
					c-1.7,0-3.1-1.6-3.1-3.6c0-2,1.4-3.6,3.1-3.6c1.7,0,3.1,1.6,3.1,3.6C753,438.3,751.6,439.9,749.8,439.9z M749.8,403.6
					c-1.7,0-3.1-1.6-3.1-3.6c0-2,1.4-3.6,3.1-3.6c1.7,0,3.1,1.6,3.1,3.6C753,402,751.6,403.6,749.8,403.6z M749.8,367.3
					c-1.7,0-3.1-1.6-3.1-3.6c0-2,1.4-3.6,3.1-3.6c1.7,0,3.1,1.6,3.1,3.6C753,365.7,751.6,367.3,749.8,367.3z M749.8,331
					c-1.7,0-3.1-1.6-3.1-3.6c0-2,1.4-3.6,3.1-3.6c1.7,0,3.1,1.6,3.1,3.6C753,329.4,751.6,331,749.8,331z M765.5,458.1
					c-1.7,0-3.1-1.6-3.1-3.6c0-2,1.4-3.6,3.1-3.6c1.7,0,3.1,1.6,3.1,3.6C768.6,456.5,767.2,458.1,765.5,458.1z M765.5,421.8
					c-1.7,0-3.1-1.6-3.1-3.6c0-2,1.4-3.6,3.1-3.6c1.7,0,3.1,1.6,3.1,3.6C768.6,420.2,767.2,421.8,765.5,421.8z M765.5,385.5
					c-1.7,0-3.1-1.6-3.1-3.6c0-2,1.4-3.6,3.1-3.6c1.7,0,3.1,1.6,3.1,3.6C768.6,383.9,767.2,385.5,765.5,385.5z M765.5,349.2
					c-1.7,0-3.1-1.6-3.1-3.6c0-2,1.4-3.6,3.1-3.6c1.7,0,3.1,1.6,3.1,3.6C768.6,347.6,767.2,349.2,765.5,349.2z M781.1,476.2
					c-1.7,0-3.1-1.6-3.1-3.6c0-2,1.4-3.6,3.1-3.6c1.7,0,3.1,1.6,3.1,3.6C784.3,474.6,782.9,476.2,781.1,476.2z M781.1,439.9
					c-1.7,0-3.1-1.6-3.1-3.6c0-2,1.4-3.6,3.1-3.6c1.7,0,3.1,1.6,3.1,3.6C784.3,438.3,782.9,439.9,781.1,439.9z M781.1,403.6
					c-1.7,0-3.1-1.6-3.1-3.6c0-2,1.4-3.6,3.1-3.6c1.7,0,3.1,1.6,3.1,3.6C784.3,402,782.9,403.6,781.1,403.6z M796.8,458.1
					c-1.7,0-3.1-1.6-3.1-3.6c0-2,1.4-3.6,3.1-3.6c1.7,0,3.1,1.6,3.1,3.6C799.9,456.5,798.5,458.1,796.8,458.1z M796.8,421.8
					c-1.7,0-3.1-1.6-3.1-3.6c0-2,1.4-3.6,3.1-3.6c1.7,0,3.1,1.6,3.1,3.6C799.9,420.2,798.5,421.8,796.8,421.8z M812.5,476.2
					c-1.7,0-3.1-1.6-3.1-3.6c0-2,1.4-3.6,3.1-3.6c1.7,0,3.1,1.6,3.1,3.6C815.6,474.6,814.2,476.2,812.5,476.2z M812.5,439.9
					c-1.7,0-3.1-1.6-3.1-3.6c0-2,1.4-3.6,3.1-3.6c1.7,0,3.1,1.6,3.1,3.6C815.6,438.3,814.2,439.9,812.5,439.9z M812.5,403.6
					c-1.7,0-3.1-1.6-3.1-3.6c0-2,1.4-3.6,3.1-3.6c1.7,0,3.1,1.6,3.1,3.6C815.6,402,814.2,403.6,812.5,403.6z M828.1,421.8
					c-1.7,0-3.1-1.6-3.1-3.6c0-2,1.4-3.6,3.1-3.6c1.7,0,3.1,1.6,3.1,3.6C831.3,420.2,829.9,421.8,828.1,421.8z M828.1,385.5
					c-1.7,0-3.1-1.6-3.1-3.6c0-2,1.4-3.6,3.1-3.6c1.7,0,3.1,1.6,3.1,3.6C831.3,383.9,829.9,385.5,828.1,385.5z M843.8,403.6
					c-1.7,0-3.1-1.6-3.1-3.6c0-2,1.4-3.6,3.1-3.6c1.7,0,3.1,1.6,3.1,3.6C846.9,402,845.5,403.6,843.8,403.6z M843.8,367.3
					c-1.7,0-3.1-1.6-3.1-3.6c0-2,1.4-3.6,3.1-3.6c1.7,0,3.1,1.6,3.1,3.6C846.9,365.7,845.5,367.3,843.8,367.3z M843.8,331
					c-1.7,0-3.1-1.6-3.1-3.6c0-2,1.4-3.6,3.1-3.6c1.7,0,3.1,1.6,3.1,3.6C846.9,329.4,845.5,331,843.8,331z M859.4,385.5
					c-1.7,0-3.1-1.6-3.1-3.6c0-2,1.4-3.6,3.1-3.6c1.7,0,3.1,1.6,3.1,3.6C862.6,383.9,861.2,385.5,859.4,385.5z M859.4,349.2
					c-1.7,0-3.1-1.6-3.1-3.6c0-2,1.4-3.6,3.1-3.6c1.7,0,3.1,1.6,3.1,3.6C862.6,347.6,861.2,349.2,859.4,349.2z M859.4,312.9
					c-1.7,0-3.1-1.6-3.1-3.6c0-2,1.4-3.6,3.1-3.6c1.7,0,3.1,1.6,3.1,3.6C862.6,311.3,861.2,312.9,859.4,312.9z M875.1,476.2
					c-1.7,0-3.1-1.6-3.1-3.6c0-2,1.4-3.6,3.1-3.6c1.7,0,3.1,1.6,3.1,3.6C878.2,474.6,876.8,476.2,875.1,476.2z M875.1,439.9
					c-1.7,0-3.1-1.6-3.1-3.6c0-2,1.4-3.6,3.1-3.6c1.7,0,3.1,1.6,3.1,3.6C878.2,438.3,876.8,439.9,875.1,439.9z M875.1,403.6
					c-1.7,0-3.1-1.6-3.1-3.6c0-2,1.4-3.6,3.1-3.6c1.7,0,3.1,1.6,3.1,3.6C878.2,402,876.8,403.6,875.1,403.6z M875.1,367.3
					c-1.7,0-3.1-1.6-3.1-3.6c0-2,1.4-3.6,3.1-3.6c1.7,0,3.1,1.6,3.1,3.6C878.2,365.7,876.8,367.3,875.1,367.3z M875.1,331
					c-1.7,0-3.1-1.6-3.1-3.6c0-2,1.4-3.6,3.1-3.6c1.7,0,3.1,1.6,3.1,3.6C878.2,329.4,876.8,331,875.1,331z M890.8,458.1
					c-1.7,0-3.1-1.6-3.1-3.6c0-2,1.4-3.6,3.1-3.6c1.7,0,3.1,1.6,3.1,3.6C893.9,456.5,892.5,458.1,890.8,458.1z M890.8,421.8
					c-1.7,0-3.1-1.6-3.1-3.6c0-2,1.4-3.6,3.1-3.6c1.7,0,3.1,1.6,3.1,3.6C893.9,420.2,892.5,421.8,890.8,421.8z M890.8,385.5
					c-1.7,0-3.1-1.6-3.1-3.6c0-2,1.4-3.6,3.1-3.6c1.7,0,3.1,1.6,3.1,3.6C893.9,383.9,892.5,385.5,890.8,385.5z M890.8,349.2
					c-1.7,0-3.1-1.6-3.1-3.6c0-2,1.4-3.6,3.1-3.6c1.7,0,3.1,1.6,3.1,3.6C893.9,347.6,892.5,349.2,890.8,349.2z M890.8,312.9
					c-1.7,0-3.1-1.6-3.1-3.6c0-2,1.4-3.6,3.1-3.6c1.7,0,3.1,1.6,3.1,3.6C893.9,311.3,892.5,312.9,890.8,312.9z M906.4,476.2
					c-1.7,0-3.1-1.6-3.1-3.6c0-2,1.4-3.6,3.1-3.6c1.7,0,3.1,1.6,3.1,3.6C909.6,474.6,908.1,476.2,906.4,476.2z M906.4,439.9
					c-1.7,0-3.1-1.6-3.1-3.6c0-2,1.4-3.6,3.1-3.6c1.7,0,3.1,1.6,3.1,3.6C909.6,438.3,908.1,439.9,906.4,439.9z M906.4,403.6
					c-1.7,0-3.1-1.6-3.1-3.6c0-2,1.4-3.6,3.1-3.6c1.7,0,3.1,1.6,3.1,3.6C909.6,402,908.1,403.6,906.4,403.6z M906.4,367.3
					c-1.7,0-3.1-1.6-3.1-3.6c0-2,1.4-3.6,3.1-3.6c1.7,0,3.1,1.6,3.1,3.6C909.6,365.7,908.1,367.3,906.4,367.3z M906.4,331
					c-1.7,0-3.1-1.6-3.1-3.6c0-2,1.4-3.6,3.1-3.6c1.7,0,3.1,1.6,3.1,3.6C909.6,329.4,908.1,331,906.4,331z M922.1,458.1
					c-1.7,0-3.1-1.6-3.1-3.6c0-2,1.4-3.6,3.1-3.6c1.7,0,3.1,1.6,3.1,3.6C925.2,456.5,923.8,458.1,922.1,458.1z M922.1,421.8
					c-1.7,0-3.1-1.6-3.1-3.6c0-2,1.4-3.6,3.1-3.6c1.7,0,3.1,1.6,3.1,3.6C925.2,420.2,923.8,421.8,922.1,421.8z M922.1,385.5
					c-1.7,0-3.1-1.6-3.1-3.6c0-2,1.4-3.6,3.1-3.6c1.7,0,3.1,1.6,3.1,3.6C925.2,383.9,923.8,385.5,922.1,385.5z M922.1,349.2
					c-1.7,0-3.1-1.6-3.1-3.6c0-2,1.4-3.6,3.1-3.6c1.7,0,3.1,1.6,3.1,3.6C925.2,347.6,923.8,349.2,922.1,349.2z M922.1,312.9
					c-1.7,0-3.1-1.6-3.1-3.6c0-2,1.4-3.6,3.1-3.6c1.7,0,3.1,1.6,3.1,3.6C925.2,311.3,923.8,312.9,922.1,312.9z M937.7,367.3
					c-1.7,0-3.1-1.6-3.1-3.6c0-2,1.4-3.6,3.1-3.6c1.7,0,3.1,1.6,3.1,3.6C940.9,365.7,939.5,367.3,937.7,367.3z M937.7,331
					c-1.7,0-3.1-1.6-3.1-3.6c0-2,1.4-3.6,3.1-3.6c1.7,0,3.1,1.6,3.1,3.6C940.9,329.4,939.5,331,937.7,331z"/>
				<path fill="#8ACCC6" d="M950.3,309.3c0,2,1.4,3.6,3.1,3.6c0.1,0,0.2,0,0.3,0c0.2-0.7,0.3-1.4,0.5-2c0.4-1.7,0.7-3.3,0.7-4.7
					c-0.5-0.3-1-0.5-1.6-0.5C951.7,305.6,950.3,307.3,950.3,309.3z"/>
				<ellipse fill="#8ACCC6" cx="937.7" cy="327.4" rx="3.1" ry="3.6"/>
				<path fill="#8ACCC6" d="M934.6,400c0,1.1,0.5,2.1,1.2,2.8c0.2-1.1,0.4-2.2,0.6-3.3c0.2-1,0.4-2,0.5-3
					C935.6,396.9,934.6,398.3,934.6,400z"/>
				<ellipse fill="#8ACCC6" cx="906.4" cy="327.4" rx="3.1" ry="3.6"/>
				<path fill="#8ACCC6" d="M906.4,294.7c1.7,0,3.1-1.6,3.1-3.6c0-0.1,0-0.3,0-0.4c-2.1-0.2-4.1-0.3-6.1-0.5
					c-0.1,0.3-0.1,0.6-0.1,0.9C903.3,293.1,904.7,294.7,906.4,294.7z"/>
				<path fill="#8ACCC6" d="M938.8,294.5c-1-0.2-1.9-0.3-2.9-0.5c0.5,0.4,1.2,0.7,1.9,0.7C938.1,294.7,938.4,294.7,938.8,294.5z"/>
				<ellipse fill="#8ACCC6" cx="922.1" cy="309.3" rx="3.1" ry="3.6"/>
				<ellipse fill="#8ACCC6" cx="890.8" cy="309.3" rx="3.1" ry="3.6"/>
				<ellipse fill="#8ACCC6" cx="906.4" cy="400" rx="3.1" ry="3.6"/>
				<ellipse fill="#8ACCC6" cx="906.4" cy="363.7" rx="3.1" ry="3.6"/>
				<ellipse fill="#8ACCC6" cx="937.7" cy="363.7" rx="3.1" ry="3.6"/>
				<ellipse fill="#8ACCC6" cx="922.1" cy="381.9" rx="3.1" ry="3.6"/>
				<ellipse fill="#8ACCC6" cx="890.8" cy="381.9" rx="3.1" ry="3.6"/>
				<ellipse fill="#8ACCC6" cx="922.1" cy="345.6" rx="3.1" ry="3.6"/>
				<ellipse fill="#8ACCC6" cx="890.8" cy="345.6" rx="3.1" ry="3.6"/>
				<ellipse fill="#8ACCC6" cx="875.1" cy="400" rx="3.1" ry="3.6"/>
				<ellipse fill="#8ACCC6" cx="906.4" cy="472.6" rx="3.1" ry="3.6"/>
				<ellipse fill="#8ACCC6" cx="906.4" cy="436.3" rx="3.1" ry="3.6"/>
				<ellipse fill="#8ACCC6" cx="922.1" cy="454.5" rx="3.1" ry="3.6"/>
				<ellipse fill="#8ACCC6" cx="890.8" cy="454.5" rx="3.1" ry="3.6"/>
				<ellipse fill="#8ACCC6" cx="922.1" cy="418.2" rx="3.1" ry="3.6"/>
				<ellipse fill="#8ACCC6" cx="890.8" cy="418.2" rx="3.1" ry="3.6"/>
				<ellipse fill="#8ACCC6" cx="875.1" cy="472.6" rx="3.1" ry="3.6"/>
				<path fill="#8ACCC6" d="M918.9,490.8c0,0.2,0,0.5,0.1,0.7c1.1-1.1,2.1-2.5,2.8-4.3C920.2,487.3,918.9,488.9,918.9,490.8z"/>
				<path fill="#8ACCC6" d="M890.8,487.1c-1.7,0-3.1,1.6-3.1,3.6c0,0.6,0.2,1.2,0.4,1.8c0.9,0.1,1.8,0.2,2.7,0.3
					c0.8,0.1,1.7,0.2,2.5,0.2c0.4-0.6,0.7-1.4,0.7-2.3C893.9,488.8,892.5,487.1,890.8,487.1z"/>
				<path fill="#8ACCC6" d="M875.1,294.7c1.7,0,3.1-1.6,3.1-3.6c0-0.8-0.2-1.5-0.6-2.2c-1.9,0.1-3.7,0.2-5.3,0.4
					c-0.2,0.5-0.4,1.1-0.4,1.7C872,293.1,873.4,294.7,875.1,294.7z"/>
				<ellipse fill="#8ACCC6" cx="859.4" cy="309.3" rx="3.1" ry="3.6"/>
				<ellipse fill="#8ACCC6" cx="843.8" cy="363.7" rx="3.1" ry="3.6"/>
				<ellipse fill="#8ACCC6" cx="875.1" cy="363.7" rx="3.1" ry="3.6"/>
				<ellipse fill="#8ACCC6" cx="859.4" cy="381.9" rx="3.1" ry="3.6"/>
				<ellipse fill="#8ACCC6" cx="828.1" cy="381.9" rx="3.1" ry="3.6"/>
				<ellipse fill="#8ACCC6" cx="859.4" cy="345.6" rx="3.1" ry="3.6"/>
				<path fill="#8ACCC6" d="M828.1,349.2c1.7,0,3.1-1.6,3.1-3.6c0-1.6-0.9-2.9-2.1-3.4c-1.1,1.9-2.2,3.9-3.3,5.8
					C826.4,348.7,827.2,349.2,828.1,349.2z"/>
				<ellipse fill="#8ACCC6" cx="843.8" cy="327.4" rx="3.1" ry="3.6"/>
				<ellipse fill="#8ACCC6" cx="875.1" cy="327.4" rx="3.1" ry="3.6"/>
				<path fill="#8ACCC6" d="M840.7,436.3c0,0.1,0,0.1,0,0.2c0.6-1.1,1.2-2.3,1.8-3.4C841.4,433.6,840.7,434.9,840.7,436.3z"/>
				<ellipse fill="#8ACCC6" cx="875.1" cy="436.3" rx="3.1" ry="3.6"/>
				<path fill="#8ACCC6" d="M828.1,450.8c-1.7,0-3.1,1.6-3.1,3.6c0,2,1.4,3.6,3.1,3.6c0.7,0,1.4-0.3,1.9-0.8
					c0.4-0.8,0.8-1.6,1.2-2.4c0-0.2,0-0.3,0-0.5C831.3,452.5,829.9,450.8,828.1,450.8z"/>
				<ellipse fill="#8ACCC6" cx="828.1" cy="418.2" rx="3.1" ry="3.6"/>
				<ellipse fill="#8ACCC6" cx="843.8" cy="400" rx="3.1" ry="3.6"/>
				<path fill="#8ACCC6" d="M778,363.7c0,2,1.4,3.6,3.1,3.6c1.1,0,2.1-0.7,2.7-1.8c-0.6-1.9-1.1-3.6-1.6-5.3
					c-0.3-0.1-0.7-0.2-1.1-0.2C779.4,360.1,778,361.7,778,363.7z"/>
				<ellipse fill="#8ACCC6" cx="765.5" cy="381.9" rx="3.1" ry="3.6"/>
				<ellipse fill="#8ACCC6" cx="765.5" cy="345.6" rx="3.1" ry="3.6"/>
				<ellipse fill="#8ACCC6" cx="781.1" cy="436.3" rx="3.1" ry="3.6"/>
				<ellipse fill="#8ACCC6" cx="812.5" cy="436.3" rx="3.1" ry="3.6"/>
				<ellipse fill="#8ACCC6" cx="796.8" cy="454.5" rx="3.1" ry="3.6"/>
				<ellipse fill="#8ACCC6" cx="765.5" cy="454.5" rx="3.1" ry="3.6"/>
				<ellipse fill="#8ACCC6" cx="796.8" cy="418.2" rx="3.1" ry="3.6"/>
				<ellipse fill="#8ACCC6" cx="765.5" cy="418.2" rx="3.1" ry="3.6"/>
				<ellipse fill="#8ACCC6" cx="781.1" cy="400" rx="3.1" ry="3.6"/>
				<ellipse fill="#8ACCC6" cx="812.5" cy="400" rx="3.1" ry="3.6"/>
				<path fill="#8ACCC6" d="M796.8,487.1c-1.7,0-3.1,1.6-3.1,3.6c0,0.1,0,0.1,0,0.2c2,0.1,4.1,0.2,6.2,0.3c0-0.2,0-0.3,0-0.5
					C799.9,488.8,798.5,487.1,796.8,487.1z"/>
				<ellipse fill="#8ACCC6" cx="781.1" cy="472.6" rx="3.1" ry="3.6"/>
				<ellipse fill="#8ACCC6" cx="812.5" cy="472.6" rx="3.1" ry="3.6"/>
				<ellipse fill="#8ACCC6" cx="718.5" cy="363.7" rx="3.1" ry="3.6"/>
				<ellipse fill="#8ACCC6" cx="749.8" cy="363.7" rx="3.1" ry="3.6"/>
				<ellipse fill="#8ACCC6" cx="734.2" cy="381.9" rx="3.1" ry="3.6"/>
				<ellipse fill="#8ACCC6" cx="702.9" cy="381.9" rx="3.1" ry="3.6"/>
				<ellipse fill="#8ACCC6" cx="734.2" cy="345.6" rx="3.1" ry="3.6"/>
				<ellipse fill="#8ACCC6" cx="702.9" cy="345.6" rx="3.1" ry="3.6"/>
				<ellipse fill="#8ACCC6" cx="718.5" cy="327.4" rx="3.1" ry="3.6"/>
				<ellipse fill="#8ACCC6" cx="749.8" cy="327.4" rx="3.1" ry="3.6"/>
				<ellipse fill="#8ACCC6" cx="718.5" cy="436.3" rx="3.1" ry="3.6"/>
				<ellipse fill="#8ACCC6" cx="749.8" cy="436.3" rx="3.1" ry="3.6"/>
				<ellipse fill="#8ACCC6" cx="702.9" cy="454.5" rx="3.1" ry="3.6"/>
				<ellipse fill="#8ACCC6" cx="702.9" cy="418.2" rx="3.1" ry="3.6"/>
				<ellipse fill="#8ACCC6" cx="718.5" cy="400" rx="3.1" ry="3.6"/>
				<ellipse fill="#8ACCC6" cx="749.8" cy="400" rx="3.1" ry="3.6"/>
				<ellipse fill="#8ACCC6" cx="702.9" cy="490.8" rx="3.1" ry="3.6"/>
				<path fill="#8ACCC6" d="M715.4,472.6c0,1.5,0.8,2.7,1.8,3.3c0.3-2.3,0.7-4.6,1-6.9C716.6,469.2,715.4,470.7,715.4,472.6z"/>
				<ellipse fill="#8ACCC6" cx="687.2" cy="363.7" rx="3.1" ry="3.6"/>
				<path fill="#8ACCC6" d="M671.5,385.5c1.7,0,3.1-1.6,3.1-3.6c0-2-1.4-3.6-3.1-3.6c-0.9,0-1.7,0.4-2.2,1.1c-0.1,0.7-0.2,1.4-0.4,2
					c-0.1,0.6-0.2,1.2-0.3,1.8C669.1,384.5,670.2,385.5,671.5,385.5z"/>
				<ellipse fill="#8ACCC6" cx="687.2" cy="327.4" rx="3.1" ry="3.6"/>
				<ellipse fill="#8ACCC6" cx="687.2" cy="436.3" rx="3.1" ry="3.6"/>
				<ellipse fill="#8ACCC6" cx="671.5" cy="454.5" rx="3.1" ry="3.6"/>
				<ellipse fill="#8ACCC6" cx="671.5" cy="418.2" rx="3.1" ry="3.6"/>
				<ellipse fill="#8ACCC6" cx="687.2" cy="400" rx="3.1" ry="3.6"/>
				<path fill="#8ACCC6" d="M659,508.9c0-2-1.4-3.6-3.1-3.6c-0.7,0-1.3,0.3-1.8,0.7c0.3,2.3,1.1,4.2,2.4,5.6
					c0.2,0.2,0.4,0.5,0.7,0.7C658.2,511.7,659,510.4,659,508.9z"/>
				<ellipse fill="#8ACCC6" cx="687.2" cy="508.9" rx="3.1" ry="3.6"/>
				<ellipse fill="#8ACCC6" cx="671.5" cy="490.8" rx="3.1" ry="3.6"/>
				<path fill="#8ACCC6" d="M659,472.6c0-1.9-1.3-3.5-3-3.6c-0.3,2.4-0.5,4.8-0.7,7.2c0.2,0,0.4,0.1,0.5,0.1
					C657.6,476.2,659,474.6,659,472.6z"/>
				<ellipse fill="#8ACCC6" cx="687.2" cy="472.6" rx="3.1" ry="3.6"/>
			</g>
		</g>
	</g>
</g>
</svg>
