<?xml version="1.0" encoding="utf-8"?>
<!-- Generator: Adobe Illustrator 18.1.1, SVG Export Plug-In . SVG Version: 6.00 Build 0)  -->
<svg version="1.1" id="Calque_1" xmlns="http://www.w3.org/2000/svg" xmlns:xlink="http://www.w3.org/1999/xlink" x="0px" y="0px"
	 viewBox="0 0 1000 1000" enable-background="new 0 0 1000 1000" xml:space="preserve">
<g>
	<g>
		<defs>
			<rect id="XMLID_1_" width="1000" height="1000"/>
		</defs>
		<use xlink:href="#XMLID_1_"  overflow="visible" fill="#D44B04"/>
		<clipPath id="XMLID_3_">
			<use xlink:href="#XMLID_1_"  overflow="visible"/>
		</clipPath>
		<polyline clip-path="url(#XMLID_3_)" fill="#FF5D11" points="500.1,500.2 582.9,-267 497.5,-267 500,500.4 		"/>
		<polyline clip-path="url(#XMLID_3_)" fill="#FF5D11" points="500.1,500 381.5,-262.8 298.9,-240.7 500,500 		"/>
		<polyline clip-path="url(#XMLID_3_)" fill="#FF5D11" points="500.1,500 188.1,-206.1 114.1,-163.4 500,500.1 		"/>
		<polyline clip-path="url(#XMLID_3_)" fill="#FF5D11" points="500.1,500 16,-101.3 -44.4,-40.9 500,500.1 		"/>
		<polyline clip-path="url(#XMLID_3_)" fill="#FF5D11" points="500.1,500 -123.2,44.5 -165.9,118.5 500.1,500.1 		"/>
		<polyline clip-path="url(#XMLID_3_)" fill="#FF5D11" points="500.1,500 -219.8,221.4 -241.9,303.9 500.1,500.1 		"/>
		<polyline clip-path="url(#XMLID_3_)" fill="#FF5D11" points="499.8,500 -268,417.2 -268,502.6 499.7,500.1 		"/>
		<polyline clip-path="url(#XMLID_3_)" fill="#FF5D11" points="500.1,500 -262.8,618.7 -240.7,701.2 500.1,500.1 		"/>
		<polyline clip-path="url(#XMLID_3_)" fill="#FF5D11" points="500.1,500 -206.1,812.1 -163.4,886.1 500.1,500.1 		"/>
		<polyline clip-path="url(#XMLID_3_)" fill="#FF5D11" points="500.1,500 -101.2,984.2 -40.8,1044.6 500.1,500.1 		"/>
		<polyline clip-path="url(#XMLID_3_)" fill="#FF5D11" points="500.1,500 44.6,1123.4 118.6,1166.1 500.2,500.1 		"/>
		<polyline clip-path="url(#XMLID_3_)" fill="#FF5D11" points="500.1,500.1 221.5,1220 304,1242.1 500.2,500.1 		"/>
		<polyline clip-path="url(#XMLID_3_)" fill="#FF5D11" points="500.1,500.3 417.3,1268 502.7,1268 500.2,500.4 		"/>
		<polyline clip-path="url(#XMLID_3_)" fill="#FF5D11" points="500.1,500 618.8,1262.8 701.3,1240.7 500.2,500 		"/>
		<polyline clip-path="url(#XMLID_3_)" fill="#FF5D11" points="500.1,500 812.2,1206.1 886.1,1163.4 500.2,499.9 		"/>
		<polyline clip-path="url(#XMLID_3_)" fill="#FF5D11" points="500.1,500 984.3,1101.3 1044.7,1040.9 500.2,499.9 		"/>
		<polyline clip-path="url(#XMLID_3_)" fill="#FF5D11" points="500.1,500 1123.4,955.5 1166.1,881.5 500.2,499.9 		"/>
		<polyline clip-path="url(#XMLID_3_)" fill="#FF5D11" points="500.1,500 1220,778.6 1242.1,696.1 500.1,499.9 		"/>
		<polyline clip-path="url(#XMLID_3_)" fill="#FF5D11" points="499.8,500 1267,582.8 1267,497.4 499.7,499.9 		"/>
		<polyline clip-path="url(#XMLID_3_)" fill="#FF5D11" points="500.1,500 1262.8,381.4 1240.7,298.9 500,499.9 		"/>
		<polyline clip-path="url(#XMLID_3_)" fill="#FF5D11" points="500.1,500 1206.1,188 1163.4,114 500,499.9 		"/>
		<polyline clip-path="url(#XMLID_3_)" fill="#FF5D11" points="500.1,500 1101.3,15.9 1040.9,-44.5 500,500 		"/>
		<polyline clip-path="url(#XMLID_3_)" fill="#FF5D11" points="500.1,500 955.5,-123.2 881.5,-165.9 500,500 		"/>
		<polyline clip-path="url(#XMLID_3_)" fill="#FF5D11" points="500.1,500.1 778.7,-219.8 696.2,-241.9 500,500.1 		"/>
	</g>
</g>
</svg>
