<?xml version="1.0" encoding="utf-8"?>
<!-- Generator: Adobe Illustrator 16.0.0, SVG Export Plug-In . SVG Version: 6.00 Build 0)  -->
<!DOCTYPE svg PUBLIC "-//W3C//DTD SVG 1.1//EN" "http://www.w3.org/Graphics/SVG/1.1/DTD/svg11.dtd">
<svg version="1.1" id="Calque_1" xmlns="http://www.w3.org/2000/svg" xmlns:xlink="http://www.w3.org/1999/xlink" x="0px" y="0px"
	 width="417.487px" height="271.297px" viewBox="0 0 417.487 271.297" enable-background="new 0 0 417.487 271.297"
	 xml:space="preserve">
<g>
	<g>
		<g>
			<g>
				<g>
					<g>
						<g>
							<g>
								<g>
									<path fill="#EA5B23" d="M417.111,172.984c-0.963-8.69-3.896-15.898-6.775-21.496c-2.949-5.601-5.979-9.651-8.185-12.32
										c-0.368-0.438-0.703-0.827-1.021-1.193c0.154-5.564-0.271-11.716-1.898-18.333c-0.354-1.279-0.666-2.569-1.173-3.896
										c-0.235-0.651-0.464-1.349-0.722-1.974l-0.804-1.831c-1.029-2.484-2.315-4.905-3.64-7.37
										c-2.791-4.852-6.208-9.636-10.339-14.012c-8.211-8.856-18.659-14.658-28.51-17.667c-4.978-1.417-9.784-2.322-14.3-2.629
										c-2.252-0.216-4.352-0.148-6.403-0.216c-2.146,0.03-4.167-0.016-6.141,0.307c-3.917,0.442-7.247,1.503-10.056,2.528
										c-2.72,1.032-4.951,2.089-6.768,3.006c0.121-0.947,0.227-1.917,0.292-2.939c0.244-3.268,0.11-6.897-0.481-10.746
										c-0.56-3.858-1.634-7.932-3.292-12.022c-3.271-8.178-8.881-16.567-16.996-23.09c-8.077-6.534-17.868-10.349-26.971-10.877
										c-4.542-0.303-8.856,0.137-12.73,1.004c-3.862,0.945-7.28,2.349-10.108,3.69c-5.808,2.791-10.073,5.928-12.562,8.516
										c-0.637,0.684-1.174,1.287-1.619,1.826c-0.394-2.2-1.144-4.583-2.463-7.024c-3.101-5.798-8.919-11.375-16.45-15.261
										c-3.765-1.96-7.964-3.542-12.554-4.55c-2.301-0.487-4.704-0.828-7.222-0.936c-2.578-0.146-5.043,0.162-7.545,0.392
										c-4.97,0.747-9.617,2.225-13.831,4.087c-4.173,1.939-7.917,4.23-11.225,6.68c-1.577,1.176-3.048,2.383-4.436,3.601
										c-0.43-0.364-0.851-0.728-1.293-1.1c-1.599-1.302-3.14-2.726-4.998-4.06c-3.591-2.797-7.837-5.327-12.568-7.545
										c-9.419-4.425-21.505-6.867-33.81-4.771C85.201,2.767,74.565,8.86,66.991,16.026c-7.624,7.217-12.576,15.248-15.559,22.282
										c-1.027,2.375-1.84,4.619-2.51,6.728c-0.188-0.018-0.361-0.044-0.561-0.056c-3.535-0.408-8.901-0.308-15.265,1.767
										c-6.361,2.015-13.386,6.492-19.327,13.187C7.903,66.676,3.078,75.526,1.042,85.784
										c-2.008,10.333-0.915,20.198,1.598,28.605c2.46,8.442,6.617,15.424,11.095,20.305c4.076,4.444,8.246,7.165,11.489,8.586
										c-1.557,1.654-3.103,3.392-4.585,5.314c-0.477,0.592-0.958,1.189-1.441,1.793c-0.471,0.626-0.895,1.344-1.349,2.025
										c-0.868,1.397-1.858,2.773-2.649,4.282c-0.717,1.56-1.445,3.139-2.184,4.741c-0.7,1.625-1.105,3.377-1.666,5.111
										c-1.896,7.018-2.265,14.814-0.977,22.546c1.272,7.741,4.124,15.41,8.297,22.469c8.354,14.113,21.275,24.431,34.752,29.132
										c5.697,2.003,11.42,2.976,16.804,3.201c0.377,0.78,0.854,1.801,1.552,2.97c1.796,3.035,4.791,7.363,9.774,11.659
										c4.952,4.244,11.958,8.452,20.52,10.646c8.516,2.343,18.405,2.805,28.321,1.107c15.942-2.708,28.871-11.084,36.661-20.339
										c0.249,0.501,0.517,1.035,0.825,1.64c1.923,3.046,5.054,7.763,11.108,11.425c1.521,0.816,3.105,1.868,4.897,2.458
										c0.892,0.341,1.803,0.689,2.729,1.044c0.937,0.369,1.896,0.53,2.88,0.807c0.988,0.244,1.992,0.492,3.015,0.742
										c1.019,0.158,2.053,0.313,3.103,0.475c2.092,0.365,4.317,0.514,6.621,0.63c4.606,0.104,9.61-0.373,14.658-1.957
										c5.041-1.548,10.088-4.311,14.254-8.252c3.602-3.338,6.352-7.287,8.34-11.366c0.075,0.13,0.148,0.241,0.226,0.374
										c0.831,1.273,1.876,2.57,3.004,3.975c2.393,2.676,5.481,5.474,9.382,7.946c8.074,4.68,18.105,8.025,29.93,9.896
										c11.737,1.786,25.297,1.637,38.884-2.66c6.751-2.174,13.142-5.345,18.619-9.531c5.401-4.201,9.718-8.927,13.333-13.813
										c1.71-2.289,3.208-4.638,4.542-7.002c0.708-0.137,1.531-0.303,2.487-0.506c3.371-0.714,8.23-1.884,14.111-3.935
										c5.853-2.1,12.796-5.052,19.857-9.894c3.547-2.381,7.037-5.362,10.303-8.88c3.228-3.517,6.291-7.728,8.413-12.419
										C417.084,191.789,418.172,181.594,417.111,172.984z"/>
								</g>
							</g>
						</g>
					</g>
				</g>
			</g>
		</g>
		<g>
			<g>
				<g>
					<g>
						<g>
							<g>
								<g>
									<path fill="#000100" d="M417.111,172.984c-0.963-8.69-3.896-15.898-6.775-21.496c-2.949-5.601-5.979-9.651-8.185-12.32
										c-0.368-0.438-0.703-0.827-1.021-1.193c0.154-5.564-0.271-11.716-1.898-18.333c-0.354-1.279-0.666-2.569-1.173-3.896
										c-0.235-0.651-0.464-1.349-0.722-1.974l-0.804-1.831c-1.029-2.484-2.315-4.905-3.64-7.37
										c-2.791-4.852-6.208-9.636-10.339-14.012c-8.211-8.856-18.659-14.658-28.51-17.667c-4.978-1.417-9.784-2.322-14.3-2.629
										c-2.252-0.216-4.352-0.148-6.403-0.216c-2.146,0.03-4.167-0.016-6.141,0.307c-3.917,0.442-7.247,1.503-10.056,2.528
										c-2.72,1.032-4.951,2.089-6.768,3.006c0.121-0.947,0.227-1.917,0.292-2.939c0.244-3.268,0.11-6.897-0.481-10.746
										c-0.56-3.858-1.634-7.932-3.292-12.022c-3.271-8.178-8.881-16.567-16.996-23.09c-8.077-6.534-17.868-10.349-26.971-10.877
										c-4.542-0.303-8.856,0.137-12.73,1.004c-3.862,0.945-7.28,2.349-10.108,3.69c-5.808,2.791-10.073,5.928-12.562,8.516
										c-0.637,0.684-1.174,1.287-1.619,1.826c-0.394-2.2-1.144-4.583-2.463-7.024c-3.101-5.798-8.919-11.375-16.45-15.261
										c-3.765-1.96-7.964-3.542-12.554-4.55c-2.301-0.487-4.704-0.828-7.222-0.936c-2.578-0.146-5.043,0.162-7.545,0.392
										c-4.97,0.747-9.617,2.225-13.831,4.087c-4.173,1.939-7.917,4.23-11.225,6.68c-1.577,1.176-3.048,2.383-4.436,3.601
										c-0.43-0.364-0.851-0.728-1.293-1.1c-1.599-1.302-3.14-2.726-4.998-4.06c-3.591-2.797-7.837-5.327-12.568-7.545
										c-9.419-4.425-21.505-6.867-33.81-4.771C85.201,2.767,74.565,8.86,66.991,16.026c-7.624,7.217-12.576,15.248-15.559,22.282
										c-1.027,2.375-1.84,4.619-2.51,6.728c-0.188-0.018-0.361-0.044-0.561-0.056c-3.535-0.408-8.901-0.308-15.265,1.767
										c-6.361,2.015-13.386,6.492-19.327,13.187C7.903,66.676,3.078,75.526,1.042,85.784
										c-2.008,10.333-0.915,20.198,1.598,28.605c2.46,8.442,6.617,15.424,11.095,20.305c4.076,4.444,8.246,7.165,11.489,8.586
										c-1.557,1.654-3.103,3.392-4.585,5.314c-0.477,0.592-0.958,1.189-1.441,1.793c-0.471,0.626-0.895,1.344-1.349,2.025
										c-0.868,1.397-1.858,2.773-2.649,4.282c-0.717,1.56-1.445,3.139-2.184,4.741c-0.7,1.625-1.105,3.377-1.666,5.111
										c-1.896,7.018-2.265,14.814-0.977,22.546c1.272,7.741,4.124,15.41,8.297,22.469c8.354,14.113,21.275,24.431,34.752,29.132
										c5.697,2.003,11.42,2.976,16.804,3.201c0.377,0.78,0.854,1.801,1.552,2.97c1.796,3.035,4.791,7.363,9.774,11.659
										c4.952,4.244,11.958,8.452,20.52,10.646c8.516,2.343,18.405,2.805,28.321,1.107c15.942-2.708,28.871-11.084,36.661-20.339
										c0.249,0.501,0.517,1.035,0.825,1.64c1.923,3.046,5.054,7.763,11.108,11.425c1.521,0.816,3.105,1.868,4.897,2.458
										c0.892,0.341,1.803,0.689,2.729,1.044c0.937,0.369,1.896,0.53,2.88,0.807c0.988,0.244,1.992,0.492,3.015,0.742
										c1.019,0.158,2.053,0.313,3.103,0.475c2.092,0.365,4.317,0.514,6.621,0.63c4.606,0.104,9.61-0.373,14.658-1.957
										c5.041-1.548,10.088-4.311,14.254-8.252c3.602-3.338,6.352-7.287,8.34-11.366c0.075,0.13,0.148,0.241,0.226,0.374
										c0.831,1.273,1.876,2.57,3.004,3.975c2.393,2.676,5.481,5.474,9.382,7.946c8.074,4.68,18.105,8.025,29.93,9.896
										c11.737,1.786,25.297,1.637,38.884-2.66c6.751-2.174,13.142-5.345,18.619-9.531c5.401-4.201,9.718-8.927,13.333-13.813
										c1.71-2.289,3.208-4.638,4.542-7.002c0.708-0.137,1.531-0.303,2.487-0.506c3.371-0.714,8.23-1.884,14.111-3.935
										c5.853-2.1,12.796-5.052,19.857-9.894c3.547-2.381,7.037-5.362,10.303-8.88c3.228-3.517,6.291-7.728,8.413-12.419
										C417.084,191.789,418.172,181.594,417.111,172.984z M406.853,173.498c-0.176,7.325-1.74,15.071-5.268,22.401
										c-3.403,7.343-8.605,13.385-14.104,18.485c-5.509,5.081-11.25,9.158-16.188,12.49c-4.97,3.303-9.184,5.856-12.104,7.62
										c-0.3,0.182-0.576,0.35-0.85,0.515c1.092-2.075,2.08-4.154,2.91-6.216c1.077-2.466,1.767-5.012,2.466-7.405
										c0.318-1.21,0.499-2.445,0.74-3.62c0.239-1.176,0.438-2.33,0.486-3.493c0.083-1.145,0.165-2.261,0.245-3.351
										c0.02-1.095-0.075-2.17-0.114-3.198c0-2.062-0.451-3.984-0.787-5.756c-0.085-0.439-0.17-0.872-0.255-1.299
										c-0.109-0.42-0.273-0.823-0.405-1.221c-0.274-0.786-0.542-1.543-0.798-2.27c-0.426-1.466-1.207-2.658-1.78-3.758
										c-1.075-2.239-2.407-3.66-3.173-4.681c-0.794-0.992-1.212-1.516-1.212-1.516s0.266,0.618,0.766,1.793
										c0.478,1.176,1.368,2.799,1.86,5.123c1.33,4.477,1.89,11.302-0.334,19.035c-0.204,0.973-0.559,1.943-0.946,2.927
										c-0.383,0.981-0.695,1.998-1.143,2.999c-0.96,1.986-1.854,4.062-3.112,6.079c-2.362,4.079-5.292,8.229-8.883,12.134
										c-3.543,3.905-7.671,7.711-12.205,10.853c-4.508,3.073-9.781,5.521-15.482,7.357c-11.434,3.629-23.354,4.584-34.128,4.031
										c-5.397-0.277-10.537-0.885-15.32-1.735c-4.75-0.944-9.229-1.933-12.865-3.359c-3.713-1.521-6.877-3.405-9.518-5.331
										c-1.245-1.029-2.454-1.989-3.466-2.972c-0.403-0.434-0.806-0.834-1.197-1.231c1.875-4.595,2.904-9.219,3.336-13.596
										c0.865-9.174-0.582-17.232-2.58-23.571c-1.98-6.374-4.594-11.062-6.516-14.144c-0.969-1.543-1.79-2.686-2.375-3.442
										c-0.572-0.756-0.873-1.155-0.873-1.155s0.14,0.481,0.408,1.391c0.284,0.9,0.668,2.234,1.092,3.96
										c0.84,3.44,1.91,8.426,2.29,14.542c0.41,6.089,0.175,13.347-1.584,20.78c-1.778,7.386-5.169,14.985-11.033,20.348
										c-5.735,5.505-13.448,7.992-20.977,8.854c-1.894,0.154-3.761,0.33-5.631,0.304c-0.933,0.022-1.853,0.044-2.76,0.065
										c-0.882-0.054-1.751-0.104-2.605-0.156c-0.848-0.071-1.733-0.032-2.527-0.182c-0.808-0.127-1.601-0.251-2.378-0.373
										c-1.615-0.148-2.98-0.71-4.406-1.06c-5.56-1.713-9.506-4.872-12.212-7.11c-0.545-0.537-1.024-1.013-1.462-1.443
										c1.763-2.217,3.229-4.469,4.371-6.698c3.028-6.029,3.724-11.534,3.374-15.11c-0.015-0.445-0.03-0.865-0.042-1.259
										c-0.073-0.392-0.138-0.76-0.201-1.101c-0.128-0.669-0.238-1.236-0.329-1.694c-0.186-0.898-0.284-1.37-0.284-1.37
										s-0.083,0.479-0.238,1.392c-0.074,0.445-0.165,1-0.271,1.651c-0.052,0.321-0.106,0.667-0.167,1.037
										c-0.114,0.36-0.233,0.744-0.358,1.15c-0.766,3.264-2.849,7.657-6.554,11.94c-3.802,4.237-9.2,8.412-15.912,11.812
										c-3.31,1.764-7,3.23-10.827,4.564c-1.916,0.677-3.897,1.218-5.895,1.759c-1.001,0.229-2.01,0.458-3.026,0.693
										c-1.058,0.189-2.121,0.381-3.194,0.574c-8.564,1.456-16.838,1.768-24.244,0.822c-7.445-0.814-13.928-3.053-19.145-5.627
										c-5.211-2.604-9.112-5.596-11.709-7.822c-0.75-0.636-1.359-1.219-1.881-1.725c0.591,0.015,1.181,0.026,1.762,0.023
										c6.216-0.044,11.871-1.015,16.838-2.305c9.938-2.693,17.189-6.512,22.039-9.269c2.42-1.4,4.256-2.539,5.474-3.36
										c1.223-0.804,1.866-1.226,1.866-1.226s-0.725,0.263-2.102,0.756c-1.363,0.521-3.396,1.229-6.012,2.093
										c-5.227,1.689-12.895,3.978-22.383,5.024c-9.433,0.989-20.813,0.442-31.656-4.526
										c-10.786-4.882-21.02-13.934-28.055-25.792c-7.038-11.819-9.859-25.102-7.778-36.496c0.336-1.4,0.497-2.849,0.938-4.189
										c0.459-1.345,0.911-2.67,1.356-3.978c0.506-1.288,1.203-2.475,1.771-3.708c0.311-0.608,0.565-1.223,0.911-1.822
										c0.372-0.596,0.743-1.19,1.109-1.777c2.824-4.796,6.088-8.886,9.1-12.62c6.216-7.309,12.308-12.401,16.826-15.462
										c2.186-1.687,4.104-2.621,5.336-3.41c1.256-0.755,1.916-1.153,1.916-1.153s-0.731,0.231-2.124,0.673
										c-1.375,0.49-3.524,1.005-6.05,2.227c-5.196,2.135-12.468,6.146-20.213,12.833c-1.782,1.613-3.634,3.341-5.486,5.211
										c-2.518-2.195-5.49-5.749-8.069-10.533c-2.736-5.072-4.961-11.601-6.031-19.06c-1.133-7.398-1.267-15.796,0.33-23.922
										c1.612-8.191,4.93-15.794,8.919-21.95c4.066-6.119,8.911-10.94,13.78-13.955c4.783-3.021,9.372-4.63,12.68-5.353
										c-0.96,3.347-1.538,6.266-1.892,8.58c-0.364,2.056-0.469,3.679-0.576,4.768c-0.092,1.085-0.14,1.658-0.14,1.658
										s0.223-0.529,0.648-1.538c0.427-1.002,0.992-2.494,1.888-4.341c1.226-2.685,2.974-6.183,5.386-10.098
										c0.056-0.008,0.088-0.014,0.088-0.014s-0.033-0.008-0.07-0.014c0.922-1.494,1.932-3.042,3.059-4.637
										c4.031-5.802,9.662-12.033,16.839-17.372c7.18-5.32,16.076-9.52,25.911-11.128c9.832-1.666,19.56-0.486,28.057,2.315
										c4.243,1.411,8.266,3.053,11.867,5.01c1.833,0.894,3.597,2.021,5.314,2.95c0.106,0.059,0.208,0.117,0.313,0.176
										c-2.114,2.25-3.969,4.472-5.575,6.564c-3.645,4.807-6.093,8.984-7.634,11.937c-1.538,2.955-2.255,4.641-2.255,4.641
										s1.346-1.245,3.763-3.48c2.411-2.214,5.961-5.323,10.461-8.827c7.931-6.173,16.925-12.021,26.461-15.323
										c3.565-1.234,7.273-2.22,11.09-2.807c1.918-0.151,3.814-0.457,5.565-0.414c1.806,0,3.647,0.138,5.47,0.373
										c3.647,0.499,7.202,1.36,10.48,2.487c6.583,2.236,12.021,5.562,15.575,9.332c3.579,3.758,5.123,8.04,5.492,11.168
										c0.136,0.782,0.179,1.489,0.202,2.11c0.053,0.624,0.05,1.155,0.027,1.583c-0.021,0.869-0.029,1.329-0.029,1.329
										s0.186-0.422,0.542-1.22c0.187-0.404,0.391-0.913,0.573-1.537c0.209-0.619,0.433-1.345,0.585-2.193
										c0.399-1.676,0.584-3.943,0.258-6.535c0.678-0.428,1.539-0.905,2.555-1.452c3-1.542,7.592-3.1,13.396-4.284
										c2.986-0.595,6.038-1.07,9.313-1.217c3.276-0.06,6.719,0.198,10.221,0.939c7.015,1.438,14.201,4.962,20.691,10.183
										c6.501,5.224,11.65,11.604,15.352,18.026c1.871,3.209,3.365,6.45,4.483,9.603c1.155,3.144,1.985,6.198,2.483,9.057
										c0.778,4.476,1.127,9.25,0.688,13.994c-0.098,1.713-0.358,3.02-0.484,3.926c-0.131,0.912-0.199,1.391-0.199,1.391
										s0.239-0.419,0.693-1.216c0.441-0.806,1.164-1.985,1.83-3.621c1.053-2.347,2.227-5.655,2.951-9.809
										c0.249-0.052,0.487-0.099,0.753-0.155c3.971-0.699,9.808-1.945,16.537-1.335c1.665,0.063,3.428,0.48,5.233,0.792
										c1.88,0.422,3.907,0.722,5.861,1.252c3.938,0.939,7.984,2.358,12.085,4.062c8.11,3.627,16.275,8.948,23.179,16.391
										c3.475,3.682,6.522,7.634,9.207,11.677c1.281,2.063,2.577,4.08,3.668,6.158l0.858,1.529
										c0.269,0.501,0.466,0.968,0.702,1.449c0.486,0.926,0.86,1.97,1.273,2.966c3.123,8.198,4.393,16.602,4.95,23.548
										c0.446,6.993,0.006,12.761-0.812,16.679c-0.46,1.935-0.823,3.482-1.221,4.472c-0.347,1.023-0.531,1.562-0.531,1.562
										s0.344-0.455,0.994-1.319c0.7-0.855,1.518-2.234,2.549-4.076c1.959-3.715,4.004-9.559,5.102-17.079
										c0.209-1.634,0.375-3.356,0.502-5.135c1.118,3.097,2.485,7.269,3.679,12.275
										C405.947,159.346,407.118,166.17,406.853,173.498z"/>
								</g>
							</g>
						</g>
					</g>
				</g>
			</g>
		</g>
	</g>
</g>
</svg>
