<?xml version="1.0" encoding="utf-8"?>
<!-- Generator: Adobe Illustrator 16.0.0, SVG Export Plug-In . SVG Version: 6.00 Build 0)  -->
<!DOCTYPE svg PUBLIC "-//W3C//DTD SVG 1.1//EN" "http://www.w3.org/Graphics/SVG/1.1/DTD/svg11.dtd">
<svg version="1.1" id="Calque_1" xmlns="http://www.w3.org/2000/svg" xmlns:xlink="http://www.w3.org/1999/xlink" x="0px" y="0px"
	 width="300px" height="427px" viewBox="0 0 300 427" enable-background="new 0 0 300 427" xml:space="preserve">
<g>
	<g>
		<g>
			<path fill="#FFFFFF" d="M114.573,287.043L46.285,302.8c4.92-8.062,14.001-22.84,21.957-35.213l2.479-3.854l-64.39-9.387
				l55.634-33.062l-16.15-26.871c5.558,0.227,14.589,0.547,23.686,0.61l5.187,0.037l-33.539-57.327l61.689,32.154l-0.543-5.433
				c-1.197-11.997-1.167-25.705-1.016-33.513l16.81,15.169l2.086-64.755l46.1,59.53l2.198-3.795c2.65-4.569,5.294-9.103,7.321-12.57
				l5.166,20.089l51.212-33.834l-9.904,57.917l3.429,0.068c7.084,0.146,14.625,0.679,18.926,1.019l-6.457,22.29l54.354,9.459
				l-38.46,32.397l17.622,25.851l-30.607,4.277l16.403,48.879l-73.002-23.928l-13.235,29.132l-13.851-21.226l-35.959,37.008
				L114.573,287.043z"/>
		</g>
	</g>
	<g id="Calque_4">
		<path fill="#E2007E" d="M263.826,232.324l42.48-37.32l-60.3-9.2l6.358-23.801c0,0-12.375-0.907-23.819-0.903l9.633-64.407
			L182.96,134.86l-6.71-23.988c0,0-5.516,9.871-11.053,19.895l-52.116-64.466l-0.791,69.818l-17.965-15.542
			c0,0-0.551,23.019,1.767,42.177l-69.829-34.557l39.171,63.846c-15.422,0.213-30.475-0.261-30.475-0.261l18.923,30.052
			l-62.335,38.84l71.568,8.898c-11.863,19.325-25.953,43.79-25.953,43.79l75.065-18.979l8.687,51.833l38.512-41.323l15.969,23.393
			l14.355-33.44L270,319.309l-19.081-53.152l33.211-5.352L263.826,232.324z M265.009,314.553l-77.014-23.474l-13.226,30.818
			l-14.975-21.939l-36.872,39.562l-8.207-48.96l-71.204,18.009c4.977-8.557,14.167-24.238,22.235-37.379l2.509-4.097l-67.671-8.414
			l57.569-35.866l-17.509-27.8c5.829,0.116,15.298,0.251,24.829,0.116l5.434-0.074l-36.399-59.331l65.342,32.335l-0.688-5.678
			c-1.517-12.545-1.786-26.907-1.8-35.094l17.946,15.526l0.767-67.895l49.609,61.363l2.218-4.023
			c2.678-4.845,5.35-9.655,7.395-13.331l5.854,20.938l52.917-36.576l-9.105,60.901l3.592-0.002
			c7.431-0.004,15.345,0.389,19.852,0.653l-6.275,23.493l57.156,8.724l-39.587,34.786l19.028,26.698l-31.973,5.157L265.009,314.553z
			"/>
	</g>
</g>
</svg>
