<?xml version="1.0" encoding="utf-8"?>
<!-- Generator: Adobe Illustrator 16.0.0, SVG Export Plug-In . SVG Version: 6.00 Build 0)  -->
<!DOCTYPE svg PUBLIC "-//W3C//DTD SVG 1.1//EN" "http://www.w3.org/Graphics/SVG/1.1/DTD/svg11.dtd">
<svg version="1.1" id="Calque_1" xmlns="http://www.w3.org/2000/svg" xmlns:xlink="http://www.w3.org/1999/xlink" x="0px" y="0px"
	 width="300px" height="427px" viewBox="0 0 300 427" enable-background="new 0 0 300 427" xml:space="preserve">
<path fill="#FFE600" d="M260.229,317.752l-74.729-22.776l-12.836,29.904l-14.53-21.291l-35.776,38.393l-7.967-47.51l-69.093,17.474
	c4.832-8.305,13.747-23.519,21.579-36.271l2.435-3.972l-65.665-8.169l55.86-34.801l-16.991-26.977
	c5.653,0.113,14.846,0.244,24.094,0.113l5.274-0.071l-35.321-57.572l63.404,31.377l-0.667-5.51
	c-1.474-12.173-1.735-26.109-1.749-34.053l17.416,15.064l0.745-65.882l48.138,59.544l2.152-3.905
	c2.599-4.702,5.189-9.368,7.174-12.936l5.68,20.318l51.35-35.493l-8.836,59.097l3.483-0.002c7.212-0.005,14.891,0.377,19.265,0.633
	l-6.087,22.797l55.461,8.464l-38.414,33.755l18.463,25.905l-31.025,5.003L260.229,317.752z"/>
</svg>
