<?xml version="1.0" encoding="utf-8"?>
<!-- Generator: Adobe Illustrator 16.0.0, SVG Export Plug-In . SVG Version: 6.00 Build 0)  -->
<!DOCTYPE svg PUBLIC "-//W3C//DTD SVG 1.1//EN" "http://www.w3.org/Graphics/SVG/1.1/DTD/svg11.dtd">
<svg version="1.1" id="Calque_4_1_" xmlns="http://www.w3.org/2000/svg" xmlns:xlink="http://www.w3.org/1999/xlink" x="0px"
	 y="0px" width="300px" height="300px" viewBox="0 0 300 300" enable-background="new 0 0 300 300" xml:space="preserve">
<polygon fill="#FFFFFF" points="128.772,45.741 110.237,83.819 89.827,74.536 78.117,98.736 20.53,86.668 30.07,102.989 
	16.589,104.274 32.458,130.68 16.188,141.476 36.91,160.302 15.623,193.939 38.903,196.575 39.165,216.612 60.217,210.637 
	62.619,219.217 99.844,207.249 101.253,253.532 127.004,209.927 159.666,233.174 182.561,189.06 216.925,231.405 214.562,185.112 
	262.692,189.446 250.666,154.495 273.631,148.245 250.487,126.828 283.218,99.515 237.533,89.483 237.993,46.918 190.477,74.189 
	182.107,54.065 158.992,74.327 "/>
<polygon fill="#D20A11" points="130.292,54.32 112.824,89.853 93.048,81.442 82.015,104.025 26.371,93.407 35.74,108.46 
	22.756,109.791 38.334,134.14 22.762,144.325 42.938,161.589 22.771,193.028 45.241,195.238 45.703,213.834 65.938,208.075 
	68.344,216.015 104.105,204.525 105.95,247.474 130.317,206.737 162.05,227.982 183.656,186.804 217.232,225.761 214.469,182.814 
	260.914,186.349 248.951,154.03 271.023,147.996 248.486,128.35 279.755,102.666 235.607,93.817 235.6,54.304 190.078,80.1 
	181.797,61.504 159.728,80.546 "/>
<polygon fill="none" stroke="#1D1D1B" stroke-width="4" stroke-linejoin="round" stroke-miterlimit="10" points="128.772,45.741 
	110.237,83.819 89.827,74.536 78.117,98.736 20.53,86.668 30.07,102.989 16.589,104.274 32.458,130.68 16.188,141.476 
	36.91,160.302 15.623,193.939 38.903,196.575 39.165,216.612 60.217,210.637 62.619,219.217 99.844,207.249 101.253,253.532 
	127.004,209.927 159.666,233.174 182.561,189.06 216.925,231.405 214.562,185.112 262.692,189.446 250.666,154.495 273.631,148.245 
	250.487,126.828 283.218,99.515 237.533,89.483 237.993,46.918 190.477,74.189 182.107,54.065 158.992,74.327 "/>
</svg>
