<?xml version="1.0" encoding="utf-8"?>
<!-- Generator: Adobe Illustrator 18.1.1, SVG Export Plug-In . SVG Version: 6.00 Build 0)  -->
<svg version="1.1" id="Calque_1" xmlns="http://www.w3.org/2000/svg" xmlns:xlink="http://www.w3.org/1999/xlink" x="0px" y="0px"
	 viewBox="98 -97.7 1195.7 1195.7" enable-background="new 98 -97.7 1195.7 1195.7" xml:space="preserve">
<g>
	<polygon fill="#E30613" points="546.4,-57.7 695.9,500.1 695.9,-97.7 	"/>
	<polygon fill="#EF7D29" points="695.9,-77.4 695.9,500.1 850.6,-77.4 	"/>
	<polygon fill="#B3201F" points="845.3,-57.7 695.9,500.1 994.8,-17.6 	"/>
	<polygon fill="#E30613" points="984.6,0 695.9,500.1 1118.6,77.4 	"/>
	<polygon fill="#EF7D29" points="1104.2,91.8 695.9,500.1 1213.6,201.2 	"/>
	<polygon fill="#B3201F" points="1196,211.4 695.9,500.1 1273.4,345.4 	"/>
	<polygon fill="#E30613" points="1253.7,350.7 695.9,500.1 1293.7,500.1 	"/>
	<polygon fill="#EF7D29" points="1273.4,500.1 695.9,500.1 1273.4,654.9 	"/>
	<polygon fill="#B3201F" points="1253.7,649.6 695.9,500.1 1213.6,799.1 	"/>
	<polygon fill="#E30613" points="1196,788.9 695.9,500.1 1118.6,922.9 	"/>
	<polygon fill="#EF7D29" points="1104.2,908.5 695.9,500.1 994.8,1017.9 	"/>
	<polygon fill="#B3201F" points="984.6,1000.3 695.9,500.1 850.6,1077.6 	"/>
	<polygon fill="#E30613" points="845.3,1058 695.9,500.1 695.9,1098 	"/>
	<polygon fill="#EF7D29" points="695.9,1077.6 695.9,500.1 541.1,1077.6 	"/>
	<polygon fill="#B3201F" points="546.4,1058 695.9,500.1 396.9,1017.9 	"/>
	<polygon fill="#E30613" points="407.1,1000.3 695.9,500.1 273.1,922.9 	"/>
	<polygon fill="#EF7D29" points="287.5,908.5 695.9,500.1 178.1,799.1 	"/>
	<polygon fill="#B3201F" points="195.7,788.9 695.9,500.1 118.4,654.9 	"/>
	<polygon fill="#E30613" points="138,649.6 695.9,500.1 98,500.1 	"/>
	<polygon fill="#EF7D29" points="118.4,500.1 695.9,500.1 118.4,345.4 	"/>
	<polygon fill="#B3201F" points="138,350.7 695.9,500.1 178.1,201.2 	"/>
	<polygon fill="#E30613" points="195.7,211.4 695.9,500.1 273.1,77.4 	"/>
	<polygon fill="#EF7D29" points="287.5,91.8 695.9,500.1 396.9,-17.6 	"/>
	<polygon fill="#B3201F" points="407.1,0 695.9,500.1 541.1,-77.4 	"/>
</g>
</svg>
