<?xml version="1.0" encoding="utf-8"?>
<!-- Generator: Adobe Illustrator 16.0.0, SVG Export Plug-In . SVG Version: 6.00 Build 0)  -->
<!DOCTYPE svg PUBLIC "-//W3C//DTD SVG 1.1//EN" "http://www.w3.org/Graphics/SVG/1.1/DTD/svg11.dtd">
<svg version="1.1" id="Calque_1" xmlns="http://www.w3.org/2000/svg" xmlns:xlink="http://www.w3.org/1999/xlink" x="0px" y="0px"
	 width="136.512px" height="176.57px" viewBox="0 0 136.512 176.57" enable-background="new 0 0 136.512 176.57"
	 xml:space="preserve">
<g>
	<defs>
		<rect id="SVGID_1_" width="136.512" height="176.57"/>
	</defs>
	<clipPath id="SVGID_2_">
		<use xlink:href="#SVGID_1_"  overflow="visible"/>
	</clipPath>
	<g clip-path="url(#SVGID_2_)">
		<defs>
			<rect id="SVGID_3_" width="136.512" height="176.57"/>
		</defs>
		<clipPath id="SVGID_4_">
			<use xlink:href="#SVGID_3_"  overflow="visible"/>
		</clipPath>
		<g clip-path="url(#SVGID_4_)">
			<g>
				<defs>
					<rect id="SVGID_5_" x="-9" y="-8" width="154.512" height="185.57"/>
				</defs>
				<clipPath id="SVGID_6_">
					<use xlink:href="#SVGID_5_"  overflow="visible"/>
				</clipPath>
				<path clip-path="url(#SVGID_6_)" fill="#00B6ED" d="M0,147.902v28.666c75.395,0,136.512-61.117,136.512-136.511
					c0-13.939-2.101-27.388-5.983-40.056h-30.401c4.961,12.388,7.719,25.896,7.719,40.056C107.846,99.619,59.561,147.902,0,147.902"
					/>
			</g>
		</g>
		<g clip-path="url(#SVGID_4_)">
			<g>
				<defs>
					<rect id="SVGID_7_" x="-9" y="-8" width="94.613" height="125.671"/>
				</defs>
				<clipPath id="SVGID_8_">
					<use xlink:href="#SVGID_7_"  overflow="visible"/>
				</clipPath>
				<path clip-path="url(#SVGID_8_)" fill="#00B6ED" d="M0,86.888L0,86.888v29.781c42.312,0,76.613-34.3,76.613-76.612
					c0-14.686-4.139-28.4-11.304-40.057H24.273C37.796,8.213,46.831,23.08,46.831,40.058C46.831,65.921,25.864,86.888,0,86.888"/>
			</g>
		</g>
		<g clip-path="url(#SVGID_4_)">
			<g>
				<defs>
					<rect id="SVGID_9_" x="-9" y="14.5" width="35.557" height="44.114"/>
				</defs>
				<clipPath id="SVGID_10_">
					<use xlink:href="#SVGID_9_"  overflow="visible"/>
				</clipPath>
				<path clip-path="url(#SVGID_10_)" fill="#00B6ED" d="M0,22.5c9.697,0,17.557,7.861,17.557,17.558S9.697,57.614,0,57.614V22.5z"
					/>
			</g>
		</g>
	</g>
</g>
</svg>
