<?xml version="1.0" encoding="utf-8"?>
<!-- Generator: Adobe Illustrator 18.1.1, SVG Export Plug-In . SVG Version: 6.00 Build 0)  -->
<svg version="1.1" id="Calque_1" xmlns="http://www.w3.org/2000/svg" xmlns:xlink="http://www.w3.org/1999/xlink" x="0px" y="0px"
	 viewBox="0 0 1000 1000" enable-background="new 0 0 1000 1000" xml:space="preserve">
<g>
	<path d="M810.4,526.5c-10.1-8-23.6-12-40.1-12c0,0,0,0,0,0c-3.4,0-7,0.2-10.7,0.5c-9.7,0.9-18.2,3.5-25.2,7.6
		c-2.6,1.6-5.1,3.2-7.3,5c4.1-34.5,9.3-76.4,15.5-125.2c4.9-37.8,10.9-73.9,18.1-107c0.8-3.7-0.4-7.5-3.2-10c-2-1.8-4.5-2.7-7-2.7
		c-1.1,0-2.2,0.2-3.3,0.5c-9.2,3-25.4,7.5-48,13.3c-8.7,2.2-18,4.6-27.6,7.2c-4.2,1.1-7.3,4.8-7.7,9.1l-8.3,86.1
		c0-1.3-0.1-2.6-0.1-3.9c-0.5-13.3-0.9-25.9-1.2-37.3c-0.3-11.8-0.5-21.4-0.8-29.2c-0.3-9.8-0.2-13.3-0.1-14.5
		c0.4-3.6-1.1-7.1-4-9.3c-1.9-1.5-4.2-2.2-6.5-2.2c-1.2,0-2.4,0.2-3.5,0.6c-14.9,5.3-29,8.8-42.1,10.3l-3.8,0.5
		c-4.6,0.6-8.3,4-9.1,8.6c-2,11.3-4.6,28.1-7.6,49.8c-0.9,5.1-2.1,12.4-3.7,21.8c2.7-72,2.7-72.5,2.6-73.4c-0.4-2.9-1.9-5.5-4.2-7.2
		c-1.8-1.3-4-2-6.2-2c-0.7,0-1.3,0.1-2,0.2c-11.9,2.3-23.9,5.3-35.7,8.9c-11.1,3.4-23.1,6.1-35.9,8.2c-5.1,0.8-8.9,5.3-8.8,10.5
		l0.4,28.3c-3.3-5.5-6.9-10.3-10.6-14.4c-14-15.1-31.1-22.7-50.8-22.7c0,0,0,0,0,0c-6.3,0-13,0.8-19.8,2.4
		c-32.3,7.5-59.9,29.5-82,65.4c-8.6,14.1-15.9,29.3-22.1,45.6c-7.7-13.1-16.7-23-26.9-29.7c0,0-0.1-0.1-0.1-0.1
		c-9.5-6-20.3-9.7-32.1-11c-2.1-0.2-4.2-0.3-6.4-0.3c0,0,0,0,0,0c-10.4,0-22.7,2.6-36.5,7.6c-16.3,6-37.9,19.1-66.1,40.1
		c-3.3,2.4-4.8,6.5-4,10.5c15,74.3,31.8,182.4,49.8,321.1c0.5,3.5,2.7,6.6,5.9,8.1c1.4,0.7,3,1,4.6,1c1.9,0,3.8-0.5,5.5-1.5
		l68.1-41.3c3.8-2.3,5.7-6.8,4.8-11.1c-7.9-38.3-13.6-69.8-17-93.7c12.4-5.1,23.5-12.7,33.3-22.7c0.5,2.6,1,5.1,1.6,7.6
		c7.6,32.7,20.7,56.6,39.1,71.1c12.6,9.9,26.9,15,42.6,15c6,0,12.3-0.8,18.7-2.2c26-6,50.7-23.3,73.2-51.4
		c10.6-13.3,20.3-28.9,28.8-46.5c0.6-1.3,1.2-2.6,1.8-4l0.5,35.8c0,3.3,1.6,6.4,4.3,8.3c1.8,1.3,4,2,6.2,2c1,0,2.1-0.2,3.1-0.5
		l86.8-26.6c3.9-1.2,6.7-4.5,7.3-8.5l8.6-58.8l0.5,63.9c0,3.3,1.6,6.4,4.2,8.4c1.8,1.4,4,2.1,6.3,2.1c1,0,2-0.1,3-0.4l94.3-27.9
		c1.5-0.5,2.9-1.3,4.1-2.3c2.1,3.3,4.6,6.5,7.4,9.4c0.1,0.1,0.2,0.2,0.2,0.2c4.8,4.7,10.8,8.5,17.7,11.2c5.3,2.1,11.5,3.1,18.5,3.1
		c2.4,0,4.8-0.1,7.4-0.4c20.1-1.9,36.6-9.6,49-22.9c11.6-12.7,16.6-27.4,15.1-43.9C829.7,548.4,822.8,536.2,810.4,526.5z
		 M433.5,514.4c-0.1,15.2-2,30-5.6,44c-3.5,13.6-9.1,25.9-16.5,36.3c-6.7,9.4-15.2,15.3-26.1,17.8c-0.7,0.2-1.4,0.2-2,0.2
		c-0.8,0-1.6-0.2-2.4-0.5c-0.3-0.1-0.5-0.2-0.8-0.3c-7.7-2.4-11.9-7-13.8-15c-3.8-16.3-4.8-34.7-3.1-54.7
		c2.4-24.5,7.4-44.7,14.9-60.1c8.8-17.9,20.2-28.2,34.8-31.6c0.9-0.2,1.7-0.3,2.4-0.3c7.9,0,12.6,16.6,14.3,23.7
		C432.3,485.6,433.6,499.2,433.5,514.4z M222,486.6c4.3,2.4,8,7.7,10.9,15.7c6.1,16.8,7.5,33.6,4,49.9c-0.7,3.4-1.6,6.6-2.6,9.4
		c-3.8-22.7-8.1-47.6-12.9-75.3C221.7,486.4,221.9,486.5,222,486.6z"/>
	<path d="M883.5,227.1c-2-2.1-4.7-3.2-7.6-3.2c-1,0-1.9,0.1-2.9,0.4c-4.7,1.3-10.7,2.8-17.9,4.4c-7.3,1.6-15.1,3.5-23.3,5.5
		c-7.8,2-15.7,3.9-23.5,5.7c-8.4,2-15.2,3.6-20.9,5c-4,1-7.1,4.4-7.8,8.5c-6.7,40.4-13,81.1-18.7,121c-5.7,39.5-11.8,80-18.2,120.1
		c-0.5,3.3,0.6,6.7,2.9,9.1c2,2,4.7,3.1,7.4,3.1c0.6,0,1.1,0,1.7-0.1l1.7-0.3c8.8-1.4,17.5-2.8,26.2-4.2c8.9-1.4,18.1-2.6,27.2-3.4
		c4.5-0.4,8.2-3.6,9.2-8c10.4-43.3,20.9-86.2,31.1-127.4c10.4-41.8,22.4-84.1,35.8-125.8C887.1,233.9,886.2,229.9,883.5,227.1z"/>
</g>
<g>
	<path fill="#E6332A" d="M166,762.7c-18-138.9-34.8-247.2-49.9-321.7l-0.3-1.2l1-0.8c27.1-20.2,48.6-33.3,63.9-38.9
		c12.8-4.7,24.1-7.1,33.6-7.1c1.9,0,3.8,0.1,5.5,0.3c10.5,1.1,20.1,4.4,28.5,9.7c14.7,9.7,26.8,27.2,35.9,52.1
		c5.8,15.9,8.6,32.6,8.1,49.7c-0.4,17-3.4,33.4-8.9,48.5c-5.5,15.2-13.6,28.7-24,40.3c-10.4,11.6-22.7,20-36.5,25.1l-3.1,1.1
		c3.3,24.9,9.3,58.8,18.1,101l0.3,1.4l-71.9,43.6L166,762.7z M193,458.2c7.3,41.8,13.4,77.4,18.6,108.6c7.2-6.2,12.5-16.6,15.6-31
		c3.8-17.9,2.4-36.3-4.3-54.6c-3.6-10-8.6-16.8-14.8-20.2c-4-2.2-7.8-3.3-11.2-3.3C195.5,457.8,194.2,457.9,193,458.2z"/>
	<path d="M214.3,395c1.8,0,3.6,0.1,5.3,0.3c10.3,1.1,19.5,4.2,27.6,9.4c14.4,9.5,26.1,26.5,35.1,51.1c5.8,15.7,8.4,32.1,8,49
		c-0.4,16.9-3.3,32.9-8.8,47.9c-5.5,15-13.3,28.2-23.6,39.6c-10.2,11.4-22.1,19.6-35.7,24.5l-4.6,1.7c3.2,25.1,9.3,59.4,18.3,102.8
		L168,762.5c-18.1-139.6-34.8-246.9-49.9-321.9c27.1-20.2,48.2-33.1,63.4-38.7C194.1,397.3,205.1,395,214.3,395 M210.1,570.5
		c9-6.1,15.4-17.5,19-34.2c3.9-18.3,2.5-36.9-4.4-55.7c-3.8-10.5-9.1-17.6-15.8-21.3c-4.3-2.4-8.4-3.6-12.2-3.6
		c-2.1,0-4.1,0.4-6.1,1.1C198.1,499.5,204.6,537.4,210.1,570.5 M214.3,391v4V391L214.3,391c-9.7,0-21.2,2.4-34.3,7.2
		c-15.5,5.7-37.2,18.9-64.4,39.2l-2,1.5l0.5,2.5C129.2,515.9,146,624.1,164,763l0.8,6.1l5.3-3.2l68.1-41.3l2.4-1.5l-0.6-2.8
		c-8.5-41.3-14.5-74.6-17.8-99.3l1.5-0.6c14.1-5.2,26.6-13.8,37.3-25.6c10.5-11.7,18.7-25.5,24.4-40.9c5.6-15.3,8.7-31.9,9.1-49.1
		c0.4-17.3-2.4-34.3-8.3-50.4c-9.2-25.3-21.6-43.1-36.7-53l0,0l0,0c-8.6-5.5-18.5-8.8-29.3-10C218.2,391.1,216.3,391,214.3,391
		L214.3,391z M195.3,459.8c0.5-0.1,1-0.1,1.5-0.1c3.1,0,6.6,1,10.3,3.1c5.8,3.2,10.4,9.6,13.9,19.1c6.6,18,8,36,4.2,53.5
		c-2.6,12.1-6.8,21.3-12.3,27.3C207.9,532.9,202.1,499.1,195.3,459.8L195.3,459.8z"/>
</g>
<g>
	<path fill="#E6332A" d="M345.9,687.8c-13.8,0-26.3-4.4-37.4-13.2c-16.8-13.2-28.9-35.5-36-66.3c-7.7-33.2-8.3-71.3-1.8-113.2
		c6.5-42,19.5-79.1,38.6-110.6c20.9-33.9,46.7-54.6,76.7-61.5c6.2-1.4,12.2-2.2,17.8-2.2c17.2,0,32.2,6.7,44.5,19.9
		c12.9,14.1,23.3,37.8,30.9,70.5c4.1,17.7,6.2,38.3,6.1,61c-0.1,22.7-2.4,44.4-7,64.4c-4.5,20.1-11,38.8-19.2,55.8
		c-8.2,17-17.5,32-27.8,44.8c-21.3,26.6-44.4,42.9-68.5,48.5C357,687.1,351.3,687.8,345.9,687.8z M397.2,423.6
		c-1.4,0-2.8,0.2-4.3,0.5c-17,3.9-30.6,16.1-40.5,36.2c-7.9,16.3-13.2,37.5-15.7,63.1c-1.8,20.9-0.7,40.2,3.3,57.3
		c2.5,11,8.9,17.9,19.5,21.2l0.1,0l0.1,0c1.8,0.7,3.7,1.1,5.6,1.1c1.3,0,2.6-0.2,3.9-0.5c12.8-3,23.3-10.1,31.1-21.2
		c8-11.3,14-24.4,17.8-39.1c3.8-14.7,5.8-30.2,5.9-46.1c0.1-15.9-1.3-30.1-4.2-42.4C415.1,433.8,407.5,423.6,397.2,423.6z"/>
	<path d="M403.8,322.8c16.7,0,31.1,6.4,43,19.3c12.7,13.9,22.8,37.1,30.4,69.6c4.1,17.7,6.1,37.9,6,60.5c-0.1,22.7-2.4,44-6.9,64
		c-4.5,20-10.9,38.5-19,55.3c-8.2,16.9-17.3,31.7-27.5,44.5c-21.1,26.3-43.6,42.2-67.4,47.8c-5.7,1.3-11.1,2-16.4,2
		c-13.4,0-25.4-4.2-36.1-12.7c-16.5-13-28.2-34.7-35.3-65.2c-7.7-33.1-8.3-70.6-1.8-112.5c6.5-41.9,19.2-78.5,38.3-109.8
		c20.7-33.5,45.8-53.8,75.4-60.6C392.4,323.5,398.2,322.8,403.8,322.8 M365.3,605.1c1.4,0,2.9-0.2,4.4-0.5
		c13.3-3.1,24.1-10.4,32.3-21.9c8.2-11.5,14.2-24.8,18.1-39.8c3.9-15,5.8-30.5,5.9-46.6c0.1-16.1-1.3-30.4-4.2-42.8
		c-4.9-21.2-13.1-31.9-24.5-31.9c-1.5,0-3.1,0.2-4.8,0.6c-17.7,4.1-31.7,16.5-41.8,37.2c-8.1,16.6-13.4,37.8-15.9,63.8
		c-1.8,21.2-0.7,40.5,3.4,58c2.7,11.6,9.6,19.2,20.9,22.7C360.9,604.7,363.1,605.1,365.3,605.1 M403.8,318.8v4V318.8L403.8,318.8
		c-5.8,0-12,0.7-18.3,2.2c-30.5,7.1-56.7,28.1-77.9,62.4c-19.2,31.7-32.3,69.1-38.8,111.3c-6.5,42.2-5.9,80.5,1.8,114
		c7.3,31.3,19.6,53.9,36.7,67.5c11.4,9,24.4,13.6,38.6,13.6c5.5,0,11.3-0.7,17.3-2.1c24.6-5.7,48-22.2,69.6-49.1
		c10.3-12.9,19.7-28.1,28-45.2c8.3-17.1,14.8-36,19.3-56.2c4.6-20.2,6.9-42,7-64.9c0.1-22.9-2-43.6-6.1-61.5
		c-7.7-33-18.2-57-31.3-71.4C437.1,325.7,421.6,318.8,403.8,318.8L403.8,318.8z M365.3,601.1c-1.7,0-3.3-0.3-4.9-0.9l-0.1-0.1
		l-0.2,0c-9.9-3.1-15.8-9.6-18.2-19.8c-3.9-16.9-5-36-3.3-56.7c2.5-25.3,7.7-46.3,15.5-62.4c9.6-19.5,22.7-31.3,39.1-35.1
		c1.3-0.3,2.6-0.5,3.9-0.5c9.3,0,16.2,9.7,20.6,28.8c2.8,12.1,4.2,26.2,4.1,41.9c-0.1,15.7-2.1,31-5.8,45.6
		c-3.7,14.4-9.6,27.3-17.5,38.4c-7.7,10.8-17.5,17.5-29.9,20.4C367.5,600.9,366.4,601.1,365.3,601.1L365.3,601.1z"/>
</g>
<g>
	<path fill="#E6332A" d="M473.3,319.3l1.7-0.3c13.1-2.1,25.6-5,37-8.5c11.6-3.5,23.3-6.4,34.9-8.7l2.1-0.4l0.3,2.1
		c0,0.4,0.1,1-7.1,189.9l2.8-0.3c4.4-29.7,8.8-57.8,13.1-83.6c4.4-26.3,7.4-44.4,9.1-54.2c3-21.6,5.5-38.3,7.5-49.6l0.3-1.5l5.2-0.6
		c13.7-1.7,28.5-5.3,43.9-10.8l3-1.1l-0.3,3.1c-0.2,2.5-0.2,7.7,0,15.6c0.3,7.8,0.5,17.3,0.8,29.1c0.2,11.5,0.6,24.1,1.2,37.5
		c0.5,13.6,1,27,1.5,40.2c0.9,22.9,1.5,44.9,1.8,65.2l4.1-0.5l18.2-188l1.3-0.4c9.5-2.6,18.8-5,27.5-7.1
		c22.8-5.8,39.1-10.4,48.5-13.5l3.3-1.1l-0.7,3.4c-7.2,33.4-13.3,69.7-18.2,107.7c-11.5,89.9-19.4,156.1-23.5,196.9l-0.1,1.3
		l-98.1,29l-1.2-167.3l-1.7,0.2l-23.3,159.4l-90.6,27.7L473.3,319.3z"/>
	<path d="M732.3,275.1c-7.2,33.6-13.3,69.5-18.2,107.9c-11.6,90.5-19.4,156.1-23.5,196.9l-94.3,27.9l-1.2-166.9l-5.4,0.7
		l-23.4,159.7l-86.8,26.6L475.3,321c13.3-2.2,25.7-5,37.2-8.5c11.6-3.5,23.1-6.4,34.7-8.6c0.1,0.6-2.3,64.5-7.2,192l6.7-0.8
		c4.5-30.4,8.9-58.8,13.4-85.1c4.4-26.3,7.4-44.4,9.1-54.2c3-21.8,5.5-38.3,7.5-49.5l3.8-0.5c13.9-1.7,28.7-5.3,44.3-10.9
		c-0.3,2.6-0.3,7.9,0,15.9c0.3,8,0.5,17.7,0.8,29.1c0.2,11.4,0.6,23.9,1.2,37.5c0.5,13.6,1,27,1.5,40.2c0.9,23.8,1.5,46.3,1.8,67.4
		l7.9-1l18.2-188.2c9.6-2.6,18.7-4.9,27.5-7.1C706.6,282.7,722.8,278.2,732.3,275.1 M737.7,269.1l-6.6,2.2
		c-9.4,3.1-25.7,7.6-48.4,13.4c-8.7,2.2-18,4.6-27.5,7.1l-2.7,0.7l-0.3,2.8l-17.9,185l-0.3,0c-0.3-19.8-0.9-41-1.8-63.1
		c-0.6-15.3-1-28-1.5-40.2c-0.5-13.4-0.9-25.9-1.2-37.4c-0.3-11.8-0.5-21.3-0.8-29.1c-0.3-9.7-0.2-13.7,0-15.3l0.6-6.3l-5.9,2.1
		c-15.3,5.4-30,9-43.5,10.7l-3.8,0.5l-2.9,0.4l-0.5,2.9c-2,11.3-4.6,28-7.5,49.6c-1.6,9.8-4.7,27.8-9.1,54.1
		c-3.8,22.7-7.7,47.3-11.6,73c6.8-177.8,6.7-178.3,6.6-178.9l-0.5-4.3l-4.2,0.8c-11.7,2.3-23.5,5.2-35.1,8.7
		c-11.3,3.4-23.7,6.3-36.7,8.4l-3.4,0.6l0,3.4l4.2,306.9l0.1,5.3l5.1-1.6l86.8-26.6l2.4-0.7l0.4-2.5l20.9-143.2l1.1,149.1l0,5.3
		l5.1-1.5l94.3-27.9l2.6-0.8l0.3-2.7c4.1-40.7,12-106.9,23.5-196.8c4.9-38,11-74.2,18.2-107.6L737.7,269.1L737.7,269.1z"/>
</g>
<g>
	<g>
		<path fill="#E6332A" d="M741.4,603.1c-5.9,0-11-0.8-15.4-2.5c-5.8-2.3-10.8-5.4-14.8-9.3c-8.4-8.8-13.2-19.4-14.3-31.8
			c-2-21.1,6-37.2,23.8-47.7c5.9-3.5,13.2-5.7,21.6-6.5c3.4-0.3,6.8-0.5,9.9-0.5c14.5,0,26.2,3.4,34.8,10.2
			c10.5,8.2,16.3,18.4,17.4,30.2c1.3,14-3,26.6-12.9,37.3c-11,11.8-25.6,18.6-43.6,20.2C745.7,603,743.5,603.1,741.4,603.1z
			 M733,477.8c6.4-40.2,12.6-80.7,18.3-120.3c5.8-39.9,12-80.6,18.7-120.9l0.2-1.3l1.3-0.3c5.6-1.4,12.3-3.1,20.7-5
			c7.8-1.8,15.8-3.8,23.6-5.7c8.1-2,15.8-3.9,23-5.5c7.4-1.6,13.6-3.1,18.4-4.5l3.6-1l-1.1,3.6c-13.4,41.8-25.5,84.3-35.9,126.3
			c-10.2,41.2-20.7,84.1-31.1,127.4l-0.3,1.4l-1.4,0.1c-9.3,0.9-18.7,2-27.8,3.5c-8.7,1.4-17.4,2.8-26.3,4.2l-4.3,0.7L733,477.8z"/>
		<path d="M857.8,216.3c-13.5,42.1-25.5,84.2-36,126.5c-10.5,42.2-20.8,84.7-31.1,127.4c-9.4,0.9-18.7,2.1-27.9,3.5
			c-9.2,1.5-18.5,3-27.8,4.5c6.4-40.1,12.5-80.2,18.3-120.3c5.8-40.1,12-80.3,18.7-120.8c5.9-1.5,12.8-3.2,20.6-5
			c7.9-1.8,15.8-3.8,23.7-5.8c7.9-2,15.5-3.8,23-5.5C846.7,219.2,852.9,217.7,857.8,216.3 M752.2,506.9c14.1,0,25.3,3.3,33.6,9.7
			c10.1,7.9,15.6,17.5,16.7,28.8c1.3,13.5-2.9,25.4-12.3,35.8c-10.6,11.4-24.7,18-42.3,19.6c-2.2,0.2-4.4,0.3-6.4,0.3
			c-5.7,0-10.5-0.8-14.6-2.4c-5.6-2.2-10.3-5.1-14.1-8.9c-8.1-8.4-12.6-18.6-13.7-30.5c-1.9-20.4,5.7-35.6,22.8-45.8
			c5.7-3.4,12.6-5.4,20.8-6.2C745.8,507,749.1,506.9,752.2,506.9 M863.9,210.4l-7.2,2c-4.8,1.4-11,2.9-18.3,4.5
			c-7.2,1.6-15,3.4-23.1,5.5c-7.8,2-15.8,3.9-23.6,5.7c-8.4,2-15.2,3.6-20.7,5l-2.5,0.6l-0.4,2.6c-6.7,40.3-13,81-18.7,120.9
			c-5.7,39.6-11.8,80-18.3,120.2l-0.9,5.5l5.5-0.9l1.6-0.3c8.8-1.4,17.5-2.8,26.2-4.2c9.1-1.5,18.3-2.6,27.6-3.5l2.9-0.3l0.7-2.8
			c10.4-43.3,20.9-86.2,31.1-127.4c10.4-42,22.5-84.4,35.9-126.2L863.9,210.4L863.9,210.4z M752.2,502.9L752.2,502.9
			c-3.2,0-6.6,0.2-10.1,0.5c-8.7,0.8-16.3,3.1-22.4,6.7c-18.5,10.9-26.8,27.6-24.7,49.6c1.2,12.8,6.2,23.9,14.8,32.9l0,0l0,0
			c4.2,4.1,9.4,7.4,15.5,9.8c4.5,1.8,10,2.7,16.1,2.7c2.2,0,4.4-0.1,6.8-0.3c18.5-1.7,33.6-8.7,44.9-20.8
			c10.3-11.2,14.7-24.3,13.4-38.9c-1.1-12.4-7.3-23-18.2-31.6C779.3,506.4,767.2,502.9,752.2,502.9L752.2,502.9z"/>
	</g>
</g>
<g>
	<path fill="none" d="M224.7,480.6c-3.8-10.5-9.1-17.6-15.8-21.3c-1.9-1-3.8-1.8-5.6-2.4c-3.1-1-6-1.3-8.8-1
		c-1.3,0.2-2.6,0.5-3.9,0.9c3.2,18.2,6.2,35.5,9,51.9c0.7,4.1,1.4,8.2,2.1,12.2c3,17.6,5.8,34.1,8.4,49.6
		c6.5-4.4,11.5-11.5,15.2-21.3c1-2.5,1.8-5.2,2.6-8.1c0.4-1.6,0.8-3.1,1.2-4.8c3.4-15.7,2.8-31.6-1.8-47.7c-0.7-2.3-1.4-4.7-2.2-7
		C224.9,481.2,224.9,480.9,224.7,480.6z"/>
	<path fill="none" d="M289.8,488.1c-1.2-1.1-2-2.8-2-4.6c0-1.2,0.4-2.4,1-3.4c-1.3-8.3-3.5-16.4-6.4-24.4
		c-9-24.6-20.7-41.6-35.1-51.1c-8.2-5.2-17.4-8.3-27.6-9.4c-10.3-1.1-23,1.1-38.2,6.7c-15.2,5.6-36.3,18.4-63.4,38.7
		c4.3,21.1,8.6,44.7,13.1,70.9c1.1-1.7,3.1-2.8,5.2-2.8c3.5,0,6.3,2.8,6.3,6.3c0,3.5-2.8,6.3-6.3,6.3c-1.4,0-2.7-0.5-3.8-1.3
		c2.9,17,5.8,35.1,8.8,54.2c0.8,1.1,1.3,2.4,1.3,3.8c0,0.7-0.2,1.5-0.4,2.1c6.9,44.7,14.1,95,21.5,150.8c1.1-1,2.5-1.6,4.1-1.6
		c3.5,0,6.3,2.8,6.3,6.3c0,3.5-2.8,6.3-6.3,6.3c-1,0-1.9-0.2-2.8-0.7c0.9,7,1.8,14,2.8,21.1l68.1-41.3c-3.2-15.6-6.1-30.1-8.6-43.3
		c-1.7-1.1-2.8-3-2.8-5.2c0-1.3,0.4-2.6,1.1-3.6c-3.6-19.7-6.3-36.6-8.1-50.6l4.6-1.7c1.7-0.6,3.4-1.3,5-2c-1.6-1.1-2.6-3-2.6-5.1
		c0-3.5,2.8-6.3,6.3-6.3c3.5,0,6.3,2.8,6.3,6.2c7.5-4.6,14.4-10.3,20.7-17.3c2.4-2.6,4.6-5.4,6.7-8.2c-0.7,0.2-1.4,0.4-2.2,0.4
		c-3.5,0-6.3-2.8-6.3-6.3c0-3.5,2.8-6.3,6.3-6.3c3.5,0,6.3,2.8,6.3,6.3c5.1-7.8,9.4-16.3,12.7-25.5c5.5-15,8.4-30.9,8.8-47.9
		C290.5,499.1,290.3,493.6,289.8,488.1z M136.5,458.3c-3.5,0-6.3-2.8-6.3-6.3c0-3.5,2.8-6.3,6.3-6.3c3.5,0,6.3,2.8,6.3,6.3
		C142.8,455.5,139.9,458.3,136.5,458.3z M168,678.9c-3.5,0-6.3-2.8-6.3-6.3c0-3.5,2.8-6.3,6.3-6.3c3.5,0,6.3,2.8,6.3,6.3
		C174.3,676.1,171.5,678.9,168,678.9z M168,615.9c-3.5,0-6.3-2.8-6.3-6.3c0-3.5,2.8-6.3,6.3-6.3c3.5,0,6.3,2.8,6.3,6.3
		C174.3,613.1,171.5,615.9,168,615.9z M168,552.8c-3.5,0-6.3-2.8-6.3-6.3c0-3.5,2.8-6.3,6.3-6.3c3.5,0,6.3,2.8,6.3,6.3
		C174.3,550,171.5,552.8,168,552.8z M168,489.8c-3.5,0-6.3-2.8-6.3-6.3c0-3.5,2.8-6.3,6.3-6.3c3.5,0,6.3,2.8,6.3,6.3
		C174.3,487,171.5,489.8,168,489.8z M168,426.8c-3.5,0-6.3-2.8-6.3-6.3c0-3.5,2.8-6.3,6.3-6.3c3.5,0,6.3,2.8,6.3,6.3
		C174.3,423.9,171.5,426.8,168,426.8z M199.5,710.5c-3.5,0-6.3-2.8-6.3-6.3c0-3.5,2.8-6.3,6.3-6.3c3.5,0,6.3,2.8,6.3,6.3
		C205.8,707.6,203,710.5,199.5,710.5z M199.5,647.4c-3.5,0-6.3-2.8-6.3-6.3c0-3.5,2.8-6.3,6.3-6.3c3.5,0,6.3,2.8,6.3,6.3
		C205.8,644.6,203,647.4,199.5,647.4z M199.5,584.4c-3.5,0-6.3-2.8-6.3-6.3c0-3.5,2.8-6.3,6.3-6.3c3.5,0,6.3,2.8,6.3,6.3
		C205.8,581.5,203,584.4,199.5,584.4z M229.1,536.3c-0.4,1.7-0.8,3.2-1.2,4.8c0.9-0.5,2-0.8,3.1-0.8c3.5,0,6.3,2.8,6.3,6.3
		c0,3.5-2.8,6.3-6.3,6.3c-2.5,0-4.7-1.5-5.7-3.6c-3.7,9.8-8.7,16.9-15.2,21.3c-2.6-15.5-5.4-32-8.4-49.6c-0.7,0.3-1.5,0.4-2.3,0.4
		c-3.5,0-6.3-2.8-6.3-6.3c0-3.5,2.8-6.3,6.3-6.3c0.1,0,0.1,0,0.2,0c-2.8-16.4-5.8-33.7-9-51.9c1.3-0.5,2.6-0.8,3.9-0.9
		c-0.9-1.1-1.4-2.4-1.4-3.9c0-3.5,2.8-6.3,6.3-6.3c3.5,0,6.3,2.8,6.3,6.3c0,2-0.9,3.8-2.4,4.9c1.8,0.6,3.7,1.4,5.6,2.4
		c6.7,3.7,11.9,10.8,15.8,21.3c0.1,0.3,0.2,0.7,0.3,1c0.8-2.5,3.2-4.4,6-4.4c3.5,0,6.3,2.8,6.3,6.3c0,3.5-2.8,6.3-6.3,6.3
		c-1.4,0-2.7-0.5-3.7-1.2C231.9,504.6,232.5,520.5,229.1,536.3z M231,426.8c-3.5,0-6.3-2.8-6.3-6.3c0-3.5,2.8-6.3,6.3-6.3
		c3.5,0,6.3,2.8,6.3,6.3C237.3,423.9,234.5,426.8,231,426.8z M262.5,521.3c-3.5,0-6.3-2.8-6.3-6.3c0-3.5,2.8-6.3,6.3-6.3
		c3.5,0,6.3,2.8,6.3,6.3C268.8,518.5,266,521.3,262.5,521.3z M262.5,458.3c-3.5,0-6.3-2.8-6.3-6.3c0-3.5,2.8-6.3,6.3-6.3
		c3.5,0,6.3,2.8,6.3,6.3C268.8,455.5,266,458.3,262.5,458.3z"/>
	<path fill="#E94E1B" d="M289.8,488.1c-0.3-2.7-0.6-5.3-1-7.9c-0.6,1-1,2.1-1,3.4C287.8,485.3,288.5,486.9,289.8,488.1z"/>
	<path fill="#E94E1B" d="M262.5,445.7c-3.5,0-6.3,2.8-6.3,6.3c0,3.5,2.8,6.3,6.3,6.3c3.5,0,6.3-2.8,6.3-6.3
		C268.8,448.5,266,445.7,262.5,445.7z"/>
	<path fill="#E94E1B" d="M203.4,456.9c1.4-1.2,2.4-2.9,2.4-4.9c0-3.5-2.8-6.3-6.3-6.3c-3.5,0-6.3,2.8-6.3,6.3c0,1.5,0.5,2.8,1.4,3.9
		C197.4,455.6,200.3,455.9,203.4,456.9z"/>
	<path fill="#E94E1B" d="M237.3,483.5c0-3.5-2.8-6.3-6.3-6.3c-2.8,0-5.1,1.8-6,4.4c0.8,2.3,1.6,4.7,2.2,7c1,0.8,2.3,1.2,3.7,1.2
		C234.5,489.8,237.3,487,237.3,483.5z"/>
	<path fill="#E94E1B" d="M168,477.2c-3.5,0-6.3,2.8-6.3,6.3c0,3.5,2.8,6.3,6.3,6.3c3.5,0,6.3-2.8,6.3-6.3
		C174.3,480,171.5,477.2,168,477.2z"/>
	<path fill="#E94E1B" d="M231,414.2c-3.5,0-6.3,2.8-6.3,6.3c0,3.5,2.8,6.3,6.3,6.3c3.5,0,6.3-2.8,6.3-6.3
		C237.3,417,234.5,414.2,231,414.2z"/>
	<path fill="#E94E1B" d="M168,414.2c-3.5,0-6.3,2.8-6.3,6.3c0,3.5,2.8,6.3,6.3,6.3c3.5,0,6.3-2.8,6.3-6.3
		C174.3,417,171.5,414.2,168,414.2z"/>
	<path fill="#E94E1B" d="M136.5,445.7c-3.5,0-6.3,2.8-6.3,6.3c0,3.5,2.8,6.3,6.3,6.3c3.5,0,6.3-2.8,6.3-6.3
		C142.8,448.5,139.9,445.7,136.5,445.7z"/>
	<path fill="#E94E1B" d="M199.5,571.8c-3.5,0-6.3,2.8-6.3,6.3c0,3.5,2.8,6.3,6.3,6.3c3.5,0,6.3-2.8,6.3-6.3
		C205.8,574.6,203,571.8,199.5,571.8z"/>
	<path fill="#E94E1B" d="M231,603.3c-3.5,0-6.3,2.8-6.3,6.3c0,2.1,1,4,2.6,5.1c3.4-1.5,6.7-3.2,10-5.2
		C237.3,606.1,234.5,603.3,231,603.3z"/>
	<path fill="#E94E1B" d="M168,603.3c-3.5,0-6.3,2.8-6.3,6.3c0,3.5,2.8,6.3,6.3,6.3c3.5,0,6.3-2.8,6.3-6.3
		C174.3,606.1,171.5,603.3,168,603.3z"/>
	<path fill="#E94E1B" d="M231,552.8c3.5,0,6.3-2.8,6.3-6.3c0-3.5-2.8-6.3-6.3-6.3c-1.1,0-2.2,0.3-3.1,0.8c-0.8,2.9-1.6,5.6-2.6,8.1
		C226.3,551.4,228.5,552.8,231,552.8z"/>
	<path fill="#E94E1B" d="M168,540.2c-3.5,0-6.3,2.8-6.3,6.3c0,3.5,2.8,6.3,6.3,6.3c3.5,0,6.3-2.8,6.3-6.3
		C174.3,543.1,171.5,540.2,168,540.2z"/>
	<path fill="#E94E1B" d="M141.5,574.3c0.3,2,0.6,3.9,0.9,5.9c0.2-0.7,0.4-1.4,0.4-2.1C142.8,576.6,142.3,575.3,141.5,574.3z"/>
	<path fill="#E94E1B" d="M199.5,508.7c-3.5,0-6.3,2.8-6.3,6.3c0,3.5,2.8,6.3,6.3,6.3c0.8,0,1.6-0.2,2.3-0.4c-0.7-4-1.4-8.1-2.1-12.2
		C199.6,508.7,199.6,508.7,199.5,508.7z"/>
	<path fill="#E94E1B" d="M199.5,697.8c-3.5,0-6.3,2.8-6.3,6.3c0,3.5,2.8,6.3,6.3,6.3c3.5,0,6.3-2.8,6.3-6.3
		C205.8,700.7,203,697.8,199.5,697.8z"/>
	<path fill="#E94E1B" d="M174.3,735.7c0-3.5-2.8-6.3-6.3-6.3c-1.6,0-3,0.6-4.1,1.6c0.5,3.4,0.9,6.9,1.4,10.4
		c0.8,0.4,1.8,0.7,2.8,0.7C171.5,742,174.3,739.2,174.3,735.7z"/>
	<path fill="#E94E1B" d="M227.5,677.9c-0.6-3-1.1-5.9-1.6-8.8c-0.7,1-1.1,2.3-1.1,3.6C224.7,674.8,225.8,676.7,227.5,677.9z"/>
	<path fill="#E94E1B" d="M168,666.3c-3.5,0-6.3,2.8-6.3,6.3c0,3.5,2.8,6.3,6.3,6.3c3.5,0,6.3-2.8,6.3-6.3
		C174.3,669.2,171.5,666.3,168,666.3z"/>
	<path fill="#E94E1B" d="M199.5,634.8c-3.5,0-6.3,2.8-6.3,6.3c0,3.5,2.8,6.3,6.3,6.3c3.5,0,6.3-2.8,6.3-6.3
		C205.8,637.6,203,634.8,199.5,634.8z"/>
	<path fill="#E94E1B" d="M142.8,515c0-3.5-2.8-6.3-6.3-6.3c-2.2,0-4.1,1.1-5.2,2.8c0.5,2.8,1,5.6,1.4,8.5c1.1,0.8,2.4,1.3,3.8,1.3
		C139.9,521.3,142.8,518.5,142.8,515z"/>
</g>
<g>
	<path fill="none" d="M421.7,453.4c-5.6-24.1-15.4-34.5-29.3-31.3c-17.7,4.1-31.7,16.5-41.8,37.2c-8.1,16.6-13.4,37.8-15.9,63.8
		c-1.8,21.2-0.7,40.5,3.4,58c2.6,11.1,9.1,18.5,19.5,22.2c0.5,0.2,0.9,0.4,1.4,0.5c0.6,0.2,1.2,0.4,1.8,0.6c2.8,0.8,5.8,0.9,8.9,0.2
		c13.3-3.1,24.1-10.4,32.3-21.9c6.4-9.1,11.5-19.3,15.3-30.5c1-3,1.9-6.1,2.8-9.2c0.2-0.9,0.4-1.7,0.6-2.6c3.4-14.2,5.2-28.8,5.3-44
		c0-3.4,0-6.7-0.2-10c-0.1-2.1-0.2-4.2-0.3-6.2C424.8,470.5,423.6,461.6,421.7,453.4z"/>
	<path fill="none" d="M476.9,483.5c0-3.4,2.8-6.2,6.2-6.3c0-1.7,0.1-3.3,0.1-5c0.1-16.8-1-32.3-3.3-46.4c-1.8-1.1-3-3.1-3-5.4
		c0-1.5,0.5-2.8,1.3-3.8c-0.3-1.7-0.7-3.3-1.1-4.9c-7.5-32.5-17.7-55.7-30.4-69.6c-14.1-15.2-31.6-21.4-52.4-18.6
		c0.3,0.7,0.5,1.6,0.5,2.4c0,3.5-2.8,6.3-6.3,6.3c-3.5,0-6.2-2.8-6.3-6.2c-27.9,7.7-51.6,27.6-71.4,59.6c-5.6,9.2-10.5,18.9-15,28.9
		c2.6,0.8,4.4,3.2,4.4,6c0,3.5-2.8,6.3-6.3,6.3c-1.1,0-2.1-0.3-3-0.8c-8.4,21.3-14.5,44.4-18.4,69.4c-6.5,41.9-5.9,79.4,1.8,112.5
		c7.1,30.5,18.8,52.2,35.3,65.2c15,11.8,32.5,15.4,52.5,10.8c23.8-5.5,46.3-21.4,67.4-47.8c10.2-12.8,19.4-27.6,27.5-44.5
		c8.2-16.9,14.5-35.3,19-55.3c3.3-14.8,5.5-30.3,6.4-46.5C479.4,489.5,476.9,486.8,476.9,483.5z M294.1,615.9
		c-3.5,0-6.3-2.8-6.3-6.3c0-3.5,2.8-6.3,6.3-6.3c3.5,0,6.3,2.8,6.3,6.3C300.4,613.1,297.5,615.9,294.1,615.9z M294.1,552.8
		c-3.5,0-6.3-2.8-6.3-6.3c0-3.5,2.8-6.3,6.3-6.3c3.5,0,6.3,2.8,6.3,6.3C300.4,550,297.5,552.8,294.1,552.8z M294.1,489.8
		c-3.5,0-6.3-2.8-6.3-6.3c0-3.5,2.8-6.3,6.3-6.3c3.5,0,6.3,2.8,6.3,6.3C300.4,487,297.5,489.8,294.1,489.8z M388.6,382.6
		c3.5,0,6.3,2.8,6.3,6.3c0,3.5-2.8,6.3-6.3,6.3c-3.5,0-6.3-2.8-6.3-6.3C382.3,385.5,385.2,382.6,388.6,382.6z M357.1,351.1
		c3.5,0,6.3,2.8,6.3,6.3c0,3.5-2.8,6.3-6.3,6.3c-3.5,0-6.3-2.8-6.3-6.3C350.8,353.9,353.6,351.1,357.1,351.1z M357.1,414.2
		c3.5,0,6.3,2.8,6.3,6.3c0,3.5-2.8,6.3-6.3,6.3c-3.5,0-6.3-2.8-6.3-6.3C350.8,417,353.6,414.2,357.1,414.2z M325.6,647.4
		c-3.5,0-6.3-2.8-6.3-6.3c0-3.5,2.8-6.3,6.3-6.3c3.5,0,6.3,2.8,6.3,6.3C331.9,644.6,329.1,647.4,325.6,647.4z M325.6,584.4
		c-3.5,0-6.3-2.8-6.3-6.3c0-3.5,2.8-6.3,6.3-6.3c3.5,0,6.3,2.8,6.3,6.3C331.9,581.5,329.1,584.4,325.6,584.4z M325.6,521.3
		c-3.5,0-6.3-2.8-6.3-6.3c0-3.5,2.8-6.3,6.3-6.3c3.5,0,6.3,2.8,6.3,6.3C331.9,518.5,329.1,521.3,325.6,521.3z M325.6,458.3
		c-3.5,0-6.3-2.8-6.3-6.3c0-3.5,2.8-6.3,6.3-6.3c3.5,0,6.3,2.8,6.3,6.3C331.9,455.5,329.1,458.3,325.6,458.3z M325.6,395.2
		c-3.5,0-6.3-2.8-6.3-6.3c0-3.5,2.8-6.3,6.3-6.3c3.5,0,6.3,2.8,6.3,6.3C331.9,392.4,329.1,395.2,325.6,395.2z M357.1,678.9
		c-3.5,0-6.3-2.8-6.3-6.3c0-3.5,2.8-6.3,6.3-6.3c3.5,0,6.3,2.8,6.3,6.3C363.4,676.1,360.6,678.9,357.1,678.9z M388.6,647.4
		c-3.5,0-6.3-2.8-6.3-6.3c0-3.5,2.8-6.3,6.3-6.3c3.5,0,6.3,2.8,6.3,6.3C394.9,644.6,392.1,647.4,388.6,647.4z M420.2,615.9
		c-3.5,0-6.3-2.8-6.3-6.3c0-3.5,2.8-6.3,6.3-6.3c3.5,0,6.3,2.8,6.3,6.3C426.5,613.1,423.6,615.9,420.2,615.9z M425.9,496.3
		c-0.1,15.2-1.9,29.8-5.3,44c3.3,0.2,5.9,2.9,5.9,6.3c0,3.5-2.8,6.3-6.3,6.3c-1.1,0-2.1-0.3-2.9-0.8c-3.8,11.2-8.9,21.4-15.3,30.5
		c-8.2,11.5-19,18.9-32.3,21.9c-3.1,0.7-6.1,0.6-8.9-0.2c1.6,1.1,2.7,3,2.7,5.2c0,3.5-2.8,6.3-6.3,6.3c-3.5,0-6.3-2.8-6.3-6.3
		c0-3.5,2.8-6.3,6.3-6.3c0.1,0,0.3,0,0.4,0c-10.4-3.7-16.9-11.1-19.5-22.2c-4-17.4-5.2-36.7-3.4-58c2.5-26,7.8-47.2,15.9-63.8
		c10.2-20.7,24.1-33.1,41.8-37.2c13.9-3.2,23.7,7.2,29.3,31.3c1.9,8.1,3.1,17,3.7,26.7c0.6,1,1,2.1,1,3.4c0,1-0.3,2-0.7,2.8
		C425.9,489.6,425.9,492.9,425.9,496.3z M420.2,426.8c-3.5,0-6.3-2.8-6.3-6.3c0-3.5,2.8-6.3,6.3-6.3c3.5,0,6.3,2.8,6.3,6.3
		C426.5,423.9,423.6,426.8,420.2,426.8z M420.2,363.7c-3.5,0-6.3-2.8-6.3-6.3c0-3.5,2.8-6.3,6.3-6.3c3.5,0,6.3,2.8,6.3,6.3
		C426.5,360.9,423.6,363.7,420.2,363.7z M451.7,584.4c-3.5,0-6.3-2.8-6.3-6.3c0-3.5,2.8-6.3,6.3-6.3c3.5,0,6.3,2.8,6.3,6.3
		C458,581.5,455.2,584.4,451.7,584.4z M451.7,521.3c-3.5,0-6.3-2.8-6.3-6.3c0-3.5,2.8-6.3,6.3-6.3c3.5,0,6.3,2.8,6.3,6.3
		C458,518.5,455.2,521.3,451.7,521.3z M451.7,458.3c-3.5,0-6.3-2.8-6.3-6.3c0-3.5,2.8-6.3,6.3-6.3c3.5,0,6.3,2.8,6.3,6.3
		C458,455.5,455.2,458.3,451.7,458.3z M451.7,395.2c-3.5,0-6.3-2.8-6.3-6.3c0-3.5,2.8-6.3,6.3-6.3c3.5,0,6.3,2.8,6.3,6.3
		C458,392.4,455.2,395.2,451.7,395.2z"/>
	<path fill="#E94E1B" d="M420.2,351.1c-3.5,0-6.3,2.8-6.3,6.3c0,3.5,2.8,6.3,6.3,6.3c3.5,0,6.3-2.8,6.3-6.3
		C426.5,353.9,423.6,351.1,420.2,351.1z"/>
	<path fill="#E94E1B" d="M451.7,445.7c-3.5,0-6.3,2.8-6.3,6.3c0,3.5,2.8,6.3,6.3,6.3c3.5,0,6.3-2.8,6.3-6.3
		C458,448.5,455.2,445.7,451.7,445.7z"/>
	<path fill="#E94E1B" d="M476.9,483.5c0,3.3,2.5,6,5.8,6.3c0.2-4.1,0.4-8.3,0.5-12.5C479.7,477.2,476.9,480.1,476.9,483.5z"/>
	<path fill="#E94E1B" d="M425.5,480.1c0.1,2,0.2,4.1,0.3,6.2c0.4-0.9,0.7-1.8,0.7-2.8C426.5,482.3,426.1,481.1,425.5,480.1z"/>
	<path fill="#E94E1B" d="M479.9,425.8c-0.5-3.1-1.1-6.2-1.7-9.2c-0.8,1.1-1.3,2.4-1.3,3.8C476.9,422.7,478.1,424.7,479.9,425.8z"/>
	<path fill="#E94E1B" d="M420.2,414.2c-3.5,0-6.3,2.8-6.3,6.3c0,3.5,2.8,6.3,6.3,6.3c3.5,0,6.3-2.8,6.3-6.3
		C426.5,417,423.6,414.2,420.2,414.2z"/>
	<path fill="#E94E1B" d="M451.7,382.6c-3.5,0-6.3,2.8-6.3,6.3c0,3.5,2.8,6.3,6.3,6.3c3.5,0,6.3-2.8,6.3-6.3
		C458,385.5,455.2,382.6,451.7,382.6z"/>
	<path fill="#E94E1B" d="M451.7,571.8c-3.5,0-6.3,2.8-6.3,6.3c0,3.5,2.8,6.3,6.3,6.3c3.5,0,6.3-2.8,6.3-6.3
		C458,574.6,455.2,571.8,451.7,571.8z"/>
	<path fill="#E94E1B" d="M420.2,603.3c-3.5,0-6.3,2.8-6.3,6.3c0,3.5,2.8,6.3,6.3,6.3c3.5,0,6.3-2.8,6.3-6.3
		C426.5,606.1,423.6,603.3,420.2,603.3z"/>
	<path fill="#E94E1B" d="M417.2,552.1c0.9,0.5,1.9,0.8,2.9,0.8c3.5,0,6.3-2.8,6.3-6.3c0-3.3-2.6-6-5.9-6.3c-0.2,0.9-0.4,1.7-0.6,2.6
		C419.2,546,418.2,549.1,417.2,552.1z"/>
	<path fill="#E94E1B" d="M451.7,508.7c-3.5,0-6.3,2.8-6.3,6.3c0,3.5,2.8,6.3,6.3,6.3c3.5,0,6.3-2.8,6.3-6.3
		C458,511.5,455.2,508.7,451.7,508.7z"/>
	<path fill="#E94E1B" d="M388.6,332.2c3.5,0,6.3-2.8,6.3-6.3c0-0.9-0.2-1.7-0.5-2.4c-2.6,0.3-5.3,0.8-8.1,1.5
		c-1.4,0.3-2.7,0.7-4,1.1C382.4,329.4,385.2,332.2,388.6,332.2z"/>
	<path fill="#E94E1B" d="M357.1,363.7c3.5,0,6.3-2.8,6.3-6.3c0-3.5-2.8-6.3-6.3-6.3c-3.5,0-6.3,2.8-6.3,6.3
		C350.8,360.9,353.6,363.7,357.1,363.7z"/>
	<path fill="#E94E1B" d="M325.6,445.7c-3.5,0-6.3,2.8-6.3,6.3c0,3.5,2.8,6.3,6.3,6.3c3.5,0,6.3-2.8,6.3-6.3
		C331.9,448.5,329.1,445.7,325.6,445.7z"/>
	<path fill="#E94E1B" d="M294.1,477.2c-3.5,0-6.3,2.8-6.3,6.3c0,3.5,2.8,6.3,6.3,6.3c3.5,0,6.3-2.8,6.3-6.3
		C300.4,480,297.5,477.2,294.1,477.2z"/>
	<path fill="#E94E1B" d="M357.1,426.8c3.5,0,6.3-2.8,6.3-6.3c0-3.5-2.8-6.3-6.3-6.3c-3.5,0-6.3,2.8-6.3,6.3
		C350.8,423.9,353.6,426.8,357.1,426.8z"/>
	<path fill="#E94E1B" d="M300.4,420.5c0-2.8-1.9-5.2-4.4-6c-1.7,3.8-3.3,7.6-4.9,11.5c0.9,0.5,1.9,0.8,3,0.8
		C297.5,426.8,300.4,423.9,300.4,420.5z"/>
	<path fill="#E94E1B" d="M325.6,382.6c-3.5,0-6.3,2.8-6.3,6.3c0,3.5,2.8,6.3,6.3,6.3c3.5,0,6.3-2.8,6.3-6.3
		C331.9,385.5,329.1,382.6,325.6,382.6z"/>
	<path fill="#E94E1B" d="M388.6,395.2c3.5,0,6.3-2.8,6.3-6.3c0-3.5-2.8-6.3-6.3-6.3c-3.5,0-6.3,2.8-6.3,6.3
		C382.3,392.4,385.2,395.2,388.6,395.2z"/>
	<path fill="#E94E1B" d="M325.6,571.8c-3.5,0-6.3,2.8-6.3,6.3c0,3.5,2.8,6.3,6.3,6.3c3.5,0,6.3-2.8,6.3-6.3
		C331.9,574.6,329.1,571.8,325.6,571.8z"/>
	<path fill="#E94E1B" d="M357.5,603.3c-0.1,0-0.3,0-0.4,0c-3.5,0-6.3,2.8-6.3,6.3c0,3.5,2.8,6.3,6.3,6.3c3.5,0,6.3-2.8,6.3-6.3
		c0-2.1-1.1-4-2.7-5.2c-0.6-0.2-1.2-0.3-1.8-0.6C358.4,603.7,358,603.5,357.5,603.3z"/>
	<path fill="#E94E1B" d="M294.1,603.3c-3.5,0-6.3,2.8-6.3,6.3c0,3.5,2.8,6.3,6.3,6.3c3.5,0,6.3-2.8,6.3-6.3
		C300.4,606.1,297.5,603.3,294.1,603.3z"/>
	<path fill="#E94E1B" d="M294.1,540.2c-3.5,0-6.3,2.8-6.3,6.3c0,3.5,2.8,6.3,6.3,6.3c3.5,0,6.3-2.8,6.3-6.3
		C300.4,543.1,297.5,540.2,294.1,540.2z"/>
	<path fill="#E94E1B" d="M325.6,508.7c-3.5,0-6.3,2.8-6.3,6.3c0,3.5,2.8,6.3,6.3,6.3c3.5,0,6.3-2.8,6.3-6.3
		C331.9,511.5,329.1,508.7,325.6,508.7z"/>
	<path fill="#E94E1B" d="M357.1,666.3c-3.5,0-6.3,2.8-6.3,6.3c0,3.5,2.8,6.3,6.3,6.3c3.5,0,6.3-2.8,6.3-6.3
		C363.4,669.2,360.6,666.3,357.1,666.3z"/>
	<path fill="#E94E1B" d="M325.6,634.8c-3.5,0-6.3,2.8-6.3,6.3c0,3.5,2.8,6.3,6.3,6.3c3.5,0,6.3-2.8,6.3-6.3
		C331.9,637.6,329.1,634.8,325.6,634.8z"/>
	<path fill="#E94E1B" d="M388.6,634.8c-3.5,0-6.3,2.8-6.3,6.3c0,3.5,2.8,6.3,6.3,6.3c3.5,0,6.3-2.8,6.3-6.3
		C394.9,637.6,392.1,634.8,388.6,634.8z"/>
</g>
<g>
	<path fill="none" d="M683.6,288.6c-2.2,0.5-4.4,1.1-6.6,1.7c1,1.1,1.6,2.5,1.6,4.1c0,3.5-2.8,6.3-6.3,6.3c-3.5,0-6.3-2.8-6.3-6.3
		c0-0.5,0.1-0.9,0.1-1.3c-3.3,0.9-6.6,1.7-10,2.7l-14.5,150.1c3.1,0.4,5.5,3,5.5,6.2c0,3.5-2.8,6.3-6.3,6.3c-0.1,0-0.2,0-0.4,0
		l-2.5,25.7l-7.9,1c-0.3-21.1-0.9-43.6-1.8-67.4c-0.5-13.2-1-26.6-1.5-40.2c-0.5-13.6-0.9-26.1-1.2-37.5
		c-0.3-11.4-0.5-21.1-0.8-29.1c-0.3-8-0.3-13.3,0-15.9c-3.6,1.3-7.2,2.4-10.7,3.5c-1.2,1.4-2.9,2.3-4.8,2.3c-0.7,0-1.3-0.1-1.9-0.3
		c-9.3,2.5-18.3,4.3-26.9,5.4l-3.8,0.5c-0.7,4.1-1.5,8.9-2.4,14.5c1-0.7,2.2-1.1,3.5-1.1c3.5,0,6.3,2.8,6.3,6.3
		c0,3.5-2.8,6.3-6.3,6.3c-2,0-3.7-0.9-4.9-2.4c-1.1,7.6-2.4,16.2-3.7,25.9c-1.6,9.8-4.7,27.8-9.1,54.2c-3.6,21.4-7.2,44.1-10.8,68.1
		c2,1.1,3.3,3.1,3.3,5.5c0,3.1-2.2,5.6-5.1,6.2c-0.3,1.8-0.5,3.5-0.8,5.3l-6.7,0.8c0.1-3.4,0.3-6.6,0.4-9.9
		c-0.3-0.7-0.5-1.5-0.5-2.4c0-1,0.3-1.9,0.7-2.8c0.8-20.1,1.5-38.4,2.1-55c-1.7-1.1-2.8-3-2.8-5.2c0-2.3,1.3-4.4,3.2-5.4
		c0.8-19.8,1.4-36.9,1.9-51.4c-2.9-0.6-5.1-3.1-5.1-6.2c0-3.2,2.4-5.9,5.6-6.2c1.2-31.3,1.7-47.1,1.7-47.4
		c-11.6,2.2-23.1,5.1-34.7,8.6c-11.6,3.5-24,6.4-37.2,8.5l2.2,159.9c1-2.1,3.2-3.6,5.7-3.6c3.5,0,6.3,2.8,6.3,6.3
		c0,3.5-2.8,6.3-6.3,6.3c-2.5,0-4.6-1.4-5.6-3.5l0.8,56.3c1.2-1.4,2.9-2.3,4.9-2.3c3.5,0,6.3,2.8,6.3,6.3c0,3.5-2.8,6.3-6.3,6.3
		c-1.9,0-3.6-0.9-4.7-2.2l0.7,54.1c1.1-0.9,2.5-1.5,4-1.5c3.5,0,6.3,2.8,6.3,6.3c0,3.5-2.8,6.3-6.3,6.3c-1.5,0-2.8-0.5-3.9-1.4
		l0.2,13.3l60.5-18.5c0.1-3.4,2.9-6.1,6.3-6.1c2.1,0,3.9,1,5.1,2.6l15-4.6l11.7-80c-0.1,0-0.2,0-0.3,0c-3.5,0-6.3-2.8-6.3-6.3
		c0-3.5,2.8-6.3,6.3-6.3c0.7,0,1.4,0.1,2.1,0.4l9.9-67.5l5.4-0.7l1.2,166.9l8.4-2.5c1.2-1.2,2.8-2,4.6-2c0.5,0,1,0.1,1.5,0.2
		l79.8-23.6c1.7-17,4.1-38.3,7.1-63.9c0-0.3-0.1-0.6-0.1-0.9c0-0.9,0.2-1.7,0.5-2.4c1.9-16.4,4.1-34.6,6.6-54.4
		c-0.3,0-0.5,0.1-0.8,0.1c-3.5,0-6.3-2.8-6.3-6.3c0-3.5,2.8-6.3,6.3-6.3c0.8,0,1.6,0.2,2.3,0.4c2.4-19.5,5.1-40.5,8-63.1
		c4.9-38.4,11-74.3,18.2-107.9C722.8,278.2,706.6,282.7,683.6,288.6z M483.2,426.8c-3.5,0-6.3-2.8-6.3-6.3c0-3.5,2.8-6.3,6.3-6.3
		c3.5,0,6.3,2.8,6.3,6.3C489.5,423.9,486.7,426.8,483.2,426.8z M483.2,363.7c-3.5,0-6.3-2.8-6.3-6.3c0-3.5,2.8-6.3,6.3-6.3
		c3.5,0,6.3,2.8,6.3,6.3C489.5,360.9,486.7,363.7,483.2,363.7z M514.7,584.4c-3.5,0-6.3-2.8-6.3-6.3c0-3.5,2.8-6.3,6.3-6.3
		c3.5,0,6.3,2.8,6.3,6.3C521,581.5,518.2,584.4,514.7,584.4z M514.7,521.3c-3.5,0-6.3-2.8-6.3-6.3c0-3.5,2.8-6.3,6.3-6.3
		c3.5,0,6.3,2.8,6.3,6.3C521,518.5,518.2,521.3,514.7,521.3z M514.7,458.3c-3.5,0-6.3-2.8-6.3-6.3c0-3.5,2.8-6.3,6.3-6.3
		c3.5,0,6.3,2.8,6.3,6.3C521,455.5,518.2,458.3,514.7,458.3z M514.7,395.2c-3.5,0-6.3-2.8-6.3-6.3c0-3.5,2.8-6.3,6.3-6.3
		c3.5,0,6.3,2.8,6.3,6.3C521,392.4,518.2,395.2,514.7,395.2z M514.7,332.2c-3.5,0-6.3-2.8-6.3-6.3c0-3.5,2.8-6.3,6.3-6.3
		c3.5,0,6.3,2.8,6.3,6.3C521,329.4,518.2,332.2,514.7,332.2z M546.2,552.8c-3.5,0-6.3-2.8-6.3-6.3c0-3.5,2.8-6.3,6.3-6.3
		c3.5,0,6.3,2.8,6.3,6.3C552.5,550,549.7,552.8,546.2,552.8z M577.8,458.3c-3.5,0-6.3-2.8-6.3-6.3c0-3.5,2.8-6.3,6.3-6.3
		c3.5,0,6.3,2.8,6.3,6.3C584.1,455.5,581.2,458.3,577.8,458.3z M577.8,395.2c-3.5,0-6.3-2.8-6.3-6.3c0-3.5,2.8-6.3,6.3-6.3
		c3.5,0,6.3,2.8,6.3,6.3C584.1,392.4,581.2,395.2,577.8,395.2z M609.3,552.8c-3.5,0-6.3-2.8-6.3-6.3c0-3.5,2.8-6.3,6.3-6.3
		c3.5,0,6.3,2.8,6.3,6.3C615.6,550,612.8,552.8,609.3,552.8z M609.3,489.8c-3.5,0-6.3-2.8-6.3-6.3c0-3.5,2.8-6.3,6.3-6.3
		c3.5,0,6.3,2.8,6.3,6.3C615.6,487,612.8,489.8,609.3,489.8z M609.3,426.8c-3.5,0-6.3-2.8-6.3-6.3c0-3.5,2.8-6.3,6.3-6.3
		c3.5,0,6.3,2.8,6.3,6.3C615.6,423.9,612.8,426.8,609.3,426.8z M609.3,363.7c-3.5,0-6.3-2.8-6.3-6.3c0-3.5,2.8-6.3,6.3-6.3
		c3.5,0,6.3,2.8,6.3,6.3C615.6,360.9,612.8,363.7,609.3,363.7z M640.8,584.4c-3.5,0-6.3-2.8-6.3-6.3c0-3.5,2.8-6.3,6.3-6.3
		c3.5,0,6.3,2.8,6.3,6.3C647.1,581.5,644.3,584.4,640.8,584.4z M640.8,521.3c-3.5,0-6.3-2.8-6.3-6.3c0-3.5,2.8-6.3,6.3-6.3
		c3.5,0,6.3,2.8,6.3,6.3C647.1,518.5,644.3,521.3,640.8,521.3z M672.3,552.8c-3.5,0-6.3-2.8-6.3-6.3c0-3.5,2.8-6.3,6.3-6.3
		c3.5,0,6.3,2.8,6.3,6.3C678.6,550,675.8,552.8,672.3,552.8z M672.3,489.8c-3.5,0-6.3-2.8-6.3-6.3c0-3.5,2.8-6.3,6.3-6.3
		c3.5,0,6.3,2.8,6.3,6.3C678.6,487,675.8,489.8,672.3,489.8z M672.3,426.8c-3.5,0-6.3-2.8-6.3-6.3c0-3.5,2.8-6.3,6.3-6.3
		c3.5,0,6.3,2.8,6.3,6.3C678.6,423.9,675.8,426.8,672.3,426.8z M672.3,363.7c-3.5,0-6.3-2.8-6.3-6.3c0-3.5,2.8-6.3,6.3-6.3
		c3.5,0,6.3,2.8,6.3,6.3C678.6,360.9,675.8,363.7,672.3,363.7z M703.9,395.2c-3.5,0-6.3-2.8-6.3-6.3c0-3.5,2.8-6.3,6.3-6.3
		c3.5,0,6.3,2.8,6.3,6.3C710.2,392.4,707.3,395.2,703.9,395.2z M703.9,332.2c-3.5,0-6.3-2.8-6.3-6.3c0-3.5,2.8-6.3,6.3-6.3
		c3.5,0,6.3,2.8,6.3,6.3C710.2,329.4,707.3,332.2,703.9,332.2z"/>
	<path fill="#E94E1B" d="M703.9,319.6c-3.5,0-6.3,2.8-6.3,6.3c0,3.5,2.8,6.3,6.3,6.3c3.5,0,6.3-2.8,6.3-6.3
		C710.2,322.4,707.3,319.6,703.9,319.6z"/>
	<path fill="#E94E1B" d="M672.3,351.1c-3.5,0-6.3,2.8-6.3,6.3c0,3.5,2.8,6.3,6.3,6.3c3.5,0,6.3-2.8,6.3-6.3
		C678.6,353.9,675.8,351.1,672.3,351.1z"/>
	<path fill="#E94E1B" d="M672.3,300.7c3.5,0,6.3-2.8,6.3-6.3c0-1.6-0.6-3-1.6-4.1c-3.6,0.9-7.2,1.9-10.9,2.8
		c-0.1,0.4-0.1,0.9-0.1,1.3C666,297.9,668.8,300.7,672.3,300.7z"/>
	<path fill="#E94E1B" d="M697.5,452c0,3.5,2.8,6.3,6.3,6.3c0.3,0,0.5,0,0.8-0.1c0.5-4,1-8,1.5-12.1c-0.7-0.3-1.5-0.4-2.3-0.4
		C700.4,445.7,697.5,448.5,697.5,452z"/>
	<path fill="#E94E1B" d="M672.3,477.2c-3.5,0-6.3,2.8-6.3,6.3c0,3.5,2.8,6.3,6.3,6.3c3.5,0,6.3-2.8,6.3-6.3
		C678.6,480,675.8,477.2,672.3,477.2z"/>
	<path fill="#E94E1B" d="M672.3,414.2c-3.5,0-6.3,2.8-6.3,6.3c0,3.5,2.8,6.3,6.3,6.3c3.5,0,6.3-2.8,6.3-6.3
		C678.6,417,675.8,414.2,672.3,414.2z"/>
	<path fill="#E94E1B" d="M703.9,382.6c-3.5,0-6.3,2.8-6.3,6.3c0,3.5,2.8,6.3,6.3,6.3c3.5,0,6.3-2.8,6.3-6.3
		C710.2,385.5,707.3,382.6,703.9,382.6z"/>
	<path fill="#E94E1B" d="M672.3,540.2c-3.5,0-6.3,2.8-6.3,6.3c0,3.5,2.8,6.3,6.3,6.3c3.5,0,6.3-2.8,6.3-6.3
		C678.6,543.1,675.8,540.2,672.3,540.2z"/>
	<path fill="#E94E1B" d="M697.6,516c0.1-1.1,0.3-2.2,0.4-3.4c-0.3,0.7-0.5,1.6-0.5,2.4C697.5,515.3,697.6,515.6,697.6,516z"/>
	<path fill="#E94E1B" d="M577.8,332.2c3.5,0,6.3-2.8,6.3-6.3c0-3.5-2.8-6.3-6.3-6.3c-1.3,0-2.5,0.4-3.5,1.1
		c-0.4,2.9-0.9,5.9-1.4,9.2C574,331.3,575.8,332.2,577.8,332.2z"/>
	<path fill="#E94E1B" d="M609.3,351.1c-3.5,0-6.3,2.8-6.3,6.3c0,3.5,2.8,6.3,6.3,6.3c3.5,0,6.3-2.8,6.3-6.3
		C615.6,353.9,612.8,351.1,609.3,351.1z"/>
	<path fill="#E94E1B" d="M539.9,357.4c0,3.1,2.2,5.6,5.1,6.2c0.2-4.4,0.3-8.5,0.5-12.4C542.4,351.5,539.9,354.2,539.9,357.4z"/>
	<path fill="#E94E1B" d="M614.1,298.4c-2.3,0.7-4.5,1.4-6.8,2c0.6,0.2,1.3,0.3,1.9,0.3C611.2,300.7,613,299.8,614.1,298.4z"/>
	<path fill="#E94E1B" d="M577.8,445.7c-3.5,0-6.3,2.8-6.3,6.3c0,3.5,2.8,6.3,6.3,6.3c3.5,0,6.3-2.8,6.3-6.3
		C584.1,448.5,581.2,445.7,577.8,445.7z"/>
	<path fill="#E94E1B" d="M647.1,452c0-3.2-2.4-5.8-5.5-6.2l-1.2,12.5c0.1,0,0.2,0,0.4,0C644.3,458.3,647.1,455.5,647.1,452z"/>
	<path fill="#E94E1B" d="M609.3,477.2c-3.5,0-6.3,2.8-6.3,6.3c0,3.5,2.8,6.3,6.3,6.3c3.5,0,6.3-2.8,6.3-6.3
		C615.6,480,612.8,477.2,609.3,477.2z"/>
	<path fill="#E94E1B" d="M540.4,485.9c0.1-1.7,0.1-3.5,0.2-5.2c-0.4,0.8-0.7,1.8-0.7,2.8C539.9,484.4,540.1,485.2,540.4,485.9z"/>
	<path fill="#E94E1B" d="M552.5,483.5c0-2.4-1.3-4.4-3.3-5.5c-0.6,3.9-1.2,7.8-1.8,11.7C550.4,489.1,552.5,486.6,552.5,483.5z"/>
	<path fill="#E94E1B" d="M609.3,414.2c-3.5,0-6.3,2.8-6.3,6.3c0,3.5,2.8,6.3,6.3,6.3c3.5,0,6.3-2.8,6.3-6.3
		C615.6,417,612.8,414.2,609.3,414.2z"/>
	<path fill="#E94E1B" d="M539.9,420.5c0,2.2,1.1,4.1,2.8,5.2c0.1-3.6,0.3-7.2,0.4-10.7C541.2,416.1,539.9,418.1,539.9,420.5z"/>
	<path fill="#E94E1B" d="M577.8,382.6c-3.5,0-6.3,2.8-6.3,6.3c0,3.5,2.8,6.3,6.3,6.3c3.5,0,6.3-2.8,6.3-6.3
		C584.1,385.5,581.2,382.6,577.8,382.6z"/>
	<path fill="#E94E1B" d="M640.8,571.8c-3.5,0-6.3,2.8-6.3,6.3c0,3.5,2.8,6.3,6.3,6.3c3.5,0,6.3-2.8,6.3-6.3
		C647.1,574.6,644.3,571.8,640.8,571.8z"/>
	<path fill="#E94E1B" d="M604.7,605.3l6.1-1.8c-0.5-0.1-1-0.2-1.5-0.2C607.5,603.3,605.8,604.1,604.7,605.3z"/>
	<path fill="#E94E1B" d="M546.2,603.3c-3.4,0-6.2,2.7-6.3,6.1l11.3-3.5C550.2,604.3,548.3,603.3,546.2,603.3z"/>
	<path fill="#E94E1B" d="M609.3,540.2c-3.5,0-6.3,2.8-6.3,6.3c0,3.5,2.8,6.3,6.3,6.3c3.5,0,6.3-2.8,6.3-6.3
		C615.6,543.1,612.8,540.2,609.3,540.2z"/>
	<path fill="#E94E1B" d="M546.2,540.2c-3.5,0-6.3,2.8-6.3,6.3c0,3.5,2.8,6.3,6.3,6.3c3.5,0,6.3-2.8,6.3-6.3
		C552.5,543.1,549.7,540.2,546.2,540.2z"/>
	<path fill="#E94E1B" d="M571.5,515c0,3.5,2.8,6.3,6.3,6.3c0.1,0,0.2,0,0.3,0l1.8-12.2c-0.6-0.2-1.3-0.4-2.1-0.4
		C574.3,508.7,571.5,511.5,571.5,515z"/>
	<path fill="#E94E1B" d="M640.8,508.7c-3.5,0-6.3,2.8-6.3,6.3c0,3.5,2.8,6.3,6.3,6.3c3.5,0,6.3-2.8,6.3-6.3
		C647.1,511.5,644.3,508.7,640.8,508.7z"/>
	<path fill="#E94E1B" d="M514.7,319.6c-3.5,0-6.3,2.8-6.3,6.3c0,3.5,2.8,6.3,6.3,6.3c3.5,0,6.3-2.8,6.3-6.3
		C521,322.4,518.2,319.6,514.7,319.6z"/>
	<path fill="#E94E1B" d="M483.2,351.1c-3.5,0-6.3,2.8-6.3,6.3c0,3.5,2.8,6.3,6.3,6.3c3.5,0,6.3-2.8,6.3-6.3
		C489.5,353.9,486.7,351.1,483.2,351.1z"/>
	<path fill="#E94E1B" d="M514.7,445.7c-3.5,0-6.3,2.8-6.3,6.3c0,3.5,2.8,6.3,6.3,6.3c3.5,0,6.3-2.8,6.3-6.3
		C521,448.5,518.2,445.7,514.7,445.7z"/>
	<path fill="#E94E1B" d="M483.2,489.8c3.5,0,6.3-2.8,6.3-6.3c0-3.5-2.8-6.3-6.3-6.3c-2.5,0-4.7,1.5-5.7,3.6l0.1,5.5
		C478.6,488.4,480.7,489.8,483.2,489.8z"/>
	<path fill="#E94E1B" d="M483.2,414.2c-3.5,0-6.3,2.8-6.3,6.3c0,3.5,2.8,6.3,6.3,6.3c3.5,0,6.3-2.8,6.3-6.3
		C489.5,417,486.7,414.2,483.2,414.2z"/>
	<path fill="#E94E1B" d="M514.7,382.6c-3.5,0-6.3,2.8-6.3,6.3c0,3.5,2.8,6.3,6.3,6.3c3.5,0,6.3-2.8,6.3-6.3
		C521,385.5,518.2,382.6,514.7,382.6z"/>
	<path fill="#E94E1B" d="M514.7,571.8c-3.5,0-6.3,2.8-6.3,6.3c0,3.5,2.8,6.3,6.3,6.3c3.5,0,6.3-2.8,6.3-6.3
		C521,574.6,518.2,571.8,514.7,571.8z"/>
	<path fill="#E94E1B" d="M489.5,609.6c0-3.5-2.8-6.3-6.3-6.3c-1.5,0-2.9,0.6-4,1.5l0.1,9.8c1.1,0.8,2.4,1.4,3.9,1.4
		C486.7,615.9,489.5,613.1,489.5,609.6z"/>
	<path fill="#E94E1B" d="M483.2,552.8c3.5,0,6.3-2.8,6.3-6.3c0-3.5-2.8-6.3-6.3-6.3c-2,0-3.7,0.9-4.9,2.3l0.1,8.1
		C479.6,552,481.3,552.8,483.2,552.8z"/>
	<path fill="#E94E1B" d="M514.7,508.7c-3.5,0-6.3,2.8-6.3,6.3c0,3.5,2.8,6.3,6.3,6.3c3.5,0,6.3-2.8,6.3-6.3
		C521,511.5,518.2,508.7,514.7,508.7z"/>
</g>
<g>
	<path fill="none" d="M823.6,325.9c0-2.7,1.7-5,4-5.9c9-34.6,19-69.2,30.1-103.8c-4.9,1.4-11.1,2.9-18.6,4.6
		c-7.4,1.6-15.1,3.5-23,5.5c-4,1-8,1.9-11.9,2.9c0.2,0.7,0.4,1.4,0.4,2.1c0,3.5-2.8,6.3-6.3,6.3c-3.2,0-5.8-2.4-6.2-5.5
		c-7.7,1.8-14.5,3.4-20.2,4.9c-1.1,6.6-2.2,13.2-3.2,19.8c2.6,0.8,4.5,3.2,4.5,6c0,3.5-2.8,6.3-6.3,6.3c-0.1,0-0.1,0-0.1,0
		c-4.7,29.7-9.2,59.3-13.5,88.7c-5.7,39.8-11.8,79.5-18.1,119.4c0.1,0,0.1,0,0.2,0c0.9,0,1.7,0.2,2.5,0.5c8.4-1.3,16.7-2.7,25-4
		c9.2-1.5,18.5-2.7,27.9-3.5c3.6-14.8,7.1-29.5,10.7-44.2c-0.9,0.5-1.9,0.8-3,0.8c-3.5,0-6.3-2.8-6.3-6.3c0-3.5,2.8-6.3,6.3-6.3
		c2.2,0,4.1,1.1,5.2,2.8c6-24.8,12.1-49.5,18.2-74.2c1.1-4.3,2.2-8.5,3.3-12.8C824.2,328.8,823.6,327.4,823.6,325.9z M829.9,256.5
		c3.5,0,6.3,2.8,6.3,6.3c0,3.5-2.8,6.3-6.3,6.3c-3.5,0-6.3-2.8-6.3-6.3C823.6,259.4,826.5,256.5,829.9,256.5z M766.9,458.3
		c-3.5,0-6.3-2.8-6.3-6.3c0-3.5,2.8-6.3,6.3-6.3c3.5,0,6.3,2.8,6.3,6.3C773.2,455.5,770.4,458.3,766.9,458.3z M766.9,395.2
		c-3.5,0-6.3-2.8-6.3-6.3c0-3.5,2.8-6.3,6.3-6.3c3.5,0,6.3,2.8,6.3,6.3C773.2,392.4,770.4,395.2,766.9,395.2z M766.9,332.2
		c-3.5,0-6.3-2.8-6.3-6.3c0-3.5,2.8-6.3,6.3-6.3c3.5,0,6.3,2.8,6.3,6.3C773.2,329.4,770.4,332.2,766.9,332.2z M798.4,363.7
		c-3.5,0-6.3-2.8-6.3-6.3c0-3.5,2.8-6.3,6.3-6.3c3.5,0,6.3,2.8,6.3,6.3C804.7,360.9,801.9,363.7,798.4,363.7z M798.4,300.7
		c-3.5,0-6.3-2.8-6.3-6.3c0-3.5,2.8-6.3,6.3-6.3c3.5,0,6.3,2.8,6.3,6.3C804.7,297.9,801.9,300.7,798.4,300.7z"/>
	<path fill="none" d="M798.4,552.8c-3.5,0-6.3-2.8-6.3-6.3c0-3.5,2.8-6.3,6.3-6.3c1.3,0,2.4,0.4,3.4,1c-1.9-9.5-7.3-17.7-16.1-24.6
		c-10.1-7.9-24.5-11-43.3-9.3c-8.2,0.8-15.1,2.8-20.8,6.2c-17.1,10.1-24.7,25.4-22.8,45.8c0.4,4.5,1.4,8.8,2.8,12.9
		c0.7-0.3,1.4-0.4,2.2-0.4c3.5,0,6.3,2.8,6.3,6.3c0,2.2-1.1,4.1-2.8,5.3c1.6,2.3,3.3,4.4,5.3,6.5c3.8,3.8,8.5,6.7,14.1,8.9
		c5.6,2.2,12.6,2.9,21.1,2.1c17.6-1.6,31.7-8.2,42.3-19.6c8.1-8.9,12.2-18.9,12.5-30C801.5,552.2,800,552.8,798.4,552.8z
		 M735.4,552.8c-3.5,0-6.3-2.8-6.3-6.3c0-3.5,2.8-6.3,6.3-6.3c3.5,0,6.3,2.8,6.3,6.3C741.7,550,738.9,552.8,735.4,552.8z
		 M766.9,584.4c-3.5,0-6.3-2.8-6.3-6.3c0-3.5,2.8-6.3,6.3-6.3c3.5,0,6.3,2.8,6.3,6.3C773.2,581.5,770.4,584.4,766.9,584.4z
		 M766.9,521.3c-3.5,0-6.3-2.8-6.3-6.3c0-3.5,2.8-6.3,6.3-6.3c3.5,0,6.3,2.8,6.3,6.3C773.2,518.5,770.4,521.3,766.9,521.3z"/>
	<path fill="#E94E1B" d="M798.4,237.6c3.5,0,6.3-2.8,6.3-6.3c0-0.8-0.2-1.5-0.4-2.1c-3.9,0.9-7.8,1.9-11.7,2.8
		c-0.1,0-0.3,0.1-0.4,0.1C792.6,235.2,795.2,237.6,798.4,237.6z"/>
	<path fill="#E94E1B" d="M823.6,325.9c0,1.5,0.6,2.9,1.5,4c0.8-3.3,1.7-6.6,2.5-9.9C825.3,320.9,823.6,323.2,823.6,325.9z"/>
	<path fill="#E94E1B" d="M798.4,351.1c-3.5,0-6.3,2.8-6.3,6.3c0,3.5,2.8,6.3,6.3,6.3c3.5,0,6.3-2.8,6.3-6.3
		C804.7,353.9,801.9,351.1,798.4,351.1z"/>
	<path fill="#E94E1B" d="M798.4,288.1c-3.5,0-6.3,2.8-6.3,6.3c0,3.5,2.8,6.3,6.3,6.3c3.5,0,6.3-2.8,6.3-6.3
		C804.7,290.9,801.9,288.1,798.4,288.1z"/>
	<path fill="#E94E1B" d="M829.9,269.2c3.5,0,6.3-2.8,6.3-6.3c0-3.5-2.8-6.3-6.3-6.3c-3.5,0-6.3,2.8-6.3,6.3
		C823.6,266.3,826.5,269.2,829.9,269.2z"/>
	<path fill="#E94E1B" d="M798.4,414.2c-3.5,0-6.3,2.8-6.3,6.3c0,3.5,2.8,6.3,6.3,6.3c1.1,0,2.1-0.3,3-0.8c0.7-3,1.5-6,2.2-9.1
		C802.5,415.2,800.6,414.2,798.4,414.2z"/>
	<path fill="#E94E1B" d="M792.1,546.5c0,3.5,2.8,6.3,6.3,6.3c1.6,0,3.1-0.6,4.2-1.6c0-1.9,0-3.8-0.2-5.8c-0.1-1.4-0.3-2.8-0.6-4.2
		c-1-0.6-2.2-1-3.4-1C794.9,540.2,792.1,543.1,792.1,546.5z"/>
	<path fill="#E94E1B" d="M766.9,319.6c-3.5,0-6.3,2.8-6.3,6.3c0,3.5,2.8,6.3,6.3,6.3c3.5,0,6.3-2.8,6.3-6.3
		C773.2,322.4,770.4,319.6,766.9,319.6z"/>
	<path fill="#E94E1B" d="M773.2,262.8c0-2.8-1.9-5.2-4.5-6c-0.7,4.1-1.3,8.2-2,12.3c0.1,0,0.1,0,0.1,0
		C770.4,269.2,773.2,266.3,773.2,262.8z"/>
	<path fill="#E94E1B" d="M766.9,445.7c-3.5,0-6.3,2.8-6.3,6.3c0,3.5,2.8,6.3,6.3,6.3c3.5,0,6.3-2.8,6.3-6.3
		C773.2,448.5,770.4,445.7,766.9,445.7z"/>
	<path fill="#E94E1B" d="M735.2,477.2c0,0.3-0.1,0.6-0.1,0.9c1-0.2,1.9-0.3,2.8-0.5c-0.8-0.3-1.6-0.5-2.5-0.5
		C735.3,477.2,735.2,477.2,735.2,477.2z"/>
	<path fill="#E94E1B" d="M766.9,382.6c-3.5,0-6.3,2.8-6.3,6.3c0,3.5,2.8,6.3,6.3,6.3c3.5,0,6.3-2.8,6.3-6.3
		C773.2,385.5,770.4,382.6,766.9,382.6z"/>
	<path fill="#E94E1B" d="M710.2,578.1c0-3.5-2.8-6.3-6.3-6.3c-0.8,0-1.5,0.2-2.2,0.4c1.4,4,3.3,7.7,5.7,11.1
		C709,582.2,710.2,580.3,710.2,578.1z"/>
	<path fill="#E94E1B" d="M766.9,571.8c-3.5,0-6.3,2.8-6.3,6.3c0,3.5,2.8,6.3,6.3,6.3c3.5,0,6.3-2.8,6.3-6.3
		C773.2,574.6,770.4,571.8,766.9,571.8z"/>
	<path fill="#E94E1B" d="M735.4,540.2c-3.5,0-6.3,2.8-6.3,6.3c0,3.5,2.8,6.3,6.3,6.3c3.5,0,6.3-2.8,6.3-6.3
		C741.7,543.1,738.9,540.2,735.4,540.2z"/>
	<path fill="#E94E1B" d="M766.9,508.7c-3.5,0-6.3,2.8-6.3,6.3c0,3.5,2.8,6.3,6.3,6.3c3.5,0,6.3-2.8,6.3-6.3
		C773.2,511.5,770.4,508.7,766.9,508.7z"/>
</g>
</svg>
