<?xml version="1.0" encoding="utf-8"?>
<!-- Generator: Adobe Illustrator 16.0.0, SVG Export Plug-In . SVG Version: 6.00 Build 0)  -->
<!DOCTYPE svg PUBLIC "-//W3C//DTD SVG 1.1//EN" "http://www.w3.org/Graphics/SVG/1.1/DTD/svg11.dtd">
<svg version="1.1" id="Calque_1" xmlns="http://www.w3.org/2000/svg" xmlns:xlink="http://www.w3.org/1999/xlink" x="0px" y="0px"
	 width="1195.744px" height="1195.743px" viewBox="0 0 1195.744 1195.743" enable-background="new 0 0 1195.744 1195.743"
	 xml:space="preserve">
<g>
	<polygon fill="#EF7D29" points="597.87,20.372 597.87,597.872 752.611,20.372 	"/>
	<polygon fill="#FFD200" points="747.337,40.05 597.87,597.872 896.806,80.1 	"/>
	<polygon fill="#E15B10" points="886.62,97.741 597.87,597.872 1020.629,175.112 	"/>
	<polygon fill="#EF7D29" points="1006.224,189.517 597.87,597.872 1115.643,298.936 	"/>
	<polygon fill="#FFD200" points="1098,309.12 597.87,597.872 1175.372,443.131 	"/>
	<polygon fill="#E15B10" points="1155.694,448.401 597.87,597.872 1195.744,597.871 	"/>
	<polygon fill="#EF7D29" points="1175.374,597.87 597.87,597.872 1175.372,752.612 	"/>
	<polygon fill="#FFD200" points="1155.696,747.339 597.87,597.872 1115.644,896.808 	"/>
	<polygon fill="#E15B10" points="1098.004,886.621 597.87,597.872 1020.631,1020.631 	"/>
	<polygon fill="#EF7D29" points="1006.229,1006.226 597.87,597.872 896.807,1115.645 	"/>
	<polygon fill="#FFD200" points="886.625,1098.002 597.87,597.872 752.612,1175.372 	"/>
	<polygon fill="#E15B10" points="747.343,1155.695 597.87,597.872 597.871,1195.743 	"/>
	<polygon fill="#EF7D29" points="597.875,1175.374 597.87,597.872 443.131,1175.371 	"/>
	<polygon fill="#FFD200" points="448.406,1155.696 597.87,597.872 298.936,1115.644 	"/>
	<polygon fill="#E15B10" points="309.123,1098.005 597.87,597.872 175.113,1020.63 	"/>
	<polygon fill="#EF7D29" points="189.518,1006.229 597.87,597.872 80.1,896.808 	"/>
	<polygon fill="#FFD200" points="97.741,886.625 597.87,597.872 20.372,752.612 	"/>
	<polygon fill="#E15B10" points="40.048,747.343 597.87,597.872 0,597.871 	"/>
	<polygon fill="#EF7D29" points="20.369,597.874 597.87,597.872 20.372,443.131 	"/>
	<polygon fill="#FFD200" points="40.047,448.405 597.87,597.872 80.1,298.936 	"/>
	<polygon fill="#E15B10" points="97.739,309.122 597.87,597.872 175.112,175.112 	"/>
	<polygon fill="#EF7D29" points="189.515,189.518 597.87,597.872 298.936,80.1 	"/>
	<polygon fill="#FFD200" points="309.119,97.741 597.87,597.872 443.131,20.372 	"/>
	<polygon fill="#E15B10" points="448.401,40.048 597.87,597.872 597.872,0 	"/>
</g>
</svg>
