<?xml version="1.0" encoding="utf-8"?>
<!-- Generator: Adobe Illustrator 18.1.1, SVG Export Plug-In . SVG Version: 6.00 Build 0)  -->
<svg version="1.1" id="Calque_1" xmlns="http://www.w3.org/2000/svg" xmlns:xlink="http://www.w3.org/1999/xlink" x="0px" y="0px"
	 viewBox="0 0 1000 1000" enable-background="new 0 0 1000 1000" xml:space="preserve">
<g>
	<path fill="#1D1D1B" d="M499.6,603.4c0.6-4.7,0.8-12.4,0.8-23.6c0-64.3,4.3-132.8,12.8-203.7c0.4-2.9-0.8-5.9-3-7.8
		c-0.8-2.2-2.1-3.9-3.7-5c-1.1-1.7-2.7-3.3-5.1-4.8c-0.4-2.2-1.6-4.3-3.5-5.7c-1.6-1.1-3.4-1.7-5.3-1.7c-1.2,0-2.5,0.3-3.7,0.8
		c-5.3,2.4-11.2,4.6-17.5,6.7c-1.7,0.6-3.1,1.6-4.2,2.9l-1.7,2.2c-0.9-1.8-2.5-3.2-4.3-4c-1.1-0.5-2.4-0.8-3.6-0.8
		c-1.1,0-2.3,0.2-3.4,0.7c-12.8,5.2-22.8,9.3-30.4,12.3c0.6-1.7,1.2-3.4,1.8-5.1c1.1-3.1,0.5-6.5-1.7-9c-1.7-2-4.2-3-6.7-3
		c-0.6,0-1.3,0.1-1.9,0.2c-0.4,0.1-0.7,0.2-1.1,0.2c1.1-4.2,2.1-7.7,2.9-10.6c0.8-2.8,0.3-5.8-1.5-8.1c-1.7-2.2-4.3-3.4-7-3.4
		c-0.2,0-0.3,0-0.5,0c-15.9,0.8-37.1,1.2-63.2,1.2c-3.2,0-6.1,1.7-7.8,4.5c-2.4,4.2-4.4,8.3-5.9,12.3c-5.1,1.6-9.8,3.1-14.3,4.4
		c-3.1,0.9-5.5,3.5-6.2,6.6c-8.4,38.1-14.1,68.6-17,92c-6.2-15.7-10.6-28.2-13.1-37.5c-4.8-17.5-6-22.5-6.3-23.9
		c0-0.9,0.1-2.9,0.2-7c0.1-4.4-0.2-9.3-3.4-12.7c-1.9-2-4.5-3.1-7.2-3.1c-0.8,0-1.6,0-2.6,0.1c-1.1-0.9-2.3-1.6-3.7-2
		c-4-1-9.8-3.1-17.5-6.2c-1.1-0.5-2.3-0.7-3.4-0.7c-3,0-5.9,1.5-7.6,4.2c-22.3,35.5-39.5,65.1-51.2,88.4c-3.4-20.5-5.6-39.9-6.8-58
		c0-0.1,0-0.1,0-0.2c-0.5-6-0.8-12.1-0.8-17.9c0-2.9-1.4-5.6-3.7-7.3c-1.5-1.1-3.4-1.7-5.2-1.7c-1,0-1.9,0.2-2.8,0.5
		c-6.3,2.1-12.3,6-17.9,11.5c-4.6,4.6-9,9.2-13.3,13.7c-1,1.1-1.7,2.4-2.1,3.8c-0.2-0.2-0.5-0.4-0.9-0.7c-4.6-3.7-9-5.5-13.3-5.5
		c-1.7,0-2.1,0-30.4,8.3c-4.2,1.2-6.9,5.4-6.4,9.7c5,39.8,15.7,84,31.6,131.5c9.4,30.3,25.2,72.6,46.8,125.9c0.9,2.3,2.8,4.1,5.1,5
		c1,0.4,2.1,0.6,3.2,0.6c1.3,0,2.7-0.3,3.9-0.9l10.4-5c1.3-0.6,2.4-1.6,3.3-2.7c0.6-0.2,1.2-0.4,1.8-0.7l7.5-3.7
		c3.4-1.7,5.3-5.3,4.9-9l-0.5-4.7c1.8-1.5,3.5-3.7,4.9-6.8c1.8,0.4,3.3,0.6,4.6,0.6c2.5,0,5.1-0.5,7.5-1.5c4.1-1.7,6.4-6.1,5.4-10.4
		l0-0.1c5.3,0.7,7,1.5,7.4,1.7c1.6,1.3,3.6,1.9,5.5,1.9c1.3,0,2.6-0.3,3.8-0.8c3.1-1.4,5.1-4.5,5.2-8c1-61.7,1.2-73.6,1.2-75.6
		c0.6-10.9,1.8-21.2,3.5-30.8c6.5,34.4,17.3,73.4,32.4,116.6c1.3,3.6,4.7,6,8.5,6c0.5,0,0.9,0,1.4-0.1l13.3-2.1c1.6-0.3,3.1-1,4.4-2
		c0,0,0.1,0,0.1,0c0.7,0,1.4-0.1,2.1-0.3c10.4-2.5,20.7-5.5,30.6-8.9c11.3-3.4,21.1-5.5,29.3-6.3c3.1-0.3,5.9-2.2,7.3-5.1
		c0.9-1.9,1.1-4.1,0.6-6.1c1.3-1.5,2.2-3.4,2.3-5.4c4.5-63.5,17.5-129.2,38.6-196c1.6,73.1,7.9,161,18.8,261.7
		c0.4,3.4,2.7,6.3,5.9,7.5c1,0.3,2,0.5,3,0.5c2.3,0,4.6-0.9,6.3-2.6c0.5-0.5,0.9-0.9,1.4-1.3l0.3,0.3c1.7,1.5,3.8,2.4,6.1,2.4
		c0.5,0,1,0,1.5-0.1c2.7-0.5,5.1-2.2,6.4-4.7c2.5-4.7,4.7-8.3,6.5-10.6c0,0,0,0,0.1-0.1c1.7,2.2,3.3,4,4.6,5.5
		c1.7,1.9,4.2,2.9,6.6,2.9c1.3,0,2.6-0.3,3.8-0.9c5.1-2.4,9-4.3,11.4-5.5c3.4-1.7,5.4-5.4,4.9-9.1c-0.2-1.4-0.5-5.5-1.2-17.7
		c0-0.2,0-0.3,0-0.5c-0.8-7.1-1.2-13.1-1.2-17.7c0-0.7,0.1-2.5,0.9-6.1C499.2,607.5,499.6,605.1,499.6,603.4z"/>
	<path fill="#1D1D1B" d="M930.8,377.8c0-0.3,0.1-0.6,0.1-1c0.2-0.6,0.3-1.3,0.4-2c0.5-6.1,1.8-12.8,3.8-19.9
		c0.8-2.7,0.2-5.6-1.5-7.9c-1.7-2.2-4.3-3.6-7.2-3.6c-46.7,0-82.1,1.1-105.3,3.4c-3.6,0.4-6.7,2.9-7.7,6.4l-0.6,1.9
		c-24.6,5.1-50.1,11.2-76,18.2c-2,0.5-3.7,1.7-4.9,3.3c-2.4,3.3-4.3,6.2-5.7,8.7l1-7.6c0-0.3,0.1-0.6,0.1-0.9c0.2-0.6,0.3-1.3,0.4-2
		c0.5-6.1,1.8-12.8,3.8-19.9c0.8-2.7,0.2-5.6-1.5-7.9c-1.7-2.2-4.3-3.6-7.2-3.6c-46.7,0-82.1,1.1-105.3,3.4
		c-3.6,0.4-6.7,2.9-7.7,6.4l-0.6,1.9c-24.6,5.1-50.1,11.2-76,18.2c-2,0.5-3.7,1.7-4.9,3.3c-3.5,4.7-5.8,8.5-7.2,11.7
		c-0.9,2.1-1,4.5-0.3,6.6c1.9,5.4,3.4,9.8,4.3,13.1l-6.9,7.2c-3,3.2-3.3,8.1-0.7,11.6c0.7,0.9,1.8,2.5,3.4,5.5
		c-8.2,16.6-10.4,21.9-11.3,24.4c-1.1,3.2-0.4,6.8,2,9.2c1.7,1.8,4.1,2.7,6.4,2.7c0.9,0,1.8-0.1,2.7-0.4c31-9.9,56.9-17.5,77.4-22.7
		C575.1,492,551,547.5,526.5,611.1c-1,2.5-0.8,5.3,0.5,7.6c1.3,2.3,3.6,4,6.2,4.4l9.4,1.7c0.1,0.5,0.2,1,0.4,1.5l2.5,7.5
		c0.3,0.8,0.7,1.6,1.2,2.4l6.6,9.4c-1.1,3.5-2.1,6.4-3,8.7c-0.7,1.8-0.9,3.7-0.4,5.5l2.5,10.4c0.7,2.8,2.6,5.1,5.3,6.2
		c1.1,0.5,2.3,0.7,3.4,0.7c1.6,0,3.2-0.4,4.6-1.3c40.8-24.7,85.7-44.4,133.6-58.6c3.4-1,5.8-3.9,6.3-7.3c1.1-8.1,1.8-13.8,2.1-17.6
		c0.2-2.8-0.9-5.5-3-7.4c-0.7-0.6-1.5-1.1-2.4-1.5c1.5-5.9,2.7-11.1,3.6-15.4c0.6-3-0.3-6-2.5-8.2c-1.7-1.7-4-2.6-6.3-2.6
		c-0.6,0-1.3,0.1-1.9,0.2c-12.9,2.8-27.9,6.9-44.9,12l-1.2-1.1c-1.7-1.5-3.9-2.4-6.1-2.4c-1.1,0-2.2,0.2-3.3,0.6
		c-5,2-9.4,3.8-13.3,5.3c24.1-48.3,52.6-96.4,84.6-143.3h1.9c2.9,0,5.5-1.4,7.1-3.6c0.3,0.7,0.6,1.4,1.1,2.1
		c0.7,0.9,1.8,2.5,3.4,5.5c-8.2,16.6-10.4,21.9-11.3,24.4c-1.1,3.2-0.4,6.8,2,9.2c1.7,1.8,4.1,2.7,6.4,2.7c0.9,0,1.8-0.1,2.7-0.4
		c31-9.9,56.9-17.5,77.4-22.7C778.7,492,754.5,547.5,730,611.1c-1,2.5-0.8,5.3,0.5,7.6c1.3,2.3,3.6,4,6.2,4.4l9.4,1.7
		c0.1,0.5,0.2,1,0.4,1.5l2.5,7.5c0.3,0.8,0.7,1.6,1.2,2.4l6.6,9.4c-1.1,3.5-2.1,6.4-3,8.7c-0.7,1.8-0.9,3.7-0.4,5.5l2.5,10.4
		c0.7,2.8,2.6,5.1,5.3,6.2c1.1,0.5,2.3,0.7,3.4,0.7c1.6,0,3.2-0.4,4.6-1.3c40.8-24.7,85.7-44.4,133.6-58.6c3.4-1,5.8-3.9,6.3-7.3
		c1.1-8.1,1.8-13.8,2.1-17.6c0.2-2.8-0.9-5.5-3-7.4c-0.7-0.6-1.5-1.1-2.4-1.5c1.5-5.9,2.7-11,3.6-15.4c0.6-3-0.3-6-2.5-8.2
		c-1.7-1.7-4-2.6-6.3-2.6c-0.6,0-1.3,0.1-1.9,0.2c-12.9,2.8-28,6.9-44.9,12l-1.2-1.1c-1.7-1.5-3.9-2.4-6.1-2.4
		c-1.1,0-2.2,0.2-3.3,0.6c-5,2-9.4,3.8-13.3,5.3c24.1-48.3,52.6-96.4,84.6-143.3h1.9c4.3,0,7.9-3,8.8-7.2c1.2-6.2,2.1-9.9,2.7-12.1
		l2.9-3.5c1.8-2.2,2.5-5.2,1.8-7.9c-0.4-1.5-1.1-2.9-2.2-3.9c-0.2-0.3-0.3-0.7-0.5-1c-0.5-0.7-1-1.4-1.6-2c0.6-1,1-2.2,1.2-3.4
		L930.8,377.8z M724.4,409.2l2.9-3.5c0.2-0.2,0.4-0.5,0.5-0.7c0.4,1.1,0.7,2.2,1,3.2l-5.6,5.8C723.7,411.9,724.1,410.4,724.4,409.2z
		"/>
</g>
<g>
	<path fill="#FFFFFF" d="M489.9,594.2c0.6-4.7,0.8-12.4,0.8-23.6c0-64.3,4.3-132.8,12.8-203.7c0.4-2.9-0.8-5.9-3-7.8
		c-0.8-2.2-2.1-3.9-3.7-5c-1.1-1.7-2.7-3.3-5.1-4.8c-0.4-2.2-1.6-4.3-3.5-5.7c-1.6-1.1-3.4-1.7-5.3-1.7c-1.2,0-2.5,0.3-3.7,0.8
		c-5.3,2.4-11.2,4.6-17.5,6.7c-1.7,0.6-3.1,1.6-4.2,2.9l-1.7,2.2c-0.9-1.8-2.5-3.2-4.3-4c-1.1-0.5-2.4-0.8-3.6-0.8
		c-1.1,0-2.3,0.2-3.4,0.7c-12.8,5.2-22.8,9.3-30.4,12.3c0.6-1.7,1.2-3.4,1.8-5.1c1.1-3.1,0.5-6.5-1.7-9c-1.7-2-4.2-3-6.7-3
		c-0.6,0-1.3,0.1-1.9,0.2c-0.4,0.1-0.7,0.2-1.1,0.2c1.1-4.2,2.1-7.7,2.9-10.6c0.8-2.8,0.3-5.8-1.5-8.1c-1.7-2.2-4.3-3.4-7-3.4
		c-0.2,0-0.3,0-0.5,0c-15.9,0.8-37.1,1.2-63.2,1.2c-3.2,0-6.1,1.7-7.8,4.5c-2.4,4.2-4.4,8.3-5.9,12.3c-5.1,1.6-9.8,3.1-14.3,4.4
		c-3.1,0.9-5.5,3.5-6.2,6.6c-8.4,38.1-14.1,68.6-17,92c-6.2-15.7-10.6-28.2-13.1-37.5c-4.8-17.5-6-22.5-6.3-23.9
		c0-0.9,0.1-2.9,0.2-7c0.1-4.4-0.2-9.3-3.4-12.7c-1.9-2-4.5-3.1-7.2-3.1c-0.8,0-1.6,0-2.6,0.1c-1.1-0.9-2.3-1.6-3.7-2
		c-4-1-9.8-3.1-17.5-6.2c-1.1-0.5-2.3-0.7-3.4-0.7c-3,0-5.9,1.5-7.6,4.2c-22.3,35.5-39.5,65.1-51.2,88.4c-3.4-20.5-5.6-39.9-6.8-58
		c0-0.1,0-0.1,0-0.2c-0.5-6-0.8-12.1-0.8-17.9c0-2.9-1.4-5.6-3.7-7.3c-1.5-1.1-3.4-1.7-5.2-1.7c-1,0-1.9,0.2-2.8,0.5
		c-6.3,2.1-12.3,6-17.9,11.5c-4.6,4.6-9,9.2-13.3,13.7c-1,1.1-1.7,2.4-2.1,3.8c-0.2-0.2-0.5-0.4-0.9-0.7c-4.6-3.7-9-5.5-13.3-5.5
		c-1.7,0-2.1,0-30.4,8.3c-4.2,1.2-6.9,5.4-6.4,9.7c5,39.8,15.7,84,31.6,131.5c9.4,30.3,25.2,72.6,46.8,125.9c0.9,2.3,2.8,4.1,5.1,5
		c1,0.4,2.1,0.6,3.2,0.6c1.3,0,2.7-0.3,3.9-0.9l10.4-5c1.3-0.6,2.4-1.6,3.3-2.7c0.6-0.2,1.2-0.4,1.8-0.7l7.5-3.7
		c3.4-1.7,5.3-5.3,4.9-9l-0.5-4.7c1.8-1.5,3.5-3.7,4.9-6.8c1.8,0.4,3.3,0.6,4.6,0.6c2.5,0,5.1-0.5,7.5-1.5c4.1-1.7,6.4-6.1,5.4-10.4
		l0-0.1c5.3,0.7,7,1.5,7.4,1.7c1.6,1.3,3.6,1.9,5.5,1.9c1.3,0,2.6-0.3,3.8-0.8c3.1-1.4,5.1-4.5,5.2-8c1-61.7,1.2-73.6,1.2-75.6
		c0.6-10.9,1.8-21.2,3.5-30.8c6.5,34.4,17.3,73.4,32.4,116.6c1.3,3.6,4.7,6,8.5,6c0.5,0,0.9,0,1.4-0.1l13.3-2.1c1.6-0.3,3.1-1,4.4-2
		c0,0,0.1,0,0.1,0c0.7,0,1.4-0.1,2.1-0.3c10.4-2.5,20.7-5.5,30.6-8.9c11.3-3.4,21.1-5.5,29.3-6.3c3.1-0.3,5.9-2.2,7.3-5.1
		c0.9-1.9,1.1-4.1,0.6-6.1c1.3-1.5,2.2-3.4,2.3-5.4c4.5-63.5,17.5-129.2,38.6-196c1.6,73.1,7.9,161,18.8,261.7
		c0.4,3.4,2.7,6.3,5.9,7.5c1,0.3,2,0.5,3,0.5c2.3,0,4.6-0.9,6.3-2.6c0.5-0.5,0.9-0.9,1.4-1.3l0.3,0.3c1.7,1.5,3.8,2.4,6.1,2.4
		c0.5,0,1,0,1.5-0.1c2.7-0.5,5.1-2.2,6.4-4.7c2.5-4.7,4.7-8.3,6.5-10.6c0,0,0,0,0.1-0.1c1.7,2.2,3.3,4,4.6,5.5
		c1.7,1.9,4.2,2.9,6.6,2.9c1.3,0,2.6-0.3,3.8-0.9c5.1-2.4,9-4.3,11.4-5.5c3.4-1.7,5.4-5.4,4.9-9.1c-0.2-1.4-0.5-5.5-1.2-17.7
		c0-0.2,0-0.3,0-0.5c-0.8-7.1-1.2-13.1-1.2-17.7c0-0.7,0.1-2.5,0.9-6.1C489.5,598.3,489.9,595.9,489.9,594.2z"/>
	<path fill="#FFFFFF" d="M921.1,368.7c0-0.3,0.1-0.6,0.1-1c0.2-0.6,0.3-1.3,0.4-2c0.5-6.1,1.8-12.8,3.8-19.9
		c0.8-2.7,0.2-5.6-1.5-7.9c-1.7-2.2-4.3-3.6-7.2-3.6c-46.7,0-82.1,1.1-105.3,3.4c-3.6,0.4-6.7,2.9-7.7,6.4l-0.6,1.9
		c-24.6,5.1-50.1,11.2-76,18.2c-2,0.5-3.7,1.7-4.9,3.3c-2.4,3.3-4.3,6.2-5.7,8.7l1-7.6c0-0.3,0.1-0.6,0.1-0.9c0.2-0.6,0.3-1.3,0.4-2
		c0.5-6.1,1.8-12.8,3.8-19.9c0.8-2.7,0.2-5.6-1.5-7.9c-1.7-2.2-4.3-3.6-7.2-3.6c-46.7,0-82.1,1.1-105.3,3.4
		c-3.6,0.4-6.7,2.9-7.7,6.4l-0.6,1.9c-24.6,5.1-50.1,11.2-76,18.2c-2,0.5-3.7,1.7-4.9,3.3c-3.5,4.7-5.8,8.5-7.2,11.7
		c-0.9,2.1-1,4.5-0.3,6.6c1.9,5.4,3.4,9.8,4.3,13.1l-6.9,7.2c-3,3.2-3.3,8.1-0.7,11.6c0.7,0.9,1.8,2.5,3.4,5.5
		c-8.2,16.6-10.4,21.9-11.3,24.4c-1.1,3.2-0.4,6.8,2,9.2c1.7,1.8,4.1,2.7,6.4,2.7c0.9,0,1.8-0.1,2.7-0.4c31-9.9,56.9-17.5,77.4-22.7
		c-23.2,46.2-47.3,101.8-71.8,165.4c-1,2.5-0.8,5.3,0.5,7.6c1.3,2.3,3.6,4,6.2,4.4l9.4,1.7c0.1,0.5,0.2,1,0.4,1.5l2.5,7.5
		c0.3,0.8,0.7,1.6,1.2,2.4l6.6,9.4c-1.1,3.5-2.1,6.4-3,8.7c-0.7,1.8-0.9,3.7-0.4,5.5l2.5,10.4c0.7,2.8,2.6,5.1,5.3,6.2
		c1.1,0.5,2.3,0.7,3.4,0.7c1.6,0,3.2-0.4,4.6-1.3c40.8-24.7,85.7-44.4,133.6-58.6c3.4-1,5.8-3.9,6.3-7.3c1.1-8.1,1.8-13.8,2.1-17.6
		c0.2-2.8-0.9-5.5-3-7.4c-0.7-0.6-1.5-1.1-2.4-1.5c1.5-5.9,2.7-11.1,3.6-15.4c0.6-3-0.3-6-2.5-8.2c-1.7-1.7-4-2.6-6.3-2.6
		c-0.6,0-1.3,0.1-1.9,0.2c-12.9,2.8-27.9,6.9-44.9,12l-1.2-1.1c-1.7-1.5-3.9-2.4-6.1-2.4c-1.1,0-2.2,0.2-3.3,0.6
		c-5,2-9.4,3.8-13.3,5.3c24.1-48.3,52.6-96.4,84.6-143.3h1.9c2.9,0,5.5-1.4,7.1-3.6c0.3,0.7,0.6,1.4,1.1,2.1
		c0.7,0.9,1.8,2.5,3.4,5.5c-8.2,16.6-10.4,21.9-11.3,24.4c-1.1,3.2-0.4,6.8,2,9.2c1.7,1.8,4.1,2.7,6.4,2.7c0.9,0,1.8-0.1,2.7-0.4
		c31-9.9,56.9-17.5,77.4-22.7c-23.2,46.2-47.3,101.8-71.8,165.4c-1,2.5-0.8,5.3,0.5,7.6c1.3,2.3,3.6,4,6.2,4.4l9.4,1.7
		c0.1,0.5,0.2,1,0.4,1.5l2.5,7.5c0.3,0.8,0.7,1.6,1.2,2.4l6.6,9.4c-1.1,3.5-2.1,6.4-3,8.7c-0.7,1.8-0.9,3.7-0.4,5.5l2.5,10.4
		c0.7,2.8,2.6,5.1,5.3,6.2c1.1,0.5,2.3,0.7,3.4,0.7c1.6,0,3.2-0.4,4.6-1.3c40.8-24.7,85.7-44.4,133.6-58.6c3.4-1,5.8-3.9,6.3-7.3
		c1.1-8.1,1.8-13.8,2.1-17.6c0.2-2.8-0.9-5.5-3-7.4c-0.7-0.6-1.5-1.1-2.4-1.5c1.5-5.9,2.7-11,3.6-15.4c0.6-3-0.3-6-2.5-8.2
		c-1.7-1.7-4-2.6-6.3-2.6c-0.6,0-1.3,0.1-1.9,0.2c-12.9,2.8-28,6.9-44.9,12l-1.2-1.1c-1.7-1.5-3.9-2.4-6.1-2.4
		c-1.1,0-2.2,0.2-3.3,0.6c-5,2-9.4,3.8-13.3,5.3c24.1-48.3,52.6-96.4,84.6-143.3h1.9c4.3,0,7.9-3,8.8-7.2c1.2-6.2,2.1-9.9,2.7-12.1
		l2.9-3.5c1.8-2.2,2.5-5.2,1.8-7.9c-0.4-1.5-1.1-2.9-2.2-3.9c-0.2-0.3-0.3-0.7-0.5-1c-0.5-0.7-1-1.4-1.6-2c0.6-1,1-2.2,1.2-3.4
		L921.1,368.7z M714.7,400.1l2.9-3.5c0.2-0.2,0.4-0.5,0.5-0.7c0.4,1.1,0.7,2.2,1,3.2l-5.6,5.8C714,402.7,714.4,401.2,714.7,400.1z"
		/>
</g>
<g>
	<polygon fill="none" points="140.3,426.2 141.1,423.3 136.1,419.1 134,429.1 136.6,432.7 141,439 144,443.3 143.6,433.7 	"/>
	<polygon fill="none" points="277.2,557.3 272.6,553.1 270.6,563.1 280.6,577.7 280.6,568.1 277.2,560.6 	"/>
	<polygon fill="none" points="356.3,382.5 357.6,399.1 362.1,391.6 363.4,383.7 365.5,381.7 363.4,375.8 	"/>
	<polygon fill="none" points="353.9,346.9 353,347.9 353.7,355 355.5,373.3 362.1,360.8 363.4,348.8 366.3,345.9 362.5,337.5 	"/>
	<linearGradient id="SVGID_1_" gradientUnits="userSpaceOnUse" x1="240.3907" y1="723.5888" x2="240.3907" y2="227.4618">
		<stop  offset="0" style="stop-color:#36A9E1"/>
		<stop  offset="1" style="stop-color:#00A19A"/>
	</linearGradient>
	<path fill="url(#SVGID_1_)" d="M393.1,354.5c-1.2-0.8-2.1-2.1-2.1-3.7c0-2.3,1.8-4.1,4-4.3c1.4-5.6,2.6-10.1,3.7-13.6
		c-16.1,0.8-37.3,1.2-63.7,1.2c-3.1,5.3-5.3,10.3-6.7,15c-6.1,1.9-11.6,3.7-16.6,5.2c-0.6,0.4-1.4,0.7-2.2,0.8
		c-9.6,43.5-15.6,77.3-17.9,101.4c0.3,0.6,0.4,1.2,0.4,1.8c0,0.9-0.3,1.8-0.8,2.5c-0.8,10-1,18.1-0.4,24.4
		c-14.7-34.1-24.3-59.2-28.7-75.3c-4.4-16.1-6.7-24.6-6.7-25.6c0-1,0.1-3.6,0.2-7.9c0.1-4.3-0.4-6.5-1.7-6.5c-1.2,0-3,0.2-5.4,0.6
		c0.3,0.5,0.4,1.1,0.4,1.8c0,2.4-1.9,4.3-4.3,4.3c-2.4,0-4.3-1.9-4.3-4.3c0-2.4,1.9-4.3,4.3-4.3c0.2,0,0.5,0,0.7,0.1
		c0-0.1,0-0.1,0-0.2c-4.4-1.1-10.7-3.3-18.7-6.7c-17.8,28.3-32.2,52.6-43.2,73c0.6,0.7,0.9,1.6,0.9,2.6c0,2.4-1.9,4.3-4.3,4.3
		c-0.1,0-0.2,0-0.3,0c-6.7,12.8-11.9,23.9-15.6,33.3c-0.9-4.4-1.7-8.8-2.5-13.1c-0.8,0.8-1.9,1.3-3.1,1.3c-2.4,0-4.3-1.9-4.3-4.3
		c0-2.4,1.9-4.3,4.3-4.3c0.7,0,1.3,0.2,1.8,0.4c-2.3-12.7-4.1-25.1-5.5-37c-0.4-0.6-0.6-1.4-0.6-2.2c0-0.5,0.1-0.9,0.2-1.3
		c-1-9.1-1.8-18-2.4-26.6c-0.6-6.4-0.8-12.6-0.8-18.7c-5,1.7-9.8,4.8-14.4,9.4c-4.6,4.6-8.9,9.1-13.1,13.5l-0.4,2.1l2.9,11.2
		l-3.7,11.7l-7.5-18.3c-1.4,0.6-3.5-0.3-6.5-2.7c-2.9-2.4-5.5-3.5-7.7-3.5c-0.2,0-1.1,0.2-2.7,0.7c0.1,0.4,0.2,0.7,0.2,1.1
		c0,2.4-1.9,4.3-4.3,4.3c-2,0-3.6-1.3-4.1-3.1c-4.4,1.2-10,2.9-16.9,4.9c0.5,3.9,1,7.8,1.6,11.7c1.3,0.7,2.2,2.1,2.2,3.7
		c0,1.1-0.4,2.1-1.2,2.9c5.6,34.4,15.1,71.6,28.5,111.5c6.6,21.1,16.2,47.9,28.7,80.2c-0.1-0.4-0.2-0.7-0.2-1.1
		c0-2.4,1.9-4.3,4.3-4.3c2.4,0,4.3,1.9,4.3,4.3c0,2.4-1.9,4.3-4.3,4.3c-1.7,0-3.1-1-3.8-2.3c5.3,13.7,11.2,28.5,17.6,44.2l10.4-5
		l-10.4-15l3.3-15.8l6.7,6.7l-0.1,0.8c1.3,0.8,2.1,2.1,2.1,3.7c0,1-0.4,2-1,2.7l4.4,9.1v4.6l7.5-3.7l-1.2-11.2
		c2.8,0.3,4.9-1.5,6.5-5.2c1.5-3.7,3.3-5.6,5.2-5.6c1.1,0,2.4,0.2,4,0.6c1.5,0.4,2.7,0.6,3.5,0.6c1.4,0,2.8-0.3,4.2-0.8l-2.9-12.1
		c13.3,0.6,21.5,2.1,24.6,4.6c0.8-49.4,1.2-74.6,1.2-75.8c0.2-4.3,0.6-8.5,1-12.6c-0.6-0.7-0.9-1.6-0.9-2.6c0-1.3,0.6-2.5,1.6-3.3
		c2.5-20.9,7.1-39,13.8-54.3c2.1,22.8,6.6,48.2,13.7,76.2c0.7,0.8,1.1,1.8,1.1,2.9c0,0.4-0.1,0.7-0.1,1
		c4.8,18.6,10.6,38.3,17.5,59.2c2.3,0.1,4.1,2,4.1,4.3c0,1.3-0.6,2.5-1.6,3.3c1,3,2.1,6.1,3.2,9.2l13.3-2.1l-12.1-14.6l2.9-17.9
		l7.9,7.1v4.6l7.1,13.7v5c5.5-1.3,10.9-2.8,16.3-4.4c-1.5-0.7-2.6-2.2-2.6-3.9c0-2.4,1.9-4.3,4.3-4.3c2.4,0,4.3,1.9,4.3,4.3
		c0,0.9-0.3,1.7-0.7,2.3c2.8-0.9,5.6-1.8,8.4-2.7c11.9-3.6,22.3-5.8,31.2-6.7l-4.2-6.2l6.2-2.1c3.1-43,9.9-86.7,20.4-131
		c-0.4,0.1-0.8,0.2-1.2,0.2c-2.4,0-4.3-1.9-4.3-4.3c0-2.4,1.9-4.3,4.3-4.3c1.2,0,2.2,0.5,3,1.2c4.7-19.1,10.1-38.4,16.2-57.8
		c-1.2-0.8-2-2.1-2-3.6c0-2.4,1.9-4.3,4.3-4.3c0.1,0,0.1,0,0.2,0c3.8-11.6,7.7-23.3,12-35c-5,1.1-10,1.9-15,2.5
		C392.7,356.2,392.9,355.4,393.1,354.5z M94.3,484.2c-2.4,0-4.3-1.9-4.3-4.3c0-2.4,1.9-4.3,4.3-4.3c2.4,0,4.3,1.9,4.3,4.3
		C98.6,482.3,96.7,484.2,94.3,484.2z M94.3,441.2c-2.4,0-4.3-1.9-4.3-4.3c0-2.4,1.9-4.3,4.3-4.3c2.4,0,4.3,1.9,4.3,4.3
		C98.6,439.3,96.7,441.2,94.3,441.2z M115.8,548.7c-2.4,0-4.3-1.9-4.3-4.3c0-2.4,1.9-4.3,4.3-4.3c2.4,0,4.3,1.9,4.3,4.3
		C120.1,546.8,118.2,548.7,115.8,548.7z M115.8,505.7c-2.4,0-4.3-1.9-4.3-4.3c0-2.4,1.9-4.3,4.3-4.3c2.4,0,4.3,1.9,4.3,4.3
		C120.1,503.8,118.2,505.7,115.8,505.7z M115.8,462.7c-2.4,0-4.3-1.9-4.3-4.3c0-2.4,1.9-4.3,4.3-4.3c2.4,0,4.3,1.9,4.3,4.3
		C120.1,460.8,118.2,462.7,115.8,462.7z M115.8,419.7c-2.4,0-4.3-1.9-4.3-4.3c0-2.4,1.9-4.3,4.3-4.3c2.4,0,4.3,1.9,4.3,4.3
		C120.1,417.8,118.2,419.7,115.8,419.7z M137.3,389.6c2.4,0,4.3,1.9,4.3,4.3c0,2.4-1.9,4.3-4.3,4.3c-2.4,0-4.3-1.9-4.3-4.3
		C133,391.5,134.9,389.6,137.3,389.6z M137.3,570.2c-2.4,0-4.3-1.9-4.3-4.3c0-2.4,1.9-4.3,4.3-4.3c2.4,0,4.3,1.9,4.3,4.3
		C141.6,568.3,139.7,570.2,137.3,570.2z M137.3,527.2c-2.4,0-4.3-1.9-4.3-4.3c0-2.4,1.9-4.3,4.3-4.3c2.4,0,4.3,1.9,4.3,4.3
		C141.6,525.3,139.7,527.2,137.3,527.2z M137.3,484.2c-2.4,0-4.3-1.9-4.3-4.3c0-2.4,1.9-4.3,4.3-4.3c2.4,0,4.3,1.9,4.3,4.3
		C141.6,482.3,139.7,484.2,137.3,484.2z M141,439c-0.7,1.3-2.1,2.2-3.7,2.2c-2.4,0-4.3-1.9-4.3-4.3c0-2.1,1.5-3.9,3.5-4.2l-2.5-3.6
		l2.1-10l5,4.2l-0.8,2.9l3.3,7.5l0.4,9.6L141,439z M158.8,591.7c-2.4,0-4.3-1.9-4.3-4.3c0-2.4,1.9-4.3,4.3-4.3
		c2.4,0,4.3,1.9,4.3,4.3C163.1,589.8,161.2,591.7,158.8,591.7z M158.8,548.7c-2.4,0-4.3-1.9-4.3-4.3c0-2.4,1.9-4.3,4.3-4.3
		c2.4,0,4.3,1.9,4.3,4.3C163.1,546.8,161.2,548.7,158.8,548.7z M158.8,505.7c-2.4,0-4.3-1.9-4.3-4.3c0-2.4,1.9-4.3,4.3-4.3
		c2.4,0,4.3,1.9,4.3,4.3C163.1,503.8,161.2,505.7,158.8,505.7z M180.3,613.2c-2.4,0-4.3-1.9-4.3-4.3c0-2.4,1.9-4.3,4.3-4.3
		c2.4,0,4.3,1.9,4.3,4.3C184.6,611.3,182.7,613.2,180.3,613.2z M180.3,570.2c-2.4,0-4.3-1.9-4.3-4.3c0-2.4,1.9-4.3,4.3-4.3
		c2.4,0,4.3,1.9,4.3,4.3C184.6,568.3,182.7,570.2,180.3,570.2z M180.3,527.2c-2.4,0-4.3-1.9-4.3-4.3c0-2.4,1.9-4.3,4.3-4.3
		c2.4,0,4.3,1.9,4.3,4.3C184.6,525.3,182.7,527.2,180.3,527.2z M180.3,484.2c-2.4,0-4.3-1.9-4.3-4.3c0-2.4,1.9-4.3,4.3-4.3
		c2.4,0,4.3,1.9,4.3,4.3C184.6,482.3,182.7,484.2,180.3,484.2z M201.8,591.7c-2.4,0-4.3-1.9-4.3-4.3c0-2.4,1.9-4.3,4.3-4.3
		c2.4,0,4.3,1.9,4.3,4.3C206.1,589.8,204.2,591.7,201.8,591.7z M201.8,548.7c-2.4,0-4.3-1.9-4.3-4.3c0-2.4,1.9-4.3,4.3-4.3
		c2.4,0,4.3,1.9,4.3,4.3C206.1,546.8,204.2,548.7,201.8,548.7z M201.8,505.7c-2.4,0-4.3-1.9-4.3-4.3c0-2.4,1.9-4.3,4.3-4.3
		c2.4,0,4.3,1.9,4.3,4.3C206.1,503.8,204.2,505.7,201.8,505.7z M201.8,462.7c-2.4,0-4.3-1.9-4.3-4.3c0-2.4,1.9-4.3,4.3-4.3
		c2.4,0,4.3,1.9,4.3,4.3C206.1,460.8,204.2,462.7,201.8,462.7z M201.8,419.7c-2.4,0-4.3-1.9-4.3-4.3c0-2.4,1.9-4.3,4.3-4.3
		c2.4,0,4.3,1.9,4.3,4.3C206.1,417.8,204.2,419.7,201.8,419.7z M223.3,484.2c-2.4,0-4.3-1.9-4.3-4.3c0-2.4,1.9-4.3,4.3-4.3
		c2.4,0,4.3,1.9,4.3,4.3C227.6,482.3,225.7,484.2,223.3,484.2z M223.3,441.2c-2.4,0-4.3-1.9-4.3-4.3c0-2.4,1.9-4.3,4.3-4.3
		c2.4,0,4.3,1.9,4.3,4.3C227.6,439.3,225.7,441.2,223.3,441.2z M223.3,398.2c-2.4,0-4.3-1.9-4.3-4.3c0-2.4,1.9-4.3,4.3-4.3
		c2.4,0,4.3,1.9,4.3,4.3C227.6,396.3,225.7,398.2,223.3,398.2z M244.8,505.7c-2.4,0-4.3-1.9-4.3-4.3c0-2.4,1.9-4.3,4.3-4.3
		c2.4,0,4.3,1.9,4.3,4.3C249.1,503.8,247.2,505.7,244.8,505.7z M244.8,462.7c-2.4,0-4.3-1.9-4.3-4.3c0-2.4,1.9-4.3,4.3-4.3
		c2.4,0,4.3,1.9,4.3,4.3C249.1,460.8,247.2,462.7,244.8,462.7z M244.8,419.7c-2.4,0-4.3-1.9-4.3-4.3c0-2.4,1.9-4.3,4.3-4.3
		c2.4,0,4.3,1.9,4.3,4.3C249.1,417.8,247.2,419.7,244.8,419.7z M266.3,432.6c2.4,0,4.3,1.9,4.3,4.3c0,2.4-1.9,4.3-4.3,4.3
		c-2.4,0-4.3-1.9-4.3-4.3C262,434.5,264,432.6,266.3,432.6z M266.3,475.6c2.4,0,4.3,1.9,4.3,4.3c0,2.4-1.9,4.3-4.3,4.3
		c-2.4,0-4.3-1.9-4.3-4.3C262,477.5,264,475.6,266.3,475.6z M266.3,518.6c2.4,0,4.3,1.9,4.3,4.3c0,2.4-1.9,4.3-4.3,4.3
		c-2.4,0-4.3-1.9-4.3-4.3C262,520.5,264,518.6,266.3,518.6z M266.3,570.2c-2.4,0-4.3-1.9-4.3-4.3c0-2.4,1.9-4.3,4.3-4.3
		c2.4,0,4.3,1.9,4.3,4.3C270.6,568.3,268.7,570.2,266.3,570.2z M280.6,577.7l-10-14.6l2.1-10l4.6,4.2v3.3l3.3,7.5V577.7z
		 M287.8,591.7c-2.4,0-4.3-1.9-4.3-4.3c0-2.4,1.9-4.3,4.3-4.3c2.4,0,4.3,1.9,4.3,4.3C292.1,589.8,290.2,591.7,287.8,591.7z
		 M287.8,548.7c-2.4,0-4.3-1.9-4.3-4.3c0-2.4,1.9-4.3,4.3-4.3c2.4,0,4.3,1.9,4.3,4.3C292.1,546.8,290.2,548.7,287.8,548.7z
		 M287.8,505.7c-2.4,0-4.3-1.9-4.3-4.3c0-2.4,1.9-4.3,4.3-4.3c2.4,0,4.3,1.9,4.3,4.3C292.1,503.8,290.2,505.7,287.8,505.7z
		 M309.3,570.2c-2.4,0-4.3-1.9-4.3-4.3c0-2.4,1.9-4.3,4.3-4.3c2.4,0,4.3,1.9,4.3,4.3C313.6,568.3,311.7,570.2,309.3,570.2z
		 M309.3,527.2c-2.4,0-4.3-1.9-4.3-4.3c0-2.4,1.9-4.3,4.3-4.3c2.4,0,4.3,1.9,4.3,4.3C313.6,525.3,311.7,527.2,309.3,527.2z
		 M309.3,484.2c-2.4,0-4.3-1.9-4.3-4.3c0-2.4,1.9-4.3,4.3-4.3c2.4,0,4.3,1.9,4.3,4.3C313.6,482.3,311.7,484.2,309.3,484.2z
		 M309.3,441.2c-2.4,0-4.3-1.9-4.3-4.3c0-2.4,1.9-4.3,4.3-4.3c2.4,0,4.3,1.9,4.3,4.3C313.6,439.3,311.7,441.2,309.3,441.2z
		 M309.3,398.2c-2.4,0-4.3-1.9-4.3-4.3c0-2.4,1.9-4.3,4.3-4.3c2.4,0,4.3,1.9,4.3,4.3C313.6,396.3,311.7,398.2,309.3,398.2z
		 M330.8,591.7c-2.4,0-4.3-1.9-4.3-4.3c0-2.4,1.9-4.3,4.3-4.3c2.4,0,4.3,1.9,4.3,4.3C335.1,589.8,333.2,591.7,330.8,591.7z
		 M330.8,548.7c-2.4,0-4.3-1.9-4.3-4.3c0-2.4,1.9-4.3,4.3-4.3c2.4,0,4.3,1.9,4.3,4.3C335.1,546.8,333.2,548.7,330.8,548.7z
		 M330.8,505.7c-2.4,0-4.3-1.9-4.3-4.3c0-2.4,1.9-4.3,4.3-4.3c2.4,0,4.3,1.9,4.3,4.3C335.1,503.8,333.2,505.7,330.8,505.7z
		 M330.8,462.7c-2.4,0-4.3-1.9-4.3-4.3c0-2.4,1.9-4.3,4.3-4.3c2.4,0,4.3,1.9,4.3,4.3C335.1,460.8,333.2,462.7,330.8,462.7z
		 M330.8,419.7c-2.4,0-4.3-1.9-4.3-4.3c0-2.4,1.9-4.3,4.3-4.3c2.4,0,4.3,1.9,4.3,4.3C335.1,417.8,333.2,419.7,330.8,419.7z
		 M330.8,376.7c-2.4,0-4.3-1.9-4.3-4.3c0-2.4,1.9-4.3,4.3-4.3c2.4,0,4.3,1.9,4.3,4.3C335.1,374.8,333.2,376.7,330.8,376.7z
		 M352.4,570.2c-2.4,0-4.3-1.9-4.3-4.3c0-2.4,1.9-4.3,4.3-4.3c2.4,0,4.3,1.9,4.3,4.3C356.6,568.3,354.7,570.2,352.4,570.2z
		 M352.4,527.2c-2.4,0-4.3-1.9-4.3-4.3c0-2.4,1.9-4.3,4.3-4.3c2.4,0,4.3,1.9,4.3,4.3C356.6,525.3,354.7,527.2,352.4,527.2z
		 M352.4,484.2c-2.4,0-4.3-1.9-4.3-4.3c0-2.4,1.9-4.3,4.3-4.3c2.4,0,4.3,1.9,4.3,4.3C356.6,482.3,354.7,484.2,352.4,484.2z
		 M352.4,441.2c-2.4,0-4.3-1.9-4.3-4.3c0-2.4,1.9-4.3,4.3-4.3c2.4,0,4.3,1.9,4.3,4.3C356.6,439.3,354.7,441.2,352.4,441.2z
		 M352.4,398.2c-2.4,0-4.3-1.9-4.3-4.3c0-2.4,1.9-4.3,4.3-4.3c2.4,0,4.3,1.9,4.3,4.3C356.6,396.3,354.7,398.2,352.4,398.2z
		 M363.4,383.7l-1.2,7.9l-4.6,7.5l-1.2-16.6l7.1-6.7l2.1,5.8L363.4,383.7z M363.4,348.8l-1.2,12.1l-6.7,12.5l-1.8-18.4
		c-0.4,0.1-0.9,0.2-1.3,0.2c-2.4,0-4.3-1.9-4.3-4.3c0-2.4,1.9-4.3,4.3-4.3c0.6,0,1.1,0.1,1.6,0.3l8.6-9.4l3.7,8.3L363.4,348.8z
		 M373.9,419.7c-2.4,0-4.3-1.9-4.3-4.3c0-2.4,1.9-4.3,4.3-4.3c2.4,0,4.3,1.9,4.3,4.3C378.2,417.8,376.2,419.7,373.9,419.7z
		 M373.9,376.7c-2.4,0-4.3-1.9-4.3-4.3c0-2.4,1.9-4.3,4.3-4.3c2.4,0,4.3,1.9,4.3,4.3C378.2,374.8,376.2,376.7,373.9,376.7z"/>
	<path fill="#F6F6F6" d="M391.1,393.9c0,1.5,0.8,2.8,2,3.6c0.8-2.6,1.7-5.3,2.5-7.9c-0.1,0-0.1,0-0.2,0
		C393,389.6,391.1,391.5,391.1,393.9z"/>
	<path fill="#F6F6F6" d="M352.4,389.6c-2.4,0-4.3,1.9-4.3,4.3c0,2.4,1.9,4.3,4.3,4.3c2.4,0,4.3-1.9,4.3-4.3
		C356.6,391.5,354.7,389.6,352.4,389.6z"/>
	<path fill="#F6F6F6" d="M353.9,346.9c-0.5-0.2-1-0.3-1.6-0.3c-2.4,0-4.3,1.9-4.3,4.3c0,2.4,1.9,4.3,4.3,4.3c0.5,0,0.9-0.1,1.3-0.2
		l-0.7-7L353.9,346.9z"/>
	<path fill="#F6F6F6" d="M391.1,350.9c0,1.6,0.8,2.9,2.1,3.7c0.7-2.8,1.3-5.5,1.9-7.9C392.8,346.8,391.1,348.6,391.1,350.9z"/>
	<path fill="#F6F6F6" d="M373.9,368.1c-2.4,0-4.3,1.9-4.3,4.3c0,2.4,1.9,4.3,4.3,4.3c2.4,0,4.3-1.9,4.3-4.3
		C378.2,370,376.2,368.1,373.9,368.1z"/>
	<path fill="#F6F6F6" d="M330.8,368.1c-2.4,0-4.3,1.9-4.3,4.3c0,2.4,1.9,4.3,4.3,4.3c2.4,0,4.3-1.9,4.3-4.3
		C335.1,370,333.2,368.1,330.8,368.1z"/>
	<path fill="#F6F6F6" d="M309.3,389.6c-2.4,0-4.3,1.9-4.3,4.3c0,2.4,1.9,4.3,4.3,4.3c2.4,0,4.3-1.9,4.3-4.3
		C313.6,391.5,311.7,389.6,309.3,389.6z"/>
	<path fill="#F6F6F6" d="M352.4,475.6c-2.4,0-4.3,1.9-4.3,4.3c0,2.4,1.9,4.3,4.3,4.3c2.4,0,4.3-1.9,4.3-4.3
		C356.6,477.5,354.7,475.6,352.4,475.6z"/>
	<path fill="#F6F6F6" d="M352.4,432.6c-2.4,0-4.3,1.9-4.3,4.3c0,2.4,1.9,4.3,4.3,4.3c2.4,0,4.3-1.9,4.3-4.3
		C356.6,434.5,354.7,432.6,352.4,432.6z"/>
	<path fill="#F6F6F6" d="M369.6,458.4c0,2.4,1.9,4.3,4.3,4.3c0.4,0,0.8-0.1,1.2-0.2c0.6-2.4,1.2-4.8,1.8-7.2c-0.8-0.7-1.8-1.2-3-1.2
		C371.5,454.1,369.6,456,369.6,458.4z"/>
	<path fill="#F6F6F6" d="M330.8,454.1c-2.4,0-4.3,1.9-4.3,4.3c0,2.4,1.9,4.3,4.3,4.3c2.4,0,4.3-1.9,4.3-4.3
		C335.1,456,333.2,454.1,330.8,454.1z"/>
	<path fill="#F6F6F6" d="M373.9,411.1c-2.4,0-4.3,1.9-4.3,4.3c0,2.4,1.9,4.3,4.3,4.3c2.4,0,4.3-1.9,4.3-4.3
		C378.2,413,376.2,411.1,373.9,411.1z"/>
	<path fill="#F6F6F6" d="M330.8,411.1c-2.4,0-4.3,1.9-4.3,4.3c0,2.4,1.9,4.3,4.3,4.3c2.4,0,4.3-1.9,4.3-4.3
		C335.1,413,333.2,411.1,330.8,411.1z"/>
	<path fill="#F6F6F6" d="M309.3,475.6c-2.4,0-4.3,1.9-4.3,4.3c0,2.4,1.9,4.3,4.3,4.3c2.4,0,4.3-1.9,4.3-4.3
		C313.6,477.5,311.7,475.6,309.3,475.6z"/>
	<path fill="#F6F6F6" d="M309.3,432.6c-2.4,0-4.3,1.9-4.3,4.3c0,2.4,1.9,4.3,4.3,4.3c2.4,0,4.3-1.9,4.3-4.3
		C313.6,434.5,311.7,432.6,309.3,432.6z"/>
	<path fill="#F6F6F6" d="M352.4,561.6c-2.4,0-4.3,1.9-4.3,4.3c0,2.4,1.9,4.3,4.3,4.3c2.4,0,4.3-1.9,4.3-4.3
		C356.6,563.5,354.7,561.6,352.4,561.6z"/>
	<path fill="#F6F6F6" d="M352.4,518.6c-2.4,0-4.3,1.9-4.3,4.3c0,2.4,1.9,4.3,4.3,4.3c2.4,0,4.3-1.9,4.3-4.3
		C356.6,520.5,354.7,518.6,352.4,518.6z"/>
	<path fill="#F6F6F6" d="M330.8,540.1c-2.4,0-4.3,1.9-4.3,4.3c0,2.4,1.9,4.3,4.3,4.3c2.4,0,4.3-1.9,4.3-4.3
		C335.1,542,333.2,540.1,330.8,540.1z"/>
	<path fill="#F6F6F6" d="M330.8,497.1c-2.4,0-4.3,1.9-4.3,4.3c0,2.4,1.9,4.3,4.3,4.3c2.4,0,4.3-1.9,4.3-4.3
		C335.1,499,333.2,497.1,330.8,497.1z"/>
	<path fill="#F6F6F6" d="M309.3,561.6c-2.4,0-4.3,1.9-4.3,4.3c0,2.4,1.9,4.3,4.3,4.3c2.4,0,4.3-1.9,4.3-4.3
		C313.6,563.5,311.7,561.6,309.3,561.6z"/>
	<path fill="#F6F6F6" d="M309.3,518.6c-2.4,0-4.3,1.9-4.3,4.3c0,2.4,1.9,4.3,4.3,4.3c2.4,0,4.3-1.9,4.3-4.3
		C313.6,520.5,311.7,518.6,309.3,518.6z"/>
	<path fill="#F6F6F6" d="M330.8,583.1c-2.4,0-4.3,1.9-4.3,4.3c0,2.4,1.9,4.3,4.3,4.3c2.4,0,4.3-1.9,4.3-4.3
		C335.1,585,333.2,583.1,330.8,583.1z"/>
	<path fill="#F6F6F6" d="M309.3,604.6c-2.4,0-4.3,1.9-4.3,4.3c0,1.8,1.1,3.3,2.6,3.9c1.8-0.5,3.6-1.1,5.3-1.6
		c0.4-0.7,0.7-1.5,0.7-2.3C313.6,606.5,311.7,604.6,309.3,604.6z"/>
	<path fill="#F6F6F6" d="M309.7,355c0,0,0,0.1,0,0.1c0.8-0.1,1.6-0.3,2.2-0.8C311.1,354.6,310.4,354.8,309.7,355z"/>
	<path fill="#F6F6F6" d="M240.5,372.4c0,2.4,1.9,4.3,4.3,4.3c2.4,0,4.3-1.9,4.3-4.3c0-0.6-0.1-1.2-0.4-1.8c-0.1,0-0.1,0-0.2,0
		c-2.4,0.4-3.4-0.4-3-2.5c-0.2,0-0.5-0.1-0.7-0.1C242.5,368.1,240.5,370,240.5,372.4z"/>
	<circle fill="#F6F6F6" cx="266.3" cy="479.9" r="4.3"/>
	<circle fill="#F6F6F6" cx="266.3" cy="436.9" r="4.3"/>
	<path fill="#F6F6F6" d="M291.7,456.6c-0.1,1.5-0.3,2.9-0.4,4.3c0.5-0.7,0.8-1.6,0.8-2.5C292.1,457.7,292,457.1,291.7,456.6z"/>
	<path fill="#F6F6F6" d="M244.8,454.1c-2.4,0-4.3,1.9-4.3,4.3c0,2.4,1.9,4.3,4.3,4.3c2.4,0,4.3-1.9,4.3-4.3
		C249.1,456,247.2,454.1,244.8,454.1z"/>
	<path fill="#F6F6F6" d="M244.8,411.1c-2.4,0-4.3,1.9-4.3,4.3c0,2.4,1.9,4.3,4.3,4.3c2.4,0,4.3-1.9,4.3-4.3
		C249.1,413,247.2,411.1,244.8,411.1z"/>
	<path fill="#F6F6F6" d="M223.3,432.6c-2.4,0-4.3,1.9-4.3,4.3c0,2.4,1.9,4.3,4.3,4.3c2.4,0,4.3-1.9,4.3-4.3
		C227.6,434.5,225.7,432.6,223.3,432.6z"/>
	<path fill="#F6F6F6" d="M266.3,561.6c-2.4,0-4.3,1.9-4.3,4.3c0,2.4,1.9,4.3,4.3,4.3c2.4,0,4.3-1.9,4.3-4.3
		C270.6,563.5,268.7,561.6,266.3,561.6z"/>
	<circle fill="#F6F6F6" cx="266.3" cy="522.9" r="4.3"/>
	<path fill="#F6F6F6" d="M287.8,540.1c-2.4,0-4.3,1.9-4.3,4.3c0,2.4,1.9,4.3,4.3,4.3c2.4,0,4.3-1.9,4.3-4.3
		C292.1,542,290.2,540.1,287.8,540.1z"/>
	<path fill="#F6F6F6" d="M248,541.5c0.3,1.3,0.6,2.6,1,3.9c0.1-0.3,0.1-0.7,0.1-1C249.1,543.3,248.7,542.3,248,541.5z"/>
	<path fill="#F6F6F6" d="M287.8,497.1c-2.4,0-4.3,1.9-4.3,4.3c0,2.4,1.9,4.3,4.3,4.3c2.4,0,4.3-1.9,4.3-4.3
		C292.1,499,290.2,497.1,287.8,497.1z"/>
	<path fill="#F6F6F6" d="M244.8,497.1c-2.4,0-4.3,1.9-4.3,4.3c0,2.4,1.9,4.3,4.3,4.3c2.4,0,4.3-1.9,4.3-4.3
		C249.1,499,247.2,497.1,244.8,497.1z"/>
	<path fill="#F6F6F6" d="M219,522.9c0,1,0.3,1.9,0.9,2.6c0.2-2,0.4-4,0.6-5.9C219.6,520.4,219,521.6,219,522.9z"/>
	<path fill="#F6F6F6" d="M270.6,608.9c0-2.3-1.8-4.2-4.1-4.3c0.8,2.5,1.7,5,2.5,7.6C270,611.4,270.6,610.2,270.6,608.9z"/>
	<path fill="#F6F6F6" d="M287.8,583.1c-2.4,0-4.3,1.9-4.3,4.3c0,2.4,1.9,4.3,4.3,4.3c2.4,0,4.3-1.9,4.3-4.3
		C292.1,585,290.2,583.1,287.8,583.1z"/>
	<path fill="#F6F6F6" d="M184.6,436.9c0-1-0.4-1.9-0.9-2.6c-1.3,2.4-2.5,4.7-3.7,6.9c0.1,0,0.2,0,0.3,0
		C182.7,441.2,184.6,439.3,184.6,436.9z"/>
	<path fill="#F6F6F6" d="M201.8,454.1c-2.4,0-4.3,1.9-4.3,4.3c0,2.4,1.9,4.3,4.3,4.3c2.4,0,4.3-1.9,4.3-4.3
		C206.1,456,204.2,454.1,201.8,454.1z"/>
	<path fill="#F6F6F6" d="M154.5,458.4c0,2.4,1.9,4.3,4.3,4.3c1.2,0,2.3-0.5,3.1-1.3c-0.4-2.3-0.8-4.6-1.2-6.9
		c-0.6-0.3-1.2-0.4-1.8-0.4C156.5,454.1,154.5,456,154.5,458.4z"/>
	<path fill="#F6F6F6" d="M201.8,411.1c-2.4,0-4.3,1.9-4.3,4.3c0,2.4,1.9,4.3,4.3,4.3c2.4,0,4.3-1.9,4.3-4.3
		C206.1,413,204.2,411.1,201.8,411.1z"/>
	<path fill="#F6F6F6" d="M155.1,417.5c-0.1-1.2-0.3-2.3-0.4-3.4c-0.1,0.4-0.2,0.8-0.2,1.3C154.5,416.2,154.8,416.9,155.1,417.5z"/>
	<path fill="#F6F6F6" d="M133,436.9c0,2.4,1.9,4.3,4.3,4.3c1.6,0,3-0.9,3.7-2.2l-4.5-6.3C134.6,433,133,434.8,133,436.9z"/>
	<path fill="#F6F6F6" d="M223.3,389.6c-2.4,0-4.3,1.9-4.3,4.3c0,2.4,1.9,4.3,4.3,4.3c2.4,0,4.3-1.9,4.3-4.3
		C227.6,391.5,225.7,389.6,223.3,389.6z"/>
	<path fill="#F6F6F6" d="M180.3,518.6c-2.4,0-4.3,1.9-4.3,4.3c0,2.4,1.9,4.3,4.3,4.3c2.4,0,4.3-1.9,4.3-4.3
		C184.6,520.5,182.7,518.6,180.3,518.6z"/>
	<path fill="#F6F6F6" d="M201.8,540.1c-2.4,0-4.3,1.9-4.3,4.3c0,2.4,1.9,4.3,4.3,4.3c2.4,0,4.3-1.9,4.3-4.3
		C206.1,542,204.2,540.1,201.8,540.1z"/>
	<circle fill="#F6F6F6" cx="158.8" cy="544.4" r="4.3"/>
	<path fill="#F6F6F6" d="M201.8,497.1c-2.4,0-4.3,1.9-4.3,4.3c0,2.4,1.9,4.3,4.3,4.3c2.4,0,4.3-1.9,4.3-4.3
		C206.1,499,204.2,497.1,201.8,497.1z"/>
	<circle fill="#F6F6F6" cx="158.8" cy="501.4" r="4.3"/>
	<circle fill="#F6F6F6" cx="137.3" cy="522.9" r="4.3"/>
	<path fill="#F6F6F6" d="M180.3,475.6c-2.4,0-4.3,1.9-4.3,4.3c0,2.4,1.9,4.3,4.3,4.3c2.4,0,4.3-1.9,4.3-4.3
		C184.6,477.5,182.7,475.6,180.3,475.6z"/>
	<path fill="#F6F6F6" d="M223.3,475.6c-2.4,0-4.3,1.9-4.3,4.3c0,2.4,1.9,4.3,4.3,4.3c2.4,0,4.3-1.9,4.3-4.3
		C227.6,477.5,225.7,475.6,223.3,475.6z"/>
	<path fill="#F6F6F6" d="M180.3,604.6c-2.4,0-4.3,1.9-4.3,4.3c0,2.4,1.9,4.3,4.3,4.3c2.4,0,4.3-1.9,4.3-4.3
		C184.6,606.5,182.7,604.6,180.3,604.6z"/>
	<path fill="#F6F6F6" d="M161,626.7l-0.3,3.4l1.4,3c0.6-0.7,1-1.7,1-2.7C163.1,628.8,162.3,627.5,161,626.7z"/>
	<path fill="#F6F6F6" d="M201.8,583.1c-2.4,0-4.3,1.9-4.3,4.3c0,2.4,1.9,4.3,4.3,4.3c2.4,0,4.3-1.9,4.3-4.3
		C206.1,585,204.2,583.1,201.8,583.1z"/>
	<circle fill="#F6F6F6" cx="158.8" cy="587.4" r="4.3"/>
	<path fill="#F6F6F6" d="M137.3,613.2c2.4,0,4.3-1.9,4.3-4.3c0-2.4-1.9-4.3-4.3-4.3c-2.4,0-4.3,1.9-4.3,4.3c0,0.4,0.1,0.8,0.2,1.1
		c0.1,0.3,0.2,0.6,0.3,0.9C134.2,612.3,135.7,613.2,137.3,613.2z"/>
	<path fill="#F6F6F6" d="M180.3,561.6c-2.4,0-4.3,1.9-4.3,4.3c0,2.4,1.9,4.3,4.3,4.3c2.4,0,4.3-1.9,4.3-4.3
		C184.6,563.5,182.7,561.6,180.3,561.6z"/>
	<path fill="#F6F6F6" d="M94.3,432.6c-2.4,0-4.3,1.9-4.3,4.3c0,2.4,1.9,4.3,4.3,4.3c2.4,0,4.3-1.9,4.3-4.3
		C98.6,434.5,96.7,432.6,94.3,432.6z"/>
	<path fill="#F6F6F6" d="M115.8,454.1c-2.4,0-4.3,1.9-4.3,4.3c0,2.4,1.9,4.3,4.3,4.3c2.4,0,4.3-1.9,4.3-4.3
		C120.1,456,118.2,454.1,115.8,454.1z"/>
	<path fill="#F6F6F6" d="M115.8,411.1c-2.4,0-4.3,1.9-4.3,4.3c0,2.4,1.9,4.3,4.3,4.3c2.4,0,4.3-1.9,4.3-4.3
		C120.1,413,118.2,411.1,115.8,411.1z"/>
	<path fill="#F6F6F6" d="M74.9,411.7c0.3,2.2,0.7,4.4,1,6.6c0.7-0.8,1.2-1.8,1.2-2.9C77.1,413.8,76.2,412.4,74.9,411.7z"/>
	<path fill="#F6F6F6" d="M94.3,398.2c2.4,0,4.3-1.9,4.3-4.3c0-0.4-0.1-0.8-0.2-1.1c-1.8,0.5-4.6,1.3-8.2,2.3
		C90.7,396.9,92.4,398.2,94.3,398.2z"/>
	<circle fill="#F6F6F6" cx="137.3" cy="393.9" r="4.3"/>
	<path fill="#F6F6F6" d="M115.8,540.1c-2.4,0-4.3,1.9-4.3,4.3c0,2.4,1.9,4.3,4.3,4.3c2.4,0,4.3-1.9,4.3-4.3
		C120.1,542,118.2,540.1,115.8,540.1z"/>
	<path fill="#F6F6F6" d="M115.8,497.1c-2.4,0-4.3,1.9-4.3,4.3c0,2.4,1.9,4.3,4.3,4.3c2.4,0,4.3-1.9,4.3-4.3
		C120.1,499,118.2,497.1,115.8,497.1z"/>
	<path fill="#F6F6F6" d="M94.3,475.6c-2.4,0-4.3,1.9-4.3,4.3c0,2.4,1.9,4.3,4.3,4.3c2.4,0,4.3-1.9,4.3-4.3
		C98.6,477.5,96.7,475.6,94.3,475.6z"/>
	<circle fill="#F6F6F6" cx="137.3" cy="479.9" r="4.3"/>
	<circle fill="#F6F6F6" cx="137.3" cy="565.9" r="4.3"/>
</g>
<g>
	<polygon fill="none" points="449.5,425.8 447,430.8 449.5,439.9 451.2,434.5 450.8,429.9 451.2,428.7 	"/>
	<polygon fill="none" points="463.6,589.5 463.3,588.9 462.3,590.9 459.1,597.7 463.3,612.7 466.2,603.9 464.9,596.4 466.2,593.5 	
		"/>
	<polygon fill="none" points="440,393.3 437.5,389.7 436.6,388.3 435.3,390.9 434.1,393.1 432.1,397.1 436.6,412.5 440,403.3 
		439.1,398.1 438.7,395.8 	"/>
	<linearGradient id="SVGID_2_" gradientUnits="userSpaceOnUse" x1="452.6544" y1="723.5888" x2="452.6544" y2="227.4618">
		<stop  offset="0" style="stop-color:#36A9E1"/>
		<stop  offset="1" style="stop-color:#00A19A"/>
	</linearGradient>
	<path fill="url(#SVGID_2_)" d="M492.2,363.3c-0.1-1.9-0.9-2.6-2.3-2.1c0-1.9-1.2-3.5-3.7-4.8c-1.1-0.5-1.9-1.2-2.5-2
		c-0.7,0.4-1.5,0.7-2.3,0.7c-1.6,0-2.9-0.9-3.7-2.1c-4.1,1.7-8.5,3.3-13.2,4.9l-6.2,7.9l1.1,2.3c0.1,0,0.3,0,0.4,0
		c2.4,0,4.3,1.9,4.3,4.3c0,2.4-1.9,4.3-4.3,4.3c-0.3,0-0.5,0-0.8-0.1l0.8,7.5l-3.7,12.9l-7.1-22.1l2.9-5.8
		c-1.9-4.7-3.3-8.2-4.2-10.4c-11,4.5-20.1,8.2-27.5,11.1c0.5,0.7,0.8,1.5,0.8,2.5c0,2.4-1.9,4.3-4.3,4.3c-2.2,0-3.9-1.6-4.2-3.7
		c-0.6,0.2-1.2,0.5-1.8,0.7c0.2,25.5,1,53,2.4,82.3c0.8-1.2,2.1-1.9,3.6-1.9c2.4,0,4.3,1.9,4.3,4.3c0,2.4-1.9,4.3-4.3,4.3
		c-1.4,0-2.5-0.6-3.3-1.6c0.6,11.8,1.3,23.8,2.1,36.2c0.4-0.1,0.8-0.2,1.2-0.2c2.4,0,4.3,1.9,4.3,4.3c0,2.4-1.9,4.3-4.3,4.3
		c-0.2,0-0.4,0-0.7-0.1c0.8,11.4,1.6,23,2.6,34.9c1.4,0.7,2.4,2.2,2.4,3.8c0,1.4-0.7,2.7-1.8,3.5c2.8,34.9,6.4,71.9,10.6,111
		c1.6-1.7,3.4-3,5.1-4.2c-0.6-0.7-1-1.7-1-2.8c0-2.4,1.9-4.3,4.3-4.3c2.4,0,4.3,1.9,4.3,4.3c0,1.2-0.5,2.3-1.3,3.1l2.8,2.6
		c2.8-5.3,5.3-9.3,7.5-12.1L447,631l7.5-14.6l4.6,7.9l-0.8,2.1c0.5-0.2,1-0.3,1.6-0.3c2.4,0,4.3,1.9,4.3,4.3c0,2.4-1.9,4.3-4.3,4.3
		c-0.5,0-1-0.1-1.5-0.3l0.3,1.9c4.7,6.4,8.5,11.1,11.2,14.2c5.3-2.5,9-4.3,11.2-5.4c-0.3-2.2-0.7-8.3-1.2-18.3
		c-0.6-5.5-1-10.3-1.2-14.5c-1-0.8-1.7-2-1.7-3.4c0-1.4,0.7-2.7,1.8-3.5c0.2-1.5,0.4-3.2,0.9-5.3c0.7-3.3,1-5.5,1-6.7
		c0.6-4.2,0.8-11.8,0.8-22.9c0-0.1,0-0.3,0-0.4c-0.1,0-0.1,0-0.2,0c-2.4,0-4.3-1.9-4.3-4.3c0-2.4,1.9-4.3,4.3-4.3c0.1,0,0.2,0,0.3,0
		c0.1-11.4,0.3-22.9,0.6-34.5c-0.3,0.1-0.6,0.1-0.9,0.1c-2.4,0-4.3-1.9-4.3-4.3c0-2.4,1.9-4.3,4.3-4.3c0.4,0,0.8,0.1,1.1,0.2
		c0.4-11.8,1-23.6,1.6-35.6c-0.7,0.6-1.7,1-2.8,1c-2.4,0-4.3-1.9-4.3-4.3c0-2.4,1.9-4.3,4.3-4.3c1.2,0,2.3,0.5,3.1,1.3
		c2.1-36.1,5.5-73.1,10-111.1l-1.2,0.4C492.7,366.3,492.3,365.3,492.2,363.3z M416.9,419.7c-2.4,0-4.3-1.9-4.3-4.3
		c0-2.4,1.9-4.3,4.3-4.3c2.4,0,4.3,1.9,4.3,4.3C421.2,417.8,419.2,419.7,416.9,419.7z M438.4,613.2c-2.4,0-4.3-1.9-4.3-4.3
		c0-2.4,1.9-4.3,4.3-4.3c2.4,0,4.3,1.9,4.3,4.3C442.7,611.3,440.7,613.2,438.4,613.2z M438.4,570.2c-2.4,0-4.3-1.9-4.3-4.3
		c0-2.4,1.9-4.3,4.3-4.3c2.4,0,4.3,1.9,4.3,4.3C442.7,568.3,440.7,570.2,438.4,570.2z M438.4,527.2c-2.4,0-4.3-1.9-4.3-4.3
		c0-2.4,1.9-4.3,4.3-4.3c2.4,0,4.3,1.9,4.3,4.3C442.7,525.3,440.7,527.2,438.4,527.2z M438.4,484.2c-2.4,0-4.3-1.9-4.3-4.3
		c0-2.4,1.9-4.3,4.3-4.3c2.4,0,4.3,1.9,4.3,4.3C442.7,482.3,440.7,484.2,438.4,484.2z M438.4,441.2c-2.4,0-4.3-1.9-4.3-4.3
		c0-2.4,1.9-4.3,4.3-4.3c2.4,0,4.3,1.9,4.3,4.3C442.7,439.3,440.7,441.2,438.4,441.2z M439.1,398.1l0.9,5.2l-3.3,9.2l-4.6-15.4
		l2.1-4c0.2-0.8,0.6-1.6,1.1-2.2l1.3-2.6l0.9,1.3c0.3-0.1,0.5-0.1,0.8-0.1c2.4,0,4.3,1.9,4.3,4.3C442.7,396,441.1,397.8,439.1,398.1
		z M451.2,434.5l-1.7,5.4l-2.5-9.2l2.5-5l1.7,2.9l-0.4,1.2L451.2,434.5z M459.9,411.1c2.4,0,4.3,1.9,4.3,4.3c0,2.4-1.9,4.3-4.3,4.3
		c-2.4,0-4.3-1.9-4.3-4.3C455.6,413,457.5,411.1,459.9,411.1z M459.9,454.1c2.4,0,4.3,1.9,4.3,4.3c0,2.4-1.9,4.3-4.3,4.3
		c-2.4,0-4.3-1.9-4.3-4.3C455.6,456,457.5,454.1,459.9,454.1z M459.9,497.1c2.4,0,4.3,1.9,4.3,4.3c0,2.4-1.9,4.3-4.3,4.3
		c-2.4,0-4.3-1.9-4.3-4.3C455.6,499,457.5,497.1,459.9,497.1z M459.9,540.1c2.4,0,4.3,1.9,4.3,4.3c0,2.4-1.9,4.3-4.3,4.3
		c-2.4,0-4.3-1.9-4.3-4.3C455.6,542,457.5,540.1,459.9,540.1z M466.2,603.9l-2.9,8.7l-4.2-15l3.2-6.7c-0.7,0.5-1.5,0.8-2.5,0.8
		c-2.4,0-4.3-1.9-4.3-4.3c0-2.4,1.9-4.3,4.3-4.3c2.4,0,4.3,1.9,4.3,4.3c0,0.8-0.2,1.5-0.6,2.1l2.6,4l-1.2,2.9L466.2,603.9z
		 M481.4,441.2c-2.4,0-4.3-1.9-4.3-4.3c0-2.4,1.9-4.3,4.3-4.3c2.4,0,4.3,1.9,4.3,4.3C485.7,439.3,483.7,441.2,481.4,441.2z
		 M481.4,398.2c-2.4,0-4.3-1.9-4.3-4.3c0-2.4,1.9-4.3,4.3-4.3c2.4,0,4.3,1.9,4.3,4.3C485.7,396.3,483.7,398.2,481.4,398.2z"/>
	<path fill="#F6F6F6" d="M481.4,389.6c-2.4,0-4.3,1.9-4.3,4.3c0,2.4,1.9,4.3,4.3,4.3c2.4,0,4.3-1.9,4.3-4.3
		C485.7,391.5,483.7,389.6,481.4,389.6z"/>
	<path fill="#F6F6F6" d="M481.4,475.6c-2.4,0-4.3,1.9-4.3,4.3c0,2.4,1.9,4.3,4.3,4.3c1.1,0,2-0.4,2.8-1c0.1-2.1,0.2-4.2,0.3-6.3
		C483.7,476.1,482.6,475.6,481.4,475.6z"/>
	<path fill="#F6F6F6" d="M481.4,432.6c-2.4,0-4.3,1.9-4.3,4.3c0,2.4,1.9,4.3,4.3,4.3c2.4,0,4.3-1.9,4.3-4.3
		C485.7,434.5,483.7,432.6,481.4,432.6z"/>
	<path fill="#F6F6F6" d="M477.1,565.9c0,2.4,1.9,4.3,4.3,4.3c0.1,0,0.1,0,0.2,0c0-2.8,0.1-5.7,0.1-8.6c-0.1,0-0.2,0-0.3,0
		C479,561.6,477.1,563.5,477.1,565.9z"/>
	<path fill="#F6F6F6" d="M477.1,522.9c0,2.4,1.9,4.3,4.3,4.3c0.3,0,0.6,0,0.9-0.1c0.1-2.8,0.1-5.6,0.2-8.3c-0.4-0.1-0.7-0.2-1.1-0.2
		C479,518.6,477.1,520.5,477.1,522.9z"/>
	<path fill="#F6F6F6" d="M477.1,608.9c0,1.4,0.7,2.6,1.7,3.4c-0.1-1.5-0.1-2.9-0.1-4.2c0-0.8,0.1-1.7,0.2-2.6
		C477.8,606.2,477.1,607.5,477.1,608.9z"/>
	<path fill="#F6F6F6" d="M438.4,389.6c-0.3,0-0.6,0-0.8,0.1l2.4,3.6l-1.2,2.5l0.4,2.3c2-0.3,3.6-2.1,3.6-4.2
		C442.7,391.5,440.7,389.6,438.4,389.6z"/>
	<path fill="#F6F6F6" d="M434.1,393.1l1.1-2.2C434.7,391.5,434.3,392.2,434.1,393.1z"/>
	<path fill="#F6F6F6" d="M481.4,355.2c0.9,0,1.7-0.3,2.3-0.7c-0.7-1-1-2.2-0.9-3.6c-1.7,0.7-3.4,1.5-5.2,2.2
		C478.4,354.3,479.8,355.2,481.4,355.2z"/>
	<path fill="#F6F6F6" d="M464.2,372.4c0-2.4-1.9-4.3-4.3-4.3c-0.2,0-0.3,0-0.4,0l0.5,1l-1.2,3.7l0.4,3.7c0.2,0,0.5,0.1,0.8,0.1
		C462.2,376.7,464.2,374.8,464.2,372.4z"/>
	<path fill="#F6F6F6" d="M416.9,376.7c2.4,0,4.3-1.9,4.3-4.3c0-0.9-0.3-1.8-0.8-2.5c-2.9,1.2-5.4,2.2-7.7,3.1
		C412.9,375.1,414.7,376.7,416.9,376.7z"/>
	<path fill="#F6F6F6" d="M438.4,475.6c-2.4,0-4.3,1.9-4.3,4.3c0,2.4,1.9,4.3,4.3,4.3c2.4,0,4.3-1.9,4.3-4.3
		C442.7,477.5,440.7,475.6,438.4,475.6z"/>
	<path fill="#F6F6F6" d="M438.4,432.6c-2.4,0-4.3,1.9-4.3,4.3c0,2.4,1.9,4.3,4.3,4.3c2.4,0,4.3-1.9,4.3-4.3
		C442.7,434.5,440.7,432.6,438.4,432.6z"/>
	<circle fill="#F6F6F6" cx="459.9" cy="458.4" r="4.3"/>
	<path fill="#F6F6F6" d="M416.9,462.7c2.4,0,4.3-1.9,4.3-4.3c0-2.4-1.9-4.3-4.3-4.3c-1.5,0-2.8,0.8-3.6,1.9c0.1,1.7,0.2,3.4,0.3,5.1
		C414.3,462.1,415.5,462.7,416.9,462.7z"/>
	<circle fill="#F6F6F6" cx="459.9" cy="415.4" r="4.3"/>
	<path fill="#F6F6F6" d="M416.9,411.1c-2.4,0-4.3,1.9-4.3,4.3c0,2.4,1.9,4.3,4.3,4.3c2.4,0,4.3-1.9,4.3-4.3
		C421.2,413,419.2,411.1,416.9,411.1z"/>
	<path fill="#F6F6F6" d="M438.4,561.6c-2.4,0-4.3,1.9-4.3,4.3c0,2.4,1.9,4.3,4.3,4.3c2.4,0,4.3-1.9,4.3-4.3
		C442.7,563.5,440.7,561.6,438.4,561.6z"/>
	<path fill="#F6F6F6" d="M438.4,518.6c-2.4,0-4.3,1.9-4.3,4.3c0,2.4,1.9,4.3,4.3,4.3c2.4,0,4.3-1.9,4.3-4.3
		C442.7,520.5,440.7,518.6,438.4,518.6z"/>
	<circle fill="#F6F6F6" cx="459.9" cy="544.4" r="4.3"/>
	<path fill="#F6F6F6" d="M421.2,544.4c0-1.7-1-3.1-2.4-3.8c0.2,2.4,0.4,4.9,0.6,7.3C420.4,547.1,421.2,545.8,421.2,544.4z"/>
	<circle fill="#F6F6F6" cx="459.9" cy="501.4" r="4.3"/>
	<path fill="#F6F6F6" d="M421.2,501.4c0-2.4-1.9-4.3-4.3-4.3c-0.4,0-0.8,0.1-1.2,0.2c0.2,2.8,0.4,5.5,0.5,8.3c0.2,0,0.4,0.1,0.7,0.1
		C419.2,505.7,421.2,503.8,421.2,501.4z"/>
	<path fill="#F6F6F6" d="M442.7,651.9c0-2.4-1.9-4.3-4.3-4.3c-2.4,0-4.3,1.9-4.3,4.3c0,1.1,0.4,2,1,2.8c1.2-0.8,2.4-1.5,3.6-2.1
		l2.6,2.4C442.1,654.2,442.7,653.1,442.7,651.9z"/>
	<path fill="#F6F6F6" d="M438.4,604.6c-2.4,0-4.3,1.9-4.3,4.3c0,2.4,1.9,4.3,4.3,4.3c2.4,0,4.3-1.9,4.3-4.3
		C442.7,606.5,440.7,604.6,438.4,604.6z"/>
	<path fill="#F6F6F6" d="M464.2,630.4c0-2.4-1.9-4.3-4.3-4.3c-0.6,0-1.1,0.1-1.6,0.3l-0.8,2l0.9,6c0.5,0.2,1,0.3,1.5,0.3
		C462.2,634.7,464.2,632.8,464.2,630.4z"/>
	<path fill="#F6F6F6" d="M463.6,589.5c0.3-0.6,0.6-1.3,0.6-2.1c0-2.4-1.9-4.3-4.3-4.3c-2.4,0-4.3,1.9-4.3,4.3c0,2.4,1.9,4.3,4.3,4.3
		c0.9,0,1.8-0.3,2.5-0.8l1-2L463.6,589.5z"/>
</g>
<g>
	<polygon fill="none" points="563.1,608.7 559,608.1 552.8,610.2 554.8,616 563.7,611.1 566.9,609.3 	"/>
	<path fill="none" d="M574,596.4l-2.9,2.1l5,1.2l7.5-4.2l-5-0.8C576.1,596.2,574.5,596.7,574,596.4z"/>
	<polygon fill="none" points="673,377.5 668,378.7 666.4,378.3 664.3,381.2 670.1,383.3 678.9,377.9 	"/>
	<polygon fill="none" points="649.7,453.2 648.5,455.3 649.3,460.7 655.6,456.2 655.6,441.2 651,447 	"/>
	<linearGradient id="SVGID_3_" gradientUnits="userSpaceOnUse" x1="610.6052" y1="723.5888" x2="610.6052" y2="227.4618">
		<stop  offset="0" style="stop-color:#36A9E1"/>
		<stop  offset="1" style="stop-color:#00A19A"/>
	</linearGradient>
	<path fill="url(#SVGID_3_)" d="M698,366.7l6.2-2.5l4.6,0.8c0.6-6.7,1.9-13.9,4.2-21.6c-46.6,0-81.4,1.1-104.5,3.3l-0.1,0.4
		c0.6-0.3,1.3-0.5,2-0.5c2.4,0,4.3,1.9,4.3,4.3c0,2.4-1.9,4.3-4.3,4.3c-1.6,0-3-0.9-3.7-2.2l-0.2,0.8c-26.1,5.3-53,11.7-80.7,19.1
		c-3.1,4.2-5.1,7.5-6.2,10c1,2.7,1.8,5.2,2.5,7.4c0.7-0.5,1.5-0.7,2.4-0.7c2.4,0,4.3,1.9,4.3,4.3c0,2.4-1.9,4.3-4.3,4.3
		c0.4,1.3,0.6,2.5,0.9,3.5l-10.4,10.8c1.7,2.2,3.7,5.8,6.2,10.8c-7.2,14.4-11.5,23.6-12.9,27.5c21.2-6.7,40-12.4,56.3-17
		c0.8-0.7,1.8-1.1,2.9-1.1c0.3,0,0.6,0,0.9,0.1c14.3-4,26.6-7.1,37-9.4c-5.1,9.8-10.3,20.2-15.5,30.9c2,0.4,3.5,2.1,3.5,4.2
		c0,2.4-1.9,4.3-4.3,4.3c-1.1,0-2.1-0.4-2.8-1.1c-11.9,24.8-23.9,51.9-36.2,81.2c0.2,0.5,0.3,1,0.3,1.6c0,1.8-1.1,3.3-2.6,3.9
		c-7.4,17.9-14.9,36.7-22.5,56.3c0.7,0.1,1.4,0.4,2,0.9l18.6,3.4l-4.2,3.3v2.1l2.5,7.5l3.2,4.5c1.7,0.6,2.9,2.2,2.9,4.1
		c0,0,0,0,0,0.1l3,4.2c-1.7,5.8-3.2,10.4-4.6,13.7l2.5,10.4c4-2.4,8-4.7,12-7c0.1-2.3,2-4.2,4.3-4.2c0.8,0,1.5,0.2,2.1,0.6
		c25.5-14.2,52.4-26.4,80.5-36.7c-0.5-0.7-0.9-1.6-0.9-2.6c0-2.4,1.9-4.3,4.3-4.3c2.3,0,4.2,1.8,4.3,4.1c9.6-3.4,19.3-6.5,29.1-9.4
		c1.1-7.8,1.8-13.5,2.1-17.1l-8.3,1.7c3.1-11.1,5.3-20.1,6.7-27.1c-8.9,2-18.8,4.5-29.8,7.6c0.2,0.5,0.3,0.9,0.3,1.4
		c0,2.4-1.9,4.3-4.3,4.3c-2.1,0-3.8-1.4-4.2-3.4c-3.6,1.1-7.3,2.2-11.1,3.4l-5-4.6c-19.4,7.8-31.1,12.5-35,14.2
		c15.5-32.7,32.8-65.1,51.9-97.2c-0.6-0.7-0.9-1.6-0.9-2.6c0-2.4,1.9-4.3,4.3-4.3c0.3,0,0.5,0,0.8,0.1
		c13.2-21.9,27.3-43.7,42.2-65.3h6.7c1.4-6.9,2.5-11.8,3.3-14.6l4.2-5l-2.1-0.8l0.4-1.7l-19.1-4.6c8-3.3,13.9-5.5,17.5-6.7l1.2-9.6
		l-7.9,5l-7.9-2.9l3.3-3.3L698,366.7z M524.4,441.2c-2.4,0-4.3-1.9-4.3-4.3c0-2.4,1.9-4.3,4.3-4.3c2.4,0,4.3,1.9,4.3,4.3
		C528.7,439.3,526.7,441.2,524.4,441.2z M545.9,419.7c-2.4,0-4.3-1.9-4.3-4.3c0-2.4,1.9-4.3,4.3-4.3c2.4,0,4.3,1.9,4.3,4.3
		C550.2,417.8,548.2,419.7,545.9,419.7z M545.9,376.7c-2.4,0-4.3-1.9-4.3-4.3c0-2.4,1.9-4.3,4.3-4.3c2.4,0,4.3,1.9,4.3,4.3
		C550.2,374.8,548.2,376.7,545.9,376.7z M567.4,398.2c-2.4,0-4.3-1.9-4.3-4.3c0-2.4,1.9-4.3,4.3-4.3c2.4,0,4.3,1.9,4.3,4.3
		C571.7,396.3,569.7,398.2,567.4,398.2z M588.9,419.7c-2.4,0-4.3-1.9-4.3-4.3c0-2.4,1.9-4.3,4.3-4.3c2.4,0,4.3,1.9,4.3,4.3
		C593.2,417.8,591.3,419.7,588.9,419.7z M588.9,376.7c-2.4,0-4.3-1.9-4.3-4.3c0-2.4,1.9-4.3,4.3-4.3c2.4,0,4.3,1.9,4.3,4.3
		C593.2,374.8,591.3,376.7,588.9,376.7z M545.9,591.7c-2.4,0-4.3-1.9-4.3-4.3c0-2.4,1.9-4.3,4.3-4.3c2.4,0,4.3,1.9,4.3,4.3
		C550.2,589.8,548.2,591.7,545.9,591.7z M567.4,518.6c2.4,0,4.3,1.9,4.3,4.3c0,2.4-1.9,4.3-4.3,4.3c-2.4,0-4.3-1.9-4.3-4.3
		C563.1,520.5,565,518.6,567.4,518.6z M567.4,561.6c2.4,0,4.3,1.9,4.3,4.3c0,2.4-1.9,4.3-4.3,4.3c-2.4,0-4.3-1.9-4.3-4.3
		C563.1,563.5,565,561.6,567.4,561.6z M567.4,613.2c-1.6,0-2.9-0.9-3.7-2.1l-8.9,4.9l-2.1-5.8l6.2-2.1l4.1,0.6
		c0.1-2.3,2-4.1,4.3-4.1c2.4,0,4.3,1.9,4.3,4.3C571.7,611.3,569.7,613.2,567.4,613.2z M576.1,599.8l-5-1.2l2.9-2.1
		c0.6,0.3,2.1-0.3,4.6-1.7l5,0.8L576.1,599.8z M588.9,634.7c-2.4,0-4.3-1.9-4.3-4.3c0-2.4,1.9-4.3,4.3-4.3c2.4,0,4.3,1.9,4.3,4.3
		C593.2,632.8,591.3,634.7,588.9,634.7z M588.9,591.7c-2.4,0-4.3-1.9-4.3-4.3c0-2.4,1.9-4.3,4.3-4.3c2.4,0,4.3,1.9,4.3,4.3
		C593.2,589.8,591.3,591.7,588.9,591.7z M588.9,548.7c-2.4,0-4.3-1.9-4.3-4.3c0-2.4,1.9-4.3,4.3-4.3c2.4,0,4.3,1.9,4.3,4.3
		C593.2,546.8,591.3,548.7,588.9,548.7z M588.9,505.7c-2.4,0-4.3-1.9-4.3-4.3c0-2.4,1.9-4.3,4.3-4.3c2.4,0,4.3,1.9,4.3,4.3
		C593.2,503.8,591.3,505.7,588.9,505.7z M674.9,583.1c2.4,0,4.3,1.9,4.3,4.3c0,2.4-1.9,4.3-4.3,4.3c-2.4,0-4.3-1.9-4.3-4.3
		C670.6,585,672.5,583.1,674.9,583.1z M631.9,583.1c2.4,0,4.3,1.9,4.3,4.3c0,2.4-1.9,4.3-4.3,4.3c-2.4,0-4.3-1.9-4.3-4.3
		C627.6,585,629.5,583.1,631.9,583.1z M610.4,604.6c2.4,0,4.3,1.9,4.3,4.3c0,2.4-1.9,4.3-4.3,4.3c-2.4,0-4.3-1.9-4.3-4.3
		C606.1,606.5,608,604.6,610.4,604.6z M610.4,527.2c-2.4,0-4.3-1.9-4.3-4.3c0-2.4,1.9-4.3,4.3-4.3c2.4,0,4.3,1.9,4.3,4.3
		C614.7,525.3,612.8,527.2,610.4,527.2z M610.4,484.2c-2.4,0-4.3-1.9-4.3-4.3c0-2.4,1.9-4.3,4.3-4.3c2.4,0,4.3,1.9,4.3,4.3
		C614.7,482.3,612.8,484.2,610.4,484.2z M610.4,441.2c-2.4,0-4.3-1.9-4.3-4.3c0-2.4,1.9-4.3,4.3-4.3c2.4,0,4.3,1.9,4.3,4.3
		C614.7,439.3,612.8,441.2,610.4,441.2z M610.4,398.2c-2.4,0-4.3-1.9-4.3-4.3c0-2.4,1.9-4.3,4.3-4.3c2.4,0,4.3,1.9,4.3,4.3
		C614.7,396.3,612.8,398.2,610.4,398.2z M696.4,389.6c2.4,0,4.3,1.9,4.3,4.3c0,2.4-1.9,4.3-4.3,4.3c-2.4,0-4.3-1.9-4.3-4.3
		C692.1,391.5,694,389.6,696.4,389.6z M631.9,505.7c-2.4,0-4.3-1.9-4.3-4.3c0-2.4,1.9-4.3,4.3-4.3c2.4,0,4.3,1.9,4.3,4.3
		C636.2,503.8,634.3,505.7,631.9,505.7z M631.9,462.7c-2.4,0-4.3-1.9-4.3-4.3c0-2.4,1.9-4.3,4.3-4.3c2.4,0,4.3,1.9,4.3,4.3
		C636.2,460.8,634.3,462.7,631.9,462.7z M631.9,419.7c-2.4,0-4.3-1.9-4.3-4.3c0-2.4,1.9-4.3,4.3-4.3c2.4,0,4.3,1.9,4.3,4.3
		C636.2,417.8,634.3,419.7,631.9,419.7z M631.9,376.7c-2.4,0-4.3-1.9-4.3-4.3c0-2.4,1.9-4.3,4.3-4.3c2.4,0,4.3,1.9,4.3,4.3
		C636.2,374.8,634.3,376.7,631.9,376.7z M655.6,456.2l-6.2,4.6l-0.8-5.4l1.2-2.1l1.2-6.2l4.6-5.8V456.2z M653.4,441.2
		c-2.4,0-4.3-1.9-4.3-4.3c0-2.4,1.9-4.3,4.3-4.3c2.4,0,4.3,1.9,4.3,4.3C657.7,439.3,655.8,441.2,653.4,441.2z M653.4,398.2
		c-2.4,0-4.3-1.9-4.3-4.3c0-2.4,1.9-4.3,4.3-4.3c2.4,0,4.3,1.9,4.3,4.3C657.7,396.3,655.8,398.2,653.4,398.2z M653.4,355.2
		c-2.4,0-4.3-1.9-4.3-4.3c0-2.4,1.9-4.3,4.3-4.3c2.4,0,4.3,1.9,4.3,4.3C657.7,353.3,655.8,355.2,653.4,355.2z M664.3,381.2l2.1-2.9
		l1.7,0.4l5-1.2l5.8,0.4l-8.7,5.4L664.3,381.2z M674.9,419.7c-2.4,0-4.3-1.9-4.3-4.3c0-2.4,1.9-4.3,4.3-4.3c2.4,0,4.3,1.9,4.3,4.3
		C679.2,417.8,677.3,419.7,674.9,419.7z M674.9,376.7c-2.4,0-4.3-1.9-4.3-4.3c0-2.4,1.9-4.3,4.3-4.3c2.4,0,4.3,1.9,4.3,4.3
		C679.2,374.8,677.3,376.7,674.9,376.7z M692.1,350.9c0-2.4,1.9-4.3,4.3-4.3c2.4,0,4.3,1.9,4.3,4.3c0,2.4-1.9,4.3-4.3,4.3
		C694,355.2,692.1,353.3,692.1,350.9z"/>
	<circle fill="#F6F6F6" cx="696.4" cy="393.9" r="4.3"/>
	<circle fill="#F6F6F6" cx="696.4" cy="350.9" r="4.3"/>
	<path fill="#F6F6F6" d="M674.9,368.1c-2.4,0-4.3,1.9-4.3,4.3c0,2.4,1.9,4.3,4.3,4.3c2.4,0,4.3-1.9,4.3-4.3
		C679.2,370,677.3,368.1,674.9,368.1z"/>
	<path fill="#F6F6F6" d="M653.4,389.6c-2.4,0-4.3,1.9-4.3,4.3c0,2.4,1.9,4.3,4.3,4.3c2.4,0,4.3-1.9,4.3-4.3
		C657.7,391.5,655.8,389.6,653.4,389.6z"/>
	<path fill="#F6F6F6" d="M674.9,411.1c-2.4,0-4.3,1.9-4.3,4.3c0,2.4,1.9,4.3,4.3,4.3c2.4,0,4.3-1.9,4.3-4.3
		C679.2,413,677.3,411.1,674.9,411.1z"/>
	<path fill="#F6F6F6" d="M649.1,479.9c0,1,0.4,1.9,0.9,2.6c1.4-2.3,2.7-4.6,4.1-6.9c-0.2,0-0.5-0.1-0.8-0.1
		C651,475.6,649.1,477.5,649.1,479.9z"/>
	<path fill="#F6F6F6" d="M653.4,432.6c-2.4,0-4.3,1.9-4.3,4.3c0,2.4,1.9,4.3,4.3,4.3c2.4,0,4.3-1.9,4.3-4.3
		C657.7,434.5,655.8,432.6,653.4,432.6z"/>
	<path fill="#F6F6F6" d="M653.4,570.2c2.4,0,4.3-1.9,4.3-4.3c0-0.5-0.1-1-0.3-1.4c-2.7,0.8-5.4,1.6-8.2,2.4
		C649.6,568.8,651.3,570.2,653.4,570.2z"/>
	<circle fill="#F6F6F6" cx="674.9" cy="587.4" r="4.3"/>
	<path fill="#F6F6F6" d="M653.4,604.6c-2.4,0-4.3,1.9-4.3,4.3c0,1,0.3,1.9,0.9,2.6c2.6-0.9,5.1-1.8,7.7-2.8
		C657.6,606.4,655.7,604.6,653.4,604.6z"/>
	<path fill="#F6F6F6" d="M610.4,389.6c-2.4,0-4.3,1.9-4.3,4.3c0,2.4,1.9,4.3,4.3,4.3c2.4,0,4.3-1.9,4.3-4.3
		C614.7,391.5,612.8,389.6,610.4,389.6z"/>
	<path fill="#F6F6F6" d="M610.4,355.2c2.4,0,4.3-1.9,4.3-4.3c0-2.4-1.9-4.3-4.3-4.3c-0.7,0-1.4,0.2-2,0.5l-1.7,5.9
		C607.4,354.3,608.8,355.2,610.4,355.2z"/>
	<path fill="#F6F6F6" d="M653.4,346.6c-2.4,0-4.3,1.9-4.3,4.3c0,2.4,1.9,4.3,4.3,4.3c2.4,0,4.3-1.9,4.3-4.3
		C657.7,348.5,655.8,346.6,653.4,346.6z"/>
	<path fill="#F6F6F6" d="M631.9,368.1c-2.4,0-4.3,1.9-4.3,4.3c0,2.4,1.9,4.3,4.3,4.3c2.4,0,4.3-1.9,4.3-4.3
		C636.2,370,634.3,368.1,631.9,368.1z"/>
	<path fill="#F6F6F6" d="M588.9,368.1c-2.4,0-4.3,1.9-4.3,4.3c0,2.4,1.9,4.3,4.3,4.3c2.4,0,4.3-1.9,4.3-4.3
		C593.2,370,591.3,368.1,588.9,368.1z"/>
	<path fill="#F6F6F6" d="M567.4,389.6c-2.4,0-4.3,1.9-4.3,4.3c0,2.4,1.9,4.3,4.3,4.3c2.4,0,4.3-1.9,4.3-4.3
		C571.7,391.5,569.7,389.6,567.4,389.6z"/>
	<path fill="#F6F6F6" d="M610.4,475.6c-2.4,0-4.3,1.9-4.3,4.3c0,2.4,1.9,4.3,4.3,4.3c2.4,0,4.3-1.9,4.3-4.3
		C614.7,477.5,612.8,475.6,610.4,475.6z"/>
	<path fill="#F6F6F6" d="M610.4,432.6c-2.4,0-4.3,1.9-4.3,4.3c0,2.4,1.9,4.3,4.3,4.3c2.4,0,4.3-1.9,4.3-4.3
		C614.7,434.5,612.8,432.6,610.4,432.6z"/>
	<path fill="#F6F6F6" d="M631.9,454.1c-2.4,0-4.3,1.9-4.3,4.3c0,2.4,1.9,4.3,4.3,4.3c2.4,0,4.3-1.9,4.3-4.3
		C636.2,456,634.3,454.1,631.9,454.1z"/>
	<path fill="#F6F6F6" d="M593.2,458.4c0-2.1-1.5-3.9-3.5-4.2c-1.2,2.5-2.4,4.9-3.6,7.4c0.8,0.7,1.7,1.1,2.8,1.1
		C591.3,462.7,593.2,460.8,593.2,458.4z"/>
	<path fill="#F6F6F6" d="M631.9,411.1c-2.4,0-4.3,1.9-4.3,4.3c0,2.4,1.9,4.3,4.3,4.3c2.4,0,4.3-1.9,4.3-4.3
		C636.2,413,634.3,411.1,631.9,411.1z"/>
	<path fill="#F6F6F6" d="M588.9,411.1c-2.4,0-4.3,1.9-4.3,4.3c0,2.4,1.9,4.3,4.3,4.3c2.4,0,4.3-1.9,4.3-4.3
		C593.2,413,591.3,411.1,588.9,411.1z"/>
	<path fill="#F6F6F6" d="M564.5,433.7c1.3-0.4,2.5-0.7,3.7-1c-0.3-0.1-0.6-0.1-0.9-0.1C566.3,432.6,565.3,433,564.5,433.7z"/>
	<path fill="#F6F6F6" d="M610.4,518.6c-2.4,0-4.3,1.9-4.3,4.3c0,2.4,1.9,4.3,4.3,4.3c2.4,0,4.3-1.9,4.3-4.3
		C614.7,520.5,612.8,518.6,610.4,518.6z"/>
	<path fill="#F6F6F6" d="M588.9,540.1c-2.4,0-4.3,1.9-4.3,4.3c0,2.4,1.9,4.3,4.3,4.3c2.4,0,4.3-1.9,4.3-4.3
		C593.2,542,591.3,540.1,588.9,540.1z"/>
	<path fill="#F6F6F6" d="M631.9,497.1c-2.4,0-4.3,1.9-4.3,4.3c0,2.4,1.9,4.3,4.3,4.3c2.4,0,4.3-1.9,4.3-4.3
		C636.2,499,634.3,497.1,631.9,497.1z"/>
	<path fill="#F6F6F6" d="M588.9,497.1c-2.4,0-4.3,1.9-4.3,4.3c0,2.4,1.9,4.3,4.3,4.3c2.4,0,4.3-1.9,4.3-4.3
		C593.2,499,591.3,497.1,588.9,497.1z"/>
	<circle fill="#F6F6F6" cx="567.4" cy="565.9" r="4.3"/>
	<circle fill="#F6F6F6" cx="567.4" cy="522.9" r="4.3"/>
	<circle fill="#F6F6F6" cx="610.4" cy="608.9" r="4.3"/>
	<path fill="#F6F6F6" d="M588.9,626.1c-2.4,0-4.3,1.9-4.3,4.3c0,2.4,1.9,4.3,4.3,4.3c2.4,0,4.3-1.9,4.3-4.3
		C593.2,628,591.3,626.1,588.9,626.1z"/>
	<circle fill="#F6F6F6" cx="631.9" cy="587.4" r="4.3"/>
	<path fill="#F6F6F6" d="M588.9,583.1c-2.4,0-4.3,1.9-4.3,4.3c0,2.4,1.9,4.3,4.3,4.3c2.4,0,4.3-1.9,4.3-4.3
		C593.2,585,591.3,583.1,588.9,583.1z"/>
	<path fill="#F6F6F6" d="M563.1,651.8c2.1-1.2,4.3-2.4,6.4-3.6c-0.6-0.4-1.3-0.6-2.1-0.6C565,647.6,563.1,649.5,563.1,651.8z"/>
	<path fill="#F6F6F6" d="M567.4,604.6c-2.3,0-4.2,1.8-4.3,4.1l3.8,0.6l-3.2,1.8c0.7,1.3,2.1,2.1,3.7,2.1c2.4,0,4.3-1.9,4.3-4.3
		C571.7,606.5,569.7,604.6,567.4,604.6z"/>
	<path fill="#F6F6F6" d="M528.7,393.9c0-2.4-1.9-4.3-4.3-4.3c-0.9,0-1.7,0.3-2.4,0.7c1,3.1,1.8,5.7,2.4,7.9
		C526.8,398.2,528.7,396.2,528.7,393.9z"/>
	<path fill="#F6F6F6" d="M545.9,368.1c-2.4,0-4.3,1.9-4.3,4.3c0,2.4,1.9,4.3,4.3,4.3c2.4,0,4.3-1.9,4.3-4.3
		C550.2,370,548.2,368.1,545.9,368.1z"/>
	<path fill="#F6F6F6" d="M524.4,432.6c-2.4,0-4.3,1.9-4.3,4.3c0,2.4,1.9,4.3,4.3,4.3c2.4,0,4.3-1.9,4.3-4.3
		C528.7,434.5,526.7,432.6,524.4,432.6z"/>
	<path fill="#F6F6F6" d="M545.9,411.1c-2.4,0-4.3,1.9-4.3,4.3c0,2.4,1.9,4.3,4.3,4.3c2.4,0,4.3-1.9,4.3-4.3
		C550.2,413,548.2,411.1,545.9,411.1z"/>
	<path fill="#F6F6F6" d="M550.2,544.4c0-0.6-0.1-1.1-0.3-1.6c-0.8,1.8-1.5,3.7-2.3,5.5C549.1,547.7,550.2,546.2,550.2,544.4z"/>
	<path fill="#F6F6F6" d="M524.9,605.2l2.2,0.4c-0.6-0.4-1.2-0.8-2-0.9C525,604.8,524.9,605,524.9,605.2z"/>
	<path fill="#F6F6F6" d="M547.2,626.4l2.9,4.1c0,0,0,0,0-0.1C550.2,628.5,548.9,626.9,547.2,626.4z"/>
	<path fill="#F6F6F6" d="M545.9,583.1c-2.4,0-4.3,1.9-4.3,4.3c0,2.4,1.9,4.3,4.3,4.3c2.4,0,4.3-1.9,4.3-4.3
		C550.2,585,548.2,583.1,545.9,583.1z"/>
</g>
<g>
	<polygon fill="none" points="869.9,378.3 867.8,381.2 873.7,383.3 882.4,377.9 876.6,377.5 871.6,378.7 	"/>
	<polygon fill="none" points="859.1,456.2 859.1,441.2 854.5,447 853.3,453.2 852,455.3 852.8,460.7 	"/>
	<polygon fill="none" points="756.3,610.2 758.4,616 770.4,609.3 762.5,608.1 	"/>
	<path fill="none" d="M777.5,596.4l-2.9,2.1l5,1.2l7.5-4.2l-5-0.8C779.6,596.2,778.1,596.7,777.5,596.4z"/>
	<linearGradient id="SVGID_4_" gradientUnits="userSpaceOnUse" x1="814.1325" y1="723.5888" x2="814.1325" y2="227.4618">
		<stop  offset="0" style="stop-color:#36A9E1"/>
		<stop  offset="1" style="stop-color:#00A19A"/>
	</linearGradient>
	<path fill="url(#SVGID_4_)" d="M810,353.8c-26.1,5.3-53,11.7-80.7,19.1c-3.1,4.2-5.1,7.5-6.2,10c3,8.6,5,14.8,5.8,18.7l-9.4,9.7
		c1.6,0.6,2.8,2.2,2.8,4c0,0.8-0.2,1.5-0.6,2.1c0.9,1.7,1.9,3.6,3,5.8c-7.2,14.4-11.5,23.6-12.9,27.5c41.9-13.3,74.2-22.5,97-27.5
		c-8.5,16.2-17.1,33.7-25.8,52.4c2.1,0.3,3.7,2.1,3.7,4.2c0,2.4-1.9,4.3-4.3,4.3c-1.1,0-2.1-0.4-2.9-1.1
		c-11.8,25.6-23.7,53.5-35.9,83.5c-0.1,0.6-0.3,1.2-0.7,1.8c-4.8,11.9-9.7,24.2-14.5,36.8l7.4,1.3c0.8-1.1,2.1-1.9,3.6-1.9
		c2,0,3.7,1.4,4.2,3.3l5.6,1l-4.2,3.3v2.1l2.5,7.5l9.2,12.9c-1.7,5.8-3.2,10.4-4.6,13.7l2.5,10.4c15-9.1,30.5-17.5,46.5-25.2
		c-0.9-0.8-1.5-1.9-1.5-3.2c0-2.4,1.9-4.3,4.3-4.3c2.3,0,4.2,1.9,4.3,4.2c18.1-8.4,36.8-16,56.1-22.6c0.5-1.8,2.2-3,4.1-3
		c0.9,0,1.8,0.3,2.5,0.8c6.4-2.1,12.9-4.2,19.4-6.1c0.4-2.9,0.8-5.6,1.1-7.9c-0.5,0.2-0.9,0.3-1.5,0.3c-2.4,0-4.3-1.9-4.3-4.3
		c0-2.4,1.9-4.3,4.3-4.3c0.9,0,1.7,0.3,2.3,0.7c0.1-0.5,0.1-1.1,0.1-1.5l-8.3,1.7c3.1-11.1,5.3-20.1,6.7-27.1
		c-6.3,1.4-13.2,3.1-20.6,5.1c1.5,0.7,2.6,2.2,2.6,4c0,2.4-1.9,4.3-4.3,4.3c-2.4,0-4.3-1.9-4.3-4.3c0-1,0.3-1.8,0.9-2.6
		c-7.3,2-15.1,4.3-23.4,6.9l-5-4.6c-2.9,1.2-5.6,2.2-8.1,3.2c-0.8,0.8-1.9,1.3-3.1,1.3c-0.1,0-0.1,0-0.2,0
		c-12.7,5.1-20.5,8.3-23.6,9.6c12.5-26.4,26.1-52.5,41-78.5c0-1.5,0.8-2.8,2-3.5c16.9-29.4,35.3-58.5,55.2-87.4h6.7
		c1.1-5.6,2.1-9.8,2.8-12.7c-1.3-0.7-2.2-2.1-2.2-3.8c0-2.4,1.9-4.3,4.3-4.3c0.2,0,0.4,0,0.6,0.1l0.3-1.3l-19.1-4.6
		c8-3.3,13.9-5.5,17.5-6.7l1.2-9.6l-7.9,5l-7.9-2.9l3.3-3.3l2.1,0.4l6.2-2.5l4.6,0.8c0.3-3.4,0.8-6.9,1.5-10.6
		c-0.7,0.5-1.5,0.8-2.4,0.8c-2.4,0-4.3-1.9-4.3-4.3c0-2.4,1.9-4.3,4.3-4.3c1.6,0,2.9,0.9,3.7,2.1c0.4-1.8,0.9-3.5,1.4-5.3
		c-46.6,0-81.4,1.1-104.5,3.3L810,353.8z M739.4,441.2c-2.4,0-4.3-1.9-4.3-4.3c0-2.4,1.9-4.3,4.3-4.3c2.4,0,4.3,1.9,4.3,4.3
		C743.7,439.3,741.8,441.2,739.4,441.2z M739.4,398.2c-2.4,0-4.3-1.9-4.3-4.3c0-2.4,1.9-4.3,4.3-4.3c2.4,0,4.3,1.9,4.3,4.3
		C743.7,396.3,741.8,398.2,739.4,398.2z M760.9,419.7c-2.4,0-4.3-1.9-4.3-4.3c0-2.4,1.9-4.3,4.3-4.3c2.4,0,4.3,1.9,4.3,4.3
		C765.2,417.8,763.3,419.7,760.9,419.7z M760.9,376.7c-2.4,0-4.3-1.9-4.3-4.3c0-2.4,1.9-4.3,4.3-4.3c2.4,0,4.3,1.9,4.3,4.3
		C765.2,374.8,763.3,376.7,760.9,376.7z M782.4,398.2c-2.4,0-4.3-1.9-4.3-4.3c0-2.4,1.9-4.3,4.3-4.3c2.4,0,4.3,1.9,4.3,4.3
		C786.7,396.3,784.8,398.2,782.4,398.2z M803.9,419.7c-2.4,0-4.3-1.9-4.3-4.3c0-2.4,1.9-4.3,4.3-4.3c2.4,0,4.3,1.9,4.3,4.3
		C808.2,417.8,806.3,419.7,803.9,419.7z M803.9,376.7c-2.4,0-4.3-1.9-4.3-4.3c0-2.4,1.9-4.3,4.3-4.3c2.4,0,4.3,1.9,4.3,4.3
		C808.2,374.8,806.3,376.7,803.9,376.7z M782.4,518.6c2.4,0,4.3,1.9,4.3,4.3c0,2.4-1.9,4.3-4.3,4.3c-2.4,0-4.3-1.9-4.3-4.3
		C778.1,520.5,780,518.6,782.4,518.6z M782.4,561.6c2.4,0,4.3,1.9,4.3,4.3c0,2.4-1.9,4.3-4.3,4.3c-2.4,0-4.3-1.9-4.3-4.3
		C778.1,563.5,780,561.6,782.4,561.6z M760.9,540.1c2.4,0,4.3,1.9,4.3,4.3c0,2.4-1.9,4.3-4.3,4.3c-2.4,0-4.3-1.9-4.3-4.3
		C756.6,542,758.5,540.1,760.9,540.1z M760.9,583.1c2.4,0,4.3,1.9,4.3,4.3c0,2.4-1.9,4.3-4.3,4.3c-2.4,0-4.3-1.9-4.3-4.3
		C756.6,585,758.5,583.1,760.9,583.1z M760.9,634.7c-2.4,0-4.3-1.9-4.3-4.3c0-2.4,1.9-4.3,4.3-4.3c2.4,0,4.3,1.9,4.3,4.3
		C765.2,632.8,763.3,634.7,760.9,634.7z M758.4,616l-2.1-5.8l6.2-2.1l7.9,1.2L758.4,616z M782.4,613.2c-2.4,0-4.3-1.9-4.3-4.3
		c0-2.4,1.9-4.3,4.3-4.3c2.4,0,4.3,1.9,4.3,4.3C786.7,611.3,784.8,613.2,782.4,613.2z M779.6,599.8l-5-1.2l2.9-2.1
		c0.6,0.3,2.1-0.3,4.6-1.7l5,0.8L779.6,599.8z M846.9,583.1c2.4,0,4.3,1.9,4.3,4.3c0,2.4-1.9,4.3-4.3,4.3c-2.4,0-4.3-1.9-4.3-4.3
		C842.6,585,844.5,583.1,846.9,583.1z M825.4,604.6c2.4,0,4.3,1.9,4.3,4.3c0,2.4-1.9,4.3-4.3,4.3c-2.4,0-4.3-1.9-4.3-4.3
		C821.1,606.5,823,604.6,825.4,604.6z M803.9,583.1c2.4,0,4.3,1.9,4.3,4.3c0,2.4-1.9,4.3-4.3,4.3c-2.4,0-4.3-1.9-4.3-4.3
		C799.6,585,801.5,583.1,803.9,583.1z M803.9,548.7c-2.4,0-4.3-1.9-4.3-4.3c0-2.4,1.9-4.3,4.3-4.3c2.4,0,4.3,1.9,4.3,4.3
		C808.2,546.8,806.3,548.7,803.9,548.7z M803.9,505.7c-2.4,0-4.3-1.9-4.3-4.3c0-2.4,1.9-4.3,4.3-4.3c2.4,0,4.3,1.9,4.3,4.3
		C808.2,503.8,806.3,505.7,803.9,505.7z M803.9,462.7c-2.4,0-4.3-1.9-4.3-4.3c0-2.4,1.9-4.3,4.3-4.3c2.4,0,4.3,1.9,4.3,4.3
		C808.2,460.8,806.3,462.7,803.9,462.7z M889.9,368.1c2.4,0,4.3,1.9,4.3,4.3c0,2.4-1.9,4.3-4.3,4.3c-2.4,0-4.3-1.9-4.3-4.3
		C885.6,370,887.5,368.1,889.9,368.1z M889.9,411.1c2.4,0,4.3,1.9,4.3,4.3c0,2.4-1.9,4.3-4.3,4.3c-2.4,0-4.3-1.9-4.3-4.3
		C885.6,413,887.5,411.1,889.9,411.1z M882.4,377.9l-8.7,5.4l-5.8-2.1l2.1-2.9l1.7,0.4l5-1.2L882.4,377.9z M868.4,346.6
		c2.4,0,4.3,1.9,4.3,4.3c0,2.4-1.9,4.3-4.3,4.3c-2.4,0-4.3-1.9-4.3-4.3C864.1,348.5,866,346.6,868.4,346.6z M868.4,389.6
		c2.4,0,4.3,1.9,4.3,4.3c0,2.4-1.9,4.3-4.3,4.3c-2.4,0-4.3-1.9-4.3-4.3C864.1,391.5,866,389.6,868.4,389.6z M868.4,432.6
		c2.4,0,4.3,1.9,4.3,4.3c0,2.4-1.9,4.3-4.3,4.3c-2.4,0-4.3-1.9-4.3-4.3C864.1,434.5,866,432.6,868.4,432.6z M853.3,453.2l1.2-6.2
		l4.6-5.8v15l-6.2,4.6l-0.8-5.4L853.3,453.2z M846.9,368.1c2.4,0,4.3,1.9,4.3,4.3c0,2.4-1.9,4.3-4.3,4.3c-2.4,0-4.3-1.9-4.3-4.3
		C842.6,370,844.5,368.1,846.9,368.1z M846.9,411.1c2.4,0,4.3,1.9,4.3,4.3c0,2.4-1.9,4.3-4.3,4.3c-2.4,0-4.3-1.9-4.3-4.3
		C842.6,413,844.5,411.1,846.9,411.1z M846.9,454.1c2.4,0,4.3,1.9,4.3,4.3c0,2.4-1.9,4.3-4.3,4.3c-2.4,0-4.3-1.9-4.3-4.3
		C842.6,456,844.5,454.1,846.9,454.1z M825.4,346.6c2.4,0,4.3,1.9,4.3,4.3c0,2.4-1.9,4.3-4.3,4.3c-2.4,0-4.3-1.9-4.3-4.3
		C821.1,348.5,823,346.6,825.4,346.6z M825.4,389.6c2.4,0,4.3,1.9,4.3,4.3c0,2.4-1.9,4.3-4.3,4.3c-2.4,0-4.3-1.9-4.3-4.3
		C821.1,391.5,823,389.6,825.4,389.6z M825.4,432.6c2.4,0,4.3,1.9,4.3,4.3c0,2.4-1.9,4.3-4.3,4.3c-2.4,0-4.3-1.9-4.3-4.3
		C821.1,434.5,823,432.6,825.4,432.6z M825.4,475.6c2.4,0,4.3,1.9,4.3,4.3c0,2.4-1.9,4.3-4.3,4.3c-2.4,0-4.3-1.9-4.3-4.3
		C821.1,477.5,823,475.6,825.4,475.6z M825.4,518.6c2.4,0,4.3,1.9,4.3,4.3c0,2.4-1.9,4.3-4.3,4.3c-2.4,0-4.3-1.9-4.3-4.3
		C821.1,520.5,823,518.6,825.4,518.6z"/>
	<path fill="#F6F6F6" d="M907.1,393.9c0,1.6,0.9,3,2.2,3.8c0.2-0.7,0.3-1.3,0.5-1.8l4.2-5l-2.1-0.8l0.1-0.3c-0.2,0-0.4-0.1-0.6-0.1
		C909,389.6,907.1,391.5,907.1,393.9z"/>
	<circle fill="#F6F6F6" cx="868.4" cy="393.9" r="4.3"/>
	<circle fill="#F6F6F6" cx="868.4" cy="350.9" r="4.3"/>
	<path fill="#F6F6F6" d="M911.4,346.6c-2.4,0-4.3,1.9-4.3,4.3c0,2.4,1.9,4.3,4.3,4.3c0.9,0,1.7-0.3,2.4-0.8c0.4-1.9,0.8-3.8,1.3-5.7
		C914.4,347.4,913,346.6,911.4,346.6z"/>
	<circle fill="#F6F6F6" cx="889.9" cy="372.4" r="4.3"/>
	<circle fill="#F6F6F6" cx="846.9" cy="372.4" r="4.3"/>
	<circle fill="#F6F6F6" cx="825.4" cy="393.9" r="4.3"/>
	<circle fill="#F6F6F6" cx="868.4" cy="436.9" r="4.3"/>
	<circle fill="#F6F6F6" cx="846.9" cy="458.4" r="4.3"/>
	<circle fill="#F6F6F6" cx="889.9" cy="415.4" r="4.3"/>
	<circle fill="#F6F6F6" cx="846.9" cy="415.4" r="4.3"/>
	<circle fill="#F6F6F6" cx="825.4" cy="479.9" r="4.3"/>
	<circle fill="#F6F6F6" cx="825.4" cy="436.9" r="4.3"/>
	<path fill="#F6F6F6" d="M868.4,570.2c2.4,0,4.3-1.9,4.3-4.3c0-1.8-1.1-3.3-2.6-4c-1.7,0.5-3.4,0.9-5.1,1.4
		c-0.5,0.7-0.9,1.6-0.9,2.6C864.1,568.3,866,570.2,868.4,570.2z"/>
	<path fill="#F6F6F6" d="M842.6,501.3c0.7-1.2,1.3-2.4,2-3.5C843.5,498.5,842.7,499.8,842.6,501.3z"/>
	<path fill="#F6F6F6" d="M828.5,568.9c-1.1,0.5-2.2,0.9-3.3,1.3c0.1,0,0.1,0,0.2,0C826.6,570.2,827.7,569.7,828.5,568.9z"/>
	<circle fill="#F6F6F6" cx="825.4" cy="522.9" r="4.3"/>
	<path fill="#F6F6F6" d="M864.3,607.6c2.2-0.8,4.4-1.5,6.6-2.2c-0.7-0.5-1.6-0.8-2.5-0.8C866.5,604.6,864.9,605.9,864.3,607.6z"/>
	<path fill="#F6F6F6" d="M885.6,587.4c0,2.4,1.9,4.3,4.3,4.3c0.5,0,1-0.1,1.5-0.3c0.4-3,0.7-5.6,0.9-7.6c-0.7-0.4-1.5-0.7-2.3-0.7
		C887.5,583.1,885.6,585,885.6,587.4z"/>
	<circle fill="#F6F6F6" cx="846.9" cy="587.4" r="4.3"/>
	<circle fill="#F6F6F6" cx="825.4" cy="608.9" r="4.3"/>
	<path fill="#F6F6F6" d="M782.4,389.6c-2.4,0-4.3,1.9-4.3,4.3c0,2.4,1.9,4.3,4.3,4.3c2.4,0,4.3-1.9,4.3-4.3
		C786.7,391.5,784.8,389.6,782.4,389.6z"/>
	<circle fill="#F6F6F6" cx="825.4" cy="350.9" r="4.3"/>
	<path fill="#F6F6F6" d="M803.9,368.1c-2.4,0-4.3,1.9-4.3,4.3c0,2.4,1.9,4.3,4.3,4.3c2.4,0,4.3-1.9,4.3-4.3
		C808.2,370,806.3,368.1,803.9,368.1z"/>
	<path fill="#F6F6F6" d="M760.9,368.1c-2.4,0-4.3,1.9-4.3,4.3c0,2.4,1.9,4.3,4.3,4.3c2.4,0,4.3-1.9,4.3-4.3
		C765.2,370,763.3,368.1,760.9,368.1z"/>
	<path fill="#F6F6F6" d="M739.4,389.6c-2.4,0-4.3,1.9-4.3,4.3c0,2.4,1.9,4.3,4.3,4.3c2.4,0,4.3-1.9,4.3-4.3
		C743.7,391.5,741.8,389.6,739.4,389.6z"/>
	<path fill="#F6F6F6" d="M786.7,479.9c0-2.2-1.6-4-3.7-4.2c-1.1,2.5-2.3,4.9-3.4,7.4c0.8,0.7,1.8,1.1,2.9,1.1
		C784.8,484.2,786.7,482.3,786.7,479.9z"/>
	<path fill="#F6F6F6" d="M803.9,454.1c-2.4,0-4.3,1.9-4.3,4.3c0,2.4,1.9,4.3,4.3,4.3c2.4,0,4.3-1.9,4.3-4.3
		C808.2,456,806.3,454.1,803.9,454.1z"/>
	<path fill="#F6F6F6" d="M803.9,411.1c-2.4,0-4.3,1.9-4.3,4.3c0,2.4,1.9,4.3,4.3,4.3c2.4,0,4.3-1.9,4.3-4.3
		C808.2,413,806.3,411.1,803.9,411.1z"/>
	<path fill="#F6F6F6" d="M760.9,411.1c-2.4,0-4.3,1.9-4.3,4.3c0,2.4,1.9,4.3,4.3,4.3c2.4,0,4.3-1.9,4.3-4.3
		C765.2,413,763.3,411.1,760.9,411.1z"/>
	<path fill="#F6F6F6" d="M739.4,432.6c-2.4,0-4.3,1.9-4.3,4.3c0,2.4,1.9,4.3,4.3,4.3c2.4,0,4.3-1.9,4.3-4.3
		C743.7,434.5,741.8,432.6,739.4,432.6z"/>
	<circle fill="#F6F6F6" cx="782.4" cy="565.9" r="4.3"/>
	<circle fill="#F6F6F6" cx="782.4" cy="522.9" r="4.3"/>
	<path fill="#F6F6F6" d="M803.9,540.1c-2.4,0-4.3,1.9-4.3,4.3c0,2.4,1.9,4.3,4.3,4.3c2.4,0,4.3-1.9,4.3-4.3
		C808.2,542,806.3,540.1,803.9,540.1z"/>
	<circle fill="#F6F6F6" cx="760.9" cy="544.4" r="4.3"/>
	<path fill="#F6F6F6" d="M803.9,497.1c-2.4,0-4.3,1.9-4.3,4.3c0,2.4,1.9,4.3,4.3,4.3c2.4,0,4.3-1.9,4.3-4.3
		C808.2,499,806.3,497.1,803.9,497.1z"/>
	<path fill="#F6F6F6" d="M742.9,568.4c0.4-0.5,0.6-1.1,0.7-1.8C743.4,567.2,743.2,567.8,742.9,568.4z"/>
	<path fill="#F6F6F6" d="M782.4,604.6c-2.4,0-4.3,1.9-4.3,4.3c0,2.4,1.9,4.3,4.3,4.3c2.4,0,4.3-1.9,4.3-4.3
		C786.7,606.5,784.8,604.6,782.4,604.6z"/>
	<path fill="#F6F6F6" d="M803.9,626.1c-2.4,0-4.3,1.9-4.3,4.3c0,1.3,0.6,2.4,1.5,3.2c2.4-1.1,4.7-2.3,7.1-3.4
		C808.1,628,806.2,626.1,803.9,626.1z"/>
	<path fill="#F6F6F6" d="M760.9,626.1c-2.4,0-4.3,1.9-4.3,4.3c0,2.4,1.9,4.3,4.3,4.3c2.4,0,4.3-1.9,4.3-4.3
		C765.2,628,763.3,626.1,760.9,626.1z"/>
	<circle fill="#F6F6F6" cx="803.9" cy="587.4" r="4.3"/>
	<circle fill="#F6F6F6" cx="760.9" cy="587.4" r="4.3"/>
	<path fill="#F6F6F6" d="M739.4,604.6c-1.5,0-2.8,0.8-3.6,1.9l7.7,1.4C743.1,606,741.4,604.6,739.4,604.6z"/>
	<path fill="#F6F6F6" d="M719.4,411.4l-1,1.1c0.9,1.2,2,2.9,3.2,5.1c0.4-0.6,0.6-1.4,0.6-2.1C722.2,413.6,721,412,719.4,411.4z"/>
</g>
</svg>
