<?xml version="1.0" encoding="utf-8"?>
<!-- Generator: Adobe Illustrator 18.1.1, SVG Export Plug-In . SVG Version: 6.00 Build 0)  -->
<svg version="1.1" id="Calque_1" xmlns="http://www.w3.org/2000/svg" xmlns:xlink="http://www.w3.org/1999/xlink" x="0px" y="0px"
	 viewBox="-380 165.8 237.9 671.2" enable-background="new -380 165.8 237.9 671.2" xml:space="preserve">
<g id="Calque_2">
</g>
<g id="Calque_4_1_">
</g>
<g id="Calque_1_1_">
	<g id="Calque_3">
		<g>
			<path opacity="0.81" fill="#1D1D1B" d="M-199.9,366.7l57.8-201l-21.1,33.7l6-22.8c0.7-2.7-0.7-5.6-3.3-6.7
				c-0.7-0.3-1.4-0.4-2.1-0.4c-2,0-3.9,1-4.9,2.9L-302.2,408c-1,1.8-1,3.9,0,5.6c1,1.7,2.9,2.8,4.9,2.8h23.8l-28,56
				c-0.9,1.8-0.8,3.8,0.2,5.5c1,1.7,2.9,2.7,4.8,2.7h18.7l-71.1,150.5c-0.8,1.8-0.7,3.8,0.3,5.4c1,1.6,2.8,2.6,4.8,2.6h28.7
				l-64.7,190.3c-0.9,2.7,0.3,5.7,2.9,6.9c0.8,0.4,1.6,0.5,2.4,0.5c1.9,0,3.7-1,4.8-2.7l93.8-151.4l53.9-78.1h-32.5l80.3-153.1
				h-37.7l51.5-84.9L-199.9,366.7L-199.9,366.7z"/>
			<g>
				<polygon fill="#FFD200" points="-162.7,175.2 -297.3,410.8 -264.3,410.8 -296.4,474.9 -268.7,474.9 -343.7,633.5 -307.1,633.5 
					-374.3,831.3 -240.7,615.7 -269.8,615.7 -192.1,460.7 -226,460.7 -180.5,376.9 -216.2,376.9 				"/>
			</g>
			<g>
				<path fill="none" d="M-165.4,180l-23.1,40.4c0.3-0.2,0.7-0.3,1-0.3c1.2,0,2.2,1,2.2,2.2c0,1.2-1,2.2-2.2,2.2
					c-1.2,0-2.2-0.9-2.2-2.1l-30.6,53.5c0.9,0.3,1.6,1.1,1.6,2.1c0,1.2-1,2.2-2.2,2.2c-0.6,0-1.1-0.2-1.5-0.6l-30.1,52.8
					c0.3,0.4,0.4,0.8,0.4,1.3c0,1.2-1,2.2-2.2,2.2c-0.1,0-0.1,0-0.2,0l-23.1,40.4c0.3-0.1,0.6-0.2,1-0.2c1.2,0,2.2,1,2.2,2.2
					c0,1.2-1,2.2-2.2,2.2c-1.2,0-2.1-0.9-2.2-2.1l-18.4,32.2h7.5c0.4-0.7,1.1-1.2,2-1.2c0.9,0,1.6,0.5,2,1.2h18.3
					c0.4-0.7,1.1-1.2,2-1.2c1.2,0,2.2,1,2.2,2.2c0,1.2-1,2.2-2.2,2.2c-0.1,0-0.3,0-0.4,0l-20.4,40.8c0.4,0.4,0.7,1,0.7,1.6
					c0,1.2-1,2.2-2.2,2.2c-0.1,0-0.3,0-0.4,0l-8.2,16.4h27.6l-6.3,13.3c0.4,0.4,0.6,1,0.6,1.6c0,1.2-1,2.2-2.2,2.2
					c-0.1,0-0.1,0-0.2,0l-19.9,42.1c0,0.1,0,0.2,0,0.2c0,0.8-0.4,1.5-1,1.9l-34.9,73.9c0.1,0,0.2,0,0.3,0c1.2,0,2.2,1,2.2,2.2
					c0,1.2-1,2.2-2.2,2.2c-0.8,0-1.5-0.4-1.9-1.1l-9.4,20h9.4c0.4-0.7,1.1-1.1,1.9-1.1c0.8,0,1.5,0.4,1.9,1.1h18.5
					c0.4-0.7,1.1-1.1,1.9-1.1c0.8,0,1.5,0.4,1.9,1.1h1.1l-23.1,67.8c0,0.1,0,0.1,0,0.2c0,0.6-0.2,1.1-0.6,1.5l-10.7,31.3
					c0.1,0.2,0.1,0.4,0.1,0.6c0,0.7-0.4,1.4-0.9,1.8l-10.4,30.7c0.1,0.3,0.2,0.6,0.2,0.9c0,0.9-0.5,1.6-1.2,2l-10.3,30.3
					c0.2,0.3,0.4,0.8,0.4,1.2c0,1-0.6,1.8-1.5,2.1l-9.3,27.4l30.7-49.6c-1.2-0.1-2.1-1-2.1-2.2c0-1.2,1-2.2,2.2-2.2
					c0.8,0,1.5,0.5,1.9,1.1l32.7-52.8c-0.3,0.2-0.8,0.4-1.2,0.4c-1.2,0-2.2-1-2.2-2.2c0-1.2,1-2.2,2.2-2.2c1.2,0,2.2,1,2.2,2.2
					c0,0.1,0,0.2,0,0.3l6.8-10.9c0-0.2-0.1-0.3-0.1-0.5c0-1,0.7-1.9,1.7-2.2l32.3-52.1c-0.3-0.4-0.6-0.9-0.6-1.5
					c0-1.2,1-2.2,2.2-2.2c0.2,0,0.4,0,0.6,0.1l24.2-39.1h-29.1l77.7-155H-226l25.7-47.4c-0.4-0.4-0.6-0.9-0.6-1.5
					c0-1.2,1-2.2,2.2-2.2c0.1,0,0.2,0,0.4,0l17.7-32.7h-5.3c0.3,0.4,0.5,0.9,0.5,1.4c0,1.2-1,2.2-2.2,2.2c-1.2,0-2.2-1-2.2-2.2
					c0-0.6,0.2-1.1,0.5-1.4h-18.9c0.3,0.4,0.5,0.9,0.5,1.4c0,1.2-1,2.2-2.2,2.2c-1.2,0-2.2-1-2.2-2.2c0-0.6,0.2-1.1,0.5-1.4h-4.7
					l5.1-19.1c-0.5-0.4-0.9-1-0.9-1.8c0-1.1,0.8-2,1.9-2.2l22.5-84.7c-1.2-0.1-2.1-1-2.1-2.2c0-1.2,1-2.2,2.2-2.2
					c0.4,0,0.7,0.1,1,0.2l8.1-30.6c-0.1-0.3-0.2-0.6-0.2-0.9c0-0.7,0.3-1.3,0.9-1.8l13.8-52.2c-0.4,0.3-0.8,0.5-1.3,0.5
					C-165.3,180-165.3,180-165.4,180z M-276.6,402.9c-1.2,0-2.2-1-2.2-2.2c0-1.2,1-2.2,2.2-2.2c1.2,0,2.2,1,2.2,2.2
					C-274.4,401.9-275.4,402.9-276.6,402.9z M-276.6,469.7c-1.2,0-2.2-1-2.2-2.2c0-1.2,1-2.2,2.2-2.2c1.2,0,2.2,1,2.2,2.2
					C-274.4,468.7-275.4,469.7-276.6,469.7z M-276.6,447.5c-1.2,0-2.2-1-2.2-2.2s1-2.2,2.2-2.2c1.2,0,2.2,1,2.2,2.2
					S-275.4,447.5-276.6,447.5z M-321.2,625.8c-1.2,0-2.2-1-2.2-2.2c0-1.2,1-2.2,2.2-2.2c1.2,0,2.2,1,2.2,2.2
					C-319,624.8-320,625.8-321.2,625.8z M-321.2,603.5c-1.2,0-2.2-1-2.2-2.2c0-1.2,1-2.2,2.2-2.2c1.2,0,2.2,1,2.2,2.2
					C-319,602.5-320,603.5-321.2,603.5z M-310.1,614.6c-1.2,0-2.2-1-2.2-2.2c0-1.2,1-2.2,2.2-2.2c1.2,0,2.2,1,2.2,2.2
					C-307.8,613.6-308.8,614.6-310.1,614.6z M-310.1,592.3c-1.2,0-2.2-1-2.2-2.2c0-1.2,1-2.2,2.2-2.2c1.2,0,2.2,1,2.2,2.2
					C-307.8,591.3-308.8,592.3-310.1,592.3z M-310.1,570c-1.2,0-2.2-1-2.2-2.2c0-1.2,1-2.2,2.2-2.2c1.2,0,2.2,1,2.2,2.2
					C-307.8,569-308.8,570-310.1,570z M-354.6,792.9c-1.2,0-2.2-1-2.2-2.2c0-1.2,1-2.2,2.2-2.2c1.2,0,2.2,1,2.2,2.2
					C-352.4,791.9-353.4,792.9-354.6,792.9z M-343.5,759.5c-1.2,0-2.2-1-2.2-2.2s1-2.2,2.2-2.2c1.2,0,2.2,1,2.2,2.2
					S-342.3,759.5-343.5,759.5z M-332.3,748.3c-1.2,0-2.2-1-2.2-2.2s1-2.2,2.2-2.2c1.2,0,2.2,1,2.2,2.2S-331.1,748.3-332.3,748.3z
					 M-332.3,726c-1.2,0-2.2-1-2.2-2.2c0-1.2,1-2.2,2.2-2.2c1.2,0,2.2,1,2.2,2.2C-330.1,725-331.1,726-332.3,726z M-321.2,737.2
					c-1.2,0-2.2-1-2.2-2.2c0-1.2,1-2.2,2.2-2.2c1.2,0,2.2,1,2.2,2.2C-319,736.2-320,737.2-321.2,737.2z M-321.2,714.9
					c-1.2,0-2.2-1-2.2-2.2c0-1.2,1-2.2,2.2-2.2c1.2,0,2.2,1,2.2,2.2C-319,713.9-320,714.9-321.2,714.9z M-321.2,692.6
					c-1.2,0-2.2-1-2.2-2.2c0-1.2,1-2.2,2.2-2.2c1.2,0,2.2,1,2.2,2.2C-319,691.6-320,692.6-321.2,692.6z M-310.1,703.8
					c-1.2,0-2.2-1-2.2-2.2c0-1.2,1-2.2,2.2-2.2c1.2,0,2.2,1,2.2,2.2C-307.8,702.8-308.8,703.8-310.1,703.8z M-310.1,681.5
					c-1.2,0-2.2-1-2.2-2.2c0-1.2,1-2.2,2.2-2.2c1.2,0,2.2,1,2.2,2.2C-307.8,680.5-308.8,681.5-310.1,681.5z M-310.1,659.2
					c-1.2,0-2.2-1-2.2-2.2c0-1.2,1-2.2,2.2-2.2c1.2,0,2.2,1,2.2,2.2C-307.8,658.2-308.8,659.2-310.1,659.2z M-298.9,692.6
					c-1.2,0-2.2-1-2.2-2.2c0-1.2,1-2.2,2.2-2.2c1.2,0,2.2,1,2.2,2.2C-296.7,691.6-297.7,692.6-298.9,692.6z M-298.9,670.3
					c-1.2,0-2.2-1-2.2-2.2c0-1.2,1-2.2,2.2-2.2c1.2,0,2.2,1,2.2,2.2C-296.7,669.3-297.7,670.3-298.9,670.3z M-298.9,648
					c-1.2,0-2.2-1-2.2-2.2c0-1.2,1-2.2,2.2-2.2c1.2,0,2.2,1,2.2,2.2C-296.7,647-297.7,648-298.9,648z M-298.9,625.8
					c-1.2,0-2.2-1-2.2-2.2c0-1.2,1-2.2,2.2-2.2c1.2,0,2.2,1,2.2,2.2C-296.7,624.8-297.7,625.8-298.9,625.8z M-298.9,603.5
					c-1.2,0-2.2-1-2.2-2.2c0-1.2,1-2.2,2.2-2.2c1.2,0,2.2,1,2.2,2.2C-296.7,602.5-297.7,603.5-298.9,603.5z M-298.9,581.2
					c-1.2,0-2.2-1-2.2-2.2c0-1.2,1-2.2,2.2-2.2c1.2,0,2.2,1,2.2,2.2C-296.7,580.2-297.7,581.2-298.9,581.2z M-298.9,558.9
					c-1.2,0-2.2-1-2.2-2.2c0-1.2,1-2.2,2.2-2.2c1.2,0,2.2,1,2.2,2.2C-296.7,557.9-297.7,558.9-298.9,558.9z M-287.8,681.5
					c-1.2,0-2.2-1-2.2-2.2c0-1.2,1-2.2,2.2-2.2c1.2,0,2.2,1,2.2,2.2C-285.5,680.5-286.5,681.5-287.8,681.5z M-287.8,659.2
					c-1.2,0-2.2-1-2.2-2.2c0-1.2,1-2.2,2.2-2.2c1.2,0,2.2,1,2.2,2.2C-285.5,658.2-286.5,659.2-287.8,659.2z M-287.8,636.9
					c-1.2,0-2.2-1-2.2-2.2c0-1.2,1-2.2,2.2-2.2c1.2,0,2.2,1,2.2,2.2C-285.5,635.9-286.5,636.9-287.8,636.9z M-287.8,614.6
					c-1.2,0-2.2-1-2.2-2.2c0-1.2,1-2.2,2.2-2.2c1.2,0,2.2,1,2.2,2.2C-285.5,613.6-286.5,614.6-287.8,614.6z M-287.8,592.3
					c-1.2,0-2.2-1-2.2-2.2c0-1.2,1-2.2,2.2-2.2c1.2,0,2.2,1,2.2,2.2C-285.5,591.3-286.5,592.3-287.8,592.3z M-287.8,570
					c-1.2,0-2.2-1-2.2-2.2c0-1.2,1-2.2,2.2-2.2c1.2,0,2.2,1,2.2,2.2C-285.5,569-286.5,570-287.8,570z M-287.8,547.8
					c-1.2,0-2.2-1-2.2-2.2c0-1.2,1-2.2,2.2-2.2c1.2,0,2.2,1,2.2,2.2C-285.5,546.8-286.5,547.8-287.8,547.8z M-287.8,525.5
					c-1.2,0-2.2-1-2.2-2.2c0-1.2,1-2.2,2.2-2.2c1.2,0,2.2,1,2.2,2.2C-285.5,524.5-286.5,525.5-287.8,525.5z M-276.6,670.3
					c-1.2,0-2.2-1-2.2-2.2c0-1.2,1-2.2,2.2-2.2c1.2,0,2.2,1,2.2,2.2C-274.4,669.3-275.4,670.3-276.6,670.3z M-276.6,648
					c-1.2,0-2.2-1-2.2-2.2c0-1.2,1-2.2,2.2-2.2c1.2,0,2.2,1,2.2,2.2C-274.4,647-275.4,648-276.6,648z M-276.6,625.8
					c-1.2,0-2.2-1-2.2-2.2c0-1.2,1-2.2,2.2-2.2c1.2,0,2.2,1,2.2,2.2C-274.4,624.8-275.4,625.8-276.6,625.8z M-276.6,603.5
					c-1.2,0-2.2-1-2.2-2.2c0-1.2,1-2.2,2.2-2.2c1.2,0,2.2,1,2.2,2.2C-274.4,602.5-275.4,603.5-276.6,603.5z M-276.6,581.2
					c-1.2,0-2.2-1-2.2-2.2c0-1.2,1-2.2,2.2-2.2c1.2,0,2.2,1,2.2,2.2C-274.4,580.2-275.4,581.2-276.6,581.2z M-276.6,558.9
					c-1.2,0-2.2-1-2.2-2.2c0-1.2,1-2.2,2.2-2.2c1.2,0,2.2,1,2.2,2.2C-274.4,557.9-275.4,558.9-276.6,558.9z M-276.6,536.6
					c-1.2,0-2.2-1-2.2-2.2c0-1.2,1-2.2,2.2-2.2c1.2,0,2.2,1,2.2,2.2C-274.4,535.6-275.4,536.6-276.6,536.6z M-276.6,514.3
					c-1.2,0-2.2-1-2.2-2.2s1-2.2,2.2-2.2c1.2,0,2.2,1,2.2,2.2C-274.4,513.3-275.4,514.3-276.6,514.3z M-254.3,621.3
					c1.2,0,2.2,1,2.2,2.2c0,1.2-1,2.2-2.2,2.2c-1.2,0-2.2-1-2.2-2.2C-256.6,622.3-255.6,621.3-254.3,621.3z M-265.5,632.4
					c1.2,0,2.2,1,2.2,2.2c0,1.2-1,2.2-2.2,2.2c-1.2,0-2.2-1-2.2-2.2C-267.7,633.4-266.7,632.4-265.5,632.4z M-265.5,592.3
					c-1.2,0-2.2-1-2.2-2.2c0-1.2,1-2.2,2.2-2.2c1.2,0,2.2,1,2.2,2.2C-263.2,591.3-264.2,592.3-265.5,592.3z M-265.5,570
					c-1.2,0-2.2-1-2.2-2.2c0-1.2,1-2.2,2.2-2.2c1.2,0,2.2,1,2.2,2.2C-263.2,569-264.2,570-265.5,570z M-265.5,547.8
					c-1.2,0-2.2-1-2.2-2.2c0-1.2,1-2.2,2.2-2.2c1.2,0,2.2,1,2.2,2.2C-263.2,546.8-264.2,547.8-265.5,547.8z M-265.5,525.5
					c-1.2,0-2.2-1-2.2-2.2c0-1.2,1-2.2,2.2-2.2c1.2,0,2.2,1,2.2,2.2C-263.2,524.5-264.2,525.5-265.5,525.5z M-265.5,503.2
					c-1.2,0-2.2-1-2.2-2.2c0-1.2,1-2.2,2.2-2.2c1.2,0,2.2,1,2.2,2.2C-263.2,502.2-264.2,503.2-265.5,503.2z M-265.5,480.9
					c-1.2,0-2.2-1-2.2-2.2c0-1.2,1-2.2,2.2-2.2c1.2,0,2.2,1,2.2,2.2C-263.2,479.9-264.2,480.9-265.5,480.9z M-265.5,458.6
					c-1.2,0-2.2-1-2.2-2.2c0-1.2,1-2.2,2.2-2.2c1.2,0,2.2,1,2.2,2.2C-263.2,457.6-264.2,458.6-265.5,458.6z M-265.5,436.3
					c-1.2,0-2.2-1-2.2-2.2c0-1.2,1-2.2,2.2-2.2c1.2,0,2.2,1,2.2,2.2C-263.2,435.3-264.2,436.3-265.5,436.3z M-265.5,391.7
					c-1.2,0-2.2-1-2.2-2.2c0-1.2,1-2.2,2.2-2.2c1.2,0,2.2,1,2.2,2.2C-263.2,390.7-264.2,391.7-265.5,391.7z M-265.5,369.5
					c-1.2,0-2.2-1-2.2-2.2c0-1.2,1-2.2,2.2-2.2c1.2,0,2.2,1,2.2,2.2C-263.2,368.5-264.2,369.5-265.5,369.5z M-254.3,581.2
					c-1.2,0-2.2-1-2.2-2.2c0-1.2,1-2.2,2.2-2.2c1.2,0,2.2,1,2.2,2.2C-252.1,580.2-253.1,581.2-254.3,581.2z M-254.3,558.9
					c-1.2,0-2.2-1-2.2-2.2c0-1.2,1-2.2,2.2-2.2c1.2,0,2.2,1,2.2,2.2C-252.1,557.9-253.1,558.9-254.3,558.9z M-254.3,536.6
					c-1.2,0-2.2-1-2.2-2.2c0-1.2,1-2.2,2.2-2.2c1.2,0,2.2,1,2.2,2.2C-252.1,535.6-253.1,536.6-254.3,536.6z M-254.3,514.3
					c-1.2,0-2.2-1-2.2-2.2s1-2.2,2.2-2.2c1.2,0,2.2,1,2.2,2.2C-252.1,513.3-253.1,514.3-254.3,514.3z M-254.3,492
					c-1.2,0-2.2-1-2.2-2.2c0-1.2,1-2.2,2.2-2.2c1.2,0,2.2,1,2.2,2.2C-252.1,491-253.1,492-254.3,492z M-254.3,469.7
					c-1.2,0-2.2-1-2.2-2.2c0-1.2,1-2.2,2.2-2.2c1.2,0,2.2,1,2.2,2.2C-252.1,468.7-253.1,469.7-254.3,469.7z M-254.3,447.5
					c-1.2,0-2.2-1-2.2-2.2s1-2.2,2.2-2.2c1.2,0,2.2,1,2.2,2.2S-253.1,447.5-254.3,447.5z M-254.3,425.2c-1.2,0-2.2-1-2.2-2.2
					c0-1.2,1-2.2,2.2-2.2c1.2,0,2.2,1,2.2,2.2C-252.1,424.2-253.1,425.2-254.3,425.2z M-254.3,402.9c-1.2,0-2.2-1-2.2-2.2
					c0-1.2,1-2.2,2.2-2.2c1.2,0,2.2,1,2.2,2.2C-252.1,401.9-253.1,402.9-254.3,402.9z M-254.3,380.6c-1.2,0-2.2-1-2.2-2.2
					c0-1.2,1-2.2,2.2-2.2c1.2,0,2.2,1,2.2,2.2C-252.1,379.6-253.1,380.6-254.3,380.6z M-254.3,358.3c-1.2,0-2.2-1-2.2-2.2
					c0-1.2,1-2.2,2.2-2.2c1.2,0,2.2,1,2.2,2.2C-252.1,357.3-253.1,358.3-254.3,358.3z M-209.8,465.3c1.2,0,2.2,1,2.2,2.2
					c0,1.2-1,2.2-2.2,2.2c-1.2,0-2.2-1-2.2-2.2C-212,466.3-211,465.3-209.8,465.3z M-209.8,487.6c1.2,0,2.2,1,2.2,2.2
					c0,1.2-1,2.2-2.2,2.2c-1.2,0-2.2-1-2.2-2.2C-212,488.6-211,487.6-209.8,487.6z M-220.9,476.4c1.2,0,2.2,1,2.2,2.2
					c0,1.2-1,2.2-2.2,2.2c-1.2,0-2.2-1-2.2-2.2C-223.1,477.4-222.1,476.4-220.9,476.4z M-220.9,498.7c1.2,0,2.2,1,2.2,2.2
					c0,1.2-1,2.2-2.2,2.2c-1.2,0-2.2-1-2.2-2.2C-223.1,499.7-222.1,498.7-220.9,498.7z M-243.2,547.8c-1.2,0-2.2-1-2.2-2.2
					c0-1.2,1-2.2,2.2-2.2c1.2,0,2.2,1,2.2,2.2C-241,546.8-242,547.8-243.2,547.8z M-243.2,525.5c-1.2,0-2.2-1-2.2-2.2
					c0-1.2,1-2.2,2.2-2.2c1.2,0,2.2,1,2.2,2.2C-241,524.5-242,525.5-243.2,525.5z M-243.2,503.2c-1.2,0-2.2-1-2.2-2.2
					c0-1.2,1-2.2,2.2-2.2c1.2,0,2.2,1,2.2,2.2C-241,502.2-242,503.2-243.2,503.2z M-243.2,480.9c-1.2,0-2.2-1-2.2-2.2
					c0-1.2,1-2.2,2.2-2.2c1.2,0,2.2,1,2.2,2.2C-241,479.9-242,480.9-243.2,480.9z M-243.2,458.6c-1.2,0-2.2-1-2.2-2.2
					c0-1.2,1-2.2,2.2-2.2c1.2,0,2.2,1,2.2,2.2C-241,457.6-242,458.6-243.2,458.6z M-243.2,436.3c-1.2,0-2.2-1-2.2-2.2
					c0-1.2,1-2.2,2.2-2.2c1.2,0,2.2,1,2.2,2.2C-241,435.3-242,436.3-243.2,436.3z M-243.2,414c-1.2,0-2.2-1-2.2-2.2
					c0-1.2,1-2.2,2.2-2.2c1.2,0,2.2,1,2.2,2.2C-241,413-242,414-243.2,414z M-243.2,391.7c-1.2,0-2.2-1-2.2-2.2c0-1.2,1-2.2,2.2-2.2
					c1.2,0,2.2,1,2.2,2.2C-241,390.7-242,391.7-243.2,391.7z M-243.2,369.5c-1.2,0-2.2-1-2.2-2.2c0-1.2,1-2.2,2.2-2.2
					c1.2,0,2.2,1,2.2,2.2C-241,368.5-242,369.5-243.2,369.5z M-243.2,347.2c-1.2,0-2.2-1-2.2-2.2c0-1.2,1-2.2,2.2-2.2
					c1.2,0,2.2,1,2.2,2.2C-241,346.2-242,347.2-243.2,347.2z M-243.2,324.9c-1.2,0-2.2-1-2.2-2.2c0-1.2,1-2.2,2.2-2.2
					c1.2,0,2.2,1,2.2,2.2C-241,323.9-242,324.9-243.2,324.9z M-232,536.6c-1.2,0-2.2-1-2.2-2.2c0-1.2,1-2.2,2.2-2.2
					c1.2,0,2.2,1,2.2,2.2C-229.8,535.6-230.8,536.6-232,536.6z M-232,514.3c-1.2,0-2.2-1-2.2-2.2s1-2.2,2.2-2.2c1.2,0,2.2,1,2.2,2.2
					C-229.8,513.3-230.8,514.3-232,514.3z M-232,492c-1.2,0-2.2-1-2.2-2.2c0-1.2,1-2.2,2.2-2.2c1.2,0,2.2,1,2.2,2.2
					C-229.8,491-230.8,492-232,492z M-232,469.7c-1.2,0-2.2-1-2.2-2.2c0-1.2,1-2.2,2.2-2.2c1.2,0,2.2,1,2.2,2.2
					C-229.8,468.7-230.8,469.7-232,469.7z M-232,447.5c-1.2,0-2.2-1-2.2-2.2s1-2.2,2.2-2.2c1.2,0,2.2,1,2.2,2.2
					S-230.8,447.5-232,447.5z M-232,425.2c-1.2,0-2.2-1-2.2-2.2c0-1.2,1-2.2,2.2-2.2c1.2,0,2.2,1,2.2,2.2
					C-229.8,424.2-230.8,425.2-232,425.2z M-232,402.9c-1.2,0-2.2-1-2.2-2.2c0-1.2,1-2.2,2.2-2.2c1.2,0,2.2,1,2.2,2.2
					C-229.8,401.9-230.8,402.9-232,402.9z M-232,380.6c-1.2,0-2.2-1-2.2-2.2c0-1.2,1-2.2,2.2-2.2c1.2,0,2.2,1,2.2,2.2
					C-229.8,379.6-230.8,380.6-232,380.6z M-232,358.3c-1.2,0-2.2-1-2.2-2.2c0-1.2,1-2.2,2.2-2.2c1.2,0,2.2,1,2.2,2.2
					C-229.8,357.3-230.8,358.3-232,358.3z M-232,336c-1.2,0-2.2-1-2.2-2.2c0-1.2,1-2.2,2.2-2.2c1.2,0,2.2,1,2.2,2.2
					C-229.8,335-230.8,336-232,336z M-232,313.7c-1.2,0-2.2-1-2.2-2.2s1-2.2,2.2-2.2c1.2,0,2.2,1,2.2,2.2S-230.8,313.7-232,313.7z
					 M-220.9,436.3c-1.2,0-2.2-1-2.2-2.2c0-1.2,1-2.2,2.2-2.2c1.2,0,2.2,1,2.2,2.2C-218.7,435.3-219.7,436.3-220.9,436.3z
					 M-220.9,414c-1.2,0-2.2-1-2.2-2.2c0-1.2,1-2.2,2.2-2.2c1.2,0,2.2,1,2.2,2.2C-218.7,413-219.7,414-220.9,414z M-220.9,391.7
					c-1.2,0-2.2-1-2.2-2.2c0-1.2,1-2.2,2.2-2.2c1.2,0,2.2,1,2.2,2.2C-218.7,390.7-219.7,391.7-220.9,391.7z M-220.9,369.5
					c-1.2,0-2.2-1-2.2-2.2c0-1.2,1-2.2,2.2-2.2c1.2,0,2.2,1,2.2,2.2C-218.7,368.5-219.7,369.5-220.9,369.5z M-220.9,347.2
					c-1.2,0-2.2-1-2.2-2.2c0-1.2,1-2.2,2.2-2.2c1.2,0,2.2,1,2.2,2.2C-218.7,346.2-219.7,347.2-220.9,347.2z M-220.9,324.9
					c-1.2,0-2.2-1-2.2-2.2c0-1.2,1-2.2,2.2-2.2c1.2,0,2.2,1,2.2,2.2C-218.7,323.9-219.7,324.9-220.9,324.9z M-220.9,302.6
					c-1.2,0-2.2-1-2.2-2.2c0-1.2,1-2.2,2.2-2.2c1.2,0,2.2,1,2.2,2.2C-218.7,301.6-219.7,302.6-220.9,302.6z M-198.6,387.3
					c1.2,0,2.2,1,2.2,2.2c0,1.2-1,2.2-2.2,2.2c-1.2,0-2.2-1-2.2-2.2C-200.8,388.3-199.8,387.3-198.6,387.3z M-209.8,398.4
					c1.2,0,2.2,1,2.2,2.2c0,1.2-1,2.2-2.2,2.2c-1.2,0-2.2-1-2.2-2.2C-212,399.4-211,398.4-209.8,398.4z M-209.8,420.7
					c1.2,0,2.2,1,2.2,2.2c0,1.2-1,2.2-2.2,2.2c-1.2,0-2.2-1-2.2-2.2C-212,421.7-211,420.7-209.8,420.7z M-209.8,336
					c-1.2,0-2.2-1-2.2-2.2c0-1.2,1-2.2,2.2-2.2c1.2,0,2.2,1,2.2,2.2C-207.5,335-208.5,336-209.8,336z M-209.8,313.7
					c-1.2,0-2.2-1-2.2-2.2s1-2.2,2.2-2.2c1.2,0,2.2,1,2.2,2.2S-208.5,313.7-209.8,313.7z M-209.8,291.4c-1.2,0-2.2-1-2.2-2.2
					c0-1.2,1-2.2,2.2-2.2c1.2,0,2.2,1,2.2,2.2C-207.5,290.4-208.5,291.4-209.8,291.4z M-209.8,269.2c-1.2,0-2.2-1-2.2-2.2
					c0-1.2,1-2.2,2.2-2.2c1.2,0,2.2,1,2.2,2.2C-207.5,268.2-208.5,269.2-209.8,269.2z M-198.6,302.6c-1.2,0-2.2-1-2.2-2.2
					c0-1.2,1-2.2,2.2-2.2c1.2,0,2.2,1,2.2,2.2C-196.4,301.6-197.4,302.6-198.6,302.6z M-198.6,280.3c-1.2,0-2.2-1-2.2-2.2
					c0-1.2,1-2.2,2.2-2.2c1.2,0,2.2,1,2.2,2.2C-196.4,279.3-197.4,280.3-198.6,280.3z M-198.6,258c-1.2,0-2.2-1-2.2-2.2
					c0-1.2,1-2.2,2.2-2.2c1.2,0,2.2,1,2.2,2.2C-196.4,257-197.4,258-198.6,258z M-187.5,246.9c-1.2,0-2.2-1-2.2-2.2
					c0-1.2,1-2.2,2.2-2.2c1.2,0,2.2,1,2.2,2.2C-185.2,245.9-186.2,246.9-187.5,246.9z M-176.3,213.4c-1.2,0-2.2-1-2.2-2.2
					c0-1.2,1-2.2,2.2-2.2s2.2,1,2.2,2.2C-174.1,212.4-175.1,213.4-176.3,213.4z"/>
				<path fill="none" d="M-163.1,176.9l0.4-1.7l-0.7,1.2C-163.3,176.6-163.2,176.7-163.1,176.9z"/>
				<circle fill="#EF7D29" cx="-176.3" cy="211.2" r="2.2"/>
				<path fill="#EF7D29" d="M-165.4,180c0.1,0,0.2,0,0.2,0c0.5,0,1-0.2,1.3-0.5l0.7-2.7c-0.1-0.2-0.2-0.3-0.3-0.4L-165.4,180z"/>
				<path fill="#EF7D29" d="M-178.6,233.5c0,0.3,0.1,0.6,0.2,0.9l0.7-2.6C-178.2,232.2-178.6,232.8-178.6,233.5z"/>
				<circle fill="#EF7D29" cx="-187.5" cy="244.6" r="2.2"/>
				<circle fill="#EF7D29" cx="-198.6" cy="255.8" r="2.2"/>
				<path fill="#EF7D29" d="M-187.5,224.6c1.2,0,2.2-1,2.2-2.2c0-1.2-1-2.2-2.2-2.2c-0.4,0-0.7,0.1-1,0.3l-1.2,2.1
					C-189.6,223.6-188.7,224.6-187.5,224.6z"/>
				<circle fill="#EF7D29" cx="-209.8" cy="289.2" r="2.2"/>
				<circle fill="#EF7D29" cx="-198.6" cy="300.4" r="2.2"/>
				<circle fill="#EF7D29" cx="-220.9" cy="300.4" r="2.2"/>
				<circle fill="#EF7D29" cx="-198.6" cy="278.1" r="2.2"/>
				<path fill="#EF7D29" d="M-218.7,278.1c0-1-0.7-1.8-1.6-2.1l-2.2,3.8c0.4,0.4,0.9,0.6,1.5,0.6
					C-219.7,280.3-218.7,279.3-218.7,278.1z"/>
				<circle fill="#EF7D29" cx="-209.8" cy="266.9" r="2.2"/>
				<path fill="#EF7D29" d="M-189.7,266.9c0,1.2,0.9,2.1,2.1,2.2l1.1-4.2c-0.3-0.1-0.6-0.2-1-0.2
					C-188.7,264.7-189.7,265.7-189.7,266.9z"/>
				<circle fill="#EF7D29" cx="-209.8" cy="333.8" r="2.2"/>
				<circle fill="#EF7D29" cx="-220.9" cy="344.9" r="2.2"/>
				<circle fill="#EF7D29" cx="-220.9" cy="322.6" r="2.2"/>
				<circle fill="#EF7D29" cx="-209.8" cy="311.5" r="2.2"/>
				<path fill="#EF7D29" d="M-209.8,380.6c1.2,0,2.2-1,2.2-2.2c0-0.6-0.2-1.1-0.5-1.4h-3.4c-0.3,0.4-0.5,0.9-0.5,1.4
					C-212,379.6-211,380.6-209.8,380.6z"/>
				<path fill="#EF7D29" d="M-187.5,380.6c1.2,0,2.2-1,2.2-2.2c0-0.6-0.2-1.1-0.5-1.4h-3.4c-0.3,0.4-0.5,0.9-0.5,1.4
					C-189.7,379.6-188.7,380.6-187.5,380.6z"/>
				<circle fill="#EF7D29" cx="-198.6" cy="389.5" r="2.2"/>
				<circle fill="#EF7D29" cx="-220.9" cy="389.5" r="2.2"/>
				<circle fill="#EF7D29" cx="-220.9" cy="367.2" r="2.2"/>
				<path fill="#EF7D29" d="M-212,356.1c0,0.7,0.3,1.4,0.9,1.8l1-4C-211.1,354-212,355-212,356.1z"/>
				<circle fill="#EF7D29" cx="-209.8" cy="422.9" r="2.2"/>
				<circle fill="#EF7D29" cx="-220.9" cy="434.1" r="2.2"/>
				<path fill="#EF7D29" d="M-200.8,411.8c0,0.6,0.2,1.1,0.6,1.5l2-3.7c-0.1,0-0.2,0-0.4,0C-199.8,409.6-200.8,410.6-200.8,411.8z"
					/>
				<circle fill="#EF7D29" cx="-220.9" cy="411.8" r="2.2"/>
				<circle fill="#EF7D29" cx="-209.8" cy="400.7" r="2.2"/>
				<circle fill="#EF7D29" cx="-209.8" cy="467.5" r="2.2"/>
				<circle fill="#EF7D29" cx="-220.9" cy="478.7" r="2.2"/>
				<circle fill="#EF7D29" cx="-220.9" cy="500.9" r="2.2"/>
				<circle fill="#EF7D29" cx="-232" cy="534.4" r="2.2"/>
				<circle fill="#EF7D29" cx="-209.8" cy="489.8" r="2.2"/>
				<path fill="#EF7D29" d="M-252.1,333.8c0-0.5-0.2-0.9-0.4-1.3l-2,3.5c0.1,0,0.1,0,0.2,0C-253.1,336-252.1,335-252.1,333.8z"/>
				<circle fill="#EF7D29" cx="-232" cy="333.8" r="2.2"/>
				<circle fill="#EF7D29" cx="-243.2" cy="344.9" r="2.2"/>
				<circle fill="#EF7D29" cx="-243.2" cy="322.6" r="2.2"/>
				<circle fill="#EF7D29" cx="-232" cy="311.5" r="2.2"/>
				<circle fill="#EF7D29" cx="-254.3" cy="378.4" r="2.2"/>
				<circle fill="#EF7D29" cx="-232" cy="378.4" r="2.2"/>
				<circle fill="#EF7D29" cx="-243.2" cy="389.5" r="2.2"/>
				<circle fill="#EF7D29" cx="-265.5" cy="389.5" r="2.2"/>
				<circle fill="#EF7D29" cx="-243.2" cy="367.2" r="2.2"/>
				<circle fill="#EF7D29" cx="-265.5" cy="367.2" r="2.2"/>
				<circle fill="#EF7D29" cx="-254.3" cy="356.1" r="2.2"/>
				<circle fill="#EF7D29" cx="-232" cy="356.1" r="2.2"/>
				<circle fill="#EF7D29" cx="-254.3" cy="422.9" r="2.2"/>
				<circle fill="#EF7D29" cx="-232" cy="422.9" r="2.2"/>
				<circle fill="#EF7D29" cx="-243.2" cy="434.1" r="2.2"/>
				<circle fill="#EF7D29" cx="-265.5" cy="434.1" r="2.2"/>
				<circle fill="#EF7D29" cx="-243.2" cy="411.8" r="2.2"/>
				<path fill="#EF7D29" d="M-263.2,411.8c0-1.2-1-2.2-2.2-2.2c-0.9,0-1.6,0.5-2,1.2h3.2l-1.6,3.2c0.1,0,0.3,0,0.4,0
					C-264.2,414-263.2,413-263.2,411.8z"/>
				<circle fill="#EF7D29" cx="-254.3" cy="400.7" r="2.2"/>
				<circle fill="#EF7D29" cx="-232" cy="400.7" r="2.2"/>
				<circle fill="#EF7D29" cx="-254.3" cy="467.5" r="2.2"/>
				<circle fill="#EF7D29" cx="-232" cy="467.5" r="2.2"/>
				<circle fill="#EF7D29" cx="-243.2" cy="478.7" r="2.2"/>
				<circle fill="#EF7D29" cx="-265.5" cy="478.7" r="2.2"/>
				<circle fill="#EF7D29" cx="-243.2" cy="456.4" r="2.2"/>
				<circle fill="#EF7D29" cx="-265.5" cy="456.4" r="2.2"/>
				<circle fill="#EF7D29" cx="-254.3" cy="445.2" r="2.2"/>
				<circle fill="#EF7D29" cx="-232" cy="445.2" r="2.2"/>
				<circle fill="#EF7D29" cx="-254.3" cy="534.4" r="2.2"/>
				<circle fill="#EF7D29" cx="-254.3" cy="512.1" r="2.2"/>
				<circle fill="#EF7D29" cx="-232" cy="512.1" r="2.2"/>
				<circle fill="#EF7D29" cx="-243.2" cy="523.2" r="2.2"/>
				<circle fill="#EF7D29" cx="-265.5" cy="523.2" r="2.2"/>
				<circle fill="#EF7D29" cx="-243.2" cy="500.9" r="2.2"/>
				<circle fill="#EF7D29" cx="-265.5" cy="500.9" r="2.2"/>
				<circle fill="#EF7D29" cx="-276.6" cy="534.4" r="2.2"/>
				<circle fill="#EF7D29" cx="-254.3" cy="489.8" r="2.2"/>
				<circle fill="#EF7D29" cx="-232" cy="489.8" r="2.2"/>
				<circle fill="#EF7D29" cx="-254.3" cy="579" r="2.2"/>
				<circle fill="#EF7D29" cx="-254.3" cy="556.7" r="2.2"/>
				<circle fill="#EF7D29" cx="-265.5" cy="567.8" r="2.2"/>
				<circle fill="#EF7D29" cx="-243.2" cy="545.5" r="2.2"/>
				<circle fill="#EF7D29" cx="-265.5" cy="545.5" r="2.2"/>
				<circle fill="#EF7D29" cx="-276.6" cy="579" r="2.2"/>
				<circle fill="#EF7D29" cx="-276.6" cy="556.7" r="2.2"/>
				<path fill="#EF7D29" d="M-254.3,625.8c1.2,0,2.2-1,2.2-2.2c0-1.2-1-2.2-2.2-2.2c-1.2,0-2.2,1-2.2,2.2
					C-256.6,624.8-255.6,625.8-254.3,625.8z"/>
				<circle fill="#EF7D29" cx="-265.5" cy="590.1" r="2.2"/>
				<path fill="#EF7D29" d="M-276.6,621.3c-1.2,0-2.2,1-2.2,2.2c0,1.2,1,2.2,2.2,2.2c1.2,0,2.2-1,2.2-2.2
					C-274.4,622.3-275.4,621.3-276.6,621.3z"/>
				<path fill="#EF7D29" d="M-276.6,599c-1.2,0-2.2,1-2.2,2.2c0,1.2,1,2.2,2.2,2.2c1.2,0,2.2-1,2.2-2.2
					C-274.4,600-275.4,599-276.6,599z"/>
				<path fill="#EF7D29" d="M-267.7,657c0,0.6,0.2,1.1,0.6,1.5l2.2-3.6c-0.2,0-0.4-0.1-0.6-0.1C-266.7,654.7-267.7,655.7-267.7,657z
					"/>
				<path fill="#EF7D29" d="M-265.5,636.9c1.2,0,2.2-1,2.2-2.2c0-1.2-1-2.2-2.2-2.2c-1.2,0-2.2,1-2.2,2.2
					C-267.7,635.9-266.7,636.9-265.5,636.9z"/>
				<path fill="#EF7D29" d="M-276.6,665.9c-1.2,0-2.2,1-2.2,2.2c0,1.2,1,2.2,2.2,2.2c1.2,0,2.2-1,2.2-2.2
					C-274.4,666.9-275.4,665.9-276.6,665.9z"/>
				<path fill="#EF7D29" d="M-276.6,643.6c-1.2,0-2.2,1-2.2,2.2c0,1.2,1,2.2,2.2,2.2c1.2,0,2.2-1,2.2-2.2
					C-274.4,644.6-275.4,643.6-276.6,643.6z"/>
				<path fill="#EF7D29" d="M-276.6,380.6c1.2,0,2.2-1,2.2-2.2c0-1.2-1-2.2-2.2-2.2c-0.4,0-0.7,0.1-1,0.2l-1.2,2.2
					C-278.7,379.7-277.8,380.6-276.6,380.6z"/>
				<path fill="#EF7D29" d="M-287.8,409.6c-0.9,0-1.6,0.5-2,1.2h3.9C-286.2,410.1-286.9,409.6-287.8,409.6z"/>
				<circle fill="#EF7D29" cx="-276.6" cy="400.7" r="2.2"/>
				<circle fill="#EF7D29" cx="-276.6" cy="467.5" r="2.2"/>
				<path fill="#EF7D29" d="M-285.5,456.4c0-0.6-0.3-1.2-0.7-1.6l-1.9,3.8c0.1,0,0.3,0,0.4,0C-286.5,458.6-285.5,457.6-285.5,456.4z
					"/>
				<circle fill="#EF7D29" cx="-276.6" cy="445.2" r="2.2"/>
				<path fill="#EF7D29" d="M-296.7,534.4c0-0.1,0-0.2,0-0.2l-1,2.1C-297.1,535.9-296.7,535.2-296.7,534.4z"/>
				<circle fill="#EF7D29" cx="-276.6" cy="512.1" r="2.2"/>
				<circle fill="#EF7D29" cx="-287.8" cy="523.2" r="2.2"/>
				<path fill="#EF7D29" d="M-274.4,489.8c0-0.6-0.2-1.2-0.6-1.6l-1.8,3.8c0.1,0,0.1,0,0.2,0C-275.4,492-274.4,491-274.4,489.8z"/>
				<circle fill="#EF7D29" cx="-298.9" cy="579" r="2.2"/>
				<circle fill="#EF7D29" cx="-298.9" cy="556.7" r="2.2"/>
				<circle fill="#EF7D29" cx="-287.8" cy="567.8" r="2.2"/>
				<circle fill="#EF7D29" cx="-310.1" cy="567.8" r="2.2"/>
				<circle fill="#EF7D29" cx="-287.8" cy="545.5" r="2.2"/>
				<path fill="#EF7D29" d="M-298.9,621.3c-1.2,0-2.2,1-2.2,2.2c0,1.2,1,2.2,2.2,2.2c1.2,0,2.2-1,2.2-2.2
					C-296.7,622.3-297.7,621.3-298.9,621.3z"/>
				<path fill="#EF7D29" d="M-298.9,599c-1.2,0-2.2,1-2.2,2.2c0,1.2,1,2.2,2.2,2.2c1.2,0,2.2-1,2.2-2.2
					C-296.7,600-297.7,599-298.9,599z"/>
				<path fill="#EF7D29" d="M-287.8,610.2c-1.2,0-2.2,1-2.2,2.2c0,1.2,1,2.2,2.2,2.2c1.2,0,2.2-1,2.2-2.2
					C-285.5,611.2-286.5,610.2-287.8,610.2z"/>
				<path fill="#EF7D29" d="M-310.1,610.2c-1.2,0-2.2,1-2.2,2.2c0,1.2,1,2.2,2.2,2.2c1.2,0,2.2-1,2.2-2.2
					C-307.8,611.2-308.8,610.2-310.1,610.2z"/>
				<circle fill="#EF7D29" cx="-287.8" cy="590.1" r="2.2"/>
				<circle fill="#EF7D29" cx="-310.1" cy="590.1" r="2.2"/>
				<path fill="#EF7D29" d="M-321.2,621.3c-1.2,0-2.2,1-2.2,2.2c0,1.2,1,2.2,2.2,2.2c1.2,0,2.2-1,2.2-2.2
					C-319,622.3-320,621.3-321.2,621.3z"/>
				<path fill="#EF7D29" d="M-321.2,599c-1.2,0-2.2,1-2.2,2.2c0,1.2,1,2.2,2.2,2.2c1.2,0,2.2-1,2.2-2.2C-319,600-320,599-321.2,599z
					"/>
				<path fill="#EF7D29" d="M-298.9,665.9c-1.2,0-2.2,1-2.2,2.2c0,1.2,1,2.2,2.2,2.2c1.2,0,2.2-1,2.2-2.2
					C-296.7,666.9-297.7,665.9-298.9,665.9z"/>
				<path fill="#EF7D29" d="M-298.9,643.6c-1.2,0-2.2,1-2.2,2.2c0,1.2,1,2.2,2.2,2.2c1.2,0,2.2-1,2.2-2.2
					C-296.7,644.6-297.7,643.6-298.9,643.6z"/>
				<path fill="#EF7D29" d="M-287.8,654.7c-1.2,0-2.2,1-2.2,2.2c0,1.2,1,2.2,2.2,2.2c1.2,0,2.2-1,2.2-2.2
					C-285.5,655.7-286.5,654.7-287.8,654.7z"/>
				<path fill="#EF7D29" d="M-310.1,654.7c-1.2,0-2.2,1-2.2,2.2c0,1.2,1,2.2,2.2,2.2c1.2,0,2.2-1,2.2-2.2
					C-307.8,655.7-308.8,654.7-310.1,654.7z"/>
				<path fill="#EF7D29" d="M-287.8,632.4c-1.2,0-2.2,1-2.2,2.2c0,1.2,1,2.2,2.2,2.2c1.2,0,2.2-1,2.2-2.2
					C-285.5,633.4-286.5,632.4-287.8,632.4z"/>
				<path fill="#EF7D29" d="M-310.1,632.4c-0.8,0-1.5,0.4-1.9,1.1h3.8C-308.5,632.9-309.2,632.4-310.1,632.4z"/>
				<path fill="#EF7D29" d="M-301.1,712.7c0,0.2,0,0.3,0.1,0.5l1.6-2.6C-300.4,710.8-301.1,711.6-301.1,712.7z"/>
				<circle fill="#EF7D29" cx="-298.9" cy="690.4" r="2.2"/>
				<circle fill="#EF7D29" cx="-310.1" cy="701.5" r="2.2"/>
				<circle fill="#EF7D29" cx="-287.8" cy="679.2" r="2.2"/>
				<circle fill="#EF7D29" cx="-310.1" cy="679.2" r="2.2"/>
				<circle fill="#EF7D29" cx="-321.2" cy="712.7" r="2.2"/>
				<circle fill="#EF7D29" cx="-321.2" cy="690.4" r="2.2"/>
				<path fill="#EF7D29" d="M-310.1,721.6c-1.2,0-2.2,1-2.2,2.2c0,1.2,1,2.2,2.2,2.2c0.4,0,0.9-0.1,1.2-0.4l1-1.6c0-0.1,0-0.2,0-0.3
					C-307.8,722.6-308.8,721.6-310.1,721.6z"/>
				<circle fill="#EF7D29" cx="-321.2" cy="735" r="2.2"/>
				<path fill="#EF7D29" d="M-332.3,614.6c1.2,0,2.2-1,2.2-2.2c0-1.2-1-2.2-2.2-2.2c-0.1,0-0.2,0-0.3,0l-1.6,3.4
					C-333.8,614.2-333.1,614.6-332.3,614.6z"/>
				<path fill="#EF7D29" d="M-332.3,632.4c-0.8,0-1.5,0.4-1.9,1.1h3.8C-330.8,632.9-331.5,632.4-332.3,632.4z"/>
				<path fill="#EF7D29" d="M-330.1,701.4l-0.6,1.7c0.4-0.4,0.6-0.9,0.6-1.5C-330.1,701.5-330.1,701.4-330.1,701.4z"/>
				<circle fill="#EF7D29" cx="-343.5" cy="757.2" r="2.2"/>
				<path fill="#EF7D29" d="M-341.3,735c0-0.2,0-0.4-0.1-0.6l-0.8,2.4C-341.6,736.3-341.3,735.7-341.3,735z"/>
				<circle fill="#EF7D29" cx="-332.3" cy="746.1" r="2.2"/>
				<circle fill="#EF7D29" cx="-332.3" cy="723.8" r="2.2"/>
				<path fill="#EF7D29" d="M-343.5,777.3c-1.2,0-2.2,1-2.2,2.2c0,1.2,0.9,2.2,2.1,2.2l2-3.3C-341.9,777.8-342.6,777.3-343.5,777.3z
					"/>
				<circle fill="#EF7D29" cx="-354.6" cy="790.7" r="2.2"/>
				<path fill="#EF7D29" d="M-352.4,768.4c0-0.3-0.1-0.7-0.2-0.9l-1,2.9C-352.9,770-352.4,769.2-352.4,768.4z"/>
				<path fill="#EF7D29" d="M-363.5,801.8c0-0.4-0.1-0.8-0.4-1.2l-1.1,3.3C-364.2,803.6-363.5,802.8-363.5,801.8z"/>
			</g>
		</g>
	</g>
</g>
</svg>
