<?xml version="1.0" encoding="utf-8"?>
<!-- Generator: Adobe Illustrator 18.1.1, SVG Export Plug-In . SVG Version: 6.00 Build 0)  -->
<svg version="1.1" id="Calque_1" xmlns="http://www.w3.org/2000/svg" xmlns:xlink="http://www.w3.org/1999/xlink" x="0px" y="0px"
	 viewBox="0 0 1000 1000" enable-background="new 0 0 1000 1000" xml:space="preserve">
<path opacity="0.52" fill="#FFFFFF" enable-background="new    " d="M282.5,257.1l17.8,24.6c0.4,0.8,1.4,1.2,2.4,1l29.8-5.4
	c1.8-0.2,3.6,1.8,2.4,3.6l-18,24.6c-0.4,0.8-0.8,1.6-0.2,2.4l14.2,26.8c1,1.8-0.8,3.8-2.8,3.2l-28.8-9.6c-0.8-0.2-1.6,0-2.4,0.8
	l-21,21.8c-1.4,1.4-4,0.4-4-1.6v-30.4c0-1-0.4-1.6-1.2-2.2l-27.4-13.2c-1.8-1-1.6-3.6,0.2-4.2l29-9.4c1-0.2,1.4-1,1.4-1.8l4-30
	C278.9,255.9,281.5,255.5,282.5,257.1z"/>
<path opacity="0.85" fill="#FFFFFF" enable-background="new    " d="M766.6,656.1l3.8,30.2c0.2,1,0.8,1.6,1.4,1.8l28.8,9.6
	c1.8,0.8,2.2,3.2,0.2,4.2l-27.4,12.8c-0.8,0.4-1.4,1.2-1.4,2.2l-0.2,30.4c0,2.2-2.6,3-4,1.4L747,726.4c-0.8-0.8-1.4-1-2.4-0.8
	l-29,9.2c-1.8,0.8-3.6-1.4-2.6-3.2l14.6-26.8c0.4-0.8,0.2-1.6-0.2-2.4l-17.6-24.6c-1.2-1.6,0.2-4,2.4-3.6l29.8,5.6
	c1,0.2,1.6-0.2,2.4-1l18-24.4C763.8,653.7,766.4,654.1,766.6,656.1z"/>
<path opacity="0.52" fill="#FFFFFF" enable-background="new    " d="M488.6,752.2l9.6,24.4c0.2,0.8,1,1.2,1.6,1.2l26,1.8
	c1.6,0.2,2.4,2.4,1.2,3.6l-20.2,16.6c-0.8,0.4-1,1.2-0.8,1.8l6,25.4c0.4,1.6-1.4,3-2.8,2.2l-22-14c-0.8-0.4-1.4-0.4-2.2,0
	l-22.2,13.8c-1.4,1-3.2-0.4-2.8-2.2l6.6-25.4c0.2-0.8,0-1.4-0.8-1.8l-20-16.8c-1.4-1.2-0.8-3.2,1.2-3.6l26-1.4
	c0.8,0,1.4-0.4,1.6-1.2l9.8-24.2C485.8,750.6,488,750.6,488.6,752.2z"/>
<path opacity="0.24" fill="#FFFFFF" enable-background="new    " d="M480.6,174.1l-0.2,16.8c0,0.4,0.2,1,0.8,1.2l15.2,7.8
	c1,0.4,1,1.8-0.2,2.4l-16.2,5c-0.4,0.2-0.8,0.4-1,1l-2.6,16.6c-0.2,1.2-1.6,1.4-2.4,0.4l-9.8-13.8c-0.2-0.4-0.8-0.8-1.2-0.4
	l-16.6,2.8c-1.2,0.2-1.8-1.2-1.2-1.8l10.4-13.6c0.2-0.4,0.2-1,0.2-1.4l-7.8-15c-0.4-1,0.4-2.2,1.4-1.8l16,5.6c0.4,0.2,1,0,1.4-0.2
	l12-12C479.2,172.5,480.6,172.9,480.6,174.1z"/>
<path opacity="0.85" fill="#FFFFFF" enable-background="new    " d="M298.1,717.3l-0.2,16.8c0,0.4,0.2,1,0.8,1.2l15.2,7.8
	c1,0.4,1,1.8-0.2,2.4l-16.2,5c-0.4,0.2-0.8,0.4-1,1l-2.6,16.6c-0.2,1.2-1.6,1.4-2.4,0.4l-9.6-13.8c-0.2-0.4-0.8-0.8-1.2-0.4
	l-16.6,2.8c-1.2,0.2-1.8-1.2-1.2-1.8l10.4-13.6c0.2-0.4,0.2-1,0.2-1.4l-7.8-15c-0.4-1,0.4-2.2,1.4-1.8l16,5.6c0.4,0.2,1,0,1.4-0.2
	l12-12.2C296.7,715.5,298.1,716.1,298.1,717.3z"/>
<path opacity="0.52" fill="#FFFFFF" enable-background="new    " d="M787.1,219.4l-0.4,18.2c0,0.4,0.2,1,0.8,1.2l16.2,8.4
	c1.2,0.4,1,2.2-0.2,2.6l-17.6,5.2c-0.4,0.2-1,0.8-1,1.2l-3,18c-0.2,1.2-1.8,1.6-2.4,0.4l-10.4-15c-0.2-0.4-0.8-0.8-1.4-0.8l-18,2.8
	c-1.2,0.2-2.2-1.2-1.2-2.2l11.2-14.6c0.2-0.4,0.4-1,0.2-1.4l-8.2-16.4c-0.4-1.2,0.4-2.4,1.6-1.8l17.2,6c0.4,0.2,1.2,0,1.4-0.2
	l12.8-12.8C785.7,217.6,787.1,218.2,787.1,219.4z"/>
<path opacity="0.85" fill="#FFFFFF" enable-background="new    " d="M649.5,167.9l-14.3,27.3c-0.5,0.7-0.5,1.8,0.2,2.6l18.4,24.6
	c1,1.5,0,4.1-2.2,3.8l-30.5-5.2c-0.9,0-1.8,0-2.3,0.9l-17.9,25c-1.2,1.7-3.8,1-4.2-1.1l-4.3-30.5c-0.2-0.8-0.7-1.5-1.8-1.8
	l-29.3-9.2c-1.9-0.6-2.2-3.5-0.4-4.4l27.6-13.8c0.9-0.5,1.3-1.1,1.5-2.1l-0.4-30.9c0.1-2.1,2.5-3.1,3.9-1.7l21.7,22.1
	c0.6,0.8,1.5,0.8,2.3,0.5l29.1-9.9C648.9,164.1,650.5,166.2,649.5,167.9z"/>
<path opacity="0.24" fill="#FFFFFF" enable-background="new    " d="M661.2,810.9l-12.5,13.5c-0.4,0.5-0.4,1-0.3,1.3l6.8,17
	c0.3,1.1-0.6,2.3-1.9,1.7l-16.6-7.7c-0.5-0.2-1.1-0.2-1.6,0.2l-14.1,11.7c-1,0.9-2.4,0-2.2-1.3l2.2-18.2c0.1-0.7-0.1-1-0.6-1.4
	L605,818c-1.1-0.5-0.8-2.2,0.5-2.4l18-3.7c0.5-0.1,0.8-0.5,1-1l4.5-17.7c0.3-1.2,1.9-1.5,2.6-0.3l9,15.9c0.3,0.5,0.7,0.7,1.4,0.7
	l18.3-1.2C661.2,808.7,662,810.1,661.2,810.9z"/>
<path opacity="0.85" fill="#FFFFFF" enable-background="new    " d="M292.2,580l-17.8,19.8c-0.6,0.5-0.6,1.5-0.4,2l10.1,24.4
	c0.5,1.5-1.1,3.3-2.7,2.7l-24.2-10.8c-0.7-0.5-1.5-0.4-2,0.1l-20.4,17c-1.3,1.1-3.4,0.1-3.3-1.5l2.8-26.3c0-0.9-0.3-1.5-1-2
	l-22.6-13.9c-1.5-0.8-1.1-3.1,0.7-3.5l26.1-5.5c0.8-0.2,1.3-0.6,1.3-1.5l6.2-25.8c0.5-1.8,2.5-2.2,3.8-0.5l13,23
	c0.4,0.7,1,1.1,1.8,0.9l26.4-2C292.4,576.7,293.4,578.7,292.2,580z"/>
<path opacity="0.85" fill="#FFFFFF" enable-background="new    " d="M856.4,394.6l-15.4,7.4c-0.4,0.2-0.8,0.6-0.7,1.3l-0.2,17.3
	c0.1,1.1-1.2,1.7-2.3,0.9L826,409.1c-0.4-0.3-0.7-0.5-1.4-0.5l-16.3,5.2c-1.2,0.4-2-0.8-1.5-2l8.1-15.2c0.3-0.4,0.4-1.1-0.2-1.3
	l-10.1-13.8c-0.7-1,0.3-2.2,1.1-1.9l17.1,3.3c0.5,0,1-0.3,1.4-0.5l10.1-13.9c0.7-0.8,2.2-0.6,2.3,0.5l2.2,17.1
	c0,0.5,0.5,0.9,0.8,1.2l16.3,5.5C857.2,392.6,857.5,394.1,856.4,394.6z"/>
<path opacity="0.24" fill="#FFFFFF" enable-background="new    " d="M216.6,406.2l-15.4,7.4c-0.4,0.2-0.8,0.6-0.7,1.3l-0.2,17.3
	c0.1,1.1-1.2,1.7-2.3,0.9l-11.9-12.5c-0.4-0.3-0.7-0.5-1.4-0.5l-16.3,5.2c-1.2,0.4-2-0.8-1.5-2l8.2-15c0.3-0.4,0.4-1.1-0.2-1.3
	L165,393.3c-0.7-1,0.3-2.2,1.1-1.9l17.1,3.3c0.5,0,1-0.3,1.4-0.5l10.1-13.9c0.7-0.8,2.2-0.6,2.3,0.5l2.2,17.1c0,0.5,0.5,0.9,0.8,1.2
	l16.5,5.4C217.6,404.1,217.6,405.7,216.6,406.2z"/>
<path opacity="0.52" fill="#FFFFFF" enable-background="new    " d="M912.7,610.2l-16.7,7.9c-0.4,0.2-0.8,0.6-0.7,1.3l-0.3,18.5
	c0.2,1.3-1.5,1.9-2.5,1l-12.7-13.6c-0.4-0.3-1.2-0.5-1.5-0.4l-17.7,5.4c-1.2,0.4-2.3-0.9-1.5-2L868,612c0.3-0.4,0.4-1.1,0.1-1.6
	l-10.7-15.1c-0.7-1,0.1-2.5,1.5-2.1l18.3,3.6c0.5,0,1.1-0.1,1.4-0.5l11.2-14.9c0.9-0.9,2.4-0.7,2.4,0.6l2.3,18.4
	c0,0.5,0.5,1.1,0.8,1.2l17.4,5.8C913.7,608.1,913.8,609.6,912.7,610.2z"/>
<g id="Calque_5_-_copie_2" display="none">
	<g display="inline">
		<path fill="#FFFFFF" d="M-218,235.5l1.3-0.7c0.6-0.4,1.6,0.1,3.2,1.3c1.2,2.1,4.9,11.2,11.1,27.6c1.2-0.7,2.8-1.4,4.7-2l-1.4-0.8
			l-1.1-1.8c0.5-0.9-1.1-6.4-4.5-16.5l0.6-0.4c0.6-0.4,1.6-0.1,3.2,0.8c2.3,5.3,4.2,9,5.6,11.5c3.9,2.9,6.1,4.7,6.6,5.4l0.2,1.5
			l2.7-2.5l1.3-0.7l3.5-1.1c-2.7-6.1-3.6-9.5-2.7-10.1l0.7-0.5l0.4,0.6c1.4,2.5,2,4.9,1.9,7.4l1.2,0.8c0.2,2.3,1.1,5.7,2.5,10.2
			l3.7,3.6l0.7-0.5c-1.3-2.2-1.9-5.2-2-8.8c-0.4,0.2-0.7,0.1-0.8-0.2c0.5-0.9,1.2-1.6,2.1-2.2l-1.1-1.8l-0.8,1.4l-1.4-0.8
			c1.6-0.9,2.3-1.9,1.8-2.7l-0.6,0.4l-2.3-11.2l1.3-0.7l0.5,0.7c0.6,0.9,0.8,2,0.7,2.9l1.4,0.7c0.5,0.7,0.7,2.2,0.9,4.6
			c1.1,1.1,1.9,1.4,2.3,1.1c3.3,9.8,4.9,15.6,4.9,17.2l1.2,0.8l4.1,12.5c0.2,0.5,0.6,0.6,0.9,0.5c1.2,4,7,15.5,17.6,34.6l1.3,0.9
			c-0.1,1.9,0.2,3.3,0.8,4.3c8.6,14.8,18.6,39.4,30.3,73.8l1.2,0.8l1.6,4.1l0.5,0.7c6.2-11.6,11.6-20.9,16.3-27.8
			c5.6-9.8,9.5-15.5,11.8-16.8c0.6,0.8,1.3,0.9,2,0.6c-0.6-0.9,2.6-4.7,9.3-11.1l0.6-0.4c0.6,0.8,1.3,0.9,2,0.6
			c2.1-4.1,4.7-7,7.5-8.7l-3.5-6.2c-0.4-0.6,0.5-2.5,2.6-5.6l0.6-0.4c2.6-1.5,7.7,3.3,15.7,14.2l5.4,3.4c0.6,0.9,0.8,2,0.7,2.9
			c1.6,0.8,2.8,1.9,3.5,3c0.8,1.3,1.2,2.5,1.3,3.4l17.7,25.2l0.2,1.5l1.3,0.9l0.2,1.5l2,2.2c0.2,0.4,0.1,0.7-0.2,0.8l3,4l4.3,7.4
			c2,3.4,4.3,7.8,7,13.4l1.3,0.9l0.2,1.5c0.2,0.4,0.5,0.5,0.8,0.2l0.9,2.8c3.2,5.5,8.9,16.4,17,32.5l0.7-0.5l5.2-19.4
			c-0.7-1.2-0.1-3.2,1.6-6c-0.9-1.5-0.6-3.7,1.1-6.4c-1.2-2.1-0.4-5,2.3-8.9c-0.4-2.3,0-4,1.3-4.8c1.1-6,2.9-11.9,5.5-18.2l1.2-10.5
			c-0.2-0.5,0.7-2.7,2.8-6.7c7.4-30.8,11.7-46.9,12.8-48l2.6,0.2v-1.6c-0.9-0.5-1.5-0.9-1.8-1.4c1.9-9.3,3-14.1,3.4-14.3
			c0.8-0.5,1.6-0.1,2.3,1.1l1.1-2.3l-1.3-0.9l-0.7-1.3l8.3-28.7c-0.6-0.9,0.6-2.7,3.4-5.4l-1.3-0.9c-0.4-0.6,0.7-3.4,3.3-8.4
			c0.2,0.5,2.5,0.4,6.6-0.4l2.1,1.2c-5.6,14.2-10.9,31.9-15.7,53.1l0.7-0.5c6.7-19.3,10.8-29.4,12.2-30.2c2.8-1.6,5.6-1.6,8.4,0
			l0.5,0.7C84.9,305.4,78,328.8,73,349l0.6-0.4c13.2-42.4,21.2-64.4,23.9-66c1.4-0.8,3.5-1.2,6.1-1.2c2.1-4.6,3.9-7.4,5.3-8.1
			c3.6-1.5,5.9-1.6,6.6-0.4l0.7,1.3l-0.5,3.6l0.4,0.6c2.1-1.1,3.5-1.1,4.1,0l0.7,1.3c-0.8,6.1-1.6,9.4-2.5,9.8l0.4,0.6
			c0.6,0.9,2.8,0.5,6.7-1.4c-0.5-0.7,2-6.6,7.3-17.5l2.6,0.2c0.6-0.8,1.2-1.4,1.6-1.6l1.3,0.9l1.4,2.3
			c-3.6,12.5-10.4,31.5-20.4,56.7L101,385.9c-5.7,17-8.9,31-9.5,41.9c-5,25.4-10.8,51-17.2,76.4c0.6,0.9-0.6,6.6-3.5,16.8
			c0.6,1.1-1.4,12.8-6.2,35.3l-4.1,33c-1.3,1.2-2,1.9-2.2,2c-2.6,1.5-5.6,1.9-9.3,1.2c-1.9,0.4-3,0.1-3.4-0.5l-1.2-2
			c0.5-4,0.8-6.1,1.1-6.4l-3-4l-2.1-3.6c-2.1-0.6-4.5-2.8-7.3-6.7l-0.2-1.5c-2.2-2.9-3.7-4.8-4.7-5.5c0-0.9-0.4-1.9-0.9-2.8
			c-0.5-0.8-0.9-1.2-1.3-0.9l-1.3-3.4l-6.1-10.5l-2.3-2.8l0.6-0.4l-1.3-0.9l-0.2-1.5l-5-4.6l-0.5-3.9c-0.2-0.4-0.6-0.4-1.1-0.1
			L7,525.6l-6.4-11.2l-4.3-5.7l0.7-0.5c-0.2-0.5-0.7-0.6-1.2-0.4L-6,503l-5-8.7l-0.2-1.5c-0.8,0.5-1.5,0.4-2-0.6l-1.1-3.5
			c-0.2-0.4-0.6-0.4-1.1-0.1l-1.1-3.5l-0.5-0.7l-2.5-2.7l0.7-0.5c-2-1.4-3.5-3-4.6-4.9c0.4-0.2,0.5-0.5,0.2-0.8
			c-0.4,0.2-0.7,0.1-0.9-0.4c0.8-0.5,1.1-1.2,0.6-2c-0.5-0.7-1.1-0.8-1.9-0.4l-0.2-1.5l-1.3-0.9c-0.1-1.1-0.4-1.8-0.5-2.1l-1.3-0.9
			c-0.2-0.5-0.2-0.8,0.1-1.1c-3-4.2-4.9-6.1-5.6-5.6l-1.3-3.5c-0.2-0.4-0.7-0.8-1.6-1.5c-0.2-0.4-0.1-0.7,0.2-0.8l-6.7-8.7l0.7-0.5
			c-1.6-0.8-2.7-1.8-3.4-2.9c-0.1-1.1-0.4-1.9-0.6-2.3l-1.4,0.1l-0.2-1.5l-1.5-2.6c-0.5-0.8-1.2-1.1-2-0.6
			c-2.7,8.3-9.1,24.5-19.1,48.5c0.2,2.1-0.5,3.6-2.3,4.7c0.2,0.4,0.5,0.5,0.8,0.2c3.3,8.1,4.3,12.4,3.4,13l-1.3,0.7
			c-0.7,0.5-1.3,0.2-1.9-0.6l-0.9,1.3l-0.7,0.5c-0.8,0.5-1.5,0.4-2-0.6c0.1-1.8-0.2-3.3-0.8-4.3l-0.6,0.4c-1.2,0.7-0.6,3.6,1.8,8.9
			l-0.9,1.3l-3.6,2.1c1.2,1.9,1.6,3.3,1.5,4.2c0.9,0.6,1.5,1.1,1.8,1.4l-0.8,1.4l1.3,0.9c3.7,7.1,4.8,11.2,3,12.3
			c-0.9,0.6-2,0.8-2.9,0.7c-0.4,0.2-1.1,1.8-2.1,4.6l-1.3,0.7c-0.8,0.5-1.5,0.4-2-0.6l-2.3,3c-1.2-2.1-2.2-2.8-3-2.3
			c-0.9,0.6-1.9,0.8-2.8,0.9c-1.1,0.6,1.5,9,8,25.1l-4.9,4.6l4,6.9c0.1,2.7-0.1,4.2-0.7,4.6l-2.3,1.4c-3.2,0.4-4.9,0.2-5.3-0.4
			c-0.7-1.2-1.2-3-1.5-5.6l-1.4-0.8c-0.7-3.2-2.2-7.3-4.5-12.4l-1.4-0.8c-4.7-14.9-9.5-26.4-14.3-34.7c0.8-0.5,1.1-1.2,0.6-2
			l-0.4-0.6c-4.3-7.5-5.9-11.6-4.7-12.3c-0.2-0.5-0.6-0.6-0.9-0.5l-2.3-6.9l-1.4-0.8c-1.1-2.6-1.3-4.1-0.8-4.3l-1.3-0.9
			c-1.6-3.7-2.9-7.1-3.6-10.4c-0.2-0.4-0.5-0.5-0.8-0.2c-1.2-4-3.4-8.8-6.7-14.5l-1.4-2.3l-0.1-2.6c-1.1-0.9-1.8-1.4-2.1-1.2
			c-2.8-6.1-4-9.4-3.2-9.7l-1.4-0.8l-0.7-1.3c-0.5-0.8-0.7-1.8-0.6-2.8c-0.9-0.5-1.6-1.2-2.2-2.1c-2.1-3.6-2.8-6.8-2.2-9.6l-0.4-0.6
			l-2.3-1.1l0.1-2.7c-0.2-0.4-0.5-0.5-0.8-0.2c-3.9-8.3-5.5-12.5-5-12.8l-1.3-0.9c-2-3.4-2.1-5.5-0.6-6.4l-0.4-0.6l-2.3-1.1
			l-0.5-0.7l-1.1-3.5c-0.8,0.5-1.5,0.4-2-0.6c-0.5-0.8-0.1-1.6,1.1-2.3l-1.2-0.8c-2.3-4.9-5.7-13.5-10.1-25.8
			c-0.8-0.5-1.3-1.1-1.6-1.5c0.8-0.5,1.1-1.2,0.6-2l-1.5-2.6c-0.8-1.3-2-4.5-3.7-9.4c-1.1,0.1-1.9,0.4-2.3,0.6
			c-0.5-0.8-0.1-1.6,1.3-2.5l-2.3-1.1l-1.5-2.6l0.6-0.4l1.5-0.2l0.1-1.5c-0.6,0.4-1.6,0.1-3.2-0.8l-0.6-2.8l-1.4-0.8
			c-0.2-0.4-0.5-2.7-0.7-7c-0.8,0.5-1.5,0.4-2-0.6l0.9-1.3l-2.5-2.9v-2.5l-1.3-0.9c-0.2-0.4-0.1-0.7,0.2-0.8l-6.1-8.1l2.3-1.4
			c-2.8-3-4.5-4.8-4.8-5.4c-0.4-0.6-0.4-2.6,0-5.9l-0.7-1.3l-1.3,0.7c0.7,1.2,0.6,2.1-0.2,2.6l-0.6,0.4l-1.1-1.8l0.8-7.3l-0.4-0.6
			c-1.3,0.8-2.2,0.7-2.7-0.1l-0.7-1.3c1.3-0.8,1.4-2.2,0.2-4.2l-0.7,0.5l-0.9,1.3l-1.2-0.8l-0.5-0.7c1.2-0.7,1.2-2.1,0-4.1
			c-0.8-0.6-1.4-1.2-1.6-1.5c0.5-0.9,0.9-1.5,1.4-1.8l-0.4-0.6c-2.2-1.1-3.7-2.2-4.3-3.3c0.8-0.5,1.1-1.2,0.6-2
			c-1.3,0.8-2.2,0.7-2.7-0.1l-0.7-1.3l1.1-4c-1.2,0.7-2,0.7-2.5,0l-0.5-0.7l1.8-1.1l-2.3-2.8l-2-4.7c-1.2,0.7-2.1,0.6-2.6-0.2
			c-0.5-0.8-0.1-1.6,1.1-2.3l-0.4-0.6l-2.3-1.1c0.2-4.7,0.5-7,0.8-7.3c0.2,0.5,0.6,0.6,0.9,0.4c-0.4-0.9-0.2-1.5,0.6-2
			c0.6-0.4,1.6,0.1,3.2,1.3l0.9-1.3l0.7-0.5c0.2-0.1,2.2,0.5,5.9,1.8v-1.6c-0.5,0.2-0.8,0.2-1.2-0.4c0.8-0.5,1.1-1.2,0.6-2l-1.5,0.2
			c-1.2-3.6-1.3-5.7-0.2-6.3l1.3-0.7h2.5l0.7-0.5c-0.7-1.2-0.7-2,0-2.5c2.1,1.6,3.5,3.2,4.2,4.3l1.3-0.7c-1.8-3.2-2.9-6.3-3.2-9.7
			c-0.2-0.5-0.6-0.6-0.9-0.4C-217.9,239-218.8,236.1-218,235.5z M-89.1,580l0.5,0.7c0.8-0.5,1.1-1.2,0.6-2l-0.5-0.7
			C-89.3,578.6-89.6,579.2-89.1,580z M-185.6,367.5l1.3-0.7l1.1,1.8c-0.8,0.5-1.5,0.4-2-0.6L-185.6,367.5z M-129.8,449.4l17.9,42.8
			l0.7,1.3l0.7-0.5l-7.8-22c-0.8-0.6-1.4-1.2-1.6-1.6c-2.7-6.6-4.7-12.5-6.2-17.9l-0.7-1.3C-127.3,449.7-128.2,449.4-129.8,449.4z
			 M-132.6,443.6l2.2,3.7l0.7-0.5l-2.2-3.7L-132.6,443.6z M-218.7,267.4c0.2,0.5,0.5,1.2,0.5,2.1l0.5,0.7l0.6-0.4
			c-0.2-0.5-0.5-1.3-0.5-2.5l-0.4-0.6L-218.7,267.4z M-149.2,317.5l0.7,1.3l1.3-0.7l-1.5-2.6C-149.4,316.1-149.6,316.7-149.2,317.5z
			 M-172.2,266l0.7,2.9l1.3-0.7l-1.5-2.6L-172.2,266z M38.7,563.4l0.9,2.8l1.5-0.2l-1.8-3L38.7,563.4z M-39.7,390.8
			c0.9,0.5,1.5,0.9,1.8,1.4l0.6-0.4l-1.1-1.8L-39.7,390.8z M-31.3,403.4c0.7,0.4,1.5,1.3,2.3,2.8l0.7-0.5l-2.2-3.7L-31.3,403.4z
			 M-10.4,438.4c0.6,0.9,0.8,1.9,0.9,2.8L-8,441l-1.8-3L-10.4,438.4z M61.9,315.4l0.6-0.4c0.6-0.4,0.8-1.3,0.8-2.8l-0.5-0.7
			C62.3,311.9,61.9,313.2,61.9,315.4z M63.8,308.6l0.5,0.7c0.6-0.4,0.9-1.6,0.9-3.9l-0.6,0.4C63.9,306,63.7,307,63.8,308.6z
			 M67.4,294.9l0.6-0.4c0.6-0.4,0.8-1.3,0.8-2.8l-0.5-0.7C67.8,291.3,67.4,292.7,67.4,294.9z"/>
		<path fill="#FFFFFF" d="M261.2,162.2c12.4-0.4,23.4,4.7,33.3,15c22.3,12.7,39,35.8,50.4,69.6H344c2.5,8.6,6.1,27.4,10.9,56.5
			c0.9,0,1.9,0.8,3,2.6l0.2,8.7c0,2,0.5,3.5,1.2,4.6c0,0.7-0.2,1.6-0.9,3c1.2,16.3,2,27.3,2.6,32.8l-0.6,2l0.8,5.6l0.1,2.7
			c0,0.7-0.2,1.1-0.6,1.1c0,0.7,0.2,0.9,0.7,0.9c-0.7,21.1-1.6,33-2.6,35.8c0.7,1.1,1.1,2.5,1.1,4l-2,1.1l1.1,1.6
			c-11,55.9-22.6,93.4-34.6,112.5c-4.3,17.8-14.3,35.1-29.8,51.9c-10.9,6.3-17.6,11.2-20.1,14.9c-2.9,0.1-4.7,1.6-5.5,4.8
			c-3.5,1.2-7,1.9-10.5,2c-4.7-0.4-7.7-1.1-9.4-2.3v0.9c0.7,1.1,1.1,2,1.1,2.6l-2.9,2.1l-6.7,0.2c-16.6-7.7-25.9-15-27.9-21.8
			c-9.8-11.5-18.3-20-25.3-25.8l9,26.2v1.6h-1.6c-5.4-2.7-14.4-21.1-27.1-54.9c-0.9,0-3.3-5.5-7.1-16.8c-0.7,0-1.1-0.4-1.1-0.9
			l-0.1-2.7l0.9-2c-1.5,0-2.6-1.5-3.2-4.6h0.9c-1.9-3.5-4.3-10.9-7.3-22.4h0.9c-2.1-3.7-3.7-8.8-5-15.1c0.7,0,0.9-0.4,0.9-1.1
			c-2.5-2.6-5-12.3-7.5-28.9c0.7,0,0.9-0.4,0.9-1.1c-1.3,0-2-0.6-2-1.9l0.8-6.3c-1.4-2.2-2.1-3.7-2.1-4.9h0.9l-1.1-1.6
			c0-0.7,0.2-1.6,0.9-3l-1.1-3.6c0.2-5.7,0.8-8.7,1.8-8.7c0-0.7-0.4-0.9-1.1-0.9c0.4-9,0.9-14.1,1.5-15c-0.8-3.7-1.5-5.6-2.1-5.6
			l0.8-6.7l-0.4-11.6c-0.1-3.5,0.6-8.9,2.2-15.9l-1.1-2c3.7-16.3,6.3-25.8,7.8-28.5c3.6-4.8,5.4-8.2,5.4-10.4l-1.2-4.9
			c8.3-35.8,17.2-62.6,26.9-80c-0.1-3.3,3.3-7.5,10.3-12.5c0.9,0,4.8-4.8,11.8-14.3c8.4-8.2,20.5-15.2,36.2-21
			C241.1,165,249.2,162.5,261.2,162.2z M169.9,372.5l0.7,2l-0.6,2c0,0.5,0.2,0.7,0.7,0.6l-0.5,5l0.1,2.7h1.6l-0.4-14.3
			C170.5,370.7,169.9,371.3,169.9,372.5z M170.4,386.6l0.1,5.6h1.6l-0.1-5.6H170.4z M171.2,359.1l-0.8,5l0.1,4.7c1.3,0,2-0.7,1.9-2
			c0-0.7-0.4-0.9-1.1-0.9l0.8-4.7v-2L171.2,359.1z M171.2,357.5v0.7c1.3,0,2-0.6,2-1.8v-0.9C171.8,355.7,171.2,356.4,171.2,357.5z
			 M172.8,345.9c-0.6,3.3-0.8,5.4-0.8,6l0.1,2.7h0.9l0.8-6.7v-2H172.8z M175.1,296.7v2c1.3,0,2-0.7,1.9-2V295
			C175.8,295.1,175.1,295.7,175.1,296.7z M181.7,390l0.1,2.9h1.6V392C183.4,390.6,182.8,390,181.7,390z M181.9,394l0.1,5.6
			c0,1.3,0.4,2.6,1.1,3.6c0,0.7-0.4,1.1-0.9,1.1c0.8,6.4,1.9,13.4,3.3,20.9c0,0.5-0.4,0.7-0.9,0.7c5.7,30.1,9.4,45.2,10.9,45.1h0.9
			c-1.9-17.5-4.5-30.5-7.7-39.2l0.9-2c-1.4-3.3-2.1-5.5-2.2-6.6h0.9c-0.7-1.3-1.4-4.1-2.2-8.6h0.9c-2.1-4.3-3.2-6.8-3.2-7.3
			c0-0.7,0.4-1.1,0.9-1.1C184,398,182.9,394,181.9,394z M190.7,308.5v2c0.2,1.3,0.9,2,2,1.9l-0.1-4L190.7,308.5z M218.3,483.5v2
			c0.2,1.1,0.9,1.6,2,1.6h0.9v-0.9c-0.7-1.1-1.1-2-1.1-2.6L218.3,483.5z M211.6,216.3h2c0-1.1,2.7-4,8.1-8.6l2.8-4.1v-0.7
			C223.7,203.1,219.4,207.5,211.6,216.3z M219.2,353.1c0.7,2.5,1.2,4.6,1.2,6.6c0,1.3-0.2,2-0.9,2l1.2,4.6
			c-0.2,16.9-0.2,26.8-0.1,30.2l1.1,2c0,0.7-0.4,1.1-0.9,1.1c4.3,45.2,9.1,67.7,14.2,67.6c6.2,9.7,14.1,14.5,23.3,14.3
			c1.9-2,3.7-5.5,5.4-10.4c4-0.1,9.6-14.1,16.8-41.9c2.8-8.1,5.7-25.5,8.8-52.4c-1.1,0-1.6-0.6-1.8-2l-0.1-3.6
			c-0.1-4.5,0-8.2,0.4-11.2c-0.6-3.3-0.8-6.4-0.9-9.6c0-1.1,0.1-1.6,0.6-1.6l-0.8-4.9l-0.2-7.3c-1.2-2-2.6-6.7-4.3-14.2
			c-0.7,0-1.1-0.4-1.1-0.9v-0.9l0.8-2.1l-10.8-15.6c-3.6-9.8-9.4-14.6-17.3-14.4c-6.8,0.2-14.2,9.5-22.1,27.9
			c0,1.5-2.2,6.3-6.9,14.4C221.7,333.8,219.9,341.4,219.2,353.1z M223.3,497.7v0.7c5.3,6.9,9.8,10.3,13.6,10.2h0.9
			c-7-5.3-10.5-9-10.5-11L223.3,497.7z M226.9,519.1c0.2,1.3,0.9,2,2,1.9h0.9c0-1.3-0.7-2-2-1.9H226.9z M234.6,286.7h0.9
			c2-0.9,5.9-6.1,11.8-15.6c1.1,0,1.6-0.6,1.6-1.8H248C243.6,271.2,239.2,277,234.6,286.7z M252.3,584.4v0.9
			c7.7,1.8,11.9,2.7,12.3,2.6h0.9V587c-1.1,0-4.2-1.2-9.4-3.7C255.2,584,253.8,584.4,252.3,584.4z M262.6,516.1h0.9
			c2.5-0.9,3.6-1.9,3.5-2.8h-0.7C263.9,514.3,262.6,515.3,262.6,516.1z M257,177.5l-0.9,1.6c2.3,3,3.9,4.6,4.8,4.5
			c2.5-0.9,3.6-1.9,3.5-2.8C262.6,179,260.1,177.9,257,177.5z M257.3,224.6c0.2,1.3,0.8,2,1.8,2l2.9-0.1c0-1.3-0.7-2-2-1.9H257.3z
			 M281.7,254.1v0.9l8.4,6.4h0.9c-2.6-3.6-5.4-6.1-8.6-7.4h-0.7V254.1z M298.9,425.5c-1.8,9.6-3,15.6-4.1,18v0.9h0.7
			c3.7-8.8,5.5-15.1,5.4-19.1L298.9,425.5z M301.9,405.5c0.1,5-0.9,11.1-3.2,18l2,0.9c1.6-6.2,2.3-10.7,2.2-13.4l-0.1-5.6h-0.9
			V405.5z"/>
		<path fill="#FFFFFF" d="M699.9,203.5c-0.4-0.2-0.7,0-0.9,0.5c-0.2,3.4-1.2,6.7-2.8,9.8l1.3,0.7c0.7-1.2,2-2.7,4-4.5
			c0.7,0.4,0.8,1.2,0.1,2.5l0.7,0.4l2.5-0.1l1.3,0.7c0.9,0.5,0.9,2.7,0,6.3l-1.6-0.1c-0.5,0.8-0.2,1.5,0.6,2
			c-0.2,0.5-0.6,0.6-1.2,0.4v1.6c3.6-1.4,5.5-2.1,5.7-1.9l0.7,0.4l1.1,1.3c1.4-1.3,2.5-1.8,3.2-1.4c0.7,0.4,0.9,1.1,0.6,2
			c0.4,0.2,0.7,0,0.9-0.5c0.4,0.2,0.7,2.6,1.2,7.3l-2.2,1.2l-0.4,0.6c1.3,0.7,1.6,1.4,1.2,2.2c-0.5,0.8-1.3,0.9-2.6,0.4l-1.8,4.7
			l-2.2,2.8l1.9,0.9l-0.4,0.7c-0.4,0.7-1.2,0.8-2.5,0.1l1.2,4l-0.7,1.3c-0.5,0.8-1.4,0.9-2.7,0.2c-0.5,0.8-0.2,1.5,0.6,2
			c-0.6,1.1-2,2.2-4.2,3.5L702,256c0.5,0.2,0.9,0.8,1.4,1.8c-0.2,0.4-0.7,0.9-1.5,1.5c-1.1,2.1-1.1,3.5,0.2,4.1l-0.4,0.7l-1.2,0.8
			l-1.1-1.3l-0.7-0.4c-1.1,2.1-0.9,3.5,0.4,4.2l-0.7,1.3c-0.5,0.8-1.4,0.9-2.7,0.2l-0.4,0.6l1.2,7.3l-0.9,1.9l-0.6-0.4
			c-0.8-0.5-0.9-1.3-0.4-2.6l-1.3-0.7l-0.7,1.3c0.5,3.3,0.6,5.2,0.2,5.9c-0.4,0.6-1.9,2.5-4.6,5.6l2.5,1.3l-5.7,8.3
			c0.4,0.2,0.5,0.5,0.2,0.8l-1.3,1.1l0.1,2.5l-2.3,3l1.1,1.3c-0.5,0.8-1.2,1.1-2,0.6c-0.1,4.3-0.2,6.7-0.5,7.1l-1.4,0.9l-0.6,2.8
			c-1.4,0.9-2.5,1.3-3.2,0.9l0.1,1.5l1.6,0.1l0.6,0.4L676,323l-2.2,1.2c1.4,0.7,1.8,1.5,1.4,2.3c-0.5-0.2-1.3-0.5-2.3-0.5
			c-1.5,5-2.7,8.2-3.4,9.6l-1.4,2.6c-0.5,0.8-0.2,1.5,0.6,2c-0.2,0.5-0.8,1.1-1.5,1.5c-3.9,12.4-6.9,21.2-9.1,26.1l-1.2,0.8
			c1.3,0.7,1.6,1.4,1.2,2.2c-0.5,0.8-1.2,1.1-2,0.6l-0.9,3.5l-0.4,0.7l-2.2,1.2l-0.4,0.6c1.6,0.8,1.5,3-0.4,6.4l-1.3,1.1
			c0.5,0.2-1.1,4.6-4.5,13c-0.4-0.2-0.7-0.1-0.8,0.2l0.2,2.7l-2.2,1.2l-0.4,0.6c0.7,2.8,0.1,6-1.8,9.7c-0.5,0.9-1.2,1.8-2.1,2.2
			c0.1,1.1-0.1,2-0.6,2.8l-0.7,1.3l-1.4,0.9c0.7,0.4-0.2,3.6-2.8,9.8c-0.4-0.2-1.1,0.2-2.1,1.3v2.6l-1.3,2.5
			c-3,5.7-5.2,10.7-6.1,14.8c-0.4-0.2-0.7-0.1-0.8,0.2c-0.6,3.3-1.8,6.8-3.3,10.5l-1.3,1.1c0.5,0.2,0.2,1.8-0.7,4.3l-1.4,0.9l-2,6.9
			c-0.4-0.2-0.7,0-0.9,0.5c1.3,0.7-0.1,4.8-4.2,12.4l-0.4,0.6c-0.5,0.8-0.2,1.5,0.6,2c-4.5,8.6-8.8,20.3-13,35.3l-1.4,0.9
			c-2.1,5.2-3.4,9.4-4,12.5l-1.4,0.9c-0.2,2.6-0.7,4.5-1.3,5.6c-0.4,0.6-2.1,0.8-5.3,0.6l-2.5-1.3c-0.6-0.4-0.9-1.9-0.9-4.5l3.7-7
			l-5-4.3c5.7-16.3,8.1-24.8,7-25.4c-0.9,0-1.9-0.2-2.9-0.8c-0.8-0.5-1.9,0.4-2.9,2.5l-2.5-2.9c-0.5,0.8-1.2,1.1-2,0.6l-1.3-0.7
			c-1.2-2.8-2-4.3-2.3-4.6c-1.1,0.1-2-0.1-2.9-0.6c-1.9-0.9-1.1-5.2,2.6-12.4l1.3-1.1l-0.9-1.4c0.2-0.4,0.8-0.8,1.8-1.4
			c-0.1-0.8,0.2-2.3,1.3-4.2l-3.7-2l-1.1-1.3c2.2-5.3,2.7-8.3,1.4-8.9l-0.6-0.4c-0.6,1.1-0.8,2.6-0.7,4.3c-0.5,0.8-1.2,1.1-2,0.6
			l-0.7-0.4l-1.1-1.3c-0.5,0.8-1.1,1.1-1.8,0.7l-1.3-0.7c-0.9-0.5,0-4.9,2.9-13.1c0.4,0.2,0.7,0.1,0.8-0.2c-1.9-0.9-2.7-2.6-2.5-4.7
			c-10.9-23.5-17.8-39.5-20.9-47.7c-0.8-0.5-1.5-0.2-2,0.6l-1.4,2.6l-0.1,1.6h-1.4c-0.2,0.5-0.5,1.3-0.5,2.3c-0.6,1.1-1.6,2.1-3.3,3
			l0.7,0.4l-6.3,8.9c0.4,0.2,0.5,0.5,0.2,0.8c-0.8,0.7-1.3,1.2-1.5,1.5l-1.2,3.6c-0.7-0.4-2.6,1.5-5.5,5.9c0.4,0.2,0.5,0.6,0.1,1.1
			l-1.3,1.1c-0.2,0.4-0.4,1.1-0.5,2.1l-1.3,1.1l-0.1,1.6c-0.8-0.5-1.5-0.4-1.9,0.5c-0.5,0.8-0.2,1.5,0.6,2c-0.2,0.5-0.6,0.6-0.9,0.5
			c-0.2,0.4-0.1,0.7,0.2,0.8c-0.9,1.9-2.5,3.5-4.3,5l0.7,0.4l-2.3,2.7l-0.4,0.7l-0.9,3.5c-0.5-0.2-0.8-0.2-1.1,0.1l-0.9,3.5
			c-0.5,0.8-1.2,1.1-2,0.6l-0.1,1.6l-4.7,8.9l-1.6,4.8c-0.5-0.2-0.8-0.1-1.2,0.4l0.7,0.4l-4.1,5.9l-6.1,11.5l-1.6,4.8
			c-0.5-0.2-0.8-0.2-1.1,0.1l-0.4,3.9l-4.9,4.8l-0.1,1.6l-1.3,1.1l0.6,0.4l-2.2,2.8l-5.6,10.8l-1.1,3.4c-0.4-0.2-0.8,0.1-1.3,1.1
			c-0.5,0.9-0.8,2-0.8,2.9c-0.9,0.8-2.3,2.7-4.5,5.7l-0.1,1.6c-2.6,4-4.9,6.3-7,6.9l-2,3.7l-2.9,4.1c0.4,0.4,0.7,2.5,1.4,6.4l-1.1,2
			c-0.4,0.6-1.4,0.8-3.4,0.6c-3.5,0.8-6.7,0.5-9.3-0.8c-0.2-0.1-1.1-0.8-2.3-1.9l-5.4-32.8c-5.6-22.1-8.1-33.9-7.5-34.9
			c-3.3-10.1-4.7-15.7-4.2-16.6c-7.4-25.2-14.1-50.4-20-75.7c-1.1-10.9-4.7-24.8-11.1-41.6l-19.1-56c-10.9-24.8-18.4-43.5-22.5-55.9
			l1.3-2.5l1.3-1.1c0.5,0.2,1.1,0.8,1.8,1.6l2.6-0.4c5.6,10.8,8.3,16.4,8,17.2c4,1.8,6.2,2.2,6.7,1.2l0.4-0.6
			c-0.8-0.5-1.9-3.7-2.8-9.8l0.7-1.3c0.6-1.1,2-1.2,4.1-0.2l0.4-0.6l-0.7-3.6l0.7-1.3c0.7-1.2,2.8-1.2,6.6,0.1
			c1.4,0.7,3.2,3.4,5.5,7.8c2.6-0.2,4.7,0.1,6.2,0.9c2.7,1.4,11.5,23.1,26.4,65l0.6,0.4c-5.6-20-13.5-43.1-23.5-69.1l0.4-0.7
			c2.8-1.6,5.6-1.8,8.4-0.2c1.5,0.8,6,10.7,13.4,29.8l0.7,0.4c-5.6-21-11.6-38.4-17.7-52.4l2.1-1.3c4.1,0.6,6.3,0.6,6.6,0.1
			c2.8,4.9,4,7.7,3.6,8.3l-1.3,1.1c2.9,2.5,4.1,4.2,3.6,5.3l9.4,28.4l-0.7,1.3l-1.3,1.1l1.2,2.2c0.7-1.2,1.4-1.6,2.2-1.2
			c0.4,0.2,1.6,4.9,3.9,14.1c-0.2,0.5-0.8,0.9-1.8,1.4v1.6l2.6-0.4c1.2,1.1,6.1,16.9,14.6,47.4c2.3,3.9,3.4,6.1,3.2,6.6l1.5,10.5
			c2.8,6.1,4.8,12.1,6.1,17.9c1.3,0.8,1.8,2.5,1.5,4.8c2.9,3.7,3.9,6.7,2.7,8.8c1.8,2.7,2.2,4.8,1.4,6.4c1.9,2.7,2.5,4.7,1.9,6
			l6,19.2l0.7,0.4c7.5-16.4,12.8-27.4,15.8-33l0.8-2.9c0.4,0.2,0.7,0.1,0.8-0.2l0.1-1.6l1.3-1.1c2.5-5.6,4.7-10.2,6.4-13.6l4-7.6
			l2.9-4.1c-0.4-0.2-0.5-0.5-0.2-0.8l1.9-2.3l0.1-1.6l1.3-1.1l0.1-1.6l16.8-25.9c0-0.9,0.4-2.1,1.1-3.4c0.7-1.2,1.8-2.3,3.4-3.2
			c-0.1-1.1,0.1-2,0.6-2.9l5.3-3.6c7.5-11.1,12.5-16,15.1-14.8l0.6,0.4c2.2,3,3,4.9,2.8,5.5l-3.3,6.3c2.9,1.5,5.6,4.3,7.8,8.4
			c0.7,0.4,1.4,0.2,2-0.6l0.6,0.4c6.9,6.2,10.2,9.8,9.7,10.8c0.7,0.4,1.4,0.2,2-0.6c2.3,1.3,6.4,6.7,12.4,16.3
			c4.9,6.7,10.8,15.8,17.3,27.2l0.4-0.7l1.5-4.2l1.2-0.8c10.4-34.9,19.6-59.9,27.5-74.9c0.6-1.1,0.8-2.6,0.7-4.3l1.3-1.1
			c9.8-19.4,15.2-31.2,16.2-35.1c0.4,0.2,0.7,0,0.9-0.5l3.6-12.8l1.2-0.8c-0.1-1.6,1.3-7.4,4.2-17.3c0.5,0.2,1.3-0.1,2.2-1.2
			c0.1-2.3,0.4-3.9,0.7-4.6l1.3-0.7c-0.1-1.1,0.1-2,0.6-2.9l0.4-0.7l1.3,0.7l-2,11.2l-0.6-0.4c-0.5,0.8,0.2,1.8,1.9,2.7l-1.4,0.9
			l-0.9-1.4l-0.9,1.9c0.9,0.5,1.8,1.2,2.2,2.1c-0.2,0.4-0.5,0.5-0.8,0.2c0.1,3.6-0.5,6.7-1.6,8.9l0.7,0.4l3.6-3.7
			c1.3-4.6,2-8,2.1-10.2l1.2-0.8c-0.2-2.5,0.2-5,1.5-7.5l0.4-0.6l0.7,0.4c0.9,0.5,0.2,3.9-2.3,10.2l3.5,0.9l1.3,0.7l2.7,2.3l0.1-1.6
			c0.4-0.7,2.5-2.6,6.3-5.6c1.3-2.5,3-6.3,5.3-11.7c1.4-0.9,2.5-1.3,3.2-0.9l0.6,0.4c-3,10.2-4.3,15.8-3.9,16.6l-0.9,1.9l-1.4,0.9
			c1.9,0.6,3.5,1.2,4.7,1.8c5.6-16.6,9-25.9,10.1-28c1.4-1.3,2.5-1.8,3.2-1.4l1.3,0.7C703.2,194.9,702.4,197.9,699.9,203.5z
			 M586,541.5l-0.4,0.7c-0.5,0.8-0.2,1.5,0.6,2l0.4-0.7C587.1,542.8,586.9,542.1,586,541.5z M674.7,328.1c-0.5,0.8-1.2,1.1-2,0.6
			l0.9-1.9l1.3,0.7L674.7,328.1z M619.5,412.4l-0.7,1.3c-1.3,5.5-3.2,11.5-5.5,18.2c-0.2,0.5-0.8,1.1-1.6,1.8l-7,22.3l0.7,0.4
			l0.7-1.3l16.3-43.3C620.8,411.5,619.9,411.8,619.5,412.4z M624.1,405.1L622,409l0.7,0.4l2.1-3.9L624.1,405.1z M703.5,225.8
			l-0.4,0.6c0,1.2-0.1,2-0.4,2.5l0.6,0.4l0.4-0.7c0-0.9,0.1-1.6,0.5-2.1L703.5,225.8z M636.1,276.9l-1.4,2.6l1.3,0.7l0.7-1.3
			C637.1,278.1,636.9,277.4,636.1,276.9z M657.1,226.4l-1.4,2.6l1.3,0.7l0.6-2.9L657.1,226.4z M457.6,531.4l-1.6,3.2l1.6,0.1
			l0.8-2.9L457.6,531.4z M528.7,355.7l-0.9,1.9l0.6,0.4c0.2-0.5,0.8-0.9,1.8-1.4L528.7,355.7z M521.4,367.9l-2.1,3.9l0.7,0.4
			c0.8-1.5,1.5-2.5,2.2-2.8L521.4,367.9z M501.9,404.7l-1.6,3.2l1.6,0.1c0-0.9,0.2-1.9,0.8-2.9L501.9,404.7z M424.6,281.1l-0.4,0.7
			c0,1.5,0.2,2.5,0.8,2.8l0.6,0.4C425.7,282.6,425.3,281.3,424.6,281.1z M422.7,275.3l-0.6-0.4c0.1,2.2,0.5,3.5,1.1,3.9l0.4-0.7
			C423.7,276.5,423.3,275.6,422.7,275.3z M418.4,260.7l-0.4,0.7c0,1.5,0.2,2.5,0.8,2.8l0.6,0.4C419.3,262.3,419,261,418.4,260.7z"/>
	</g>
	<path display="inline" d="M-1052.7,268.5l0.7-0.4c0.4-0.2,0.9,0.1,1.8,0.8c0.6,1.2,2.5,6.2,5.6,15.2c0.7-0.4,1.5-0.7,2.6-1.1
		l-0.8-0.5l-0.6-1.1c0.2-0.5-0.5-3.5-2.2-9.1l0.4-0.1c0.4-0.2,0.9,0,1.8,0.5c1.2,2.9,2.2,5,2.9,6.3c2.1,1.6,3.3,2.7,3.5,3l0.1,0.8
		l1.5-1.3l0.7-0.4l1.9-0.5c-1.4-3.4-1.9-5.3-1.3-5.5l0.4-0.2l0.1,0.4c0.7,1.3,1.1,2.7,0.9,4.1l0.6,0.5c0.1,1.3,0.5,3.2,1.2,5.6l2,2
		l0.4-0.2c-0.7-1.2-0.9-2.8-0.9-4.8c-0.2,0.1-0.4,0.1-0.5-0.1c0.2-0.5,0.7-0.8,1.2-1.2l-0.6-1.1l-0.5,0.8l-0.8-0.5
		c0.9-0.5,1.3-1.1,1.1-1.5l-0.4,0.1l-1.2-6.2l0.7-0.4l0.2,0.4c0.2,0.6,0.4,1.1,0.4,1.6l0.7,0.4c0.2,0.4,0.4,1.3,0.5,2.5
		c0.6,0.6,0.9,0.8,1.3,0.6c1.6,5.4,2.5,8.6,2.5,9.5l0.6,0.5l2.1,6.9c0.1,0.2,0.4,0.4,0.5,0.2c0.6,2.2,3.6,8.6,9,19.2l0.7,0.6
		c-0.1,0.9,0,1.8,0.4,2.3c4.5,8.2,9.6,21.8,15.5,40.8l0.6,0.5l0.8,2.2l0.2,0.4c3.5-6.2,6.7-11.2,9.4-15c3.2-5.3,5.5-8.3,6.7-9
		c0.4,0.5,0.7,0.6,1.1,0.4c-0.2-0.6,1.4-2.6,5.3-6l0.4-0.1c0.4,0.5,0.7,0.6,1.1,0.4c1.2-2.2,2.7-3.7,4.2-4.7l-1.9-3.4
		c-0.2-0.4,0.4-1.3,1.5-3l0.4-0.1c1.4-0.8,4.2,1.9,8.3,8l2.9,2c0.2,0.6,0.4,1.1,0.4,1.6c0.8,0.5,1.5,1.1,1.9,1.8s0.6,1.4,0.6,1.9
		l9.3,14.1l0.1,0.8l0.7,0.6l0.1,0.8l1.1,1.3c0.1,0.2,0.1,0.4-0.1,0.5l1.6,2.2l2.2,4.1c1.1,1.9,2.2,4.3,3.6,7.4l0.7,0.6l0.1,0.8
		c0.1,0.2,0.2,0.2,0.5,0.1l0.5,1.5c1.6,3,4.6,9.1,8.8,18l0.4-0.2l3.2-10.5c-0.4-0.7,0-1.8,0.9-3.3c-0.5-0.8-0.2-2,0.7-3.5
		c-0.6-1.2-0.1-2.7,1.4-4.8c-0.2-1.3,0.1-2.2,0.8-2.6c0.7-3.3,1.8-6.6,3.3-9.8l0.8-5.7c-0.1-0.2,0.5-1.5,1.6-3.6
		c4.6-16.8,7.1-25.4,7.7-26l1.4,0.1v-0.9c-0.5-0.2-0.8-0.5-0.9-0.8c1.2-5,1.9-7.6,2.1-7.7c0.5-0.2,0.9,0,1.3,0.6l0.6-1.3l-0.7-0.6
		l-0.4-0.7l4.9-15.6c-0.2-0.6,0.4-1.5,2-2.9l-0.7-0.6c-0.2-0.4,0.5-1.9,2-4.6c0.1,0.2,1.3,0.2,3.6-0.1l1.2,0.7
		c-3.3,7.7-6.4,17.2-9.4,28.8l0.4-0.2c4-10.4,6.3-15.9,7.1-16.4c1.5-0.8,3-0.8,4.6,0.1l0.2,0.4c-5.4,14.3-9.5,26.9-12.5,38l0.4-0.1
		c8-23,12.7-34.9,14.1-35.7c0.8-0.5,1.9-0.6,3.4-0.5c1.3-2.5,2.2-4,2.9-4.3c2-0.7,3.2-0.8,3.6-0.1l0.4,0.7l-0.4,2l0.1,0.4
		c1.2-0.6,1.9-0.5,2.2,0.1l0.4,0.7c-0.6,3.3-1.1,5.2-1.5,5.4l0.1,0.4c0.2,0.6,1.5,0.4,3.6-0.7c-0.2-0.4,1.2-3.5,4.2-9.5l1.4,0.1
		c0.4-0.5,0.7-0.7,0.9-0.9l0.7,0.6l0.7,1.3c-2.2,6.8-6.2,17.1-12.1,30.7l-10.8,30.3c-3.4,9.3-5.4,16.9-5.9,22.8
		c-3.2,13.8-6.7,27.6-10.5,41.5c0.2,0.6-0.5,3.6-2.2,9.1c0.4,0.6-0.9,7-4,19.2l-2.7,18c-0.7,0.6-1.1,0.9-1.3,1.1
		c-1.4,0.8-3,0.9-5,0.5c-1.1,0.1-1.6,0-1.9-0.4l-0.6-1.1c0.4-2.1,0.6-3.3,0.7-3.5l-1.6-2.2l-1.1-2c-1.2-0.4-2.5-1.6-3.9-3.7
		l-0.1-0.8c-1.2-1.6-2-2.7-2.5-3c0-0.5-0.1-1.1-0.5-1.5c-0.2-0.5-0.5-0.7-0.7-0.6l-0.6-1.9l-3.2-5.9l-1.2-1.5l0.4-0.1l-0.7-0.6
		l-0.1-0.8l-2.7-2.6l-0.2-2.1c-0.1-0.2-0.4-0.2-0.6-0.1l-0.9-2.6l-3.4-6.2l-2.2-3.2l0.4-0.2c-0.1-0.2-0.4-0.4-0.6-0.2l-0.9-2.6
		l-2.6-4.8l-0.1-0.8c-0.5,0.2-0.8,0.1-1.1-0.4l-0.5-1.9c-0.1-0.2-0.4-0.2-0.6-0.1l-0.5-1.9l-0.2-0.4l-1.3-1.5l0.4-0.2
		c-1.1-0.8-1.9-1.8-2.3-2.7c0.2-0.1,0.2-0.2,0.1-0.5c-0.2,0.1-0.4,0-0.5-0.2c0.5-0.2,0.6-0.6,0.4-1.1c-0.2-0.4-0.6-0.5-1.1-0.2
		l-0.1-0.8l-0.7-0.6c0-0.6-0.1-0.9-0.2-1.2l-0.7-0.6c-0.1-0.2-0.1-0.5,0.1-0.6c-1.6-2.3-2.6-3.4-3-3.2l-0.7-2
		c-0.1-0.2-0.4-0.5-0.8-0.8c-0.1-0.2-0.1-0.4,0.1-0.5l-3.5-4.8l0.4-0.2c-0.8-0.5-1.5-1.1-1.8-1.6c0-0.6-0.1-1.1-0.4-1.3h-0.8
		l-0.1-0.8l-0.8-1.4c-0.2-0.5-0.6-0.6-1.1-0.4c-1.6,4.6-5.4,13.2-11.2,26.2c0.1,1.2-0.4,2-1.4,2.6c0.1,0.2,0.2,0.2,0.5,0.1
		c1.6,4.5,2.2,6.9,1.6,7.1l-0.7,0.4c-0.4,0.2-0.7,0.1-0.9-0.4l-0.6,0.7l-0.4,0.2c-0.5,0.2-0.8,0.1-1.1-0.4c0.1-0.9,0-1.8-0.4-2.3
		l-0.4,0.1c-0.7,0.4-0.4,2,0.8,4.9l-0.6,0.7l-2,1.1c0.6,1.1,0.8,1.9,0.7,2.3c0.5,0.4,0.8,0.6,0.9,0.8l-0.5,0.8l0.7,0.6
		c2,4,2.5,6.2,1.4,6.8c-0.6,0.2-1.1,0.5-1.6,0.4c-0.2,0.1-0.6,0.9-1.3,2.5l-0.7,0.4c-0.5,0.2-0.8,0.1-1.1-0.4l-1.3,1.6
		c-0.6-1.2-1.2-1.6-1.6-1.3c-0.6,0.2-1.1,0.5-1.5,0.5c-0.6,0.4,0.7,4.9,4,13.8l-2.7,2.3l2.1,3.9c0,1.5-0.1,2.3-0.5,2.5l-1.3,0.7
		c-1.8,0.1-2.7,0.1-2.9-0.2c-0.4-0.7-0.6-1.8-0.8-3l-0.8-0.5c-0.4-1.8-1.1-4-2.2-6.8l-0.8-0.5c-2.3-8.2-4.8-14.6-7.3-19.2
		c0.5-0.2,0.6-0.6,0.4-1.1l-0.1-0.4c-2.2-4.2-3-6.4-2.3-6.8c-0.1-0.2-0.4-0.4-0.5-0.2l-1.2-3.7l-0.8-0.5c-0.5-1.4-0.7-2.2-0.4-2.3
		l-0.7-0.6c-0.8-2.1-1.4-4-1.9-5.7c-0.1-0.2-0.2-0.2-0.5-0.1c-0.6-2.2-1.8-4.9-3.4-8.1l-0.7-1.3v-1.4c-0.6-0.6-0.9-0.8-1.2-0.7
		c-1.5-3.4-2-5.2-1.6-5.4l-0.8-0.5l-0.4-0.7c-0.2-0.5-0.4-0.9-0.4-1.5c-0.5-0.2-0.8-0.7-1.2-1.2c-1.1-2-1.4-3.7-1.1-5.3l-0.1-0.4
		l-1.3-0.6l0.1-1.5c-0.1-0.2-0.2-0.2-0.5-0.1c-2-4.6-2.8-6.9-2.6-7l-0.7-0.6c-1.1-1.9-1.1-3-0.2-3.5l-0.1-0.4l-1.3-0.6l-0.2-0.4
		l-0.5-1.9c-0.5,0.2-0.8,0.1-1.1-0.4c-0.2-0.5,0-0.9,0.6-1.3l-0.6-0.5c-1.2-2.7-2.9-7.5-5.2-14.3c-0.5-0.4-0.7-0.6-0.8-0.8
		c0.5-0.2,0.6-0.6,0.4-1.1l-0.8-1.4c-0.4-0.7-1.1-2.5-1.9-5.2c-0.6,0-1.1,0.1-1.3,0.4c-0.2-0.5,0-0.9,0.7-1.3l-1.3-0.6l-0.8-1.4
		l0.4-0.1l0.8-0.1l0.1-0.8c-0.4,0.2-0.9,0-1.8-0.5l-0.4-1.5l-0.8-0.5c-0.1-0.2-0.2-1.5-0.2-3.9c-0.5,0.2-0.8,0.1-1.1-0.4l0.6-0.7
		l-1.3-1.6l0.1-1.3l-0.7-0.6c-0.1-0.2-0.1-0.4,0.1-0.5l-3.2-4.5l1.3-0.7c-1.5-1.6-2.3-2.7-2.6-3c-0.2-0.4-0.1-1.4,0.1-3.2l-0.4-0.7
		l-0.7,0.4c0.4,0.7,0.4,1.2-0.1,1.4l-0.4,0.1l-0.6-1.1l0.6-4l-0.1-0.4c-0.7,0.4-1.3,0.4-1.5-0.1l-0.4-0.7c0.7-0.4,0.8-1.2,0.2-2.3
		l-0.4,0.2l-0.6,0.7l-0.6-0.5l-0.2-0.4c0.7-0.4,0.7-1.2,0.1-2.2c-0.5-0.4-0.7-0.6-0.8-0.8c0.2-0.5,0.5-0.8,0.8-0.9l-0.1-0.4
		c-1.2-0.6-2-1.3-2.3-1.9c0.5-0.2,0.6-0.6,0.4-1.1c-0.7,0.4-1.3,0.4-1.5-0.1l-0.4-0.7l0.7-2.2c-0.7,0.4-1.2,0.4-1.3-0.1l-0.2-0.4
		l1.1-0.6l-1.2-1.5l-1.1-2.6c-0.7,0.4-1.2,0.4-1.4-0.1s0-0.9,0.6-1.3l-0.1-0.4l-1.3-0.6c0.2-2.6,0.4-3.9,0.6-4
		c0.1,0.2,0.4,0.4,0.5,0.2c-0.2-0.5-0.1-0.8,0.4-1.1c0.4-0.2,0.9,0.1,1.8,0.8l0.6-0.7l0.4-0.2c0.1-0.1,1.2,0.2,3.2,1.1v-0.9
		c-0.2,0.1-0.5,0.1-0.6-0.2c0.5-0.2,0.6-0.6,0.4-1.1l-0.8,0.1c-0.6-2-0.6-3.2-0.1-3.5l0.7-0.4l1.3,0.1l0.4-0.2
		c-0.4-0.7-0.4-1.2,0.1-1.3c1.2,0.9,1.9,1.8,2.2,2.5l0.7-0.4c-0.9-1.8-1.5-3.5-1.6-5.4c-0.1-0.2-0.4-0.4-0.5-0.2
		C-1052.7,270.4-1053.1,268.8-1052.7,268.5z M-987.5,458.9l0.2,0.4c0.5-0.2,0.6-0.6,0.4-1.1l-0.2-0.4
		C-987.7,458.2-987.8,458.6-987.5,458.9z M-1037,341.2l0.7-0.4l0.6,1.1c-0.5,0.2-0.8,0.1-1.1-0.4L-1037,341.2z M-1007.8,386.9
		l9.1,23.7l0.4,0.7l0.4-0.2l-4-12.2c-0.5-0.4-0.7-0.7-0.9-0.9c-1.3-3.6-2.3-6.9-3.2-9.8l-0.4-0.7
		C-1006.4,387-1006.9,386.9-1007.8,386.9z M-1009.1,383.6l1.2,2.1l0.4-0.2l-1.2-2.1L-1009.1,383.6z M-1053.5,285.9
		c0.1,0.2,0.2,0.7,0.2,1.2l0.2,0.4l0.4-0.1c-0.1-0.2-0.2-0.7-0.2-1.3l-0.1-0.4L-1053.5,285.9z M-1016.2,314.3l0.4,0.7l0.7-0.4
		l-0.8-1.4C-1016.4,313.6-1016.5,314-1016.2,314.3z M-1028.1,285.9l0.4,1.6l0.7-0.4l-0.8-1.4L-1028.1,285.9z M-917.4,451.9l0.5,1.5
		l0.8-0.1l-0.9-1.8L-917.4,451.9z M-957.5,356.2c0.5,0.2,0.8,0.5,0.9,0.8l0.4-0.1l-0.6-1.1L-957.5,356.2z M-953.2,363.2
		c0.4,0.2,0.8,0.7,1.2,1.5l0.4-0.2l-1.2-2.1L-953.2,363.2z M-942.3,382.6c0.2,0.6,0.5,1.1,0.5,1.5l0.8-0.1l-0.9-1.8L-942.3,382.6z
		 M-900.7,316.6l0.4-0.1c0.4-0.2,0.5-0.7,0.5-1.5l-0.2-0.4C-900.6,314.6-900.7,315.3-900.7,316.6z M-899.7,312.8l0.2,0.4
		c0.4-0.2,0.5-0.9,0.6-2.1l-0.4,0.1C-899.6,311.5-899.7,312-899.7,312.8z M-897.4,305.4l0.4-0.1c0.4-0.2,0.5-0.7,0.5-1.5l-0.2-0.4
		C-897.2,303.5-897.4,304.2-897.4,305.4z"/>
	<path display="inline" d="M-789.4,235.9c6.8,0,12.8,2.9,17.9,8.7c11.9,7.3,20.9,20.1,26.5,38.9h-0.6c1.2,4.7,2.9,15.1,5,31
		c0.5,0,1.1,0.5,1.6,1.4v4.7c0,1.1,0.2,2,0.6,2.6c0,0.4-0.2,0.9-0.6,1.6c0.4,8.9,0.7,15,0.9,17.9l-0.4,1.1l0.4,3v1.4
		c0,0.4-0.1,0.6-0.4,0.6c0,0.4,0.1,0.6,0.4,0.6c-0.7,11.5-1.4,18-2,19.6c0.4,0.6,0.6,1.3,0.6,2.2l-1.1,0.6l0.6,0.9
		c-6.9,30.3-13.8,50.7-20.7,61c-2.7,9.7-8.3,19-17.1,28c-6.1,3.3-9.8,5.9-11.2,7.8c-1.5,0-2.6,0.8-3,2.6c-2,0.6-3.9,0.9-5.9,0.9
		c-2.6-0.2-4.2-0.7-5-1.4v0.6c0.4,0.6,0.6,1.1,0.6,1.4l-1.6,1.1h-3.6c-8.9-4.5-13.9-8.6-14.9-12.3c-5.2-6.4-9.7-11.2-13.5-14.5
		l4.6,14.5v0.9h-0.9c-2.9-1.5-7.6-11.7-13.9-30.5c-0.5,0-1.6-3-3.6-9.3c-0.4,0-0.6-0.2-0.6-0.6v-1.8l0.6-1.1c-0.8,0-1.4-0.8-1.6-2.6
		h0.6c-0.9-2-2.2-6.1-3.6-12.3h0.6c-1.1-2.1-2-4.8-2.6-8.3c0.4,0,0.6-0.2,0.6-0.6c-1.3-1.4-2.6-6.8-3.6-15.9c0.4,0,0.6-0.2,0.6-0.6
		c-0.7,0-1.1-0.4-1.1-1.1l0.6-3.4c-0.7-1.2-1.1-2.1-1.1-2.7h0.6l-0.6-0.9c0-0.4,0.2-0.9,0.6-1.6l-0.6-2c0.2-3.2,0.6-4.7,1.1-4.7
		c0-0.4-0.2-0.6-0.6-0.6c0.4-4.9,0.7-7.7,1.1-8.2c-0.4-2.1-0.7-3-1.1-3l0.6-3.6v-6.4c0-2,0.5-4.8,1.4-8.7l-0.6-1.1
		c2.3-8.8,3.9-13.9,4.7-15.5c2.1-2.6,3-4.5,3-5.6l-0.6-2.7c5-19.4,10.4-34,15.9-43.3c0-1.8,2-4.1,5.9-6.7c0.5,0,2.7-2.6,6.7-7.6
		c4.7-4.3,11.5-8,20.1-10.9C-800.4,237-795.9,235.9-789.4,235.9z M-842.6,349.4l0.4,1.1l-0.4,1.1c0,0.2,0.1,0.4,0.4,0.4l-0.4,2.7
		v1.4h0.9v-7.8C-842.3,348.4-842.6,348.8-842.6,349.4z M-842.6,357.2v3h0.9v-3H-842.6z M-841.7,342.2l-0.6,2.7v2.6
		c0.7,0,1.1-0.4,1.1-1.1c0-0.4-0.2-0.6-0.6-0.6l0.6-2.6v-1.1h-0.5V342.2z M-841.7,341.3v0.4c0.7,0,1.1-0.4,1.1-0.9v-0.6
		C-841.3,340.4-841.7,340.7-841.7,341.3z M-840.5,335c-0.4,1.8-0.6,2.9-0.6,3.3v1.4h0.6l0.6-3.6V335H-840.5z M-838.5,308v1.1
		c0.7,0,1.1-0.4,1.1-1.1v-0.9C-838.2,307.3-838.5,307.6-838.5,308z M-836.4,359.2v1.6h0.9v-0.6
		C-835.5,359.6-835.8,359.2-836.4,359.2z M-836.4,361.4v3c0,0.7,0.2,1.4,0.6,2c0,0.4-0.2,0.6-0.6,0.6c0.4,3.5,0.8,7.4,1.4,11.5
		c0,0.2-0.2,0.4-0.6,0.4c2.7,16.6,4.5,24.8,5.3,24.8h0.6c-0.7-9.6-2-16.8-3.6-21.6l0.6-1.1c-0.7-1.8-1.1-3-1.1-3.6h0.6
		c-0.4-0.7-0.7-2.3-1.1-4.7h0.6c-1.1-2.5-1.6-3.7-1.6-4c0-0.4,0.2-0.6,0.6-0.6C-835.4,363.7-835.8,361.4-836.4,361.4z M-830.2,314.8
		v1.1c0.1,0.7,0.5,1.1,1.1,1.1v-2.2H-830.2L-830.2,314.8z M-817.9,411v1.1c0.1,0.6,0.5,0.9,1.1,0.9h0.6v-0.6
		c-0.4-0.6-0.6-1.1-0.6-1.4H-817.9L-817.9,411z M-817.3,264.7h1.1c0-0.6,1.5-2.1,4.6-4.6l1.6-2.2v-0.4
		C-810.5,257.6-813,260-817.3,264.7z M-815.3,339.7c0.4,1.3,0.6,2.6,0.6,3.6c0,0.7-0.2,1.1-0.6,1.1l0.6,2.6
		c-0.4,9.1-0.6,14.6-0.6,16.5l0.6,1.1c0,0.4-0.2,0.6-0.6,0.6c1.6,24.8,4,37.3,6.7,37.3c3.3,5.4,7.5,8.2,12.5,8.2
		c1.1-1.1,2.1-2.9,3-5.6c2.2,0,5.4-7.6,9.8-22.7c1.6-4.3,3.5-13.8,5.6-28.5c-0.6,0-0.9-0.4-0.9-1.1v-2c0-2.5,0.1-4.5,0.4-6.2
		c-0.2-1.8-0.4-3.5-0.4-5.3c0-0.6,0.1-0.9,0.4-0.9l-0.4-2.7v-4c-0.6-1.1-1.3-3.6-2.2-7.8c-0.4,0-0.6-0.2-0.6-0.6v-0.6l0.6-1.1
		l-5.6-8.7c-1.8-5.4-4.9-8.2-9.3-8.2c-3.7,0-8,4.9-12.5,14.9c0,0.8-1.3,3.4-4,7.8C-813.7,329.1-814.7,333.2-815.3,339.7z
		 M-815.3,418.7v0.4c2.8,3.9,5.2,5.9,7.3,5.9h0.6c-3.7-3-5.6-5-5.6-6.2L-815.3,418.7L-815.3,418.7z M-813.7,430.6
		c0.1,0.7,0.5,1.1,1.1,1.1h0.6c0-0.7-0.4-1.1-1.1-1.1H-813.7z M-806,303.6h0.6c1.1-0.5,3.3-3.3,6.7-8.3c0.6,0,0.9-0.4,0.9-0.9h-0.6
		C-800.7,295.3-803.3,298.3-806,303.6z M-800.8,466.6v0.6c4.2,1.1,6.4,1.6,6.7,1.6h0.6v-0.6c-0.6,0-2.3-0.7-5-2.2
		C-799.3,466.5-800,466.6-800.8,466.6z M-794.1,429.5h0.6c1.3-0.5,2-0.9,2-1.4h-0.4C-793.4,428.5-794.1,429-794.1,429.5z
		 M-791.9,244.2l-0.6,0.9c1.2,1.6,2.1,2.6,2.6,2.6c1.3-0.5,2-0.9,2-1.4C-788.8,245.1-790.3,244.4-791.9,244.2z M-792.5,269.9
		c0.1,0.7,0.5,1.1,0.9,1.1h1.6c0-0.7-0.4-1.1-1.1-1.1H-792.5z M-779.6,286.5v0.6l4.6,3.6h0.6c-1.3-2.1-2.8-3.4-4.6-4.2H-779.6z
		 M-772.9,380.4c-1.1,5.2-2,8.4-2.6,9.8v0.6h0.4c2.2-4.7,3.3-8.2,3.3-10.3h-1.1L-772.9,380.4L-772.9,380.4z M-770.9,369.5
		c0,2.8-0.7,6.1-2,9.8l1.1,0.6c0.9-3.4,1.4-5.9,1.4-7.3v-3h-0.5V369.5z"/>
	<path display="inline" d="M-727.5,258.6l0.7-0.2c0.4-0.1,0.9,0.2,1.5,1.1c0.5,1.2,1.5,6.6,3.2,15.9c0.7-0.2,1.6-0.5,2.7-0.6
		l-0.7-0.6l-0.4-1.1c0.4-0.5,0.1-3.5-0.7-9.4l0.4-0.1c0.4-0.1,0.9,0.1,1.6,0.8c0.7,3,1.4,5.3,1.9,6.7c1.9,2,2.8,3.2,2.9,3.5v0.8
		l1.6-1.1l0.7-0.2l2-0.2c-0.8-3.6-1.1-5.5-0.5-5.6l0.5-0.1l0.1,0.4c0.5,1.4,0.6,2.8,0.2,4.1l0.6,0.6c-0.1,1.3,0,3.2,0.4,5.7l1.6,2.3
		l0.5-0.1c-0.5-1.3-0.5-2.9-0.1-4.9c-0.2,0.1-0.4,0-0.5-0.2c0.4-0.5,0.8-0.7,1.4-0.9l-0.4-1.1l-0.6,0.7l-0.7-0.6
		c1.1-0.4,1.4-0.8,1.3-1.3l-0.4,0.1l-0.1-6.2l0.7-0.2l0.1,0.5c0.2,0.6,0.2,1.2,0.1,1.6l0.7,0.5c0.1,0.5,0.1,1.3,0,2.6
		c0.5,0.6,0.8,0.9,1.2,0.8c0.8,5.6,1.1,8.9,0.9,9.7l0.6,0.6l0.9,7.1c0.1,0.2,0.2,0.4,0.5,0.4c0.2,2.2,2.2,9,6,20.4l0.6,0.6
		c-0.2,0.9-0.2,1.8,0,2.5c3,8.8,6.1,23,8.9,42.8l0.6,0.6l0.5,2.3l0.1,0.5c4.5-5.6,8.3-10.1,11.6-13.4c4-4.7,6.7-7.4,8.1-7.8
		c0.2,0.5,0.6,0.6,1.1,0.5c-0.2-0.6,1.9-2.2,6.1-5l0.4-0.1c0.2,0.5,0.6,0.6,1.1,0.5c1.5-2,3.2-3.3,4.9-3.9l-1.3-3.6
		c-0.1-0.4,0.5-1.3,2-2.7l0.4-0.1c1.5-0.6,3.9,2.6,7,9.1l2.6,2.3c0.2,0.6,0.2,1.2,0.1,1.6c0.8,0.6,1.3,1.3,1.5,2
		c0.2,0.8,0.4,1.4,0.4,2l7,15.3v0.8l0.6,0.6v0.8l0.8,1.4c0.1,0.2,0,0.4-0.2,0.5l1.3,2.5l1.5,4.5c0.7,2,1.5,4.7,2.5,7.8l0.6,0.6v0.8
		c0.1,0.2,0.2,0.2,0.5,0.2l0.2,1.6c1.2,3.3,3.2,9.7,5.9,19.1l0.5-0.1l4.8-10c-0.2-0.7,0.2-1.8,1.5-3c-0.4-0.9,0.1-2.1,1.3-3.4
		c-0.5-1.2,0.2-2.7,2.1-4.6c0-1.3,0.5-2.1,1.2-2.5c1.2-3,2.8-6.1,4.8-9.3l1.6-5.6c-0.1-0.2,0.6-1.4,2.2-3.3
		c7.1-15.8,11-24,11.7-24.5l1.3,0.4l0.1-0.9c-0.5-0.4-0.7-0.6-0.8-0.9c2-4.8,3-7.3,3.3-7.4c0.5-0.2,0.9,0.1,1.2,0.8l0.8-1.2
		l-0.6-0.6l-0.2-0.7l7.4-14.6c-0.2-0.6,0.6-1.4,2.3-2.6l-0.6-0.6c-0.1-0.4,0.7-1.8,2.7-4.2c0.1,0.2,1.3,0.5,3.5,0.5l1.1,0.8
		c-4.5,7-9,16-13.8,26.9l0.5-0.1c5.5-9.7,8.8-14.8,9.6-15c1.6-0.6,3.2-0.4,4.6,0.8l0.1,0.5c-7.5,13.4-13.6,25.2-18.3,35.6l0.4-0.1
		c11.5-21.4,17.9-32.6,19.6-33c0.8-0.4,2-0.4,3.4,0c1.6-2.2,2.8-3.5,3.6-3.9c2.1-0.5,3.3-0.2,3.5,0.5l0.2,0.7l-0.7,1.9l0.1,0.4
		c1.3-0.4,2-0.2,2.2,0.5l0.2,0.7c-1.1,3.2-1.9,4.9-2.3,5l0.1,0.4c0.2,0.6,1.4,0.6,3.7-0.1c-0.1-0.5,1.8-3.3,5.6-8.7l1.3,0.4
		c0.5-0.4,0.8-0.6,1.1-0.7l0.6,0.6l0.5,1.4c-3.3,6.4-8.8,15.9-16.6,28.5l-15.3,28.2c-4.8,8.6-8,15.8-9.4,21.7
		c-5.3,13.2-10.9,26.2-17,39.4c0.2,0.6-1.1,3.5-3.6,8.7c0.2,0.7-2.1,6.8-6.9,18.3l-5.5,17.3c-0.8,0.5-1.3,0.8-1.4,0.8
		c-1.5,0.6-3.2,0.5-5-0.2c-1.1,0-1.6-0.2-1.8-0.6l-0.5-1.2c0.6-2.1,1.1-3.2,1.3-3.4l-1.3-2.5l-0.7-2.1c-1.1-0.5-2.1-2-3.3-4.3V463
		c-0.8-1.8-1.5-2.9-2-3.4c0.1-0.5,0-1.1-0.2-1.6s-0.4-0.7-0.6-0.6l-0.4-2l-2.2-6.2l-0.9-1.8l0.4-0.1l-0.6-0.6v-0.8l-2.2-2.9l0.1-2.1
		c-0.1-0.2-0.2-0.2-0.6-0.1l-0.5-2.7l-2.3-6.7l-1.8-3.5l0.5-0.1c-0.1-0.2-0.4-0.4-0.6-0.2l-0.5-2.7l-1.9-5.2v-0.8
		c-0.5,0.2-0.8,0-1.1-0.5l-0.2-2c-0.1-0.2-0.2-0.2-0.6-0.1l-0.2-2l-0.1-0.5l-1.1-1.6l0.5-0.1c-0.9-0.9-1.5-2-2-3
		c0.2-0.1,0.2-0.2,0.2-0.5c-0.2,0.1-0.4,0-0.5-0.4c0.5-0.2,0.7-0.5,0.5-1.1c-0.1-0.5-0.5-0.6-0.9-0.4v-0.8l-0.6-0.6
		c0-0.6,0-0.9,0-1.2l-0.6-0.6c-0.1-0.2,0-0.5,0.1-0.6c-1.2-2.6-2.1-3.7-2.5-3.6l-0.4-2.1c-0.1-0.2-0.4-0.6-0.7-0.9
		c-0.1-0.2,0-0.4,0.2-0.5l-2.7-5.4l0.5-0.1c-0.8-0.6-1.3-1.3-1.5-1.9c0-0.6,0-1.1-0.1-1.3l-0.7-0.1v-0.8l-0.6-1.5
		c-0.2-0.5-0.5-0.7-1.1-0.5c-2.3,4.2-7.4,12.3-15.1,24.1c-0.1,1.2-0.7,1.9-1.8,2.3c0.1,0.2,0.2,0.2,0.5,0.2c0.9,4.7,1.1,7.1,0.5,7.4
		l-0.7,0.2c-0.5,0.1-0.7,0-0.9-0.5l-0.6,0.6l-0.5,0.1c-0.5,0.2-0.8,0-1.1-0.5c0.2-0.9,0.2-1.8,0-2.5l-0.4,0.1
		c-0.7,0.2-0.7,1.9,0,4.9l-0.6,0.6l-2.1,0.7c0.4,1.2,0.5,2,0.4,2.5c0.5,0.4,0.7,0.7,0.8,0.9l-0.6,0.7l0.6,0.6
		c1.3,4.2,1.4,6.6,0.4,6.9c-0.6,0.2-1.2,0.2-1.6,0.1c-0.2,0.1-0.7,0.8-1.6,2.2l-0.7,0.2c-0.5,0.2-0.8,0-1.1-0.5l-1.5,1.4
		c-0.5-1.2-0.9-1.8-1.4-1.5c-0.6,0.2-1.2,0.2-1.6,0.2c-0.7,0.2-0.1,5,1.8,14.3l-3,2l1.4,4.1c-0.2,1.4-0.5,2.2-0.8,2.3l-1.4,0.5
		c-1.8-0.1-2.7-0.4-2.8-0.7c-0.2-0.7-0.4-1.8-0.2-3.2l-0.7-0.6c0-1.8-0.5-4.1-1.2-7.1l-0.7-0.6c-1.1-8.4-2.5-15.1-4.2-20.1
		c0.5-0.2,0.7-0.5,0.5-1.1l-0.1-0.4c-1.5-4.5-2-6.8-1.3-7c-0.1-0.2-0.2-0.4-0.5-0.4l-0.6-4l-0.7-0.6c-0.2-1.5-0.4-2.3,0-2.5
		l-0.6-0.6c-0.5-2.1-0.8-4.1-0.9-6c-0.1-0.2-0.2-0.2-0.5-0.2c-0.2-2.2-0.9-5-2.1-8.4l-0.5-1.4l0.2-1.4c-0.5-0.6-0.8-0.9-1.1-0.8
		c-0.9-3.5-1.2-5.4-0.7-5.5l-0.7-0.6l-0.2-0.7c-0.2-0.5-0.2-1.1-0.1-1.5c-0.5-0.4-0.7-0.8-0.9-1.4c-0.7-2.1-0.8-4-0.2-5.4l-0.1-0.4
		l-1.2-0.8l0.4-1.4c-0.1-0.2-0.2-0.2-0.5-0.2c-1.2-4.8-1.6-7.3-1.4-7.4l-0.6-0.6c-0.7-2-0.6-3.2,0.4-3.5l-0.1-0.4l-1.2-0.8l-0.1-0.5
		l-0.2-2c-0.5,0.2-0.8,0-1.1-0.5s0.1-0.9,0.8-1.2l-0.6-0.6c-0.8-2.9-1.8-7.8-2.8-14.9c-0.4-0.4-0.6-0.7-0.7-0.9
		c0.5-0.2,0.7-0.5,0.5-1.1l-0.6-1.5c-0.2-0.8-0.6-2.6-1.1-5.4c-0.6,0-1.1,0-1.3,0.1c-0.2-0.5,0.1-0.9,0.9-1.2l-1.2-0.8l-0.6-1.5
		l0.4-0.1h0.8l0.2-0.8c-0.4,0.1-0.9-0.1-1.6-0.8l-0.1-1.5l-0.7-0.6c-0.1-0.2,0-1.5,0.4-3.9c-0.5,0.2-0.8,0-1.1-0.5l0.6-0.6l-1.1-1.9
		l0.2-1.3l-0.6-0.6c-0.1-0.2,0-0.4,0.2-0.5l-2.5-4.9l1.4-0.5c-1.3-1.9-1.9-3-2-3.4s0.1-1.4,0.6-3.2l-0.2-0.7l-0.7,0.2
		c0.2,0.7,0.1,1.2-0.4,1.3l-0.4,0.1l-0.4-1.1l1.2-3.9l-0.1-0.4c-0.8,0.2-1.3,0.1-1.4-0.4l-0.2-0.7c0.8-0.2,0.9-1.1,0.6-2.2l-0.5,0.1
		l-0.6,0.6l-0.6-0.6l-0.1-0.5c0.7-0.2,0.8-0.9,0.5-2.2c-0.4-0.5-0.6-0.7-0.7-0.9c0.4-0.5,0.6-0.7,0.9-0.8l-0.1-0.4
		c-1.1-0.8-1.8-1.5-2-2.2c0.5-0.2,0.7-0.5,0.5-1.1c-0.8,0.2-1.3,0.1-1.4-0.4l-0.2-0.7l0.9-2c-0.7,0.2-1.2,0.1-1.3-0.2l-0.1-0.5
		l1.1-0.4l-0.9-1.8l-0.6-2.7c-0.7,0.2-1.2,0.1-1.3-0.4c-0.2-0.5,0.1-0.9,0.8-1.2l-0.1-0.4l-1.2-0.8c0.6-2.5,0.9-3.7,1.2-3.9
		c0.1,0.2,0.2,0.4,0.5,0.4c-0.1-0.5,0-0.8,0.5-1.1c0.4-0.1,0.9,0.2,1.5,1.1l0.6-0.6l0.5-0.1c0.1,0,1.2,0.5,2.9,1.5l0.1-0.9
		c-0.2,0.1-0.5,0-0.6-0.2c0.5-0.2,0.7-0.5,0.5-1.1h-0.8c-0.2-2.1-0.1-3.3,0.5-3.4l0.7-0.2l1.3,0.2l0.5-0.1c-0.2-0.7-0.1-1.2,0.2-1.3
		c0.9,1.2,1.5,2,1.9,2.8l0.7-0.2c-0.7-1.9-0.9-3.7-0.7-5.5c-0.1-0.2-0.2-0.4-0.5-0.4C-727.7,260.5-727.9,258.7-727.5,258.6z
		 M-692.8,456.8l0.1,0.5c0.5-0.2,0.7-0.5,0.5-1.1l-0.1-0.5C-692.8,456-693,456.3-692.8,456.8z M-723.4,332.7l0.7-0.2l0.4,1.1
		c-0.5,0.2-0.8,0-1.1-0.5L-723.4,332.7z M-701.6,382.5l5.4,24.8l0.2,0.7l0.5-0.1l-2-12.7c-0.4-0.5-0.6-0.8-0.7-1.1
		c-0.8-3.7-1.3-7.1-1.5-10.2l-0.2-0.7C-700.2,382.9-700.7,382.6-701.6,382.5z M-702.4,379l0.8,2.2l0.5-0.1l-0.8-2.2L-702.4,379z
		 M-731,275.6c0.1,0.2,0.1,0.7,0,1.2l0.1,0.5l0.4-0.1c-0.1-0.2-0.1-0.7,0-1.3l-0.1-0.4L-731,275.6z M-698.6,309.5l0.2,0.7l0.7-0.2
		l-0.6-1.5C-698.6,308.7-698.8,309.1-698.6,309.5z M-705.8,279.6l0.1,1.6l0.7-0.2l-0.6-1.5L-705.8,279.6z M-622.4,460.8l0.2,1.6h0.8
		l-0.7-1.9L-622.4,460.8z M-647.1,360c0.5,0.4,0.7,0.6,0.8,0.9l0.4-0.1l-0.4-1.1L-647.1,360z M-643.9,367.7c0.4,0.2,0.7,0.8,0.9,1.8
		l0.5-0.1l-0.8-2.2L-643.9,367.7z M-636.2,388.6c0.2,0.6,0.2,1.2,0.2,1.6h0.8l-0.7-1.9L-636.2,388.6z M-584.9,329.7l0.4-0.1
		c0.4-0.1,0.6-0.6,0.7-1.4l-0.1-0.5C-584.4,327.8-584.7,328.5-584.9,329.7z M-583.2,326.2l0.1,0.5c0.4-0.1,0.7-0.8,0.8-2l-0.4,0.1
		C-582.9,324.9-583.1,325.4-583.2,326.2z M-579.8,319.3l0.4-0.1c0.4-0.1,0.6-0.6,0.7-1.4l-0.1-0.5
		C-579.4,317.3-579.6,318-579.8,319.3z"/>
	
		<text transform="matrix(1 0 0 1 -912.2064 -281.0092)" display="inline" font-family="'HoW-tO-dO-SoMeThInG'" font-size="234.3018">WoW</text>
</g>
</svg>
